<svg width="600" xmlns="http://www.w3.org/2000/svg" xmlns:xlink="http://www.w3.org/1999/xlink" height="400"><path fill="#090" d="M0 0h600v400H0z"/><path fill="#bf0000" d="M0 0h400v400H0z"/><path d="M0 0h200v400H0z"/><g stroke-width=".5" stroke="#bd6b00" fill-rule="evenodd" fill="#fff"><path d="M319.5 225.8h8.4c0 3.2 1.7 6.6 4.3 8.5h-16c2.5-2.2 3.2-5 3.2-8.5z"/><path d="M266.7 178.5l4.6 5 57 .2 4.6-5-14.7-.3-7-5h-23l-6.6 5h-15z" stroke="none"/><path d="M290 172.7h19.7c2.6-1.4 3.5-6 3.5-8.4 0-7.4-5.3-11-10.5-11.2-.8 0-1.7-.5-2-1.2-.4-1.6-.3-2.7-.8-2.6-.6 0-.5 1-1 2.4-.2.8-1 1.5-2 1.6-6.4.3-10.5 5-10.4 11 0 4 .6 6.5 3.4 8.5z"/><path d="M257.7 242.8H342l-7.4-6h-69.4l-7.5 6z" stroke="none"/><path d="M296.4 219.7l1.5 4.6h3.4l-2.8-4.6h-2.2zm-2 4.6l1 4.6h4l-1.5-4.7h-3.6zm7 0l2.8 4.6h6l-4.7-4.7h-4zM267 234.8c3-3 5-5.3 5-9h7.6c0 2 .7 3.3 1.8 3.2h7.7v-4.6h-5.5v-24.7c-.2-8.8 10.6-13.8 15-13.8h-26.3v-1h55.3v1H301c7.8 0 15.4 7.4 15.5 13.7v7h-1v-7c0-6.8-8.8-13.3-15.8-13-6 0-15.4 6-15.3 13v2.2h14.3v2.5l2 1.4 4.6 1.3v3.8l3.2 1v3.7l3.8 1.7v3.8l2.5 1.5v4l3.2 2.2h-7.8l5 5.4h-7.4l-3.6-5.5h-4.7l2 5.3h-5l-1.2-5.4H289l.2 5.7H267zm22-15v4.6h5.4l-1-4.6H289z"/><path fill="none" d="M289.4 211.7h3.3v7.6h-3.3z"/><path d="M284.7 219.8h3.2v-5.6c0-2.4 2-5 3-5 1.3 0 3 2.3 3 4.8v5.8h3.5v-14.4h-12.8V220zM310.3 223h4v3.2h-4zM308 217.8h4v3h-4zM304 212.4h4v3h-4zM300.7 208h4v3h-4z" fill="none"/><path d="M298 219.8l4.2.2 7.3 6.4v-3.8l-2.5-1.8v-3l-3.6-2v-3.3l-3.5-1.2V207l-1.8-1.6v14.4z" fill="none"/><path d="M315.4 210.3h1v7h-1z"/><g id="a"><path d="M257.3 186.5c-1.2-2-2.7 2.8-7.8 6.3-2.3 1.6-4 6-4 8.7 0 2 .2 4 0 5.8 0 1-1.4 3.8-.5 4.4 2.2 1.7 5 5.5 6.4 6.8 1.2 1 2.2-5.3 3-8 1-3 .6-6.7 3.2-9.4 1.8-1.8 6.4-3.7 6-4.5l-6.3-10z"/><path d="M257 202c-.3-1-1-2-1.6-2.7-.7-.8-1.5-1.5-2.4-1.8-1-.3-1.8-.7-2.4-1.5-.4-.4-.6-1-.8-1.5v-2l-.3.3c-2.3 1.6-4 6-4 8.7v2.3c.2.5.3 1 .6 1.3.4.5.8.7 1.2 1l2.7.6c.8.4 1.7 1 2.5 2 .8.8 1.4 1.8 1.8 2.6 0-.2 0-.6.2-.8.8-2.7.7-6 2.6-8.5z" fill="#bf0000"/><path d="M249.8 192.4c-.5 3.3 1.4 4.5 3.2 5 1.8.8 3.3 2.7 4 4.5M245.3 203.4c.8 3 2.8 2.6 4.6 3.2 1.7.7 3.6 3 4.4 4.7" fill="none"/><path d="M255.6 184.5l1-.6 17.7 29.8-1 .6-17.7-30z"/><path d="M257.5 183.3a2 2 0 1 1-4 0 2 2 0 1 1 4 0zM272.7 159.3h7.2v1.6h-7.3zM272.7 162.4h7.2v13.8h-7.3zM272.3 157.4h8c.3-2.7-2.4-5.6-4-5.6s-4 3-4 5.6z"/><path stroke="none" d="M292.6 155.8c-1.5.6-2.7 2.3-3.4 4.3-.7 2-1 4.4-.6 6.2 0 .7.3 1 .5 1.5s.5.5.7.5c.3 0 .6 0 .7-.3l.2-1c-.2-1.8 0-3.7.3-5.3.3-1.7 1.2-3.2 3-4.4l.4-.7c0-.3 0-.5-.3-.7-.3-.4-.8-.5-1.4-.2zm.2.4c.3-.2.8 0 1 0v.3l-.2.4c-1.7 1.2-2.7 2.8-3 4.5s-.6 3.7-.4 5.6c0 .4 0 .6-.2.7h-.2s-.2 0-.4-.3l-.4-1.2c-.3-1.7 0-4 .7-6 .6-1.8 1.8-3.4 3-4z" fill="#bd6b00"/><path stroke="none" d="M295.2 157.7c-1.5.7-2.5 2.3-3 4.2-.6 1.8-.7 4-.3 5.8 0 1.3.8 2 1.5 2 .3 0 .6 0 .8-.3.2-.3.3-.6.2-1-.4-1.5-.5-3.4-.3-5s1-3.3 2.2-4.2c.3-.3.5-.5.5-.8l-.3-.6c-.4-.4-1-.5-1.5-.3zm.2.5c.3-.2.8 0 1 0v.3l-.2.4c-1.5 1-2.2 2.6-2.4 4.3-.3 1.8-.2 3.7.2 5.2v.8h-.5c-.4 0-1-.4-1.2-1.6-.3-1.7-.2-4 .3-5.7s1.5-3.3 2.8-3.8z" fill="#bd6b00"/><path d="M272.3 187.4h8v11h-8zM272.8 204.8h7.7v2.3h-7.7zM272.6 209h8v8.6h-8zM272 219.4h8.7v5H272zM273 202.8h7l1.5-2.3h-9.7l1.3 2.3zM282.5 194.3v-6h5c-2 1.4-3.7 3.3-5 6z"/><path d="M273.6 196.7c0 1.3 1.5.8 1.5 0v-5.5c0-1 2.5-.8 2.5 0v6c0 .8 1.7.8 1.6 0V190c0-2-5.4-2-5.4 0v6.7zM273.6 210h5.7v7h-5.7z" fill="none"/><path d="M277.2 213h2v1h-2zM273.7 213h2v1h-2zM275.7 210h1.5v3h-1.5zM275.7 214h1.5v3h-1.5zM244 139c.3 5.5-1.4 8.6-4.3 8-.8-3 1-5 4.3-8zM237.5 151.3c-2.6-1.3-.7-11.5.3-15.8.7 5.5 2 13.3-.3 15.8z"/><path d="M238.4 151.8c4.5 1.5 8-3.2 9-8.7-3.5 5-9.4 5-9 8.8zM235 157c-3.3-1-1.3-11.8-.6-16 .7 4.4 3 14.5.7 16zM236.3 156.6c.2-3.7 4-2.7 6.5-4.6-.5 1.8-2 5-6.5 4.6zM232 161.6c-3.3-1-1.3-12.6-1.5-17.3 1 4 4.2 16.2 1.6 17.3zM233.7 161c2.8 1 6.5-.8 6.8-4.2-2.5 1.7-6.3.4-6.8 4.3z"/><path d="M229.5 166.7c-3.2.3-1.8-9.6-1.8-18.8 1.2 8.5 4.5 16.4 1.8 18.7z"/><path d="M230.7 166.3c2.2 1 6-.7 7.2-4.4-4 1.6-6.7 0-7.3 4.3zM256.3 144c-.6 5-2.6 7.8-5.5 7.3-.8-3 1.6-5 5.5-7.2zM248.5 156.5c5 .7 6.6-3 10-8-4.7 3.5-10.2 4.2-10 8z"/><path d="M247 156c-2.6-3.2 0-7.3 2-10.7-.4 5 1.3 8-2 10.7zM246 161.3c-.4-3.2 5-4 7.4-5.6-1 1.8-2 6.7-7.5 5.6z"/><path d="M244.8 161.3c-3.7-.4-2.2-6.7.5-10-1 4.7 2 8-.5 10z"/><path d="M242 166.6c-4.2-2-1.5-7.2 0-10.3-.6 4 2.8 7.2 0 10.3z"/><path d="M242.8 166c2.2 3 6.5-.8 7.4-5.2-3.7 3-6.5 2.6-7.4 5.3zM233.2 186.3c-.4-4.3 2.8-12 .5-16.2-.3-.5.7-2 1.4-1 1 1.4 2 5.6 2.5 4 .5-1.7.6-4.6 2-5.2 1-.3 2.4-.6 2 1-.4 1.4-1.2 3.3-.3 3.5.5 0 2-2 3.3-3 1-.8 2.6.6 1 1.8-4.8 4-9.5 6-12.3 15.3zM224.5 250.8c-.6 0-1.3-.3-.6.6 5.5 7 7.2 9 15.5 8s10.3-3.4 16.2-6.7c3-1.8 7.7-2.2 11.2-1 1.5.4 2.4.5 1.3-.7-1.2-1-2.5-2.7-4-3.8-3-2.4-8.4-3.4-12.7-2.7-6 1-11 5-17.2 6.4-3 .6-6.6.5-10-.2zM272.3 263.4c1 0 1.7 2 2.2.7 1-2 .3-4-.7-3.7-1.2.3-3 3-1.5 3z"/><path stroke="none" d="M220.6 183c-1.2-1.3-1-1.8 1-2 1.4 0 4.2 1 5.3.2.8-.7.4-3.7 1-5 0-1 .6-2 1.8-.2 3.7 5.8 8.2 12.8 10 19.6 1.2 3.8.2 9.8-3.3 13.8 0-3.4-1.2-5.7-2.7-8.6-2-3.7-9-14-13.2-18z"/><path d="M235.5 213.4c4 0 4.7-5.3 4.7-6.8-2 .4-5.4 3.7-4.7 6.8zM270 265.3c2.8.6 2.7-6.2 0-9 1 4.3-2.3 8.3 0 9z"/><path d="M269 265.2c0 3.2-8-.4-10.2-3 4.8 2 9.8.4 10 3zM265.3 260.6c.3 3-7 .3-9.3-2 5 1.5 9-.6 9.3 2zM266.6 261c3 .7 2.4-6.4-.3-8.8 1.3 4.7-2 8 .3 8.8zM263.6 256.7c3 .7 1.3-5.4-.8-7.8.3 4.3-1 7.4.8 7.7zM262 256.7c.4 3.2-5.3.8-7.5-2.3 4.8 1.6 7.3-.3 7.6 2.3zM260.6 254.2c1.8-1.3 0-4.8-3.7-4.6.3 2 1.5 6 3.6 4.6zM274.5 269c.2 3-8 1.5-10.5-2 5.2 1 10.3-.7 10.5 2zM242.2 263c.3 3.3-8.6-.3-10.8-3.3 4.7 1.5 10.5.8 10.8 3.4zM247.6 264.4c2-1.3-2-4.7-5-5.5.4 2 3 6.7 5 5.5zM248.2 266.7c.2 3-9.5 1.3-12-1.4 8.3 1.5 11.7-1 12 1.4z"/><path d="M252.8 268.6c1 2.7-8.3 2-11.6.5 5.3 0 10.8-2.3 11.6-.4z"/><path d="M257 270.6c1.2 2.4-7.5 2.4-11.7 1 5.6 0 10.8-3.4 11.8-1zM263.4 272c1.6 2.8-7.6 3-10.5 1.6 5-.7 9-4 10.4-1.7zM252.7 267c-3 1.8-2.7-3.6-5-7.3 3.6 3.3 7 5.6 5 7.3z"/><path d="M258 269c-2.6 2-4.5-5.3-6.7-9.5 3.6 4 8.8 7.6 6.6 9.4zM264.7 271c-2 2.4-8-7-10.2-12 3.3 4 11.8 10 10.2 12zM259 278.2c-1 3.6-16.3-3.4-18-7 8.7 4.5 18 3.5 18 7zM210.2 204.4c-.4-.5-1.4 0-1.2 1 .3 1.6 2.5 9.3 6.3 12 2.7 2 17 5 23.4 6.4 3.6.7 6.5 2.5 9 5.3-1-3.6-2-6.3-3-9.7-1.3-3-4.5-6.2-8-6.3-6-.3-14-.8-19.8-3.3-3-1.3-5-3-6.8-5.3z"/><path d="M245.5 235c2 1.3 4-3.8 1.7-8.7 0 4.7-4 6.3-1.7 8.6z"/><path d="M247.4 239.6c2.7.8 3.5-4 1.8-7.8.3 4-4.3 6.6-1.8 7.8zM249.5 243.4c2.6 1.3 3.5-3.6 1.7-7 .2 4.4-3.7 5.8-1.7 7z"/><path d="M248.4 243.7c-1 3-7-2.7-8-5.8 3.7 3.6 8.7 3.2 8 5.7z"/><path d="M245.7 239c-1.2 3-8.7-5-10.4-8.7 3.7 3.7 11.2 6.5 10.4 8.6z"/><path d="M244.2 234.3c-1.2 3.5-9.4-5.8-11.7-9 4 3.5 12.6 6.5 11.7 9zM244 231c2.8-.7-.2-3-3.8-7 0 4 .5 7 3.7 7z"/><path d="M239 228.5c1.3-1.3-1-2-4-5.3-.6 2.3 2.7 6.5 4 5.3zM253 243.7c1.6 1 2.7-2.3.7-5.2-.5 3.2-2 4-.7 5.2zM218.8 223.4c-3.3 2-8.6-6-10-9.3 3 4 10.6 7.3 10 9.4z"/><path d="M221.7 228c-2 2-7.7-3.5-9.7-6.3 3 2.7 10.5 3 9.7 6.3z"/><path d="M224.8 232.2c-.6 2.8-9-3.5-11-6.5 3.6 3.5 11.6 3.2 11 6.5z"/><path d="M223.5 235.3c-1.3 2.5-8.2-3.8-10-7 4.4 3.6 11 4.5 10 7zM220 223c2.2-2.3 1.2-3.4-.4-7-.8 3.7-2 5.2.4 7zM223 227.3c3.8.2 0-4.6-1-8.7.3 4.6-1 8.3 1 8.7z"/><path d="M225.4 231c2.7-.5 2-4.4-.2-9 .5 5-2.3 8 .2 9zM224.4 238.8c-1 3-8.8-4-10-6.8 4 3.4 10.7 4.5 10 6.8z"/><path d="M229 243.6c-1 3-9.2-3.2-11.7-6.6 5 4 12.4 3.6 11.8 6.6z"/><path d="M234 248.5c-1.4 4.3-10-2.6-12.5-6 5.4 4.2 13 3 12.4 6zM225.8 237.4c2.4 1.2 3.3-5.4 2-10 0 5-4.7 8.8-2 10z"/><path d="M229.8 242.7c2.8.8 2-6.3-.5-11-.3 4.6-2.3 9 .5 11zM234.8 247.6c3 0 1-6-1.6-9.7.4 4.6-1 9 1.6 9.6zM229.3 250.2c-1 1.6-3.2-1.3-7-3.5 3.4 1 7.4 2 7 3.5zM227.5 197.5c3-2.2.7-6.2 0-10-1 3.6-3.4 8.4 0 10zM227.4 202.8c-4.3-.5-3.7-6-3.8-9.7 1.3 5 5 5.8 3.8 10z"/><path d="M228 202c3.8 0 3.6-4.3 3.8-8.5-2 4-4 4.5-3.7 8.6zM228 207.3c-3 .3-4.4-2.6-5-7 2.7 4 5 2.8 5 7zM229 207c3.7.5 3-3.8 3-7-1.2 3-4.2 4-3 7z"/><path d="M223.2 205.2c.3 2.8 2 7.6 5 6.5 1-3.4-2.6-4-5-6.5z"/><path d="M229 212c-1.2-2.4 3-3.7 3.8-7 .5 4.7 0 7.7-3.8 7zM217 182.8c2.4-2.4.4-6.4-.3-10.2-1 3.6-2.5 8.4.4 10.2zM217 187.4c-4 .5-5-7.8-5.4-11.3 1.3 5 6 7.2 5.5 11.4zM218 187.4c2.7-1.5 2-4.7 3-7-2 3-3.7 3.3-3 7z"/><path d="M217 192.8c-4 .3-6.7-8.8-6.8-12.4 1.3 5 7.4 7.5 7 12.3zM218 192.6c4-1 3.4-3.5 2.8-7.6-1.3 4.2-3.5 3.3-3 7.6z"/><path d="M217 198c-4.6.8-4.3-6.6-8-12 3.2 4 9 9 8 12zM218 197.8c3.6 0 4-5.2 3.7-7.4-.8 2.2-5 4.2-3.6 7.4z"/><path d="M209.8 192.3c1.7 5.7 4.2 11.4 7.2 11 1.5-3.3-2.8-3.7-7.2-11z"/><path d="M218 202.4c-1-2.5 3-3.7 4-7 .4 4.7 0 7.7-4 7zM211 198.8c2.5 5 3.6 11 7 10 1.3-4-3.8-4.7-7-10z"/><path d="M218.7 208c-1.5-2.8 2.7-3.7 3.8-7.4.5 4.8 0 8.3-3.8 7.3zM226 173.4c2.3.7 5-2 4-6.2-2.8.7-4 3.3-4 6.3zM218 171.4c.2 1 1.7 1.3 1.2-.4-.3-1.3-.4-2.3 0-3.4.6-1.3.4-3.6 0-4.6-.4-1-1.8-.4-1.2.4.6 1 .7 2.8.2 3.7-.6 1.4-.4 3.2-.2 4.4zM241 187.3c-1 1.4-3 .6-1.5-1.4 1.2-1.6 3-3 3-4.5 0-2 1.3-5 2.4-6 1-1.2 2.3.3 1 1-1.2 1-2 4.5-2 6 0 2-2 3.3-3 4.8zM238 185c-1 1.5-2.5.7-1.7-1.6.7-1.5.8-3.4 1.6-4.6 1-1.7 3-3 4-4.2 1.2-1 2 0 1 1-1.2 1.2-2.5 2.7-3.3 4-1.4 2.2-.8 4-1.8 5.5zM222.2 178c0 1.8 1.5 2.3 1.4-.5 0-3-2.2-5.8-1-10.3.8-2.2.8-6.3.4-8.4-.4-2.2-2-.8-1.3 1 .6 1.8-.2 5.5-.6 7.4-1.4 5.4 1.3 8 1.2 10.7zM226.5 167c-.2 1.8-1.8 2-1.3-.6.4-2 .4-3.6 0-5.3-.6-2-.4-5.6 0-7 .5-1.7 2-.8 1.4.4-.7 1.5-.8 4.5-.3 6 .6 2 .5 4.7.2 6.6zM211 204c.7 1 2 .3.8-1-1-1-.6-1.2-1.2-2.4-.6-1.4-.6-2-1.2-3-.7-1-1.6 0-1 .7.8 1 .6 1.6 1 2.5 1 1.5.7 2.3 1.5 3.2zM231.3 228.6c2.5 1.2 4.3 4.2 4.5 6.6.2 3 .6 5.2 1.8 7.2-2-.5-3-3.7-3.2-6.8-.3-3.2-2-4.6-3-7zM236.4 234.5c1.7 3 4 4.3 4.2 6.6.2 2.8.4 3 1 5.5-2-.5-2.4-.7-3-4.7-.2-2.8-2.5-4.7-2.2-7.3z"/><path stroke="none" d="M289 263.3c1 1.8 2 4.5 4 4 0-1.3-2-2.3-4-4zM292 264c3.7 1.5 7 1 7.5 3.5-3.6.4-5-1-7.6-3.6zM276 251.2c2.4 2.2 4 4.6 5 7.7.7 2.8 2 5 3.5 7.7-2.7-1.8-4.4-4.4-5.3-7.4-.7-3-1.6-5.3-3.4-8zM279 251.2c2.8 2.2 5.4 4.7 6.2 8 .8 2.8 1.3 5 3.2 8-3-2-4-4.8-5-8-.7-3-2.5-5-4.4-8zM288.2 258.5c0-.6.3-1 .7-1.2l2.5-.8c1-.3 1.6.4 1.6 1v2c0 .6 0 .7-.6.8-.7 0-1.7.2-2.4.7-.6.4-1.2 0-1.5-.5l-.3-2zM298.8 258.5c0-.6-.2-1-.6-1.2-.8-.4-1.6-.4-2.4-.4-1 0-1 0-1 .5 0 .8-.2 1.6 0 2 0 1 0 1 .3 1 .8 0 2 .2 2.5.7.6.3 1.2 0 1.2-.6v-2z"/></g><use x="-600" xlink:href="#a" transform="scale(-1 1)"/><g stroke="none"><path d="M328.5 286.6c0 1.2.2 2.2 1 3-4-1.5-10-.6-13.8 1.2-1.8.8-4-1-2-2.7 3-2.2 9.8-1 14.8-1.3zm-57.5 0c0 1 0 2-.4 3 4.4-1.7 9-.2 13.6 1.6 3 1.3 3.3-1 2.8-1.7-1-1.4-2.7-2.8-5-3h-11zm3.8-21.7c-1.3-.6-2.7 0-4 1.3-4.3 4.2-9.4 8.4-13.5 11.6-1.5 1.2-3 3.6 3.4 6 .3 0 5 1.8 8 2 1.3 0 1.3 1.7 1 2.2-.5 1 0 1.4-1 2.3-1.2 1 0 2 .8 1.3 3.7-3.2 9.7-1 15.4.7 1.3.4 3.7.3 3.7-1.6 0-2 1.5-3.5 2.4-3.6 2.5.4 14 .5 17.6 0 2-.2 2.2 3 3.3 4.2.7.8 3.6 1 5.7 0 4-1.7 10-1.7 12.5 0 1 .8 2 .2 1.3-.6-.8-1-.7-1.6-1-2.4-1-2-.3-2.4.7-2.5 11-1.4 14.6-5 11.2-8.2-4.4-3.8-9.2-7.7-13.4-12.2-1.2-1.2-2-1.7-4.3-.7-7.2 3.2-16.4 5.6-25.3 5.8-8.4 0-20-3.8-24.6-6z"/><path d="M326.6 265.5c-.6 0-1.2.3-1.6.4-9 3-17.2 5.3-25.7 5.3-8.3 0-17-2.4-25-5.6-.3-.2-1 0-1.4 0-.6 0-1 .4-1.4.7-3.7 3.6-7.6 7-11.8 10.3-.7.5-.6 1.8.5 2.2 8.3 3 16.4 8.4 39.6 8.2 23.4-.2 31.7-5.6 39-8 .6-.3 1.2-.6 1.4-1 .2-.3.2-.6 0-1 0-.2-.2-.5-.5-.8h-.2c-4.2-3.4-8.7-6.2-11.7-10.4-.2-.4-.8-.5-1.4-.5zm0 .5c.6 0 1 0 1 .3 3.2 4.3 7.8 7 12 10.5.3.2.4.5.5.6v.5c0 .2-.6.5-1 .6-7.6 2.5-15.7 8-39 8.2-23.2.2-31.2-5.3-39.5-8.4-.8-.3-.7-1-.4-1.3 4.3-3 8.3-6.7 12-10.3.2-.2.6-.5 1-.6h1.2c8 3.4 16.7 5.7 25 5.7 8.7 0 17-2.2 26-5.3.4-.2 1-.4 1.5-.4z" fill="#bd6b00"/><path d="M269.7 114.6c0-1.4 2-1.5 1.8.4-.3 2.3 4.5 8.3 5 12 .2 2.5-1.6 4.6-3.3 6-2 1.6-5.3 1.4-6.8.5-1-.8-1.7-3.3-1-4.3.2-.3 1.3 3.7 3.7 3.7 3.4 0 6-2.6 6-4.8.3-3.8-5.2-9.8-5.3-13.6zM279.2 124c.6-.4 1.4 1.2.8 1.7-.5.3-1.5-1.3-.8-1.8zM280.7 120.5c-.3.2-.8 0-.7-.2.8-1 2.4-2.8 3.6-3.3.4-.2 1 .4.8.7-.7 1-2.4 2.2-3.7 2.8zM293.3 110.5c.3-.6 2-1.3 2.6-1.7.3-.5.5.3.3.7-.3.7-2 1.7-2.5 1.8-.4 0-.7-.4-.5-.7zM297.6 110.8c.4-1.2 1.7-2.8 2.5-3.4.6-.3 1.4 0 1.2.4-.3 1-2 2.6-3 3.3-.2.4-.7 0-.6-.2zM294 113.5c-.4.2-.2.7 0 .8.6.2 1.6.2 2 0 .6-.4.3-3-.5-1.6-.6.8-1 .6-1.6.8zM286.6 119c-1.3-1 .4-2.3 1.7-1.3 2.7 2-4 9.8-7.6 13.4-.7.8-1.2-1-.4-1.8 2.6-2.2 5-4.8 6.8-7.6.4-.5.7-1.6-.4-2.5zM302 112.5c0-1-1.7 0-1.7-1.3 0-.7 2-1.2 2.7-.4 1.3 1.4.3 3.7-2 4-1.8 0-5 2.6-4.5 3 .5.8 5.4 1.2 8.3.8 1.8-.3 1.4 1.3-.4 1.5-1.8.3-3.2 0-4.8.7-2 .5-2.8 3-4 4 0 .2-.7-.8-.5-1.2 1-1.2 2-3 3.5-3.6.8-.4-2.4-.5-3.4-.8-.7-.2-.5-1.3-.2-1.8.4-1 3.5-4 4.7-4 1 0 2.3-.2 2.4-1zM307 112.7c.5-.5.8-1.3 1.4-1.8.3-.4 1 0 .8.7 0 .7-1 1.2-1.5 1.7-.5.3-1-.4-.7-.7zM313.4 110.4c1 0 1 1.6.2 1.8-.6.2-1-1.7-.2-1.8zM311.3 115.5c0 1.4.7 1.2 2 1.2s2.4 0 2.4-1.2c0-1.4-.7-2.5-1-1.6 0 .7-.3 2-.8 1.5s-.3-.6-1 .2c-.6.5-.6-.2-1-.6 0-.2-.7.3-.7.5z"/><path d="M302 122.6c-.2 2 0 4.5 1 4.5 1.2.2 3.6-4 4.8-6 .7-1.3 1.8-1.5 1.3-.2-.6 2-.5 6 0 7.2.5.6 3-.6 3.5-1.5.8-1.7.2-4.8.4-6.7 0-1.2 1.2-1.5 1-.3 0 2-.2 5.8 0 7.5 0 1 3 2.4 3.3-.6.2-1.8 1.2-3.7 0-5.7-.8-1.3 1-1.2 2 .6.8 1.2-.5 3.2-.4 4.7 0 2.4-2 3.8-3.2 3.8-1.2 0-2-1.5-3-1.5s-2.2 1.7-3 1.6c-3.5-.3-1.7-5.4-2.8-5.5-1 0-2.5 5-4 5-1.4-.3-3-4.3-2.3-6 .5-1.5 1.5-2 1.4-1zM319 114.6c-1.7-1 0-3.7 1-2.8 1.5 2 3 6.5 4.3 7 .7 0 .6-3.5 1-5 .5-1.4 2-1 1.7.6 0 .5-2 6.4-1.8 6.7 1.2 2.6 2.5 5 3.3 7.8.3 1.2-1 .4-1.3.2-1-1.4-2.4-6.5-2.4-6.2l-1.7 7.7c0 1-1.6.8-1.2-1 .3-1.4 2.3-8.3 2.2-8.5-1.6-3-3-5.2-5-6.4z"/><path d="M322 131.2c-.4 0-1.2 1 1.2 1.5 3 .6 6.6-.5 7.7-3.6l2.5-8.4c.8-1.5 1.8-1.4 1-3.6-.5-1.7-1.5-1.2-1.7-.3-.5 2.3-2.6 10-3.3 11.3-1.2 2.6-3.7 3.6-7.5 3.2z"/><path d="M328.4 119c-.4-.7-1.2 0-1 .7 0 .7.6 1 1.2 1 .7 0 2.2 0 2.2-1 0-.8-.7-1.5-1-.6-.6 1-1.2.8-1.4 0zM329 116c0 .2 0 1 .4 1 1 0 2.5-.3 3.3-.8.2-.2 0-.7-.2-.7-1 0-2.6 0-3.4.5zM338 118.3c.6-1.2 2.7-1.3 2 .4l-6.4 12.3c-.7 1.4-1.4.7-.8-.4.7-1.4 5-12 5-12.3z"/><path d="M330.2 133c-.2-.7-1.5-2-1.3.2 0 3.8 5.4 2.6 7 1.3 1.4-1.3.2 4.3 2 5 1 .2 3-1.2 4-2.5 2.8-3.5 4.6-8.6 7.2-12 1-1.4-.6-2.4-1.2-1.3-2.3 3.8-5 11.6-8.2 13.6-2.5 1.6-1.7-2-1.8-3.2 0-.7-1-2-2.4-.8-1 .7-2.4 1.3-3.7 1.2-.8 0-1.5 0-1.8-1.4z"/><path d="M339.6 126c0-.3-1-.4-1 .7 0 .8 1 1 1 1 1.6-1.2-.2-.6 0-1.8zM337.3 130.4c-.3 0-.6 1 .2 1 .6.2 3.2 0 4 0 .3 0 .5-1-.5-1-1.2 0-2.7-.2-3.7 0zM275.4 113.8c.4 0 1.5 1.4 1.4 2 0 0-1.2-.2-1.5-.5-.3-.2-.2-1.6 0-1.5zm-5.4 10.4c-1 .6.2 1.7 1 1.2 2.8-2 7-3.8 8-7.5.3-1.3 1.4-3.2 2.5-3.6 1-.5 2.6 2 3.6 0 .7-1 2.8.7 3.3-.4.6-1.3.3-2 .3-3.4 0-.8-.7-1-1 .3-.4.5 0 1-.3 1.5-.2.2-.6.5-1 .2-.2 0 0-.7-.6-1-.2 0-.6 0-.8.2-.8 1.2-1.2 2.4-2.2 1-1-1.2-1.3-3.2-2-.4-.2 1-1.7 2.4-2.6 2.4-1 0-.8-3-3.3-2.5-1.3.3-1.2 2.7-1 3.5.3 1.3 4 .4 3.7 1.2-.6 2.7-4.4 5.4-7.7 7zM247.3 137.4c-.2.5.5 1.7 1 1.8.7 0 1-1.3.8-1.8 0-.3-1.6-.3-1.7 0zM250.6 142.3c-.4-.4-1.6.7-.6 1.6.5.3 2.5 1 3 0 .8-1.2-.7-5.5 0-6 .5-.5 2.8 2.8 4 3 2.6.4 2-4.6 5-4.2 2 .2 2-2.2 1.8-3.8-.2-1.5-2.6-3.6-3.7-4.6-1.3-1.2-2 1-1 1.6 1 1 3.2 3 3.5 4 0 .7-1.5 2-2 1.6-1.4-.8-2.6-4-3.8-4.7-.4-.3-1.4.3-1 1.2.6 1 3 2.7 3 4 .2 1-1 3-1.7 3-1 0-3-2.6-3.7-3.8-.4-.6-1.6-.6-1.7.3-.2 1.2.2 4 .5 5.5.3 1.6-.8 1.7-1.4 1zM246.6 133.7c-.4.4.8 1.2 1 1 .4-.4 2-2.3 1.8-3-.3-.6-2.6-2-3-1.3-.7 1 2.2 1.7 1.7 2 0 0-1 .7-1.4 1.3zM250.7 125.3s.8 2.5 1.4 1.4c.5-.7-1.3-1.4-1.3-1.4zM252 129.2c-.3.2-1 .8-.6 1 .8.5 3 1 2.4-.6-.3-1 3.2 0 2.3-2.3 0-.7-1-1.7-1.6-1.8-.4 0-1.5.5-.8 1 .5 0 2 1 1.5 1.6-.5.7-1-.2-1.8 0-.4 0 0 1.2-.4 1.5 0 .2-.7-.4-1-.3zM257.4 119.8c-.4.2-1.2 1.4-1.2 2 0 .2.3.6.5.5.5-.2 1.2-1.4 1.2-2 0-.2-.3-.7-.6-.5zM260.2 119.5c-.8-1 1-2.6 1.7-.5.4 1.3 5.4 8 6.4 10 .8 1.6 0 2.2-1 1.2-2.4-3.3-4.5-7.3-7.2-10.7zM265.4 119.6c1-1 2.7-3 2.2-4-.4-1-1.5-1-1.7-.7-1 1.2.7 1 .4 1.3-.5 1-1 1.6-1.3 2.6 0 .2.2.8.4.6zM343.2 122.8c-.7-.5.6-3 1.5-2 2.3 2.7 3.4 11.6 4 18.3 0 0-1 1-1 .8 0-3.5-1.4-14.4-4.5-17zM290 114.2c-.7-1.8 1.2-2.4 1.5-1.2 1.3 5.8 4.5 10.2 7 14 .7 1.3 0 2-1.7 1-1.2-1-2.5-4-3-4-1.2-.3-3.8 5-9 3.4-1.5-.4-1.4-4.5-1.5-6.3 0-.8 1-1 1 .2 0 1.7 0 5 2 5.3 2 0 5.7-2.4 6.5-4.4.8-1.8-2-5.8-2.7-7.8z"/><path d="M344.6 138.4c.4-1.2 6-10.8 7-13 .3-1 2 2 .3 3.4-1.5 1.2-5.6 8-6.4 10.4-.4 1-1.4.5-1-.8z"/><path d="M354.3 129.3c1-4 3.6.6 1.3 2.8-3.4 3.5-4.5 10-10 11-1.4.3-4-.7-4.8-1.3-.3-.2.2-1.6 1-1 1.4 1.2 4.2 1.4 5.7.2 3-3.2 5.6-7.2 6.8-11.7zM297.3 142c-.3.3-1 .3-1 .7-.4 1.4 0 2.2-.4 3.6s-1.4 1.4-1.3.3c0-1.4 1.3-3.5.4-3.6-.4 0-1-1-.3-1.2 1-.8 1.7-.7 2.4-.5.4 0 .5.5.3.7z"/><path d="M296.5 140c-1.4 1.4-2.8 2-4 3.5-.7.6-.7 1.5-1 2.4-.3.8-1.4 1-1.7.8-.5-.4-.4-2-1-1.2-.6 1-1 2-1.7 2-.5 0-1.8-1.5-1.2-1.5 2.3-.2 2.2-2 3-2 1-.2 1 1.4 1.7 1 .4 0 .7-2 1-2.5 1.7-1.6 3-2.4 4.4-3.6.7-.7 1.3.4.5 1zM301.8 145c-1.2.2-1 1.7-.6 1.8.5.3 1.4.4 1.7-1.3 0-.7.2 3.5 1.7 2 1-1 3 0 4-1.2.7-.8 1-1.4.4-2.6 0-.3-1-.2-1 .7 0 .8-.4 1.7-1.2 1.6-.4 0 .2-2-.2-2.4-.2-.2-.5-.2-.7 0-.3.5.2 2.2-.7 2.4-1.2.3-.6-1.2-1-1.4-1.7-.8-1.8.2-2.5.3zM310.8 142c1-.2.6-.2 2-1.3.5-.3.6.8.5 1.3 0 .7-1 .2-1.3 1-.4.8-.2 2.8-.4 3.7 0 .4-.8.4-.8 0-.2-1 0-2 0-3.3 0-.4-.6-1 0-1.3zM305.8 139.5c-.2 1-.2 1.6-.2 2.3 0 .5 1 .2 1 0 0-.7.2-1.8 0-2.2-.2 0-.7-.3-.8 0z"/><path d="M299.5 130.2l-1.4 5.6-2-3.8v4l-4.3-5.3 1.5 5.6-4-3.4 2.2 3.7-7-4.5 4.4 5.2-5.6-2.8 4 3.4-9-3.4 8.7 4.3c3-1.7 7.6-2.7 12.5-2.7 5 0 9.3 1 12.5 2.6l8.8-4.4-9 3.4 4-3.4-5.5 2.7 4.3-5-7 4.4 2-3.8-3.8 3.3 1.5-5.6-4.3 5.2v-4l-2 3.8-1.5-5.6z"/></g></g><path d="M291.8 251.6c0 .6 0 1.5-.2 2.6h-.5v-1.8c0-.4-.2-1-.4-1.4 0-.5-.3-1-.5-1.2 0-.4-.4-.8-1-1.4l1-2 .8 1 .5 1.2.4 1.5v1.6M298.3 247.7c0 .6 0 1-.3 1.4-.3.4-.7.6-1.2.7 0 .6.2 1 .3 1.4l.2 1.2v.8l-.2 1.2h-.4v-1c0-.5-.2-.8-.3-1 0 0 0-.4-.3-1l-.7-1.4c-.2-.4-.5-1-1-1.5l.7-2c.3.5.6 1 1 1 0 .2.4.3.8.3.7 0 1-.4 1-1.2h.5v1.4M304.3 252.2l-.5 2c-.3 0-.5-.3-.7-.7l-.3-1.3v-1.5l-1 .2c-.5 0-1-.3-1.2-.5-.3-.3-.5-.6-.5-1 0-.8.2-1.5.7-2.2.4-.6 1-1 1.4-1 .5 0 .8.2 1 .4l.3 1v1.8c0 .8 0 1.4.2 1.7 0 .3.4.6.8 1m-1.8-3.3c0-.6-.4-1-.8-1l-.6.3v.2c0 .3.2.4 1 .4h.5M310.6 251.7l-.2 2.4c-.5-.2-1-.8-1.4-1.7-.4-1-.8-2.2-1.2-4-.4 1.7-.7 3-1 3.7-.2.7-.4 1.3-.7 1.6 0 .2-.3.4-.6.6V252l1-1.5c.2-.5.5-1 .6-1.6.2-.8.4-1.6.5-2.7h.4l.7 2.6c.3.4.5 1 1 1.4 0 .3.4.8 1 1.3" fill="#fff"/><path d="M329 274.6l.7 1.2.2 1.5h-.8c-.3-.5-.6-1-1-1.3 0-.3-.5-.7-1-1.2l-1.5-1.4-2-1.6-.5-.4-.3-.8c-.2-.4-.2-1-.2-1.5l2.5 2.2 2.4 2c.5.5 1 1 1.3 1.5m-9-5.5l-.2 2-3-.2.3-2 3 .2m7.8 8.4l-7 2-1.4-1.7 6.2-2-.7-.7c-.3-.3-.6-.5-1-.6 0 .3 0 .6-.3 1l-1 .5c-.6 0-1 .2-1.7 0-.5 0-1-.3-1.2-.7-.3-.5-.6-1.2-.6-2 0-1 .3-1.6.8-1.7.7-.3 1.7 0 3 .6 1 .6 2 1.3 2.7 2.2l2 3m-5.3-3.8l-.8-.3h-.6c-.2 0-.3.2-.4.4v.4s.3 0 .4.2h.6c.2 0 .3-.2.4-.3l.4-.5m-7.6-1.5l-.5 2-3-.4.5-2 3 .3m7 7.2l-1.6.4h-1.6c-.5 0-1-.2-1.4-.5-.3.5-.7 1-1.4 1.2l-1.5.5-1 .3-1.2-2h1.3l1.2-.5c.2 0 .5-.2.8-.5l-1-.4h-.6-.2v.3h-.6c-.6-.7-.7-1.4-.4-1.8.2-.5.8-.8 1.8-1 1-.3 1.8-.3 2.5-.2.6 0 1 .4 1.3.8.2.4.2.6.2 1l-.4 1h1.2l1.6-.4 1 2m-7.6 1.7l-1.5.2c-1 .2-1.6 0-2-.4-.7-.3-1.3-1-1.7-2.3l-.8-2c0-.5-.4-1-.7-1 0-.2-.4-.3-.8-.5l.5-2c.6.3 1 .7 1.3 1 .4.4.7 1 1 1.6l.5 1.4c.3 1 .7 1.7 1 2 .3.3.6.4 1 .4l1.5-.3.7 2m-6.5-7l-1 1.7-2.8-.7 1-1.8 2.7.7m1.6 8l-7 .6-.4-2 5.7-.5c0-.4-.3-.6-.6-.8 0-.2-.3-.3-.8-.6l.5-2c.7.4 1 .8 1.4 1.3.4.4.7 1 1 2l.3 1.8m-5.6 1c-1 0-1.6 0-2-.2-.7 0-1.2-.2-1.7-.4l-1.3.4h-3.3c-.5 0-1-.2-1.2-.3-.3-.2-.5-.5-.7-1-.5.5-1 .8-1.5 1h-3.2l.2-2h1.6c.8 0 1.4 0 2-.3.7-.3 1-1 1-1.7h1l-.2.7v.6c0 .3 0 .5.3.7.2.2.5.3 1 .3h1.2c1 0 1.5 0 2-.2.4-.2.7-.5.7-1 0-.2 0-.3.2-.4l.4-.2.4-.2v.7c0 .2 0 .6-.3 1l1 .3c.3 0 .7 0 1 .2 0-.2 0-.4-.2-.7-.2-.2-.2-.4-.2-.5 0 0 0-.2.2-.3l.2-.2 1-.8.4.8v3.7m-10.8-8.2l-1.8 1.3-1.3-.7-1.4 1-1.8-1 1.7-1.3 1.4.8 1.3-1 1.7 1m-2.8 7.7l-6.8-1 .7-2 6 1c0-.5 0-.8-.2-1 0-.2-.3-.4-.5-.8l1.5-1.5c.4.4.6 1 .6 1.4 0 .5 0 1.2-.4 2l-.8 2m-5.7-1l-1.5-.4c-1-.2-1.3-.5-1.4-1-.2-.7 0-1.5.7-2.7l1.2-2 .3-1-.4-.7 2.2-1.5c.2.5.2 1 .2 1.3 0 .5-.3 1-.6 1.7l-.8 1.4c-.6 1-.8 1.6-.8 2 0 .4 0 .6.4.7l1.5.3-1 2M281 274l-2.5 1.2-1.6-1.6 2.3-1 1.6 1.5m-1 6.4c-.6.6-1 1-1.6 1.3-.4.3-1 .5-1.6.6h-2.2l-2.6-.8c-1.6-.6-2.7-1.2-3.2-2-.6-.6-.6-1.3 0-2 .5-.6 1-1 1.8-1.5.8-.4 2-1 3.6-1.4l.4.4-2.6 1.2c-.5.2-1 .5-1.2 1-.4.3-.3.8.2 1.4.5.5 1.3 1 2.5 1.4 1.2.5 2.4.7 3.4.7s1.7-.3 2-.7c.3-.3.4-.6.5-1l.2-1.4 2.3-1.5v1.6c-.2.4-.5 1-1 1.5l-1 1.4" fill="#bf0000"/></svg>