<svg xmlns="http://www.w3.org/2000/svg" xmlns:xlink="http://www.w3.org/1999/xlink" version="1" width="1000" height="700"><path d="M0 0v700h320V0H0z" fill="#0018a8"/><path d="M680 0v700h320V0H680z" fill="#d0103a"/><path fill="#fedf00" d="M320 0h360v700H320z"/><path d="M517.8 229.8l-2-1c-1.6-1-3.4-.8-4.2.2-1 1.2-1.3 3.2 0 4.4" fill="none" stroke="#231f20" stroke-linecap="round" stroke-miterlimit="3.9"/><path d="M399 380c-.3 1-.5 1.2-1 2l-1 2-1.2 2-1.8 2.3" fill="none" stroke="#c7b37f" stroke-linecap="round" stroke-miterlimit="3.9"/><path d="M469.4 188.5c12 0 17 10.3 29 10.3 7.4 0 11.8-2.4 18.3-6 4.5-2.6 7.4-4 12.6-4 5.3 0 8.5 1.6 11.3 6.2 1.5 2.5 2.8 7.6 2 10.5-1.2 5.5-2 8-4.2 13-1 2.4-2 3.8-2 6.5 0 6.4 8.7 8.6 14.6 8.7 1.3 0 12.2.2 19-6.6-3.8 0-7.8-2.8-7.8-6.5 0-4 3-6.8 6.8-8 .7-.2 2 .4 2.6 0 1-.4.5-1.5 1.4-2.2 2-1.5 3.2-2.5 5.7-2.5 1.6 0 2.6.2 4 1.2.6.5.8 1 1.7 1 1.8 0 2.6-1 4.4-1 1.5 0 2.4.2 3.6.8 1 .6 1 2.4 2.3 2.4.6 0 3.7-1.3 5.4-1.3 3.6 0 5.4 1 7.6 3.7.6.7 1 2.2 1.6 2.2 1.2 0 4 .7 5.8 2.4.8.8 1 1 1.7 2 .4.7 1 2.3 1.8 2.6.8.3 1.5.2 2.6 1 2.7 1.6 4.6 4.6 4.5 7.6 0 1-.5 2.3-.7 3.3-3 10.2-10 13.4-17 22.3-3 3.7-5.4 6.7-5.4 11.5 0 1.2 1.4 3.3 2 4.3-.3-2 .7-5 3-5 3.4-.2 6 2.3 6.3 5.5 0 .8 0 2-.5 3 1.8-1.3 4-2 6.2-2.3 1.2-.2 2-.2 3-.2 5.3.2 11 3 14.6 6 10.7 9.2 12 22.6 11.4 26.3-1.3 8.2-.4 23.2-21.5 29 3.8 1.8 6.4 4.7 6.4 8.3 0 4-3 7.3-7 7.3-2 0-3.7-.7-5.3-2.3-4.3 4.4-5 9-5 15 0 3.8.6 6 2.2 9.4 1.6 3.6 2.8 5.7 5.8 8.3 1.5-2.4 3.2-4 6-4s5 .7 6.3 3.3c.3.7 0 1.3.4 2 .5 1 1.3 1.2 1.8 2.2.8 1.5 0 2.7.7 4.2.5 1 1.4 1.2 2 2.2.5 1.5.7 2.5.7 4.2 0 4.7-4.4 8-9 8-1.5 0-2.3-.5-3.7-.4 2.7 2.7 4.8 4 6.8 7 3 4.7 3.8 8 4.5 13.5v2.7c0 7-1 11.3-4 17.5-3 6-5.7 9.4-11 13.3-8.7 6.2-15 8-25.2 10-6.6 1.2-10.3 1.8-17 2.2-8.6.5-13.5.6-22 1-11.3 1-19 2.5-27 10.4 3.7 2.8 6.3 5.5 6.3 10 0 5-3 8.3-7.5 9.8-1 .4-1.8 0-2.8.6-1.2.6-1 2-2.2 2.7-2 1.2-3.6 1.5-6 1.5-4.2 0-7-1-10-4-3.4 3-4.6 5.5-8.5 7.7-1.3.6-2 1.6-3.4 1.6-2.2 0-3.3-1.5-5-2.8-3-2.2-4.6-3.6-7-6.4-3.6 2-5.7 3.8-9.8 3.8-2.5 0-4-.3-6.2-1.7-1-.7-1.3-1.7-2.4-2.4-1.2-.6-2-.3-3.4-1-4.7-2-7.8-5.4-7.8-10.5 0-4.5 3-7.4 7-9.3-8-7.8-15.6-9.2-26.6-10-8.6-.4-13.4-.4-22-1-6.7-.5-10.5-1.2-17.2-2.3-5-1-8-1.2-12.7-3.3-16-7.5-26.3-17.7-28.4-35.2-.2-1.5 0-2.4 0-4 0-9 3.5-14.6 10-21-1.7-.4-3 0-4.5-.5-4-1.4-6.8-4.2-6.8-8.5 0-1.6 0-2.7 1-4 .4-1 1.4-1.2 1.7-2.3.2-1.5-.2-2.5.5-3.8.4-1 1.2-1 1.7-2 1.4-3 3-5.2 6.3-5.2 2.8 0 4.5 1.4 6 3.8 2.6-1.3 3.4-3.3 5-5.8 2.4-4.2 3.6-7.2 3.6-12 0-3.5-.3-5.5-1.3-8.8-.8-2.3-1-4-3-5.7-1.4 1.6-3 2.2-5.2 2.2-4.5 0-8-4-8-8.5 0-3.3 1.7-5.8 4.7-7.2-2.4-2-4.5-2.2-7.2-4-4-2.5-5.5-5.2-8.2-9.3-1.7-2.6-2.2-4.4-3-7.5-1.2-3.6-1.8-5.8-1.8-9.6v-2.6c1-7.7 2.5-12.5 7.4-18.5 2.8-3.7 4.8-6 9-7.8 3.6-1.5 5.8-2.7 9.7-2.7 1.3 0 2 0 3 .2 2 .2 3 .4 4.6 1.3.6.3 1.7 1.3 1.7.6 0-.8-.4-1.2-.4-2 0-3.3 2.2-6.3 5.5-6.3 2.3 0 3.3 2 4.5 4 .7-1 1-2 1-3.4 0-5.5-2.8-8.2-6-12.4-7.4-9-16.5-13.4-16.5-25 0-3.5 1.6-6 4.6-7.7 1-.6 2.2 0 3-.6.7-.5.6-1.4 1-2 .8-1.3 1.5-1.8 2.5-2.7 1.6-1.4 3-1 5-2.2 1-.7 1-1.5 1.8-2.4 2-2.3 4-3.5 7-3.5 1.7 0 2.6 0 4 .6l1.7 1c.4-.5 1.2-1.4 2.3-2 1.3-.6 2-.8 3.4-.8 1.7 0 3 1 4.6 1 .6 0 .8-.7 1.3-1 1.5-1 2.4-1.7 4.3-1.7 1.7 0 2.7.6 4.2 1.6s1.7 2.2 3 3c1 .5 1.6.3 2.5.6 4 1.4 7 4 7 8.3 0 2.2-.5 3.8-2.2 5.3-1.3 1.2-2.6 1-4.3 1.6 5.6 4.4 10.5 5.5 17.6 5.5 6.6 0 14.6-2.7 14.6-9.3 0-3-1.6-4.7-2.8-7.5-2.2-5-3.4-8-3.4-13.4 0-4.3.5-7 3-10.4 2.6-3.7 5.7-4.5 10.2-4.5z" fill="#c7b37f" fill-rule="evenodd"/><path d="M503.6 249.2h82.2v82h-82.2v-82z" fill="#fedf00" stroke="#703d29" stroke-width=".8" stroke-miterlimit="3.9"/><path d="M381 291.2c2.3 1.2 4.8-.6 4.3-3.7-.3-1.5-1.8-3.3-4-3.4" fill="none" stroke="#703d29" stroke-linecap="round" stroke-miterlimit="3.9"/><path d="M381 291c2 1.8 5-1 4-4-1-2-3.7-4-7.6-1.4-4.2 3-3 12.2 5.2 12.3 7.3 0 11.8-10.7 5.3-18.2-6.4-7.2-18-5.5-25.3.4-3.2 2.5-9.2 9.2-11 18.2-.6 2.8-1 5-1 8 0 1.8.2 3.8.8 6.4 1 5.3 3 9 4.8 11.8.7 1 1.3 2 2 2.5 1.3 1.4 1.7 2 3 3.2 4.2 3.5 9.6 6.3 16.3 6 7.3-.3 11.5-5.5 10.7-11.5-.7-6-6.7-8.8-10.5-6-2.7 1.8-3.6 7.5 1 9 2.7.7 5-2.7 3.2-4.6" fill="none" stroke="#703d29" stroke-linecap="round" stroke-miterlimit="3.9"/><path d="M531.8 487.4c.7.5 1 1.5 1 1.5.3.4.6.8.7 1.2.4 2.4-1.2 4-3 4-2.8.4-4.7-1-5.6-3M391 423c.4.3.5 1 1.2 1 1 .3 2 .7 3-.7 1.2-1.7.5-4.4-.8-6-1.5-2-5.7-3.5-9.2-1.6-1 .7-2.6 1.5-4 3.3-.4.7-1.3 1.7-1.7 2.5-1 1.8-1.5 3.3-1.7 4-3.2 9 .6 18.5 6.5 24.4" fill="none" stroke="#703d29" stroke-miterlimit="3.9"/><path d="M531.6 487.2l1 1.3.4 1.3c.4 2.4-1 4-3 4-2.7.4-4.5-1.2-5.3-3M479.2 230.7l3.6-2c1.6-1 3.6-.7 4.5.3 1 1.2 1 3.2-.3 4.5" fill="none" stroke="#703d29" stroke-linecap="round" stroke-miterlimit="3.9"/><path d="M425.6 223.5c.4 1.6 1.7 3 3.8 3.8 1.3.4 4 .2 6-2.2 1.5-2 1.4-4.3.8-6.2-.3-1.2-1.3-2.4-2.7-3.5l-8 8v.2z" fill="none" stroke="#703d29" stroke-linejoin="round" stroke-miterlimit="3.9"/><path d="M432.4 214.5l1 .8 1.3 1.2.7 1.6.4 1.4v3l-.4 1.3-.7 1-1 1-1.3.6-1.7.4-1.5.3-1.5-.8-1.4-1-1-1.3-.5-1.7v-.6l7.6-7.2z" fill="#c7b37f" fill-rule="evenodd"/><path d="M460.5 239.5c8.6-1.8 15.6-5.7 21-8.6M460 239c8.6-1.7 15.6-5.6 21-8.5M511.2 500.8c-2 3-7 7.7-12 9.6-5-2-9.8-6.5-11.8-9.6" fill="none" stroke="#703d29" stroke-miterlimit="3.9"/><path d="M584.4 210.7c4.2-2.3 7.5-2 10 1.5 2.5 3.6 3 8.4 2.3 11.2-1 4.2-2 6-5.4 9" fill="none" stroke="#703d29" stroke-linecap="round" stroke-miterlimit="3.9"/><path d="M594.6 212.5c4.8-3 10-1.8 13 2.5 2 3 2.5 5.7 2.4 9.5-.3 6.6-4.4 12-9 14.4" fill="none" stroke="#703d29" stroke-linecap="round" stroke-miterlimit="3.9"/><path d="M608.5 216.8c5.2.6 9.8 5.6 9.8 11 0 7-2.3 9.5-6 14.4-4 5.3-16.6 15-16.6 26 0 6.8 1.8 11 6.7 13.2 3 1.4 6.7 0 8.4-1.6 4-3.6 2.4-10-1.8-10.8-5.2-1-6 7-1 6.6" fill="none" stroke="#703d29" stroke-miterlimit="3.9"/><path d="M617.3 223.7c4 .3 7 4 7 8 0 6-1.5 8.6-6.3 14.6-4 5-16.5 14-16.2 22.8 0 3.3 3 6.4 5.3 6.6" fill="none" stroke="#703d29" stroke-miterlimit="3.9"/><path d="M617.7 291c-2.2 1.8-5-1-3.8-3.7.7-2 3.3-4.3 7.2-1.7 4.3 3 3 12.2-5.2 12.3-7.3 0-12.3-10.4-5.2-18.2 6.4-7 18.3-5.7 25.7.2 3.2 2.6 9.6 9.5 11 18.6 1.6 11 1.4 24.6-10 33-4.5 3.3-11 4.8-16.5 4.6-7.3-.4-11.5-5.5-10.7-11.5.7-6 6.4-8.4 10.6-6 4.2 2.3 3.4 8.4-1.2 9-2.8.2-5-2.7-3-4.6" fill="none" stroke="#703d29" stroke-linecap="round" stroke-miterlimit="3.9"/><path d="M614 287.3c1-5.4 5.7-6 9.5-6 10.3.3 17.4 12.5 17.6 24.3.2 15-6.3 23.7-17.2 24.2-2.8 0-7.7-1.2-7.8-4.7" fill="none" stroke="#703d29" stroke-miterlimit="3.9"/><path d="M620.2 285c11 2.3 14.7 12 14.7 21.4 0 7.7-1 18-15.7 21.7" fill="none" stroke="#703d29" stroke-linecap="square" stroke-miterlimit="3.9"/><path d="M626.6 344c-2-4.6-6.7-2.5-7 0-.7 5.7 4.4 7.4 8 6.5 1.7-.5 3-1.6 3.8-3 1-1.7 1.3-3.8.7-6-.2-.8-.6-1.6-1.3-2.5-.6-.8-1.3-1.4-2-2-1.3-.7-2.8-.8-5.2-.8-8.7 0-16.3 10.3-19 21-.7 3.5-2 11.3-.3 18.8 1.7 8 5.2 13.4 9.2 17.6 2.2 2.2 5 4.2 9 6.4 1.2.7 4.3 2 6.5 2.7 2 .6 4.2.5 6 0 5.2-1 7.6-5.8 5-10.7-2-4-8.4-6.2-11.4-1-.2.3-.6 1.3-.6 2.3 0 1.4.6 3 1.6 3.7 2.2 1.4 5.8 1 5.6-3" fill="none" stroke="#703d29" stroke-linecap="round" stroke-miterlimit="3.9"/><path d="M633.4 397.5c-1.7.6-2.5.5-4.6-.4-.8-.2-1.8-.8-3-1.4-4-2.3-8.6-6-13-14.2-1.3-2.4-2.2-4.7-2.7-7-.3-1.7-.6-3.4-.7-5.2 0-3 .2-6 1-9.7 1.2-6 2.7-9.2 6.4-14.2 1.8-2.4 3.3-4 6.6-4" fill="none" stroke="#703d29" stroke-miterlimit="3.9"/><path d="M638 389.6c.2-.4.2-.8.2-1 0-3.5-2.7-6.3-6-6.3-3.5 0-6.2 2.8-6.2 6.2 0 2 1 3.6 2.3 4.7" fill="none" stroke="#703d29" stroke-miterlimit="3.9"/><path d="M635.7 383.5c-.4-2.8-2.8-5-5.6-5-3 0-5.6 2.8-5.6 6 0 1.6.6 3 1.6 4" fill="none" stroke="#703d29" stroke-miterlimit="3.9"/><path d="M624.6 383.2c-5.2-3.7-9.7-11-9.7-19.3-.2-6.6 2.4-13 5.5-15.7" fill="none" stroke="#703d29" stroke-miterlimit="3.9"/><path d="M616.3 380.3c2 3 4.5 6.4 9.8 9.3" fill="none" stroke="#703d29" stroke-linecap="round" stroke-miterlimit="3.9"/><path d="M599.7 403c1.7-2 5.8-5 10.3-5.6 4.7-.6 8.7.7 13 3 8 4.3 12.4 9 15.4 17.6.8 2.2 1.4 5.5 1.3 9 0 5.6-1.5 11.8-3 14.7-1.4 2.6-5 14-24 22-11.2 4.5-28.3 5.5-40 6-16.4.7-31.4 1.3-40 12" fill="none" stroke="#703d29" stroke-width="1.3" stroke-miterlimit="3.9"/><path d="M624 406c-5-3.3-14.7-7.7-23.5-3.4-3.3 1.6-5.5 3.6-6.7 7-2.2 5.7.3 12 2.8 14.8 1.3 1.4 4.2 4 7.8 4 6 .2 7.3-4 7.4-4.8.7-4.3-1.7-6-3-6.5-1-.3-4.4-.2-5 2.2-.3.7-.4 2 .3 3" fill="none" stroke="#703d29" stroke-linecap="round" stroke-miterlimit="3.9"/><path d="M603.8 421.5c-.5-1.8 0-3.4 1.3-5.3 2-2.4 5.8-3.3 9.3-1.4 1 .7 2.6 1.6 4 3.3.4.8 1.3 2 1.7 2.6 1 1.8 1.5 3.3 1.7 4 4 10.8-2.3 22.7-10.2 27.4-6.3 3.7-13.7 5.3-22.5 6.4-4 .5-6.3.4-10.3.6-3.2.2-6 0-8.6 0H564c-3.4 0-7-.2-11.3.2-4.5.3-8 .4-11.8 1l-8.5 1.6c-1 .2-2 .3-2.8.6l-2 .6c-5.5 1.7-11 3.8-15.2 6.5-1.3 1-2.8 1.7-4 2.7-.5.7-1.3 1.3-2 2-3 3-6 6-6.8 10.4v2.5c0 3 2.2 6.7 8.3 8" fill="none" stroke="#703d29" stroke-width="1.1" stroke-miterlimit="3.9"/><path d="M532 488.2c1.6 3.3-.2 5-2.5 5.2-3.3.4-5-2.2-5.4-4.6-.2-4 3-7.5 7-7.4 3.5 0 6.4 2.3 7.7 5.5.5 1 .8 2.3.8 3.6.2 2.4-.7 4.7-2.2 6.4-2 2.4-5 3.8-8.4 4-6.7.2-12-6-12-12.3 0-12 18-18.6 25-20.3 8.8-2 14-3 28-3.6 5.7-.4 9.8-.2 16-.8 5.5-.6 8.3-1 14-2.2 7-1.6 13.7-4.6 19.6-10 4.6-4 7.2-7 9.3-12.7 1.7-4.8 2.5-14.5-2-21.7-4-6.3-9.8-9.6-16.2-10.5-6-1-11 1.6-14 7.4-1.5 2.8-1 7.5 0 9.7 1 1.7 4 4.5 7.6 4.5 6 0 7.3-4 7.4-5 .7-4.2-1.7-6-3-6.4-1-.3-4.4-.2-5 2.2-.3.7-.4 2 .3 3" fill="none" stroke="#703d29" stroke-linecap="round" stroke-miterlimit="3.9"/><path d="M527 469c-7.7 3.4-13.2 6-18 13.3-1.4 2.4-1.8 5.7-1.8 7.6 0 4 1.7 9 5.2 11.8 3.2 2.8 6.5 3.6 10.4 3.2 3-.3 6-2.5 6.3-4" fill="none" stroke="#703d29" stroke-linecap="round" stroke-miterlimit="3.9"/><path d="M599.8 280c-2.8 2.2-4 5.2-4 8.8 0 5 4 12.8 14 15.6 3.7 1 7.3 1 9.6-.4M601.7 325.2c-3.5 1.2-6 6.6-6 11.7 0 6 2.8 9.5 6.2 11.6" fill="none" stroke="#703d29" stroke-miterlimit="3.9"/><path d="M605.6 344.4c-6.4 8-9.7 12.6-10 22 0 9 2.7 15 8 21.4" fill="none" stroke="#703d29" stroke-linecap="round" stroke-miterlimit="3.9"/><path d="M571.6 212.6l.6-.8c2.6-4 7.3-5 10.7-2.4 4 3 5 8.4 4 14-.7 3.5-3 6.4-6.4 8.6" fill="none" stroke="#703d29" stroke-miterlimit="3.9"/><path d="M430 220.6c-.5-2.6-3.5-3-4.7-1.6-1.8 2.3-.4 6.2 3.2 7.4 1.3.4 4 .2 6-2.2 1.5-2 1.4-4.4.8-6.3-.3-1.3-1.3-2.4-2.7-3.4-4.2-3.3-11-2.5-13.3 3-3 7 3.4 12.2 9.2 16.2 7.4 5 15.7 6 22 5.8 14.3-.2 25.2-7 32.3-11 1.6-.8 3.3-.6 4.2.4 1 1.2 1 3-.4 4.3M414.2 210.7c-4-2-7.4-1.5-10 1.5-2.7 3.4-2.8 8.4-2.3 11.2.8 4.2 2 6 5.3 9" fill="none" stroke="#703d29" stroke-linecap="round" stroke-miterlimit="3.9"/><path d="M404 212.5c-4.8-3-10-1.8-13 2.5-2 3-2.5 5.7-2.4 9.5.3 6.6 4.4 12 9 14.4" fill="none" stroke="#703d29" stroke-miterlimit="3.9"/><path d="M390 216.8c-5 .6-9.3 5-9.3 10.4 0 7 1.7 9.8 5.6 15 4 5.3 16.6 15 16.6 26 0 6.8-2 11-6.7 13.2-3 1.4-6.8 0-8.4-1.6-4.2-3.6-2.6-10 1.7-10.8 5-1 6 7 1 6.6" fill="none" stroke="#703d29" stroke-miterlimit="3.9"/><path d="M381.3 223.7c-4 .3-7.8 3.7-7.8 8 0 6 2.4 8.6 7 14.6 4.3 5 16 14 15.6 22.6 0 3.2-2.2 7-4.4 6.7M375.6 287.8c-2.4.8-5.3 2.3-7.5 5.4-1.8 2.6-3 6.3-3.5 9.5-.3 1.4-.7 5.8.2 10.4.7 3.5 2 6.6 3.6 9 .6.7 1 1.3 1.6 1.8.4.5 1.2 1 1.7 1.4" fill="none" stroke="#703d29" stroke-miterlimit="3.9"/><path d="M372 344c2-4.6 6.7-2.5 7 0 .7 5.7-4.4 7.4-8 6.5-1.7-.5-3-1.6-3.8-3-1-1.7-1.2-3.8-.6-6 .2-.8.6-1.6 1.3-2.5.6-.8 1.2-1.4 2-2 1.3-.7 2.8-.8 5-.8 8.8 0 16.4 10.3 19 21 .8 3.5 2 11.3.4 18.8-1.7 8-5 13.4-9.2 17.6-2 2.2-5 4.2-9 6.4-1 .7-4.3 2-6.5 2.7-2.2.6-4.3.7-6 0-4.5-1.2-7.4-5.3-5-10.7 1.7-4.2 8.3-6.2 11.3-1 .2.3.6 1.3.6 2.3 0 1.4-.6 3-1.6 3.7-2.2 1.4-5.8 1-5.6-3" fill="none" stroke="#703d29" stroke-linecap="round" stroke-miterlimit="3.9"/><path d="M365.2 397.5c1.7.6 2.6.5 4.6-.4.8-.2 1.8-.8 3-1.4 4-2.3 8.6-6 13-14.2 1.4-2.4 2.2-4.7 2.7-7 .4-1.7.7-3.4.8-5.2 0-3-.2-6-1-9.7-1.2-6-2.7-9.2-6.3-14.2-1.8-2.4-3.4-4-6.7-4" fill="none" stroke="#703d29" stroke-miterlimit="3.9"/><path d="M360.5 389.6v-1c0-3.5 2.6-6.3 6-6.3s6 2.8 6 6.2c0 2-.8 3.6-2.2 4.7" fill="none" stroke="#703d29" stroke-miterlimit="3.9"/><path d="M363 383.5c.3-2.8 2.7-5 5.5-5 3.2 0 5.8 2.8 5.8 6 0 1.6-.7 3-1.7 4" fill="none" stroke="#703d29" stroke-miterlimit="3.9"/><path d="M374 383.2c5.2-3.7 9.7-11 9.7-19.3 0-6.6-2.5-13-5.6-15.7" fill="none" stroke="#703d29" stroke-miterlimit="3.9"/><path d="M382.3 380.3c-2 3-4.5 6.4-9.8 9.3" fill="none" stroke="#703d29" stroke-linecap="round" stroke-miterlimit="3.9"/><path d="M397.8 402.6c-1.4-3.4-4.3-5-9-5.5-4.7-.4-8.7 1-12.8 3.2-8 4.3-12.6 9-15.6 17.6-.7 2.2-1.4 5.5-1.3 9 .3 5.6 1.7 11.7 3.2 14.7 1.3 2.6 4.8 14 24 22 11 4.5 28.3 5.5 40 6 16.3.6 31.3 1.2 40 12" fill="none" stroke="#703d29" stroke-miterlimit="3.9"/><path d="M374.5 406c5-3.3 14.8-7.7 23.6-3.4 3.4 1.6 5.6 3.6 6.8 7 2.2 5.7-.3 12-2.8 14.8-1.3 1.4-4.2 4-7.8 4-6 .2-7.3-4-7.4-4.8-.7-4.3 1.8-6 3-6.5 1-.3 4.4-.2 5 2.2.3.7.4 2-.3 3" fill="none" stroke="#703d29" stroke-linecap="round" stroke-miterlimit="3.9"/><path d="M395 421.5c.3-1.8 0-3.6-1.5-5.3-1.5-1.7-5.6-3.3-9-1.4-1.3.7-2.8 1.6-4 3.3l-2 2.6c-1 1.8-1.4 3.3-1.6 4-4 10.8 2.3 22.4 10.2 27.4 6.8 4.4 13.8 5.6 22.4 6.4l10.3.6c3 .2 6 0 8.5 0h6.3c3.4 0 7-.2 11.3.2 4.6.3 8 .4 12 1l8.5 1.6 2.8.6 1.8.6c5.7 1.7 11 3.8 15.4 6.5 1.3 1 2.8 1.7 4 2.7l2 2c3 3 6 6 6.8 10.4v2.5c0 3-2.2 6.7-8.3 8" fill="none" stroke="#703d29" stroke-miterlimit="3.9"/><path d="M466.6 488.2c-1.6 3.3.2 5 2.5 5.2 3.5.4 5.2-2.2 5.5-4.6.4-4-3-7.5-7-7.4-3.4 0-6.3 2.3-7.6 5.5-.6 1-1 2.3-1 3.6 0 2.4.8 4.7 2.3 6.4 2 2.4 5 3.8 8.4 4 6.6.2 11.8-6 11.8-12.3 0-12-18-18.6-25-20.3-8.7-2-14-3-28-3.6-5.6-.4-9.7-.2-15.8-.8-5.6-.6-8.4-1-14-2.2-7.2-1.6-13.8-4.6-19.7-10-4.6-4-7.2-7-9.3-12.7-1.8-4.8-2.6-14.5 2-21.7 4-6.3 9.7-9.6 16.2-10.5 5.7-1 10.8 1.6 14 7.4 1.3 2.8 1 7.5-.3 9.7-1 1.7-4 4.5-7.5 4.5-6 0-7.3-4-7.4-5-.7-4.2 1.8-6 3-6.4 1-.3 4.4-.2 5 2.2.3.7.4 2-.3 3" fill="none" stroke="#703d29" stroke-miterlimit="3.9"/><path d="M471.7 469c7.6 3.4 13 6 18 13.3 1.3 2.4 1.7 5.7 1.7 7.6 0 4-1.7 9-5.2 11.8-3.2 2.8-6.4 3.6-10.4 3.2-3-.3-5.8-2.5-6.3-4M398.8 280c2.8 2.2 4 5.2 4 8.8 0 5-4 12.8-14 15.6-3.7 1-7.4.2-9.7-1.2" fill="none" stroke="#703d29" stroke-miterlimit="3.9"/><path d="M400.5 296.3c1.7 1.2 2.4 2.6 2.4 5 0 1.7-1 4-3 6-3 3.3-8 6-13.7 6.2-3 0-6.2-.6-9.4-2.8-3.5-2.2-5.3-5.3-6-8.4" fill="none" stroke="#703d29" stroke-miterlimit="3.9"/><path d="M400.3 306.7c2 2 2.6 4.2 2.6 7 0 4.4-1.8 7.7-5.8 11.2-1 .7-2 1.5-3 2M397 325.2c4.2 3.3 6 6.6 6 11.7 0 6-3 9.5-6.3 11.6" fill="none" stroke="#703d29" stroke-miterlimit="3.9"/><path d="M393 344.4c6.4 8 9.8 12.6 10 22 0 9-2.7 15-8 21.4M427 212.6l-.6-.8c-2.6-4-7.3-5-10.7-2.4-4 3-5.2 8.4-4 14 .7 3.5 3 6.4 6.3 8.6" fill="none" stroke="#703d29" stroke-linecap="round" stroke-miterlimit="3.9"/><path d="M573 224.4c-6.3 6.8-12.6 9-22 9.3-3 0-8.5-1-11.8-3.3-2-1.5-4.4-4-3-8.4 1-3 5.8-11.3 6-17 .4-9-3-13.7-8.3-15.5-9.8-3.5-20.3 6.2-26.7 8.3-3.3 1-5 1.2-8 1.2s-4.7 0-8-1.2c-6.4-2-16.8-11.8-26.6-8.3-5.3 1.8-8.7 6.6-8.3 15.4.2 5.7 5 14 6 17 1.4 4.4-1 7-3 8.4-3.3 2.4-9 3.4-11.8 3.3-9.4-.3-15.7-2.5-22-9.3" fill="none" stroke="#703d29" stroke-miterlimit="3.9"/><path d="M516.4 229c1.3 2.4 2 3.8 1.2 6.3-.8 2.7-2.8 4.3-5.5 4.3-6 0-9.8-7.4-7-12 5-8.4 14.6-3.7 23.4.4-.4-2-1.2-2.8-1-5.4 0-6.6 5-9.6 7-15.6 1-3.7 1.5-6.8-1-9.4-2.4-2.2-5-2.2-8-1-6 2.4-13.3 9-26 9.3-12.8-.3-20-7-26-9.4-3-1.2-5.8-1.2-8 1-2.7 2.6-2.3 5.7-1 9.4 1.8 6 6.7 9 7 15.6 0 2.6-.8 3.3-1.2 5.4 9-4 18.8-9.2 23.4-.4 2.6 4.8-1 12-7 12-2.8 0-4.7-1.7-5.6-4.3-.8-2.4 0-4.4 1.2-6.2" fill="none" stroke="#703d29" stroke-width="1.1" stroke-miterlimit="3.9"/><path d="M471.5 227.5c.3-1.2.7-2 .7-4-.2-6.6-5-9.6-7-15.7-1.2-3.6-1.6-6.7 1-9.3 2.3-2.2 5-2.2 8-1 6 2.4 13.3 9 26 9.3-12.7-.2-20-7-26-9.3-3-1.2-6-1.5-8.3.7-2.7 2.6-2 6-.8 9.6 2 6 6.5 9 6.7 15.6 0 2-.5 3-1 4" fill="none" stroke="#703d29" stroke-miterlimit="3.9"/><path d="M500.2 206.4c12.5-.7 23.2-9 26.7-9.8 3-.6 4.7-.3 7 1.7-2.3-2-5-2-7.8-.8-6 2.4-13.3 9-26 9.3M515.2 239.6c1.2-.8 2-2 2.5-3.5.8-2.2.8-4.2-.5-6 1.6 2 1.7 3.7 1.3 6-.3 1.7-1.3 2.5-2.5 3.6M596.4 374.2v29.3c-.3.8-.4 1.7-.6 2.6" fill="none" stroke="#703d29" stroke-miterlimit="3.9"/><path d="M596 371.8V399s0 2.4-.2 4l-.7 4M596 340v22.6M596.4 341.7v18.5M596.4 318.3V332M596 316.6v17M596.4 304v5.5M596 303v7.8M596.4 292.6v5.6M596 291.3v7.7M596.4 274.4v10.2M596 272.2v14M593 414.2c-2 3.8-3.5 5.8-6.5 8.8-3 3-5.3 4.5-9 6.4-4 2-6.3 2.5-10.4 3.4-4 1-6.4 1.2-10.6 1.4-4 0-6 0-10-.3-4-.4-6.4-1-10.5-1.3-3.5-.3-5.4-.6-8.8-.6-3.5 0-5.5 0-9 .8-3.2.5-5 1-8 2.2-4.3 1.7-9 4.7-10 6-1-1.3-5.8-4.3-10-6-3-1.2-5-1.7-8-2.2-3.5-.7-5.6-.7-9-.7-3.5 0-5.4.4-8.8.7-4 .3-6.4 1-10.5 1.2-4 .2-6.2.3-10 .2-4.3-.2-6.7-.4-10.8-1.4-4-1-6.5-1.5-10.2-3.4-4-2-6-3.3-9-6.4-.5-.3-.8-.6-1-1" fill="none" stroke="#703d29" stroke-miterlimit="3.9"/><path d="M593 412.6c0 .4-.3.8-.5 1-2 4-3.4 6-6.5 9-3 3-5.2 4.4-9 6.4-4 2-6.2 2.5-10.3 3.4-4.2 1-6.6 1-10.8 1.3-4 .2-6 0-10-.2-4-.3-6.4-1-10.5-1.3-3.4-.3-5.3-.5-8.8-.5-3.5 0-5.5 0-9 .6-3.2.6-5 1-8 2.3-4.2 1.7-9 4.6-10 6-1-1.4-5.7-4.3-10-6-3-1.3-4.8-1.7-8-2.3-3.5-.6-5.5-.6-9-.6-3.4 0-5.3.2-8.7.5-4.2.4-6.5 1-10.6 1.3-3.8.2-6 .4-10 .2s-6.5-.4-10.6-1.3c-4-1-6.5-1.5-10.3-3.4-4-2-6-3.4-9-6.4-1.7-1.6-3-3-4-4.4" fill="none" stroke="#703d29" stroke-miterlimit="3.9"/><path d="M585.5 402.4c-.3 1.5-.8 4-2.2 6.6-1.5 2.3-1 2.3-4.3 6-1.6 1.8-4.2 3.4-6.2 4.5-2 1-3.5 1.6-6.8 2.5-6.5 1.7-11 1.8-16.6 1.6-4.3-.2-7.6-.7-10.3-1-3.7-.6-6.6-1-11-1-2-.2-4-.2-6 0-2.5 0-5 .4-7.4 1-5.5 1-11 3-11 3v-85.5h82.2v58.6l-.3 3.8z" fill="#fedf00" fill-rule="evenodd" stroke="#703d29" stroke-width=".8" stroke-miterlimit="3.9"/><use transform="translate(0 36.6)" width="1000" height="700" xlink:href="#a"/><path d="M387.4 421.3c0-2 1.8-4 4-4 2 0 3.8 2 3.8 4 0 2.2-1.7 4-4 4-2 0-3.8-1.8-3.8-4z" fill="#c7b37f" stroke="#c7b37f" stroke-width=".5" stroke-miterlimit="3.9"/><path d="M387.6 414.3l-3.2 1.2-3.3 2.5-1.2 2-1.8 3-.8 2.4-.6 3-.3 2" fill="none" stroke="#703d29" stroke-width="1.1" stroke-miterlimit="3.9"/><path d="M406.4 413.3c.7 5-1.4 9.8-3.5 12-1.4 1.4-4.3 4-8 4-5.8.2-7.6-4-8-5" fill="none" stroke="#703d29" stroke-miterlimit="3.9"/><path d="M406 414.7l-.3 2.8-.4 2-1.4 3.2-2.3 3-2.4 1.8-1.7.8-2.4.6" fill="none" stroke="#703d29" stroke-width="1.1" stroke-miterlimit="3.9"/><path d="M399.4 410.7c1 1 2 2.4 3 4 1.4 2.8 1 7.4-.3 9.6 0 .2 0 .5-.3.8M370 453.2c3.6 3.7 9 7.7 17 11 11.2 4.7 28.3 5.7 40.2 6.2 15.7.6 30 1.2 39 11M493.3 475c2.6 2.6 5.2 5.3 6.4 8.8" fill="none" stroke="#703d29" stroke-miterlimit="3.9"/><path d="M499.6 489.2c-.6 2.6-3 5.6-8.3 6.7h-1" fill="none" stroke="#703d29" stroke-width="1.2" stroke-miterlimit="3.9"/><path d="M491.3 494.7c-.7 2.4-1.8 4.7-3.5 6.5M464.6 466.3c1.2.5.3-.3 8.2 3.2 7.6 3.3 13 6.3 17.6 13.7 1.5 2.3 2 5.7 2 7.6 0 1.3-.2 2.6-.6 4" fill="none" stroke="#703d29" stroke-linecap="round" stroke-miterlimit="3.9"/><path d="M488.2 501.7l-1 1c-3.4 2.8-6.6 3.6-10.5 3.2-3-.4-6-2.6-6.7-4M491.8 491.5l-.7 3.4" fill="none" stroke="#703d29" stroke-miterlimit="3.9"/><path d="M487.4 501.4L486 503l-2.7 1.4-3 1M511.6 501.2c-2 3-6.8 7.8-12 9.6-5-1.8-9.8-6.5-11.8-9.6" fill="none" stroke="#703d29" stroke-miterlimit="3.9"/><path d="M512 501.6c-2 3-6.8 7.8-11.8 9.7-5-2-10-6.6-12-9.7l-.4-.7" fill="none" stroke="#231f20" stroke-miterlimit="3.9"/><path d="M478.8 505.5l2.8-.4M461.6 497.4c.2 0 .3.3.5.5 2 2 5 3.5 8 3.8" fill="none" stroke="#703d29" stroke-miterlimit="3.9"/><path d="M465 500c1.6.8 3.4 1.3 5.2 1.4 6.6.2 11.7-6 11.7-12.3 0-4.2-2.5-8-5.8-11" fill="none" stroke="#703d29" stroke-miterlimit="3.9"/><path d="M466.5 488.2c-1.6 3.5.7 5.4 3 5.7 3.3.3 5.2-2.4 5.4-4.8.2-2.6-1.2-5-3.4-6.5" fill="none" stroke="#703d29" stroke-linecap="round" stroke-miterlimit="3.9"/><path d="M512 501.6c-2 3-6.8 7.8-11.8 9.7-5-2-10-6.6-12-9.7l-.4-.7M512 501.6l1.3 1c3.2 3 6.4 3.7 10.4 3.3 3-.4 5.4-2.4 6.4-4 0 0 .6-.7.8-1.3" fill="none" stroke="#703d29" stroke-miterlimit="3.9"/><path d="M529.8 501l-1.2 2-1.8 1.3-2.6 1-2.5.2" fill="none" stroke="#703d29" stroke-miterlimit="3.9"/><path d="M536 483.2c1.5 1 3 2.8 3.6 4.6.5 1 .7 2.4.8 3.7 0 2.4-.7 4.7-2.2 6.4-2 2.3-5 3.7-8.4 3.8h-.8M529.3 501.4c-3 0-6-1.3-8-3.4" fill="none" stroke="#703d29" stroke-miterlimit="3.9"/><path d="M529 501.4l2.7-.2 2.7-1 2-1.2 2.5-3 .4-1.2.4-2.6V491" fill="none" stroke="#703d29" stroke-miterlimit="3.9"/><path d="M631.6 406.6c3.3 3 5.7 7 7.5 12 .8 2.3 1.5 5.6 1.4 9-.2 5.7-1.6 11.8-3 14.8-1.4 2.6-5 14-24 22-11.2 4.5-28.4 5.5-40.2 6-16 .6-30.8 1.2-39.6 11.5" fill="none" stroke="#703d29" stroke-width="1.4" stroke-miterlimit="3.9"/><path d="M533 481.4l3-2.5 1.8-1.6 3.7-2.3 3.4-1.5 2.3-.6 4.8-1.2 5.7-1" fill="none" stroke="#703d29" stroke-miterlimit="3.9"/><path d="M605.5 417c1-1.7 5.5-3.7 9-1.8 1 .7 2.5 1.5 3.7 3.3" fill="none" stroke="#703d29" stroke-width=".9" stroke-miterlimit="3.9"/><path d="M413 434.4c1-1 1.5-.5 1.7-1 0-.2 0-.3-.5-.4-.4 0-1-.2-1.3-.4l-1.4-.6c-.2 0-.7-.3-.8 0-.2.7 1.6.6 1 2.3 0 .2-.4.8-1.3 1.8l-4 4.6c-.2.2-.4.4-.5.3V434c0-1 0-2 .3-2.5.3-.8 1-.2 1.3-.6 0-.4 0-.4-.5-.6l-1.6-.6-1.6-.7c-.2 0-.6-.3-.8 0 0 .3 0 .5.2.5.5.4.7.7.7 1.5v11.6c0 .8 0 1 .3 1 .2.2.3 0 .6-.3l8-9z" fill="#703d29" fill-rule="evenodd"/><path d="M418 436.2c.5-1.7 1.5-.6 1.7-1.3 0-.3 0-.3-.5-.5l-2-.6-2-.7s-.4-.2-.5 0c-.2.7 1.8.8 1.2 2.4l-2.7 8.5c-.6 1.7-1.6 1-1.8 1.5v.3c.5 0 1.3.3 2 .5l2.4.8h.5c0-.7-2-.4-1.2-2.6l2.6-8.5zM423.7 438c.4-1 1-1 1.4-.8 1.8.5 2.3 2 1.8 3.8-.3 1-.7 2-3.2 1.3-.5 0-1-.3-1-.8l1-3.6zm-4.4 7.6c-.7 2.3-1.8 1.3-2 2 0 .2.3.3.5.3l2.5.6 1.3.5c.4.2.6 0 .6 0 .2-.7-1.6-.4-1-2.3l1-3c0-.8 0-1 .8-.7.8.3 1 .5 1.2 1.4l.5 3.2c.2 1.2.4 2.5 1.7 3 .6 0 1.8 0 2-.6 0 0 0-.2-.2-.3h-.5s-.4 0-.5-.5l-1-5.7c0-.2.5-.2 1-.5.7-.2 1.4-.8 1.7-2 0-.7.6-3.4-3-4.4l-3.2-1-2-.5s-.3 0-.3.2c-.2.7 1.7.5 1 2.6l-2.2 7.8zM432.5 449.5c-.6 2-2.2.8-2.4 1.5 0 .4.3.5.6.6.7 0 1.2.2 2.3.4l2.2.6c.5.2.8.3 1 0 0-.6-2.2-.6-1.7-3l2-8c.2-1 .4-1 1-.8l1.4.3c1.8.5.8 2.4 1.5 2.5.4 0 .4-.6.4-.8V441c.2-.2.2-.5 0-.5l-5-1.2c-2.4-.5-3.5-1-5-1.2-.3 0-.3.2-.4.4l-.8 2.4c0 .2-.3.6 0 .6.8.2 1-2.3 2.7-1.8l1.4.3c.6 0 .7.2.5 1l-2 8.5zM452.3 444.4c.6-1 1.3-.8 1.4-1.2 0-.3-.2-.3-.6-.4h-1.3l-1.4-.5c-.2 0-.6-.2-.7.2 0 .6 1.7.3 1.4 2 0 .3-.2 1-1 2l-3.3 5.2s0 .4-.2.4l-.2-.4-1-6.3c-.3-1.2-.3-2-.2-2.6.2-.8 1.2-.3 1.3-.8 0-.4 0-.4-.6-.5-.3 0-.8 0-1.8-.3-.7 0-1.2-.3-1.8-.4-.2 0-.7-.3-.8.2l.2.3c.7.3 1 .5 1 1.3l2.2 11.4c0 1 .2 1 .4 1s.3 0 .6-.4l6.5-10.2zM453.2 455c0 .4 0 .5.4.7 1 .4 1.7 1 2.7 1.2 2.2.2 4-1.2 4.4-3.6.4-2.3-.6-3.3-2.2-4.4-2-1.5-3-2-2.7-3 .2-1.4 1-2 2-1.7 3 .4 2.6 4 3 4 .4 0 .5-.2.5-.6l.2-2.5c0-.4.2-.7 0-.7-.3 0-.7.2-1 0-.5 0-1-.8-2.4-1-1.8-.4-3.4 1-3.8 3-.3 2 .6 3 2 3.8 2.3 1.8 3.3 2.2 3 3.8-.2 1.5-1.3 2.3-2.6 2-2-.3-2.6-2-2.8-4 0-.2 0-.4-.3-.4-.4 0-.4.5-.4.7l.2 2.6zM478 448c.5-1 1.2-1 1.2-1.4 0-.3-.2-.3-.6-.3h-1.4l-1.4-.2c-.2 0-.7 0-.7.3 0 .7 1.8 0 1.6 2 0 .2 0 .8-.7 2l-2.8 5.5-.3.4c-.2 0-.2-.3-.3-.4l-1.7-6.2c-.3-1.2-.4-2-.4-2.6 0-.8 1-.4 1-1 0-.3 0-.2-.5-.3h-1.7c-.6 0-1.2-.2-1.7-.3-.3 0-.8-.2-.8.3l.2.3c.7.2 1 .4 1 1.2l3.5 11c.2 1 .4 1 .5 1 .2 0 .3 0 .5-.4L478 448z" fill="#703d29" fill-rule="evenodd"/><path d="M480.6 457c0 2-1.6 1.6-1.6 2.3 0 .3.3.2.5.2h3.4s.5 0 .6-.2c0-1-2.2.4-2.2-3.2V450c0-.2 0-.3.2-.3 0 0 .2 0 .3.2l8 9.8s0 .3.3.3.3-.2.3-.6v-10.5c0-2 1.5-1.5 1.5-2 0 0 0-.3-.2-.3H488c-.2 0-.2.2-.2.3 0 .6 2 .3 2 2v6.2c0 .4 0 .6-.2.6l-.5-.5-6.6-8.2c-.3-.3 0-.5-.6-.5H479l-.2.3c0 1 2-.3 2 3.3l-.2 7zM497 448.6c0-1.8 1-1 1-1.7 0-.3 0-.4-.4-.4h-4.2s-.5 0-.5.2c0 .7 1.7.2 1.7 2v8.8c0 1.8-1.2 1.3-1.2 2 0 0 0 .2.2.2h4.4c.5 0 .6 0 .6-.2 0-.6-1.8.2-1.8-2v-9zM504 457.3c0 2.2-2 1.3-2 2 0 .5.3.4.6.4H507.3c.5 0 .8 0 .8-.4 0-.5-2 0-2-2.3v-8.4c0-1 0-1 .7-1h1.5c2 0 1.4 2 2 2 .5 0 .3-.8.3-1l-.2-1.7c0-.3 0-.5-.3-.5h-10.2c-.3 0-.3.3-.4.5l-.2 2.5c0 .2 0 .6.2.6.8 0 .2-2.3 2-2.4h1.6c.6 0 .8 0 .8 1v8.7zM513.7 453.7h-.6c0-.3.2-.6.3-.8l1-3.5c0-.2 0-.2.2-.2l1.7 3.4c0 .2.3.4.3.7l-.5.2h-2.3zm3 .8c.3 0 .4.2 1 1.6l.5 1.3c0 1-1.2 1-1 1.6h.4l2-.2h2c.5 0 .6 0 .6-.4 0-.6-1 .2-1.5-1l-5.5-11c-.2-.7-.3-.7-.4-.7-.2 0-.3.4-.4.7l-3.6 11.6c-.4 1-1.2 1-1.2 1.5 0 .2.3.2.5 0h3.2c.3 0 1 0 .8-.4 0-.4-1.8 0-2-1.3l.3-1.5c.3-1.3.7-1.4 1-1.4l3.3-.3zM529.5 446.8c0-1.3 0-1.3 2-1.6 3.2-.4 2 2 3 1.8.3 0 0-.6 0-1l-.2-1.7s-.2-.3-.4-.3l-4 .6-4.3.5c-.2 0-.4.3-.3.5 0 .7 2 0 2 1.5l1.2 8.7c.3 2.2-1 1.4-1 2.3h.4l2-.2c.8 0 1.5 0 2-.2.5 0 1 0 .8-.4 0-.5-2 .2-2-2l-.5-2.6c0-1-.2-1.3.5-1.4h1.3c1.8-.4 1.6 1.6 2 1.6.5 0 .3-.7.3-1l-.6-3.2c0-.5-.2-.5-.4-.5-.3.2 0 2-1.5 2l-1 .2c-.8 0-.8 0-1-.8l-.3-2.6zM535.7 451c.7 3.8 3.3 5.8 6.7 5.2 5.2-1 5.4-5.7 5-8.2-.8-4-3.7-5.8-7-5.2-3.8.8-5.5 4.2-4.7 8.2zm1.8-1.4c-.5-2.7 0-5.3 2.6-6 2.3-.3 4.7 1.4 5.4 5.5.6 3 0 5.7-2.7 6.3-3 .6-4.7-3-5.2-5.7zM550.5 443c-.2-1 .3-1 1-1.2 1.5-.4 2.8.7 3.2 2.5.2 1 .4 2-2 2.7-.6 0-1.2.2-1.3-.2l-1-3.7zm0 9c.6 2.3-1 2-.7 2.6 0 .3.4.2.6.2l2.5-.7c.5 0 1 0 1.3-.2.3 0 .5-.2.4-.4 0-.6-1.6.5-2-1.4l-.8-3.2c-.3-.6-.4-.7.5-1 .8 0 1 0 1.7.7l2 2.5c.8 1 1.6 2 3 1.7.6-.2 1.5-1 1.4-1.4 0-.2-.2-.2-.3-.2-.2 0-.3.3-.5.3h-.6l-3.8-4.5c0-.2.4-.5.8-1 .3-.6.7-1.4.4-2.5-.2-1-1.2-3.3-4.7-2.5l-3.4 1c-1 0-1.2 0-2 .3 0 0-.3.2-.2.4 0 .7 1.7-.4 2.2 1.6l2 8zM564 449c.6 2-1.5 1.7-1.3 2.4 0 .4.4.4.6.3l2.3-.7 2.3-.5c.4 0 .7-.2.6-.6 0-.6-2 .5-2.7-1.8l-2.2-8c-.2-1 0-1 .6-1.3l1.4-.4c2-.6 1.8 1.5 2.5 1.4.4 0 0-.8 0-1l-.6-1.6c0-.2-.2-.5-.4-.4l-5 1.4-5 1.2c-.2 0 0 .3 0 .5l.3 2.5c0 .3 0 .7.3.6.7 0-.4-2.3 1.4-2.8l1.4-.3c.6-.3.8-.3 1 .6l2.2 8.4zM572.6 437.5c-.5-1.7 1-1.4.8-2 0-.2-.2-.2-.7 0l-2 .6-2 .5s-.5 0-.4.4c.2.5 2-.5 2.3 1.2l2.4 8.6c.5 1.7-.8 1.6-.6 2.2 0 0 0 .2.2 0l1.8-.4 2.5-.6c.3 0 .4-.3.3-.5 0-.5-1.7.8-2.3-1.4l-2.4-8.5zM576.2 441.7c1.2 3.6 4 5.3 7.3 4.2 5-1.8 4.6-6.5 3.8-9-1.2-3.7-4.4-5.2-7.5-4-3.8 1.2-5 4.8-3.6 8.7zm1.6-1.7c-1-2.5-1-5.2 1.8-6.2 2-.7 4.7.7 6 4.6 1 3 1 5.6-2 6.6-2.7 1-5-2.4-5.8-5zM589.7 431.6c-.4-1 0-1.3.7-1.5 1.5-.5 3 .4 3.6 2 .4 1 .7 2.2-1.7 3-.5.3-1 .5-1.2 0l-1.3-3.4zm1.3 8.8c.8 2-.7 2-.5 2.6.2.4.5.2.7 0l2.3-1 1.4-.4c.3 0 .4-.2.3-.4-.2-.6-1.5.7-2.2-1.2l-1-3c-.4-.6-.5-.7.3-1 .8-.3 1-.3 1.8.4l2.5 2.2c1 .8 1.8 1.7 3 1.2.7-.2 1.5-1 1.3-1.5 0-.2-.2-.3-.3-.2l-.4.4s-.3.2-.6 0c-2-1.8-4.3-3.8-4.3-4l.7-1c.3-.6.5-1.4 0-2.5-.3-1-1.6-3.2-5-2l-3 1.4-2 .7c-.2 0-.3.3-.2.5.2.6 1.7-.7 2.5 1.2l3 7.7z" fill="#703d29" fill-rule="evenodd"/><path d="M620.7 392c-2.5-2.3-5-5.5-7.5-10-1.3-2.6-2-5-2.7-7-.4-2-.7-3.6-.7-5.3 0-3 .2-6.2 1-9.8 1.2-6 3.4-10.6 6.3-14.2 1-1.3 2.3-2.8 3.4-3.5" fill="none" stroke="#703d29" stroke-miterlimit="3.9"/><path d="M624.5 383.2c-.6-.6-1.4-1-2-1.7-3.8-4-6.7-10-6.7-16.7 0-6.5 2.5-13 5.6-15.6" fill="none" stroke="#703d29" stroke-miterlimit="3.9"/><path d="M615.3 363.2l.2-2.5 1-4 1-3 1.4-2.7 1.6-2" fill="none" stroke="#703d29" stroke-width=".9" stroke-miterlimit="3.9"/><path d="M627.5 402.8l2.2.8c2.3.6 4.4.6 6.2 0 4.3-1.2 7.2-5.4 5-10.7-.7-1.4-1.7-2.6-2.8-3.5" fill="none" stroke="#703d29" stroke-width="1.4" stroke-miterlimit="3.9"/><path d="M639 390.5v-1.2c0-1.8-.7-3.4-2-4.6-.3-.3-.8-1-1.3-1.2M636.5 384.3c0-3-2.5-5-5.4-5.6M621.5 349.4c1.6 2 4.6 2.6 7 2 1.7-.5 3-1.6 3.8-3 1-1.7 1.2-4 .6-6-.3-.8-.7-1.6-1.4-2.5-.7-1-1.5-2-2-2.3-.3 0-.5-.3-.6-.4" fill="none" stroke="#703d29" stroke-miterlimit="3.9"/><path d="M632.7 343.7l-.2 2.4-.7 1.8-1 1.6-1.3 1-2 .6H624.7" fill="none" stroke="#703d29" stroke-width=".9" stroke-miterlimit="3.9"/><path d="M629.2 397.2l.8.3c2.2 1.3 6.6-.4 5.3-3.8" fill="none" stroke="#703d29" stroke-linecap="round" stroke-miterlimit="3.9"/><path d="M618.2 223.8c4 .3 7.6 4.6 7.6 8.8 0 6-2 8.6-7 14.5-4 5.3-16.4 14.3-16 23 0 1.5.8 3 1.7 4.3" fill="none" stroke="#703d29" stroke-miterlimit="3.9"/><path d="M602.3 268.4l.6-2.6 1-2.5 1.6-2.4 2.6-3.5 2-2.3 3.4-3.3 2.8-3 2-2.2 2.3-3 2-3 1.4-2.7.8-3.4.2-4.2-.4-1.2" fill="none" stroke="#703d29" stroke-width=".9" stroke-miterlimit="3.9"/><path d="M613.2 277.4c1.2-4.2-.2-8.5-4.2-8.4M599.6 279.7c1 1 2 1.6 3.2 2.2 2.3 1 4.8.4 6.7-.6M609.5 217c5 0 9.4 5.5 9.4 11.2 0 6.6-3.6 10.6-6.2 13.7-2 2.4-4.3 4.6-7 7.2" fill="none" stroke="#703d29" stroke-miterlimit="3.9"/><path d="M603.6 211.6c1.7.8 3.2 2 4.3 3.8 2 3 2.6 5.7 2.4 9.6-.2 6.6-5 11-9.2 14M593.7 211.6l1 1c3 3.4 3 8.5 2.4 11.3-1 4-2.3 6-5.7 8.4M583.4 209.8c4 3.2 5.3 8.5 4 14-1 4-3.5 6.4-6.6 8.3" fill="none" stroke="#703d29" stroke-linecap="round" stroke-miterlimit="3.9"/><path d="M576.4 214c1.3.8 2.6 2.2 3.4 4 3 7-3.4 12.2-9.3 16.2-4.2 3-8.7 4.4-13 5" fill="none" stroke="#703d29" stroke-miterlimit="3.9"/><path d="M569.7 227.4c-1.4 0-3-.4-5-2.3-.4-.3-.8-1-1-1.5M540.5 231.2c-.8-.4-1.6-1-2-1.5-1.5-1.6-2.4-3.7-1.4-7 1-2.8 6-11 6-17 .5-8.7-3-14-8.2-16" fill="none" stroke="#703d29" stroke-miterlimit="3.9"/><path d="M542.7 204l-.2 3.2-1 3.3-1.6 4.6-1.4 3-1.4 3-.7 2-.3 1.6.2 1.5M598.2 296.3c.4 1.4 1.3 2 2.3 3 2.2 2.3 5.5 4.3 9.6 5.5 4 1 7.4.3 10-1.4M595.8 423.4c.3.7 1 1.3 1 1.3 1 1.7 5 4.7 8.5 4.7 6 0 7.3-4 7.4-5 .8-4.5-.8-5.7-3-7 0 0-1.4-.7-3-.4" fill="none" stroke="#703d29" stroke-linecap="round" stroke-miterlimit="3.9"/><path d="M605.4 429.4l2.6-.5 2-1 1-1 .7-1.3.5-2v-1.3" fill="none" stroke="#703d29" stroke-width=".9" stroke-miterlimit="3.9"/><path d="M370.2 403.7c-2 .5-4 .5-5.7 0-4.5-1.3-8-5.6-6.2-10.8" fill="none" stroke="#703d29" stroke-miterlimit="3.9"/><path d="M365 403.4h4.2l2.4-1" fill="none" stroke="#703d29" stroke-width=".9" stroke-miterlimit="3.9"/><path d="M365.3 388c2-.2 4 1 5 3.3.4.5.8 1.4.7 2.5 0 1.3-.6 2.8-1.5 3.4-2.3 1.4-6.3.8-6-3" fill="none" stroke="#703d29" stroke-linecap="round" stroke-miterlimit="3.9"/><path d="M363.4 393.7c0-2 1.3-3.5 2.8-3.5 1.5 0 2.7 1.6 2.7 3.5 0 2-1.3 3.5-2.8 3.5-1.5 0-2.8-1.6-2.8-3.5z" fill="#c7b37f" stroke="#c7b37f" stroke-width=".5" stroke-miterlimit="3.9"/><path d="M377.3 336.4c7.7 1.4 15.2 10.7 17.6 21 .7 3.4 2 11.2.3 18.7-1.7 8-5.2 13.5-9.2 17.7-.8 1-2 2-3.2 2.8l-1.7 1" fill="none" stroke="#703d29" stroke-miterlimit="3.9"/><path d="M379.2 343.2c.5.4.6 1 .7 1.6.6 5.8-4.5 7.4-8 6.5-1.8-.5-4-2-4.8-3.6-.6-1-1-2.3-1-3.6" fill="none" stroke="#703d29" stroke-miterlimit="3.9"/><path d="M379.4 345.4l-.3 2.2-.4 1-.7 1-1 .6-1.3.5-1.4.3h-1" fill="none" stroke="#703d29" stroke-width=".9" stroke-miterlimit="3.9"/><path d="M374 340.5c-.7.3-1 .5-1.4 1-.4.4-.5.5-.8 1.2-.3.6-.3 1.2-.4 2" fill="none" stroke="#c7b37f" stroke-linecap="round" stroke-miterlimit="3.9"/><path d="M368.8 378.7c3 0 6 3 6 6.2 0 1.5-.7 3-1.7 4" fill="none" stroke="#703d29" stroke-miterlimit="3.9"/><path d="M366.6 382.3c3.3 0 6.5 3.2 6.5 6.6 0 1.8-1 3.6-2.3 4.7" fill="none" stroke="#703d29" stroke-miterlimit="3.9"/><path d="M378.8 386.4l1.4-1.7 1-1.5.8-1.4 1-2M381 401.5c-.8.5-1.4.6-2.3 1-.6.5-1 .7-1.7 1-.7.6-1.2 1-2 1.4-.7.5-1 1-1.8 1.5M396.6 347.3l-1.3-1.4c-.6-.6-.8-1-1.4-1.4l-1.6-1" fill="none" stroke="#c7b37f" stroke-linecap="round" stroke-miterlimit="3.9"/><path d="M396.8 349.2c3 4 5 7.6 6 12M402.7 374.5c-.5 2.3-1.3 4.4-2.3 6.4-1.2 2.4-3.5 5.2-5.5 7" fill="none" stroke="#703d29" stroke-linecap="round" stroke-miterlimit="3.9"/><path d="M402.8 341.8c-1 3.4-3.2 5.7-5.6 7.2M397.3 325.5c3 2.3 4.7 4.7 5.5 7.5M400.7 307.2c1 .8 1.6 1.7 2 2.7" fill="none" stroke="#703d29" stroke-miterlimit="3.9"/><path d="M397.3 325c-1 1-2.2 1.7-3.2 2" fill="none" stroke="#703d29" stroke-linecap="round" stroke-miterlimit="3.9"/><path d="M397.2 326.5c-.8.3-1.2.6-2 .8-.8.3-1.4.5-2.3.5" fill="none" stroke="#c7b37f" stroke-miterlimit="3.9"/><path d="M403 318c-1 2.6-2.6 4.6-5.4 7" fill="none" stroke="#703d29" stroke-linecap="round" stroke-miterlimit="3.9"/><path d="M401 296.6c.7.6 1.3 1.3 1.7 2" fill="none" stroke="#703d29" stroke-miterlimit="3.9"/><path d="M403 304c-.6 1-1.4 2.4-2.5 3.7-3 3.3-8 6-13.7 6.2-3 0-6.3-.7-9.5-2.8-3.4-2.3-5.6-5.5-6.3-8.7" fill="none" stroke="#703d29" stroke-linecap="round" stroke-miterlimit="3.9"/><path d="M371 300.7l.6 2.3c.5 1 .8 1.7 1.5 2.7.8 1 1.2 1.6 2 2.4 1 1 1.3 1.3 2.3 2l2.3 1" fill="none" stroke="#c7b37f" stroke-linecap="round" stroke-miterlimit="3.9"/><path d="M399 280c1.8 1.6 3.2 3.5 3.8 5.4" fill="none" stroke="#703d29" stroke-miterlimit="3.9"/><path d="M403 292.6c-1.5 4.5-5.7 10.2-13.6 12.2-3.8 1-8.7-.2-10.4-1.7" fill="none" stroke="#703d29" stroke-linecap="round" stroke-miterlimit="3.9"/><path d="M378 302l2 1 2 .6c1 .2 1.5.3 2.6.3 1 0 1.4 0 3-.3" fill="none" stroke="#c7b37f" stroke-linecap="round" stroke-miterlimit="3.9"/><path d="M375 291.5c.5 4 3.2 7.2 8.5 7.3 7.3 0 11.8-10.6 5.2-18" fill="none" stroke="#703d29" stroke-miterlimit="3.9"/><path d="M383.3 298.3l3.4-1 2-1.4 1.3-2 1-2.8.5-2.3" fill="none" stroke="#703d29" stroke-linecap="round" stroke-miterlimit="3.9"/><path d="M376.5 286.4c-1 .3-2.4.7-3.8 1.3-2 1-4 2.3-5.5 4.6-2 2.6-3 6.3-3.6 9.5-.3 1.4-.7 5.8.2 10.4.7 3.4 2 6.5 3.6 8.8.6.8 1 1.5 1.6 2 2 2 4 3.4 7 2.7" fill="none" stroke="#703d29" stroke-miterlimit="3.9"/><path d="M375.4 287c-3 2-5 2.4-7.4 5-2.3 4.6-3.3 7-4 10.7" fill="none" stroke="#703d29" stroke-linecap="round" stroke-miterlimit="3.9"/><path d="M377 324.4c0-1.6 1.2-3 2.7-3 1.5 0 2.7 1.4 2.7 3 0 1.5-1.2 2.8-2.7 2.8-1.5 0-2.7-1.3-2.7-2.8z" fill="#c7b37f"/><path d="M358.5 327.4c1 1.3 2.4 2.6 3.7 3.6 2.6 2.2 5.7 4 9.2 5.2M379.7 337c6.5-.8 10.2-5.7 9.5-11.5-.5-4.3-4.6-7.7-7.3-8" fill="none" stroke="#703d29" stroke-linecap="round" stroke-miterlimit="3.9"/><path d="M388.7 326.6l-.5 3.4-.7 1.5-1.3 2-2 1.3-1.7 1-3.6.8" fill="none" stroke="#703d29" stroke-width=".9" stroke-miterlimit="3.9"/><path d="M403 276c-1 3-3 5-6 6.3-2.7 1.3-6 0-8-1.3" fill="none" stroke="#703d29" stroke-miterlimit="3.9"/><path d="M402.8 274.5l-.7 2-.8 1.5-1.2 1.6-1.6 1.5-2 1-1.6.4h-1" fill="none" stroke="#703d29" stroke-width=".9" stroke-miterlimit="3.9"/><path d="M390.4 269c2.8-.2 4.5 2.4 4.4 4.6" fill="none" stroke="#703d29" stroke-miterlimit="3.9"/><path d="M395.4 271.6c-.6 2-1.6 4.5-4.8 4.2" fill="none" stroke="#703d29" stroke-linecap="round" stroke-miterlimit="3.9"/><path d="M394.4 272.7v1.5" fill="none" stroke="#703d29" stroke-width=".9" stroke-miterlimit="3.9"/><path d="M389.7 229.8c1.6 4 4.6 7.3 8 9" fill="none" stroke="#703d29" stroke-linecap="round" stroke-miterlimit="3.9"/><path d="M398.7 240.2c-1.3-.8-2-1-3.2-2-1.2-.7-2-1.3-3-2.3l-1.7-2-1.3-2.2M401.2 224.7c.4 1 .5 1.7 1 2.7.7 1.4 1.2 2 2.2 3.2 1.4 1.5 2.6 2 4.3 3.3M411 224.6c.4 1 .5 1.5 1 2.4.4.8.7 1.2 1.3 2l2 2c1 .8 2 1 3 1.7" fill="none" stroke="#c7b37f" stroke-linecap="round" stroke-miterlimit="3.9"/><path d="M425 221.8c-.3-1.6.7-3 2-3 1.4-.3 2.6 1 2.8 2.5.2 1.6-.8 3-2 3-1.5.3-2.7-1-3-2.5z" fill="#c7b37f"/><path d="M623 287.3c2.5 3.7.8 11-6.5 11-3 0-5.4-1.5-7-4" fill="none" stroke="#703d29" stroke-linecap="round" stroke-miterlimit="3.9"/><path d="M384 285.2c-3.2-3-9.6-3.7-16 .3-.7.5-1.6 1.2-2.4 2-.8.6-1.5 1.4-2.2 2.3-.8 1-1.7 2.7-2.2 3.8-.8 1.6-1 2.6-1.5 4.2-1 4.4-1 8.6-1 9.8.2 1.5.3 3 .6 4 .8 4.5 2 7.6 3.4 9.8 1.4 2.3 5 7.7 12 8.4 3 .3 7.7-1 8-4.7" fill="none" stroke="#703d29" stroke-miterlimit="3.9"/><path d="M568.4 220.4c.5-2.6 3.6-3 4.7-1.5 2 2.2.8 6.2-3 7.4-1.2.4-4 .2-6-2.2-1.4-2-1.3-4.4-.7-6.3.3-1.3 1.3-2.4 2.7-3.4 4.2-3.3 11-2.5 13.3 3 3 7-3.4 12.2-9.2 16.2-7.3 5-15.6 6-22 5.8-14.2-.2-25-7-32.2-11-1.6-.8-3.3-.6-4.2.4-1 1.2-1 3 .4 4.3" fill="none" stroke="#703d29" stroke-linecap="round" stroke-miterlimit="3.9"/><path d="M571.3 218c1.5 0 2 .7 2.3 1.3 1.8 2.3.5 6.4-3 7.5" fill="none" stroke="#703d29" stroke-linecap="round" stroke-miterlimit="3.9"/><path d="M491.5 224.8c2.4 1.8 4 4 3.8 7.8-.3 4-1.3 5-4.4 7" fill="none" stroke="#703d29" stroke-width="1.1" stroke-linecap="round" stroke-miterlimit="3.9"/><path d="M596.4 239.2V264" fill="none" stroke="#703d29" stroke-miterlimit="3.9"/><path d="M494.7 233.7c-.2 2.4-1 4-3.6 5" fill="none" stroke="#703d29" stroke-width="1.1" stroke-linecap="round" stroke-miterlimit="3.9"/><path d="M520.8 212c0-2.7-2.7-3-3.7-3-2.8 0-3.6 1.8-7.2 3.7-4.5 2.4-6.4 3-10.4 3s-6-.6-10.6-3c-3.6-2-4.2-3.7-7-3.7-1.6 0-3.6 1.4-3.6 4v1.2l.5.3c0-1.2.2-1.8.8-2.6.8-1 2-1.4 2.5-1.4 3 0 4 1.8 7.6 3.8 4.5 2.4 6.5 3 10.5 3s6-.6 10.6-3c3.6-2 4.6-4 7.5-4 1 0 1.8.7 2 1.7.3.7.2 1.2.3 1.4 0 0 .2 0 .2.2 0-.4.3-.6.3-1.7z" fill="#703d29" fill-rule="evenodd" stroke="#703d29" stroke-width=".3" stroke-miterlimit="3.9"/><path d="M436 222c0 2.6-2 4.3-4.8 5M598.3 307.3c-5.4 6-.4 16 3.7 18.5 1.4 1 2 .5 3 1" fill="none" stroke="#703d29" stroke-linecap="round" stroke-miterlimit="3.9"/><path d="M598.6 296c-1.8 1.2-2.4 2.6-2.5 5 0 2 .4 4.3 2.3 6.3 3 3 8.8 5.8 14.5 6 3 0 6.2-.7 9.4-2.8 3.4-2.3 5.2-5.4 6-8.4M595.6 398.6s0 2.4-.2 4c-.6 4.2-1.3 6.8-3.3 10.7-1.8 3.8-3.4 5.8-6.4 9-3 3-5.2 4.3-9 6.2-4 2-6.3 2.5-10.4 3.5-4 1-6.5 1-10.7 1.3-4 0-6 0-10-.3s-6.3-.8-10.5-1.2c-3.4-.3-5.3-.6-8.7-.6-3.5 0-5.5 0-9 .7-3.2.4-5 1-8 2-4.3 1.8-9 4.8-10 6-1-1.2-5.8-4.2-10-6-3-1-4.8-1.6-8-2-3.5-.7-5.5-.8-9-.8s-5.4.3-8.8.6c-4 .4-6.4 1-10.5 1.2-4 .3-6 .4-10 .3-4-.2-6.6-.4-10.7-1.3-4-1-6.5-1.6-10.2-3.5-3.8-2-6-3.3-9-6.3s-4.6-5-6.6-9c-2-3.8-2.6-6.4-3.2-10.7-.2-1.5-.2-4-.2-4v-159h192.5v159z" fill="none" stroke="#703d29" stroke-miterlimit="3.9"/><path d="M515 249.6h12.4V331H515v-81.4z" id="m" fill="#d52b1e"/><path d="M412.7 249.2h82v82h-82v-82z" fill="#d52b1e" stroke="#703d29" stroke-width=".8" stroke-miterlimit="3.9"/><use transform="matrix(-1 0 0 1 907.5 0)" width="1000" height="700" xlink:href="#b"/><path d="M451.2 313.8s0 3-1 5.3c-.8 2.8-.8 2.8-1.6 4.2-1.2 1.7-2.6 3-4 3.8-1.8 1.3-3.8 2-5.8 1.8-5.5-.5-8-6.5-9.3-11.3-1.3-5.2-5-8-7.5-6-1.4 1-1.4 2.8-.3 4.6 1.3 2 4 3 4 3l-2.8 3.6s-6.4-.8-7.6-7.4c-.5-2.5.7-7 5-8.5 5.2-1.8 8.5 2 10.2 5.2 2.2 4.3 3.2 12.3 9.4 11 3.4-.6 5-5.5 5-7.8l2.4-2.6 3.7 1 .2.2z" id="b" fill="#fff" fill-rule="evenodd"/><path d="M461 279l11-11.7s1.5-1.3 1.5-3.4l-2.2.3-.5-1.2v-1l2.8-.7V260l.4-1.3-3.2.2c0-.6 0-1 .3-1.5l.6-1 2-.4h1.8c1.8-3.3 9.2-6.3 14.4-1 3.8 4 3 11.3-2 13.3-2.7 1-5 .4-6.8-1.2l2-3.7c2.7 1.6 5-.4 4.8-2.5-.2-2.7-2-4.3-4.3-4.5-2.3-.2-4 1-5 3-.6 1.3-.3 2.2-.5 3.6s0 2.2-.5 3.7c-.3 1-1.2 2.4-2.4 3.6l-11 12-43 46.4-3-3 43-46.8z" fill="#fedf00" fill-rule="evenodd"/><path d="M429.5 283s2.7 13.4 12 33.5c4.5-1.7 7.3-2.8 12.2-2.8 5 0 7.7 1 12.4 2.8 9.3-20 12-33.5 12-33.5l-24.3-31-24.2 31z" fill="#fff" fill-rule="evenodd"/><use transform="matrix(-1 0 0 1 907.5 0)" width="1000" height="700" xlink:href="#c"/><path d="M451.4 262.4L434.6 284s2.2 10.6 9 26.4c2.7-.6 5-1 7.8-1.3v-46.6z" id="c" fill="#fedf00" fill-rule="evenodd"/><path d="M525 364.2l-1.8-1c.3 0 .6 0 .8-.4.4-.4.4-.8.6-1.3.2-.5.2-1 .7-1.4h1c.5 0 1 .4 1 .7 0 .6-.2 1-.3 1.5 0 .6-.3 1-.2 1.4 0 .4.2.6.4 1l-2-.4z" id="d" fill="#0065bd" fill-rule="evenodd"/><path d="M524 365c0-.2.4-.5.8-.5.3 0 .6.3.6.6 0 .4-.3.7-.6.7-.4 0-.7-.2-.7-.6z" id="e" fill="#0065bd" fill-rule="evenodd"/><path d="M522.4 348.6h-.2l-.6-1.2-.3-1.2v-1-1c0-.3 0-.6-.2-1 0 0-.3-.2-.2-.3 0-.2.3 0 .4 0 .4 0 .7 0 1 .3.3.3.5.6.6 1l.4 1.5c0 .3.2.5.3.8l.6.6-.7.8c-.3.3-.6.4-1 .6z" id="f" fill="#0065bd" fill-rule="evenodd"/><path d="M524.6 347l-.6.2-.8.8c-.4.4-.7.5-1.2.8l-.6.5c-.2.3 0 .6-.2 1l-.7 1-1 1-1.2 1h-.3c-.2.2-.3 0-.6.2-.4 0-.5.5-.7.7 0 .2 0 .4.2.6 0 .3.6 1.2.7 1.4.2.3.3.7.5.8.6.2 1 .2 1.3 0l2 .6c.7.2 1 .6 1.5.8l1.3.5h1l.6-.2v.4l2.2 1-.2.4v.8c.5 2 1 3 1.4 3.2.6.2.8 1 1 1.5 0 .2 0 .3-.2.4-.6.6-1.2 1-1.7 1.8-.7 1.2-1.2 1.2-.3 2.8.6 1 .8 1 1.6 2.4l.7 2c.2.7.3 1.2.3 2l1 .3.7-.6.6-1v-1c0-.2-.2-.5 0-.8 0-.4.4-.3.6-.6.3-.5-.3-.8-.7-1-.7-.8-1.5-1-1.7-2 0-.2 0-.4.4-.7.8-1 1-1 2-2 .2.2.6.3 1 .2.2 0 .5 0 1.3.4.6.2 1 0 1.3 0h.3v.6c.2 1 0 3 .3 3.5l.2.6.2.6v1.8c0 .7 0 1-.2 1.8 0 .4-.2.7-.5 1-.2.4-.5.4-1 .7v1l1 .5 1.4.3.8-.2v-.6c.3-.3.4-.5.6-.5.4-.2.8 0 1 0v-1c0-.6-.2-1-.3-1.5v-2.8-1.6c.2-.8.5-1.3.8-2l.3-2.6c3.3.4 6 .4 9.5-.4l.7-.2c.8.6 1.7 1.2 2.7 1.6v1.7c.2 0 .3 0 .4.2.3 0 .5 0 .7-.2.3-.2.3-.5.3-.8v-.6h1.8v.5c.2.3 0 .5.2.7 0 .2.2.4.5.4.2.2.3 0 .5 0 .3-.2.3-.5.3-.8v-.8l1-.4v.8c0 .4-.2.6-.3 1l-.8 1.4c-.3.6-.5 1-1 1.5l-.6.7-.6 1-1 1c-.6.5-1 0-2 .8l-.2 1 1.4.5 1.3.3.5-.3c0-.3 0-.5.2-.7.2-.3.4-.4.8-.4.3 0 .7 0 1-.2.3-.3.3-1 .6-1.5 1-1.8 1.6-2.7 3-4l1.7-1.4c.2-.4.5-.5.5-1l-.2-.6-.2-1c1.5.7 1 .6 1.2 1.4.3.6 0 1 0 1.7.2.8.6 1.2.6 2 0 1 0 1.4-.3 2.3 0 .8 0 1.3-.3 2-.4.7-.6 1-1.2 1.5l-.6.4-.2 1 1 .5 1.7.4.4-.3c0-.6 0-1.6.3-1.6.4 0 .7 0 .8-.3l.2-.6.6-4.4.4-2 .4-1.6c.8-2-.2-2.3-1-3.6-.5-.7-.7-1-.7-1.5-.2-1 0-1.6 0-3v-2.8h.3c1.2-.8 1.7-1 2.4-2.6l.3-1.5v-1c0-.3-.3-.5-.4-.8 0-.4-.3-.6-.5-1-.7-.8-1.7-1-2.7-1.4-1.4-.5-2.5-.4-4-.5-1.8-.2-2.7-.2-4.4 0-2 0-3.2.4-5.2.7l-5 .4c-2.2 0-4.3-.5-5.7-.4-2.3.2-2.4.8-6 1l-4 .3-2-.7c.8-.3 1-.5 1.4-1 .3-.4.2-.7.6-1l.7-1c-.3-.3-.6-.4-1-.5h-.8c-.6 0-1 .2-1.3.4l-1 .6-2-1.2c-1.2-.5-1.7-.7-3-1zm2 11.8z" id="a" fill="#d52b1e" fill-rule="evenodd"/><path d="M568.8 359.5l-.8.3c-1 .4-1.6.4-2.6.5-2.6.2-4.3-1-7-1-1.4.2-2 1.3-3.5 1.7l-1.8.2.6-1s-1.3.3-2.2.3c-.6 0-1 0-1.5-.2l1-1s-.7 0-1.2-.2c-.4 0-.6-.3-1-.6.6 0 1-.2 1.7-.3 1.5-.3 2-1 4-1.3 1 0 3 0 7.5.8 3 .5 4.4.2 5.5-.3.8-.3 1-1 1-1.8.2-.8-.3-1.4-.7-1.8l-1-.4" fill="none" stroke="#fedf00" stroke-linecap="round" stroke-miterlimit="3.9"/><path d="M524.8 350.6c-.5 0-1 0-1.3.3-.5.2-.6.6-1 1 .5 0 .8.4 1.2.3.4 0 .5-.2.8-.5.3-.4.4-.7.4-1.2h-.2z" fill="#fcd900" fill-rule="evenodd" stroke="#fedf00" stroke-width=".5" stroke-miterlimit="3.9"/><path d="M536 363.8l.5.8.5 1.5c.2 1 0 1.3.2 2.2v1.5M544 362.7l-.3 1.3c-.4 1.4-.7 2-1 3.5v.6" fill="none" stroke="#fedf00" stroke-linecap="round" stroke-miterlimit="3.9"/><path d="M526 359.2l2.2 1c1.2-.6 2.5-1.8 3.5-3.8 1-1.8 1-2.7 1.4-4.4l-1.7-.5h-.4c-.6 1.8-.8 2.7-1.7 4.2-.8 1.3-1.7 2.3-2.6 3l-.7.5z" id="g" fill="#0065bd" fill-rule="evenodd"/><path d="M531 377.4l.8-1.3 1.4-1h.4v1.6l-.5 1.2c0 .4 0 .6-.3 1 0 .2-.3.3-.5.5-.5-.8-1.3-1.3-1.3-2z" id="h" fill="#0065bd" fill-rule="evenodd"/><path d="M564 379.2l1.4.6c.6.3 1 .5 1.5 1v.4l-1.6.2H563l-.5-.4c.5-.7.8-1.6 1.4-1.8z" id="i" fill="#0065bd" fill-rule="evenodd"/><path d="M554.2 377.2l1.4.5c.7.3 1 .6 1.5 1l.2.4c-.6.3-1 .4-1.6.4h-2.2l-.7-.4c.6-.7 1-1.7 1.5-1.8z" id="j" fill="#0065bd" fill-rule="evenodd"/><path d="M536.8 379.3l1.5.5 1.5 1v.5l-1.5.2H536l-.6-.4c.5-.6.8-1.5 1.4-1.7z" id="k" fill="#0065bd" fill-rule="evenodd"/><path d="M528 349.5c-.8-.3-1.2-1-.8-1.6 0-.3.4-.3.6-.5v-.8-1c-.2-.4-.3-.6-.3-1 0-.6 0-1 .4-1.6 0-.2.6-.5.7-.5.2 0 0 .5 0 .8 0 .5 0 .7.3 1.2l.7 1.3c.2.6.4.8.4 1.4v1.2l-.7.8-.8.4h-.6z" id="l" fill="#0065bd" fill-rule="evenodd"/><path d="M531.8 364.2c.8 0 .5 3.3 1.8 4" fill="none" stroke="#fedf00" stroke-linecap="round" stroke-miterlimit="3.9"/><path d="M560 369.8l.5-.3c1-.4 2-1 2.7-1.8" fill="none" stroke="#fedf00" stroke-miterlimit="3.9"/><path d="M552.4 368c3.5-1 6-2.6 7.6-2.8M556 363.6h.8c1.5-.3 1.7.6 2.7 1.2 2 1 2 2.3 4.3 3.4h.3l1 .5" fill="none" stroke="#fedf00" stroke-linecap="round" stroke-miterlimit="3.9"/><path d="M517.7 354.5h.7l.8-.2c.3 0 .5 0 .7.2l.2.3v.5c0 .3-.2.4-.5.4-.2 0-.4 0-.6-.3v-.4h-.7c-.3 0-.4-.2-.6-.5z" fill="#fcd900" fill-rule="evenodd" stroke="#fedf00" stroke-width=".5" stroke-miterlimit="3.9"/><use transform="translate(0 36.6)" width="1000" height="700" xlink:href="#d"/><use transform="translate(0 36.6)" width="1000" height="700" xlink:href="#e"/><use transform="translate(0 36.6)" width="1000" height="700" xlink:href="#f"/><path d="M568.8 396l-.8.4c-1 .4-1.6.4-2.6.4-2.6.2-4.3-1-7-.8-1.4 0-2 1.2-3.5 1.5-.7.2-1 .3-1.8.3l.6-1s-1.3.3-2.2.3H550l1-1-1.2-.4c-.4 0-.6-.3-1-.6.6 0 1-.2 1.7-.3 1.5-.4 2-1.2 4-1.4 1 0 3 0 7.5.8 3 .6 4.4.3 5.5-.2.8-.3 1-1 1-1.8.2-.8-.3-1.4-.7-1.8l-1-.4" fill="none" stroke="#fedf00" stroke-linecap="round" stroke-miterlimit="3.9"/><path d="M524.8 387.2c-.5 0-1 0-1.3.3-.5.3-.6.7-1 1 .5.2.8.5 1.2.4l.8-.6c.3-.4.4-.7.4-1.2h-.2z" fill="#fedf00" fill-rule="evenodd" stroke="#fcd900" stroke-width=".5" stroke-miterlimit="3.9"/><path d="M536 398.7l.5.8.5 1.5c.2.8 0 1.2.2 2v1.6M544 399.3l-.3 1.3c-.4 1.4-.7 2-1 3.5v.7" fill="none" stroke="#fedf00" stroke-linecap="round" stroke-miterlimit="3.9"/><use transform="translate(0 36.6)" width="1000" height="700" xlink:href="#g"/><use transform="translate(0 36.6)" width="1000" height="700" xlink:href="#h"/><use transform="translate(0 36.6)" width="1000" height="700" xlink:href="#i"/><use transform="translate(0 36.6)" width="1000" height="700" xlink:href="#j"/><use transform="translate(0 36.6)" width="1000" height="700" xlink:href="#k"/><use transform="translate(0 36.6)" width="1000" height="700" xlink:href="#l"/><path d="M531.8 400.8c.8 0 .5 3.3 1.8 4" fill="none" stroke="#fedf00" stroke-linecap="round" stroke-miterlimit="3.9"/><path d="M560 406.4l.5-.3c1-.3 2-1 2.7-1.7" fill="none" stroke="#fedf00" stroke-miterlimit="3.9"/><path d="M552.4 404.6c3.5-1 6-2.6 7.6-3M556 400.2h.8c1.5-.3 1.7.6 2.7 1.2 2 1 2 2.3 4.3 3.3l.3.2 1 .3" fill="none" stroke="#fedf00" stroke-linecap="round" stroke-miterlimit="3.9"/><path d="M517.7 391c.3.2.4.2.7.2.3 0 .5-.3.8-.3h.7l.2.4v.5s-.2.3-.5.3c-.2 0-.4 0-.6-.3v-.4h-.7c-.3 0-.4-.2-.6-.5z" fill="#fedf00" fill-rule="evenodd" stroke="#fcd900" stroke-width=".5" stroke-miterlimit="3.9"/><path d="M413 402.4c.2 1.5.7 4 2 6.6 1.6 2.3 1 2.3 4.4 6 1.7 2 4.2 3.4 6.2 4.5 2 1 3.6 1.6 7 2.5 6.4 1.7 11 1.8 16.5 1.6 4.3-.2 7.6-.7 10.3-1 4-.6 6.7-1 11-1 2.3-.2 4.3-.2 6.3 0 2.4 0 4.7.4 7.3 1 5.3 1 10.8 3 10.8 3v-85.5h-82v58.6s0 3 .2 3.8z" fill="#fedf00" fill-rule="evenodd" stroke="#703d29" stroke-width=".8" stroke-miterlimit="3.9"/><path d="M422.5 416.8c1.3 1 2.7 1.4 4 2 1.8 1 2.8 1.4 5 2.2v-80.4h-9v76.2zM468.2 421v-80.4H459V422l9.2-1zM486.4 340.6h-9v80.2c3 .3 6 .8 9 1.6v-81.8z" fill="#d52b1e" fill-rule="evenodd" stroke="#d52b1e" stroke-width=".5" stroke-miterlimit="3.9"/><path d="M620.5 275c7.4 0 28.8 5.7 29 31 .2 24.8-15.4 29-21.6 30.6" fill="none" stroke="#703d29" stroke-miterlimit="3.9"/><path d="M622.4 275c12.8-.5 26 9 26.5 32.3.3 18.3-12.6 26.5-18.8 28.2" fill="none" stroke="#703d29" stroke-miterlimit="3.9"/><use transform="translate(23.5)" width="1000" height="700" xlink:href="#m"/><use transform="translate(47)" width="1000" height="700" xlink:href="#m"/><path d="M450 340.6V423c-.2 0-6.2 0-9.2-.2v-82.2h9z" fill="#d52b1e" fill-rule="evenodd" stroke="#d52b1e" stroke-width=".5" stroke-miterlimit="3.9"/></svg>