<svg xmlns="http://www.w3.org/2000/svg" xmlns:xlink="http://www.w3.org/1999/xlink" xmlns:sodipodi="http://inkscape.sourceforge.net/DTD/sodipodi-0.dtd" height="500" sodipodi:docbase="C:\Documents and Settings\David Nelson\Archives\Svg" sodipodi:docname="Flag_of_Belize.svg" sodipodi:version=".3" width="750" version="1"><defs><linearGradient id="b"><stop offset="0" stop-color="#ffef5d"/><stop offset="1" stop-color="#ea5700"/></linearGradient><linearGradient id="a"><stop offset="0" stop-color="#952d1a"/><stop offset="1" stop-color="#520900"/></linearGradient><radialGradient xlink:href="#a" id="f" gradientUnits="userSpaceOnUse" gradientTransform="matrix(.38904 0 0 .25923 215 126.9)" cx="585.9" cy="259.1" fx="585.9" fy="259.1" r="111.7"/><radialGradient xlink:href="#a" id="e" gradientUnits="userSpaceOnUse" gradientTransform="matrix(.38904 0 0 .42656 215 86.5)" cx="590.3" cy="180.3" fx="590.3" fy="180.3" r="25.5"/><radialGradient xlink:href="#b" id="d" gradientUnits="userSpaceOnUse" gradientTransform="matrix(.38904 0 0 .25914 215 127)" cx="221.8" cy="259.2" fx="221.8" fy="259.2" r="111.6"/><radialGradient xlink:href="#b" id="c" gradientUnits="userSpaceOnUse" gradientTransform="matrix(.38904 0 0 .44538 215 83.1)" cx="217.7" cy="180.4" fx="217.7" fy="180.4" r="24.6"/></defs><sodipodi:namedview showgrid="false" snaptogrid="false"/><path font-size="12" fill="#CE1126" fill-rule="evenodd" d="M0 0h750v500H0z"/><path font-size="12" fill="#003F87" fill-rule="evenodd" d="M0 35.7h750v428.6H0z"/><path sodipodi:type="arc" sodipodi:ry="376.3" sodipodi:rx="376.3" sodipodi:cy="606.1" sodipodi:cx="386.3" d="M571.4 250a196.4 196.4 0 1 1-392.8 0 196.4 196.4 0 1 1 392.8 0z" font-size="12" fill="#fff" fill-rule="evenodd"/><g font-size="12"><path transform="matrix(.65614 0 0 .65668 177.1 -104.6)" sodipodi:type="arc" sodipodi:ry="248" sodipodi:rx="248" sodipodi:cy="538.6" sodipodi:cx="301.2" d="M549.2 538.6a248 248 0 1 1-496 0 248 248 0 1 1 496 0z" fill="none" stroke="#552300" stroke-width="6.3"/><g fill-rule="evenodd"><path sodipodi:nodetypes="ccccc" d="M356.8 77.7c14.8-15.8 28 2.4 27.7 11-.3 8.5-15.2 27.4-28.6 12.2 13.8 3.5 18-12 25-12.3-7 .2-10-15.2-24.2-11z" fill="#007f00"/><path sodipodi:nodetypes="ccc" d="M356 101c13.8 3.5 17.3-12 24.3-12-4 4.8-14.8 17.3-24.4 12zM356.8 77.7c14.8-15.8 28 2.4 27.7 11-12-21-15.7-17.7-27.7-11z" fill="#005800"/></g><g fill-rule="evenodd"><path sodipodi:nodetypes="ccccc" d="M203.6 201.5c-7.8-20 14.6-23.8 22.2-19.7 7.5 4 18 25.7-1.7 31 9.5-11-2.7-21.5.3-28-3 6.5-18.2 2.2-20.7 16.7z" fill="#007f00"/><path sodipodi:nodetypes="ccc" d="M224 212.7c9.5-10.8-2.8-20.7.2-27 2.6 5.8 9 20.8 0 27zM203.6 201.5c-7.8-20 14.6-23.8 22.2-19.7-24 1.4-23 6-22.2 19.7z" fill="#005800"/></g><g fill-rule="evenodd"><path sodipodi:nodetypes="ccccc" d="M534 181.7c20 8 7.8 26.8-.4 29.5-8.2 2.8-31.2-4-22-22 1.8 14 18 12.4 20.7 18.8-2.7-6.4 10.7-14.7 1.6-26.3z" fill="#007f00"/><path sodipodi:nodetypes="ccc" d="M511.7 189.2c1.7 14 17.4 11.8 20 18.3-6-2-21.6-7.5-20-18.3zM534 181.7c20 8 7.8 26.8-.4 29.5 15.2-18.6 11-20.8.3-29.5z" fill="#005800"/></g><g fill-rule="evenodd"><path sodipodi:nodetypes="ccccc" d="M272.2 392.6c-21.6-2.2-15-23.7-7.8-28.6 7-5 31.2-4.5 27 15.3-5.4-13.2-20.5-7-24.8-12.6 4.3 5.5-6.3 17 5.6 26z" fill="#007f00"/><path sodipodi:nodetypes="ccc" d="M291.5 379.3c-5.5-13.2-20-6.7-24.4-12 6.6.2 23 1 24.5 12zM272.2 392.6c-21.6-2.2-15-23.7-7.8-28.6-9.6 22-4.7 23 7.8 28.6z" fill="#005800"/></g><g fill-rule="evenodd"><path sodipodi:nodetypes="ccccc" d="M488.3 379c.3 21.5-22 17.4-27.7 11-5.7-6.5-8-30.3 12.2-28.5-12.5 7-4.7 21-9.7 26 5-5 18 4.2 25.3-8.5z" fill="#007f00"/><path sodipodi:nodetypes="ccc" d="M472.8 361.5c-12.5 7-4.4 20.4-9.4 25.4-.4-6.5-1.3-23 9.4-25.5zM488.3 379c.3 21.5-22 17.4-27.7 11 23 6.8 23.6 2 27.7-11z" fill="#005800"/></g><g fill-rule="evenodd"><path sodipodi:nodetypes="ccccc" d="M219.3 160.6c-2-21.4 20.6-19 26.7-13 6.2 6 10.4 29.6-10 29.3 12-8 3-21.5 7.7-26.8-4.6 5.3-18-3-24.4 10.4z" fill="#007f00"/><path sodipodi:nodetypes="ccc" d="M236 177c12-8 2.8-20.8 7.4-26 1 6.2 3 22.5-7.4 26zM219.3 160.6c-2-21.4 20.6-19 26.7-13-23.5-5-23.6-.2-26.7 13z" fill="#005800"/></g><g fill-rule="evenodd"><path sodipodi:nodetypes="ccccc" d="M242.4 361.7c-21.4-3.6-13.3-24.6-6-29 7.5-4.4 31.6-2.4 26 17-4.5-13.4-20-8.4-24-14 4 5.6-7.3 16.5 4 26z" fill="#007f00"/><path sodipodi:nodetypes="ccc" d="M262.5 349.8c-4.6-13.5-19.5-8-23.5-13.8 6.4.7 23 2.8 23.5 13.8zM242.4 361.7c-21.4-3.6-13.3-24.6-6-29-11 21.3-6 22.7 6 29z" fill="#005800"/></g><g fill-rule="evenodd"><path sodipodi:nodetypes="ccccc" d="M410.4 80.5c19.4-9.5 25.3 12.2 22 20-3.5 8-24 20.3-31.3 1.4 12 8.2 21.4-5 28-2.6-6.6-2.3-3.8-17.7-18.6-19z" fill="#007f00"/><path sodipodi:nodetypes="ccc" d="M401 102c12 8.2 20.7-5 27.3-2.6-5.6 3-20 11-27.2 2.5zM410.4 80.5c19.4-9.5 25.3 12.2 22 20-3.8-23.6-8.5-22-22-20z" fill="#005800"/></g><g fill-rule="evenodd"><path sodipodi:nodetypes="ccccc" d="M452.7 406c-9.6 19.2-27.6 5.4-29.7-3-2-8.2 6.8-30.5 24-19.7-14.4.5-14 16.6-20.6 18.7 6.7-2 13.8 12 26.3 4z" fill="#007f00"/><path sodipodi:nodetypes="ccc" d="M447 383.3c-14.4.5-13.3 16.3-20 18.4 2.5-6 9.2-21 20-18.4zM452.7 406c-9.6 19.2-27.6 5.4-29.7-3 17.4 16.7 20 12.6 29.7 3z" fill="#005800"/></g><g fill-rule="evenodd"><path sodipodi:nodetypes="ccccc" d="M547 219.8c16.3 14.2-1.7 28-10.4 27.8-8.6-.2-28-14.4-13-28-3.3 13.8 12.5 17.5 13 24.5-.5-7 15-10.2 10.4-24.2z" fill="#007f00"/><path sodipodi:nodetypes="ccc" d="M523.5 219.5c-3.2 14 12.4 17 12.8 24-5-4-18-14.3-12.8-24zM547 219.8c16.3 14.2-1.7 28-10.4 27.8 20.7-12.5 17.4-16 10.4-27.8z" fill="#005800"/></g><g fill-rule="evenodd"><path sodipodi:nodetypes="ccccc" d="M273 106.4c5-21 25.6-11.6 29.6-4 4 7.5.5 31.2-18.8 24.7 14-3.7 9.7-19.2 15.8-23-6 3.8-16.3-8.2-26.6 2.4z" fill="#007f00"/><path sodipodi:nodetypes="ccc" d="M283.8 127c14-3.7 9.2-18.8 15.3-22.4-1 6.3-4 22.5-15.2 22.5zM273 106.4c5-21 25.6-11.6 29.6-4-20.8-12.2-22.5-7.6-29.6 4z" fill="#005800"/></g><g fill-rule="evenodd"><path sodipodi:nodetypes="ccccc" d="M209 286c-19-10.2-4.5-27.5 4-29.2 8.4-1.7 30.5 8 19 24.7 0-14.3-16.2-14.6-18-21.3 1.8 6.7-12.6 13.2-5 26z" fill="#007f00"/><path sodipodi:nodetypes="ccc" d="M232 281.5c0-14.3-16-14-17.7-20.7 5.8 2.8 20.6 10 17.6 20.7zM209 286c-19-10.2-4.5-27.5 4-29.2-17.5 16.6-13.5 19.4-4 29.3z" fill="#005800"/></g><g fill-rule="evenodd"><path sodipodi:nodetypes="ccccc" d="M483.4 120c21.5-3.2 20.3 19.3 14.6 25.7-5.7 6.5-29.2 11.8-30-8.4 8.5 11.5 21.6 2 27.2 6.3-5.6-4.3 2-18-11.8-23.7z" fill="#007f00"/><path sodipodi:nodetypes="ccc" d="M468 137.3c8.5 11.5 21 1.7 26.6 6-6.3 1.3-22.6 4.3-26.6-6zM483.4 120c21.5-3.2 20.3 19.3 14.6 25.7 4-23.6-1-23.5-14.6-25.8z" fill="#005800"/></g><g fill-rule="evenodd"><path sodipodi:nodetypes="ccccc" d="M361.4 426.5c-19.8 8.8-24.8-13.2-21-21 3.6-7.6 24.7-19.2 31 0-11.3-8.7-21.3 4-28 1.4 6.7 2.5 3.2 17.8 18 19.5z" fill="#007f00"/><path sodipodi:nodetypes="ccc" d="M371.5 405.5c-11.4-8.7-20.7 4-27.3 1.5 5.8-3 20.6-10.2 27.3-1.5zM361.4 426.5c-19.8 8.8-24.8-13.2-21-21 2.6 24 7.3 22.4 21 21z" fill="#005800"/></g><g fill-rule="evenodd"><path sodipodi:nodetypes="ccccc" d="M539 306.5c9 19.6-13.2 24.7-21 21-7.8-3.6-19.5-24.5-.2-31-8.7 11.4 4 21.3 1.5 27.8 2.6-6.5 18-3.2 19.7-17.8z" fill="#007f00"/><path sodipodi:nodetypes="ccc" d="M517.8 296.6c-8.7 11.3 4.2 20.5 1.6 27-3-5.7-10.4-20.3-1.6-27zM539 306.5c9 19.6-13.2 24.7-21 21 24-2.8 22.5-7.5 21-21z" fill="#005800"/></g><g fill-rule="evenodd"><path sodipodi:nodetypes="ccccc" d="M200.3 243.3c-12.4-17.6 8.4-26.6 16.7-24.5 8.3 2.2 23.8 20.6 6 30.4 6.4-12.7-8-20-6.7-27-1.3 7-17 6.4-16 21z" fill="#007f00"/><path sodipodi:nodetypes="ccc" d="M223 249.2c6.4-12.7-8-19.4-6.6-26.3 4 5 14 18 6.6 26.2zM200.3 243.3c-12.4-17.6 8.4-26.6 16.7-24.5-23 7.2-20.7 11.5-16.7 24.5z" fill="#005800"/></g><g fill-rule="evenodd"><path sodipodi:nodetypes="ccccc" d="M318 411.8c-20.4 7.5-24-14.8-19.7-22.3 4.2-7.4 26-17.5 31 2-10.6-9.4-21.5 2.6-27.8-.4 6.3 3 1.8 18 16.4 20.8z" fill="#007f00"/><path sodipodi:nodetypes="ccc" d="M329.4 391.6c-10.7-9.5-21 2.6-27.2-.4 6-2.5 21.2-8.8 27.2.4zM318 411.8c-20.4 7.5-24-14.8-19.7-22.3 1 24 6 22.8 19.6 22.3z" fill="#005800"/></g><g fill-rule="evenodd"><path sodipodi:nodetypes="ccccc" d="M311.4 86.4c12-18 28-2 29 6.5 1 8.4-10.6 29.4-26.3 16.5 14.4 1.3 16-14.7 23-16-7 1.3-12.2-13.5-25.6-7z" fill="#007f00"/><path sodipodi:nodetypes="ccc" d="M314 109.5c14.4 1.3 15.4-14.4 22.4-15.7-3.3 5.5-12 19.5-22.3 15.7zM311.4 86.4c12-18 28-2 29 6.5-15-18.8-18.2-15-29-6.6z" fill="#005800"/></g><g fill-rule="evenodd"><path sodipodi:nodetypes="ccccc" d="M520 349c1.2 21.5-21.3 18.4-27.3 12.2-6-6-9.4-29.8 11-29-12.3 7.6-3.8 21.3-8.6 26.5 5-5.2 18 3.4 25-9.7z" fill="#007f00"/><path sodipodi:nodetypes="ccc" d="M503.7 332.3c-12.3 7.5-3.5 20.6-8.2 25.8-.8-6.3-2.4-22.6 8.2-25.7zM520 349c1.2 21.5-21.3 18.4-27.3 12.2 23.5 6 23.7 1 27.2-12.2z" fill="#005800"/></g><g fill-rule="evenodd"><path sodipodi:nodetypes="ccccc" d="M512.7 147.2c21.3 4.2 12.5 25 5 29-7.6 4.3-31.6 1.5-25.5-17.8 4.2 13.7 19.8 9 23.6 15-3.8-6 8-16.4-3-26.2z" fill="#007f00"/><path sodipodi:nodetypes="ccc" d="M492.2 158.4c4.2 13.7 19.2 8.6 23 14.5-6.3-1-22.7-3.6-23-14.6zM512.7 147.2c21.3 4.2 12.5 25 5 29 11.7-20.8 7-22.3-5-29z" fill="#005800"/></g><g fill-rule="evenodd"><path sodipodi:nodetypes="ccccc" d="M245.2 131.3c.2-21.5 22.4-16.8 28-10.3 5.5 6.6 7.2 30.5-13 28.2 12.7-6.7 5.3-21 10.4-25.8-5 4.8-17.7-4.6-25.4 8z" fill="#007f00"/><path sodipodi:nodetypes="ccc" d="M260.2 149.2c12.7-6.7 5-20.4 10-25.2.3 6.4.8 22.8-10 25.2zM245.2 131.3c.2-21.5 22.4-16.8 28-10.3-23-7.4-23.6-2.6-28 10.3z" fill="#005800"/></g><g fill-rule="evenodd"><path sodipodi:nodetypes="ccccc" d="M219.6 325c-19.3-9.7-5.3-27.4 3-29.5 8.5-2 30.8 7 19.8 24-.4-14.2-16.6-14-18.7-20.6 2 6.6-12 13.5-4 26z" fill="#007f00"/><path sodipodi:nodetypes="ccc" d="M242.4 319.5c-.4-14.2-16.2-13.3-18.3-20 6 2.6 21 9.4 18.4 20zM219.6 325c-19.3-9.7-5.3-27.4 3-29.5-16.8 17.2-12.7 20-3 29.5z" fill="#005800"/></g><g fill-rule="evenodd"><path sodipodi:nodetypes="ccccc" d="M450.6 96.2c20.3-7.6 24 14.6 19.8 22-4 7.6-26 18-31-1.6 10.8 9.3 21.5-2.7 28 .2-6.5-3-2-18-16.8-20.6z" fill="#007f00"/><path sodipodi:nodetypes="ccc" d="M439.3 116.6c11 9.3 21-3 27.3 0-6 2.7-21 9-27.3 0zM450.6 96.2c20.3-7.6 24 14.6 19.8 22-1.3-23.8-6-22.6-19.8-22z" fill="#005800"/></g><g fill-rule="evenodd"><path sodipodi:nodetypes="ccccc" d="M403.3 421.8c-17.5 12.8-27-7.6-25.2-16 2-8.3 20.2-24 30.6-6.7-13-6-20 8.6-27 7.5 7 1 7 16.8 21.7 15.3z" fill="#007f00"/><path sodipodi:nodetypes="ccc" d="M408.6 399c-13-6-19.4 8.5-26.3 7.4 5-4 17.8-14.4 26.3-7.3zM403.3 421.8c-17.5 12.8-27-7.6-25.2-16 8 22.8 12.2 20.3 25.3 16z" fill="#005800"/></g><g fill-rule="evenodd"><path sodipodi:nodetypes="ccccc" d="M545.8 259.5c14.8 15.8-4.5 27.6-13 26.6-8.6-.8-26.5-17-10.3-29-4.6 13.4 10.8 18.7 10.4 25.6.3-7 16-8.7 12.8-23z" fill="#007f00"/><path sodipodi:nodetypes="ccc" d="M522.5 257c-4.6 13.4 10.6 18 10.3 25-4.6-4.5-16.4-16-10.3-25zM545.8 259.5c14.8 15.8-4.5 27.6-13 26.6 21.8-10.2 18.8-14 13-26.5z" fill="#005800"/></g></g><path d="M-103.5 869"/><path d="M268.4 317.4c1.5.7 0-5 .5-7 .5-2.3 5 5.4 7 6.4 2.2 1 16-5.4 16-5.4l3-6 1.8 5 5-6c1-1.7 0 3.2-1.2 4.8-1 1.6 3.3 2.2 2.8 5.5-.6 3.2 4.3-2.2 4.3-2.2l12.6 1s2.2-7.6 5.5-12l1 5 5.2-5.3c5.8 15.2 18 31.8 43 41 23.6-8.7 35.7-23.8 42-38.3l7 7s5.5-1.5 6.5-2c1-.6 13 4 13 4l3.2 1.7c1 .8.3-3.6.3-3.6s6 1.2 5.5 4.5c0 0 1.3-3 2.4-3.6 1-.6 3.7 2.7 4.3 3.8.5 1 13.4 2.7 15.3 3.8 0 0 1.4 1.6 1.4 2.7 0 0 2.8-.3 5-.3 0 0-1.7.8-1.7 2.6 0 1.6-1 3-2.5 3.7-1.6.8 0 1.4 2.2 1.7 2.2.3 0 3-4.4 4.6 0 0-1 2.5.8 3.3 0 0-3.8.2-4.4-1 0 0-1.3 2.6-1.3 4 0 0-4-1.4-5.2-2 0 0-1.6 1.6-.5 2.4 0 0-7.4-.8-9-3.5 0 0-2.5.7-2 1.6 0 0-5.2-3.5-6.8-3.5l-1 2s-3.7-2.3-4.8-2.3c-1 0-.2 1.7-.2 1.7l-5-3-2 3s-4-2-5-2.8c-1-.8-1.4 1.7-2.2 2 0 0-1.7-2.3-4-2 0 0-.7 2.8-.4 3.6l-7.4-1.6c-1.2-.3-.6 1.3 0 2.4 0 0-4.7-1.3-5.7-2l-.3 2s-4-.3-4.7-1L401 341h-3.5l-.8 3s-7-2-7.5-.8c-.5 1 .3 2.7.3 2.7s-5.5 0-6-.7l-.5 2.5s-7-2.2-8.5-1.2c0 0-2.2 2.3-3.6 2.8-1.4.6 0-.8 0-.8l-2.2-3s-2.5 1.3-4 .8c-1.2-.6-5.6 2.2-7 1.4 0 0 0-2-1-2.5s-3-.5-4 .8l-2-3c-1.4-2.4-3.4 0-3.4 0l-.3-2.6s-1.5 0-3.7-.3c-2.2-.2-2.7-2-2.7-2s-5.8.5-6.6.2l1.4-1.3s-8 1.5-9.6 1c-1.7-.6 2-3 2-3l-9-2c-1.2-.3-9 1.3-10.2 1.3-1.2 0-1.7-1.8-1.7-1.8s-2 1.6-3.6 2c0 0-1.4-3-.5-3.4 0 0-5.3 1.5-5.6 2.8 0 0-1.4-2-1.2-3 0 0-2.4 3.8-3.5 4.6-1 1-.2-2-.2-2s-3 4-4.2 4.3V335s-8.7 4.6-11.2 4c0 0 0-2 1-2.4 0 0-4 0-5.6-.3-1.3-.2-3-1-4.3-1.2-1.3 0 2-1.5 4.2-1 0 0-6-2-8-1 0 0-.7-2.2 2.5-3 0 0-4-4-6.6-3.8 0 0 3-1.6 5-.8 0 0-2.4-7-4-7.8 0 0 5.7-1 7.4-.2" fill="#289400"/><path d="M268.4 317.4c1.5.7 0-5 .5-7 .5-2.3 4.8 5.4 7 6.4s16-5.4 16-5.4l3-6 1.8 5 5-6c1-1.7 0 3.2-1.2 4.8-1 1.6 3.3 2.2 2.8 5.5-.6 3.2 4.3-2.2 4.3-2.2l12.6 1s2.2-7.6 5.5-12l1 5 5.2-5.3c5.8 15.2 18 31.8 43 41 23.6-8.7 35.7-23.8 42-38.3l7 7s5.5-1.5 6.5-2c1-.6 13 4 13 4l3.2 1.7c1 .8.3-3.6.3-3.6s6 1.3 5.5 4.5c0 0 1.3-3 2.4-3.6 1-.6 3.7 2.7 4.3 3.8.5 1 13.4 2.7 15.3 3.8 0 0 1.4 1.6 1.4 2.7 0 0 2.7-.3 5-.3 0 0-1.7.8-1.7 2.6 0 1.6-1 3-2.5 3.7-1.6.8 0 1.5 2 1.7 2.4.3 0 3-4.2 4.6 0 0-1 2.5.8 3.3 0 0-3.8.2-4.4-1 0 0-1.3 2.6-1.3 4 0 0-4-1.4-5.2-2 0 0-1.6 1.6-.5 2.5 0 0-7.4-1-9-3.6 0 0-2.5.7-2 1.6 0 0-5.2-3.5-6.8-3.5l-1 2s-3.7-2.2-4.8-2.2c-1 0-.2 1.6-.2 1.6l-5-3-2 3s-4-2-5-2.8c-1-.8-1.4 1.7-2.2 2 0 0-1.7-2.3-4-2 0 0-.7 2.8-.4 3.6l-7.4-1.6c-1.2-.3-.6 1.3 0 2.4 0 0-4.7-1.3-5.7-2l-.4 2s-3.7-.3-4.5-1l-2.5 3.3h-3.5l-.8 3s-7-2-7.5-1c-.5 1.2.3 2.8.3 2.8s-5.5 0-6-.7l-.5 2.5s-7-2.2-8.5-1.2c0 0-2.2 2.3-3.6 2.8-1.4.6 0-.8 0-.8l-2.2-3s-2.5 1.4-4 .8c-1.2-.6-5.6 2.2-7 1.4 0 0 0-2-1-2.5s-3-.5-4 .8l-2-3c-1.5-2.4-3.4 0-3.4 0l-.3-2.6s-1.5 0-3.7-.3c-2.2-.2-2.7-2-2.7-2s-5.8.5-6.6.2l1.4-1.3s-8 1.5-9.6 1c-1.7-.6 2-3 2-3l-9-2c-1.2-.3-9 1.3-10.3 1.3-1 0-1.6-1.8-1.6-1.8s-2 1.6-3.6 2c0 0-1.4-3-.5-3.4 0 0-5.3 1.5-5.6 2.8 0 0-1.4-2-1.2-3 0 0-2.4 3.8-3.5 4.7-1 .8-.2-2-.2-2s-3 4-4.2 4.2V335s-8.7 4.6-11.2 4c0 0 0-2 1-2.4 0 0-4 0-5.6-.3-1.3-.2-3-.8-4.3-1.2-1.3 0 2-1.5 4.2-1 0 0-6-2-8-1 0 0-.7-2.2 2.5-3 0 0-4-4-6.6-3.8 0 0 3-1.6 5-.8 0 0-2.4-7-4-7.8 0 0 5.7-1 7.4-.2z" fill="none" stroke="#060" stroke-width=".50397"/><path d="M337.2 312c-2.6-4.5-4.6-9-6.2-13.6l44-38.8 44 38.7c-1.4 4.5-3.4 9.3-6.3 13.8l-.2.4-3.4-1s-1.4 1.4-2.5 1.5c-1.5 0-2.8-1.5-2.8-1.5s-2 1.7-4 1.4c-1.8-.3-2.6-1.6-2.6-1.6s-2 1.7-3.4 1.4c-1.3-.4-2.2-1.3-2.2-1.3s-1.3 1.6-3 1.3c-1.6-.4-3-1.3-3-1.3s-2.7 1.2-4.3 1.4c-1.5.2-3-1.6-3-1.6s-2 1.5-3 1.5c-.7 0-3.8-1.6-3.8-1.6s-3 1-4.3 1c-1 0-4.2-1.3-4.2-1.3s-3 1-4.3 1c-1.4 0-3.5-1-3.5-1s-2.4 1.2-3.7 1c-1.4-.4-2.6-1-2.6-1s-2.6 1.2-4.3 1c-1.7-.4-3.6-1.5-3.6-1.5s-.3.8-3.5 1.4" fill="#9dd7ff"/><path d="M384.8 289.8s8.8 5 0 14.5" fill="none" stroke="#000" stroke-width=".50397"/><path d="M344.7 302.7s2.4 1.3 9 3.6c5.6 2 12 3 21.6 3 19.2 0 19-3.4 19-3.4l-7 7s-28.5 0-32.3-2c-2-1-6-4.3-10.3-8.3" fill="#730000"/><path d="M344.7 302.7s2.4 1.3 9 3.6c5.6 2 12 3 21.6 3 19.2 0 19-3.4 19-3.4l-7 7s-28.5 0-32.3-2c-2-1-6-4.2-10.3-8.3z" fill="none" stroke="#000" stroke-width=".50397"/><path d="M345.5 303.2l12.6-12-1.3 16M363.3 308.7v-27M384.8 308.7v-28.5M374 309.2v-30.6" fill="none" stroke="#000" stroke-width=".50397"/><path d="M363.3 283.2l-5.7 2 5.7.5v-2.5" fill="#ff0018"/><path d="M363.3 283.2l-5.7 2 5.7.5v-2.5" fill="none" stroke="#000" stroke-width=".50397"/><path d="M374 279l-6 2.3 6 .2V279" fill="#ff0018"/><path d="M374 279l-6 2.3 6 .2V279" fill="none" stroke="#000" stroke-width=".50397"/><path d="M384.8 280.7l-6 2.2 6 .2v-2.5" fill="#ff0018"/><path d="M384.8 280.7l-6 2.2 6 .2v-2.5z" fill="none" stroke="#000" stroke-width=".50397"/><path d="M347.4 301.6l10.7-10.4-.4 6.2s-5.5 3.6-5.5 6l-4.6-1.8" fill="#fff"/><path d="M347.4 301.6l10.7-10.4-.4 6.2s-5.5 3.5-5.5 6l-4.6-1.8" fill="none" stroke="#000" stroke-width=".50397"/><path d="M353 303.7s1.2-3.3 4.3-5l-.3 6.6-4-1.6" fill="#fff"/><path d="M353 303.7s1.2-3.3 4.3-5l-.3 6.6-4-1.6z" fill="none" stroke="#000" stroke-width=".50397"/><path d="M368.5 285.7s4.3-.6 7.6 0c0 0-.4 4.4 0 5.2 0 0-6-1.5-8.3.7 0 0-1-4 .8-6" fill="#fff"/><path d="M368.5 285.7s4.3-.6 7.6 0c0 0-.4 4.4 0 5.2 0 0-6-1.5-8.3.7 0 0-1-4 .8-6z" fill="none" stroke="#000" stroke-width=".50397"/><path d="M359.2 286.8s4.4-.6 7.6 0c0 0-.8 5-.3 5.7 0 0-4.8-2.7-7.3-.5 0 0-1.6-3.4 0-5.2" fill="#fff"/><path d="M359.2 286.8s4.4-.6 7.6 0c0 0-.8 5-.3 5.7 0 0-4.8-2.7-7.3-.5 0 0-1.6-3.4 0-5.2z" fill="none" stroke="#000" stroke-width=".50397"/><path d="M359 292.5s4.3-.5 7.5 0c0 0-.5 4.4 0 5.2 0 0-5.7-1.3-8 .8 0 0-1.2-4 .4-6" fill="#fff"/><path d="M359 292.5s4.3-.5 7.5 0c0 0-.5 4.4 0 5.2 0 0-5.7-1.3-8 .8 0 0-1.2-4 .4-6z" fill="none" stroke="#000" stroke-width=".50397"/><path d="M367.7 291.7s6.3-.8 9.5-.3c0 0-1.3 3.5.3 6 0 0-6.8-1.8-9.3.3 0 0-2.2-4-.5-6" fill="#fff"/><path d="M367.7 291.7s6.3-.8 9.5-.3c0 0-1.3 3.5.3 6 0 0-6.8-1.8-9.3.3 0 0-2.2-4-.5-6z" fill="none" stroke="#000" stroke-width=".50397"/><path d="M358.4 298.5s5.2 0 8.4.6c0 0-.8 6.3-.3 7 0 0-6.8-1.5-8 .8 0 0-2.3-5.7 0-8.3" fill="#fff"/><path d="M358.4 298.5s5.2 0 8.4.6c0 0-.8 6.3-.3 7 0 0-6.8-1.5-8 .8 0 0-2.3-5.7 0-8.3z" fill="none" stroke="#000" stroke-width=".50397"/><path d="M368 298.5s7.3-.5 10.6 0c0 0-2 4.7.2 8.8 0 0-9.5-2.8-10.8-.5 0 0-2.3-5.7 0-8.3" fill="#fff"/><path d="M368 298.5s7.3-.5 10.6 0c0 0-2 4.7.2 8.8 0 0-9.5-2.8-10.8-.5 0 0-2.3-5.7 0-8.3z" fill="none" stroke="#000" stroke-width=".50397"/><path d="M379.2 285.7s4.3-.6 7.6 0c0 0-.5 4.4 0 5.2 0 0-6-1.5-8.5.7 0 0-.8-4 1-6" fill="#fff"/><path d="M379.2 285.7s4.3-.6 7.6 0c0 0-.5 4.4 0 5.2 0 0-6-1.5-8.5.7 0 0-.8-4 1-6z" fill="none" stroke="#000" stroke-width=".50397"/><path d="M379.2 291.7s4.3-.5 7.6 0c0 0-.5 4.4 0 5.2 0 0-6-1.4-8.5.7 0 0-.8-4 1-6" fill="#fff"/><path d="M379.2 291.7s4.3-.5 7.6 0c0 0-.5 4.4 0 5.2 0 0-6-1.4-8.5.7 0 0-.8-4 1-6z" fill="none" stroke="#000" stroke-width=".50397"/><path d="M379.7 298s4.3-.6 7.7 0c0 0-1 6.8-.6 7.6 0 0-5-2.3-7.3-.3 0 0-1.5-5.4.2-7.3" fill="#fff"/><path d="M379.7 298s4.3-.6 7.7 0c0 0-1 6.8-.6 7.6 0 0-5-2.3-7.3-.3 0 0-1.5-5.4.2-7.3z" fill="none" stroke="#000" stroke-width=".50397"/><path d="M388.4 293.6c-.3-1.2 3.6-1 3.6-1s1 4 0 6.5l-3.3-.5s.3-2.7-.3-5" fill="#ff0018"/><path d="M388.4 293.6c-.3-1.2 3.6-1 3.6-1s1 4 0 6.5l-3.3-.5s.3-2.7-.3-5z" fill="none" stroke="#000" stroke-width=".50397"/><path d="M388.7 298.5s1.4 5.2 3.3 5.8l-2.5 3s-3-2.2-3.2-4.6c0 0 2-2.3 2.4-4.2" fill="#fff"/><path d="M388.7 298.5s1.4 5.2 3.3 5.8l-2.5 3s-3-2.2-3.2-4.6c0 0 2-2.3 2.4-4.2z" fill="none" stroke="#000" stroke-width=".50397"/><path d="M412.5 312.6c-7 11.7-18.5 22.6-37.4 29.5-19-7-30.8-18.4-37.8-30 3.3-.7 3.6-1.5 3.6-1.5s2 1 3.6 1.4c1.7.2 4.3-1 4.3-1s1 .6 2.6 1c1.3.2 3.7-1 3.7-1s2 1 3.5 1c1.3 0 4.3-1 4.3-1s3 1.4 4 1.4c1.3 0 4.4-1 4.4-1s3 1.5 4 1.5c.7 0 2.8-1.6 2.8-1.6s1.5 1.8 3 1.5c1.7-.3 4.3-1.5 4.3-1.5s1.5 1 3 1.3c1.8.3 3-1.3 3-1.3s1 1 2.3 1.3c1.4.3 3.5-1.4 3.5-1.4s1 1.3 2.8 1.5c2 .2 4-1.5 4-1.5s1.2 1.6 2.7 1.4c1-.2 2.6-1.6 2.6-1.6l3.5 1.2" fill="#006ac8"/><path d="M410.8 315.2c-1.5 0-1.7-1-1.7-1s-2 1.8-4 1.5c-2-.3-3-1.6-3-1.6s-2 1.8-3.4 1.5c-1.4-.2-2.5-1.2-2.5-1.2s-1.2 1.5-3 1.2c-1.6-.2-3.2-1.2-3.2-1.2s-2.7 1-4.4 1.4c-1.8.3-3.2-1.6-3.2-1.6s-4 1.4-4.8 1.4c-1 0-3.7-1.3-3.7-1.3s-2 1.3-3 1.3c-1.3 0-4.6-1.4-4.6-1.4s-3 .7-4.3.7c-1.5 0-3.6-.8-3.6-.8s-2.5 1-4 .7c-1.4-.3-2.5-.8-2.5-.8s-3 1-4.6.7c-1.8-.3-4-1.4-4-1.4s-.2.7-3.5 1.4" fill="none" stroke="#000" stroke-width=".50397"/><path d="M375 215v44.6l-44 39c-4.2-12.4-4.5-23.5-4.5-28.3V215H375" fill="#fff"/><path d="M375 215v44.6l-44 39c-4.2-12.4-4.6-23.5-4.6-28.3V215H375" fill="none" stroke="#000" stroke-width=".705558"/><path d="M375 215v44.6l44 39c4.3-12.4 4.6-23.5 4.6-28.3V215H375" fill="#ffd83c"/><path d="M375 215v44.6l44 39c4.3-12.4 4.6-23.5 4.6-28.3V215H375" fill="none" stroke="#000" stroke-width=".705558"/><path d="M330 227.3l27.7 30c1.3 1 2.5 4 2.5 6.7 0 1 3 2.5 3.3 2.7 1.2.5 1.5-2 1.4-2.2-.4-.8-1-1.5-1-1.5.4-.3 1.2 1 2.4 1.4 1 .5 2-1 1.5-2.3-.5-1.3-1.2-1.7-2.4-2.4 0 0-3-1-3.6-1.7-1-1.8-3.5-4.8-4.2-5.6l-21-31c-1.7-2-4.7-2.6-6.6-1-1.2.8-2 5-.2 7" fill="#b34b00"/><path d="M330 227.3l27.7 30c1.3 1 2.5 4 2.5 6.7 0 1 3 2.5 3.3 2.7 1.2.5 1.5-2 1.4-2.2-.4-.8-1-1.5-1-1.5.4-.3 1.2 1 2.4 1.4 1 .5 2-1 1.5-2.3-.5-1.3-1.2-1.7-2.4-2.4 0 0-3-1-3.6-1.7-1-1.8-3.5-4.8-4.2-5.6l-21-31c-1.7-2-4.7-2.6-6.6-1-1.2.8-2 5-.2 7zM331.2 222.2l27.4 34.2" fill="none" stroke="#000" stroke-width=".50397"/><path d="M331.2 265l27.2-32s1.3 1.8 3.6 3l-26.6 32.2s-2.4.2-4.2-3" fill="#730000"/><path d="M331.2 265l27.2-32s1.3 1.8 3.6 3l-26.6 32.2s-2.4.2-4.2-3z" fill="none" stroke="#000" stroke-width=".50397"/><path d="M355.6 229s-.3-4.4 5.2-6c0 0 8 2.8 10 8.8 0 0-2 6-6 5.8 0 0-5-1.2-9.2-8.6" fill="#fff"/><path d="M355.6 229s-.3-4.4 5.2-6c0 0 8 2.8 10 8.8 0 0-2 6-6 5.8 0 0-5-1.2-9.2-8.6z" fill="none" stroke="#000" stroke-width=".50397"/><path d="M357.3 228.5s1.6 3.8 6.5 6.8c0 0-.8-5 5.2-3.5" fill="none" stroke="#7e4b7e" stroke-width="1.411116"/><path d="M421.3 266c-1 .7-2.8 1-2.8 1-1.7-2-4-5-6.5-7.7l-26.5-32.6 2.7-2.7 24 28c.6.7 5.7 6 9.7 11.2 0 0 .5 1.8-.7 2.7" fill="#730000"/><path d="M421.3 266c-1 .7-2.8 1-2.8 1-1.7-2-4-5-6.5-7.7l-26.5-32.6 2.7-2.7 24 28c.6.7 5.7 6 9.7 11.2 0 0 .5 1.8-.7 2.7z" fill="none" stroke="#000" stroke-width=".50397"/><path d="M394.5 230.8l-4.3-5s-3.2.4-3.8 2c0 0-2.4 4-8.6 4.4 0 0 1.8 7.2 9 11 0 0 2.6-7.4 5.2-8.7 0 0 2.6-2 2.5-3.7" fill="#fff"/><path d="M394.5 230.8l-4.3-5s-3.2.4-3.8 2c0 0-2.4 4-8.6 4.4 0 0 1.8 7.2 9 11 0 0 2.6-7.4 5.2-8.7 0 0 2.6-2 2.5-3.7z" fill="none" stroke="#000" stroke-width=".50397"/><path d="M387 228.8c1 1 4.3 5.2 4.3 5.2M388.4 231c-.2.7-.6 2.4-1.5 3.3M389 231.5c-.2.4-.2 1.7-1.6 3M389.4 232c-.2.8-.3 1.3-.8 1.8M389.7 232.7c0 .5-.3.6-.4 1M386 230.7c-.4.4-3.4 2.4-5 3M385.2 232c-.5.3-2.3 1.7-3.3 2M384.8 233c-.6.5-1.6 1.5-2.4 1.8M384.2 234.3c-.4.5-1 1-1.5 1.2" fill="none" stroke="#7e4b7e" stroke-width=".9071460000000001"/><path d="M383.2 254l30-30 7.6 8s-1.6-.5-2.2 0c-.5.3.6 1.8.6 1.8s-1.4-.5-2 0c-.7.3 0 2 0 2s-1.2-1-1.8-.5c-.5.4 0 2.4 0 2.4s-1.7-.6-2 0c-.5.3 0 2 0 2s-1.7-.8-2.5 0c-1 .8.3 2 .3 2s-2-1-2.8.3c-1 1.3 0 2.4 0 2.4s-1.6-.8-2-.4c-.4.4 0 2.3 0 2.3s-1.4-.8-2.3.2c-1 1 0 2 0 2s-1.2-.8-2-.4c-.7.5.2 2.5.2 2.5s-1.3-1-2.2 0c-1 1 0 2 0 2s-1-1-2.2 0c-1 1 0 2.2 0 2.2s-1.7-.8-2.3 0c-.7 1 .2 2 .2 2s-1.3-.7-2-.3c-1 .4 0 2.2 0 2.2s-1.3-1.3-1.8-.6c-.6.7 0 2.4 0 2.4s-1-1.3-1.7-.6c-.7.6.5 2.2.5 2.2s-2-1-1.6-1l-6.2-7" fill="#fff"/><path d="M383.2 254l30-30 7.6 8s-1.6-.5-2.2 0c-.5.3.6 1.8.6 1.8s-1.4-.5-2 0c-.7.3 0 2 0 2s-1.2-1-1.8-.5c-.5.4 0 2.4 0 2.4s-1.7-.5-2 0c-.5.3 0 2 0 2s-1.7-.8-2.5 0c-1 .8.3 2 .3 2s-2-1-2.8.3c-1 1.3 0 2.4 0 2.4s-1.6-.8-2-.4c-.4.4 0 2.3 0 2.3s-1.4-.8-2.3.2c-1 1 0 2 0 2s-1.2-.8-2-.4c-.7.5.2 2.5.2 2.5s-1.3-1-2.2 0c-1 1 0 2 0 2s-1-1-2.2 0c-1 1 0 2.2 0 2.2s-1.7-.8-2.3 0c-.7 1 .2 2 .2 2s-1.3-.7-2-.3c-1 .4 0 2.2 0 2.2s-1.3-1.3-1.8-.6c-.6.7 0 2.4 0 2.4s-1-1.3-1.7-.6c-.7.6.5 2.2.5 2.2s-2-1-1.6-1l-6.2-7z" fill="none" stroke="#000" stroke-width=".50397"/><path d="M411.6 226.6l-2.3 2.3.5 8s.5-2.4 1.2-.8c0 0 .2-2 .7-1.6-.4-.2 0-8 0-8M407.2 231l-1.7 1.6.6 8s.6-3 1.3-.6v-2.7-6.4M389 249l-1.6 1.7.4 5s.5-3.3 1.2-.8l-.2-3 .2-3" fill="#7e4b7e"/><path d="M383.8 253.4c-.6-.2-1.2 0-2 .5-1 .5-2 .2-1.8-.8 0-1 0-.8 1-1.5 1.7-1 3.8-1 5.2-.5l-2.4 2.2" fill="#730000"/><path d="M383.8 253.4c-.6-.2-1.2 0-2 .5-1 .5-2 .2-1.8-.8 0-1 0-.8 1-1.5 1.7-1 3.8-1 5.2-.5l-2.4 2.2" fill="none" stroke="#000" stroke-width=".50397"/><path d="M412.8 224.5c-.2-.7-.4-1.4.3-2.3.8-.8.8-2.2-1-1.5-1.6.7-2.2 2.6-.8 5.6l1.6-1.8" fill="#730000"/><path d="M412.8 224.5c-.2-.7-.4-1.4.3-2.3.8-.8.8-2.2-1-1.5-1.6.7-2.2 2.6-.8 5.6l1.6-1.8z" fill="none" stroke="#000" stroke-width=".50397"/><path d="M492.3 195c.5 0 2-2 .5-3 0 0-.5-2-2-2.2 0 0-1.5-2-3.4-1.6 0 0-2-1.5-3-1.4-1 .2-3 2.2-3 3 0 .5 0 1.8.5 2.4.5.5 1 0 1-1 0 0-.4 1.5.8 2.2 1.3.7 1.2 0 1.3-.7 0 0 .4 1.6 1.2 2 .8.2 1.3-.5 2-.5 0 0-1 .8-.4 1.3.7.6 1.5.3 2 0 .7-.5.3-1.8 2.5-.6" fill="#730000"/><path d="M492.3 195c.5 0 2-2 .5-3 0 0-.5-2-2-2.2 0 0-1.5-2-3.4-1.6 0 0-2-1.5-3-1.4-1 .2-3 2.2-3 3 0 .5 0 1.8.5 2.4.5.5 1 0 1-1 0 0-.4 1.5.8 2.2 1.3.7 1.2 0 1.3-.7 0 0 .4 1.6 1.2 2 .8.2 1.3-.5 2-.5 0 0-1 .8-.4 1.3.7.6 1.5.3 2 0 .7-.5.3-1.8 2.5-.6zM483 191.2c.6-1.8 2.4-3.2 4.2-3" fill="none" stroke="#000" stroke-width=".50397"/><path d="M485 192.7l.7-1.2c1-1.6 3-1.6 4.5-2M487.7 194c.6-.3.8-1 1.4-1.3 1-.5 2.3-1 3.4-.7" fill="none" stroke="#000" stroke-width=".50397"/><path d="M406 126.8s.5-1.5 1.6-.7c1 1 1.4 4.5 1.4 4.5l-1.7.8s1-1.3-1.4-4.5" fill="#730000"/><path d="M406 126.8s.5-1.5 1.6-.7c1 1 1.4 4.5 1.4 4.5l-1.7.8s1-1.3-1.4-4.5z" fill="none" stroke="#000" stroke-width=".50397"/><path d="M396.6 158.7s1-1-.3-3.6l1.7-.4s.6 2-.2 4h-1.2" fill="#730000"/><path d="M396.6 158.7s1-1-.3-3.6l1.7-.4s.6 2-.2 4h-1.2" fill="none" stroke="#000" stroke-width=".50397"/><path d="M409 125.4s-1.4 0-2.5-1l2.4 1" fill="#6f6"/><path d="M409 125.4s-1.4 0-2.5-1" fill="none" stroke="#060" stroke-width=".50397"/><path d="M424.8 153l-3.8 2.4 2 1 4.6-2.8-2.8-.5" fill="#730000"/><path d="M424.8 153l-3.8 2.4 2 1 4.6-2.8-2.8-.5" fill="none" stroke="#000" stroke-width=".50397"/><path d="M373 168.3c-1 .8-1 2.2-1.7 3-.5.8-2 2-2 3.2-.3 1.2-.4 2 0 3.6.7 1.8 3.2 9 2.2 14.5s-.7 7.8-.3 8.6c.4 1 1.6 3.2 2.4 3.2 1.6-.2 1-.7 1.5-1.7 1.6-2.7 0-23-.6-28.8-.5-4.4-2.6-8.4-2.8-8.8-.2-.6-.6-2-1-2.7-1.4-3.7-3.2-7-3.2-14.5 0 0-5 1-9.3-8.5-2-5-5.4-4.4-9.3-6l1.8-1.2s3.2 1.8 4.8 1.8c1.7 0 1.2-3.3 1.2-3.3l1.6-1.6v7c0 3.3 4.6 7.7 7.2 9 1.6 1 3.8-2.5 3.3-5.7-.5-3.3 0-7.7 0-7.7l2.2 1.4s-.8 1.4-.6 2.2c.4.8 1.5-.8 2.3-1.6 0 0 .2.2 1 .2l-2.4 4c-1 1.5-1 6.7-1 8.6 0 2 .8 6.4.8 7.8 0 1 2 5.2 3.5 7.8l1.7 3.6c1.2 2 1.3 3.3 2 5 .4.7 1 3 1.7 7 .2 1 .4 5 .7 7.6.3 2.4 2.3.5 4.7-1.3 2.6-2 2.6-6.3 2.6-6.3s2-1.6 1.6-.7c-.2 1 1 2 1 2-1.5 3.5-.6 3 1 3 1.5-.2 6.8-4.2 6.8-4.2.7-.2 3.8-.2 3.3 0-.6.3-1.4 2-1.4 2l3.4-.5c-1.3 1-5.8 3.5-7 4-1 .8-6.5 3.5-8.8 4.4-2.3 1-7 3.3-7 5.6-.2 2.3.2 8.6 0 10.7-.3 2-1 11-1 11h-11s2-8 0-10c-2.3-2.2-7.3-8.8-10.5-11-3.2-2 2.2-.5 2.2-.5v-2.2l5 6s8.7-7.7 0-18c-2.7-3.3-5.5-8.3-7.6-8.8-2.3-.6-3.4-1-7 0-4 1-13.3 1-17-5l3-.5 3-1s-1.2 3.8 6.5 3.8 8.8 0 8.2-7.2l2.3-1 1.6 1.5s-1 4-.4 5.6c.5 1.7 3.2 2.8 5.4 4.4 1 .7 1.6.8 2.2.8 1 0 1 0 2.3-1.3 2-2 1.5-2 3.3-3.6 0 0 1-1.5 1-1.7l1.2 3" fill="#730000"/><path d="M373 168.3c-1 .8-1 2.2-1.7 3-.5.8-2 2-2 3.2-.3 1.2-.4 2 0 3.6.7 1.8 3.2 9 2.2 14.5s-.7 7.8-.3 8.6c.4 1 1.6 3.2 2.4 3.2 1.6-.2 1-.7 1.5-1.7 1.6-2.7 0-23-.6-28.8-.5-4.4-2.6-8.4-2.8-8.8-.2-.6-.6-2-1-2.7-1.4-3.7-3.2-7-3.2-14.5 0 0-5 1-9.3-8.5-2-5-5.4-4.4-9.3-6l1.8-1.2s3.2 1.8 4.8 1.8c1.7 0 1.2-3.3 1.2-3.3l1.6-1.6v7c0 3.3 4.6 7.7 7.2 9 1.6 1 3.8-2.5 3.3-5.7-.5-3.3 0-7.7 0-7.7l2.2 1.4s-.8 1.4-.6 2.2c.4.8 1.5-.8 2.3-1.6 0 0 .2.2 1 .2l-2.4 4c-1 1.5-1 6.7-1 8.6 0 2 .8 6.4.8 7.8 0 1 2 5.2 3.5 7.8l1.7 3.6c1.2 2 1.3 3.3 2 5 .4.7 1.2 3 1.7 7 .2 1 .4 5 .7 7.6.3 2.4 2.3.5 4.8-1.3 2.4-2 2.4-6.3 2.4-6.3s2-1.6 1.6-.7c-.2 1 1 2 1 2-1.5 3.5-.6 3 1 3 1.5-.2 6.8-4.2 6.8-4.2.7-.2 3.8-.2 3.3 0-.6.3-1.4 2-1.4 2l3.4-.5c-1.3 1-5.8 3.5-6.8 4-1.2.8-6.7 3.5-9 4.4-2.3 1-7 3.3-7 5.6-.2 2.3.2 8.6 0 10.7-.3 2-1 11-1 11h-11s2-8 0-10c-2.3-2.2-7.2-8.8-10.5-11-3.2-2 2.2-.5 2.2-.5v-2.2l5 6s8.7-7.7 0-18c-2.7-3.3-5.5-8.3-7.6-8.8-2.3-.6-3.4-1-7 0-4 1-13.3 1-17-5l3-.5 3-1s-1.2 3.8 6.5 3.8 8.8 0 8.2-7.2l2.3-1 1.6 1.5s-1 4-.4 5.6c.5 1.7 3.2 2.8 5.4 4.4 1 .7 1.6.8 2.2.8 1 0 1 0 2.4-1.3 1.8-2 1.4-2 3.2-3.6 0 0 1-1.5 1-1.7l1.3 3z" fill="none" stroke="#000" stroke-width=".50397"/><path d="M374.7 163l2-3.4c1-2 2.6-3.2 4.2-5.8 1.4-2.3 2-5.8 1.4-8.2l1.4.8v4s2-1.8 3-2.2l.7.4s-6 6.3-11.8 16.5l-1-2" fill="#730000"/><path d="M374.7 163l2-3.4c1-2 2.6-3.2 4.2-5.8 1.4-2.3 2-5.8 1.4-8.2l1.4.8v4s2-1.8 3-2.2l.7.4s-6 6.3-11.8 16.5l-1-2z" fill="none" stroke="#000" stroke-width=".50397"/><path d="M321.2 141.7c.8 1.4 1.6 4.2 4 6.3l1.7-.5s-4-4.4-4-6.3l-1.8.5" fill="#730000"/><path d="M321.2 141.7c.8 1.4 1.6 4.2 4 6.3l1.7-.5s-4-4.4-4-6.3l-1.8.5" fill="none" stroke="#000" stroke-width=".50397"/><path d="M330.7 139.3s.5 5.2-.8 7l1.5-.7s1.2-3.6 1-5.5l-1.8-.7" fill="#730000"/><path d="M330.7 139.3s.5 5.2-.8 7l1.5-.7s1.2-3.6 1-5.5l-1.8-.7z" fill="none" stroke="#000" stroke-width=".50397"/><path d="M384.3 123s-.3 7.2 1.2 11.7l2-.6s-.4-1.2 1.2-2c1.6-.4 5.5-2 7.4-3.6l-.5-1.6s-3 2.3-4.3 3c-1.4.4-2.2 1-3.3.7-1.2-.3-2.5-2-1.7-6.3l-2-1.3" fill="#730000"/><path d="M384.3 123s-.3 7.2 1.2 11.7l2-.6s-.4-1.2 1.2-2c1.6-.4 5.5-2 7.4-3.6l-.5-1.6s-3 2.3-4.3 3c-1.4.4-2.2 1-3.3.7-1.2-.3-2.5-2-1.7-6.3l-2-1.3" fill="none" stroke="#000" stroke-width=".50397"/><path d="M406 157s-.6 5.3-.3 7.5l1.7.4s-.4-6.3.7-6.8l-2-1" fill="#730000"/><path d="M406 157s-.6 5.3-.3 7.5l1.7.4s-.4-6.3.7-6.8l-2-1" fill="none" stroke="#000" stroke-width=".50397"/><path d="M413.6 161s-2 3.3-4 3.6l3.4-.7s1-.6 2.6-2.2l-2-1" fill="#730000"/><path d="M413.6 161s-2 3.3-4 3.6l3.4-.7s1-.6 2.6-2.2l-2-1" fill="none" stroke="#000" stroke-width=".50397"/><path d="M382.5 145.6l1.3.8 1.5.2s1.5 1.4 3.2 2.7c1.3 1.2 1.3-.2 1.3-.2l.8 3.4h1.2s-.3 2-.3 3.2l2-1.6 2 2s1.8-1.5 2.6-1.5c1 0 1.2-.8 1.2-.8-5.3-2.5-7.6-5.2-6-8 2.6-4.5 7-1.6 8.4-1l19.8 10.6s1.3-.8.4-1.6c-1-.8-1.4-2.8-1-3.6.2-.8 2.4 2.6 3.5 3l3.7.6v-1s3 2.2 3 3.4c0 0 2.5-1.3 1.7-2-1-.7 3.5 1.7 3.8 3l1-1c-.2 0 .2-3.2 1.4-4.7 1-1.6 2-2 2-2s1-1.7 2-1.7c0 0-1-.7-1.4-1.5-.5-.7-1.7-1-1.7-1l1.8-1.8c.4-.6.8-.7.8-.7s-2.3-2-4-2.2c0 0 0-2.7-2-3h.8s-1.5-2.7-3-2.8c0 0 1-1 1.8-1 0 0-1.7-2.4-4-1.6l1.5-.7s-1-1.2-4.6-.6c0 0 .4-1.4-1-2.5 0 0-1.4 0-1.4 1 0 0-1.3-1-2.8-1-1.5 0 .5 1.6.5 1.6s-2-1.3-3.2-1c0 0 .6-2.3-.7-3.5 0 0-1.6.8-2 2l-.4-1.2s-2 2.6-2.5 2c-.3-.5-.6-2.3-.6-2.3l-1.4 2 .2-2.7s-1.4.8-2.5 3.5c0 0-1.4 1.3-1.4 2.5 0 0-1.2-1.3-2.3 0-1 1.4 0 1 0 1s-.4.6-1.4 1l.2.7s-1.3-.7-2.3-.4l.5 1.2s-2.7.2-2.8-2c0 0-2.3-1-2.6.2 0 0-1.8 0-1.6 1 0 0-.5-1-1.5-1.2-1-.4-.2 1.3-.2 1.3s-.2-1.2-1.4-2c-1.2-.4-.2 1.3-.2 1.3s-1.6-1.3-.8-2.3c0 0-1.5 1.4-.8 2.8l-1 .7s-.5-.5-.4-1c0-.3-1.8 1.3-1.8 1.3s-1-2.7 0-2.7c0 0-2 0-2.2 2.3-.3 2.3 0 0 0 0s-1.3.2-2.5.6c-1.5.4.8 1.3.8 1.3s-2-.5-3 0l.6 1s-.7-.7-2.4 0c-1.8.4.4.7.4.7s-1.8-.4-2.8 0c-1 .4.3 1.2.3 1.2s-3.4-1.2-4-1c-.4.4 1.2 2 1.2 2s-2 .6-2.4 2l1.8.8s-.8.4-1.2 1.2c-.4 1 1.2.5 1.2.5s-2.2 1.6-2.2 2.8c0 0 1.6.5 2.8-.7 1.2-1.2.4-.8.4-.8v.8s2.4-1 2.4-1.6c0-.5-.4.8-.4.8l2.4-1.2 1.5 1z" fill="#289400" stroke="#030" stroke-width=".50397"/><path d="M380.6 113.8l-.5-2.2s2.8 0 5.3.6l1-2s2.3 1 3 1.8c0 0 5-1.2 6.3-.7l-.6 2.2s4.4.3 5.8.8c1.3.5-.6 1.7-.6 1.7s5 .6 7 2c2.4 1.2 2.4 2.3 1.3 2.6l2.7 4.4s-4.4.5-5.2 1.6c-.8 1.2-1.6-1-1.6-1l-.8 3s-2.8-1.5-4-2.5c0 0-1.2 1.8-.4 2.6 0 0-3.6 0-5-3.3 0 0-2-.3-2 1.6l-3.2-3.6-2.7.8s-.8-1-2-1.4c-1-.2-.2 1.4-.2 1.4l-1.5-2-1.6-2s-1.5 2-2.7 2c-1 0-1-1.3-.8-2.2.3-.8-3.2-1-3.5 0 0 0-1-4 2.7-5.2l4-1z" fill="#289400" stroke="#030" stroke-width=".50397"/><path d="M360.8 127.8l-1.7 1.6-1-.5-2 2-.4-1-1 1.7-1.8-.6-.8 1.4-1.5-.3s-1.4 1.4-2.2 1.7c-.8.2 0-2 0-2s-1.2 2.2-2 2.2c-1 0-.6-1-.6-1s-.5 1.3-1.5 1.5c-1 0-.6-1-.6-1l-1.6 1.2v-1l-.7-.3s.4-2 1-2.3c.8-.3-.6-1.5-.6-1.5l.7-.8s-2-.5-2 0c0 0 1-3 2.4-3.4v-3s1.6-1.2 3-1.4c1.3-.3-.5-2.4-.5-2.4l3.2-2 .4-2.3 5 .4 1-2 4 1 3.3-1.8 2.4 2.7 3.7.4v3.3s4.2 1.3 4.7 1.7c0 0-.7 2.7-.7 3.2 0 0 3-.8 4-.6l.4 3.5s5.2 1.8 5.5 2.7c0 0-1 .7-1.7 1.6 0 0 .6 3.2.6 4.2l-.3.6s-1.6-1.3-2.8-1.5l-1 2.2-2-1.2h-1s-1-1-1.7-1v-1l-1.5 1s-2.2-1.3-2.2-2V130l-2.3 1.5s-.5-1.2-.4-1.7c0-.5-1 1.2-1 1.2s-1.2-2-1-2.5l-.4 1.7s-2.5-.8-2.8-2.4z" fill="none" stroke="#030" stroke-width=".50397"/><path d="M328.3 137.7s4.3 2.2 4.3 3.2c0 0 1-2.3.5-3.2l1.7 1.2s.5-2 0-2.7c-.6-.5 3.5-2.2 4.5.5 0 0 2.5-2.6-2.4-5 0 0-.4-1.5 2.6-1 0 0-.2-1-1-1.5h3s-1.8-1.4-4.4-1.8c-2.4-.4-1-.7-1-1.3-.2-.5 0-2.3 0-2.3s-1.4-.6-2.5 0l.4-.5s-2.8-.7-3.8 0c0 0-1.5-.7-1.3-2.3 0 0-1.6 0-2.3 1.5 0 0-1.5 1.6-3.4 1.6-.4 0-1.8-.8-1.8-.8l-1.3 2.8h-2l.7 1s-3-.8-4 0c0 0 1.2 1.8 1 3 0 0-2.5.4-3 .8-.6.5.8.8.8.8s-2.6.8-3.2 1.7l1 .8-1.2 1.6h1l-2.6 1c-1 .2 1.6.4 1.6.4l-1.2 1 2 .5s-1.6 4-1.7 6c0 0 2.3-3 3-3.2l-2 3s3.5-1 3.8-1.6l.7-1v1.6s1.4-1.8 1.6-2.5c0-.7 2 .7 2 .7v-1l2.6.7c.7 0 .8-.3.8-.3l1.7-.2-.3 1.4s1.2-.8 1.5-1.6c0-.8.7 0 .7 0l1-3.3h1.6zM314.3 152.2l1.7 3.3c-1.4 0-3.3 1.7-3.3 1.7.3 5.6-1 5.3-1 5.3.3 1-.6 2.2-.6 2.2l8.4-4.2v-.5l9.7-4.5.4.6 2.7-1.5 2 5-2 1.2c.2 1.8 2.3 4.8 2.3 4.8l2.5-.6 2.8-1v1c0-.5 3-1.5 3-1.5s.2 1.4 1.3 1.3c1 0 2.8-2.5 2.8-2.5l2 .8s.8-1 .8-2 2.7-1 2.7-1l1.8 1.4 2.5-2s.7 1.5 1.6 1.7c1 .2 3.6 2.2 3.6 1.8 0-.4 1.2-2.7 1.2-2.7l4.2 2c-.6-2-2-4.4-2-4.4s2-1.6 1.6-2c-.4-.5-1.6 0-1.6 0l1.2-2.5h-1.6l.5-.5-2.5-1 1.4-3c-.7-.7-7.7-2-7.7-2l1.6-1.6s-1-1.4-1.7-1.4c-1 0-5 0-5.3-.3 0-.4-2-2-2-2l-2.5 2-1.3-.4-2.4.8s0 1.4-.3.5c-.3-1-2.4-3-2.4-3-.3.7-3 4-3 4s-.5 1.7-1.4.5c-1-1.2-3.2-2.6-3.5-1.5-.2 1-2 2-2.5 1.8-.4-.2-2.6 0-3 .6 0 .7-2.4 2.5-2.4 2.5-1.4-.6-4-.2-4-.2s-.6 1.2-.7 2l-5 1.4zM360.3 193.4v-2l2.5 1.5 1.4-1.7 1.8 1.8 1-1.7v3l3-2.5 1.5.7V190s2-3 1-3.7l1.8-.5s-2.8-2.8-3.6-3.3c-.8-.6-2-.6-2-.6s-2-2.2-3.5-2.8c-1.3-.6-2 .6-2 .6s-1-1.7-2.4-2c-1.3-.3-1.3 1-1.3 1s-1-1-2.3-1.4c-1.3-.6-.4 1.2-.4 1.2l-4.7-1.4.7 1.4-4.4-1 .5 1.6-3-.6-.2 1.4-4.4.8.8 1.4-2.7-1v1.8l-3 1 1 1.2-4.8 2.5c-1 .5 1.6 1.6 1.6 1.6l-4.3-.6 1.6 1.4-3.8 3.7 2.7 2-1.6 2.4 4 1 1.7 2.6 3.3-.6v3l5-3.8s3.5 3.2 3.8 2.3c.2-1 .2-3.6.2-3.6h1.7v-3l1.4 1.3 2.2-3.3 2.8 4 2.3-5 3.3.4zM380.3 181l-.5-4.6-1.5 1.4.6-4.3-2.3-.5.8-4.2-1.6-.8.3-2 1.6-1.3 3-2.8h6.7l.8-2.3s4 0 5 .8c.7 1 3.3-1.8 3.3-1.8h1l1 2s3.6-.4 5.3.8l-2 2.6 3.7.4 2.4.5 2.7-1h3.2l.8 1.2h3l-1 1.2 4 2-1 .7s2.4 1 4 1h.8s.8 1.8-.3 2.6c0 0 1 2.8 3.6 3.3 2.3.4 2.3.4 2.6 1 .3.5 0 3.3-2.7 3.3v2.7s-2.3 2-2.6 2.8l-1.6-1.2s-1.4 1.7-1.4 2.8c0 0-3.6-4.7-5-5-1.3-.2-1 2.8-1 2.8l-4-3.3-.4 2-3.2-2.6-2 1.3-3.4-3.5-3.4.4 1.3-1.8h-4l-1-3.5-.5 3-2.4-1.7-3.2 3.4s-.4-.4-1-2c-.4-1.6-1.8 2-1.8 2l-1-2.6-1.5 2.5s-1.2-2-2.3-2.6c-1-.5-2 3-2.4 4.7zM381 191.8V190l6-2 4.8-2 2.4-1 1 2 1.6-3 2.2 3 1.2-1.5 2 1.4h1.6l.3 2s4 .3 4.4-.5c.4-.8 1 2.8 1 2.8l3.7.5 1 4.3s2 4.2 1.3 5.8c-.5 1.8-2.2-2-2.2-2s-.2 3-.5 3.8c-.2.8-5.2-.8-5.2-.8l-2 4s-2.3-3.2-3.4-3.2c-1.2 0-1.2 3.2-1.2 3.2l-4.7-5.5c-1.2-1.6-1.5 1.7-1.5 1.7s-2-3.6-2-4.6c0-1-2-2.3-2-2.3s-3.4 4-6 5c0 0 .4-2.4-.4-3.2-.7-.8-3 1.6-3 1.6s-2-3.8 0-7.6z" fill="none" stroke="#030" stroke-width=".50397"/><path d="M407.7 131l.5 2.2s2-.4 3-.3c0 0-.2 1.5-.6 2.2 0 0 2.4-.4 3.5.3l-.4 1.2s1.6 0 3 1.2l-2.8 2s4.3 1.6 5 2.8c0 0-2.6 2-3 2-.4-.3 0 .7.6 1.6H414s1 2 1 2.8c-.2.8-4 .6-4 .6M425.6 144.4s.8-4-.4-5c0 0 2.7 2 4.4 2.2 1.8 0 0-3.4 0-3.4s2.5 1.4 3.7 1.7c1.2 0-1-2.7-1-2.7s.8-1.3 2.8 0M387.8 121s0-1-.3-1.4c-2.4-3.3 2.5 2.6 3.6 2.8M395.7 122.4s1.7 1.2 2.5 1.2-.5-3.3-1-3.7c-.3-.5 3 1.3 4.2 1.5 1.3.3 1.5-2 1.5-2s3.6.5 4.4 1M381.3 119.8l-.4-3M355.6 130c-.2-.4 1-2.2.6-3 0 0 .7.6 1.4.7.6 0 .4-2.4.4-2.4l.8.3s2-1 1.7-1.8c-.4-.8 1.5 1.2 1.5 1.2s1.2-1.2 1.2-1.7 1.4 1.2 1.4 1.2 1.5-.3 1.5-1.2c0-1 2 .3 2 .3s1-1 .8-1.8M348.2 132s1-2.2 0-3.6M323.5 138.7c0-1 .6-3.8 0-4.2-.4-.4 1 .4 2.3.7M335.5 134.8c-1.2-1.2-2-1.8-4-1.8M315 141.6c.2-.7.7-2.4.4-3.5M341.4 192l1.3-2.7 1.7 4 1-2.5.5.8 2.3-2.7 2.7 4M393.4 175.7l1.7-3.5 2.5 1.3 1-3.4 2.5 1.6 1.4-3 2.8.6.2-2.3s2 1 2.4 2c.7.7 0-3 0-3l2.3 1s1.7-1.5-.5-2.4" fill="none" stroke="#004b00" stroke-width=".50397"/><path d="M400.2 171.3l2.5 3.6 2-2.5 1.8 4 2.4-1.4 3.2 2 1.5-1.2 3.7 2.6 1.5-3 3.2 1 2-3.8" fill="none" stroke="#004b00" stroke-width=".50397"/><g fill="#28af00"><path d="M314.3 152.2l1.7 3.3c-1.4 0-3.3 1.7-3.3 1.7.3 5.6-1 5.3-1 5.3.3 1-.6 2.2-.6 2.2l8.4-4.2v-.5l9.7-4.5.4.6 2.7-1.5 2 5-2 1.2c.2 1.8 2.3 4.8 2.3 4.8l2.5-.6 2.8-1v1c0-.5 3-1.5 3-1.5s.2 1.4 1.3 1.3c1 0 2.8-2.5 2.8-2.5l2 .8s.8-1 .8-2 2.7-1 2.7-1l1.8 1.4 2.5-2s.7 1.5 1.6 1.7c1 .2 3.6 2.2 3.6 1.8 0-.4 1.2-2.7 1.2-2.7l4.2 2c-.6-2-2-4.4-2-4.4s2-1.7 1.6-2c-.4-.5-1.6 0-1.6 0l1.2-2.5h-1.6l.5-.5-2.5-1 1.4-3c-.7-.7-7.7-2-7.7-2l1.6-1.6s-1-1.4-1.7-1.4c-1 0-5 0-5.3-.3 0-.4-2-2-2-2l-2.5 2-1.3-.4-2.4.8s0 1.4-.3.5c-.3-1-2.4-3-2.4-3-.3.7-3 4-3 4s-.5 1.7-1.4.5c-1-1.2-3.2-2.6-3.5-1.5-.2 1-2 2-2.5 1.8-.4-.2-2.6 0-3 .6 0 .7-2.4 2.5-2.4 2.5-1.4-.6-4-.2-4-.2s-.6 1-.7 2l-5 1.4M381 191.8V190l6-2 4.8-2 2.4-1 1 2 1.6-3 2.2 3 1.2-1.5 2 1.4h1.6l.3 2s4 .3 4.4-.5c.4-.8 1 2.8 1 2.8l3.7.5 1 4.3s2 4.2 1.3 5.8c-.5 1.8-2.2-2-2.2-2s-.2 3-.5 3.8c-.2.8-5.2-.8-5.2-.8l-2 4s-2.3-3.2-3.4-3.2c-1.2 0-1.2 3.2-1.2 3.2l-4.7-5.5c-1.2-1.6-1.5 1.7-1.5 1.7s-2-3.6-2-4.6c0-1-2-2.3-2-2.3s-3.4 4-6 5c0 0 .4-2.4-.4-3.2-.7-.8-3 1.6-3 1.6s-2-3.8 0-7.6" fill="#289400"/><path d="M382.5 145.6l1.3.8 1.5.2s1.5 1.4 3.2 2.7c1.3 1.2 1.3-.2 1.3-.2l.8 3.4h1.2s-.3 2-.3 3.2l2-1.6 2 2s1.8-1.5 2.6-1.5c1 0 1.2-.8 1.2-.8-5.3-2.5-7.6-5.2-6-8 2.6-4.5 7-1.6 8.4-1l19.8 10.6s1.3-.8.4-1.6c-1-.8-1.4-2.8-1-3.6.2-.8 2.4 2.6 3.5 3l3.7.6v-1s3 2.2 3 3.4c0 0 2.5-1.3 1.7-2-1-.7 3.5 1.7 3.8 3l1-1c-.2 0 .3-3.2 1.4-4.7 1-1.6 2-2 2-2s1-1.7 2-1.7c0 0-1-.7-1.4-1.5-.5-.7-1.7-1-1.7-1l1.8-1.8c.4-.6.8-.7.8-.7s-2.3-2-4-2.2c0 0 0-2.7-2-3h.8s-1.5-2.7-3-2.8c0 0 1-1 1.8-1 0 0-1.7-2.4-4-1.6l1.5-.7s-1-1.2-4.6-.6c0 0 .4-1.4-1-2.5 0 0-1.4 0-1.4 1 0 0-1.3-1-2.8-1-1.5 0 .5 1.6.5 1.6s-2-1.3-3.2-1c0 0 .6-2.2-.7-3.5 0 0-1.6.8-2 2l-.4-1.2s-2 2.6-2.5 2c-.3-.5-.6-2.3-.6-2.3l-1.4 2 .2-2.7s-1.4.8-2.5 3.5c0 0-1.4 1.3-1.4 2.5 0 0-1.2-1.3-2.3 0-1 1.5 0 1 0 1s-.4.7-1.4 1l.2.7s-1.3-.7-2.3-.4l.5 1.2s-2.7.2-2.8-2c0 0-2.3-1-2.6.2 0 0-1.8 0-1.6 1 0 0-.5-1-1.5-1.2-1-.4-.2 1.3-.2 1.3s-.2-1.2-1.4-2c-1.2-.4-.2 1.3-.2 1.3s-1.6-1.3-.8-2.3c0 0-1.5 1.4-.8 2.8l-1 .7s-.5-.5-.4-1c0-.3-1.8 1.3-1.8 1.3s-1-2.7 0-2.7c0 0-2 0-2.2 2.3-.3 2.3 0 0 0 0s-1.3.2-2.5.6c-1.5.4.8 1.3.8 1.3s-2-.5-3 0l.6 1s-.7-.7-2.4 0c-1.8.4.4.7.4.7s-1.8-.4-2.8 0c-1 .4.3 1.2.3 1.2s-3.4-1.2-4-1c-.4.4 1.2 2 1.2 2s-2 .6-2.4 2l1.8.8s-.8.4-1.2 1.2c-.4 1 1.2.5 1.2.5s-2.2 1.6-2.2 2.8c0 0 1.6.5 2.8-.7 1.2-1.2.4-.8.4-.8v.8s2.4-1 2.4-1.6c0-.5-.4.8-.4.8l2.4-1.2 1.5 1" fill="none"/><path d="M380.6 113.8l-.5-2.2s2.8 0 5.3.6l1-2s2.3 1 3 1.8c0 0 5-1.2 6.3-.7l-.6 2.2s4.4.3 5.8.8c1.3.5-.6 1.7-.6 1.7s5 .6 7 2c2.4 1.2 2.4 2.3 1.3 2.6l2.7 4.4s-4.4.5-5.2 1.6c-.8 1.2-1.6-1-1.6-1l-.8 3s-2.8-1.4-4-2.5c0 0-1.2 1.8-.4 2.6 0 0-3.6 0-5-3.3 0 0-2-.3-2 1.7l-3.2-3.6-2.7.8s-.8-1-2-1.4c-1-.2-.2 1.4-.2 1.4l-1.5-2-1.6-2s-1.5 2-2.7 2c-1 0-1-1.3-.8-2.2.3-.8-3.2-1-3.5 0 0 0-1-4 2.7-5.2l4-1" fill="none"/><path d="M360.8 127.8l-1.7 1.6-1-.5-2 2-.4-1-1 1.7-1.8-.6-.8 1.4-1.5-.3s-1.4 1.4-2.2 1.7c-.8.2 0-2 0-2s-1.2 2.2-2 2.2c-1 0-.6-1-.6-1s-.5 1.3-1.5 1.5c-1 0-.6-1-.6-1l-1.6 1.2v-1l-.7-.3s.4-2 1-2.3c.8-.3-.6-1.5-.6-1.5l.7-.8s-2-.5-2 0c0 0 1-3 2.4-3.4v-3s1.6-1.2 3-1.4c1.3-.3-.5-2.4-.5-2.4l3.2-2 .4-2.3 5 .4 1-2 4 1 3.3-1.8 2.4 2.7 3.7.4v3.3s4.2 1.3 4.7 1.7c0 0-.7 2.7-.7 3.2 0 0 3-.8 4-.6l.4 3.5s5.2 1.8 5.5 2.7c0 0-1 .7-1.7 1.6 0 0 .6 3.2.6 4.2l-.3.6s-1.5-1.3-2.8-1.5l-1 2.2-2-1.2h-1s-1-1-1.7-1v-1l-1.5 1s-2.2-1.3-2.2-2V130l-2.3 1.5s-.5-1.2-.4-1.7c0-.5-1 1.2-1 1.2s-1.2-2-1-2.5l-.4 1.7s-2.5-.8-2.8-2.4" fill="#289400"/><path d="M328.3 137.7s4.3 2.2 4.3 3.2c0 0 1-2.3.5-3.2l1.7 1.2s.5-2 0-2.7c-.6-.5 3.6-2.2 4.5.5 0 0 2.5-2.6-2.4-5 0 0-.4-1.5 2.6-1 0 0-.2-1-1-1.5h3s-1.8-1.4-4.4-1.8c-2.4-.4-1-.7-1-1.3-.2-.5 0-2.3 0-2.3s-1.4-.6-2.5 0l.4-.5s-2.8-.7-3.8 0c0 0-1.5-.7-1.3-2.3 0 0-1.6 0-2.3 1.5 0 0-1.5 1.6-3.4 1.6-.4 0-1.8-.8-1.8-.8l-1.3 2.8h-2l.7 1s-3-.8-4 0c0 0 1.2 1.8 1 3 0 0-2.5.4-3 .8-.6.5.8.8.8.8s-2.6.8-3.2 1.7l1 .8-1.2 1.6h1l-2.6 1c-1 .2 1.6.4 1.6.4l-1.2 1 2 .5s-1.6 4-1.7 6c0 0 2.3-3 3-3.2l-2 3s3.5-1 3.8-1.6l.7-1v1.6s1.4-1.8 1.6-2.5c0-.7 2 .7 2 .7v-1l2.6.7c.7 0 .8-.3.8-.3l1.7-.2-.3 1.4s1.2-.8 1.5-1.6c0-.8.7 0 .7 0l1-3.3h1.6M360.3 193.4v-2l2.5 1.5 1.4-1.7 1.8 1.8 1-1.7v3l3-2.5 1.5.7V190s2-3 1-3.7l1.8-.5s-2.8-2.8-3.6-3.3c-.8-.6-2-.6-2-.6s-2-2.2-3.5-2.8c-1.3-.6-2 .6-2 .6s-1-1.7-2.4-2c-1.3-.3-1.3 1-1.3 1s-1-1-2.3-1.4c-1.3-.6-.4 1.2-.4 1.2l-4.7-1.4.7 1.4-4.4-1 .5 1.6-3-.6-.2 1.4-4.4.8.8 1.4-2.7-1v1.8l-3 1 1 1.2-4.8 2.5c-1 .5 1.6 1.6 1.6 1.6l-4.3-.6 1.6 1.4-3.8 3.7 2.7 2-1.6 2.4 4 1 1.7 2.6 3.3-.6v3l5-3.8s3.5 3.2 3.8 2.3c.2-1 .2-3.6.2-3.6h1.7v-3l1.3 1.3 2.3-3.3 2.8 4 2.3-5 3.3.4M380.3 181l-.5-4.6-1.5 1.4.6-4.3-2.3-.5.8-4.2-1.6-.8.3-2 1.6-1.3 3-2.8h6.7l.8-2.3s4 0 5 .8c.7 1 3.3-1.8 3.3-1.8h1l1 2s3.6-.4 5.3.8l-2 2.6 3.7.4 2.4.5 2.7-1h3.2l.8 1.2h3l-1 1.2 4 2-1 .7s2.4 1 4 1h.8s.8 1.8-.3 2.6c0 0 1 2.8 3.6 3.3 2.3.4 2.3.4 2.6 1 .3.5 0 3.3-2.7 3.3v2.7s-2.3 2-2.6 2.8l-1.6-1s-1.4 1.5-1.4 2.6c0 0-3.6-4.7-5-5-1.3-.2-1 2.8-1 2.8l-4-3.3-.4 2-3.3-2.6-2 1.3-3.3-3.5-3.4.4 1.3-1.8h-4l-1-3.5-.5 3-2.4-1.7-3.2 3.4s-.4-.4-1-2c-.4-1.6-1.8 2-1.8 2l-1-2.6-1.5 2.5s-1.2-2-2.3-2.6c-1-.5-2 3-2.4 4.7" fill="#289400"/><path d="M336.4 163s1.4-2.4 1-3.5c-.7-1 3 2 3 2s.7-2.5.2-3.6c-.6-1.2 4 3 4 3s1-3.6 0-4.4c-.8-1 4.5 1 4.5 1s2.3-.5 1.5-1.6c-1-1.2 3.5 1.6 3.5 1.6s1-2.8 0-3.8 3.3 1.3 3.3 1.3l-1.7-2.8 3.6.2-.3-3.3" fill="#289400" stroke="#004b00" stroke-width=".509769"/><path d="M390.4 196l2.4-1 2 2 2.3-3.5 2.8 2.6.4-2.5 3 1.2.6-1.6 3.2 1.8.3-2.4 1.7.5.3-1.7" stroke="#004b00" stroke-width=".509769"/></g><path d="M375 378.4c23 .2 36.5-8.2 44-13 17.3-11.8 21-12.2 23.8-12 3.3.3 8 1.4 8.3 4.2.4 4.4-6.7 6.3-10.8 6.3-4.2 0-15-2.8-15-2.8l-3 2c2 .8 24.3 8.3 28.6 1.2 4.3-7 8.7-18.6 8.7-18.6s-5-8.7-15.7-8.7c-11 0-21.7 7-28.8 12.2-7.2 5.2-16 12.3-40 12.3-23.7 0-32.8-7-40-12.3-7-5.2-17.7-12-28.6-12-11 0-16 8.6-16 8.6s4.5 11.5 9 18.6c4.2 7 26.4-.4 28.4-1.3l-2.8-1.8s-11 2.7-15 2.7c-4.2 0-11.3-2-11-6.4.2-2.8 5-4 8.2-4.2 3-.2 6.5.2 24 12 7.4 4.8 21 13 44 13" fill="#fff"/><path d="M375 378.4c23 .2 36.5-8.2 44-13 17.3-11.8 21-12.2 23.8-12 3.3.3 8 1.4 8.3 4.2.4 4.4-6.7 6.3-10.8 6.3-4.2 0-15-2.8-15-2.8l-3 2c2 .8 24.3 8.3 28.6 1.2 4.3-7 8.7-18.6 8.7-18.6s-5-8.7-15.7-8.7c-11 0-21.7 7-28.8 12.2-7.2 5.2-16 12.3-40 12.3-23.7 0-32.8-7-40-12.3-7-5.2-17.7-12-28.6-12-11 0-16 8.6-16 8.6s4.5 11.5 9 18.6c4.2 7 26.4-.4 28.4-1.3l-2.8-1.8s-11 2.7-15 2.7c-4.2 0-11.3-2-11-6.4.2-2.8 5-4 8.2-4.2 3-.2 6.5.2 24 12 7.4 4.8 21 13 44 13z" fill="none" stroke="#000" stroke-width=".705558"/><path d="M325 361.2s-11 2.7-15 2.7c-4.2 0-11.3-2-11-6.4.2-2.8 5-4 8.2-4.2 2.5-.2 5.6 0 17.7 7.8" fill="#69f"/><path d="M325 361.2s-11 2.7-15 2.7c-4.2 0-11.3-2-11-6.4.2-2.8 5-4 8.2-4.2 2.5-.2 5.6 0 17.7 7.8z" fill="none" stroke="#000" stroke-width=".705558"/><path d="M425 361.2s11 2.7 15.2 2.7c4 0 11.2-2 11-6.4-.3-2.8-5-4-8.4-4.2-2.4-.2-5.6 0-17.7 7.8" fill="#69f"/><path d="M425 361.2s11 2.7 15.2 2.7c4 0 11.2-2 11-6.4-.3-2.8-5-4-8.4-4.2-2.4-.2-5.6 0-17.7 7.8z" fill="none" stroke="#000" stroke-width=".705558"/><path d="M338.3 351.5L335 349l-4.7-3.2s2.3-2.8 3.4-3c1.7-.7 3.8.2 4.2 3.8l.2 5" fill="#69f"/><path d="M338.3 351.5L335 349l-4.7-3.2s2.3-2.8 3.4-3c1.7-.7 3.8.2 4.2 3.8.3 3 .3 5 .3 5z" fill="none" stroke="#000" stroke-width=".705558"/><path d="M338.3 351.4s0-2-.4-4.8c-.5-3.6-2.6-4.5-4.3-4-1 .4-3.4 3-3.4 3v.2l-3-2c.7-.8 5.4-3.7 6.5-3.7 1 0 15 5.8 19.5 9.7 1 1 2 7.3 1.3 9.4-7.5-2-12.4-4.7-16.4-7.5" fill="#fff"/><path d="M338.3 351.4s0-2-.4-4.8c-.5-3.6-2.6-4.5-4.3-4-1 .4-3.4 3-3.4 3v.2l-3-2c.7-.8 5.4-3.7 6.5-3.7 1 0 15 5.8 19.5 9.7 1 1 2 7.3 1.3 9.4-7.5-2-12.4-4.7-16.4-7.5" fill="none" stroke="#000" stroke-width=".705558"/><path d="M331.5 365.7s-3 3-3 8.6c-.2 6.6 4.6 7 7.7 6.8 3.8 0 6.8-2 6.7-9 0 0-6.3-2.8-11.5-6.3" fill="#fff"/><path d="M331.5 365.7s-3 3-3 8.6c-.2 6.6 4.6 7 7.7 6.8 3.8 0 6.8-2 6.7-9 0 0-6.3-2.8-11.5-6.3z" fill="none" stroke="#000" stroke-width=".705558"/><path d="M334 367.2s-2.4 2.5-2.8 6.7c-.2 3.2 2 5 4.7 4.8 3.8-.2 5.3-5.5 3.5-8.5l-5.4-3" fill="#fff"/><path d="M334 367.2s-2.4 2.5-2.8 6.7c-.2 3.2 2 5 4.7 4.8 3.8-.2 5.3-5.5 3.5-8.5l-5.4-3" fill="none" stroke="#000" stroke-width=".705558"/><path d="M330.8 380.2c2 1 4 1 5.4 1 3.8-.2 6.8-2.3 6.7-9.3 0 0 4.6 2.2 12.2 4 0 0 1.3 1.6 1.5 4.6.3 2.6-1.5 5.3-3.5 5l-17.2-3c-3.8-.6-5.2-2.4-5.2-2.4" fill="#69f"/><path d="M330.8 380.2c2 1 4 1 5.4 1 3.8-.2 6.8-2.3 6.7-9.3 0 0 4.6 2.2 12.2 4 0 0 1.3 1.6 1.5 4.6.3 2.6-1.5 5.3-3.5 5l-17.2-3c-3.7-.7-5.2-2.4-5.2-2.4z" fill="none" stroke="#000" stroke-width=".705558"/><path d="M354.4 378s3.4 2.3-.7 5.4M344.4 376.3l10.2 4.4M346 378.6l7.6 3.2M348.7 376.7l5.7 2.5" fill="none" stroke="#fff" stroke-width=".705558"/><path d="M411.8 351.5l3.4-2.4c1.4-1 3-2 4.5-3.2 0 0-2.2-2.8-3.3-3-1.7-.7-3.8.2-4.2 3.8l-.4 5" fill="#69f"/><path d="M411.8 351.5l3.4-2.4c1.4-1 3-2 4.5-3.2 0 0-2.2-2.8-3.3-3-1.7-.7-3.8.2-4.2 3.8l-.4 5z" fill="none" stroke="#000" stroke-width=".705558"/><path d="M411.8 351.4s0-2 .4-4.8c.4-3.6 2.5-4.5 4.2-4 1 .4 3.3 3 3.3 3v.2l3.2-2c-1-.8-5.6-3.7-6.6-3.7s-15.2 5.8-19.6 9.7c-1 1-2 7.3-1.4 9.4 7.7-2 12.4-4.7 16.4-7.5" fill="#fff"/><path d="M411.8 351.4s0-2 .4-4.8c.4-3.6 2.5-4.5 4.2-4 1 .4 3.3 3 3.3 3v.2l3.2-2c-1-.8-5.6-3.7-6.6-3.7s-15.2 5.8-19.6 9.7c-1 1-2 7.3-1.4 9.4 7.7-2 12.4-4.7 16.4-7.5" fill="none" stroke="#000" stroke-width=".705558"/><path d="M418.5 365.7s3 3 3.2 8.6c.2 6.6-4.7 7-8 6.8-3.6 0-6.6-2-6.6-9 0 0 6.3-2.8 11.5-6.3" fill="#fff"/><path d="M418.5 365.7s3 3 3.2 8.6c.2 6.6-4.7 7-8 6.8-3.6 0-6.6-2-6.6-9 0 0 6.3-2.8 11.5-6.3z" fill="none" stroke="#000" stroke-width=".705558"/><path d="M416 367.2s2.4 2.5 2.8 6.7c.3 3.2-2 5-4.7 4.8-3.7-.2-5-5.5-3.4-8.5l5.4-3" fill="#fff"/><path d="M416 367.2s2.4 2.5 2.8 6.7c.3 3.2-2 5-4.7 4.8-3.7-.2-5-5.5-3.4-8.5l5.4-3" fill="none" stroke="#000" stroke-width=".705558"/><path d="M419.2 380.2c-2 1-4 1-5.4 1-3.7-.2-6.7-2.3-6.7-9.3 0 0-4.6 2.2-12 4 0 0-1.4 1.6-1.6 4.6-.2 2.6 1.5 5.3 3.5 5l17-3c3.8-.6 5.2-2.4 5.2-2.4" fill="#69f"/><path d="M419.2 380.2c-2 1-4 1-5.4 1-3.7-.2-6.7-2.3-6.7-9.3 0 0-4.6 2.2-12 4 0 0-1.4 1.6-1.6 4.6-.2 2.6 1.5 5.3 3.5 5l17-3c3.8-.7 5.2-2.4 5.2-2.4z" fill="none" stroke="#000" stroke-width=".705558"/><path d="M395.7 378s-3.4 2.3.6 5.4M405.7 376.3l-10.3 4.4M404 378.6l-7.5 3.2M401.3 376.7l-5.6 2.5" fill="none" stroke="#fff" stroke-width=".705558"/><path d="M303.7 351.5v-2-2.2h.3v1.2c.6.8 1.4 1.3 2.2 1.3 1 0 1.8-.8 1.8-1.8s-1-1.6-2-2c-1.2-.8-2.2-1.4-2.3-3 0-1 .5-2.3 2.4-2.4h2v-1h.3v3.6h-.3v-1c-.3-.6-1-1.3-2-1.2-1 0-1.5 1-1.4 1.5 0 .8 1 1.2 2 1.7 1 .6 2.2 1.3 2.5 3 .2 1.8-1.2 3-3 3h-1.8s0 .7-.2 1.2h-.3M313.2 345l1.2-2.8-1-.6.2-.3c.3 0 1 .6 2 1l1.8.8-.2.3-1.2-.4c-.2 0-1 1.6-1.5 2.6l-.7 1.5c-1.2 2.7-.6 4 .7 4.6 1 .4 1.5.5 2 .3 1-.4 1.6-1.4 2.3-2.8l.5-1 1.3-3-1.2-.8v-.3c.3.3 1.2.7 2 1l1.5.7-.3.2c-.3-.2-.6-.3-1-.3l-1 2-.3.5-.6 1.5c-.7 1.3-1.4 2.3-2.7 2.7-.7.2-1.6.2-2.8-.4-2.5-1-3-3.2-2-5.3l1-1.8M335.7 358.3l1.4-2.6c0-.2-.4-.4-.7-.7v-.2l2 1c.6.4 1.4 1 1.7 1l-.2.2c-.3 0-.8-.4-1.2-.5l-1.6 2.7-1 1.4c-1.3 2.4-.7 3.8.5 4.6.7.4 1.3.5 2 .4 1-.2 1.7-1.2 2.4-2.6l.5-1 1.6-2.8-1-1v-.3c.3 0 1 .6 1.8 1l1.5 1h-.2c-.2 0-.5 0-.8-.2l-1.2 1.8-.3.5-.8 1.5c-.8 1.4-1.7 2.3-3 2.6-.8.3-1.8.2-3-.5-2.2-1.4-2.4-3.4-1.3-5.4l1-1.7M351.6 371.7l1.4.3c0-.5 1-6.5 1-7.5l-5.6 6.5-.4-8.5c-1 1.8-2.8 5-3.3 6.6l1 .7v.2c-.2-.2-1.6-.6-2-.7l-1.3-.4.2-.4 1 .2c.5-.7 4-6.4 4.4-7.4-.3 0-1-.5-1.2-.5v-.4l1.8.6 2 .6-.2.2h-1v6.8c.8-.6 4.6-5 4.7-5.4l-.6-.4v-.3l1.6.6 2 .5-.3.3h-1c-.4 1.5-1 7.6-1 8.5l1 .5v.2c-.6 0-1.3-.4-2-.6l-2.2-.7v-.3M394 367.7c-.4-1-1-3.2-1-3.6l-1.5.3v-.2l2-.5c.6 0 4-1 4-1.2v-1h.3l.6 3h-.3c0-.2 0-.7-.2-1-.6-.2-2.7.2-3.3.4l.8 3.4v.4c.7-.2 2.4-.7 2.8-1v-.7h.3c0 .5.3 1.8.6 2.7h-.4c0-.3-.2-.7-.4-1-.3-.2-2 .2-2.7.4v.4l1.2 3.6 1.6-.2v.2c-.4 0-1.4.4-2.3.6l-2 .7v-.2l1.2-.5-1-4-.3-.6M402 364.5l-1.3-3-1.3.5-.2-.2c.3 0 1.4-.5 2-1 1-.2 2-.7 2.4-1v.4l-1.4.8c0 .4 1 2 1.3 3l.2.5c.7 1.6 1.7 4 2 4 1.3-.5 2-1.2 2.4-1.7v-1.5l.2-.2 1.2 4.3h-.3l-.4-1.4c-.4 0-3 1-3.6 1.3l-2 1v-.3s1-.5 1-.7c0-.6-1-3-1.7-4l-.3-.8M429 349.2l-1.7-3.2-1.3.4-.2-.2 2-1 3.5-1.8c0-.2 0-.4-.2-.6l.3-.2c0 .3 1 2 1 2.5l-.2.2-.4-1c-.4 0-2.2.7-2.8 1 0 .2 1 2.5 1.5 3.2v.2l2.5-1.5s0-.3-.2-.4l.3-.2.7 2.4h-.3l-.4-.8c-.4 0-1.5.4-2.5 1l.2.2c.3.7 1.7 3.2 2 3.5 1-.6 2-1.3 2.5-1.8 0-.6-.2-1-.3-1.3l.2-.2c0 .4.7 2.3 1 3h-.3l-.5-.7c-.3 0-3 1.4-3.6 1.8l-2 1v-.3l1-.8c0-.2-1-2.5-1.7-3.7l-.3-.6M323.8 351c.5-.7 1.5-2.4 1.7-3l-1-.7v-.4c.4 0 2.7 1.5 3.4 2 2 1.2 1.8 2.3 1.4 3-.2.2-.3.4-1 .7-.7.5-1.6.4-2 .4 1 1 1.6 2.5 1 3.6-1 1.3-2.6 1.5-4 .5-.4 0-1.5-1-2-1.2-.2 0-1.4-.8-1.7-1v-.2c.4 0 1.2.5 1.5.6l2-3.4.6-.7"/><path d="M324.3 353.2l-1.3 2.4c0 .3.4.5.6.6 1 .6 1.5.3 2-.3.3-.7.4-1.6 0-2.4l-1-1-.3.6M325 351.8c.3.2.8.4 1.2.4.6 0 1-.4 1.3-.8.5-.7.3-1.5-.4-2h-.2s-1 1.2-1.4 2l-.3.4" fill="#fff"/><path d="M360 368.5l.2-3.5c-.4 0-1-.2-1.3-.4v-.3c.3 0 3 .3 3.7.5 2.5.3 2.7 1.4 2.7 2 0 .4 0 .7-.5 1.2-.7.7-1.5 1-2 1v.2c1.3.3 2.5 1.5 2.3 3-.2 1.3-1.5 2.2-3.3 2l-2.3-.5-2-.2v-.2h1.5l.6-4v-.8"/><path d="M361.2 370.2l-.2 2.5c.2.2.7.3 1 .3.8.2 1.3-.3 1.4-1 0-.6-.2-1.5-1-2-.2-.2-.7-.4-1-.4l-.2.6M361.3 368.6c.4 0 1 0 1.4-.2.4-.2.6-.6.7-1 0-1-.3-1.6-1-1.7h-.5c-.2 0-.5 1.5-.6 2.4v.6" fill="#fff"/><path d="M369.2 369.3V366H368l-.2-.4h2.8c1.2 0 3 .2 3.7.6.7.3 1 .8 1 1.5 0 .8-.8 1.8-1.8 2.4 0 .5 2 4 3.4 5.4h-.7c-1-.4-4.3-4.4-4.5-4.7h-1.2v3.9l1.3.2v.3c-.4 0-1.7 0-2.3-.2h-2.2v-.3h1.4c0-.5 0-3 .2-4.4v-.7"/><path d="M370.8 369.7h1.2c.4-.2 1.2-.7 1.2-1.7 0-.6-.5-1.4-2.2-1.5l-.2 3v.2" fill="#fff"/><path d="M420.2 354l-1.8-2.7-1.3.6v-.3l2.4-1.5c1-.6 2.4-1.4 3.4-1.5.7 0 1.3 0 1.7.7.4.7.2 2-.3 3 .2.2 4 2 5.8 2.7l-.5.4c-1 0-6-1.5-6.4-1.6l-1 .7.3.3 1.8 3 1.3-.7.2.3-2 1-1.8 1.4v-.3l1-1c0-.3-1.4-2.4-2-3.6l-.5-.7"/><path d="M421.8 353.8l1-.8c.4-.5.8-1.4.2-2.3-.3-.6-1.3-1-3 0l1.6 2.8.2.3" fill="#fff"/><path d="M383.2 374.4l1.3-.3c-.3-.5-1.4-3.2-1.7-3.5l-3 .4s-.5 2.5-.5 3.5h1v.4h-2c-.2 0-1 0-1.4.2v-.3l1-.4c.4-.8 2.5-8 2.7-8.5h-1v-.3h1.6l2.2-.3v.3c-.4 0-.7 0-1 .2l1.7 3.7c.4 1 1.5 3.2 2.2 4.3h1l.2.3c-.2 0-1.5 0-2.2.2-.5 0-2 0-2.3.2l.2-.3"/><path d="M381.3 366.8l-1 3h2.2l-1.2-3" fill="#fff"/><path d="M411.6 365c-1.3-.5-2-1.2-2.7-2.2-1.6-2-1-5.3 2-7.2 1.2-.8 2.2-1.2 3.7-1 1.3 0 2.4.8 3 1.8 1.7 2.8.8 5.8-2 7.5-1 .7-2.4 1.3-4 1"/><path d="M416 358.4c-1-1.8-3.2-2.3-4.6-1.4-1 .8-2 2.4-.8 4.2 1 1.5 3 2.2 5 1 1-.6 1.4-2.3.5-3.8" fill="#fff"/><path d="M438.6 349c-1.3-.5-1.8-1.3-2.2-2.6-.8-2.4.5-5.4 4-6.4 1.3-.4 2.4-.6 4 0 1 .3 2 1.3 2.3 2.6 1 3-.7 5.8-3.8 6.7-1.4.4-3 .6-4.4-.2"/><path d="M444.6 344c-.7-2-2.6-3-4.2-2.4-1.3.4-2.4 1.7-1.8 3.6.5 1.7 2.4 3 4.3 2.5 1.3-.5 2-2 1.6-3.6" fill="#fff"/><path d="M260 198l74-38.3-2-5-64 30.6c-1.3.5-13 5.4-19 12.6-3.3 4-1.6 6.4-1.6 6.4s1-.5 2.2-.5c0 0 .5 2.2-.7 3-.6.5-.2 1.8.8 2 1.2 0 2-.4 3-2.6 1.3-2 5.3-6.7 7-8.3" fill="#730000"/><path d="M260 198l74-38.3-2-5-64 30.6c-1.3.5-13 5.4-19 12.6-3.3 4-1.6 6.4-1.6 6.4s1-.5 2.2-.5c0 0 .5 2.2-.7 3-.6.5-.2 1.8.8 2 1.2 0 2-.4 3-2.6 1.3-2 5.3-6.7 7-8.3z" fill="none" stroke="#000" stroke-width=".50397"/><path d="M319.5 160l9.6-4.5s3.4 2.5 3 5.2c0 0 .8 6.3 8.6 10.7 0 0-6.6 8.3-18.2 9 0 0 1-11.3-1.5-14.5 0 0-2.6-3.7-1.5-6" fill="#fff"/><path d="M319.5 160l9.6-4.5s3.4 2.5 3 5.2c0 0 .8 6.3 8.6 10.7 0 0-6.6 8.3-18.2 9 0 0 1-11.3-1.5-14.5 0 0-2.6-3.7-1.5-6z" fill="none" stroke="#000" stroke-width=".50397"/><path d="M330.7 161.4l-8.6 4.3M327.6 163.5c0 1-.7 3.4 0 5.2M326.7 163.8c0 .5-1 2.3 0 4.8M325.6 164.3c-.2 1-.4 1.6 0 2.7M324.8 165c-.2.5 0 .8 0 1.2M330.8 164.6c.3.8 3 5 4.7 6.8M331.2 166.5c.3.8 2 3.8 3 5M331 168.3c.4 1 1.2 2.8 2 3.8M331 170.3c.2.8.6 1.8 1.2 2.5" fill="none" stroke="#7e4b7e" stroke-width=".8063520000000001"/><path d="M290.8 153.8c-.7 3.2-.7 6-.6 9.2 0 2 1 4.5 2 6.7.6 1.4 1.4 3 2.7 3.8 3.4 2.3 6.8-.2 8.7-1 1-.3 2.3-1.6 2.7-2.4.5-1 .3-2 .8-4.4l.7-.4c.8-1.5.6-2 1-3 .6-1-.5-2-1.7-2 .6-1.8 1-4 .4-5.8-.2-.6.5-2.2-.6-1.8-4.4 1.8-9.8 1.4-14.6 1.4-.4 0-.7-.8-1.3-.7 0 0 0 .3-.2.5" fill="url(#c)" transform="scale(1.00794)"/><path d="M293 155c-.6 3.3-.6 6-.5 9.3 0 2 1 4.6 2 6.7.6 1.4 1.4 3 2.8 4 3.5 2.2 7-.3 8.8-1 1-.4 2.4-1.8 2.8-2.6.6-1.2.4-2 1-4.5-.2 0 .7-.5.6-.5 1-1.5.7-2 1.2-3s-.6-2.2-1.8-2c.6-2 1-4 .4-6-.2-.5.5-2-.6-1.7-4.6 1.8-10 1.4-15 1.4-.3 0-.6-.8-1.2-.7l-.3.5z" fill="none" stroke="#000" stroke-width=".50397"/><path d="M292.7 156.8c-.5-.4-.6-1.4 0-3.3.7-2 0-2 1-3 1.2-1.3 1-1.8 1.6-2 .7-.3 3-.3 3.6-.6.5-.4 1.4-.8 2.8-1 1.6-.3 4.6-.2 6 .6 1.6.8 2.6 3 3.5 3.6 1 .7 1.6 3.6 1.4 8-.3 4.2-1 3.4-1 3.4s-1.3-2-2.3-.3c0 0 0-1.7.2-3 0-1-.7-3.3 0-5 0 0-5.7 2-8.7 2-3-.3-7.4-1-7.6-1.8l-.7 2.3"/><path d="M292.7 156.8c-.5-.4-.6-1.4 0-3.3.7-2 0-2 1-3 1.2-1.3 1-1.8 1.6-2 .7-.3 3-.3 3.6-.6.5-.4 1.4-.8 2.8-1 1.6-.3 4.6-.2 6 .6 1.6.8 2.6 3 3.5 3.6 1 .7 1.6 3.6 1.4 8-.3 4.2-1 3.4-1 3.4s-1.3-2-2.3-.3c0 0 0-1.7.2-3 0-1-.6-3.3 0-5 0 0-5.7 2-8.7 2-3-.3-7.4-1-7.6-1.8l-.7 2.3" fill="none" stroke="#000" stroke-width=".50397"/><path d="M295.6 153.2c-.3-.6-1.8-2.8-.6-3.6 1-.6.4 2.8 2 3.5 0 0-.6 1.6-1.4.2" fill="#fff"/><path d="M295.6 153.2c-.3-.6-1.8-2.8-.6-3.6 1-.6.4 2.8 2 3.5 0 0-.6 1.6-1.4.2z" fill="none" stroke="#fff" stroke-width=".50397"/><path d="M308 165.2c-.3.6-.8.2-.8.4-.4 2-.3 3.3-.8 4.5-.7 1.5-3.2 2.8-3 2.7-2 .6-4.6 3-8.5.8-.3 0-.5-.3-.7-.5 0 0 1 4-3 6.2l-15.6 8s-1.5 3-.5 6.6c0 .6.3 1-.3 1.5-1 .7-2.7 2.7-3.7 6 0 0-3-1.4-3-3.3 0-2 1.2-3 1.5-4.3.3-1.3 1-4.7.7-5.7-.4-1-2.2-1.5-3-2-.5-.3-1.4.5-1.3 1.4 0 1 1 .8 1.7 1 0 0-1 2-1 3.4l-9 4.7 1.5 2.3c.4.7 1.3 10 4 14.6 2.7 4.4 3.7 3.2 4.3 3.8l2 2c.7.4 3.8.7 4.4-1 .7-1.6 1.2-2.6 3-4 2-1.6 6-5.5 6-7.2 0 0 2.3 6.7 2 12.2 0 0 8.5 1.7 16 2 7.6 0 11.5-1.6 11.5-1.6s1-6.3.6-7.5c0 0 1.2 4.2 2 5.6 1 1.7 2.2 5.3 4.4 5.5 2.2.2 4-2 4.2-3v-6.6h8.5s3.8 1.4 5 1.2c1.2 0 2-1.2.8-1.6l-.4-.3c1 0 2.4.7 2.4.7h4.3v-.5c-.4-1.3-2.7-2.4-4.3-3-1.6-.7-3.4-1.4-4.6-1.5-2-.2-3.2 0-6.2.4-.8 0-3.8.3-5.7 1.2-.6.3-1 .4-1-1 .4-1.3.3-7.6-1.2-10.4-1-2-1-3.5-.8-5 0-1.7.2-7.3 0-9-.3-1.5-2.6-3.7-6.6-4.2-3.8-.5-7-3.7-7.3-6.2-.2-2.5.5-7.2 1-9.2" fill="url(#d)" transform="scale(1.00794)"/><path d="M310.4 166.5c-.2.6-.7.2-.7.4-.4 2-.3 3.2-.8 4.4-1 1.4-3.4 2.8-3.3 2.7-2 .7-4.5 3-8.4 1l-.7-.6s1.2 4-3 6.2l-15.7 8.2s-1.6 2.8-.6 6.5c0 .6.3 1.2-.3 1.6-.8.6-2.5 2.6-3.5 6 0 0-3-1.5-3-3.4 0-2 1-3 1.4-4.4.2-1.3 1-4.7.6-5.7s-2.2-1.5-3-2c-.5-.3-1.3.5-1.2 1.4 0 1 .8.7 1.6 1 0 0-1 2-.8 3.3L260 198l1.5 2.4c.5.7 1.4 10.2 4 14.7 3 4.6 3.8 3.3 4.4 4l2 2c.6.4 3.8.7 4.4-1 .7-1.7 1.2-2.7 3.2-4.2s6-5.4 6-7c0 0 2.2 6.6 2 12.2 0 0 8.4 1.7 16 2 7.7 0 11.6-1.6 11.6-1.6s1-6.4.6-7.7c0 0 1.2 4.2 2 5.6 1 1.8 2.2 5.3 4.5 5.5 2 0 4-2 4.2-3V215h8.6s4 1.5 5.2 1.3c1.2 0 2-1.2.8-1.6l-.4-.3c1 0 2.5.7 2.5.7h4.4v-.4c-.4-1.3-2.6-2.3-4.3-3-1.5-.6-3.3-1.3-4.5-1.4-2-.2-3.3 0-6.2.4-1 0-4 .4-5.8 1.3-.5.2-1 .3-1-1 .4-1.4.3-7.8-1.2-10.6-1-2-1-3.5-.8-5.2 0-1.6.2-7.2 0-8.8-.3-1.6-2.5-4-6.6-4.4-4-.5-7.2-3.7-7.4-6.2-.3-2.5.4-7.2.8-9.3z" fill="none" stroke="#000" stroke-width=".50397"/><path d="M346.5 215c-.6-.6-1-1-1.8-1.3l-2-1c-.8-.4-1.8-.5-2.4-1M340.7 214.5l-.8-.5c-.4 0-.8 0-1-.3-.2 0-.2-.2-.3-.2-1 0-2-.5-2.5-1.3M273.4 203c1 .6 3.2 2 3.4 5 .2 1.6 1 3 1 3M264.7 203.3c.5 1.7.6 7.4 6 13.4M265.7 195.3c-.4 1.2-1 2.2.2 3M280.4 209c1-2.6 4.5-2.4 4.5-4.8" fill="none" stroke="#000" stroke-width=".50397"/><path d="M285.5 208.7c-.4-3-1-4.5-.5-8.7.2-1.2.5-6 0-8 0 0 1.7 7.7-3.6 9.2M315.8 213.7c0-4 1-6.2 1-6.2 1-5.6-1.2-7.7-.3-9 .8-1.3 2-4 .4-9 0 0 2.7 10.5-4.6 10.5-7.4 0-7-2.7-7-2.7" fill="none" stroke="#000" stroke-width=".50397"/><path d="M285 192c0 2 0 8.3 9 8.3 2.8 0 5.8-2 7.4-3.2M303.7 194.3c-.3-2-.3-4.4-.3-7M289.7 184c2.5-.4 4.4-.7 9-.7M299 177c.5 2.3-.3 5.8 3.8 6.3M307.2 176.2c-.6 1.6-.6 3.3-.8 4.4M306.6 183.3c1.7 0 5-1 9-.3M317 205.8c1 1.6 1 3.8 3.7 6.2M289 200.6c0 1.3-1.8 5.7-.4 9.3 1.3 3.4 1 7.5-1 11M294 202c-.7 1.6-2 3.2-2.4 4.6M298.2 205c0 1-2.8 8.7-4.7 11 0 0 3.5 1.3 3 6.5M304 201.4c0 1.4-.3 1.7.8 2.5M307.2 204c1.3 1.5 5.5 6.4 4.6 9M304.5 206.6c.3 1 .3 6.3-.6 9M301.7 215.4c-1 0-2.7.8-3 2.7M307.4 215c1-.2 3.4 1.7 3.4 7.2M326.5 212c-2.2.5-3 1.6-2.5 1-1 1-2 1.6-2 1.6M299 161.5l-1 3.2M308.6 166.3c.3.6.5.3 1 .4M310 162.8c.5-.6 1.2-.3.8 1.2" fill="none" stroke="#000" stroke-width=".50397"/><path d="M290.4 199.4c.6 0 1.2-.4 1.2-1 0-.3-.6-.7-1.2-.7-.5 0-1 .4-1 .8 0 .5.5 1 1 1"/><path d="M290.4 199.4c.6 0 1.2-.4 1.2-1 0-.3-.6-.7-1.2-.7-.5 0-1 .4-1 .8 0 .5.5 1 1 1z" fill="none" stroke="#000" stroke-width=".302382"/><path d="M313.5 199.7c.5 0 1-.4 1-1 0-.4-.5-.7-1-.7-.6 0-1 .3-1 .8s.4 1 1 1"/><path d="M313.5 199.7c.5 0 1-.4 1-1 0-.4-.5-.7-1-.7-.6 0-1 .3-1 .8s.4 1 1 1z" fill="none" stroke="#000" stroke-width=".302382"/><path d="M293 159l2.8 1c1.6.7.6 3 .2 4.4-.2.7-1 2-.6 2.5.5.8 1 .2 2 .3 0-.3.7-.5 1-.5.6 0 1 .5 1.5.3s.4-1 .2-1.6M300 161c.2-.5 1-1 1.6-1 2.2-.4 3.7-.7 5.4.5" fill="none" stroke="#000" stroke-width=".50397"/><path d="M293 161.5c.7 0 1.5-1 3 .4 1.3.6-1.7 1.3-1.2 1.2-1.3.2-1.7-.5-1.8-1 0-.3-.2-.7 0-.7" fill="#fff"/><path d="M293 161.5c.7 0 1.5-1 3 .4 1.3.6-1.7 1.3-1.2 1.2-1.3.2-1.7-.5-1.8-1 0-.3-.2-.7 0-.7z" fill="none" stroke="#000" stroke-width=".302382"/><path d="M294.4 162.8c.4 0 .7-.4.7-.8 0-.6-.2-1-.6-1-.5 0-.8.4-.8 1 0 .4.3.8.8.8"/><path d="M294.4 162.8c.4 0 .7-.4.7-.8 0-.6-.2-1-.6-1-.5 0-.8.4-.8 1 0 .4.3.8.8.8z" fill="none" stroke="#000" stroke-width=".302382"/><path d="M301.3 171.6c-1.7.4-3.5.7-5.2-.2M296 170.6c1-.4 1.3-.8 2.3-.3l1-.4c1 0 1.4.2 2.2.7" fill="none" stroke="#000" stroke-width=".50397"/><path d="M296 171c1-.3 3.4-.3 5.4 0" fill="none" stroke="#000" stroke-width=".302382"/><path d="M301.3 162.4c.7-1.5 2-1.2 3-.8 1 .3.6 0 1.5.6-1 .2-.8.3-1.6.7-1 .3-1.8.5-2.4 0-.2 0-.7-.4-.7-.8l.3.2" fill="#fff"/><path d="M301.3 162.4c.7-1.5 2-1.2 3-1l1.5.8c-1 .2-.8.3-1.6.7-1 .3-1.8.5-2.4 0-.2 0-.7-.4-.7-.8l.3.2z" fill="none" stroke="#000" stroke-width=".302382"/><path d="M303 163c.5 0 .8-.4.8-1 0-.5-.4-.8-1-.8-.3 0-.6.3-.6 1 0 .4.4.8 1 .8"/><path d="M303 163c.5 0 .8-.4.8-1 0-.5-.4-.8-1-.8-.3 0-.6.3-.6 1 0 .4.4.8 1 .8z" fill="none" stroke="#000" stroke-width=".302382"/><path d="M256.4 191.3c-.6.3-1.2-2 .4-3 0 0 .4-2 2-2 0 0 1.3-2 3.2-1.8 0 0 2.3-1.5 3-1.3 1 0 3 2.2 3 3 .3.6 0 1.8-.5 2.3-.6.6-1 0-1-1 0 0 .3 1.6-1 2.2-1 .7-1 .2-1-.6 0 0-.4 1.8-1.2 2-.8.3-1.3-.4-2-.4 0 0 1 .8.3 1.4-.7.5-1.5.3-2 0-.5-.6-1-2-3.2-.7" fill="#ffb366"/><path d="M256.4 191.3c-.6.3-1.2-2 .4-3 0 0 .4-2 2-2 0 0 1.3-2 3.3-1.8 0 0 2.3-1.5 3-1.3 1 0 3 2.2 3 3 .3.6 0 1.8-.5 2.3-.6.6-1 0-1-1 0 0 .3 1.6-1 2.2-1 .7-1 .2-1-.6 0 0-.4 1.8-1.2 2-.8.3-1.4-.5-2-.5 0 0 1 1 .3 1.5s-1.5.3-2 0c-.5-.6-1-2-3.2-.7zM266.3 187.5c-.5-1.6-2-3-4-2.8" fill="none" stroke="#000" stroke-width=".50397"/><path d="M264.5 189l-.7-1.2c-1-1.5-3-1.4-4.5-1.8M261.7 190.5c-.6-.4-.8-1.2-1.4-1.5-1-.4-2-1-3.2-.7" fill="none" stroke="#000" stroke-width=".50397"/><path d="M281.2 241.2c1.2-8 5-14.5 5-15 0 0 4 .7 10.6 1.3 6.7.7 8.5.4 11.5.2l7-.8s1 2.3 1.2 4.8c.3 5 2.2 27.6 2.4 33.6 0 0 .7 3.6.7 12.4 0 9.5 2.7 29 2.7 39.3l-2.7.6s-14.4 1.2-14.4-.8-.8-27 1.3-42c0 0-.5-3-1.3-5.6-.8-2.4-4.4-10-4.4-11.7 0 0-5.8 16-6 18.8-.4 2.6-1.2 38.4-1.7 41.3 0 0-8.3 6.4-9.4 7-1.2.5-9-3.4-9.3-4.4-.3-1 .8-13.2 4.5-33.2 1.5-7 .7-8.4.7-10.4s0-27.4 1.2-35.4" fill="#fff"/><path d="M281.2 241.2c1.2-8 5-14.5 5-15 0 0 4 .7 10.6 1.3 6.7.7 8.5.4 11.5.2l7-.8s1 2.3 1.2 4.8c.3 5 2.2 27.6 2.4 33.6 0 0 .7 3.6.7 12.4 0 9.5 2.7 29 2.7 39.3l-2.7.6s-14.4 1.2-14.4-.8-.8-27 1.3-42c0 0-.5-3-1.3-5.6-.8-2.4-4.4-10-4.4-11.7 0 0-5.8 16-6 18.8-.4 2.6-1.2 38.4-1.7 41.3 0 0-8.3 6.4-9.4 7-1.2.5-9-3.4-9.3-4.4-.3-1 .8-13.2 4.5-33.2 1.5-7 .7-8.4.7-10.4s0-27.4 1.2-35.4zM288.6 228.5c-.3 1.3-2.2 7.3-7 11M295.7 229.6c-1 3.6-5.5 22.7-6.3 45.4M295 276.3c-.7 2.3-1.7 4.4-3.6 5.8M289 282c0 2.3-1.2 18-1.5 21M286.7 306c-.5 1-2.8 10.3-2.8 18.6M316.2 288.6c-.2 2-1 15.7 3.5 28" fill="none" stroke="#000" stroke-width=".50397"/><path d="M301.2 230.6c-.3 2.3-.8 16.7-.8 17.8 0 1.2 1.6 2.8 2.4 3 0 0-1.6.6-2 6M296.8 244.6c-.3 1.7-2 8.5-3 11.3M307 230.4s4.8 1 5 0c0 0 1.7 29.5 4 46M304.8 234.2l-.6 16.5M306.6 252.8s2 2.8 1.4 4M290.2 228.8l3 .8M298.5 231.3c-.3.8-.6 4.5-.6 4.5M306.6 274.7c.6.8 1.4 2 .8 4.4" fill="none" stroke="#000" stroke-width=".50397"/><path d="M285.6 226s0-3.4 1.2-5c0 0 3.4.7 8.3 1.2 5 .5 9 1 12.7.5 3.7-.4 7.5-1.3 7.5-1.3s1 4.8.5 5.5c0 0-4 .7-8.4 1-4.5.2-12-.5-14.4-1-3.5-.3-6.4-1-7.4-1" fill="#9b5f00"/><path d="M285.6 226s0-3.4 1.2-5c0 0 3.4.7 8.3 1.2 5 .5 9 1 12.7.5 3.7-.4 7.5-1.3 7.5-1.3s1 4.8.5 5.5c0 0-4 .7-8.4 1-4.5.2-12-.5-14.4-1-3.5-.3-6.4-1-7.4-1z" fill="none" stroke="#000" stroke-width=".50397"/><path d="M288.7 226.3l.6-5 1 .2-.2 5-1.3-.2" fill="#fff"/><path d="M288.7 226.3l.6-5 1 .2-.2 5-1.3-.2" fill="none" stroke="#000" stroke-width=".50397"/><path d="M310.8 222.2v5.5l1.3-.2V222l-1.2.2" fill="#fff"/><path d="M310.8 222.2v5.5l1.3-.2V222l-1.2.2" fill="none" stroke="#000" stroke-width=".50397"/><path d="M295 222.2l-.3 5.3h.7l.7-5.3h-1" fill="#fff"/><path d="M295 222.2l-.3 5.3h.7l.7-5.3h-1" fill="none" stroke="#000" stroke-width=".50397"/><path d="M277.4 322.2c-.3 1.3-.8 3.2-1 5.5 0 .5-.5 3.3 1 3.4 1 .2 1.4-2.8 1.4-2.8s-1 3.3.3 3.7c2 .3 2.2-3.7 2.2-3.7-.2 1-1.4 4 .3 4.3 1.8.3 2.3-4 2.3-4s-1.5 4.3.3 4.4c2 0 2-4 2-4s-1 5 1.4 4.5c1.3-.2 1.6-2 2-3 .3-1.5 1.2-3.4 0-6.6-.7-2.4-.4-3-.4-3l-5 3.6c-1 .6-6.6-2.4-6.6-2.4" fill="#ffa54b"/><path d="M277.4 322.2c-.3 1.3-.8 3.2-1 5.5 0 .5-.5 3.3 1 3.4 1 .2 1.4-2.8 1.4-2.8s-1 3.3.3 3.7c2 .3 2.2-3.7 2.2-3.7-.2 1-1.4 4 .3 4.3 1.8.3 2.3-4 2.3-4s-1.5 4.3.3 4.4c2 0 2-4 2-4s-1 5 1.4 4.5c1.3-.2 1.6-2 2-3 .3-1.5 1.2-3.4 0-6.5-.7-2.4-.4-3-.4-3l-5 3.6c-1 .6-6.6-2.4-6.6-2.4z" fill="none" stroke="#000" stroke-width=".50397"/><path d="M307 317.8c-.4-.3-.3 2-.5 3 0 1 .2 3 3.7 3 3.3-.4 6.7-1 8.8-.6 2.2.6 5.3.7 7 .7 1.8 0 3-.3 3.7-.6.7-.3 2.2.4 3 .4.7 0 1.8-1 1.7-1.8 0-1.3-1.3-1.3-3-1.4-1.7-.2-4-.5-5-1-1.2-.3-3.2-1.5-5.7-2l-6 .2c-1 0-7 .3-7.6 0" fill="#ffa54b"/><path d="M307 317.8c-.4-.3-.3 2-.5 3 0 1 .2 3 3.7 3 3.3-.4 6.7-1 8.8-.6 2.2.6 5.3.7 7 .7 1.8 0 3-.3 3.7-.6.7-.3 2.2.4 3 .4.7 0 1.8-1 1.7-1.8 0-1.3-1.3-1.3-3-1.4-1.7-.2-4-.5-5-1-1.2-.3-3.2-1.5-5.7-2l-6 .2c-1 0-7 .3-7.6 0z" fill="none" stroke="#000" stroke-width=".50397"/><path d="M400.2 154.2l90 44c5.2 1 3.3 4 7 8.2 1.6 2 2 2.5 3 2.6 3 0 2.6-4 2-4.6-1.3-1.3-2.8-2.5-2.8-2.5.4-1 1.6 2.2 4.5 2.2 2.3 0 2.6-1.4.4-4-2-2.3-3-2.3-5.8-2.6 0 0-5-2-7-3.3-3.2-2.5-7.7-5.2-9-5.8l-81-43.7c-1.4-.5-5.8-3.6-8.5 1-1.6 3 1.2 5.8 7.2 8.4" fill="#b34b00"/><path d="M400.2 154.2l90 44c5.2 1 3.3 4 7 8.2 1.6 2 2 2.5 3 2.6 3 0 2.6-4 2-4.6-1.3-1.3-2.8-2.5-2.8-2.5.4-1 1.6 2.2 4.5 2.2 2.3 0 2.6-1.4.4-4-2-2.3-3-2.3-5.8-2.6 0 0-5-2-7-3.3-3.2-2.5-7.7-5.2-9-5.8l-81-43.7c-1.4-.5-5.8-3.6-8.5 1-1.6 3 1.2 5.8 7.2 8.4zM398.6 148l41.8 22.2" fill="none" stroke="#000" stroke-width=".50397"/><path d="M453.4 153.8c1 3.3 1 4.2 1 5.3 0 1.3-.4 1.5 0 2.8.7 2.4-.7 5-2.4 8-.8 1.2-1.4 3-2.8 3.7-3.3 2-7.3-.4-9.4-1.3-1.2-.5-1.8-1.3-2-2-.5-1.3-.6-2.5-1-4 0-.4.2-1.3-.5-1-1.2-1.4-1-2-1.5-3s1-2 2-2c-.6-1.8-1-4-.3-5.8.2-.6-.5-2.2.5-1.8 4.6 1.8 10 1.4 14.8 1.4.4 0 .7-.8 1.3-.7.2 0 .3.3.4.5" fill="url(#e)" transform="scale(1.00794)"/><path d="M457 155c1 3.4 1 4.2 1 5.3 0 1.2-.4 1.5 0 2.8.7 2.5-.7 5.2-2.4 8-1 1.3-1.5 3-2.8 4-3.3 2-7.4-.5-9.6-1.4-1-.6-1.7-1.4-2-2.2-.4-1.2-.5-2.3-.8-4 0-.3 0-1.2-.6-1-1.2-1.3-1-2-1.5-3s1-2 2-2c-.6-1.8-1-4-.3-5.8.2-.6-.5-2.2.5-1.8 4.6 1.8 10 1.4 15 1.4.3 0 .6-.8 1.2-.7l.3.5z" fill="none" stroke="#000" stroke-width=".50397"/><path d="M457.4 156.8c.5-.4.2-2.4-.3-4.4 0-1-1-1.4-2-2.6-1.2-1-1.6-1-2.3-1.4-.6-.2-2-.2-2.7-.5-.6-.4-2.3-.2-3.8 0-2 .3-3.2.2-4.7 1s-2.7 1.8-3.2 3.3c-.4 1-1.2 2.5-1 6.8.4 4.4 1.2 3.6 1.2 3.6s1-1.7 1.8-.6c0 0 0-2.3-.3-3.6 0-1.2 0-2.8.5-4.6 0 0 4.7 1.7 9 1.7 3 0 7-.3 7.2-1l.7 2.3"/><path d="M457.4 156.8c.5-.4.2-2.4-.3-4.4 0-1-1-1.4-2-2.6-1.2-1-1.6-1-2.3-1.4-.6-.2-2-.2-2.7-.5-.6-.4-2.3-.2-3.8 0-2 .3-3.2.2-4.7 1s-2.7 1.8-3.2 3.3c-.4 1-1.2 2.5-.8 6.8.2 4.4 1 3.6 1 3.6s1-1.7 1.8-.6c0 0 0-2.3-.3-3.6 0-1.2 0-2.8.5-4.6 0 0 4.7 1.7 9 1.7 3 0 7-.3 7.2-1l.7 2.3z" fill="none" stroke="#000" stroke-width=".50397"/><path d="M436.3 165.2c.7-.3.5.6.6 1 .2 1.2.2 2.7.7 4 .6 1 .8 1.4 2 2 1.5.8 6.2 3.4 9.5 1.3.2 0 .5-.3.7-.5 0 0-1.3 4 3 6.2l15.4 8s1.5 3 .6 6.6c-.2.6-.4 1 .2 1.5 1 .7 2.6 2.7 3.8 6 0 0 3-1.4 3-3.3 0-2-1.3-3-1.6-4.3-.2-1.3-1-4.7-.6-5.7s2-1.5 2.8-2c.7-.3 1.5.5 1.3 1.4-.2 1-1 .8-1.7 1 0 0 1 2 .8 3.4l9.4 4.7-1.6 2.3c-.5.7-1.4 10-4.2 14.6-2.7 4.4-3.6 3.2-4 3.8-.7.5-1.5 1.3-2.2 2-.6.4-3.8.7-4.5-1-.8-1.6-1.3-2.6-3.2-4-2-1.6-6-5.5-6-7.2 0 0-2.2 6.7-2 12.2 0 0-8.2 1.7-16 2-7.5 0-11.3-1.6-11.3-1.6s-1-6.3-.6-7.5c0 0-1.3 4.2-2 5.6-1.3 1.7-2.4 5.3-4.5 5.5-2.2.2-4-2-4.2-3v-6.6h-8.6s-3.7 1.4-5 1.2c-1.3 0-2-1.2-1-1.6l.5-.3c-1 0-2.5.7-2.5.7h-4.2v-.5c.4-1.3 2.6-2.4 4.3-3 1.6-.7 3.4-1.4 4.6-1.5 2-.2 3.2 0 6 .4 1 0 4 .3 6 1.2.4.3 1 .4.7-1-.2-1.3-1-5.4.4-8 1-2 1-3.7.8-5.3-.2-1.8-1-5.6-1-7.4 0-5.6 4.2-8 8-9 4.3-1.5 7-3 7-5.4-.2-2.6.5-7 0-9" fill="url(#f)" transform="scale(1.00794)"/><path d="M439.8 166.5c.7-.3.5.6.6 1 .3 1.3.3 2.7.8 4 .6 1 .8 1.4 1.8 2 1.7 1 6.5 3.5 9.8 1.4l.7-.6s-1.2 4 3 6.2l15.6 8.2s1.7 2.8.7 6.5c-.2.6-.4 1.2.3 1.6 1 .6 2.6 2.6 3.7 6 0 0 3-1.5 3-3.4 0-2-1.3-3-1.6-4.4 0-1.3-1-4.7-.5-5.7.4-1 2.2-1.5 3-2 .6-.3 1.4.5 1.2 1.4 0 1-.8.7-1.6 1 0 0 1 2 1 3.3l9.2 4.8-1.6 2.4c-.5.7-1.4 10.2-4.2 14.7-2.7 4.6-3.6 3.3-4 4-.7.4-1.6 1.3-2.3 2-.5.4-3.6.7-4.3-1-.8-1.7-1.3-2.7-3.2-4.2-2-1.5-6-5.4-6-7 0 0-2.2 6.6-2 12.2 0 0-8.4 1.7-16 2-7.7 0-11.6-1.6-11.6-1.6s-1-6.4-.7-7.7c0 0-1.2 4.2-2 5.6-1.2 1.8-2.3 5.3-4.4 5.5-2.4 0-4-2-4.4-3V215H415s-3.8 1.5-5 1.3c-1.3 0-2-1.2-1-1.6l.5-.3c-1.2 0-2.6.7-2.6.7h-4.3v-.4c.4-1.3 2.6-2.3 4.3-3 1.7-.6 3.4-1.3 4.6-1.4 2-.2 3.3 0 6.2.4.8 0 4 .4 5.8 1.3.5.2 1 .3.8-1-.3-1.4-1.2-5.6.3-8.3 1-2 1-3.6.8-5.2-.2-1.8-1-5.6-1-7.4 0-5.6 4.3-8 8.2-9 4.2-1.4 7-3 7-5.4-.2-2.7.5-7 0-9z" fill="none" stroke="#000" stroke-width=".50397"/><path d="M403.6 215c.7-.6 1-1 1.8-1.3l2-1c.7-.4 1.8-.5 2.4-1M409.4 214.5l.8-.5c.3 0 .7 0 1-.3 0 0 0-.2.2-.2 1 0 1.8-.5 2.4-1.3M476.7 203c-1 .6-3 2-3.4 5 0 1.6-1 3-1 3M485.5 203.3c-.6 1.7-.7 7.4-6 13.4M484.3 195.3c.5 1.2 1 2.2-.2 3M469.7 209c-1-2.6-4.5-2.4-4.5-4.8" fill="none" stroke="#000" stroke-width=".50397"/><path d="M464.6 208.7c.3-3 1-4.5.4-8.7 0-1.2-.4-6 0-8 0 0-1.6 7.7 3.8 9.2M434.3 213.7c0-4-.8-6.2-.8-6.2-1.2-5.6 1-7.7 0-9-.7-1.3-2-4-.3-9 0 0-3 10.5 4.5 10.5 7.4 0 7-2.7 7-2.7" fill="none" stroke="#000" stroke-width=".50397"/><path d="M465 192c0 2 0 8.3-9 8.3-2.7 0-5.7-2-7.4-3.2M446.4 194.3c.3-2 .3-4.4.3-7M460.4 184c-2.5-.4-4.3-.7-9-.7M451 177c-.4 2.3.4 5.8-3.8 6.3M442.8 176.2c.6 1.6.6 3.3 1 4.4M443.5 183.3c-1.7 0-5-.3-8.7.3M433 205.8c-.7 1.6-1 3.8-3.5 6.2M461.3 200.6c-.4 1.3 1.6 5.7.2 9.3-1.4 3.4-1 7.5 1 11M456 202c1 1.6 2.2 3.2 2.5 4.6M452 205c0 1 2.6 8.7 4.6 11 0 0-3.6 1.3-3 6.5M446.2 201.4c0 1.4.2 1.7-.8 2.5M442.8 204c-1.3 1.5-5.4 6.4-4.5 9M445.6 206.6c-.2 1-.2 6.3.6 9M448.3 215.4c1.2 0 2.8.8 3 2.7M442.6 215c-1-.2-3.2 1.7-3.2 7.2M423.6 212c2 .5 3.2 1.6 2.5 1 1.2 1 2.3 1.6 2.3 1.6M451 161.5c.7 1.8.2 1.3.5 2.4M441.2 166c0 .7-.6.5-1 .5" fill="none" stroke="#000" stroke-width=".50397"/><path d="M459.6 199.4c-.6 0-1-.4-1-1 0-.3.4-.7 1-.7s1 .4 1 .8c0 .5-.4 1-1 1"/><path d="M459.6 199.4c-.6 0-1-.4-1-1 0-.3.4-.7 1-.7s1 .4 1 .8c0 .5-.4 1-1 1z" fill="none" stroke="#000" stroke-width=".302382"/><path d="M436.6 199.7c-.6 0-1-.4-1-1 0-.4.4-.7 1-.7.5 0 1 .3 1 .8s-.5 1-1 1"/><path d="M436.6 199.7c-.6 0-1-.4-1-1 0-.4.4-.7 1-.7.5 0 1 .3 1 .8s-.5 1-1 1z" fill="none" stroke="#000" stroke-width=".302382"/><path d="M457.5 160.2c-1-.7-2.7-.2-3.5 0-1.5.8-.7 2.4-.2 3.8.2.7 1 1.7.5 2.4-.4.8-.7.4-1.6.5 0-.4-.8 0-1 0-.7-.2-1 .3-1.5 0-.6-.2-.5-1-.3-1.6M450 161c0-.5-1.4-1-2.8-1-2.2 0-2.4 0-4.2 1.3" fill="none" stroke="#000" stroke-width=".50397"/><path d="M457 161.5c-.6 0-1-1-3 .4-1.2.5 1.8 1.3 1.4 1.2 1.2.2 1.6-.5 1.7-1 0-.3.3-.7 0-.7" fill="#fff"/><path d="M457 161.5c-.6 0-1-1-3 .4-1.2.5 1.8 1.3 1.4 1.2 1.2.2 1.6-.5 1.7-1 0-.3.3-.7 0-.7z" fill="none" stroke="#000" stroke-width=".302382"/><path d="M455.8 162.8c-.5 0-1-.4-1-.8 0-.6.5-1 1-1 .4 0 .7.4.7 1 0 .4-.3.8-.7.8"/><path d="M455.8 162.8c-.5 0-1-.4-1-.8 0-.6.5-1 1-1 .4 0 .7.4.7 1 0 .4-.3.8-.7.8z" fill="none" stroke="#000" stroke-width=".302382"/><path d="M454.5 170.3c-.4-.6-1-1-2-.4 0-.3-1.6-.5-1.6-.5-1 0-1.4.3-2.3.7M454.3 170.8c-1-.6-3.2-.2-5.6-.2M449 171.4c1.7.5 3.4.8 5 0" fill="none" stroke="#000" stroke-width=".50397"/><path d="M448.7 162.4c0-.8-1.8-1.2-2.8-.8-1 .3-.7 0-1.6.6 1 .2.7.3 1.5.7.8.3 1 .7 2.2 0 .3 0 .7-.4.8-.8l-.3.2" fill="#fff"/><path d="M448.7 162.4c0-1-1.8-1.2-2.8-1l-1.6.8c1 .2.7.3 1.5.7.8.3 1 .7 2.2 0 .3 0 .7-.4.8-.8l-.3.2z" fill="none" stroke="#000" stroke-width=".302382"/><path d="M447 163c-.4 0-.7-.4-.7-1 0-.5.4-.8.8-.8.5 0 .8.3.8 1 0 .4-.3.8-.8.8"/><path d="M447 163c-.4 0-.7-.4-.7-1 0-.5.4-.8.8-.8.5 0 .8.3.8 1 0 .4-.3.8-.8.8z" fill="none" stroke="#000" stroke-width=".302382"/><path d="M469 241.2c-1.3-8-5-14.5-5.2-15 0 0-3.8.7-10.5 1.3-6.7.7-8.5.4-11.5.2l-7-.8s-1 2.3-1.2 4.8c-.3 5-2.2 27.6-2.5 33.6 0 0-.7 3.6-.7 12.4 0 9.5-2.6 29-2.6 39.3l2.6.6s14.5 1.2 14.5-.8.8-27-1.3-42c0 0 .5-3 1.3-5.6.8-2.4 4.3-10 4.3-11.7 0 0 5.8 16 6.2 18.8.3 2.6 1 38.4 1.7 41.3 0 0 8 6.4 9 7 1.3.5 9.2-3.4 9.4-4.4.3-1-.8-13.2-4.6-33.2-1.4-7-.6-8.4-.6-10.4s0-27.4-1.3-35.4" fill="#fff"/><path d="M469 241.2c-1.3-8-5-14.5-5.2-15 0 0-3.8.7-10.5 1.3-6.7.7-8.5.4-11.5.2l-7-.8s-1 2.3-1.2 4.8c-.3 5-2.2 27.6-2.5 33.6 0 0-.7 3.6-.7 12.4 0 9.5-2.6 29-2.6 39.3l2.6.6s14.5 1.2 14.5-.8.8-27-1.3-42c0 0 .5-3 1.3-5.6.8-2.4 4.3-10 4.3-11.7 0 0 5.8 16 6.2 18.8.3 2.6 1 38.4 1.7 41.3 0 0 8 6.4 9 7 1.3.5 9.2-3.4 9.4-4.4.3-1-.8-13.2-4.6-33.2-1.4-7-.6-8.4-.6-10.4s0-27.4-1.3-35.4zM461.5 228.5c.3 1.3 2.2 7.3 7 11M454.3 229.6c1.2 3.6 5.5 22.7 6.3 45.4M455 276.3c.8 2.3 2 4.4 3.7 5.8M461 282c.3 2.3 1.3 18 1.6 21M463.4 306c.6 1 2.7 10.3 2.7 18.6M434 288.6c0 2 1 15.7-3.7 28" fill="none" stroke="#000" stroke-width=".50397"/><path d="M449 230.6c0 2.3.8 16.7.8 17.8 0 1.2-1.7 2.8-2.6 3 0 0 1.7.6 2 6M453.3 244.6c.2 1.7 2 8.5 3 11.3M443 230.4s-4.7 1-5 0c0 0-1.7 29.5-4 46M445.4 234.2l.5 16.5M443.5 252.8s-2 2.8-1.5 4M459.8 228.8l-3 .8M451.7 231.3c.2.8.5 4.5.5 4.5M443.5 274.7c-.7.8-1.5 2-1 4.4" fill="none" stroke="#000" stroke-width=".50397"/><path d="M464.5 226s0-3.4-1.2-5c0 0-3.5.7-8.4 1.2-5 .5-9 1-12.7.5-3.6-.4-7.4-1.3-7.4-1.3s-1 4.8-.6 5.5c0 0 4 .7 8.3 1 4.5.2 12-.5 14.6-1 3.2-.3 6.2-1 7.2-1" fill="#9b5f00"/><path d="M464.5 226s0-3.4-1.2-5c0 0-3.5.7-8.4 1.2-5 .5-9 1-12.7.5-3.6-.4-7.4-1.3-7.4-1.3s-1 4.8-.6 5.5c0 0 4 .7 8.3 1 4.5.2 12-.5 14.6-1 3.2-.3 6.2-1 7.2-1z" fill="none" stroke="#000" stroke-width=".50397"/><path d="M461.4 226.3l-.6-5-1 .2.2 5 1.4-.2" fill="#fff"/><path d="M461.4 226.3l-.6-5-1 .2.2 5 1.4-.2" fill="none" stroke="#000" stroke-width=".50397"/><path d="M439.4 222.2l-.2 5.5-1.2-.2V222l1.4.2" fill="#fff"/><path d="M439.4 222.2l-.2 5.5-1.2-.2V222l1.4.2" fill="none" stroke="#000" stroke-width=".50397"/><path d="M455 222.2l.4 5.3h-.8l-.7-5.3h1" fill="#fff"/><path d="M455 222.2l.4 5.3h-.8l-.7-5.3h1z" fill="none" stroke="#000" stroke-width=".50397"/><path d="M472.8 322.2c.2 1.3.8 3.2 1 5.5 0 .5.4 3.3-1.2 3.4-1 .2-1.4-2.8-1.4-2.8s1 3.3-.3 3.7c-1.8.3-2-3.7-2-3.7.2 1 1.4 4-.4 4.3-1.8.3-2.4-4-2.4-4s1.6 4.3-.2 4.4c-1.8 0-1.8-4-1.8-4s1 5-1.5 4.5c-1.3-.2-1.5-2-2-3-.3-1.5-1.3-3.4-.2-6.6 1-2.4.6-3 .6-3s3 2 5 3.6c1.2.6 6.7-2.4 6.7-2.4" fill="#730000"/><path d="M472.8 322.2c.2 1.3.8 3.2 1 5.5 0 .5.4 3.3-1.2 3.4-1 .2-1.4-2.8-1.4-2.8s1 3.3-.3 3.7c-1.8.3-2-3.7-2-3.7.2 1 1.4 4-.4 4.3-1.8.3-2.4-4-2.4-4s1.6 4.3-.2 4.4c-1.8 0-1.8-4-1.8-4s1 5-1.5 4.5c-1.3-.2-1.5-2-2-3-.3-1.5-1.3-3.4-.2-6.5 1-2.4.6-3 .6-3s3 2 5 3.6c1.2.6 6.7-2.4 6.7-2.4z" fill="none" stroke="#000" stroke-width=".50397"/><path d="M443 317.8c.4-.3.4 2 .6 3 0 1-.2 3-3.6 3-3.5-.4-6.8-1-9-.6-2 .6-5.3.7-7 .7-1.7 0-2.8-.3-3.5-.6-.8-.3-2.4.4-3 .4-.8 0-2-1-1.8-1.8.2-1.3 1.3-1.3 3-1.4 1.8-.2 4-.5 5-1 1-.3 3.2-1.5 5.8-2l6 .2c.8 0 7 .3 7.4 0" fill="#730000"/><path d="M443 317.8c.4-.3.4 2 .6 3 0 1-.2 3-3.6 3-3.5-.4-6.8-1-9-.6-2 .6-5.3.7-7 .7-1.7 0-2.8-.3-3.5-.6-.8-.3-2.4.4-3 .4-.8 0-2-1-1.8-1.8.2-1.3 1.3-1.3 3-1.4 1.8-.2 4-.5 5-1 1-.3 3.2-1.5 5.8-2l6 .2c.8 0 7 .3 7.4 0z" fill="none" stroke="#000" stroke-width=".50397"/><path d="M290.7 325l-.2-4.6 2 1.6.5-3.5c.8-.3 2 1.4 2 1.4v-3.7l3 3.3s-.3-2.8.7-4.4c0 0 2.2 2 2.2 4.2 0 2 1.8-2.8 1.8-2.8l1.7 5.2 1.3-2 1 4 2.6-3.4 2 4.2 4.3-.3.5 2.4 2-2 2.4 1.5s2.2-.6 3.3-.6c1 0 2.3 1.4 2.3 1.4s1-1.4 1.7-2c.8-.4 2 1 2.2 1.7l1.6-3s2.2 2.2 2.5 3c0 0 .3-2.4.8-3.3.6-.8 1.4.3 2 1.4l1.3-4.4s1.5.3 2.5 2c1 1.5 1-2.5 1-2.5s2.6 3 3.2 5.4c0 0-17 5.8-28.8 4.2-14-2-25.5-4.5-25.5-4.5" sodipodi:nodetypes="ccccccccsccccccccccscscccsccccczc" fill="#5ac800"/><path d="M290.7 325l-.2-4.6 2 1.6.5-3.5c.8-.2 2 1.4 2 1.4v-3.7l3 3.3s-.3-2.8.7-4.4c0 0 2.2 2 2.2 4.2 0 2 1.8-2.8 1.8-2.8l1.7 5.2 1.3-2 1 4.2 2.6-3.6 2 4.2 4.3-.3.5 2.4 2-2 2.4 1.5s2.2-.6 3.3-.6c1 0 2.3 1.4 2.3 1.4s1-1.4 1.7-2c.8-.4 2 1 2.2 1.7l1.6-3s2.2 2.2 2.5 3c0 0 .3-2.4.8-3.3.6-.8 1.4.4 2 1.4l1.3-4.4s1.5.3 2.5 2c1 1.6 1-2.5 1-2.5s2.6 3 3.2 5.4" sodipodi:nodetypes="ccccccccsccccccccccscscccsccccc" fill="none" stroke="#060" stroke-width=".50397"/><path sodipodi:nodetypes="cccccccccccccccccscccccccccczc" d="M406.2 324.6s.8-2.3 2-3.4c0 0 2 2.5 2 3.4 0 0 .7-.3 1.8-1.2l1.6 1.7 2-1.3 1.8 1.7 3.4-1.5 1.3 1.4 5.3-.6 2 .8 1.7-2.4 1.8 2 2.7-3s1.3 1.2 1.6 2c0 0 2.4-1 3-2 0 0 2-.7 2.3.6 0 0 1.4-1 1.3-2-.2-1.2 1.5-.4 2 1 0 0 .6-2.2 2.2-2.4 0 0 1 1.3.8 3.7 0 0 2.5-1.8 3.6-2 0 0 .5 2.7-.3 5.2 0 0 2.4-4.2 3-2.8 0 1 .8 3.6 0 5.5l2.4-1.5.8 2.8 2.4-.5s-14.4 2.2-28 1c-13.6-1.4-26.4-6.2-26.4-6.2" fill="#5ac800"/><path d="M406.2 324.6s.8-2.3 2-3.4c0 0 2 2.5 2 3.4 0 0 .7-.3 1.8-1.2l1.6 1.7 2-1.3 1.8 1.7 3.4-1.4 1.3 1.4 5.3-.6 2 .8 1.7-2.4 1.8 2 2.7-3s1.3 1.2 1.6 2c0 0 2.4-1 3-2 0 0 2-.7 2.3.6 0 0 1.4-1 1.3-2-.2-1.2 1.5-.4 2 1 0 0 .6-2.2 2.2-2.4 0 0 1 1.3.8 3.7 0 0 2.5-1.8 3.6-2 0 0 .5 2.7-.3 5.2 0 0 2.4-4.2 3-2.8 0 1 .8 3.6 0 5.5l2.4-1.5.8 2.8 2.4-.5" fill="none" stroke="#060" stroke-width=".50397"/><path sodipodi:nodetypes="ccccccccscscscccscccccscscscscc" d="M392.4 332.8c7.3-4 11-8 14-12.6-3 2-2 1.7-3.6 1.5-1.4-.3-2.4-1.3-2.4-1.3s-1.3 1.5-3 1.3c-1.8-.3-3.3-1.3-3.3-1.3s-2.2 1.5-4.4 1.4c-1.7 0-3-1.6-3-1.6s-4 1.3-5 1.3c-.8 0-3.7-1.3-3.7-1.3s-2 1.2-3 1.2c-1.4 0-4.6-1.4-4.6-1.4s-3 .8-4.5.8-3.7-.8-3.7-.8-2.5 1-4 .8c-1.5-.3-2.6-.8-2.6-.8s-2.8 1-4.6.8c-1.6-.3-3.6-1.5-3.6-1.5s-.3 1-3.7 1.5c0 0 1.7-.5 0 0 3 4.4 7.7 8.7 12 11.6 3.2-.8 4-2 4-2s3 1.7 4.7 2c1.7.3 4-1.3 4-1.3s2 1 3.4 1.4c1.4.3 3.2-1 3.2-1s2.6 1 4 1c1.5 0 4.2-1 4.2-1s2.6 1.5 3.8 1.5c1 0 2.5-1 2.5-1s.8 1 3 .8z" fill="#5ac800"/><path d="M375.3 342c10-4.2 11.7-5.3 17.7-9-1 0-4-1-3-1.3 0 0-1.2 1-2.4 1-1 0-4.4-1.3-4.4-1.3s-3 .8-4.5.8c-1.4 0-3.5-.8-3.5-.8s-2.7 1-4 .8c-1.5-.3-2.6-.8-2.6-.8s-3 1-4.6.8c-1.7-.3-3.8-1.4-3.8-1.4s-2.5 1.3-4 1.5c4.8 3.5 9.8 7 19 9.6z" sodipodi:nodetypes="cccscscsccccc" fill="#ffd800" stroke="#000" stroke-width=".604764"/><path sodipodi:nodetypes="cccccccscscscccsccc" d="M407 320.3s-2.5 1.5-4 1.3c-1.4-.3-2.4-1.3-2.4-1.3s-1.3 1.5-3 1.3c-1.8-.3-3.3-1.3-3.3-1.3s-2.2 1.5-4.5 1.4c-1.7 0-3-1.6-3-1.6s-4 1.4-5 1.4c-.8 0-3.7-1.3-3.7-1.3s-1.8 1.3-3 1.3c-1 0-4.4-1.4-4.4-1.4s-3 .7-4.5.7c-1.3 0-3.4-.8-3.4-.8s-2.6 1-4 .7c-1.5-.3-2.6-.8-2.6-.8s-3 1-4.6.7c-1.7-.3-3.8-1.4-3.8-1.4s-.3.8-3.6 1.4" fill="none" stroke="#000" stroke-width=".604764"/><path sodipodi:nodetypes="cscccccccccccccccccccc" d="M396.2 334.7c.6-.5-4.6 10.7-17.2 11.3-17.6.8-32.6-8-32.6-8s1.8-3 3-4c0 0 2.4 2 3.2 4.5 0 0 .3-1.6 1-3 0 0 3.2 1.4 3.7 3.3 0 0 1-2 2-2.4.7-.6 1.6 2 1.6 3.8 0 0 1.8-2 3-2.2 0 0 2 1 2.7 4.6 0 0 2-2 2.7-1.6 0 0 2.4 1.6 1.8 3.8-.3 1.3 2.5-1.4 5.8-2.2l3 2.2s2.7-3.6 3.5-5c0 0 2.3 1 2.3 2.3 0 0 1-3.8 1.8-4.2.8-.5 2 1.2 2 2.4 0 0 .2-3 2-3.6 0 0 1.5 1 1.5 2.2 0 0 1.8-3.3 3.2-4z" fill="#5ac800"/><path d="M423.6 215v55.3c0 11-1.5 54.8-48.5 71.8-47-17-48.5-60.7-48.5-71.7V215h97" fill="none" stroke="#000" stroke-width="1.00794"/><path d="M346.3 338s2-3 3-3.8c0 0 2.4 2 3.2 4.4 0 0 .3-1.7 1-3 0 0 3.2 1.3 3.7 3.3 0 0 1-2 2-2.6.8-.6 1.6 2.2 1.6 3.8 0 0 2-2 3-2.2 0 0 2.2 1 2.8 4.6 0 0 2-2 2.7-1.6 0 0 2.5 1.6 1.8 4-.2 1 2.6-1.6 6-2.4l3 2.3 3.5-5s2.2.8 2.2 2c0 0 1-3.8 1.8-4.2.8-.5 2 1.3 2 2.4 0 0 .3-3 2-3.6 0 0 1.5 1 1.5 2.3 0 0 1.7-3.5 3-4.3" fill="none" stroke="#060" stroke-width=".50397"/></svg>