<svg xmlns="http://www.w3.org/2000/svg" width="900" height="600"><path fill="#efb22d" d="M0 0h900v600H0z"/><path d="M0 600h900V0z" fill="#e23d28"/><g fill="none" stroke="#000" stroke-width=".5"><g fill="#fff"><path d="M481.7 187.6c-5-1.8-8.2.8-8 7.2.2 6.5 3.5 10.2 8.5 7.8l-.5-15z"/><path d="M486 175.5c-4-3.2-8-1.8-9.8 4.3-2 6.2 0 10.7 5.6 10l4.3-14.3z"/><path d="M493 164c-3.5-4-7.6-3.3-10.5 2.5-2.8 5.7-1.6 10.6 4 10.8L493 164zM488.5 220.6c-6 2.2-6.8 10.6-3 15.8 4 5 11 6 15 0l-12-15.8z"/><path d="M481.4 203c-5.8-2-11 5.7-12 12.8-1 8.8-13.6 11.7-6.7 25 1.5-8.5 7-13 11.6-13.4 4.5-.4 11.3-1.3 14.2-6.8l-7-17.7zM499.8 237.3c-6.8 1.6-7.8 10.7-3 17 4.2 5.6 17 4.3 16.8-1.2l-13.8-15.7zM519 291.6c.2-5.8-9-8-13.6-7-4.5 1.2-13 0-15-5-1.7 4 .6 8 7 10.2 5 1.6 5 5.2 3.5 6.8 3.6.6 14.5.6 18-5z"/><path d="M513.6 254.6c-6.6-3-10.5 1.5-13 5.8-3.7 6.2-15.2-1.8-19 6.6 5.2-2.3 10.5 2.5 13 4 7 4.8 20.8 3.4 22.7-7.6l-3.7-8.8z"/><path d="M517.5 262.3c-6.6 5-9.2 11-9 15 0 4 5.8 12.8 12 13.3 3.4-7.2 5.2-22.5-3-28.3zM490 293.4c0-2.5 3.7-3.4 6-2.6 2.5.8 6.2 3.2 5 5.8l-11-3.2zM453.7 280.2c-.6-3 4-8 10.3-5.2 6.3 2.7 7 8 4.5 10l-14.8-4.8z"/><path d="M469 285.5c-.5-1.6 4-5 11.8-3 7.7 2 9.6 7 9.3 11l-21-8zM453 280.2c4-3 2.4-9-1.2-10.7-6.6-3.2-4.2-11.6-8.4-13.2-4.2-1.6-8.2-4.5-8.3-7.4-2 4-.7 7.6 2.2 10.2 2.8 2.6-2.3 13 1.4 15.8l14.3 5.2zM366.6 278c-3.3-5.4-11.4-4.4-14.8-.7-3.3 3.7-3 9 .4 11.5l14.4-11z"/><path d="M386 270c-1.3-7-10-8-14.5-6-4.7 1.7-8 8.7-5 14l19.5-8z"/><path d="M398.8 269c3-6-3-14.8-9.6-16-5.7-1-12.3-1-14.5-6.7-1.4 5 2.2 8 6.4 10.7 4.3 2.7-.7 9.8 6 13.8L399 269z"/><path d="M398.2 269.2c-1.4-4.2 1.4-10 7.2-9.5 5.8.4 9 4.6 6.6 10l-13.8-.5z"/><path d="M411 269.6c-.7-4.5 3-9.7 8.6-8.5 5.6 1.3 8.3 6 5 10.8l-13.5-2.2z"/><path d="M424 271.6c-.7-4.5 3.2-9.5 8.8-8 5.6 1.5 8 6.2 4.5 11l-13.4-3zM326.7 345.3c-10.8 0-13.4 2.6-15 13.7-2 14 17 15.5 15-13.7z"/><path d="M331.6 331c-16.6-6.4-25.6 19.8-42 15.2 5.8 9.3 20 0 25.4 1 9 1.5 28.5-2 16.6-16.3zM320.8 366.8c-8.2-3.7-17 8.8-15.5 14.3 2 7 20.8 1.4 15.5-14.2zM282.5 420.8c4.5 1.3 10 4 9 12.6-1 8.7-17.4 26.4-32.2 27.4-14.8 1-20.2 18.8-33 13.8 12-2.2 12-15.8 21.4-20-6.8-2.4-10.3 13-19 13s-13 13.8-23.5 12.8c-10.6-1-11.8 17-33 17-16.3.2-36.4 19.2-43.6 11 15.7-2.2 22-11 31.5-20.6 15.2-15.4 32.3-8.5 38-22.2-6.8 4.7-15 7-22.8 6.8-10-.2-20.7 15.7-31.8 8.7 6.4-.8 10.6-3.5 17.4-10.6 7-7.2 17-2.5 25-10 12.6-11.5 23.4-2 35.5-16.4-3.4-1.6-10.6-.5-17.4 3-7 3.6-15.6-2.3-23.3 2 1-9.6 19-4.2 30.3-10.8 12.7-7.4 23.2-5.2 33.3-4.3-14-.2-19.5-13.5-38.8-9.6-8.4 1.7-15-11.6-23.5-4.8.2-5 9-9 18-4.2s12.7-4.3 30.6 7c7.4 4.7 20-2.8 28.2 2-1-3-5.6-4.8-11-4.4 3.3-7 25.2-6 34.7.8z"/><path d="M296.8 410.4c-7-5.5-17 1-23.7-1.5 0 4.4 2.4 11.2 9.8 13.8 2.2-1.6 12.4-10.5 14-12.4z"/><path d="M308 394.8c-11.2-5.7-13.2 8.3-21.8 5.4.3 4 3.5 9 10.6 10.2l11-15.6z"/><path d="M314.5 382c-16.4-6.4-18.5 9.4-28.2 6.3 2.3 5.5 16 8.4 23.2 6.5l5-12.7zM337 313c-4.3-6-13.5-1-15 6-1.4 7.4 2 17.5 8.3 15.2L337 313z"/><path d="M348 293.7c-7.4-1.8-16-1-15.2 6.4-3 1.4-3.7 11 4.2 13l11-19.3z"/><path d="M353 288.7c-7.3-8.7-15.5-8.5-20.2-4.8-8.5 6.6-16.8 2.8-17 9.5 5-4 9.6.8 13.8-.6 4.2-1.6 7.3 6.5 19 3l4.5-7.3zM335.3 418.6c1 2 8 3 11.4-.5 4.5-4.6-.5-17.6-7.6-18.6-7-1-7.6 14.7-3.7 19.2z"/><path d="M327.2 419c10 3.6 14.5-4.8 9-10-1.4 1.7-6.7 8-9 10z"/><path d="M289.2 432.8c-2 5.8-12 6.7-23.2 24.7s-22 10.5-24.8 23c13.6-11 24.2-3.8 32.2-14.6 12.3-16.5 22.3-14 27-25.2 6.8-15.8 36.5-15.4 38-40.2-10-2-41.5 24.8-49.2 32.2zM543.2 189.4c13 4 13.2 21 28 26.4 15 5.4 16.3 18.6 28.4 15.4-11.3-3-10.5-16-22.2-19.3-13.8-4-19-25-30-28M602.3 276.8c2.3 5 2 14.3-6 16.7 4.2 2.8 10.7.2 14.2-5.8-5.3 11.8-1.7 22.4 6.6 24.5-4-8.2 5-12 2.2-17.4 5.3 2.3 10 9.5 9.8 14 7-7.7-5-18-3-25.3l-23.7-6.7zM519 359.5c-8-7-11.3 1.8-15.2-1.2-3.6-2.8-8.5-3.2-10.3-.4 6.8 0 3.5 5.4 16.6 6.7-13 1-10.6 15.5-19.4 14.8 9.3 8.8 14.2-8 21.7-5.2-2.2.7 3.6 6-.5 13 6.6 0 9.2-9 10-13.8l-3-14zM345.2 434.7c-3-2.4-11.2-3.6-14.5-1.6-3.2 2-2 2.5 1.8 2.8 4 .3 9 6.6.5 7-4 0-2.6 9.4-10.6 10 3.3 4 12.7 1.4 16-3-.6 3.6 4.3 7 2.3 11.3 6 .7 2.5-12 12-11.3-4 .4-2.3 9 4.4 7-4 1.8-1.8 6.5 2.7 5.4-3 1-3.8 4.7.2 6.8 3.7-5.3-.6-24.3-14.8-34zM695.8 257c12.4 0 22.4-10 22.4-22.2 0-12.4-10-22.4-22.4-22.4-12.3 0-22.3 10-22.3 22.4 0 12.3 10 22.3 22.3 22.3z"/><path d="M579.3 284c6.8-6.4 17-9.6 24-4.8 7.2 4.8 30.7 10.6 42.3 2.6 11.6-8 17-12.3 22.2-11.3 4 5.8 8.6 8.5 14.4 9 1.7 2 8 3.6 11.6 3 5 1.4 11.4-.3 16.4-5.7 7.7 1 15-4.7 17.7-13.4 8-1 8.6-10 3.4-16.2-4.8-1-1-17.3-18.7-14 7.5 4.5 1.8 13.5 8 17.7-4.3 0-9.6 1.6-11 8 1.7-4.4-.2-7.3-1.3-8.3.2-3.7-8-12.8-15.8-9.5 5.6 1.2 2.4 10 6.5 13.5-2.8.2-6 1.6-7.7 4.2-2-3.8-9.5-7.7-14-8 0-1.3-.2-3.8-.8-5-2-4-3.7-8.6-3-14.5-3.7 4.2-7 10-9 14.2-6-4.2-21 2-28.2 3.5-7 1.7-31-2.2-36.4-8-5.6-5.8-16.2-9.3-26.2-12.2-13.7-4-13.8-19-29-29.3-.3 18.6 28 78 34.5 84.3zM421.5 426.3c12 0 21.6-9.6 21.6-21.6 0-12-9.6-21.5-21.5-21.5-12 0-21.5 9.6-21.5 21.5 0 12 9.6 21.6 21.5 21.6z"/><path d="M370 409.7c4.4 5.7 11.8 5.4 14.8 5 2.6 6.6 10.8 6.5 14.4 10.2 3.5 3.6 15.6 3.3 19 1.2-3-.4-7.3-2.3-11.3-5.7-5-4-2.7-12.2-6.6-15 3-3.3 3.4-8.6 2.8-10.7 3-1.8 5.3-4.7 5.6-6 5.3-.5 10-3.2 12-5.3 2.7 2.6 9.6-.8 13.3 3.5 1-10.6-9.2-16.2-16-12.7-2.7-1.4-10-.5-11.3 1.5-2.2-1-8.5 2.2-11.4 4.3 3.2-1.7 3.7-7 2.4-9 2.7-1 5.8-4.7 6-7.5 4 .7 9.8-2 12.4-1.2-4-5.5-11-7.5-18-7-7.5.4-10.6 5.6-11.6 11-4.3 2.7-5.8 11.4-4 14.5-2.6 0-5 2.3-6 3.7-3.3-1.5-8-2.5-11.6-2.5M366.3 373.2c-1.4-4.2.5-8 1.5-11.3 2.5-8.5 1-10.7-6.6-9.6-.7 4 3.2 17.3 5 20.8z"/><path d="M360.8 353c2 1.8 8.7 2.7 9.5-3.4.8-7-2-9.7-8.2-7-.3 1.6-1 8.2-1.2 10.3z"/><path d="M362.2 342.4c2.6 1 8 3 11.2-2.8 2.6-5-.8-9-6-8.6-1.4 1.5-4 6.6-5.2 11.4z"/><path d="M367 330.5c.6 2 7.2 8.4 12 3.7 5-4.6 5-11.5-2.4-14-2 .2-7.7 7-9.6 10.3z"/><path d="M376.6 320c1.5 4 6 11 14.4 7.8 8.3-3.2 4.8-13.7 1-15.8-2.3.2-11.5 4.4-15.4 8z"/><path d="M392 312c-.7 3.6 0 13.2 11.3 13 11.5 0 8.3-13.5 5.4-15.4-4.7 0-12.6.2-16.8 2.4z"/><path d="M409 310c-1 2.8-4 20.8 18.3 16 3-.8 10.5-17.4-18.2-16z"/><path d="M421.4 311.7C419 314 425 332 440 329c15.2-3 2.5-20.2-18.6-17.3z"/><path d="M434.3 314.4c-2.5 5 1.2 19.8 19.8 19.8 17 0-.8-19.4-19.7-19.8z"/><path d="M449 318.8c-1.3 2.8-2.8 18.5 19.2 19.8 16 1 12-21.6-19.3-19.8z"/><path d="M472.6 325.4c-2.8 4.8-5.7 17 18.5 18 15.5.5 6-17.7-18.4-18z"/><path d="M492.7 329c-3.6 5-1 14.4 8 16.2 11.3 2.2 13-8.4 5.2-13.5-7.8-5.2-13.3-2.6-13.3-2.6z"/><path d="M503.6 331.3c-2.5 4.6-1 15.5 16 15.5 3.7 0 17.2-13.8-16-15.5zM371.5 541.3c13.8 0 25-11.2 25-25 0-14-11.2-25-25-25-14 0-25 11-25 25 0 13.8 11 25 25 25z"/><path d="M555 177c-1.8 2-5.8 8-6.6 10-8.4 25.2 14 44 27 71 10.3 21.2 9 54.7-7 76-5.6 7.2-4 9.3-11 16.7-2.7 2.8-5.8 6.4-4.8 16.7 4.5-1.6 11 2.6 12.2 6 3.2-1.5 7.7-.8 9.3 1 5.6-2.5 10-1.2 15 4 4-.7 8.6 0 12.8 4.5 2.3-4.7 6.8-6.3 10-5.3-.3-5.8 5.5-10 10.6-7.7-1.6-7.7 5.5-13.5 12.3-11.3 5.8-4.5 17.4-4.8 23.2 2-10.5-3-10 8-18.8 7 2.2 6.5-3.6 10.2-9.4 12.3 3.7-1.8 7.8-4 9-1.7 3.3-2.8 9.7-1.7 11.3-.3 4.4-1.3 8.5-.3 10.4 5 5.8 3.4 9.7 12.4 5.5 19.2-1.4-7-6.2-6.8-8-9.7-4.7 1.6-9.2 1.6-10.5-1.3-2.5 2.6-11.2 5-15 1-1.5 5.8-6.5 10.6-12.3 10.6 1.6 4.5-3 12.3-6.5 16 5.5 3 4 9.5 2.6 13.3 8.4 1.4 1.3 8.8 15.8 13.6-7 2.3-20.8 0-22.8-8.7-7-.4-12-7.5-11.6-15-5.4-5-6.2-12.4 1.3-17.6-6.5 2-10-8.3-19.4-4.2-4.6 2-17-1.4-16.7-5.8-2 3.3-13.8 2-15.4-3.5-4 2-13-1.5-12.7-7-5 2.4-12-1.6-11.6-6.8-4.6-.6-5-4.8-4.8-8.3-4.2-2-3-6-1.4-11-3-3.2-1.7-7.7.6-11.8-3.2-3.3-2.6-7-1.6-11.6-15.5-1.3-34.8-5-79.2-18.7-67-20.7-85 27.6-70.2 57.8 17 35-2 42.5 4 68.6 6 1.3 9.2 6.5 9 12 3.5 0 6 3.5 4.8 10 3-.7 7 .2 9.6 2.8 2.2-4.2 9.6-5 13.5-.3 8.4-.8 12.5 6 12.2 14.4 4.4 8 2.8 17.8-2 24 .5-3.3 0-8-.2-11-.3-5.3-7.7-6.4-7-10.8-3.8.3-7.5-1.7-8.7-4.6-2.2 2-5.4 2.5-8.2 1.6 4.4 2 7.8 9.6 6.5 14.8 2.2 3.8 1.8 11-1 14-1.3 6.3-6 8.5-12.4 5.8 3.5-2.3 4.8-6.3 4.6-9.7-2.3-2-3.4-5.6-3.5-8-6.2 1-15-4.2-16.5-6.3-14 0-25 11.2-25 25-.7-5-7.2-10.2-6.4-14.5-3.8-12 1.7-23 17.5-25.3-2-4.5 4.8-9.2 2.2-14.3-3.3-6.5-9.3-15-18.3-25 5.4-9.4 3.8-22 .6-29.7-4.6-11-9-8.3-25.4 9.7-26.8 29.4-62.5 21.2-94 40.5-8.4 5.2-16.8 7-7.8-2s33-18 48.3-25.6c29-14.6 53.6-38.8 63.2-85.8 22.7-110.4 106.3-74 159-53.4 49.7 19.3 40.6-24.5 15.5-51-30-31.6-24-56.6-10-76.5 25.5-3.6 74.3 5.3 64.4 13.8z"/><path d="M644.8 448.5c15.2 0 27.6-12.4 27.6-27.6 0-15.3-12.4-27.6-27.6-27.6-15.2 0-27.5 12.3-27.5 27.5 0 15 12.3 27.5 27.5 27.5z"/></g><path d="M539.7 178.4c-6 27-1 39.3 8 51.2 18.7 24.6 33.5 80.8 12.3 117.5"/><g stroke-linecap="round"><path d="M572 315.4c2.5-1 7.3-4 8.4-9.3M573.8 303.7c.8-4.7 8-6.7 8.2-11.7M574 285.5c-.5-5 7.2-9.2 6-14M569.8 268c-.6-2.7 6.4-7.8 4.5-12.2M564.5 251.2c-1.5-3 3.4-6.6 1.3-9.8M556.8 237.7c-.5-2 2.5-6.7.8-9.5M549 221.7c.7-.8 3.3-2.7 2.2-5M543.7 210c1-.5 4.2-1.5 3.8-3.8"/><g stroke-linejoin="round"><path d="M382.6 513.6c-6.5-2.3-14.5 1-16 6.4M371.3 525c.8-5.5 9.2-8 11.8-5.3-5.2-3-7.8 7.4-3.2 7.7M423 397.7c-3.7 2-4.8 9 0 14.3M429 399.3c-2.8 2.2-2.6 9 1.4 10.6-3.4-2.5 0-6.7 2.4-7 2.4 0 4 3 1 5.8M655 415.2c-9-2.4-16 8-8 17.4 0-9 6.3-15 14.2-13.4M657.6 425.5c-2.2 0-3.5 1.7-3.5 3.4s1.7 3.4 4.2 3.4c1.6 0 3-2 3-3.3M689.4 227.8c1.5 5.5 9 7.8 15 6.5M704.4 230.7c-4.7.2-8.6-4.2-8.2-8 0 3 6.2 4.2 8.2 2.4"/></g><path d="M384.8 414.6c-1.3-3.3 4-6.5 4-9.5.2-3 6-5.4 11.6.4M397.7 371c-1 .6-2 1.2-3 1.6M408.8 388.7c-1.3 0-4.2 0-5.7-1.2M403.2 394.8c-1 .5-3.6 1.5-5 1.8M348 492c-.2 3 2.7 7 4.3 8.4M360.5 485c-1.6 2.5-2.5 6.7-1.6 9.6M384.5 494.7c-3-2-1-7-1.3-10-.3-3.3 3.4-8.5 10.6-4M357.5 476.4c3-.5 6-.3 8 .5M394.2 467.2c-1.3 1.8-1.6 3.7-1.8 5M407.7 467c-2.3 0-4.2 1.5-5.2 3M376.5 384.5c2.5 1 9.2 5 9.5 9.2M403.8 363.5c-8 0-11-8.2-5-8.2M418 374.3c-3 1.3-1.6 6.6 2.7 9.2M399.2 425c-1.6-2 .4-7.7 5.4-6M411 483.6c.2-5 6.4-7.8 9-2.2M388 497.6c-.3-5.4 2.4-7 4.8-7.5 2.4-.2 6 1.8 7.5 5.4M340 501.7c.4-3.3 3-6.6 6-6.2M634.7 358.7c-2 1.5-3.5 8.4 4.5 9M622.4 370c0 .8 1 2 1.7 2.4M660.4 383c-2-1.8-7.5 4.8-2.5 9.5M609.2 437c-1.2-4.6 3-6 7-5M599 404.4c2.3-1.6 4.8-3.4 7.8-4.2M597.6 422c0-3.7 2-7 3.7-8M611.8 377.7c-.3 4.7 1.6 9.2 3 11.6M650 378c-2.2.8-4.3 1.6-5.2 3.6M647.5 391.2c1.2-1 2.5-2 3-3M708.4 250.7c0 4.5-5.6 7-9.3 4M720.6 251c2.5 1.8 11 0 9-5M710.2 276.8c-1.8-.4-5-2.3-6-4M728 263.4c-3 .7-5 0-6.4-.6M682.2 279.5c1.6 0 5.4-.6 8-2M677.3 251c-2-.2-3.6.2-4.8 1M709.8 259c-.6 2-2 5-3.8 6.4"/><path d="M672 266c4-1.8 9 12 18.5 7M691.3 259c-1.3 1.7-2 4.4-2.2 6.8" stroke-linejoin="round"/></g><path d="M498.8 238c1.3-.2 3.5-.7 4-2.3M333.2 387.8c4.8 2.8 8.2 7.5 6 14.4M554.5 223.2c1.5 1 7 1 10-.2M568.3 226.4c0 2.2.5 10.8-3.8 12.5M566 237.8c4 1.3 12.2.8 14.7-6.6M575 237.5c2.2 3.2 2.8 9.5-3.4 13M576.7 242.8c4.7 1.6 15.5 1.8 14.3-7.4M587.3 242.8c3.3 4.5 17.4 9.8 15.2.5M574.3 255.8c5.5 1.3 13.2-2.4 10-12M599.7 248.6c.8 3.7 19 7.6 16.5-.8M612.8 252.6c3.4 7.8 21.2 7 15.6-3.2M625.5 257.5c3.5 4.3 19.3 1.7 13-8.7M638.4 257.3c9.8 7.4 21.2-3.2 8.8-11M653 255c8.6 6.8 19.2-5.8 11.6-9.3M584 252c3 .8 8.7.5 10-4.5M591.8 251c-.4 7.2 12 10 15 1.5M602.8 257c2.3 5 13 7 14.8 0M615.8 260.2c1.8 4.8 11 4.3 13.7-.7M626 262.8c3 6.2 15 6.2 17.7-3M641.6 264c4.7 2.8 14.6 1.7 13.8-7.4M653.5 263c7 5.7 16.7.2 12-9.2M665 270.5c3.6-.7 5.6-8 1.7-10M579 271.8c8-4.2 9.3-11.3 4-18.2M585.7 264.7c5 3 14-.2 15.6-7.2M592.3 265.5c2.8 3.5 3.3 8-.3 12M594.6 270c8.5-5.3 19 4.5 11.3 10.5M604.4 269.5c2-.5 5.3-4 5.6-8M608.3 273.2c3.5-3.7 27.7 4 12.4 11.6M619.5 263c4.7 2 7 8.5 0 10.7M625.7 279.2c5-5.3 21.2-2 15.4 4.8M637.2 277c3-9.7 20.2-3.6 14.5.4M633.7 267.3c.5 2 .6 6.7-2.6 9.3M648.2 265.3c.6 1.7.5 4.7-1 6.6M659 265.5c1 1.8 2.7 5.2-.8 8M521.3 191.5c.2 9 3.4 15.2 15.8 9.5M525.2 202.4c-6 8.2.8 17 13 8.2M506.4 206.4c8.3 9 23.3 2.4 13.7-11.2M530.2 214.2c-1.6 8.8 5.6 10.6 11.6 6.6M499 208c1.5 8.8 10.6 15.8 19.4 10.3M510 220c0 12.8 17.5 14.3 21.5 1M525.2 229c5.6 11.7 18 7 22 0M512.8 210.6c2.3 5.6 6.8 12 17.2 7.3M480.6 208c1.5 4.5 9.8 10.2 19.5 3.7M486.6 213.8c-5.2 7.6 5 14.7 17.5 3.4M492.7 223.2c2 10.6 6.3 19 21.4 5.4M506.5 234c5.5 7 14 11 21.8-.4"/><path d="M534 236c-.4 8 1.2 12 7.5 11.8 5-.3 9.6-4.2 12.4-8.4M540.3 247.8c0 9.2 7 16.4 20.6 7M546 258.6c-2.6 7 5 18.2 20.3 12.4M514 240.2c-1 9 7.2 14.8 20.4 3.4M520.4 250c.5 7.3 8.7 16 20.7 3.4M526.2 259.2c-1 12.4 10.4 16 20 6.5M509 250c2.5.2 4.6-2 6-3.7M514.4 259c2.3.5 6-1.5 7.4-4M520 273.7c2.6 2.7 11.3.8 12.4-3M529.7 273.6c4.8 11.2 17.7 10.7 23-2M550.3 276c2.4 6.7 8.6 11 18.5 8.7M555 283c-5.5 9 2 20 14.5 9.2M558.2 296.6c-.6 5.8 4.7 12.4 12 13.2M534.4 279.7c-2 13 7.4 19.3 19 12.4M520.7 286c3 2.4 8.5 2.7 13.7.8M540.7 294.3c-3 11 8.3 19 18 6.6M525 287.7c.2 5.7 5.7 11.8 15.2 10M566.7 309c-6.4 4.3-7.7 12 1.3 17M551 306.7c.3 6.6 3.3 10.3 10.6 11M541.5 303.3c-9.7 9-.2 19.2 11.2 10.5M548.2 316.5c-3.2 10.2 9 16.3 15.3 6M528.3 295c-3.6 10 1 16.5 9 16M515.5 293c.5 6 5.7 8 11.5 6.8M519.2 299.3c-4.3 8.4 2.3 13 11 9.7M556.6 327.6c-1.5 5.4-.6 9.2 7.2 11M557 335.2c-9.4 4.4-10.2 13.5-2.8 19.5M549.4 325c-5 4.5-4 12.3 1.5 15.4M507.2 295.6c-5.5 5.4-.3 20.3 11.8 12.2M538.6 314.4c-7.4 6.2-4 17.3 8.2 14.2M526.3 309.8c-3.8 11 0 14.8 8.6 15"/><path d="M499 295c-6.5 5-4.7 12.2-1.8 15.4 3 3.2 8.4 1.8 10-2.4M485.3 290.8c-7.4 9.5 0 20.7 10.4 17.4M525 319c-7.7 2.7-13.5 9.6-8.8 15.6 2.7 3.5 14.6 4 18-9.7M511.2 310c-4.3 6.4-3 12.3 5.2 15.4M510.7 321.8c-4.7 2.6-7.7 5.7-6.6 11.3M500.3 312c-1.8 7.6.3 12.3 5 14.5M500 321c-7.2-.4-11 2.6-8.4 9.7M492.2 322.8c-7-2.6-8.2-8.7-5-15M486 317.2c-7.6.3-11 4.2-11 9.5"/><path d="M475.6 287c-5.6 2.5-7.4 10-5.3 14.2 2 4.2 8.7 4.5 12.7 1.8M459.8 281c-5 6 1 17.2 10 14.4M446.6 276.6c-4.8 6.8.5 18 13 14.8M460.2 322.8c-1.3-8 7-13.3 17.4-3M472.6 303.7c-3 2.7-4.5 7-4 10.6M433.4 272.7c-5.3 9 1.2 17.3 12.6 14M463.2 295c-7.5 7.7-5 15.3.7 19.6M458.4 304c-11.4 0-12 13.3-2.7 17.5M449.7 290.8c-4.7 3.2-6 12 2 15.6M449.4 310.6c-4.8-2.3-10.6.5-10.2 6M442 310.7c-4.2-10.3-17-8.5-15.8 2M445.7 298c-2.8.5-8.2 2-10.3 6.3M436.2 286.4c-5.2 5.8-1 12.7 3 14.2M421 270.2c-1 7 1.7 10.3 10.4 9.6M424 279c-3.4 8.4 1 12 9.8 11.6M426 289.3c-5.3 6-1.7 12.7 3.3 15.5M423.5 297c-9.2-1-10.7 9.6-7.6 14.5"/><path d="M416 269.4c-5.6 2.4-8.8 9.5-5.7 13.8 3 4.4 9 3 12.5.7M412.2 285c-4.7 7.2-.5 12.5 4.5 14.6"/><path d="M394.2 268.6c-3.7 3.8-1.5 11.7 7.5 12 7.3 0 11-7 8.7-11.7M400.4 280.5c-2.8 6.4-1 13.3 10 12.2M415 303c-6.8-3.2-15.8 0-12 8M402 291.4c-2.7 4-1.7 9.4 1.3 12.7M401.6 301.7c-4.5.8-9 3.2-6 10.3M394.8 306.2c-5.8-1.7-13.2 2.4-8.7 8.4M385.2 309c-5-.8-11 4.5-6.2 9.8M377 314.4c-4.4 1.2-9.7 6.3-5 10.3M399.8 289.2c-6.4 3-7 10-4 15.4M393 275.8c-9.6 3.7-9.5 16.6 1.2 20.6M389.7 293.5c-5.8 3.4-7 9.8-3 14M379.5 271c-3.8 1.3-3.5 13.2 6.8 13M369 275c-7.8 5.2 1.5 18.2 14 9M376 287c-1 5.4.5 11.2 9 11.8M376.6 294.2c-6 2.2-7.2 14.8 4 15.7M357 282.7c-7.7 7.3 6.6 13.6 12 3M346.2 294.8c-4 4.7 9.7 17 15.6-3.5M363.3 291c.3 4.8 3.2 7.7 9 8M372.3 303.7c-9.5 1.4-12.6 13.3-2 16M354.7 302c-.3 4.6 4.4 8.3 9.7 7.5M369.2 319.3c-8.7 2-9.8 13.2-2 12.5M363 342.3c-7-2.2-7.3-10.8-1-14"/><path d="M357 334.7c-6 3.7-3.6 12.6-.3 14 3.2 1.2 5.8-.5 6-3.2M362.3 358c.6 4-15 2.5-7-10.6M355.3 358.6c-5.2 8.2 3.3 15 8.7 8M356 368.5c-2 6.6 6 11.4 11 6.2M338.6 306.7c-3 6 11.6 8.2 12.6-4M334.6 315.6c-3 11.6 19 9 13.4-5.8M348.5 317.5c3 1.8 12.2 2 14.4-8M356.3 317.8c.7 3 3.4 6.8 6 8M346 321c-1 6.2 5.2 11.3 12.4 10.8M347 327c-3.5 4.8-4.7 14.2 6.4 14.8M330 328.6c-1.7 5 8.8 10 15 2M327 341.3c-1 3.8 8.4 9 13.7-7.2M336.5 342.3c2.3 4 10 7.2 14.5-.7M343.5 346.5c-2 5.6 3.3 11 9.8 9.3M331.4 345.2c-1.3 8 8 12.7 13.8 8.5M325.3 348.7c-2.8 10.3 10.4 14.2 15.4 6.5M337.3 358.2c.5 5.8 9.5 10.8 16.6 6M321.2 363c-.6 2.6 10.2 5.2 11.8-3.8M327.5 365.3c2.6 6.6 11.3 8.2 16.3.2M341 368.7c1 6 9 9.5 15.8 5.3M359.7 376.4c-1.7 8.2 6.8 14.8 12 10.3M346 375c-2.5 9 8.7 14 15 9M332.5 370.5c-.6 8.3 6 13.3 13.5 9.6M318.2 371.3c-2.3 5.4 9.6 10 15.3 5.3M310.8 386.2c3 3.6 13.7 0 14.6-8M322.5 384c4 4.7 13 7 16.8-2.6M336 386.4c0 7 12.3 12 16.3-.8M367 388c-1.2 3.5 1.4 9 7 9.5M356.7 386c-.8 4 4.8 9.3 10.7 7M368.6 394.7c-1.6 4.2-.3 10.2 5.4 10M369 402.5c-4 3.5-2.3 9.8 3.8 10M367 408.5c-6 4-4 12.8 4 12.3M349 391.4c0 8.7 10.7 10 12.8 2M357.6 398.5c-1.6 5 2.6 10 9.2 8.7M359 460.6c1.4 2 7.3-1.4 5.7-5-1.6-3.5-8-1.6-7.2 2M363.3 454.2c.8-7-7.6-8.2-9.7-2M356.7 448.5c2-3.5-5-8.3-8-3.2M351.4 443.2c2-5-6.2-7.4-6.8-2.7M342.8 433.7c1-2.6 10-1 6 4.4M356 444.5c3.4-3.2-2.6-9.8-6.3-7.4M379.7 454.3c-2.8.4-5.7 2.2-3.6 8.2 1.5 4 7.7 4.3 8.6 1.8"/><path d="M375.6 457.3c-2.8-1.8-8.7 1.2-6 7 2 4.4 7.3 2.6 8 .3M360.2 465.6c1.4 2.4 8.2 1.4 9.4-1.3M365 457.6c1.3-1 4 .3 4.5 1.5M364.4 418c-4.7 3-1.8 12.3 5.5 10M363 425.5c-3.8 3-.4 12 6.5 8.5M364 434c-2.5 2.6 0 9.8 6.7 8.4M363 437.6c-1.3-.7-5-.2-6.7 2.2M359 405c-3.6 3.4-2 10.3 4.7 11M357.6 412c-5 2.6-5 12.6 5 13M357.2 423.4c-2.8 2.3-1.4 11 5.8 9.8M359.6 433c-1 1-1.2 3.6-.4 4.7M356.3 429.6c-2.5 0-6 2-6.8 4.6M344.8 425c1-2.7 9-2.5 9.5 5M355 421c-1 .2-3.2 1.3-3.7 3.5M351.7 397.4c-3.5 3.2-5.2 13 5.4 15M344.7 418c0-2.8 7-5 9.6-1M340 403.5c1 2 6 4.7 9.2 2.5M314.2 387.7c-.2 4.7 3.7 8.8 9 8.2 5.3-.7 6.4-5.4 4.8-8.5M324 396c-3.6 4.4.8 10.5 4.8 8.7M328 393c2-.8 9-1.8 11 1.4M305.6 394.3c-1.6 2.4 8.4 4.8 11.8 0M314 397c-.3 3 1.3 8.6 9.5 6.3"/><path d="M324.8 408.3c1.3-2.7-4.8-7.3-9.5-2.3s.6 10.7 3.5 8.7M303.4 397.5c-2.4 4.2 7 11.8 12.2 4.8"/><path d="M297.2 404.7c-3.4 3.5.8 10 6 8 5-2 4.4-7.3 3.2-8.7"/><path d="M290.7 411.2c-2.8 2.5 0 8.4 3.7 8.4s6-3 5.4-6.8M306 410.7c-.4 3.7 5 6.3 8.6 2.8M314.7 406.8c.5-.8 0-2.2-.7-3M284.8 416.2c-3.2 2.5 3.6 9.4 8 3M309 414.8c-2 2 1.2 7 4.4 5.5M298 418.4c.5 3.4 7.2 6 11.5.7M301.7 421.8c-1 2.2 1 5.6 3.6 5.2M365.8 441.7c-2.5 5 5.4 10.6 11.2 4.7M371.6 449c-1.3 2.7.2 6.4 2.4 7.7M364 454.6c.6-2.4 4-4.7 7.2-3.6M359.8 448.2c.5-2.2 3.4-4.3 5.6-3.8M549.4 347.8c-11.5 0-6.6 18.5 3.2 14.8M545.7 361.3c-2.3 3.7 2 9.6 7 6M551.3 368c-3.4 5.8 8.7 14.4 13.5 5.5M561 377c0 5.2 15.6 8.6 13.3-2M573 380.8c3.6 6.2 17.4 7 16-2.5M586 384.8c2.8 4.2 16.3 6.7 15.8-2M531 331.8c2 5 8.5 6.8 15.8 4M526.8 335.4c4.5 3-2 16-9 10.8M526.8 343.6c5 2.4 11 .6 13-6.5M536.6 342.6c.5 3.7 5.8 6.6 12.8 5.2M524.2 346.5c6.5 5.4-3 16.7-7 11.6M526.7 350.7c3 2.2 11 1 11.7-5M535 350.7c.5 3.8 3.6 5.3 8 5.4M525 356c3 4.5 11.2 5.8 14.7-.2M536.2 359.2c-.4 4.3 4.5 8 9.5 7M518.6 369c4.2 2 8.7-6 5.2-11.4M523.4 377.2c5 .3 5.7-7.2 1-11.4M535 384c4-.8 2.8-10-7.4-10.8M547.6 391c4-1.2.8-11.4-10.3-10.7M563 394.4c2.6-4-6.4-11.2-13.8-7.5M570.4 400.2c5 1.5 8.4-11.7-7.4-9.6M579.6 400.2c4.4-1 7.4-9-5.3-6.4M589.3 401c3.8 1.8 5.6-9.5-6-6.4M524.4 365.8c4.8 2.7 12.4-.5 11.8-6.6M534.2 364.5c1.6 3 1 8.5-2 10M534.7 371.3c3.2 1.3 7.6 0 10-5M540.3 371.3c1 2.2 1.3 6.7-.8 9M541 375c3.7 2 8-.5 9.6-4.2M548.4 374c2.6 1.6 4.8 9.2.5 12.2M551.3 382.7c3 .2 7.6.2 10.4-3.7M559.7 381c2.7 1 6 5.4 4.8 9.4M564.6 389c3-.3 8.4-2.4 10-6M573 385.3c2.6 1.4 4.4 4.5 4 8M577 390.7c3 0 5.8-1.7 6.6-5M582.8 387.8c2.3 1 5 3.4 5.2 6.5M587.7 392.4c2.2-.4 3.8-1.8 5.3-4M599 388c3 3-1 12.6-6.8 10.8M537.3 193c-6 3.4-23 2.3-14.5-11.7M539 183.4c-12 4.7-26.4-4.3-11.2-14.2M523.8 166c-10 0-16.5 15.8-3.3 21.3M485.6 172.6c-2.6 5 6.6 10.5 13 5.5 4.7-3.8 4.4-14.2 1.5-18.3M480.6 184.5c-3.2 10.7 20.5 11.3 16.8-5.6M479.3 200.3c.8 8 22.7 5.5 15.6-10.8M497.5 185c1.8 2.4 6.6 6.6 14.8 5.8M501.4 173.6c.7 3 5.6 5 12 3M281.7 418.5c-5.5 4 3 10.2 6 3.3M277.4 421.6c-5.6 4 3 10 6 3.3M272.8 424.5c-5.6 4 3 10.2 6 3.3M268 427.3c-5.3 2.8.8 9.7 6.2 3.6M262.7 430c-5.3 2.8 1 9.7 6.3 3.6M289.7 421.7c0 4 7.7 5.7 10.5-.4M294.6 425.4c-2.4 3 2 7 4.4 5.5M284.2 425c-.2 3.3 6.5 5.3 9.8 1.6M288 428.5c-2.2 2.8 2 6.6 4.8 5.5M279.7 428c.3 2.7 4 6 8.3 4M282.2 431.7c-1.6 1.5-.8 4.8 1.5 6M273.8 431.5c-.6 2.5 3.7 7 8 4M274.7 434.4c-2.6 2-2.2 5 1 5.4M268.5 434c-.3 1.7 2 4.5 4.6 4.2M254.8 434c-2.6 1.3 4 8.3 8 1.7M248.4 436.8c-3.2 1.5 4.8 9.2 8.3 1.4M269.3 436.5c-2.5.5-4.2 4-2 5.6M261 437.7c-.2 1.5 3 4 5.4 3M259 438.4c-2.4 1.5-1 5.8 1.7 5M250.4 441.2c-2.2 1.7-.7 5 2.4 4.3M254.5 441c0 1 2 2.2 3.8 1.7M242.6 439.5c-2.8 1.2-2.6 8.3 7 4.4M236.3 442.3c-4 2-2.7 7.3 6 2.2M243 445c-1 .7-2.2 4.3 1.7 3M235.7 446.6c-1.6 1.5-.6 4.4 3 3.3M227.4 447c-3 1.8 3.5 4 7.7-.5M229.3 449.2c-1.3 1.3-1.3 5 2 3.7M221 450.7c-1.8 1.5 1.5 3.4 7.5.7M223.5 452.8c-2.2 2-2 4.2 1.3 3.5M217 453.8c-2.6 2.3 1 3.8 5.3 2M217 456.3c-4.3 2-2.5 5.5.2 4M359.4 468.7c-1 2 2.3 3.8 5.3 3.3 3-.4 5.8-2.8 3.6-6.2M368.4 470c3 2.2 8-.4 8-3.8"/><g fill="#fff"><path d="M546 128.8c-13-6.4-39.6-18.3-47.2-8.7 7-2.8 27.2.3 44 15.8l3.2-7z"/><path d="M553.8 128c-15-17.2-23.7-13.3-34.4-19.3-10-5.6-26-6.8-29.2 2.2 14.7-7.3 28.2 3.7 36.5 5 11.4 2 17.8 10.7 21 14.7l6-2.6zM610 126c-7.8-17.8-24.4-13-31.7-20.7-10.6-11-37.5-21-48.6-13.5 24.5-1.3 35 17 48 23.2 9.3 4.5 19.3 14.2 32.2 11z"/><path d="M581 124c-13.3-16.4-33.6-31-43-25.4 12.3.6 16.2 9 25 14.6 8.6 5.5 4.7 13.4 18 10.8zM518 153c-13.7-5.2-40.8-7.7-53.3 8 21 3.6 52.5 1.6 53.4-8z"/><path d="M515.5 159c-13.8-6.3-24.6 2.7-37.6 1.4-25-2.4-42.6-1-45 11 14.3-12.8 38-2.3 47.8-5 9.6-2.5 45.4-.2 56.6 4.6-5.8-7-14.8-9-22-12zM559 122.2c-3.2-10.6-3-22 13-21-4-5-19-7.6-21.4 11-17.5-12.8-36.7-15-40.2-4 9-7.7 23-2 39.8 17 1.4-1 5.3-2.5 8.8-3z"/><path d="M535 137c-10-6.6-23.6-17 0-21.2-10-5.5-25-3-23.3 15.6-27-11-46.5-7.2-50.6 3.5-4.4 12 12.4 18.5 15.3 11-3 1.2-13.6-2.4-8-9 5.4-7 33.4-1.8 60 12 7.5 4 33 3.3 6.6-12z"/><path d="M527.8 154.6C520 139 495 153 490 138c-6.8 22.2 35.6 10 37.8 16.6zM686.7 171.7c5.2 2.6 9.7-1.5 1.7-4.7 5.3 2.6 9.8-1.4 1.8-4.6 5.3 2.6 9.8-1.4 1.8-4.7-2 2.2-5.2 10-5.3 14zM689.4 141.4c11.6-12.2-1-16.4 13.2-29 11.6-10.3 2.2-17 13.2-25 3.5-2.7 11.3-7.8 12-13 4.6 11.6-14.6 13.2-13.3 32 .8 11.8-7.2 10.7-10.3 30.8-.6 4.2-3.5 13.5-14.8 4.2z"/><path d="M694.6 147c6.4-14 13.8-13.7 17.3-19 6.7-10.4 21 1.6 33-7.5-2 13-18.2 8.3-25.3 16.7-7 8.4-13 12.2-25 9.7z"/><path d="M696.2 151.4c11.2-9 19.5-3 27.3-7.8 19.7-12 27.6 2.5 45-3.2-4.6 11.3-30.5 1.6-41.7 10-11.3 8.4-51 16.4-30.6 1zM663.3 215.6c0-5.2-5-11.8-11.7-12.6-6.8-.8-9.7-7.8-14.8-8.2-5.2-.3-8.6-10.6-15.7-10.4-7 0-9.8 9.3 6.7 17.7 16.6 8.4 35 18 35.6 13.6zM642.4 220c-7 .3-8 10.6-14.8 11 9.3 5 16-2.4 21-8.8l-6.2-2.3z"/><path d="M648.2 221.2c-6 5.2-8 16 1 19-5.4-7.3 9.3-10.6 4.8-17.4l-5.8-1.6z"/><path d="M654.3 221.6c-4.8 9.3 7.6 10.4 4.4 17.5 7-1.5 8.2-15 1.7-18.4l-6 1z"/><path d="M607 201.6c11.6-.6 22.2 5.6 29.3 15.8 4.5 6.4 19.6 9 24.8 3.8 5.2-5 2.3-16-10.6-12.5-3.2-5.5-12.5-3.6-17-8-4.5-4.6-22-17.5-26.4 1z"/><path d="M650.4 208.7c-3 .6-4 6-2 8.7M657 212c1 1.5.4 3.8 0 5M625.3 202c6 .4 7 4.7 13.6 6.4" stroke-linecap="round"/><path d="M621.4 187.4c20.6 5.2 37 9.7 47 15.5 10 5.7 25.8 7.3 39.5 3.4 13.6-3.8 40-7.4 38.8 9.7 7.2-8.4-2-17.6-20.3-19.2.4-8.4-8.6-16-15-11 6-.8 11 10.3-.7 14.8 2.3-8.3-6-16-14.7-12.2 5.7 1.6 11.3 11-1 14.5-8 2-19.4-.8-28-6-8.4-5-56-23.7-45.6-9.6z"/><path d="M673.3 179c-6.4 3-2.2 9.7-12.2 13.6-10 3.8-16.8 12.7-14.6 20.3 6.8-15 18.7-14.3 23-20 4-6 10.2-14.4 4-14z"/><path d="M675 180c-.2 11.8-9.5 7.5-6 24 1.2 5.2 3.3 13.5-.2 22 10.4-7.7 3.7-23.6 8.4-29.6 2.2-3 5-7.4 6.2-11.2-2.4 6.7-2.2 19.3 4.4 22.5-5.3-12.5 14.3-22.8.8-37.3-2 3.5-8 9.8-13.5 9.6zM642.2 168.3c1.6 2.4 3.3 8.5 1.8 12 3.2-2 8-7 9.3-10.4 6.6.8 9.2 9 3 12.6 3.8 0 10.4 0 14-4.3-4.4-5-18.4-12.8-28-10z"/><path d="M542 145.2c-1-1-2.7-2-5.8-2.5-9.8-2-4.8-10.8 3.5-10.7 17.7-19.3 27.7-4.5 49.3-10.6 7.5-2 12.7-1.5 16.8.3 9.7-6.4 21-4.6 29.2 3 1-1.5 2-2.6 4-3 7.4-2.2 13.5 4.2 15.6 12.6 6-1 12.7 1.8 17 6 6.2-3.3 10.4-3.4 12-.2 5.5-2.5 12.6-4 16 4.6 3.6 8.7-8.3 6-10.2 24.5-1.2 11.4-13.8 16-23.8 9-16-10.7-31.6-12.5-39.3 4-7.7 16.4-13.8 26-32.5 20.6-6.8-2-15.5.6-21 8-5.4 7.4-13.8.5-23.8 1.3 12.6-2 7.8-5.2 18.7-6 10-.5 7.4-10 13.8-11.2-25 6.5-24-3-44.7 3.6 9-11.6 23.2-5.2 30.3-12-18.6-.3-27-12.5-35.4-7.3-13.2 8-7.4 31-41.8 29-16.8-1-27.4 1.3-37.4 11.3 17.4-36 41-16.2 52.5-27.7 6.7-6.7 11.8-12 15.4-18.3 1.2-2.3 3-3.6 5-4-28.6-9-11.3-23.2 16.7-24z"/><path d="M683.6 140c.4 1 .7 2.2.7 3.6 0 7-10.7 7.4-11.3 18-.4 5.4-1 8.4-4.7 7.8-3.7-.6-7-6.4-3.4-13.2" stroke-linecap="round"/><path d="M547.4 134.6c-2.6-1.8-5.3-2.6-7.7-2.6M605.7 121.6c8.6 3.7 12.7 12.6 25 13 12 .4 19.4 17.7 39.4 6.5l1.7-.8M635 124.6c-1.8 3-2.2 6.8-1.7 10.3M596 161c-15 0-19 7.8-19 15.2 0 7.4 7 17 19.7 17 12.5 0 19.3-7.7 19.3-16 0-8.4-7.7-16.2-20-16.2z"/><path d="M598.8 193c-.3-4.3-8-3.6-7.6-7 .3-3 4.2-4.4 4.2-9 0-4.4 6.8-4.7 9-1.2 2.3 3.6 9 10.5 10.5 7M604.4 175.8c-3.5 3.6-5 10.8-.5 16.5M609.2 181.3c-1 2.4-1.4 6 0 8.4"/></g><path d="M669.4 169.5c11.8 1 13.8-12 5-13M654.8 134.3c-4-5.2-13.5-7-13.7 4"/><path d="M640 151c-4-10-14.3-11.4-19.8-6.4-4.6 4.2-4.7 15 5 17.2 3.5-4 10-9.3 14.8-10.8zM635.6 144.8c-5.8-5.2-14.4 4.6-6.6 13.5" fill="#fff"/><path d="M654.8 134.3c-3.5-3.8-11.3-.8-9 6.8 1.6-3.4 5.2-6.4 9-6.7zM633 155c2.3-1.8 5-3.3 7-4-1.2-2.8-2.8-5-4.8-6.5-1.8-1.3-7 6-2.3 10.4z" fill="#000" stroke="none"/><g stroke-linecap="round"><path d="M623.4 142c-5.8-4-11-3.7-13-.5-4 0-7.5 3-7.7 9M611.7 153c-7-4.6-16.5-2.8-15.8 7.8M591.7 166.8c3.4-2.7 8.2-4.6 12 .2M643.4 156.4c-1.3 1.7-2.3 4.5-.2 8.7-2.6-3.3-9-3.3-16 5.7M658.7 156c-8.4.8-8.3 6.3-1.5 8.7M599 135.4c-7-1.4-12 2.8-2.3 6.3M612.6 130.6c-10-2.4-14 .2-9.5 2.4M583.8 170.7c-.3 3.5 1.6 8.2 7.4 3M585.7 181.3c0 1 0 2-.8 3M562.6 134c-6.2-1.6-7.3-7.3-.2-6.8M560.5 147.2c-6.8-2.3-6.8-9-1.2-8.2M573 143.8c-8-2-8.2-7.4-2.2-6.6M574 127c-4.2-.3-10.6 4.4 0 7M585.7 136.4c-9.8-1.5-9.6 2.6-3.8 5M593 127c-7.4-1.4-10 3-5 5M569.3 155c-1.8-1.6-3.4-9 5.5-6.8M587.7 152.7c-6-1.7-11.6 4-6.2 7.5M595.6 145.7c-6.3-1-11.6.7-8.3 3"/></g><path d="M525.3 169.2c4-1 9.6 1 18.3 5 5.4 2.6 22 8 32.2 2.6-10.7 4-18.7-12.2-26.8-10.3-8 2-22.7 5-29-1 15.2 1 23.3-11 40.6-.6 5 2.8 11 4.7 16.4 4.4-14-17-32.8-6-34.7-20 8.5 9.2 29.3-2 40 15.2M654.5 134.3c-3.6.7-6.7 2.7-8.8 6.8M545.3 152c-2-2.5-1-5-3.2-7" fill="#fff"/></g></svg>