<svg xmlns="http://www.w3.org/2000/svg" xmlns:xlink="http://www.w3.org/1999/xlink" version="1" width="1440" height="720" id="svg2" fill-rule="evenodd"><defs id="defs4"><style id="style6"/></defs><path id="rect2533" fill="#f7e017" fill-rule="nonzero" d="M0 0h1440v720H0z"/><path id="path2535" fill="#fff" d="M1440 350v170L0 220V50z"/><path id="path3422" d="M1440 520v150L0 370V220z"/><path d="M695.7 569.7c-19.3-2.5-37-8.7-49.4-17.2-2.4-1.6-4.6-3-5-3-.3 0-.6 2-.6 4 0 6.5-2.6 9.7-9 11.4-6.2 1.5-15.6-1.7-23.2-8-8-6.6-17-11.6-24.7-13.6-6.4-1.7-14.8-1.4-21 .6-2.7 1-6 2.3-7 3-1.2.7-2.4 1.3-2.8 1.3-1 0-1-7 .2-9 1.5-3 5-5.8 9.4-7.3 2.2-.8 4-1.8 4-2.3 0-.4-.8-2-1.7-3.6-3-5-1.8-10 3.3-13.8 5.2-4 14-4.6 21.7-1.7l4 1.4c1 0 .4-1.6-2.4-5.7-3.2-4.7-4-7-3.5-12.7.6-7 6.5-13 13.6-13.5 5.8-.3 9.4 1.7 18 9.8 25.7 24.5 53.6 38 86 41.6 8.3 1 24.8.5 34.5-1 29.4-4.4 59-19 82-40.8 6.3-6 9.3-7.6 14.6-7.6 4.5 0 7.7 1.4 11 5 3 3.3 4 6.4 3.6 11.4-.2 3.3-.7 4.8-2.6 8-2.8 4.5-2.3 5 3.2 2.8 7.6-3 17-1.6 22 3.2 4.3 4.2 4.7 8.4 1.3 14-1.2 2-2.2 4-2.2 4.4 0 .6 1 .8 5.5 1.6 6 1 9.5 5.4 9.5 12.2 0 2-.3 3.7-.6 3.7s-2.6-1-5-2c-7-2.8-11-3.5-19-3.5-6.4 0-8.5.4-12.8 1.8-6.7 2.2-13.8 6.3-19.5 11.5-6.5 5.8-10.5 7.6-16.7 7.5-5.8 0-9.7-1.7-11.8-5-1-1.8-1.3-2.8-1-6.8.2-2.6.2-4.7 0-4.7-.3 0-2.5 1.4-5 3-6.7 4.7-11 7-18.5 10-23.2 9-56.6 13-82.3 9.7z" id="path3152" fill="#cf1126"/><path d="M802.7 539.7c4-2 9.6-7.6 11.8-12 1.7-3.4 2-4.6 2.2-10.6.2-5.5 0-7.2-1-9-1-2-1.3-2.3-4-2.3-2.6 0-3 .2-4.4 2.2-2 2.7-2 8.8-.3 11 1 1.3 1.2 1.3 3.5.4 3.2-1.4 3.8-1.3 3.8.4 0 4.4-6.4 13-13 17.5-1.8 1.2-3.4 2.6-3.6 3-.5 1.3 2 1 5-.6z" id="path3138" fill="#fc0"/><path d="M711 563.8c4-1.3 6.3-3.7 8-8.4.8-2.3 1.3-4.7 1.2-5.3-.4-1.4-2-1.4-4 .2-1.3 1-1.5 1.7-1 4 1 5.5-1 7-11.7 8-1 0-4 0-6.8-.4-5-.6-6.8 0-5 1.4.5.5 2 1 3 1.4 3 .7 13.3.2 16.3-.8z" id="path3150" fill="#ffd42a"/><path d="M733 563c.6-.7 2.7-1.6 4.6-2.2 2.6-.8 4-1.7 5-3.3 3-4.7 2.5-8.7-2-14-2.6-3-3.7-3-5.6.4-1.7 2.7-1.7 2.8.8 3.5 1.2.3 2.5 1.3 3.2 2.4 2.6 4.6 1.8 7.4-2 7.5-3.7 0-4.7.5-5.7 2.8-.5 1.2-1 2.5-1 3 0 1 1.5.7 2.7-.4z" id="path3148" fill="#ffd42a"/><path d="M725.8 557.7c.7-2 1-5.2 1-12-.2-5-.4-9.5-.6-9.6-.6-.5-3.6 1.4-4 2.6-.2.6.2 2 .8 3.3 1 1.7 1 3.3.7 10.3-.3 9 .3 10.4 2 5.4z" id="path3146" fill="#ffd42a"/><path d="M709 553.4l1-7.5c0-2.5.6-5.7 1-7 1-3.5 0-4.4-2.7-2.4l-2 1.4.4 5c.4 4.5-.3 12.8-1.4 16-.2 1 .2.7 1.3-.6 1-1 2-3.3 2.3-5z" id="path3144" fill="#ffd42a"/><path d="M694 555.8c2.3-2 2.8-3.5 3.7-10.5l1.2-8.6c.4-2.6-.6-2.8-3.4-.5-1.8 1.4-1.8 1.6-1.2 4 1 2.8 0 10-1.3 12.3-1 1.7-3.4 2-5.5 1-1-.5-1.2-1-1-2.6.7-3-1-3.2-5.3-1.2-4 1.8-5.7 1.7-5-.6 0-1-.2-1.7-.8-2.2-1-.8-1.7-.8-7.7 0-1 .3-1.3 0-1.3-1.3 0-1-.3-2-.5-2.3-.4-.4-3.3-.8-7-.8-6.8-.2-11.7-1.3-15-3.6-3.6-2.3-4-4.2-1.6-8.7l2.7-6c.6-1.4 1.8-3.3 2.8-4.3 1-1 2-2.2 2-2.5 0-1-4.4 0-6.2 1-1.3 1-1.5 1.5-1.2 3.3.4 2.4-1 6-4 9.5-3.2 3.8-8 2.2-14-4.7-2.5-2.6-3.3-3.2-4-2.6-1 1-.2 5 1.6 6.6 2 1.8 9.5 5.3 11.5 5.3s2.7.4 4 2.8c1.5 3 11.4 6 21 6.4 3 0 3.3.3 3.6 2 .5 2 .5 2 5.2 2.2 4.7.2 5.3.6 4 2-.5.4-.6 1.2-.4 1.7.3 1 1 1 4.5.8 2.2-.2 4.6-.5 5.3-.7 1 0 1.6.3 2.3 2 .7 1.6 1.4 2 3.2 2.5 3.2.5 6 0 7.7-1.7z" id="path3142" fill="#ffd42a"/><path d="M780.7 552.3c6-3 9.3-6.2 11.5-10.8 1-2.3 2-4.4 2-4.7 0-.8-3-2.2-4.7-2.2-1.7 0-2-1.2-1.3-4.5.7-3-.2-7-1.6-7-.5 0-1.4.7-2 1.6-1 1.4-1 2-.3 4 1 3 .2 5.3-2.5 7.3-1.3.8-2 2-2 3 0 .8 0 1.5.3 1.5l3.2-1.7 3-1.6 1.7 1.4c.8.7 1.6 2 1.6 2.7 0 3.5-10.2 9.5-17 10-3.8.3-4.5.2-5.8-1-1-1-1.3-2-1-3.2 0-1 .5-2.6.7-3.8.7-3-.7-2.6-3 1-1.8 3-2.4 6-1.3 7.8.8 1.4 6.6 2.7 10.7 2.5 2.5-.2 5-1 7.7-2.2z" id="path3140" fill="#fc0"/><path d="M809.4 514.8c-1.6-2.4-.7-5.2 1.6-5.2 1.4 0 1.7.3 2 2.3 0 1.5-.3 2.5-1.2 3.4-1.3 1-1.4 1-2.4-.6z" id="path3136" fill="#cf1126"/><path d="M819.7 530.5c3.7-3.7 5.3-8.2 5.3-15v-5.2l3-1.5c4-2 7.7-5.6 7.7-7.7 0-2-1-2-2.6.4-1.2 1.7-3 2.7-9 5.5-1.5.6-1.6 1-2 7.5-.4 7.4-1.4 10.2-5.5 15.3-2.6 3-2.7 3.5-1 3.5.8 0 2.7-1.3 4.2-2.8z" id="path3134" fill="#fc0"/><path d="M634 525.6c1.2-1.4 3-4.3 3.8-6.4 1-2 2.3-4.4 3-5.2 1.8-2 .8-3-2-2.5-1.5.3-2 1-2.4 2.2-.8 4.2-2.4 8.6-3.7 10.6-2.5 3.7-2.6 3.8-1.6 3.8.7 0 2-1 3-2.4z" id="path3132" fill="#ffd42a"/><path d="M779.7 526.3c.3-1-1.7-1.8-2.6-1-.3.4-.4 1 0 1.5.5 1 2.3.6 2.7-.5z" id="path3130" fill="#fc0"/><path d="M620.5 519.3c3.3-1.7 6.5-5.6 6.5-8 0-1.6-2.7-3.3-5-3.3-1 0-3.2.8-4.8 2-5 3.7-10.4 3-13.4-2-2.4-3.8-5-6-7.2-6-2.7 0-3 2 0 2.8 1.2.5 2.3 1.6 3.2 3.4 2.7 5.3 4.2 6.2 11.3 6.8l4.6.4.2 2.8c0 1.5.5 2.8 1 2.8.2 0 2-.8 3.7-1.7z" id="path3128" fill="#ffd42a"/><path d="M619.4 514.8c-.5-1.5.3-3 1.7-3 1.5 0 1.8 1 1 3-.4 1.2-2 1.3-2.6 0z" id="path3126" fill="#cf1126"/><path d="M835 512c.3-1-1.8-1.8-2.6-1-.4.4-.5 1-.2 1.5.5 1 2.4.6 2.7-.5z" id="path3124" fill="#fc0"/><path d="M706.3 525.2l-6.8-1c-16.6-2.2-36.3-9-50.7-17.6-32.6-19.5-56.5-53.2-64-90.4-8.6-42.6-2.5-79.3 17.7-106 3.6-5 7.5-9 6.8-7l-3.4 8.2c-9.4 22.6-10.6 46.4-3.7 73 2.8 10.5 5.4 17.3 10.2 26.7 17 33 48.7 57.2 83.8 64l12 2.4c10 2 15.2 1.7 28.6-1 12.3-2.6 22.4-5.6 31.4-9.5 27.5-12 50.3-34.7 62-61.8 8-18.5 11.7-45.7 9.2-66.6-1.6-12.7-5.5-26.5-10.4-36.3-1-2-1.6-3.7-1.3-3.7 1 0 8.4 9 12.8 15.7 9.5 14.6 16 32.8 18.3 51.5 2 15.4.4 40-3.5 54.3-8 29.5-25.4 57.4-46.6 74.5-22.5 18-46.3 27.5-77 30.3-6.4.6-23.2 1-25.7.4z" id="path3122" fill="#cf1126"/><path d="M763 512.7c.7-.6 1.4-2 1.6-3.3.2-1.2.8-2.3 1.2-2.4.4 0 2-.5 3.4-1 2-.4 3.3-1.4 4.5-3 2.6-3.3 2.4-7.8-1-18.2-1.5-4.6-3-9-3.2-10-.7-2-1.2-2-3 .4l-1.7 2 1.7 2c2 2.5 5.6 13 5.7 17.4 0 2.3-.3 4-1 5.2-1.3 2-.7 1.8-10 .5-2.2-.2-3.5 0-5.5 1-3.4 1.8-5 1.8-6-.2-1-2.4-2-1.5-2 2v3.3h7l.5 2.5c.2 1.4.8 2.7 1.2 3 1.2.7 5.3 0 6.7-1z" id="path3120" fill="#fc0"/><path d="M758 509.6c-1.4-2-.8-3.6 1.3-3.6 1.2 0 2 .5 2.3 1.6 1.3 3.5-1.6 5-3.6 2z" id="path3118" fill="#d40000"/><path d="M675.7 506.6c2-.8 4.5-2.7 6.5-5l3.3-3.5 3.7.6c4.7.5 4.8.6 4.8 2.8 0 1.8 0 1.8 4.4 2.2 2.4.3 5.6.4 7 .4 2 0 3 .4 3.6 1.3 1 1.2 1.4 1.2 8.4.6 6.6-.7 8-.7 10.8.3 2 .8 4.5 1 6.2 1 5-.7 12-4.8 13-8 .2-.2 2-1 4-1.3 5.2-1 5.4-2 .7-2.7-2-.3-5-1-6.8-1.7-1.7-.7-4-1.3-5.2-1.3-2.6 0-5 1.6-5 3.3 0 1 .3 1.2 3.4 1 2.8-.4 3.7-.3 5.2 1 1 .7 1.6 1.6 1.4 2-.7 1-6.6 3.8-9.2 4.2-1.8.3-3.2 0-4.6-.7-2.3-1-5.7-1.2-6.4-.2-.2.4-1 .2-2-.8l-1.5-1.4-3.6 1.4c-3.6 1.5-5 1.4-5-.3 0-.7-1-.8-6.2-.5-5.8.4-6.4.3-7.5-1-1-1-1-1.4-.4-2.6.7-1 .7-1.5 0-2-.5-.7-1.3-.8-3.7 0-5.8 1.4-7.5.6-7.5-4 0-4-3.3-5.6-6.5-3.4-5.3 3.8-6.7 8.2-3 10 2.6 1.2 2 2.7-2.3 4.7-6 3-11.2 2.5-21.2-1.6-2.5-1-3-.6-2.5 1.6s2.5 3.5 7.6 4.6c5.4 1.2 12 .8 16-1z" id="path3116" fill="#fc0"/><path d="M680.5 494c-.2-.8 0-1.5.8-2 1-.8 1.4-.8 2.2 0 .5.5.7 1.4.5 2-.5 1.3-3 1.2-3.5 0z" id="path3114" fill="#cf1126"/><path d="M672 495.6c3.6-2.2 3.5-2 4-8.3.4-4.4.4-4.7-.8-4.7-1.8 0-2.7 2-2.7 5.5 0 2.4-.3 3.5-1.6 4.7-3 3-10.3 1.6-11.2-2-.3-1.3 0-2.4 1.6-4.6 3.2-4.4 2.5-5.5-1.5-2-2.7 2.3-3.2 2.3-2.7.3.5-2-.5-2.6-2.7-2-1 .2-1.7 1-2 2.3-.3 1.3-1 2-2 2.3-1.7.3-4.7-1.3-4.7-2.8 0-1 4.4-6.5 10.2-12.6 2.2-2.2 4-4.4 4-4.7 0-.4-1.2-.7-2.6-.7-2 0-2.6.3-2.6 1.2 0 .7-3 4.5-6.5 8.6-7.5 8.5-8 10.2-4.4 12.5 3 1.8 7 1.6 9.8-.4l2.5-1.6v3c0 4 .7 5.2 3.7 6.8 3.8 2 8.4 1.8 12-.6z" id="path3112" fill="#fc0"/><path d="M779.5 492c0-4.2 0-4.5 1.3-4.3 7.5 1.3 11 .3 14-4 2-2.5 2-3 1.8-7l-.3-4 3.6.5c6.5.7 6.6.8 6 3.5-1 7.3-3.4 11.3-9 16-4 3.4-4 5 0 3.2 3.3-1.7 7.2-5.7 9.3-9.6 1.5-3 1.8-4.3 1.8-9 0-4.8.3-5.5 1.6-6.6 1.2-1 2.4-1.2 5-1 3.4 0 4 0 5.3-1.8 1.2-1.5 1.5-2.3 1.2-4-.6-3 0-4 3.5-5.8 4.7-2.4 6.5-5 6.5-9 0-3.8-1.2-6-2.8-5.4-1.3.5-1.5 3.7-.4 5.6.5.6.6 1.6.4 2.2-.6 1.6-4 3.5-7.3 4-4 .6-6.7 2.7-8.8 6.8-3.3 6.6-2.8 6.3-5.8 3.7-4.4-4-8.4-3-10 2.8l-.8 2.4-1.2-2.4c-1.2-2.5-2.6-3-4-1.7-1.3 1.4-1 3.4 1 6.4 1.2 1.6 2 3.6 2 4.4 0 4-3.7 7.3-7.3 6.4-2-.5-3.6-3.2-3.6-5.8 0-2.3-1.7-2-2.3.3-.7 4-2.5 2.4-3.3-3.2-.6-3.7-2-4-3.6-.5-1 2.2-1 2.6-.2 3.6 1.8 2 4.6 10 5 14.3.4 5.5 1.7 4.8 1.7-1z" id="path3110" fill="#fc0"/><path d="M801 470c-1.6-1.2-1-3 1.2-3 1.8 0 3.3 1.5 2.7 3-.5 1-2.4 1.2-4 0z" id="path3108" fill="#cf1126"/><path d="M815.3 465.7c-.6-1.6.6-3.3 2.3-3.3 1.3 0 1.6 1.5.8 3.6-.5 1.4-2.6 1.2-3-.3z" id="path3106" fill="#cf1126"/><path d="M645 491.5c.2-.6 0-1-.7-1-1.2 0-2 1-1.3 2 .6.8 1.8.3 2-1z" id="path3104" fill="#fc0"/><path d="M696 485.8c0-1-.4-1.3-1.2-1-1.7.2-2 2.3-.2 2.3 1 0 1.3-.3 1.3-1.2z" id="path3102" fill="#fc0"/><path d="M625.4 480.2l1.8-2.3 6.7.3c8.2.6 9 0 15.2-7 2.3-2.8 4.5-5 5-5 .4 0 .8-.7.8-1.6 0-2.3-3-2.2-4.4.2-2 3.4-8.2 10-9.8 10.5-1 .4-3 .4-4.6.2-2.4-.4-2.7-.5-1.7-1 1.7-1 5.5-5 5.5-5.8 0-1-3-2-5-1.6-1 .2-3.3 1.2-5 2.2-3.6 2-6.2 2-6.2 0 0-.4 1.5-2.5 3.4-4.6 2-2 4.2-4.6 5.2-5.7 1-1 2-2 2.5-2 .2 0 .5-.5.5-1 0-.7-.7-1-2.5-1-2.2 0-2.5.2-4 3-.8 1.6-2.6 3.8-3.8 5-2 1.5-2.7 1.8-4.4 1.5-3.4-.5-5.5-2.2-5.5-4.4 0-1-.4-2-1-2.3-1.3-.4-3.5 1-3.5 2.5 0 2.3.8 3.3 4.5 5.2 3.4 1.7 3.8 2.2 4 4 .2 2 .4 2.2 2 2 2.6 0 3.6 2.2 2.2 5-1 2-1.4 6-.5 6 .3 0 1.4-1.2 2.4-2.5z" id="path3100" fill="#fc0"/><path d="M628.3 475c0-1 .6-1 2.3-.4 1 .3 1 .5.2 1-1.3.8-2.5.6-2.5-.5z" id="path3098" fill="#f0f"/><path d="M631 472.3c0-.6 2.8-2 3.8-2 1.3 0 .6 1.8-.8 2-2 .7-3 .6-3 0z" id="path3096" fill="#cf1126"/><path d="M674.2 476.7c0-1.4-2.6-1.2-3 .3 0 1 .3 1 1.4 1 1-.2 1.6-.7 1.6-1.3z" id="path3094" fill="#fc0"/><path d="M786.2 466.8c.3-1.3-1.6-2.2-2.6-1.2-1 1 0 2.8 1.3 2.6.5-.2 1-.8 1.2-1.4z" id="path3092" fill="#fc0"/><path d="M611.8 453c1.8-1.4 1.8-1.5 1-4.8-1-4.7-1-5.2.8-5.6 2.2-.6 8 2.5 9.2 5 1 1.8 1 2-.7 3.5-1.7 1.7-1.7 3.6 0 3.6 1.6 0 5.7-3.8 5.7-5.2 0-2-4.6-6.5-8.2-8.2-2.2-1-4.4-1.5-7-1.5-4.6 0-5.2 1-4 6.3 1.5 6.3-.5 7-5.5 2.4-3.8-3.5-5.3-7.2-5.2-13 0-6 2.3-9 7.6-9.8 3.6-.5 3.5-1.3 0-2-5.4-.7-10 3-11.6 9.2-2 7 2.4 15.5 10 20 4 2.2 5.7 2.3 8 .3z" id="path3090" fill="#fc0"/><path d="M820.7 445.4c.4-.4.7-1.4.7-2 0-1 .8-2.5 1.7-3.7 1-1.2 1.7-2.5 1.7-2.8 0-1.3-2-1.3-3.6 0s-2.8 1.3-2.8 0c0-.2.8-1 1.7-1.4 2.3-1 2.5-2.3.5-3.2-2.6-1.2-5.2 1-5.4 4.5 0 2.3 0 2.7 2 3.8 1.6 1 2 1.5 1.6 3-.5 2.3.5 3 2 1.6z" id="path3088" fill="#fc0"/><path d="M840.3 443.2c1.4-1.3 2.6-2.8 2.6-3.3 0-.6 1-2 2.7-3 4.3-3 5.2-6.2 3.3-11-.8-2-3-4.5-8.2-9-4-3.7-7.6-6.6-8-6.6-1.5 0-1.2 5.2.2 5.6 2.5.8 4 2 8 5.5 4.8 4.3 7 8.2 5.8 10.4-1.2 2-2.7 1.4-6.8-3-2.2-2.4-4.3-4.3-4.7-4.3-.5 0-1 1-1 2 0 1.5 1 3 3 5.3 3.6 4 4 6.2 1.3 8.3-1 .7-2 1.3-2.2 1.3-.2 0-1-1-1.7-2.5-1.4-3-10.4-12.3-11.7-12.3-.6 0-1 .7-1 2.2 0 1.7.4 2.4 2 3 1.7 1 6 5.5 10.4 10.8 1.3 1.5 2.5 2.7 2.8 2.7.3 0 1.7-1 3-2.3z" id="path3086" fill="#fc0"/><path d="M849 418c-.5-1.8-12.5-14-13.7-14-.7 0-1 .7-.7 2.6 0 2.4.4 2.8 2 3.3 1 0 4.2 2.6 7 5.3 3 2.8 5.4 5 5.6 4.7.2-.2 0-1-.2-2z" id="path3084" fill="#fc0"/><use transform="matrix(-1 0 0 1 1440 0)" id="use3950" width="17926044" height="16293461" xlink:href="#g3939"/><g id="g3939" fill="#cf1126"><path d="M512 470c-2.6-.4-5.2 1.8-4.3 4.6.2.5 1 1.5 2.5 2.5s3.6 2.2 6.2 3c5.2 2 12.3 3.6 20.5 3.4h-1.2c8.4 0 13-.7 18.7-2.6 5-1.6 9.3-3 9.6-7.3 0-.7-.2-1.2-.5-1.5-.4-.4-1-.7-1.8-.8-1.4-.4-3.2.5-4.7 1-3.2 1-10 4-21.2 4-6 0-10.4-1.3-15-2.8-5.4-1.8-6.2-3-8.8-3.5z" id="path3169"/><path d="M481.5 302.7h-.2c-.3 0-.5.3-.8 1 0 0-.4 1-.5 2.2v4.7c.3 3.8 1 8.7 1.7 14 1.6 10.4 4.2 22.2 7 29.2 2.8 6.4 8.7 12.3 14.5 17.5 5.8 5.3 11.5 10 13.5 14.7.4.8.6 2 .8 3.7l.5 6.3c.2 5 .4 11.5.4 18.4 0 11 0 23.2-.2 32.8.3 0 .6.2 1 .4l4.8 2.2c3.6 1.7 8 3.3 12.7 3 9.3 0 13.4-2.6 16.5-3.8.7-.3 1.3-.5 2-.6 0-8.8-1-70-1-80.6.2-3-2.6-6.6-6-10-3.7-3.2-8-6.2-10.4-8-1.6-1.4-4.6-4.5-7.4-7.7l-4-4.4c-1-1.2-1.7-2-2-2.8 0-.2-.7-1-1.5-1.7l-3-2.4c-1.2-.6-2.4-1.2-3.5-1.4-1-.3-2-.2-2.6.2-.7.4-1 1-1 2.2 0 1.2.5 2.7 1.2 4.4 1.3 3.2 3.5 6.8 5.2 9 1 1.4 2 3.7 2.8 6.3 1 2.7 1.7 5.6 2.3 8.2.6 2.4 1 4.3 1 5.6 0 .3 0 .6-.6 1-.4.3-1 .4-1.2.3l-.5-.5c-.5-.5-1-1.2-1.4-2.4-1-2-4-4.3-8-6.7-4-2.3-9-4.7-12.8-7.7-1-.8-1.2-2-1.4-3.2-.3-1.3-.6-3-1.2-5-1-4-3.4-9.6-9.4-16.6l-.3-.4v-.5c1.3-6.8-.5-13.3-3-17.3-1-2-2.5-3.3-3.6-3.8-.3-.3-.6-.3-1-.3z" id="path3165"/><path d="M491.4 304.2c-.4 0-.8.2-1.2.5-.7.5-1.3 1.7-1.3 3.2 2 4 3 9.8 2 15.8 6 7 8.4 13 9.6 17 .6 2.2.8 4 1 5.2l.8 2c3.7 2.8 8.4 5.2 12.5 7.6 3.2 2 6.2 3.8 8 6l-.5-1.3-1.2-4.5c-.6-1.7-2.5-3.8-4.8-5.6-2.2-1.7-4.7-3-6.4-3.5h-.6v-1c-.2-1.8-1.7-6.2-4-10.3-2-4-5-8-7.2-9.5l-.4-.4v-.6c.3-13-2.6-18.8-4.8-20.3-.6-.4-1-.5-1.6-.5z" id="path3163"/><path d="M499.7 306.6c-.3 0-.6.2-1 .5 0 .5-.4 1-.6 2 1.2 3.5 2 8.5 1.8 15.5 2.7 2 5.3 6 7.5 10 2 4 3.6 7.8 4 10.5 2 .6 4.3 2 6.5 3.7l1.6 1.4-1.6-3.4c-1.8-2.3-4-6-5.5-9.5-.5-1-1-2.3-1-3.4-2.4-2.4-4.6-6.8-4-11.2.4-5.5-2-11-4.4-13.8-1.3-1.4-2.6-2-3.3-2z" id="path3161"/><path d="M509.2 308c-.3 0-.6 0-1 .4-.4.3-1 1-1.6 2 1.8 3.3 3 7.7 2.6 12.2-.3 2.7.7 5.6 2 7.8.3-1 .8-1.7 1.7-2.3.8-.4 1.8-.6 2.8-.5-.5-7-2-13.2-3.7-16.7-1-1.8-2-2.7-2.6-2.8h-.2z" id="path3159"/><path d="M523.4 365.4z" id="path3157"/><path d="M555.2 451c-.4 0-.8 0-1.2.2-1.7.7-4 2-8 3h9.3v-3.3z" id="path697-1"/><path d="M518.3 449.6c-2-.3-4 2-3.3 4.7.2.5 1 1.4 2 2.4s2.6 2 4.5 3c4 2 9 3.6 15.2 3.4h-.8c6 .2 9.4-.6 13.8-2.6 3.7-1.6 6.8-2.8 7-7.2 0-.8 0-1.2-.4-1.6-.3-.3-.7-.6-1.3-.8-1-.3-2.2.6-3.3 1-2.4 1-7.4 4-15.8 4-4.5.2-7.8-1.2-11.2-2.7-4-1.8-4.6-3-6.5-3.4z" id="path3151"/><path d="M514.8 459.5c-2.2-.3-4.5 2-3.8 4.7.2.5 1 1.5 2.3 2.5 1.3 1 3 2 5.3 3 4.5 2 10.7 3.5 18 3.3h-1.2c7.3 0 11.3-.7 16.4-2.6 4.3-1.6 8-3 8.2-7.2 0-.8-.2-1.2-.5-1.6-.3-.4-.8-.6-1.5-.8-1.3-.3-2.8.5-4 1-2.8 1-8.7 4-18.6 4-5 .2-9-1.3-13-2.8-4.7-1.8-5.3-3-7.6-3.5z" id="path3167"/></g><path d="M715.7 476c-12.5-1.3-23.4-9.2-28.6-20.8-1.7-4-1.7-5 .2-3.6 3.2 2.3 7.7 4.3 9.7 4.3 1.5 0 2.8.8 6 3.7 6 5.7 12.8 7.2 10 2-2.2-3.4-1.6-5.8 2.8-12 2.3-3 4.4-5.6 4.7-5.6.4 0 2.2 2 4 4.7 4 5.6 5.3 9.7 3.8 12.7-1.3 2.6-1.2 4.3.2 4.3 1.6 0 7-3.5 10.3-6.5 1.7-1.6 3.6-2.7 5.8-3.2 1.8-.4 4.8-1.7 6.7-2.8 2-1 3.6-1.8 3.8-1.6 1 .8-4.3 9.6-7.7 13.2-6.5 7-12.8 10-22.2 11-2.8.4-7 .4-9.3.2z" id="path3082" fill="#cf1126"/><path d="M731.5 460.2c-.2-.5-.2-1.2 0-1.6.8-1.2-1.7-7.2-4.7-11.5l-4.3-6c-.6-.7-1.4-1.3-2-1.3-.8 0-7 8.3-9.5 13-1 2-1.8 4.4-1.8 5.6 0 1.2-.3 2.2-.7 2.2-1.8 0-5.3-3.8-7.3-7.7-2-4-2-4.8-2-10.8 0-7.7 1-12.6 5.3-23 2.7-7 3-8 3-13 0-6.2-1-9.3-4.4-12.4-2-2-1.6-2.7 1-2.7 2.5 0 6.4 2 8.3 4 1.8 2.3 3 1.6 3.6-2 0-1.3 1-3.4 2.2-4.7 1.6-2 2-2.2 3-1.6 2 1 4.2 6 4.2 9s1 3 4.3-.3c2.8-3 4.8-4 8-4.7 2.7-.5 2.7.6-.2 3.4-3.4 3.4-5 7.5-5 12.5-.2 4.8.5 7.2 4 15 3.4 7.4 5.2 14.6 5.2 20.8 0 6.6-1.4 10.8-4.6 14.5-3.2 3.7-5 4.8-5.5 3.4z" id="path3080" fill="#cf1126"/><path d="M726.7 389.6c-1.6-3.2-5-7-6.2-7-1 0-6 5.6-6 6.7 0 .4-.5 1-1 1.5-.7.6-1.5.4-3.6-1-3.4-2.2-5-6.2-5-13 0-6 1-10 4.3-18 2.4-6 2.6-7 2.4-11.4-.3-6-2-9.7-6.5-14.6-1.8-2-3.2-3.7-3.2-4 0 0 1.4-.3 3-.3 3.4 0 6 1.4 9 4.5 1 1 2 2 2.2 2 .3 0 .8-1.6 1-3.4.5-3.8 2-6.4 3.3-6.4 1.4 0 3 3.5 3 6.5 0 3.7 1.3 4 4.2.8 1.3-1.5 3.4-3 4.6-3.4 2.3-.6 5.8-.2 6.5 1 .2.2-.8 1.8-2.3 3.4-6.6 7-8 15-4 24.4 3 7.6 4 13 3.8 19.8-.3 7.3-1.7 10.7-5 13-1.5 1-2.7 1.6-3 1.6l-1.6-2.6z" id="path3078" fill="#cf1126"/><path d="M711.6 327c-3.3-2.6-4.5-5-4.5-9.6 0-2.4.6-3.6 2-5.8 2.5-3.2 2-4.2-1.2-3.3-5.3 1.5-7.8.2-8-4.3 0-2.2.4-3 3.3-6.7 2.5-2.8 3.4-4.3 3-4.8-.6-.4-3.4 2-9 7.8-4.7 4.7-9.8 9.4-11.5 10.6-9.8 6.5-19.2 7.5-23.5 2.4-2.2-2.6-2-4 .4-5.6 1.2-.8 3.2-2.4 4.4-3.7 3-3 11.8-9.3 16-11.5 3.7-1.8 4.5-3 2.2-3-3 0-12.5 6.2-19.8 13-2 1.8-5.2 4-6.8 4.7-3.6 1.6-10.7 2.2-14 1.2-2-.8-6.2-4.6-6.2-6 0-.3 1-1 2-1.7 1.2-.7 3.2-2 4.6-3.3 5.8-5 16.8-10.3 25.5-12 2.8-.7 1.7-2-1.4-2-6 .3-18 5.8-25 11.7-8.4 7-21 6.3-25-1.2-.6-1.3-1-2.5-1-2.7l5.6-1.5c3-.8 9-3.3 15-6.2 9-4.5 11.7-5.5 18-6.5 2.8-.5 3-1.8.2-2.2-3.5-.4-9 1.4-18.4 6-12.3 6-15.8 7.2-22.2 6.8-6-.4-9.3-2-14-6.4-3.2-3-7.6-10.5-6.8-11.4.2-.2 1.7 0 3.2.5 1.8.6 6.7 1 12.6 1 8.3 0 10.5-.3 15-1.6 7.4-2 17.2-7 24-12.2 13-9.6 23.4-13.5 36.8-13.5 12.4 0 20.2 2.8 27.2 10 2.3 2.2 4.4 3.8 4.7 3.5.2-.3.5-4.5.6-9.3 0 0 3.7-.5 4.4.6 0 7.7 0 8.4 1.3 8.4.7 0 1.5-.8 2-2 1-2.5 5-6 9.2-8.2 9-4.5 24.7-4.7 37.2-.3 5.3 2 11.2 5.2 16.8 9.5 5.6 4.3 17 10 24 12 6.8 2 19 2.5 25 1l5.5-1c2.3 0-1.7 7.6-6.2 12-8.4 8.3-19.3 8.2-34.6 0-9.6-5-21-8-21-5.2 0 .6.6 1 1.5 1 3.3 0 9.7 2.2 18.7 6.5 9.7 4.6 15 6.5 18.3 6.5 2.3 0 2.4 1.5.2 4.7-2.4 3.4-6.3 5-11.8 5-5.3 0-8.3-1-13-5-8-6.6-27.6-14-27-10 .3.7 1.2 1.2 3.3 1.5 6.8 1 15 5 23 11 2.7 2 5.3 4 6 4.3 1 .6 1 .8.2 2.5-1.4 2.8-5.2 5-9.2 5.3-5.2.7-9.8-1-14.5-4.8-10-8.4-19.3-14.4-22.3-14.4-2.5 0-1.4 1.4 3 3.7 5.6 3 11.5 7 15.8 11 2 2 4.3 3.7 5 4 1.8 1 1.8 2.5-.2 5-2 2.7-5.4 4-9.7 3.4-8.6-1-15.4-5-26-16-4-4.4-7.8-8-8.2-8-1.4 0-.6 2 2.2 5 3.4 3.8 4 6 2.7 9-1 2.7-3 3.4-6.8 2.3-4-1-4.6 0-2 3.2 3.8 4.8 3.3 10.6-1.5 14.7-1.4 1.3-3 2.3-3.4 2.3-.4 0-1.4-1-2.3-2.4-3-4.5-5.7-4.5-8.7.2l-2 3-3-2.3z" id="path3059" fill="#cf1126"/><path d="M726.7 233l-5.2 4-4.6-3.4v27.8h9.7z" id="path689-7" fill="#cf1126"/><path d="M717 197.6c-4.5 0-9.2 0-13.4 1-3 .5-5.6 1.5-8 3 .5 8.6 41 12 52 .2-2.2-1.7-5-2.7-8-3.3-4.2-.8-8.7-.8-13-1v7H717v-7z" id="path3139" fill="#cf1126"/><path d="M725 155.2l-2.5 23.7 24.3 11.8-12.3-16.5 16.8-5.4z" id="path625-4" fill="#cf1126"/><path d="M722.2 149c-3.7 0-6.4 1.5-6.4 3 0 1.7 2.7 3 6.4 3s6.4-1.3 6.4-3c0-1.5-2.7-3-6.4-3z" id="path690-0" fill="#cf1126"/><path d="M725 154h-6.4v49.4h6.4z" id="path4149" fill="#cf1126"/><path d="M695 204.2c-1 13.2-4.5 22.3-9 32.4l11-10.3 7.7 9.2 8.4-9.3 8.6 7.8 8.2-8.2 8.5 10 7.4-8.2 12.6 9c-4.6-10-10.7-18.6-10-32.8-12 9-41 10.6-53.4.4z" id="path3969" fill="#cf1126"/><g id="g3072" fill="#fc0" fill-rule="nonzero"><path d="M777.5 557a1.8 1.6 0 1 1-3.6 0 1.8 1.6 0 1 1 3.5 0z" id="path3068"/><path d="M783.8 554.8a1.8 1.6 0 1 1-3.6 0 1.8 1.6 0 1 1 3.6 0z" id="path3070"/></g></svg>