<svg xmlns="http://www.w3.org/2000/svg" width="800" height="512"><path d="M0 128h800v256H0z" fill="#e00025"/><path d="M0 0h800v128H0zM0 384h800v128H0z" fill="#032ea1"/><g stroke="#000"><path d="M397 156s-.2-5.3 3-5.3c3 0 2.7 5.3 2.7 5.3zM523.7 293.6v-26.3c.8-3.3 3.7-6.2 5.8-6.8v-24.7c-3.2 0-4.8 4.2-4.8 4.2l-5.5 24v29.4z" fill="#fff" stroke-width=".96"/><path d="M476 241.3h-8V258h8z" fill="#fff" stroke-width="1.04" stroke-linecap="square" stroke-linejoin="bevel"/><path d="M328 241.3h145.6v56H328z" fill="#fff" stroke-width=".96" stroke-linejoin="bevel"/><path d="M276.6 293.5v-26.2c-1-3.3-3.7-6.2-5.8-6.8v-23l4.8 2.5 5.4 24v29.5z" fill="#fff" stroke-width=".96"/><path d="M276.6 293.6v-26.3c-1-3.3-3.7-6.2-5.8-6.8v-24.7c3.2 0 4.8 4.2 4.8 4.2l5.4 24v29.4z" fill="#fff" stroke-width=".96"/><path d="M271 300.3c2.2-1 4.7-3.8 5.6-6.8h247c1 3 3.5 5.7 5.8 6.8z" fill="#fff" stroke-width=".96"/><path fill="#fff" stroke-width=".96" stroke-linecap="square" stroke-linejoin="bevel" d="M466 272.3h4.6v21H466z"/><path fill="#fff" stroke-width=".96" stroke-linejoin="bevel" d="M328 261.8h145.6v6.5H328zM328 253h145.6v5.8H328zM328 244.2h145.6v5.6H328z"/><path d="M476 241.3h-8V258h8z" fill="#fff" stroke-width="1.04" stroke-linecap="square" stroke-linejoin="bevel"/><path d="M527 300.3c-2.4-1-5.6-3.7-5.6-6.5V261l1.5-2.6H467l2.2 2.7V294c0 2.8-2.2 5.5-4.4 6.5z" fill="#fff" stroke-width=".96"/><path fill="#fff" stroke-width=".96" stroke-linecap="square" stroke-linejoin="bevel" d="M366.2 272.3h4.6v21h-4.6zM429 272.3h4.5v21H429z"/><path d="M436.6 300.3c-2.6-1-6.3-3.7-6.3-6.5v-31l3.3-4.4H366l3.3 4.3v31c0 3-2.6 5.6-5.2 6.6z" fill="#fff" stroke-width=".96"/><path fill="#fff" stroke-width=".96" stroke-linecap="square" stroke-linejoin="bevel" d="M378 272.3h4.7v21H378zM417 272.3h4.5v21H417z"/><path d="M365 223v35.4h69V223c-2.7 1-3.2 3.7-3.2 3.7v15h-62.4v-15s-.7-2.6-3.5-3.7z" fill="#fff" stroke-width=".96"/><path d="M424.6 300.3c-2.2-1-7-3.7-7-6.5V259c.3-2 3-3 4.7-4.3h-46c2.3 1.2 4.7 2 5.6 4.3v34.8c0 2.8-4 5.5-6.3 6.5z" fill="#fff" stroke-width=".96"/><path d="M430.8 255v-25h-6.3v-2.4h-49.7v2.4h-6.3v25z" fill="#fff" stroke-width=".96"/><path fill="#fff" stroke-width=".96" stroke-linecap="square" stroke-linejoin="bevel" d="M329 272.3h4.6v21H329z"/><path d="M273.2 300.3c2.2-1 5.4-3.7 5.4-6.5V261l-1.5-2.6H333l-2.2 2.7V294c0 2.8 2.2 5.5 4.5 6.5z" fill="#fff" stroke-width=".96"/><path fill="#fff" stroke-width=".96" stroke-linecap="square" stroke-linejoin="bevel" d="M279.2 236.7h5v19h-5zM279 232.6h5.2v4h-5z"/><path d="M323.8 300.3c-2.2-1-5.4-3.7-5.4-6.5v-31l4.6-4.4h-38l4.8 4.3v31c0 3-3.3 5.6-5.5 6.6z" fill="#fff" stroke-width=".96"/><path d="M318.5 300.3c-2.2-1-5.4-3.7-5.4-6.5v-28l3-4.4h-24l3 4.3v28c0 3-3.2 5.6-5.4 6.6zM515.5 300.3c-2.2-1-5.4-3.7-5.4-6.5v-31l4.7-4.4H477l4.5 4.3v31c0 3-3.2 5.6-5.5 6.6z" fill="#fff" stroke-width=".96"/><path d="M510.2 300.3c-2.2-1-5.4-3.7-5.4-6.5v-28l3-4.4h-24l3 4.3v28c0 3-3.2 5.6-5.5 6.6zM298.3 261.4h11.5v39h-11.5zM414.7 300.3c-2.2-1-5.4-3.7-5.4-6.5V264l1.8-2.6h-22.5l1.8 2.7V294c0 2.8-3.2 5.5-5.5 6.5z" fill="#fff" stroke-width=".96"/><path d="M394 261.4h11.5v39H394zM490 261.4h11.5v39H490z" fill="#fff" stroke-width=".96"/><path fill="#fff" stroke-width=".96" stroke-linejoin="bevel" d="M388.3 246.6h23v8.5h-23z"/><path d="M411.6 253c0-2.7 7.4-2.8 11.3-5h-46.2c4 2.2 11 2.4 11 5l1.7 4.8 19 .8z" fill="#fff" stroke-width=".96" stroke-linejoin="bevel"/><path d="M420.5 225.8c0-6.3.3-8.7 2.2-8.7v20c-4.7 1.8-8 7.8-8 7.8h-29.8s-3.4-6-8.2-7.7v-20c2.4 0 2.4 2.6 2.4 8.8z" fill="#fff" stroke-width=".96"/><path d="M385.4 229.5c3.8 4.6 3.4 12.4 3.4 17H411c0-4.6-.4-12.4 3.4-17z" fill="#fff" stroke-width=".96"/><path fill="#fff" stroke-width=".96" stroke-linecap="square" stroke-linejoin="bevel" d="M282.7 272.3h4.5v21h-4.5zM521 236.7h-5v19h5z"/><path d="M271 300.3c2.2-1 4.7-3.8 5.6-6.8h247c1 3 3.5 5.7 5.8 6.8z" fill="none" stroke-width=".96"/><path fill="#fff" stroke-width=".96" stroke-linecap="square" stroke-linejoin="bevel" d="M322 272.3h4.6v21H322z"/><path d="M275.5 230.2v28.2h3.3V230c-1.2-.5-2.3-.6-3.3.2z" fill="#fff" stroke-width=".96"/><path d="M275.6 248.4c4 2 8 4.4 9 10h-9z" fill="#fff" stroke-width=".96"/><path d="M324.2 241.3h8V258h-8z" fill="#fff" stroke-width="1.04" stroke-linecap="square" stroke-linejoin="bevel"/><path d="M331 240v18.4h2.5V240c-.8-.5-2-.5-2.6 0zM381 225.8v-7c0-3.6-3.5-4-3.6-6.5 0 0-.5-3.8.5-5.6 1.3 5.2 4 4.2 4 2 0-1.8-1.6-3.5-4.5-8-1-1.5-.4-6 1-7.6.5 4 1 6 2.7 6 1 0 2-.8 2-2.7 0-2.5-1.8-3.8-2.6-6-1-2.7-.3-5.4 1.3-7 .6 4 .4 5.5 2 5.5 3.6-1 0-6.2-.7-7.4-.8-1.5 1.2-4.5 1.2-4.5 1 3.4 1.5 3.7 2.6 3.3 1.6-.4 1.5-2.6-.4-4.4-1-1.2-1-3 .2-4.3 1.3 2.5 3 2.3 3 1l-1-5.8h22l-1 5.4c-.3 1.5 1.8 2 3-.7 1.3 1.4 1.5 3 .3 4.2-1.7 1.7-2 4-.4 4.3 1.2.4 1.5 0 2.6-3.4 0 0 1.8 2 1.2 4.4-.8 1.2-4.2 6.3-.8 7.4 1.8 0 1.6-1.6 2.3-5.5 1.5 1.6 2 4.3 1.2 7-1 2.2-2.6 3.5-2.6 6 0 2 1 2.6 2 2.6 1.6 0 2.2-2 2.7-6 1.3 1.7 2 6.2 1 7.7-3 4.5-4.4 6.2-4.4 8 0 2.2 2.4 3.2 3.8-2 1 1.8.6 5.6.6 5.6 0 2.6-3.6 3-3.7 6.4v7z" fill="#fff" stroke-width=".96"/><path d="M389 173.7h22" fill="none" stroke-width=".8"/><path d="M398 177l-3.2-1.7v-4.5c1.3.4 2.6.6 2.8 2.5.4-2.8 1.2-2.7 2.4-3.8 1.3 1 2 1 2.5 3.8 0-2 1.5-2 2.7-2.5v4.5l-3 1.6z" fill="#fff" stroke-width=".96"/><path d="M386.5 180.5h26.8" fill="none" stroke-width=".8"/><path d="M397.6 184.2l-5-3.5v-4c1.8.3 3.8.5 4 2.7.6-3 1.7-4.7 3.4-6 1.8 1.3 3 3 3.5 6 .2-2.2 2.2-2.4 4-2.8v4l-5 3.6z" fill="#fff" stroke-width=".96"/><path d="M384 188.8h31.8" fill="none" stroke-width=".8"/><path d="M397.3 195.7l-5.8-5v-6.2c2 .6 4.3 1 4.5 4 .7-4.5 2-7 4-8.6 2 1.6 3.3 4 4 8.5.2-3 2.5-3.4 4.6-4v6l-5.8 5.2zM408 202.4l-5.3 7.3h-6l-5.2-7.3zM388.5 214.6c2.7 1.5 3.6 4.3 4 9.7H407c.3-5.4 1.2-8.2 4-9.7z" fill="#fff" stroke-width=".96"/><path d="M381.2 199H419M380.3 210.6h39" fill="none" stroke-width=".8"/><path d="M411.3 202.4V195c-2.5.8-4 2.3-4.8 4.3 0-2.4-3.2-8-6.7-10.8-3.5 3-6.7 8.2-6.7 10.8-.5-2-2.2-3.5-4.7-4.2v7.4z" fill="#fff" stroke-width=".96" stroke-linejoin="bevel"/><path d="M412.4 214.6v-7.3c-2.7.7-4.5 2.2-5.3 4.2 0-2.4-3.4-8-7.2-10.8-3.8 3-7.4 8.2-7.3 10.8-.7-2-2.6-3.5-5.3-4.2v7.3z" fill="#fff" stroke-width=".96" stroke-linejoin="bevel"/><path d="M415.5 229.6v-8.4c-3.4 1-5.6 3.4-6.6 5 0-4.7-5.3-11.6-9.2-14-4 2.4-9 9.6-9 14-1.2-1.6-3.3-4-6.7-5v8.4z" fill="#fff" stroke-width=".96" stroke-linejoin="bevel"/><path d="M413.6 248.3v-8.7c-3 1.2-4 4-4.8 6 .3-8.7-5-18-9-20.5-4 2.5-9.5 12-9 20.7-1-2-1.8-5-5-6v8.6z" fill="#fff" stroke-width=".96" stroke-linejoin="bevel"/><path fill="#fff" stroke-width=".96" stroke-linecap="square" stroke-linejoin="bevel" d="M521 232.6h-5v4h5zM473.5 272.3h4.5v21h-4.5zM512.8 272.3h4.6v21h-4.6z"/><path d="M368.5 248.3h62.3M388.3 248.3h23v8.5h-23z" fill="none" stroke-width=".96"/><path d="M411.5 261.4v-8.7c-3 .8-3.3 2-4.3 4 .3-5.3-3.4-11.3-7.4-13.7-4 2.4-7.8 8.4-7.4 13.6-1-2-1-3-4.3-4v8.8zM333.5 248.4c-4 2-8 4.4-9 10h9z" fill="#fff" stroke-width=".96"/><path d="M278.8 236.7h5.5v21.6h-5.5zM278.8 232.6h5.5v4h-5.5z" fill="#fff" stroke-width=".96" stroke-linecap="square" stroke-linejoin="bevel"/><path d="M324.2 241.3h8V258h-8z" fill="#fff" stroke-width="1.04" stroke-linecap="square" stroke-linejoin="bevel"/><path d="M284.2 258v-37c1.6 0 1.8 5.5 5.4 5.5 2 0 1.7-2.2.7-4-1-1.7-2-4-.5-8 1 3 4 4 3.4 2-1-3.3-3.6-4-1.6-9.2.7 4.4 3.6 4.2 3 1.6-1-3-2.5-4.2-.5-8.3 1.2 4.7 2.7 4.4 2.7 1.5 0-4.3-.2-9 5.4-10.6 0 0 .4-4 2.4-4s2.3 4 2.3 4c5.6 1.7 5.4 6.3 5.4 10.6 0 3 1.6 3.2 2.7-1.5 2 4 .4 5.3-.4 8.2-.7 2.5 2.2 2.7 3-1.7 2 5.3-.8 6-1.7 9.3-.6 2 2.3 1 3.4-2.2 1.6 4.2.4 6.4-.5 8-1 2-1.3 4 .6 4 3.8 0 4-5.3 5.6-5.3v37z" fill="#fff" stroke-width=".96"/><path d="M307.2 205.2l2.3-2V201c-1 0-1.3.4-2 1.2-.5-1.7-1.7-3-3.2-3.8-1.6.8-2.8 2-3.3 3.7-.6-1-1-1-2-1.2v2.5l2.4 2z" fill="#fff" stroke-width=".96"/><path d="M308.4 211.5l1-2.3V206c-.8 0-1.2.3-2 1-.4-1.6-1.6-3-3-3.7-1.7.8-3 2-3.4 3.8-.6-.8-1-1-2-1v3.2l1 2.3z" fill="#fff" stroke-width=".96"/><path d="M308.6 220l3.4-4.2v-4.2c-1.2.2-2 .7-3 2-.7-2.8-2.4-3.4-4.7-4.8-2.4 1.4-4 2-5 4.8-.8-1.4-1.5-1.8-2.8-2v4.2l3.5 4.2z" fill="#fff" stroke-width=".96"/><path d="M309.6 228.3s4-3.5 4.2-5.4v-4.6c-1.5.2-3 .6-4 2.4-1-3.6-2.7-4.7-5.5-6.4-3 1.7-4.4 2.8-5.4 6.4-1.3-1.8-2.7-2.2-4.3-2.4v4.5c.5 1.8 4.3 5.3 4.3 5.3z" fill="#fff" stroke-width=".96"/><path d="M311.3 243.7s5.5-6 5.6-8.5v-7c-2 .4-4 1.8-5.6 4.7-1.3-6-3.3-10-7-12.6-4 2.7-6 6.7-7.3 12.5-1.4-3-3.3-4.4-5.4-4.7v7c.4 2.3 5.6 8.4 5.6 8.4z" fill="#fff" stroke-width=".96"/><path d="M311.3 252.8s4.7-4.8 5.6-7V239c-2 .3-4 1.7-5.6 4.5-1.3-5.7-3.3-9-7-11.7-4 2.7-6 6-7.3 11.7-1.4-2.8-3.3-4.2-5.4-4.5v7c1.2 2 5.6 6.8 5.6 6.8z" fill="#fff" stroke-width=".96"/><path d="M313.2 258c-1.4-6-2.6-10.3-9.2-14.8-6.6 4.5-7.8 9-9 15z" fill="#fff" stroke-width=".96"/><path d="M316.6 261.4v-8.7c-3 1.2-5.7 3-6.7 5-1.2-5-3.4-7-6-10-2.8 3-4.6 5-5.7 10-1-2-3.7-3.8-6.7-5v8.7zM275.5 230.2v28.2h3.3V230c-1.2-.5-2.3-.6-3.3.2z" fill="#fff" stroke-width=".96"/><path d="M275.6 248.4c4 2 8 4.4 9 10h-9zM331 240v18.4h2.5V240c-.8-.5-2-.5-2.6 0z" fill="#fff" stroke-width=".96"/><path d="M333.5 248.3c-4 2-8 4.4-9 10h9zM524.6 230.2v28.2h-3.2V230c1.2-.5 2.3-.6 3.2.2zM475.8 258v-37c1.6 0 1.8 5.5 5.4 5.5 2 0 1.7-2.2.7-4-1-1.7-2.2-4-.7-8 1 3 4 4 3.5 2-1-3.3-3.6-4-1.6-9.2.7 4.4 3.6 4.2 3 1.6-1-3-2.5-4.2-.5-8.3 1 4.7 2.6 4.4 2.6 1.5 0-4.3-.2-9 5.4-10.6 0 0 .3-4 2.3-4 2 0 2.3 4 2.3 4 5.5 1.7 5.4 6.3 5.4 10.6 0 3 1.5 3.2 2.6-1.5 2 4 .4 5.3-.4 8.2-.8 2.5 2 2.7 2.8-1.7 2 5.3-.7 6-1.6 9.3-.6 2 2.3 1 3.4-2.2 1.6 4.2.4 6.4-.5 8-1 2-1.2 4 .7 4 3.6 0 4-5.3 5.5-5.3v37z" fill="#fff" stroke-width=".96"/><path d="M498.8 205.2l2.3-2V201c-.8 0-1.2.4-2 1.2-.4-1.7-1.6-3-3-3.8-1.7.8-3 2-3.4 3.7-.6-1-1-1-2-1.2v2.5l2.4 2z" fill="#fff" stroke-width=".96"/><path d="M500 211.5l1-2.3V206c-.8 0-1.2.3-2 1-.4-1.6-1.6-3-3-3.7-1.7.8-3 2-3.4 3.8-.6-.8-1-1-2-1v3.2l1 2.3z" fill="#fff" stroke-width=".96"/><path d="M500.2 220l3.4-4.2v-4.2c-1.2.2-2 .7-3 2-.7-2.8-2.4-3.4-4.7-4.8-2.5 1.4-4.2 2-5 4.8-1-1.4-1.6-1.8-3-2v4.2l3.6 4.2z" fill="#fff" stroke-width=".96"/><path d="M501.2 228.3s4-3.5 4.2-5.4v-4.6c-1.5.2-3 .6-4 2.4-1-3.6-2.7-4.7-5.5-6.4-3 1.7-4.6 2.8-5.5 6.4-1.2-1.8-2.7-2.2-4.2-2.4v4.5c.5 1.8 4.2 5.3 4.2 5.3z" fill="#fff" stroke-width=".96"/><path d="M503 243.7s5.4-6 5.5-8.5v-7c-2 .4-4 1.8-5.5 4.7-1.3-6-3.3-10-7-12.6-4 2.7-6 6.7-7.3 12.5-1.5-3-3.4-4.4-5.5-4.7v7c.4 2.3 5.6 8.4 5.6 8.4z" fill="#fff" stroke-width=".96"/><path d="M503 252.8s4.6-4.8 5.5-7V239c-2 .3-4 1.7-5.5 4.5-1.3-5.7-3.3-9-7-11.7-4 2.7-6 6-7.3 11.7-1.5-2.8-3.4-4.2-5.5-4.5v7c1.2 2 5.6 6.8 5.6 6.8z" fill="#fff" stroke-width=".96"/><path d="M504.8 258c-1.4-6-2.6-10.3-9.2-14.8-6.6 4.5-7.8 9-9 15zM524.5 248.4c-4 2-7.5 4.4-8.5 10h8.5zM469.3 240v18.4h-2.6V240c.8-.5 2-.5 2.6 0z" fill="#fff" stroke-width=".96"/><path d="M466.7 248.4c4 2 8 4.4 9 10h-9z" fill="#fff" stroke-width=".96"/><path d="M469.3 240v18.4h-2.6V240c.8-.5 2-.5 2.6 0z" fill="#fff" stroke-width=".96"/><path d="M466.7 248.4c4 2 8 4.4 9 10h-9zM422.7 223.2c0-7.2 6.2-8 6.2-8v6.4c-2.4 0-3.6 2-3.6 5.2s2 3.2 2 3.2v18.2h-4.7zM377 223.2c0-7.2-6.3-8-6.3-8v6.4c2.3 0 3.5 2 3.5 5.2s-2 3.2-2 3.2v18.2h4.7zM508.3 261.3v-8.7c-3 1.2-5.7 3-6.7 5-1-5-3.3-7-6-10-2.7 3-4.5 5-5.6 10-1-2-3.7-3.8-6.7-5v8.7zM243 332h314v16H243zM234.7 348h330.6v16H234.7zM259.5 308h281v10.3h-281z" fill="#fff" stroke-width=".96"/><path d="M251.3 318.2h297.4v13.6H251.3zM264.4 300h271.2v8H264.4z" fill="#fff" stroke-width=".96"/><path d="M293.8 300h20.5v64h-20.5z" fill="#fff" stroke-width="1.04"/><path d="M298.4 300h11.4v64h-11.4z" fill="#fff" stroke-width="1.04"/><path d="M298.2 308H310M298.2 316H310M298.2 324H310M298.2 332H310M298.2 340H310M298.2 348H310M298.2 356H310" fill="none" stroke-width=".96"/><path d="M389.4 300H410v64h-20.6z" fill="#fff" stroke-width="1.04"/><path d="M394 300h11.5v64H394z" fill="#fff" stroke-width="1.04"/><path d="M394 308h11.2M394 316h11.2M394 324h11.2M394 332h11.2M394 340h11.2M394 348h11.2M394 356h11.2" fill="none" stroke-width=".96"/><path d="M485.5 300H506v64h-20.5z" fill="#fff" stroke-width="1.04"/><path d="M490 300h11.5v64H490z" fill="#fff" stroke-width="1.04"/><path d="M490 308h11.7M490 316h11.7M490 324h11.7M490 332h11.7M490 340h11.7M490 348h11.7M490 356h11.7" fill="none" stroke-width=".96"/><path fill="#fff" stroke-width=".96" stroke-linecap="square" stroke-linejoin="bevel" d="M338 272.3h4.6v21H338zM347.6 272.3h4.6v21h-4.6zM357.2 272.3h4.6v21h-4.6zM437.6 272.3h4.6v21h-4.6zM447.2 272.3h4.6v21h-4.6zM456.8 272.3h4.6v21h-4.6z"/><path d="M390.2 167l-.5-4H410l-.5 4zM391.6 162.8l-.4-3.3h17.4l-.5 3.3zM394.4 159.4l-.3-3.3h11.7l-.3 3.4z" fill="#fff" stroke-width=".96"/></g></svg>