<svg xmlns="http://www.w3.org/2000/svg" xmlns:xlink="http://www.w3.org/1999/xlink" width="1000" height="625"><path fill="#FFF" d="M0 0h1000v625H0z"/><path fill="#002d62" d="M0 0h428.6v245.5H0z"/><path fill="#ce1126" d="M0 379.5h428.6V625H0z"/><path fill="#002d62" d="M571.4 379.5H1000V625H571.4z"/><path fill="#ce1126" d="M571.4 0H1000v245.5H571.4z"/><g transform="matrix(.3349 0 0 .3349 438.9 245.8)"><path d="M56.4 133.2c0 2.7.8 3.5 2 5.2l.4-5.4c-1-.6-1.4 0-2.4.2z" fill-rule="evenodd" fill="#00873f"/><path d="M106.4 105.3c.2 1.3 0 109.8 0 121 0 10.8 0 17.4 5.5 25 2 3 2.4 2.8 3.3 4 2.7 3.4 9.6 6.6 14.6 7.7 4.8 1 22.7.6 29 .6 8 0 11.6-.4 17 5 1.6 1.6 2 2.4 3.3 4.4.6-.5.6-.6 1-1.3 1.8-3.2 4.7-5.7 8-7 4.2-1.7 11.2-1 16-1 6.3 0 19.7.4 25.2-.8 2.4-.7 4.5-1.6 6.4-2.5 2-.8 3.6-2 5.2-3.2 1.6-1.3 3-2.7 4.4-4.4 7-8.2 6.6-18.2 6.6-28.7V110c0-5.3-.6-4 2-6.7l17.3-18H87.3c.3 1 1.2 1.6 2.3 2.7.8 1 1.5 1.6 2.4 2.5 1.7 1.8 3 3.3 4.8 5 1.2 1.4 8.8 9.4 9.6 9.8z" fill-rule="evenodd" stroke="#000" stroke-width="1.4" fill="#FFF"/><path fill="#002d62" d="M194.4 189.7H252l.2 46.6c-2.6 20.4-17.6 27.3-31 27.2h-26.8v-73.8z"/><path fill="#ce1126" d="M164 189.7h-57.7l-.2 46.6c2.7 20.4 17.8 27.3 31.3 27.2H164v-73.8zM194.4 159.2v-74H272l-19.8 19v55z"/><path fill="#002d62" d="M164 159.2v-74H86.2l19.8 19v55z"/><path d="M106.7 105.3c.2 1.3 0 109.8 0 121 0 10.8 0 17.3 5.5 25 2 3 2.5 2.8 3.4 4 2.7 3.4 9.6 6.6 14.6 7.7 5 1 22.8.6 29 .6 8 0 11.7-.4 17 5 1.7 1.6 2 2.4 3.4 4.4.7-.5.7-.6 1-1.3 1.8-3.2 4.7-5.7 8-7 4.2-1.7 11.2-1 16-1 6.3 0 19.7.4 25.2-.8 2.5-.7 4.5-1.6 6.4-2.5 2-1 3.7-2 5.3-3.2 1.7-1.3 3-2.7 4.4-4.4 7-8.2 6.5-18.2 6.5-28.7V110c0-5.3-.6-4 2-6.7l17.3-18h-184c0 1 1 1.6 2 2.7l2.5 2.5c1.7 1.8 3 3.3 4.8 5 1.4 1.3 9 9.4 9.7 9.8z" stroke="#000" stroke-width="1.4" fill="none"/><path d="M176.3 103.4v8.3H168v7h8.3v29.6h7v-29.6h8.4v-7h-8.5v-8.3z" stroke="#000" stroke-width=".8" fill="#eac102" color="#000"/><g id="a"><g color="#000"><path d="M128.4 114.3l.7 87.7v.2c0 13 7.6 23.8 17 23.8 9.3 0 16.8-10.5 17-23.5v-.3l-.8-45z" stroke="#000" stroke-width=".79543" fill="#FFF"/><path d="M128.4 114.8l18.7 23.7v48L128.8 165l-.4-50.2z" fill="#002d62"/><path d="M155 148.5l7.2 9.2.5 31.5c-2.6 6-8 2.8-8 2.8l.3-43.5z" fill="#aa241e"/><path d="M162.8 193.8V205c-7 6.6-8.8-3-8.8-3 5-.6 7.6-4.4 8.8-8.2z" fill="#232973"/><path d="M129 177.8c9.4 13.4 17.5 20.7 17.5 20.7 2 21 12 14 15.7 10.8-2 10-8.5 17-16.2 17-9.4 0-17-10.5-17-23.6v-24.9z" fill="#aa241e"/><path d="M128.4 114.4l.7 87.7v.3c0 13.2 7.6 23.8 17 23.8 9.3 0 16.8-10.4 17-23.4v-.3l-.8-45z" stroke="#000" stroke-width=".79543" fill="none"/><path d="M162.8 194V205.5c-7 6.4-8.8-3-8.8-3 5-.7 7.6-4.5 8.8-8.3z" fill="#F00"/><path d="M129 178c9.4 13.5 17.5 20.7 17.5 20.7 2 21.2 12 14.2 15.7 11-2 9.8-8.5 17-16.2 17-9.4 0-17-10.6-17-23.7V178z" fill="navy"/><path d="M122.8 122l1 95v.4c0 14.2 10 25.7 22.8 25.7 12.5 0 22.7-11.2 22.8-25.3v-.3l-1-48.8z" stroke="#000" stroke-width=".9358" fill="#FFF"/><path d="M122.8 122.6l25.3 25.8v52L123.2 177l-.5-54.4z" fill="#002d62"/><path d="M158.7 159l9.8 10 .7 34.3c-3.5 6.6-10.7 3-10.7 3l.2-47.2z" fill="#ce1126"/><path d="M169.2 208.2l.2 9.7v2.5c-9.5 7-12-3.4-12-3.4 7-.5 10.3-4.6 11.8-8.8z" fill="#002d62"/><path d="M123.5 191c12.8 14.4 23.7 22.3 23.7 22.3 3 23 16.5 15.3 21.3 11.7-2.7 10.8-11.5 18.6-22 18.6-12.6 0-22.8-11.5-22.8-25.7v-.4l-.2-26.7z" fill="#ce1126"/><path d="M122.8 122l1 95v.4c0 14.2 10 25.7 22.8 25.7 12.5 0 22.7-11.2 22.8-25.3v-.3l-1-48.8z" stroke="#000" stroke-width=".9358" fill="none"/></g><g stroke-width=".3" stroke="#000" fill-rule="evenodd"><path d="M61 77L13.6 21" fill="none" transform="matrix(.74565 .1314 -.12844 .75956 132.3 85.1)"/><path d="M16.3 24.4c-4-5-3.8-7.5-2-10L.7 5l6 15.4c3-1.4 5.5-1 9.5 4z" class="fil7 str1" fill="#eac102" transform="matrix(.74565 .1314 -.12844 .75956 132.3 85.1)"/><path d="M.8 5l15.4 19.4" fill="none" transform="matrix(.74565 .1314 -.12844 .75956 132.3 85.1)"/><path d="M75.4 91l-2.8 1.6-59.8-70 2.5-2z" fill="#eac102" transform="matrix(.74565 .1314 -.12844 .75956 132.3 85.1)"/><path d="M11.2 22.8c-.5-.6 0-2 1.4-3 1.3-1 2.7-1.3 3.2-.7.6.8 0 2-1.3 3.2-1.3 1-2.7 1.3-3.3.6z" class="fil7 str1" fill="#eac102" transform="matrix(.74565 .1314 -.12844 .75956 132.3 85.1)"/></g><g stroke-width=".3" stroke="#000" fill-rule="evenodd"><path d="M61 77L13.6 21" fill="none" transform="matrix(.75597 .03213 -.03153 .77018 114.3 89.5)"/><path d="M16.3 24.4c-4-5-3.8-7.5-2-10L.7 5l6 15.4c3-1.4 5.5-1 9.5 4z" class="fil7 str1" fill="#eac102" transform="matrix(.75597 .03213 -.03153 .77018 114.3 89.5)"/><path d="M.8 5l15.4 19.4" fill="none" transform="matrix(.75597 .03213 -.03153 .77018 114.3 89.5)"/><path d="M75.4 91l-2.8 1.6-59.8-70 2.5-2z" fill="#eac102" transform="matrix(.75597 .03213 -.03153 .77018 114.3 89.5)"/><path d="M11.2 22.8c-.5-.6 0-2 1.4-3 1.3-1 2.7-1.3 3.2-.7.6.8 0 2-1.3 3.2-1.3 1-2.7 1.3-3.3.6z" class="fil7 str1" fill="#eac102" transform="matrix(.75597 .03213 -.03153 .77018 114.3 89.5)"/></g><g stroke-width=".3" stroke="#000" fill-rule="evenodd"><path d="M61 77L13.6 21" fill="none" transform="matrix(.7547 -.0551 .05408 .76888 109.8 103.3)"/><path d="M16.3 24.4c-4-5-3.8-7.5-2-10L.7 5l6 15.4c3-1.4 5.5-1 9.5 4z" class="fil7 str1" fill="#eac102" transform="matrix(.7547 -.0551 .05408 .76888 109.8 103.3)"/><path d="M.8 5l15.4 19.4" fill="none" transform="matrix(.7547 -.0551 .05408 .76888 109.8 103.3)"/><path d="M72.6 92.6l-59.8-70 2.5-2 60 70.3z" fill="#eac102" transform="matrix(.7547 -.0551 .05408 .76888 109.8 103.3)"/><path d="M11.2 22.8c-.5-.6 0-2 1.4-3 1.3-1 2.7-1.3 3.2-.7.6.8 0 2-1.3 3.2-1.3 1-2.7 1.3-3.3.6z" class="fil7 str1" fill="#eac102" transform="matrix(.7547 -.0551 .05408 .76888 109.8 103.3)"/></g></g><use xlink:href="#a" transform="matrix(-.4679 0 0 .4679 353.3 -66.3)"/><path d="M-453.5 1323.3l172 286 351-221h-1L-123 1129.7z" stroke="#000" transform="matrix(.1229 -.00056 -.00304 .13033 207.2 -4.3)"/><path d="M-1070.7 893.8l376.3 16.5L-663 1221h-407.7z" transform="matrix(.10643 -.06846 .0615 .1109 207.2 -4.3)" stroke="#000" stroke-width="6.4" fill="#FFF" color="#000"/><path d="M-854.5 1585l365.8-204-27.2-43.2-177.7-241-89 57.3-48 35.2-8 7s-138 85.4-156.8 75c-18.7-10.6-29.3-18.8-29.3-18.8l5.4 37.4z" stroke="#000" transform="matrix(.1128 -.00537 .0018 .1195 262.5 8.3)"/><g stroke="#000" fill="#FFF"><g stroke-width="3.8"><path d="M-473.7 1369l.3-313.5c-31.8-50.2-123.8-21-146.7-18.2-23 2.7-48.2-25-48.2-25l-11.7 325.4c30.6 42 87.5 10 115.8 7.3 51.7-5 90.5 24 90.5 24z" transform="matrix(.09546 -.06666 .06013 .0993 152.9 18.8)"/><path d="M-474.5 1371.7l3.7-311.3c31.8-50.2 106.6-22.7 129.5-20 23 2.7 48-25 48-25l11.8 325.4c-30.5 42-87.4 10-115.7 7.4-51.8-5-77.3 23.5-77.3 23.5z" transform="matrix(.09546 -.06666 .06013 .0993 152.9 18.8)"/></g><path d="M-284 1374c-2.7-15.5-8.3-41.2-8.3-41.2C-394 1147.4-450 1050.4-450 1050.4c-3 33-1 31-1 31 119 191 167 292.8 167 292.8z" stroke-width="2.7" transform="matrix(.1128 -.00537 .0018 .1195 198.3 36.4)"/></g><path d="M155.3 168.5l.3.5c.2 0 .2 0 .2-.2v-.3l.4.7h-.2c0-.2 0-.2-.2-.2v.5h.4c.2 0 .3 0 .3-.2v-.4l.2.3-1 .8v-.3l-.6-1h-.2l1-.7.3.4c-.2-.2-.3-.2-.3 0h-.3zM156.5 167.6l.7 1.2h.2l-.5.4v-.2l-.7-1h-.2zM158 166.6l.3.4s-.2 0-.3-.2h-.3v.2c-.2 0-.2.2 0 .2h.9l.3.3v.4l-.3.2h-.3v.2l-.4-.4.4.2h.3v-.2c.2 0 0-.2 0-.2h-.7l-.2-.2h-.2v-.5l.2-.2h.4v-.2zM159.6 167.4s0 .2-.2.3h-.2c-.2 0-.2-.2-.2-.3l.3-.5v-.2h-.2v.4h-.2v-.3-.3h.2c0-.2.2-.2.3-.2.2 0 .2 0 .3.2l.2.4v.2h.2s0 .2-.2.2h-.2zm0 0l-.3-.4v.4h.2z"/><path d="M160 166c0-.2.2-.2.2-.2h.2c.2 0 .2 0 .3.2l.2.4-.3.4v-.3l-.3-.4h-.2v.2l.2.5h.2l-.5.4h.2l-.4-.7h-.2zM161 165v.3l.3-.2v.2l-.2.2.5.6h.2v.3h-.3s-.2 0-.2-.2l-.3-.4h-.3v-.3-.3zM161.8 164.8h.6s.2 0 .3.2v.4c0 .2 0 .3-.2.4h-.4s-.2 0-.3-.2v-.5-.2zm0 0v.3c0 .2 0 .3.2.4 0 0 0 .2.2.2h.2c0-.2 0-.3-.2-.5-.2 0-.2-.2-.3-.2zM157 171l.2.6.2-.2v-.3l.4.8s-.2 0-.2-.2h-.2-.2l.3.4v.2h.2l.4-.4v-.4l.3.5-1.2.6h.2v-.2l-.6-1v-.2h-.2l1-.6.3.4-.3-.2h-.2-.2zM159 171.5l-.8-.5h-.2l.4-.4v.2l.5.3-.2-.3v-.2h-.2l.3-.2v1.3zM160 170.7l-.3.3h-.2v-.3s0-.3.2-.5c0-.2 0-.2-.2-.2h-.2v.2h.2v.2h-.3v-.2-.2h.2c0-.2.2-.2.3-.2.2 0 .2 0 .3.2l.2.4h.2v.2h-.4zm0 0l-.3-.4v.4h.2zM160.4 169.3v0s.2 0 .2-.2h.2l.2.2v.2l.3.3v.2c.2 0 .2 0 .2-.2l-.4.4v-.2l-.2-.5c0-.2 0-.2-.2-.2v.3l.2.5v.2h.2l-.4.3v-.3l-.4-.5h-.2zM161.7 168.5l.3-.2v.2l.2.4-.2.2h-.2v.2h.2c.3 0 .4-.2.4-.2h.3v.5l-.3.3h-.5v-.2c0-.2-.2-.2 0-.3s0 0 0-.2h-.3l-.2-.2v-.2s0-.2.2-.2h.2zm0 0c-.2 0-.2.2-.2.2v.3c.2 0 .2.2.3.2h.2v-.4c-.2 0-.3-.2-.3-.2zm.4 1.2v.2h.4c0-.2 0-.3.2-.3v-.2h-.2l-.3.2z"/><path d="M163 168l-.4.4.3.3c.2 0 .2 0 .2-.2v-.2V169h-.5l-.3-.4v-.4-.3l.4-.2s.2 0 .3.3zm0 .2c-.2 0-.3-.2-.3-.2h-.2v.3zM163 167l.8 1v.2h.2l-.4.4v-.2l-.6-1v-.2h-.2zM163.5 166.6h.2v.4h-.3v-.3zm.4.4l.4.7v.2l.2-.2-.5.4c.2-.2 0-.2 0-.3l-.2-.6h-.3v-.2zM164.5 166.6h.6c.2 0 .2 0 .3.2v.8h-.6s-.2 0-.3-.2v-.5-.4zm0 0v.2c0 .2.2.3.3.5 0 .2.2.2.2.2h.2v-.2s0-.2-.3-.4c0-.2-.2-.3-.2-.3h-.2zM158.8 173.3l.3.4s-.2 0-.3-.2h-.3v.5h.9l.2.2v.4s0 .2-.2.3h-.3l-.2.2-.3-.5.4.2.2-.2h.2v-.3h-.8l-.2-.2c-.2-.2-.2-.3-.2-.5.2 0 .2-.2.4-.3h.4v-.2zM160.4 173.5l-.6.3.3.3h.3l.2-.3v.4c0 .2 0 .2-.2.3h-.4c-.2 0-.3 0-.4-.3v-.4-.3h.4l.4.2zm-.3 0c0-.2-.2-.2-.2-.2v.4zM160.8 172.6l.3-.2h.2l-.2.2c.2 0 .2 0 .2.2v.4h-.2v.4h.2c0-.2.3-.3.3-.3s.2 0 .3.2v.2c0 .2-.2.3-.3.4l-.3.2h-.2v-.3s-.2 0-.2-.2v-.2-.2h-.2-.2v-.4s0-.2.2-.3h.2zm-.2 0v.3c0 .2.2.3.2.3h.2v-.4c0-.2-.2-.2-.2-.3h-.2zm.6 1.2v.2h.2s.2 0 .2-.2v-.2l-.4.2z"/><path d="M162 171.8l.6.7h.2l-.4.4v-.2.2h-.3-.2l-.4-.5h-.2v-.2l.4-.2.4.7v.2h.2v-.2l-.2-.6v-.2h-.3z"/><path d="M162.7 171.4h.2v-.2h.2s.2 0 .3.2l.2.4h.2l-.6.4v-.2l-.2-.5h-.2l.2.6v.2h.2l-.5.4v-.2l-.4-.6v-.2h-.2zM164.6 169.6l.3.4h-.2-.3c0-.2-.2 0-.3 0v.2h.9l.3.3v.4s0 .2-.2.2h-.2v.2h-.2l-.3-.4.4.2h.3s.2 0 .2-.2v-.2h-.3-.7-.2v-.3-.3c0-.2 0-.3.2-.3v-.2h.4v-.2zM166 170.3v.4h-.3l-.2-.4.3-.4v-.2-.2h-.2-.2v.2h.2v.2h-.4v-.3c.2 0 .3 0 .3-.2h.3c.2 0 .2 0 .3.2l.3.3h.2v.4h-.3zm0 0l-.2-.4v.4h.2v-.2z"/><path d="M166.5 169c.2 0 .2-.2.3-.2h.3s.2 0 .2.2l.3.4h.2l-.5.4v-.2l-.3-.5h-.2s-.2 0-.2.2l.3.5c0 .2 0 0 0 0l.2.2-.5.2v-.2l-.4-.6v-.2h-.2zM167.7 167.7l.7-.5v.2l.4.8v.7h-.5-.2v-.2l.2-.2h.2v.2h.2v-.3l-.5-.8h-.2zM169.7 167l.4.7h.2v.2h-.3s-.2 0-.2.2h-.6l-.2-.5h-.2l.3-.4.5.7h.2l-.2-.6v-.2h-.2zM171 167.3c-.2 0-.3.3-.3.3h-.2c-.2 0-.2-.2-.2-.3 0 0 0-.3.3-.5 0 0 0-.2-.2-.2h-.2v.2c.2 0 .2 0 .2.2h-.2c-.2 0-.2 0-.2-.2v-.2h.3c0-.2.2-.2.3-.2.2 0 .2 0 .3.2v.4h.2v.2l-.2.2zm-.2 0l-.2-.4v.2c0 .2 0 0 0 0h.2zM171.3 166c0-.2.2-.2.2-.3h.4v.3l.2.4h.3l-.5.4v-.3l-.3-.4h-.2v.2l.2.5h.2l-.5.4-.4-.7zM163.2 180l.3.5h-.4-.2s-.2 0-.2.2v.7c.2 0 .3.2.4.3h.6s.2 0 .2-.2v-.4.6s0 .2-.2.2c-.2.2-.5.2-.7 0-.3 0-.4 0-.5-.2v-.5-.3s0-.2.2-.3h.4c.2 0 .2-.2.2-.2zM164.8 180.3l-.5.4v.2h.3l-.4.4v-.2-.3l-.2-1.5 1.2.8s.2 0 .2.2h.2l-.5.3c.2-.2.2-.2 0-.2zm0 0l-.6-.4v.6zM165.6 179.5l.3.4h.2l-.5.4v-.2-.2l-.5-.8s0-.2-.2-.2h-.2l.5-.3h.6c0 .2.2.3 0 .4v.4h-.2-.2zm0 0h.2v-.3-.3-.2h-.2-.2zM167.4 179.3l-.6.4v-.2l-.5-1v-.2h-.2l.6-.3v.2c-.2 0 0 0 0 .2l.5.8s0 .2.2.2zM167.8 177.2l.2.3h-.6l.6 1v.3h.3l-.5.3v-.3l-.6-1h-.2v.4l-.3-.3zM169 176.6h-.2l.5-.3v.2l.3.7s0 .2.2.3v.3l-.4.3c0 .2-.2.3-.3.2h-.2l-.3-.4-.3-.5c-.2-.2-.2 0-.2 0l.5-.5-.2.2v.2l.5.6c0 .2.2.2.2.3h.4s.2 0 .2-.2v-.2-.4l-.4-.5h-.2c0-.2 0-.2 0 0zM171 176.5l.2.4-1 .5v-.2l-.5-1c-.2-.2-.2 0-.3 0l.5-.5h-.2v.4l.6 1h.3v-.2h.3v-.3-.2zM171.3 175c.2 0 .4-.2.6 0 0 0 .2 0 .4.3v.6s0 .3-.3.4c0 0-.2.2-.4 0-.3 0-.4 0-.5-.3v-.6c0-.2 0-.3.3-.4zm0 0l-.2.4s0 .3.3.6c0 .2.3.3.4.4h.4c.2 0 .3-.3.3-.4v-.6l-.6-.4h-.4zM174 173.3v1.8l-1-.7h-.4l.5-.5v.2l.2.2.8.6-.2-1v-.2h-.2z"/><path d="M175.4 174.2l-.5.4v-.2l-.6-1v-.2h-.4l.6-.3v.3l.5.8.2.3h.2zM176 173.8l-.4.4v-.2-.2l-.5-1h-.2l.5-.3v.2l.5 1h.3z"/><path d="M176.8 173.4l-.6.4v-.2-.2l-.5-1h-.2l.5-.4v.2c-.2 0 0 0 0 .2l.5 1h.2zM165 185.7v-.3l.2-.3h.4v.2c.2 0 .2.3 0 .4h.4l.2.2v.4c0 .2 0 .3-.2.5h-.2s-.2 0 0 0v-.2h.2s.2 0 .2-.2v-.2h-.7v-.2c.2 0 .2-.2.2-.2v-.2h-.2-.2s-.2 0-.2.3zM166 184.8l.4-.4.7 1.2h.4l-.5.4v-.2l-.5-1h-.2zM168.3 183.3l.5-.3v.2c-.2 0-.2 0-.2.2v.7l.2.5h.4l-.6.4v-.7l-1-.4h-.2l.5-.5h-.2v.2h.2l.5.4v-.5-.2h-.2zM170.8 183.4v.2h-.2s-.2.2-.4 0h-.3l-.2-.6s0-.3.2-.3h.3v-.3h-.2v-.4l.8 1v.2h.2v.3h-.2zm0 0l-.4-.6h-.4v.5l.3.2h.3v-.2zM171 182.6l.3.3s.2 0 .3-.2c0-.2.2-.3 0-.4h.2v.4s0 .2-.2.2h-.3c-.2 0-.3 0-.4-.2-.2 0-.2-.3-.2-.4 0-.2 0-.3.3-.4h.4s.2 0 .2.2zm0 0l.4-.3c0-.2-.2-.2-.2-.2l-.2.2v.3z"/><path d="M172.7 182v.3s0 .2-.2.2h-.3c-.2 0-.3 0-.4-.2v-.5s0-.2.2-.3h.4v.2h-.2-.2v.4c0 .2 0 .3.2.3h.3v-.2c.2 0 .2 0 0 0zM172.4 180.6c.2 0 .2 0 0 0v0zm.3.4l.5.7v.2l.2-.2-.4.3v-.2l-.2-.3v-.2h-.2v-.3zM174 181.3v.3h-.2-.2-.2v-.2-.2l.3-.4-.2-.2c-.2 0-.2 0-.2.2v.2c-.2 0-.2 0 0-.2v-.2h.6V181.3h.2v.2h-.2zm0 0l-.3-.4c0 .2 0 .2-.2.3 0 0 0 .2.2.2s.2 0 .3-.2zM174.3 179.5l.5-.4v.4l.4.7v.8h-.4v-.2h.4l-.6-1v-.2h-.2zM175.6 179.7c0 .2 0 .2.2.3h.3c.2 0 .2 0 .3-.2v-.2.5h-.5s-.2 0-.3-.3v-.5-.3H176.2zm0 0l.3-.3h-.2v-.2h-.2v.5zM176.7 178.5v.3h-.3v.2h.7l.2.4s0 .2-.2.2h-.2v.2l-.3-.3h.5v-.2h-.6v-.2h-.2c0-.2 0-.3.2-.3h.2v-.2zM177.7 178l.3.5.2.2v.2l-.2-.2v.2s-.2 0-.2.2h-.2c-.2 0-.2-.2-.3-.2l-.2-.5h-.2l.3-.2.5.6h.4v-.3l-.4-.5h-.2zM178.5 177.3v.2h-.3v.4h.4c.2-.2.3 0 .3 0v.3l-.2.2h-.2l-.3-.2h.3c0 .2 0 0 .2 0v-.2h-.6c-.2 0-.2-.2-.2-.3l.2-.2h.2zM180.2 177.4v.2h-.2c0 .2 0 .2-.2.2l-.2-.2v-.3l.3-.4-.3-.3h-.2v.4h-.2v-.3c0-.2 0-.3.2-.3h.5l.2.4v.3h.2v-.2.5h-.2zm0 0l-.3-.4c-.2 0-.2.2-.2.2v.4h.2v-.3zM166.7 187.7l.7 1.2h.2l-.3.3v-.3l-.5-.8v-.2h-.2v-.3zM167.7 187.7h.4c.2 0 .3 0 .4.2v.7h-.6s-.2 0-.3-.2v-.3-.3c0-.2 0-.2.2-.3zm0 0v.5s0 .2.3.3h.3v-.2-.3l-.4-.2h-.3zM168.8 187l.2.3h-.2-.2v.2h.7v.4l-.3.2-.3-.2h.4v-.2h-.4-.2l-.2-.2v-.2-.2h.3v-.2zM169.5 186h.2v.2h-.2v-.2zm.4.4l.4 1s.2.2 0 .3v.3h-.2v-.2h.2v-.3l-.5-.6c0-.2-.2-.3-.2-.3h-.2l.2-.3zM171 185.7l.3.6v.2h.2v.3h-.2v-.2s0 .2-.2.3h-.3v-.2l-.4-.4h-.2l.4-.3.4.7c.2.2.2 0 .2 0s.2 0 .2-.2l-.3-.5h-.2-.2zM172.3 186v.2h-.2c0 .2 0 .2-.2.2s-.3 0-.3-.3c0 0-.2-.2 0-.3v-.4h.3v-.2h-.2-.2l.2-.4.7 1v.3h.2v-.2.5zm0 0l-.3-.5h-.2-.2v.4s.2 0 .3.2c.2 0 .2 0 .2-.2z"/><path d="M172 184.3h.2v.2h-.2v-.2zm.5.4l.4.8h.2l-.5.4v-.2-.2l-.2-.4v-.2h-.2v-.2zM173 184.3h.6s.2 0 .2.2v.7h-.5s-.2 0-.3-.2v-.3-.2-.2zm0 0v.5l.4.3c0 .2.2.2.3 0v-.3c0-.2-.2-.3-.3-.4h-.3zM174.3 183.5l.2.3h-.3-.2v.2h.4c.2 0 .3 0 .4.2v.2s0 .2-.2.3h-.2l-.3-.2H174.7v-.2h-.3-.3v-.2h-.2c0-.2 0-.2.2-.3h.2zM175.8 182.6l.7 1.2h.2l-.4.4v-.2l-.2-.5v.2l-.4.2c0-.2-.2-.3-.3-.4v-.5l.2-.2h.2v-.2zm.3.8l-.2-.4-.2-.2c-.2 0-.3.2-.3.3v.4l.4.3h.2v-.2zM176.8 182l.4.6c0 .2 0 .2.2.2v.2h-.2l-.3.2h-.2-.2v-.2l-.4-.4h-.2l.3-.3.4.7h.2v-.2l-.2-.5h-.3zM177.4 182c0 .2.2.3.3.3h.3v-.4h.2v.2c0 .2 0 .3-.2.3h-.3c-.2 0-.3 0-.4-.2v-.4-.5h.5l.2.2zm0 0l.4-.2v-.2h-.2-.2v.4zM178.5 180.3l.7 1.2h.3l-.5.4v-.2-.2l-.5-.8v-.2h-.2v-.3zM179.4 180.8c0 .2 0 .3.3.3h.3v-.3c.2 0 .2.2.2.3 0 0 0 .2-.2.3h-.4s-.2 0-.3-.2v-.4-.3h.7zm0 0l.3-.3h-.4v.3zM168.2 190.3l.4.7v-.3h.2s0-.2.2 0c.2 0 .2 0 .3.2l.2.2h.2l-.4.4v-.2l-.2-.4v-.2h-.2v.2l.2.5h.2l-.4.4v-.2-.2l-.5-.8v-.2h-.2l.2-.3zM170.3 190.8v.2h-.2c0 .2 0 .2 0 0h-.3v-.3s0-.2.3-.4l-.2-.2h-.2v.4c0 .2 0 .2 0 0s0 0-.2 0c0-.2 0-.3.2-.3h.4v.2l.3.3c0 .2 0 .2.2.2v-.2.4c-.2 0-.2-.2-.2-.2zm0 0l-.3-.4v.2h-.2v.3h.2l.2-.3zM170.5 189.7s0-.3.2-.3h.3s.2 0 .3.2v.5c0 .2 0 .4-.2.4h-.3l-.5-.8s0-.2-.2-.2h-.2l.2-.3zm0 0l.4.7h.2v-.3-.2l-.3-.3h-.3v.2h-.2zM171 188.5h.2v.2c-.2 0-.2 0 0-.2zm.5.4l.4.6v.2h.2l-.4.2v-.3l-.2-.3-.2-.2h-.2l.2-.3zM172.7 189.2v.2h-.2c0 .2 0 .2-.2.2v-.2h-.2c0-.2.2-.2.2-.3l.2-.3v-.2h-.3V188.5h.5l.3.4h.2v.3h-.2zm0 0l-.2-.4s0 .2-.2.2v.4h.3v-.3z"/><path d="M173 188.2c0-.2 0-.3.2-.4h.2c.2 0 .2.2.3.2l.2.4v.2h.2l-.5.2v-.2l-.2-.4v-.2h-.3v.3l.2.5h.2l-.4.4v-.2l-.2-.5v-.2h-.2v-.2zM175.3 187.3v.4s0 .2-.2.2h-.2l-.3-.3s-.2-.3 0-.4v-.4h0v.5s0 .2.2.2h.5v-.4zM175.3 186.5l.2.2v-.3h.2s0 .2 0 0l-.2.2v.2l.3.4s0 .2 0 0 .2 0 .2 0l-.4.4v-.2l-.2-.4v-.2h-.2v-.3zM176 186.5l.4.2h.3v-.2-.2h.2v.3l-.3.3h-.3c-.2 0-.3-.2-.4-.3v-.5-.3c.2-.2.3-.2.5 0h.2zm0 0l.5-.4h-.3s-.2 0-.2.2v.2zM176.6 185v0zm.3.4l.4.8h.2l-.4.4v-.2l-.2-.5v-.3h-.2v-.2zM178.3 185.7v.2h-.5s-.2 0-.3-.2v-.4-.4h.4l-.2-.2v-.2h-.2v-.3l.8 1v.3h.2v.2h-.2zm0 0l-.3-.5h-.4v.4c0 .2.2.2.3.3h.2v-.3zM178.7 184.4h.4c.2 0 .3 0 .4.2v.5l-.2.2h-.4s-.2 0-.3-.2v-.3-.4s0-.2.2-.2zm0 0V185s0 .2.2.3h.2v-.2c.2 0 0 0 0-.2s-.2-.3-.3-.3h-.3zM175.6 156.8l.2.4-.2-.2h-.3v.2c-.2 0 0 0 0 0v.2h.6s.2 0 .2.2v.3h-.2v.2h-.2v.2l-.4-.4h.2c0 .2 0 .2.2.2h.2v-.3-.2-.2h-.4-.2-.2l-.2-.4s0-.2.2-.2h.3v-.2zM176 156.4v0zm.3.4l.4.6h.2l-.5.4v-.2l-.2-.4v-.2h-.2l.3-.2zM177 156.4l.3-.2v.2l.4.3v-.5h-.2l.2-.3.2 1h-.2l-.7-.5zM178.2 155.6h.4s.2 0 .2.2v.7h-.5s-.2 0-.2-.2v-.3-.2l.2-.2zm0 0v.5c0 .2 0 .3.2.4h.3v-.2-.2c0-.2-.2-.3-.3-.3h-.2zM179.2 155l.2.3h-.3v.2h.6v.5h-.3l-.3-.2h.3c0 .2 0 0 .2 0v-.2h-.3-.2c-.2 0-.2-.2-.2-.3l.2-.2h.2z"/><path d="M179.7 154.6h.4c.2 0 .3 0 .4.2v.6l-.2.2h-.3c-.2 0-.3 0-.4-.2v-.2-.2-.2zm0 0v.5c0 .2.2.3.3.4h.2v-.2-.2c0-.2 0-.3-.2-.3h-.3zM180.3 154l.2.2h.2-.2l.3.6h.2v.2h-.2l-.4-.7h-.2v-.2zM181 154v-.2h.2v.7h.4l-.4.4v-.2-.2l-.2-.3v-.2h-.2v.2-.3zM181.7 153.4h.3s.2 0 .3.2v.8h-.5s-.2 0-.3-.2v-.2-.2l.2-.2zm0 0v.5l.2.2h.2v-.2-.2c0-.2-.2-.3-.3-.3h-.3zM182.7 152.8v.3h-.3v.2h.4s.2 0 .3.2v.4h-.2l-.3-.2h.2c0 .2.2 0 .2 0v-.2h-.3-.3v-.3h.2v-.2zM176.4 160l.2-.3v.2l.2-.4c.2 0 .2-.2.3 0h.4v.9h-.2v.3h.2l-.3.3h.2v-.2l-.6-.8h-.2zm.4 0l.2.2s0 .2.2.2l.2-.2v-.3l-.3-.3h-.2v.2zM177.6 159.5s0 .2.2.2h.3c.2 0 .2 0 .2-.2v-.2.5h-.4s-.2 0-.3-.2v-.3-.3h.4zm0 0l.3-.3h-.2-.2v.2z"/><path d="M178.3 158.6v.2c0-.2 0-.3.2-.3v.7h.4l-.5.4v-.2l-.2-.4v-.2h-.2l.2-.2zM179 158.4v-.2l.3-.2h.2v-.2h.4l.2.5h.2l-.4.3v-.2l-.2-.4h-.2V158.6h.4l-.4.3v-.2l-.2-.5h-.3v.2l.2.4h.2l-.3.2h.2v-.2l-.3-.3-.2-.2h-.2l.2-.2zM180.8 158v.2h-.3c-.2 0-.2 0-.2-.2v-.2s.2 0 .3-.3h-.2-.2v-.2h.5l.2.4v.2h-.2zm0 0l-.2-.4v.2h-.2v.2h.4zM181 157s0-.2.2-.3h.2s.2 0 .2.2l.2.3h.2l-.3.3v-.2l-.2-.4h-.3l.2.5v.2h.2l-.4.2v-.2-.2l-.2-.3v-.2l-.2.2v-.3h.2zM182 156.7s0 .2.2.2h.2v-.2c.2 0 .2 0 0-.2h.2v.3c-.2 0-.3.2-.5 0s-.2-.4-.2-.5c0 0 0-.2.2-.3h.2s.2 0 .3.2zm0 0l.3-.3h-.2c-.2 0 0 .2 0 .3z"/><path d="M183.3 156V156.7h-.4c-.2 0-.3 0-.4-.2v-.4-.2h.2v.2c-.2 0 0 .2 0 .2v.2h.4v-.3zM183.5 155.7c0 .2 0 .2.2.3h.3v-.2-.2c.2 0 .2.2 0 .3 0 .2-.2.2-.3.2l-.3-.3v-.5-.2H184zm0 0l.3-.2c0-.2-.2-.2-.2-.2-.2 0-.2 0-.2.2v.2z"/><path d="M184 155h.2v-.3h.2v.7h.4l-.4.3v-.2l-.2-.3v-.2h-.2v.2-.3zM184.8 155h.6v-.3h.2v.3s0 .2-.2.3h-.3s-.2 0-.2-.2c0 0-.2-.2 0-.3v-.3h.6zm0-.2l.3-.2h-.2v.2z"/><path d="M185.2 153.7h0zm.3.3l.4.7-.2.3v-.2l-.2-.4h-.2c0-.2 0 0 0 0v-.4zM186.2 153.5l.2.3h-.2-.2v.2h.7v.3s0 .2-.2.2h-.2v.2l-.2-.3h.5v-.2h-.3-.2c0-.2-.2-.3 0-.3v-.3h.2zM178 162.2l.3.3h.3v-.2-.2h.2v.4s0 .2-.2.2h-.3s-.2 0-.3-.2v-.4-.2H178.7zm0 0l.4-.2c0-.2 0-.2-.2-.2 0 0-.2 0-.2.2v.2zM178.8 161.5c0-.2 0-.3.2-.3h.3l.3.5h.2l-.4.3v-.2l-.2-.4h-.2V162h.4l-.4.3v-.2l-.2-.2v-.2h-.2v-.2zM180 160.7c.2 0 .2-.2.2-.2v-.2h.5v-.3h.2l.2.2.2.3v.2h.2l-.4.2v-.2-.2l-.2-.3h-.2-.2v.2l.3.3v.2l-.3.2V160.5h-.3-.2l.2.5v.2h.2l-.3.3v-.2l-.2-.4v-.2h-.2l.2-.3zM181 159.3h.2v0zm.4.3l.4.7h.2l-.3.3v-.2l-.2-.3h-.2v-.3zM182 159.4l.3-.3V159.2h.8c0 .3.2.4.2.5 0 .2 0 .2-.2.3h-.2v.3l.2.2-.3.2v-.2l-.4-.8h-.2zm.4 0l.2.2c0 .2.2.2.2.2.2 0 .2 0 .2-.2v-.3l-.3-.2h-.2v.2zM183.8 159v.3c-.2.2-.2.2-.3 0h-.2v-.3s.2 0 .3-.3h-.2c0-.2 0 0 0 0h-.2V158.7v-.2h.5l.2.4v.2h-.2zm0 0l-.2-.2v.2h-.2v.2h.4zM183.7 157.6l.7 1v.2h.2l-.4.2v-.2l-.4-.8c0-.2-.2-.2-.2-.2v-.2zM185 158.3v.2c0 .2-.2.2-.3.2v-.2-.3-.3-.2h-.2v.2c0 .2 0 .2 0 0-.2 0-.2 0 0 0v-.3h.4v.4l.2.2h.2s0 .2-.2.2zm0 0v-.3c-.2 0-.2 0-.3.2v.2h.2zM185.3 157.4v-.3h.4l.2.3v.4c0 .2 0 .2-.2.3h-.3l-.5-.7v-.2h-.2zm0 0l.3.6h.2v-.3-.2s0-.2-.2-.2h-.2v.2zM186 156.7l.2.2v-.4h.2v.2h-.2v.2l.3.4h.2l-.4.3v-.2l-.2-.3v-.4zM187.3 157c0 .2 0 .2-.2.2h-.2v-.2-.2l.2-.3c-.2-.2-.2 0-.2 0v.2h-.2v-.2l.2-.2h.5v.4h.2c0 .2 0 0 0 0h.2v.3h-.2zm0 0l-.2-.4v.4h.3zM179.6 164H179.5s-.2 0-.2.2h.4c.2 0 .3 0 .3.2v.4h-.3v.2l-.2-.3h.4c0-.2 0-.2-.2-.2h-.2-.2l-.2-.3.2-.2h.2z"/><path d="M180 164c.2 0 .2.2.3.2h.3v-.4h.2v.3c0 .2 0 .3-.2.4h-.3s-.2 0-.3-.2v-.4-.3H180.7zm0 0l.4-.3h-.2-.2v.2z"/><path d="M180.8 163v.3c0-.2 0-.3.2-.3v.7h.4l-.4.4v-.2l-.2-.3h-.2v-.4zM181.4 163c0 .2.2.3.3.4h.3v-.2-.2.5h-.3s-.2 0-.3-.2v-.4-.3H182zm0 0h.4v-.2h-.4v.3zM181.8 162h.2-.2zm.4.3l.4.6h.2l-.4.2v-.2l-.2-.3v-.2h-.2v-.2zM183 161.8v.3h-.4v.2h.7v.4l-.3.2-.3-.2h.5v-.2h-.7v-.3h.2v-.2zM183.4 161.4l.4-.2v.2l.5.3v-.5h-.2l.3-.3v1l-.6-.5h-.2z"/><path d="M184.7 161c0 .2 0 .3.2.3h.2v-.3c.2 0 .2 0 0 .2v.3h-.3c-.2 0-.3 0-.4-.2v-.4-.4h.4l.2.2zm0 0l.3-.2h-.4v.2zM185.3 160.2v.2c0-.2.2-.3.2-.3h.2v.2h-.2v.3l.2.3h.2l-.4.4v-.2l-.2-.4h-.2c0-.2 0 0 0 0v-.4zM186.7 160.4c0 .2-.2.2-.2.2h-.3s-.2 0-.3-.2c0 0-.2-.2 0-.3v-.3h.3l-.2-.3v-.2l.7.8v.2h.2l-.2.2zm0 0l-.3-.5v-.2h-.2c-.2 0-.2 0-.2.2v.3s.2 0 .3.2h.2v-.2zM187.4 160v.2h-.3v-.2-.2s0-.2.2-.3c0 0 0-.2-.2-.2h-.2V159.5c0-.2.2-.2.3-.2h.2v.2l.3.2v.2l.2-.2v.3h-.2zm0-.2l-.2-.3v.2h-.2v.2h.2s.2 0 .2-.2zM188.3 159.3v.2h-.2-.2-.2v-.5-.3h.3l-.2-.2v-.2h-.2v-.2l.7 1v.2h.2v.2zm0 0l-.3-.5h-.2-.2v.4c.2 0 .2.2.3.2h.2zM188.5 158.6c0 .2.2.2.3.3l.2-.2v-.3h.2v.3s0 .2-.2.2h-.3s-.2 0-.2-.2c0 0-.2-.2 0-.3v-.3h.5zm0 0l.3-.2s0-.2-.2-.2l-.2.2v.2zM189.2 157.8v.2c0-.2 0-.3.2-.3h0v.2l.2.4h.2l-.4.4v-.2l-.2-.4v-.2h-.2v-.2zM190.4 158v.2h-.5v-.3-.4-.2h-.2v0h.4l.2.3v.2h.2v-.2.3h-.2zm0 0l-.2-.4v.2h-.2v.3h.4zM190.6 157v-.2h.4s0-.2.2-.2l.2-.2c.2 0 .2.2.3.2l.2.4-.3.3v-.2l-.2-.3h-.2l-.2.2h.2l.2.3h.2l-.4.3V157h-.3-.2V157.6h.4l-.4.3v-.2l-.2-.4v-.2h-.2v-.2zM192 156.5l.2.2h.3v-.2-.2c.2 0 .2.2.2.3 0 0 0 .2-.2.2h-.3s-.2 0-.3-.2c-.2 0-.2-.2-.2-.3 0-.2 0-.3.2-.3h.5zm0 0l.3-.3-.2-.2v.4zM192.8 155.8v-.4h.4v.2l.3.3h.2l-.4.3v-.5h-.3-.2l.2.5h.2l-.3.4v-.3l-.3-.3v-.2h-.2v-.2h.2zM193.4 154.8v.2h.3-.2l.4.6v.2h-.2l-.4-.6v-.3-.2zM194 155l.3.3h.3v-.3c.2 0 .2.2.2.3l-.2.2h-.3s-.2 0-.3-.2v-.4-.4h.4s.2 0 .2.2zm0 0l.4-.2h-.2-.2v.3zM180.8 166.4v-.2l.3-.2h.2c0-.2.2-.2.2-.2h.3l.3.5h.2l-.4.3v-.2l-.2-.4h-.2V166.7h.4l-.4.3v-.2-.2l-.2-.3h-.5l.3.6h.2l-.3.2v-.3l-.3-.4h-.2v-.4h.2z"/><path d="M181.7 165h.2l-.2.2v-.2zm.3.4l.4.6h.2l-.3.3v-.2l-.2-.2v-.2h-.2l.2-.2z"/><path d="M182.7 165h.2v.2c-.2 0-.2-.2-.3-.2h-.2v.2h.4l.2.2v.3l-.3.2h-.2l-.2-.3h.4v-.2h-.2-.3v-.3-.2h.2zM184.4 165l-.2.2h-.3c-.2 0-.3 0-.3-.2v-.4-.3h.3v-.2h-.2-.2l.2-.3.6 1h.2v.3h-.2zm0-.2l-.3-.4h-.2v.4s0 .2.2.2h.2v-.2zM184.2 163.4v0zm.3.4l.4.6-.3.4V164h-.2v-.2h-.2l.2-.2zM185.2 163.3l.2.3h-.3v.2H185.6v.6h-.5v-.2l.3.3h.2v-.2h-.3-.2v-.2c-.2 0-.2 0-.2-.2h.2v-.2h.2zM186.3 163.3v.5h-.4c-.2 0-.3 0-.4-.2v-.3-.3h.4-.2v.2c-.2 0 0 .2 0 .3v.2h.4v-.2-.2zM186 162.2h.2v0zm.4.4l.4.6h.2l-.3.3v-.2l-.2-.3v-.2h-.2v-.2z"/><path d="M186.6 162.6l.2-.3.2.2v-.2-.2h.4c0 .2.2.2.2.3v.7h-.2v.3h.2l-.3.4v-.2l-.4-1h-.2zm.4 0l.2.2v.2h.2c.2 0 .2 0 .2-.2v-.3l-.3-.2h-.2v.2zM187.5 161.4zm.3.3l.4.7h.2l-.4.3v-.2l-.2-.4h-.2v-.3zM188 161l.6 1c0 .2 0 .2.2.2l-.3.2v-.2l-.4-.8v-.2h-.2l.2-.2zM188.8 161h.4s.2 0 .3.2v.5h-.2c0 .2-.2.2-.3.2 0-.2-.2-.2-.3-.3v-.3-.2-.2zm0 0v.5l.3.3h.3v-.2-.3s0-.2-.3-.2h-.2zM189.8 160.4l.2.3s-.2 0-.2-.2h-.2v.2s0 .2.2 0c.3 0 .4 0 .4.2v.2c0 .2-.2.2-.2.2l-.3-.2h.4v-.2h-.4-.2c0-.2-.2-.2 0-.3v-.2h.2zM184.5 173c0-.2 0-.3.2-.3h.3c.2 0 .2.2 0 .4h.4v.3c.2 0 .2.2.2.3 0 0 0 .3-.3.4h-.2.2c0-.2.2-.2.2-.2v-.3-.2h-.3v-.2-.2h-.3v.3zM186.5 172.8v.3l-.6.5v-.7-.4l-.2-.2h-.2v.2s-.2.2 0 .2h-.2v-.3l.2-.2h.2s.2 0 .3.2v.2c.2 0 0 .3 0 .4v.5l.3-.2h.2v-.2zM187 172.7v.2h-.2v-.2zM187.7 170.7l.4-.2h.2l-.2.2v.7l.2.3h.2l-.4.4V171.5l-.8-.3h-.2l.4-.4v.2l.5.2v-.5-.2h-.2zM189.8 170.6V171.2h-.4s-.2 0-.3-.2v-.4s0-.2.2-.3h.3v.2h-.2c-.2 0 0 .2 0 .3v.2h.4v-.2-.2zM190 169.8h.4s.2 0 .2.2v.7h-.4s-.2 0-.3-.2l-.2-.3v-.2s.2 0 .2-.2zm0 0v.5l.3.3h.2v-.2-.2c0-.2-.2-.3-.3-.3 0-.2 0 0-.2 0zM190.8 169.5c0-.2 0-.3.2-.3h.4l.2.5h.2l-.4.3v-.2l-.2-.4h-.2-.2l.3.6h.2l-.3.3v-.2l-.2-.2v-.2h-.2v-.2z"/><path d="M191.8 168.7h.3c.2 0 .3 0 .4.2V169.7h-.5c-.2 0-.3 0-.4-.2v-.3c0-.2 0-.2.2-.3zm0 0v.4s0 .2.2.3h.3v-.2-.2l-.3-.2h-.2zM193.2 168.5v.5h-.4s-.2 0-.3-.2v-.3-.3h.5-.2-.2v.5l.2.2h.3c0-.2.2-.2.2-.3v-.2zM193.3 168.2l.3.2h.2l.2-.2v-.2.5h-.4s-.2 0-.3-.2v-.3-.3h.6zm0 0l.4-.3v-.2h-.4v.3zM194 167.3v.2c0-.2 0-.3.2-.3h.2-.2v.2l.2.5h.2l-.4.3v-.5h-.2v-.2h-.2l.2-.2z"/><path d="M194.7 167.3s0 .2.2.2h.2v-.3c.2 0 .2 0 .2.3l-.2.2h-.3c-.2 0-.3 0-.4-.2v-.4-.2h.4s.2 0 .2.2zm0 0l.3-.3h-.2-.2v.3zM195 166h.2v.2h-.2v-.2zm.4.4l.4.6h.2l-.4.3v-.2l-.2-.2v-.2h-.2v-.2zM196 166l.3.2h-.2-.2v.2h.8v.5h-.3l-.2-.2h.4v-.2h-.5v-.3-.2h.2zM196.7 165l.6 1h.2l-.3.3v-.2l-.4-.6v-.2h-.2v-.2zM198 165.7v.2h-.3l-.2-.2v-.2l.3-.3v-.2h-.3v.4h-.2c0-.2 0-.3.2-.3h.2c.2 0 .2 0 .2.2v.2l.2.2v.2zm0 0l-.2-.4v.4c0 .2 0 .2 0 0h.2zM186 175.5l.3-.2v.2l.5.3v-.5h-.2l.2-.3v1.2l-.7-.6zM187 175l.4.3h.2c.2-.2.2-.2 0-.3h.2v.3l-.2.2h-.3s-.2 0-.2-.2v-.4c0-.2 0-.3.2-.3h.4zm0 0l.4-.2h-.2c-.2 0-.2.2 0 .3z"/><path d="M187.8 174.3l.2-.2v.2h0v.3l.2.4h.2l-.4.2v-.2l-.2-.3v-.2h-.2v-.2zM189 174.5v.2h-.3s-.2 0-.3-.2v-.4-.2h.3v-.3h-.2v-.2l.7.8v.3h.2v.2h-.2zm0 0v-.5h-.4v.4l.2.2h.2v-.2zM190 174h-.2v.2h-.3v-.2-.2-.3-.2h-.2v.4c-.2 0-.2 0 0-.2v-.2h.4l.2.4v.3zm-.2 0l-.2-.4v.3h.2zM190.8 173.4v.2h-.2-.3-.2v-.5l.2-.2h.2v-.2h-.2v-.2h-.2l.2-.2.6 1h.2v.3h-.2zm0 0l-.3-.4c0-.2-.2-.2-.2-.2-.2 0-.2 0-.2.2 0 0 0 .2.2.3 0 0 0 .2.2.2h.2zM191.4 173.6v-.2-.2h-.2v-.2h.3v.6zM191.5 172l.4-.2h-.2v.2l.5.3v-.6h-.2l.3-.3v.2l.2 1v.3h-.2v-.2-.2l-.6-.5h-.2zM192.8 170.5l.7 1v.2h.2l-.4.2v-.2l-.4-1h-.4l.2-.3zM194 171.2v.2h-.4v-.3s.2 0 .3-.2c-.2 0-.2-.2-.3-.2h-.2v0h.5l.2.3h.2v.3h-.2zm0 0v-.4l-.2.2v.2c0 .2.2 0 .2 0zM194.5 170h.3l.5.4v-.6h-.2l.3-.2v1l-.6-.4h-.2z"/><path d="M195.7 169.7s0 .2.2.2h.2v-.2-.2c.2 0 .2 0 .2.2 0 0 0 .2-.2.3h-.7v-.5-.3h.4l.2.2zm0 0l.3-.3h-.2-.2v.2zM196.3 168.8l.2.2v-.3h.2v.2h-.2l.2.4s0 .2.2.2l-.4.2v-.2l-.2-.4h-.2v-.4zM197.7 169v.2h-.2-.2-.3v-.5-.3h.3v-.2h-.2v-.4h.2l.5 1h.2l-.2.3zm0 0l-.3-.4c0-.2 0-.2-.2-.2 0 0-.2 0-.2.2v.3h.3c0 .2.2.2.3 0zM198.4 168.5v.2h-.3v-.3s0-.2.2-.3h-.2-.2v0l.3-.2h.2v.2l.3.2v.2h.2c0 .2-.2.2-.2.2zm0 0l-.2-.4v.3h-.2v.2h.4z"/><path d="M199.3 168v.2h-.8v-.5-.3h.3v-.2c-.2 0-.2-.2-.3-.2v-.2l.6 1h.2v.3zm0 0l-.2-.5h-.2c-.2.2 0 .3 0 .4h.4zM200 166.5h.4s.2 0 .2.2v.4c-.2.2-.3.2-.5.2v-.2c-.2 0-.2-.2-.2-.3v-.3s0-.2.2-.2zm0 0v.5l.3.2h.2v-.4l-.3-.2h-.2zM201 166h.2v.2l-.3-.2h-.2v.2h.2c.3 0 .4 0 .4.2v.3c0 .2-.2.2-.3.2v-.3h.3v-.2h-.3-.2l-.2-.3.2-.2h.2zM187.2 177l.4.7v-.3h.3l.2.2v.2h.4l-.4.4v-.2l-.2-.4h-.2c0-.2 0 0 0 0h-.2l.3.5v.2l-.3.3v-.2l-.4-.8v-.2h-.2l.2-.2zM189 177.5v.2l-.3.2c0-.2 0-.2-.2-.3v-.3s.2 0 .3-.3h-.4V177.2h.3c0-.2 0 0 0 0h.2v.3h.2v.3h-.2zm0 0l-.2-.3v.2h-.2v.2h.4zM189 176.5l.3.2v-.3h0v.2l.2.5v.2h.2l-.3.3v-.2l-.2-.4v-.3h-.2v-.2zM190.4 176.7v.2h-.2-.2v-.2c-.2 0 0 0 0-.2v-.3-.2h-.2v.4h-.2c0-.2 0-.3.2-.3h.2c.2 0 .2 0 .2.2l.2.2v.2h.2v.2h-.2zm0 0l-.3-.4v.4c0 .2.2.2.2 0zM190.7 175l.6 1h.2l-.3.3v-.2l-.4-.7-.2-.2v.2-.3zM191 174.6h.2v0zm.4.4l.4.6h.2l-.3.4v-.2l-.2-.4c0-.2-.2-.2-.2-.2v-.2zM192 175v-.4h.4s.2 0 .2.2v.7h-.3l-.6-.8c-.2 0-.2-.2-.2-.2v-.2zm0 0l.3.4h.2v-.2-.3c0-.2 0-.2-.2-.3h-.2v.2zM192.8 174.2v.2c0-.2 0-.3.2-.3v.8h.4l-.4.4v-.2l-.2-.4v-.2h-.2v-.2zM193.4 174.2l.3.2h.2v-.3V174.7h-.3c-.2 0-.3 0-.3-.2v-.4-.3h.3s.2 0 .3.2zm0 0l.4-.3v-.2h-.2c-.2 0-.2 0-.2.2v.2zM194.4 173.2v.2h-.2v.2h.6v.4l-.3.2-.3-.2h.5v-.2h-.3-.2-.2v-.3-.2h.3zM195 173.6h.2v.2h-.2v-.2z"/><g stroke="#000"><path d="M-1046.8-561.3l-2.8 52.8c-2.8-.3-8.2-1-8.6-5.2-.2-2.4 5.5-45.5 5.8-49.7 2 .6 4 1.7 5.6 2z" fill-rule="evenodd" stroke-width="1.1" fill="#ce1126" transform="matrix(.68327 0 0 .57218 888 526.5)"/><path d="M-1051-563.4c-.3 2-1.2 14.6-1 16 1 5.2 6 4.4 9 4.6l.5-27c-1 1-7.4 5.8-8.5 6.4z" fill-rule="evenodd" stroke-width="1.1" fill="#002d62" transform="matrix(.68327 0 0 .57218 888 526.5)"/><path d="M-1050.5-496c7.3-11 21-2.8 21-2.8 14.8 4 11-16.4 11-16.4-3-40.7-6.5-68.6-6.5-68.6l-21.8 17.4z" stroke-width="1.1" fill="#002d62" transform="matrix(.68327 0 0 .57218 888 526.5)"/><path d="M-1042-570.7c-.8 42-1 46.4-1 46.4.4 11.6 11 5.3 11 5.3 2.5-1.2 5.3-.3 5.3-.3l-.5-14.3c17.5-1.6 13.5-13.8 13.5-13.8-7.2-39.8-7.7-38-7.7-38z" stroke-width="1.1" fill="#ce1126" transform="matrix(.68327 0 0 .57218 888 526.5)"/><path d="M-1026.8-533.8c-11-.2-15.6 5-15.6 5l-.4 1.2" stroke-width="1.1" fill="none" transform="matrix(.68327 0 0 .57218 888 526.5)"/><path d="M-1028.2-499l-3.8-79.4 7.6-6 6.7 74v.8c0 13.8-10.5 10.5-10.5 10.5z" fill="#FFF" transform="matrix(.68327 0 0 .57218 888 526.5)"/></g><path d="M170.2 243c-1 7 5.8 6 5.8 6 8.3-.2 6-9 6-9-9-2.4-11.8 3-11.8 3z" stroke="#000" stroke-width=".6" fill="#002d62"/><g><path d="M135.8 27c-23-.3-46.5 5-66 17-8.8 5.6-11 7.4-6 16.3-1 .8-9.3 3.3-11.3 4-3.7 1.4-7.5 2.8-11 4.4-3.7 1.6-7 3-10.3 5-3.8 2.4-5.4 4-8.4 7l18.6-1.3c-.6 1.2-2 3-2.7 4-3.2 4.7-5 8.3-8 13 1-.4 2.8-1.7 3.8-2.4 3.7-2.7 8.2-5.3 12.3-7.3 13.3-6.7 37-7 47-18.7 2.4-3 1-4.7-1.2-9.5 7.2-2.4 10-4 18.7-6 21.3-4.8 36 .8 46.2-1.7 3.2-.8 6.3-2.6 6.5-6L162.5 34H197c0 6-5.8 14 5 16.7 9.6 2.6 29.2-3 46 1.7l19 6c-.2 1-1.5 3.4-2 4.6-.8 2.2-.7 3.3.7 5 1.8 2 4.4 4 7.2 5.6 5.4 3.2 12.6 5.2 19.4 6.8 19.5 4.7 21.3 6 36.3 16-1-3-8-13.3-10.5-17l18.5 1.4c-3.2-4.8-13-10-18.6-12l-22.3-8.3c.4-1 .8-1.3 1.2-2.3 1-2.7 2-5.6.4-8-3.2-4.8-22-14-26.6-15.3-8-2.3-16.6-4-24.6-5.4s-23.4-2.4-23.4-2.4c-1-1.2 2-7.3-2.8-11.5-3-2.3-7-3-11.4-3.6-17-1.5-40.5-1-57.8 0-5 .4-8.5 1-11.4 3.7-3.4 3.3-4 5.3-3.6 11.4z" fill-rule="evenodd" fill="#201b18"/><path fill-rule="evenodd" fill="#002d62" d="M140.6 39.3c2.6-2.2 3-3 7-4.3 8.8-3 22.8-2.7 32-2.7 7.7 0 15 0 22.6.7 7.6.7 12 1.6 17 6 1-5.2 2.2-9.8 2.3-15.6.3-6.2-3.3-8-8.8-9.2-9.2-2-24.5-1.7-34.4-1.6-6.4 0-29.3.2-34 2-4 1.4-7.5 4.7-7 10.5 0 3 2 12.5 3.3 14.3z"/><path d="M73.4 69.2c1.5-1.4.5-2.8 7.7-7 9.2-5 22-9.7 32.4-11.7 9-1.8 18.4-1.8 28-1 4 .3 9.6 1 13.8.3 0 0 4.4-1 5.7-2.2 1.5-1.5 1.4-4.8 1.4-4.8-3-2.4-11.7 6-19.5 3.3-2.7-.7-3.4-4.8-4.4-7.7l-2.5-9.6c-14.3-2-39 4-52.2 9.8-6 2.7-16 7.7-19.7 11.5-3.2 3.4.2 8.3 2 10.8 1.2 1.5 2.4 3 3.6 4.2l2 2.2c.6.7 1 1.5 1.8 2zM197 42.6c-.7 5 3 6.5 7.4 7 9.3 1.4 23-2.8 41.5.8 7.7 1.6 15.4 4.2 22.2 7 2.8 1 12.4 5.6 14.4 7.5l3.5 4c1-.4 6.4-6.8 7.4-8.2 2-2.6 5-7.3 2-11-2.7-3-14.6-9.2-20-11.4-7-3-18-5.8-26.7-7.2-9-1.5-26.5-2.8-26.5-2.8s-1 16.4-5.6 17.8c-8.8 2.6-13-4.8-19.5-3.6z" fill-rule="evenodd" fill="#002d62"/><path fill-rule="evenodd" fill="#002d62" d="M266.6 63c-.6 2.4-1.7 2.7 3 6.5 10.8 9 29 9.4 40.5 14.3 6 2.5 9 4.6 14.2 7.7-.5-1.5-7-11-8.8-13.6 5-.2 11.7.3 17 .6l-.7-.7c-7.7-7-27.3-13-37-16.2l-3 3.3c-1 1.5-4.5 5.3-5.8 6.5-1.3 1.2-2 2-4.4 1.3-3-.8-5.4-3.4-7.3-5-1.7-1.7-5.4-4.7-7.7-5zM197.3 41c5.6.3 6.3 1.3 10.5 3.2 1.7.8 4 1 6 1 3-.3 3.4-.7 4.2-3 1.2-3.4-4.5-5.6-7-6.2l-12.3-1.8zM162 41l-1-6.7c-3.8-.4-20.7 2.5-19.5 7.7.7 2.5 1.2 3 4 3 7.2.8 8.4-3.8 16.6-4zM74.8 70.2c2.4 4.4 9-3.4 12.8-6.3 2.2-1.7 2.5-1.7 5-2.7l-1.4-2c-2 .3-7.4 3.2-9.3 4.3-3 1.6-6.3 3.6-7.2 6.6z"/><path fill-rule="evenodd" fill="#002d62" d="M267 61.3c1 .4 1.7.5 2.6 1 5.5 3.3 12.2 11.8 14.8 8.6 1.6-2-4.4-6-6.2-7l-9.7-4.8c-.5.5-1.2 1.4-1.4 2zM92.7 63c.6 2.6 1.7 2.8-3 6.7-10.8 9-29 9.4-40.5 14.3-5.8 2.5-9 4.6-14 7.7.4-1.5 7-11 8.7-13.7-5.2 0-12 .4-17 .8l.6-.8c7.7-6.7 27.2-12.8 37-16l3 3.2c1 1.5 4.4 5.3 5.7 6.5 1.2 1.2 2 2 4.4 1.3 3-.8 5.4-3.5 7.2-5 1.7-1.7 5.3-4.7 7.7-5z"/><g fill="#eac102" fill-rule="evenodd"><path d="M95.3 38c-.5 0-1 0-1 .2H94h-.4c-.3.3-.5.2-1 .4l-.4.2-.6.3-1.7.8h-.2c-.2.3 0 0 0 .3 0 .2 0 .2.5.4v.2l.3.2.2.4.3.7h.2c0 .2 0 .6.2.7v.6c.2 0 .2 0 .3.3v.3c.2.3.3.4.3.8l.3.3c0 .5.4 1.3.4 1.8.2 0 .2.2.2.4v.5h.2v.4l.5 1v.2l.3.8s.2 0 0 .6v.8H94.5l.5-.3c.3 0 .3-.2.5-.2h.6l.4-.3 1-.3.3-.2c.2 0 .4 0 .6-.2l1.2-1 .2-.2.4-.5.5-.8c.3-.3 0-.7.2-1v-.2c.3-.3.3-1.2.2-1.5h-.2l-.2-1.6V43l-.3-.4v-.2l-.3-.7-.2-.3v-.2l-.3-.5-.8-.8c0-.2 0-.3-.3-.4l-.4-.3-.7-.6H97v-.2c-.3 0-.4 0-.6-.2H96c0-.2-.4-.2-.7-.2zm-.8 1.2c.5 0 1 0 1.3.4l.6.6.5.7.7 1.8.2.3v.3c0 .3 0 .6.2.8l.2.8v.4l.3.7v2l-1 1.2-.6.2h-.3c0 .2-.2 0-.4 0l-.2-.2V49c0-.5 0-.3-.2-.4V48s-.2 0-.3-.3l-.4-1.2c0-.2 0-.4-.2-.6l-.2-.7V45v-.3l-.3-.3c0-.3 0-.5-.2-.8v-.2c-.2-.2 0-.3-.2-.5v-.2c-.3-.4-.3-.7-.4-1L93 41V41v-.2c-.2-.3 0-.7 0-1 .3 0 .3-.2.6-.3h1zm-.4 4.4zM110.8 33.3h-.6l-.4.2c-.3 0-.6.3-.6.3h-.2l-.5.5-.2.2-.4.7c-.3.2-.4.3-.5.6V36.4c-.3.2-.2.6-.3 1V40c.2.2.3 1 .4 1v.5l.4.7c0 .2.2.3.3.5v.2h.2v.2l.3.4c.3.4.6.8 1 1v.2h.2l.5.4.5.3c.7.3.3.3 1.4.4.4 0 1 0 1.4-.2h.2c.2 0 0 0 .2-.2h.3l.6-.5.5-.3s0-.3.2-.4l.2-.3.3-1 .2-.6v-.6c.2-.5.2-1 .2-1.6 0-.4 0 0-.2-.5v-1l-.2-.3-.3-1-.2-.3-.4-.7c0-.2-.3-.6-.5-.7l-.2-.2-1.4-1.3-.6-.3h-.2c-.4-.3-.6-.3-1-.4h-.8zm-1 11.5zm1-10.7l.5.2.6.5.2.2s.3.3.3.5l.4.8v.2l.5 1.4s0-.2.2.3v.5l.2.3v1s0-.3.2 0v.6c.2.3 0 .5.2 1v.3c.2.5.2 1.7 0 2.2l-.3.5-.5.3H112.4c-.2 0-.3-.2-.5-.3l-.4-.3-.2-.4-.3-.5V43h-.2v-.3-.2l-.2-.2c0-.5 0-.3-.3-.7v-.4l-.2-.6v-.2c0-.2 0 0 0 0l-.2-1v-.2c-.2 0-.2 0-.2-.2v-.3c0-.7-.2-.5-.2-1v-.5c-.2-.3-.2-1-.2-1.2v-.6l.3-.7s0-.2.3-.3v-.2h1zM119 32.3l-.3.5c-.3 0 0 0-.3.3v.8c-.2.2-.3.2-.3.7v.5c0 .5.2 0 .2.4v.5l.2.4v.2l.3.3.3.4 1.3 1c.3 0 .6.2 1 .4l.8.4c.4 0 .5.3.8.4.4 0 .3 0 .6.3h.2c.4.2.3.2.4.4.3.2.2.3.3.6 0 .3.2 0 .2 1v.5c0 .4 0 .2-.2.3l-.4.3v.2l-.4.3h-1.4l-.2-.2-.7-.5-.4-.5h-.2c-.5-.6-.2-.3-.5-1-.2-.2-.3-1-.6-1h-.2v.7c-.2.4-.2 0-.2.5V43c.2 0 0 0 0 0l1 .5.3.3c.4.3 0 0 .7.3.2 0 .3 0 .5.2.7.3 1.2 0 1.7 0h.6c.3 0 .4-.2.4-.2l.4-.3h.2c.2 0 .3-.2.4-.3.2-.2 0-.2.2-.3l.3-.3v-.5l.2-.5c0-.2.3-.6.2-1v-.3c-.2-.3 0-.7-.3-1.2l-.2-.5c-.2-.4 0 .3 0 0l-.3-.5c-.2-.3 0 0-.3-.2l-.5-.5-2-1-.4-.2c-.4 0-.2 0-.4-.2h-.4l-1-.6c-.3-.2-.5-.5-.6-.8-.3-.5-.2-1 0-1.4 0-.3 0-.5.3-.6h.5c.2-.2.5-.3.7-.2l.6.3h.2c0 .2.3.3.4.4l.3.6.3.6v.5H124v-1.3l.2-.8h-.2l-.3-.2s-.2 0-.3-.2l-.6-.2c-.5-.3-1.8-.5-2.2-.4-.3 0 0 0-.2.2-.6 0-.6 0-1 .4h-.4zM100.6 36c0 .4.3.5.6.5v.3h.2v.4c.3.3.3.7.5 1.2V39.3c.2.3.2 0 .3.3v.6l.3.5v.2l.2.4v.4l.2.2v.2c0 .4 0 0 .2.7v.2l.3.6v.3c0 .2 0 0 .2.2v.6l.3.6.4 1.4v.2c0 .3 0 .2-.2.4 0 .2 0 .3-.2.5l1.2-.3.4-.2h.7l1-.4V47l-.6-.4-.2-.5v-.3-.4c-.2-.2-.2.2-.3-.3v-.3c-.2-.2 0-.3-.2-.5V44c-.2-.2 0-.4-.2-.5l-.4-1V42v-.2c-.4-.4 0 .2-.2 0V41c-.3-.4 0 .3-.2 0v-.7c-.2-.2-.2-.4-.3-.7l-.3-1-.3-1V37c-.2-.3 0 .2-.2-.2v-.3c0-.2 0 .2 0 0s0 0-.2-.3c0-.3 0-.3.2-.5l.2-.4h-.9v.2l-1 .2z"/></g><g fill="#eac102" fill-rule="evenodd"><path d="M186.4 15.8H185c-.3.2-.8.2-1.2.2-1.5 0-.5.4-.4.5l.2.3V27l-.3.6-.5.5 3.6.2c0-.3-.2-.6-.5-.7V23h.7v.2c.3 0 .3.4.4.7l.4.8c0 .3.3.7.5 1v.2l.4.6c0 .2.2.4.3.5l1.2 1.3.4.3 1.3.3c0-.6-.3-.6-.5-1 0 0 0-.2-.2-.2l-.2-.4v-.2l-1.2-2.6-.3-1-.2-.7.4-.2c.4 0 .8-.4 1-.6l.4-.3.6-1c.2-.3.3-.6.3-1 0-.6 0-1.4-.3-2v-.2h-.2v-.3l-.5-.5h-.2c-.3-.3-.5-.5-.8-.6-.4 0-.4-.2-.8-.3H188h-.2c-.2-.2-.8-.2-1.4-.2zm1 1c.3 0 .7 0 1 .2l.5.5c.2.4 0 .2 0 .6l.2.2c.2.4 0 .8 0 1.3 0 .4.2 1 0 1.3-.4.4-.2.4-.4.6l-.8.5c-1 .2-.7 0-2 0v-3.5c0-2 0-.6.2-1.6h.3c.2-.2.5-.2.8-.2zM158 17c-.6 0-1 0-1.5.2h-.3l-.6.2H154.6v.2h-.3c-.4.2-.8 0-1.2.3l.3.2s.2 0 .2.2v.4c.2.5.2 0 .3.3v2.6c0 .4.2.4.2.7V24c0 .4.2.3.2.7v2.7c.3.3.3 1.5.2 1.8l-.4.3v.5c.7 0 1 0 1.7-.2h.8c.4-.2.5 0 1-.3 0-.3-.2-.2-.4-.3-.3-.2-.4-.4-.5-.7-.3-.8-.2-2.7-.3-3.8.2 0 .4 0 .5-.2h.7l.7-.3c.5-.2.5 0 1.2-.3l1-1c.3 0 .4-.3.6-.5l.4-1V19.6l-.4-.8-.6-1c-.2 0-.4-.2-.5-.3h-.4c-.4-.5-.2-.3-.8-.5H158zm-.3 1.2h.6l.4.3.3.4c.6.6 0 0 .4.6V20.2c.2.6.3 1.6 0 2v.2c-.2.3 0 .2-.4.4l-.5.5-.6.2h-1.3c0-1-.2-.7-.3-1.3V20l-.2-.3v-.3c0-.8 0-.5.2-1.2h1.3zM167 16.5c-.5 0-1 0-1 .3-.2 1-.3.6-.3 1l-.3 1.5v.2l-.3 1.2v1l-.3 1.4v.5l-.2.3v.5c0 .3 0 .3-.2.4v.8l-.4 1c-.2.3 0 .5-.2.7 0 .3-.2.7-.4 1v.2c-.3.2-.2 0-.3.2v.4h2.6c0-.7-.3-.5-.5-1-.3-.5 0-1.2 0-2.4h3.2l.2.8v.4l.2.6v.7c0 .2-.2.2-.3.7H170l1.7-.3c0-.3-.4-.5-.5-.6v-.2l-.2-.3-.4-1-.6-2V24c0-.5-.3-.8-.4-1.2V22l-.3-.3c-.2-.3-.2-1-.4-1.4l-.3-.6c0-.4 0-.7-.2-1-.2-.3-.2-.7-.2-1v-.2l-.3-1h-1zm-.6 2.8v.4c.3.5.6 2 .7 2.4l.7 1.8v.7c-1 0-1 .2-2.5.2 0-.6 0-.4.2-.8l.2-1v-1h.2l.2-1v-1l.2-.3.2-.4zM203.7 17.5v.5l-.7 1.7c0 .4-.2 1-.4 1.3l-.3 1v.2c-.3.5-.4 1-.5 1.4l-.3.8-.2.7c0 .5-.3.7-.3 1 0 .5-.2.5-.3 1 0 .3-.4.7-.6 1 0 .3 0 .5-.3.7h-.2v.5h1c.4.2 0 0 .2.2h1.4V29h-.2l-.2-.3c-.3-.3-.3-.5-.3-1v-.2l.5-1.2 3 .2v.7c.2.6.2 0 .3.5 0 .3.2 1.3 0 1.5l-.2.3v.3h1c.7.3 1.6.2 2.2.2v-.3h-.2v-.2l-.2-.4-.3-1v-1c-.2 0-.2.2-.2-.6v-1.6l-.3-.8c0-.4 0-.8-.2-1.2V22c-.2-.2-.3-1-.3-1-.2-.7 0-1.3-.2-1.8 0-.2 0-.6-.2-.8v-.8h-1.2l-1-.2zm.2 2.6v.3c.2.7 0 .8.2 1.5v.3c0 .4 0 1 .2 1.7l.2.8v1h-2.4v-.8l.3-.6.5-1.7V22l.4-.6c.2-.3 0-.5.2-.8v-.2c.2-.4 0-.2.3-.3zM176.5 16l-4.3.2V17c-.2.3-.2-.2-.2.3l-.2 1.4h.3c.2 0 .5-.6.6-.8h.2l.7-.8c.5-.3.7-.2 1.6-.3 0 1 0 1 .3 1.5v9l-.3.3-.3.4H178.3c0-1-.6 1-.6-3.7v-7.3h.2c0-.2.3-.4.7-.3l1 .5h.2l.5 1s-.2 0 0 0c.2.2.4.2.5.2 0-1 0-.7-.2-1.3l-.2-1.4h-4zM195 18V19l-.2 2.2c-.2 1-.2 4-.2 5v.8c0 .4 0 0-.2.6 0 .4-.2.4-.6 1h3.7c0-.3 0 0-.2-.2s0 0 0-.2l-.3-.4c-.2-.3-.2-.6 0-1v-.6V22c.3-.8 0-2.7.3-3.3V18v-.5c.2-.2.3 0 .4-.2l.2-.5H196l-.4-.2h-1.4v.3h.2l.3.3v.6z"/></g><g fill-rule="evenodd" fill="#eac102"><path d="M284.7 47.8c-.4 1.4.7.2-1 3l-.3.6c0 .2-.3.4-.5.7l-.7 1.3-1.5 2.5-1 1.8c-.3.3-.2 0-.7 0v.5l.6.6c.5.4 2 2 2.6 2.4l.6.6c.7.5 1.5.8 2.5.8s1.6-.6 2-1.2c.5-.4.8-.4 1.5-2 .7-1.4.5-.7 1-2.4v-1c0-1.3-.2-2.5-1-3.7-.5-1-.8-1.4-1.8-2.4l-1-1h-.2l-.2-.4h-.2l-.7-.8zm2 3c.4.2.6.6 1 1 1.4 1.8-.2 5.3-1.3 6.7l-.3.5v.2l-.4.6-.3.3c-.7.8-1.7 1.3-2.6.6-1-.7-1-1-.8-2 .3-1 1.2-2.2 1.7-3.2l.5-.7c0-.3.2-.4.4-.7l.3-.6c.2-.5.3-1 .6-1.3 0 0 .2 0 .2-.2.3-.4.4-.7.7-.8h.3zM239.5 32c0 .8.4 0 .4 1.5v1.7c-.3 1-.3 2.3-.4 3.4v1.6l-.3 3.3c0 .2 0 .4-.2.5-.2.4-.3 0-.4.5.4.2 2.2.3 3 .4 1.7 0 2 .5 3.8-.2 2-.8 2-4 1-5l-1-1-.7-.5c2.7-.4 2.8-3.3 2-4.3l-.7-.7-1-.6c-1-.5-4.2-.5-5.5-.6zm3 1.2c.8 0 1 0 1.6.5 1 .7 1 2 .5 3l-.2.4s0 .3-.2.3c-.4.5-1.2.5-2 .4-.2-.5 0-2 0-2.5 0-.8 0-1.4.4-2zm-.8 5.4c.7 0 1.2 0 1.8.4 1 .6 1.2 1.3 1.2 2.5v.8c0 .4-.2.7-.5 1-.6.8-1.7 1-2.6.5v-5.2zM258 35.6c.2.8.5 0 .4 1.6 0 .6-.2 1-.3 1.6l-.2 1.5-1 4.8c0 .6 0 1-.3 1.7 0 0 0 .4-.2.5-.4.4-.4 0-.6.5 0 .2 1.2.5 1.5.6.8.3 1 .4 1.7.5l-.3-.6c-.4-.7.2-2 .3-2.6l.2-1.3V44l.2-.3h.6l.2 1c0 .4.4 2.2.6 2.5v.3l.2.6.8 1.6c.4.4 1 1 1.6 1.3l-.4-1.6-.2-.6c0-.4 0-.6-.2-1l-.2-3.6c.4-.2 1.2-.2 1.8-.7h.2c1.6-1.8 1.2-4.4-.7-6l-.6-.4c-1-.5-2.3-.7-3.5-1-.5 0-.2-.2-1.4-.4zm3 1.7h.7c.3.3 1 .6 1 1 .5.6.7 1.7.5 2.6l-.4 1c0 .2-.4.6-.6.7-.7.5-2 0-2.6 0l.5-3c.4-1.3.2-1.6 1-2.4zM278 43.7c-.3 0-.5.4-1 1.4-.3.6-.7 1-1 1.4l-3 5c-.3.5-.7 1-1.2 1.4-.7.5-.4 0-.7.6l.6.3 1 .5.8.5V54c-.2-.3-.3-.5-.2-1 0-.5.3-1 .6-1.4.5 0 .5 0 .8.3.5 0 2 .8 2 1.2 0 .3 0 .2-.2.5-.2 1.3.3 1.2-.7 2.3 0 .3.7.5 1.3.8l1.5.8c0-.7-.2-1.6 0-2.6v-.7c.2-1 0-2.3.4-3.4l.3-5c0-.7.2-.2.2-1.6-1-.3-1.2-1-1.6-.7zm-1 2.6l.3.4-.3 2.4-.3 2.8h-.4l-1.7-1c0-.4.3-1 .5-1.2l1-1c0-.4.2-.8.5-1.2l.6-1zM247.6 45.5c0 .2 0 .2.7.4l2.7.5.8.2 2.8.6c0-1 .6-1 .8-2.5-.4-.2-.4 0-1 .4-1.4 1-2.4.5-3.7 0-.2-.8.3-3.8.5-4.7V40c2.2 0 2.3 1 3 2 .2-.4.2-1.4.3-2l.2-1.8c-.6 0-.7 1-1.4 1l-2-.4c0-1 .5-2.5.8-3.5 1-.3 2 0 2.5.6l.4.3c.5.6.2.6 1 1.4.2-.4 0-2.4 0-2.8-.2-.3-5-1.4-5.7-1.5h-1c0 .4.2 0 .4.4v.7l-.6 5c0 1-.4 3.7-.6 4.7-.3 1.3-.6.7-.8 1zM266.3 41.3h.4l1-.7c.6-.2 1-.4 1.6 0 .4.2.3.6.2 1.2l-.2.3-1.7 7.4-.3 1c-.2.8 0 .5-.8 1 0 .5 0 .3.8.6l2.4 1c0-1-.7 0 0-3l2-8.2c.7 0 1 0 1.5.5.4.6.6 1.6 1 2.3.4-.2.3-1 .3-1.4l.2-1.5-2.7-1-.4-.2-.5-.2-3.7-1.5-.8 1.7c-.2.3-.3.4-.2.8zM226 32.4c0 .3.2.4.4.5.5.4.3.6.3 2.2v3.2c0 .6.3 5.6 0 6l-.4.4c.2.2.2.2.8.2l6-.3c.2-.5.6-2.5.5-2.8v-.3c-.3 0-.2 0-.4.3 0 0 0 .3-.2.3-.5.7-1.2 1.3-2 1.4-.4 0-1.4 0-1.6-.2-.3-.6-.4-9.7-.2-10.3 0-.5.2-.4.4-1zM234.4 44.6h3.2c0-.6-.4-.2-.5-1.2l.3-10c0-1.2.5-.7.5-1.2h-3.3c0 .7.4 0 .5 1.2v10.1c-.2.8-.6.6-.6 1.2z"/></g></g><g><path d="M-85.8-739c-.3.4-.5.3.3 1.6 7.5 14.6 4.8 7.7 11 26.7-1.2-1.2-2.8-3.3-4-4.8-3.2-4.3-6.2-9-9-13.7-.7-1.3-1-1.7-2.2-2.6-.6 1.4 2 9 2.7 11.2 2.8 9.4 10 20 15.5 28.5-1.6-.8-2.5-2-3.8-3.2-4.7-3.8-3.4-2.8-6.2-7.5-2.6-4.5-4.7-9.2-6.5-14l-4-10c-.6.8-.2-.4-.6 1-.4 1.3 0 3 .2 4.2.7 5.5 1.6 11 2.5 16.4-3.7-1.6-7.4-4-11-6l-2.8-1.4h-1c-.8 2 6.4 8.3 7.7 9.4 1.6 1.3 9 6.2 9.8 8 2.8 6.6 5.5 11.7 10 17l4 4.8-8.8-8.4c-6.3-5.6-8.8-8-16-13.5.3 2 2.8 3.6 4 4.8l11 11.8c3.4 4.3 7.4 8 10.4 12.5l7 11.3-4-5-10.4-12.8c-3.7-4.3-7.8-7.3-12.5-11-4-3-6.6-5-11.2-7-.2 1.2 1.3 2 2.3 3 5.2 4 9.8 8.7 14.8 13.3 2 1.8 3.8 3.6 5.7 5.7 2 2 3.6 3.7 5.3 5.8 3.2 4 6.3 9 9 13.5l4.3 7.2c-3.3-1.2-18.5-18-22.2-21.6-3-3-4.3-4.8-8-6.6 0 1.8 10.5 13.3 12.8 15.8l2.3 2.6 4.6 5c3 3.6 8.6 9.8 10.7 13.7l3 6.2c0-.6-6-8.3-7-9.2-1.3-1.7-2.3-3-4-4.6-3.3-3.6-9-9.8-13-12.5l-10.5-6c-.5 1 1.7 2.6 3 3.7l4 3.6c4.7 3.7 11 10.7 14.8 15.4 2.5 3 4.3 5.6 6.4 8.7-1.3-.7-2.4-2-3.3-3-1.3-1.4-2-1.8-3.3-3-2-2-4.6-3.7-7.2-5.5l-17-8.2c.3 1.3 6 4.6 7.5 5.6 3.3 2 8.8 5.4 11.7 8.4 1.3 1.3 2 2.3 3.2 3.3 2.4 2.3 4.2 4.6 6.2 7.4 2 2.7 3.7 4.8 5.5 7.7 2 3 3 5.7 4.7 9l5.8 20.7c-1.8-6.8-5.4-14.3-8-21-2-5-6.2-17.3-13-15-2.4.8-3.6 3.4-4.6 5.5-1.6 2.8-3.7-1-9 9.3-2.8 6-4.8 12.7-6 19.2-.4 1.2-.4 2 0 3 1.2-.4 2-4 2.7-5.5 2.6-6.4 5.2-10 9-16l-5 22c1.6-.4 2-3.3 2.8-4.8 2.3-5.5 4.3-11 6.4-16.4 7.5 5 9.8 32.4 11 42.2-1-3.4-3.8-10.7-5.4-14l-7.6-12.2c-4.5.5-5 6-6 9.4-1.3-1.7-2.7-4.6-5.7-4.3-2.7.2-3.8 3.4-4.2 6.4-.4 3-.4 6.5.2 9.6 0 .6 1 7 1.3 7.5l1 1 1.5-18.8c3 1.3 8.4 13.4 7.6 18.4-2.8 18.2-4.5 24-14.5 39-1.7 2.5-3.5 5.2-5.5 7.6-1 1.3-1.8 2.5-3 3.6l-3.2 3.6c5.2-8.6 7.4-12 11-22 2.7-7.4 5-15.2 5.8-23 .2-1.4.2-2.6 0-4-1 .5-1.4 2-1.8 3-8.7 26-9.8 27-24 50.2l2.6-14.8c-1.3 0-1 .8-1.6 2.2l-1 3c-2 5.6-4 11.2-7.2 16.3.2-1.6 1-3.7 1.7-5.2 1.4-4.8 2.3-10 3-15l.2-3.4c-1.5 0-1.7 3-2.3 4.8-1.7 5.3-4.2 10-6.7 15v-1.4c.5-3.3 1.4-8.3.8-11.5 0 0 .5.7-.4-1.3-1.4.4-1.7 3-2 4l-1.4 4.6c-3.3 9-7.3 14.6-12 22.7-2.8 0-.7.2.6.3-.4 0-.7-.2-.7-.2 2 .3 1.5.3.7.3 4 1 26.2 5 26.2 5 13-.5 21.7-1.5 34.5-.2 2 .2 10 1.6 11 .7-3.7-2-7.4-3-11.6-4.3l-12.3-3 35-1-3-1.6c-5.8-2.2-21.4-3-27.6-3.5 11.6-1 20-2 31.7-2 3-1 13.4 2.3 8.8-2.2-4-2.6-17.3-3-21.6-3l20.7-.8c3.2-.8 24.6 4 17-.8-6-2.8-19-5.4-25.2-6.4 3.7-2 7-4 11-5.7 7.8-3.2 16.4-5.6 24.8-7.8 9.3-1.4 16.2-5.7 4-3.8-7.4.8-16.4 3-23 3.5l6-3c5.7-3 12.4-4 18.7-6.2 1-.4.7 0 1-1l-1-.4c-1-.2-2 .3-3.3.5 3.8-2 14.3-4.2 18.2-5l14.2-3.8c1.5-.4 3.4-.4 4.2-1.5l-1-.6c-1.4-.4-26.8 3.3-29.6 3.8-2.5.4-7.2 1.4-9.3 1.4 7.7-3 15.4-6.4 23.5-8.7 1.4-.4 7.4-1.4 8-2.7-1.4-.7-2.7-.3-5 0-7.6 1.3-15 3.2-22.2 5.4l-8.2 2.6c26-9.8 16-7 40.3-11.4 2.8-.6 5-.3 5.3-2l-14-1c-4.5.2-9.2 1.3-13 1.4l10.3-8.5c3-2.3 1.6-3 6.6-3 2-.2 8 .2 9.2-.5-3.6-3.5-4.6-1.7-8-3.5l4.2-5c1-1.3 2-2.4 3-4 .3-1 .3-.8 0-1.3l-1.7.3L2-568C.4-567 .8-567-2-567c-4.8.4-9.4 1.8-13.7 2.6 5-4 8.4-6.3 14-9.5 2.5-1.6 5-3 7.8-4.4 2.2-1 7.4-2.8 7.8-4l-16.6 4c-3.3 1.2-12.4 5.4-14.4 7 7.4-8 18.7-17 27.3-23.5 1.2-.7 3.8-2 4.2-3.2-.6-.3-1-.4-1.6-.3-4.6 1-15 7.7-18.5 10-5.8 3.7-12.2 8-17.5 12.3 3.2-3.3 6-6.3 9.6-9.3 1-.7 2-1.7 3-2.3l2.4-2.2c1.8-1.5 3.3-3 5-4.3 3.6-3 7.2-6 10.3-9l5.3-4.4c1.2-1 4.7-3.2 4.6-5-7.3 4-14 8.2-20.8 12.8-3.4 2.2-6.5 4.5-9.8 6.8-2.5 1.5-7.6 6-9.6 7 4-6.4 8.3-13 13.5-18.5 6.4-7 14.5-14.2 21.8-20 2-1.6 4-3.6 5.7-5v-.5c-1.7-.2-7.4 4-8.7 5-8 5.5-15.6 11.8-22 18.3-1.3 1.2-2.2 2.4-3.4 3.4-3.4 3-6.7 7.3-9.5 11-3.8 5-7.7 10.6-11 16 2-9.8 9.3-17.5 14.8-23.4l12.6-13.4 2.2-2.5c8.4-9 12.4-16 14-26.5-1.3 2-3.3 4.4-6.5 8.3-1 1-1.8 2-2.8 3.3l-25.6 28.6c1.2-4 6.2-12.5 8.5-16 3.5-5 6.6-9.4 10.2-14 2.4-3.4 13.6-17.5 16.3-20 .2 0 .8-.7 1.2-1 .3-1.8 1.7-2.7 3.6-4.2 2-1.7 2.5-2.6 5-4-2.3-2.3-11.2 3-13 4.2-11 7.5-19 17.6-27 27.8 1-5.5 7.6-21.5 10.7-26 2.7-3.5 5-8 7.7-11L2-676.8c-1.7 0-3.7 2.6-4.7 3.6l-2 2c-10 10.3-15.8 21.6-22.6 34 .4-6 6.2-16.7 9.4-21.8 4-6.7 8.7-12.5 13-19-2.5-.6-9.4 7.4-10.6 9-3 3.8-6 7.4-8.6 11.6-4.8 7.7-9.4 16.3-12.5 25l-.8 1.8c.5-8.2 9-27.7 12.6-34 2.3-4 4.7-7 7.3-10l2.6-3.5 5.2-6.5 5-6.7c-3.2-1-15 12-17.2 14.6-3 3.6-5.5 7.5-8 11.2 1.3-6.2 6-15 9.7-20.2 3-4.6 6.4-8.4 10-12.6 1-1.3 2-2.6 3-4.2C-11-703-26-685.8-29-682c-1.4 1.7-2.5 3.2-3.7 5l-5 7.6-.7 1.4-1 1.3c.7-6 4.4-18.5 6.4-24 2.7-7 6.5-13.4 9.7-20.3-2.7-.4-7.6 6.2-9 8.3l-6 11c.7-5.2 8.8-23 11.6-29.4-1.6.3-2.7 2.6-4 4.7-3.8 5.6-7 11-10.5 16.8.5-5.7 4.4-11.7 7-16.7-5 2-13 19-15 24.3-1 2.3-1.8 5-2.5 7.3l-1 2.7c-.3-13 2.5-26 4.4-38.7-1.2.2-1.4 1.5-2 2.7-.5 1.2-1 2-1.4 3.3l-2.6 7L-58-692c-5.8-7.7-7.2-22-18.3-38-3.6-5-4.8-5.5-9.5-8.8zm6 153.8c4.5 12.4 6.4 16.7 9.8 29.8-.7.4-1 .7-1.3 1.3-.6 1.2-1 3.6-2 5.4l-3.4-11.5c-1.3-4.2.5-12.7-1-14-1.2 2-.8 2.5-1 6.5-1-1-1.7-3.5-2.2-4.8-2.5-7-3-5-1.2-9 .5-1.2 1.3-3.4 2.3-4z" fill-rule="evenodd" stroke="olive" fill="#006300" transform="matrix(.74908 0 0 .7726 337.2 665.2)"/><g fill="#008f4c"><path d="M303.2 196.4c1.3-13.3 17.7-44.7 22.5-45.4.7 0-5.4 8.8-9.6 17.5-4.2 8.8-8.7 20.3-10.2 25.6-1.4 5.4-2.7 9.4-2.8 9l.2-6.6zM339 188.2c0 .3-3 3.2-6.8 6.5-12.4 11.6-27 32-33.5 48.2-7 17.4-5.3 13-3.2 4.5 5.4-18.4 20-41.6 33.8-53 4.8-4 9.8-7.2 9.6-6.3zM297.6 158.4c0-12.2 1.2-16.4 8-31 4.6-9.3 6.3-12.3 6.8-11.6.3.5 0 2.2-1 3.8-4 8-10.8 30.7-12 40.6-.4 3.3-1 6-1.3 6-.2.2-.4-3.4-.4-7.8zM278 226c.8 9.5-.8 20.2-5 31-2.4 6.4-12.3 21.4-14.7 22.3-1 .5-.8-.2 1.8-3.2 10.4-12 17.3-30.3 17.4-47-.6-9 0-10.2.6-3z" fill-rule="evenodd"/><path d="M308 214.6c1.5 4.3 1.7 14.3 0 19.4-3.6 12.5-12.5 21.6-25 26-2.6 1-4.7 1.5-5 1.3 0 0 2-1.2 4.4-2.3 15.8-7.4 25.6-22.3 25.8-39 0-3-.7-4.6-.8-5.4-.3-1.3-.6-2.3-.2-2.6.2-.2-.2-.5.8 2.6z" fill-rule="evenodd"/><path d="M342.6 241.2c-.2 0-7 1.4-15.3 2.8-8 1.4-18.8 3.4-23.4 4.5-7.4 1.5-8.8 1.7-9.3 1l-.5-1c0-.2 22.3-4.2 35-6 9-1.5 14-2 13.4-1.3zM277.8 102c5.2 6.4 6.5 9.2 9.2 20 1.7 7 2 9.3 1.6 9.2-.4-.2-1-1.2-1.2-2.5-1.3-6-7.7-21-11.4-26.8-1.2-2-2-3.7-2-4 .2 0 2 1.7 3.8 4z" fill-rule="evenodd"/><path d="M272 109.8c2.6 8 4.2 10.5 11.7 18.5 5 5.2 6.6 6.8 6.8 6.2 0-.4-.5-1.4-1.4-2.3-4.2-4.3-13.3-17.7-16-24-1-2-2-3.8-2.2-3.7-.2 0 .3 2.4 1.3 5.3zM319.2 134.5c-8.3 7.6-22 32-20 36 .4.4 4-5.2 7.7-12.7 3.6-7.5 9-16.5 12-20.3 2.8-3.7 4.8-6.7 4.6-6.6s-2.2 1.5-4.4 3.5zM323 140.7c-9.4 8.5-24.5 35.8-22.3 40 .4.7 4.2-5.5 8.5-14 4.2-8.3 10.3-18.4 13.5-22.6 3-4 5.4-7.3 5.2-7.3-.4 0-2.6 1.8-5 4zM269.5 115.7c1.4 8.2 2.7 11 9.2 20 4 5.6 5.7 7.5 6 7 0-.4-.4-1.5-1.2-2.5-3.7-5-11-19.4-13-26-.7-2.2-1.5-4-1.7-4-.2 0 0 2.5.7 5.5z" fill-rule="evenodd"/><path d="M263.5 121.4c5.8 5.8 8.4 7.3 18.7 10.6 6.6 2.2 9 2.8 8.8 2.2 0-.4-1-1-2.3-1.3-5.8-1.8-20-9.2-25.3-13.4-1.8-1.3-3.4-2.4-3.5-2.2-.3 0 1.3 2 3.5 4zM339 161c-12.8 8.8-35.5 39.4-33.5 45 .3.8 6-6.2 12.5-15.6 6.5-9.5 15.5-20.8 20-25.4 4.5-4.4 8-8 7.6-8-.4 0-3.4 1.8-6.7 4zM337 179.8c-5.6 11-27 32.4-31.3 31.3-.6 0 4-5.4 10.8-11.5C323 193.3 331 185 334 181c3-4.2 5.4-7.3 5.4-7 0 .2-1 2.8-2.4 5.8zM262.2 256.6c-2.3 11-16 34.5-20 34.6-.5 0 2.4-5.7 6.7-12.6 4.3-7 9-16 11-20.4 1.5-4.2 3-7.4 3-7.2l-.8 5.6zM297 190.6c-2.3-7-8.5-15.5-17.2-23-8.6-8-11.3-9.2-3.7-2 7.2 6.8 16 18.7 19 26 1.5 2.8 2.8 5 3 5 .4-.3 0-3-1-6zM303.5 280c-9.8-3-34.8-2.7-36.8.3-.3.4 5.6.6 13 .3s17-.2 21.4.3l7.3.6c0-.2-2.3-1-4.8-1.7zM292.8 284.2c-10-2.5-35-1.2-36.8 2-.3.3 5.7.3 13.2-.4 7.4-.6 17-.8 21.2-.5 4.2.4 7.4.5 7.3.4-.2-.2-2.4-.8-5-1.5zM281.8 289.5c-10-2-35-.2-36.7 3-.2.4 5.7.2 13.2-.7 7.5-.8 17-1.3 21.2-1 4.2.2 7.4.2 7.3 0l-5-1.3z" fill-rule="evenodd"/><path d="M275.2 295.8c-8.4-3.2-30.2-3.7-32-.8-.2.4 5 .8 11.4.7 6.6 0 14.8.4 18.5 1 3.7.7 6.5 1 6.4 1 0-.2-2-1-4.2-2zM314.2 265c-20.6 5.8-45.4 9.3-47 14.2 0 .8 9.2-.7 18.4-4.3 9-3.8 21-7.4 26.3-8.5 5.2-1 9.3-2.2 9.2-2.7-.2-.2-3.6 1-7 1zM341 251.7c-.2.2-8.4 1.7-18 3.4-10 1.8-22.5 4.2-28 5.4-8.6 1.8-10.3 2-11 1.3l-.5-1.2c0-.4 26.5-5 41.5-7.4 11-1.5 16.8-2 16-1.3z" fill-rule="evenodd"/><path d="M334.6 246.4c0 .2-6.8 2-14.8 4.4-8 2.2-18.4 5.3-23 6.8-7 2.2-8.4 2.6-9 2-.3-.4-.6-.8-.6-1 0-.3 21.8-6.5 34.2-9.7 9-2.4 14-3.3 13.2-2.6z" fill-rule="evenodd"/><path d="M329.5 222.2c-14.2 5.8-42.7 30.7-42 36.6.3 1 7.3-4.7 15.6-12.5s19.5-17 24.8-20.4c5.4-3.4 9.4-6.3 9-6.3-.2 0-3.6 1-7.3 2.5z" fill-rule="evenodd"/><path d="M340 229c-14 1-46.2 15.4-47.2 21.2 0 1 7.7-2 17.2-7s21.8-9.6 27.6-11.2c5.6-1.5 10-3 9.7-3-.3-.2-3.5-.2-7.2 0z" fill-rule="evenodd"/><path d="M339.7 230.6c-36.3 30.4-56.7 45.3-64 42.2-1-.5 13.4-8.8 25.7-16.7 12.4-7.7 27-19 33-24.6 5.8-5.7 10.5-9.8 10.5-9.4 0 .4-2.4 4.3-5.3 8.6zM301 240c7.2-11.8 10.8-15.2 26.4-25 10-6.4 13.5-8.3 13.6-7.3 0 .7-1.5 2-3.3 3-8.8 5.3-29 23.3-36.2 32.3-2.4 3-4.7 5.4-5 5.3-.3-.2 1.6-3.8 4.4-8.2zM304.8 205.8c1.3-13.2 24-57.6 28.8-58.3.8 0-5.3 8.8-9.6 17.5-4.2 8.8-8.8 20.3-10.3 25.6-1.4 5.3-9.7 24.6-9.8 24.3-.2-.3.5-5.7.8-9.2zM295.2 154.7c-3.8-9-4-12.5-1-25.2 1.6-8.2 2.5-11 3.2-10.5.5.2.6 1.6.2 3-1.8 7-1.8 25.8 0 33.5.8 2.6 1 5 .7 5-.3 0-1.7-2.5-3-5.8zM302.2 203.3c-2-6.3-7.6-14-15.4-20.8-7.8-7-10.2-8.2-3.3-1.6 6.3 6 14.2 16.7 17 23 1.3 2.7 2.4 4.8 2.7 4.6.3-.2 0-2.5-1-5.3z" fill-rule="evenodd"/><path d="M267.4 213.5c7-25.7 12.8-21.3 12.8-21.3 15.7 14.8 8 65.5 8 65.5-.2-103.8-20.8-44.2-20.8-44.2z"/><path d="M273 211.7c7.3-25.7 9.2-24.6 9.2-24.6 13 2.7 12 59.6 12 59.6-5.5-97.5-21-35-21-35zM266.3 231.8c-.3-18.5 3.4-15.8 3.4-15.8 10.5 9.4 14.4 45.4 14.4 45.4-16.2-72.7-17.7-29.6-17.7-29.6z"/><path d="M298 177.4c-3-10-12-22-24-32.8-12.4-11-16.2-12.8-5.4-2.4 10 9.4 22.4 26.3 27 36.4 1.8 4 3.6 7.3 4 7 .6-.2 0-4-1.5-8.2z" fill-rule="evenodd"/><path d="M297 168.7c-2.4-7.7-9.2-17-18.6-25.2-9.5-8.5-12.3-10-4-2 7.6 7.3 17.2 20.3 20.6 28 1.5 3.2 3 5.7 3.2 5.5.4-.2 0-3-1.2-6.3zM245 271.2c-.8 5.7-6.8 18-9 18.3-.2 0 1-3 3-6.7s4-8.4 4.8-10.6l1.3-3.8c.2 0 0 1.4 0 2.8zM239.7 274.5c-.7 5.6-6.7 18-8.8 18.3-.4 0 1-3 2.8-6.7s4-8.3 4.8-10.6l1.3-3.8s0 1.4-.3 3zM247.5 275c-.7 5.5-6.7 18-8.8 18-.3.2 1-2.8 3-6.5s4-8.4 4.7-10.7l1.3-3.8-.2 3z" fill-rule="evenodd"/></g></g><g stroke="#006300" transform="matrix(.4679 0 0 .4679 7.7 -65.2)"><path d="M140.5 730C106 692 94.8 623 94.8 623c11.2-29 26-35.5 26-35.5M94.8 622.6c-11.3-44.4-8.5-90.8-8.5-90.8 4-57 22-107.3 22-107.3M86 547.7c9-41.7 43.8-36.7 43.8-36.7" stroke-width="4" fill="none"/><path d="M85.5 555.4c31.2-12.6 27.5-40 33-51.3 8.5-16.8 14.6-21.7 14.6-21.7M116.6 692c-10.6-27 2-32 2-32M112.3 683.2C98.7 665.7 81.5 667 81.5 667M106.4 601.4c8.2-15.2-.4-30.5-.4-30.5M110.4 675L86 643.4M100.8 449.3c3.2-12.4-6.6-18-6.6-18" stroke-width="4" fill="none"/><path d="M95.4 427.6c0 3.3-2.7 6-6 6s-6-2.7-6-6 2.7-6 6-6 6 2.7 6 6z" fill="#F00" stroke-width="2" id="b" color="#000"/><use xlink:href="#b" transform="matrix(1 0 0 1.15686 20 72.7)"/><use xlink:href="#b" transform="translate(14.4 155.5)"/><path d="M110.6 591.3c-1.4-6-7-8-7-8" stroke-width="4" fill="none"/><use xlink:href="#b" transform="translate(-9.2 179.2) scale(1.07843)"/><use xlink:href="#b" transform="translate(-17.1 205.9) scale(1.07843)"/><use xlink:href="#b" transform="translate(-7.3 216.2) scale(1.07843)"/><path d="M197.7 737.5c10 7.4 13.2 2.8 13.2 2.8" stroke-width="4" fill="none"/><use xlink:href="#b" transform="matrix(.78422 0 0 .78422 139.1 396.2)"/><use xlink:href="#b" transform="matrix(.78422 0 0 .78422 145.9 404.2)"/></g><g fill="#006300"><path d="M106 290c-3-10.3-2-12.7-2-12.7M81 271.3s-1.6-4 1.2-6.4c1.7-1.4 9 2.5 12.7-13.7 0 0-2.3-.3-7.5 2v-1.2s-1.2-3.5-.7-8c0 0 2.5-4 2.6-5.4 0 0-4.7-1.8-14 10 0 0-.7-2.5-7.5-7 0 0-3.7 10.3-2 16.2 1.6 4.5 1.7 6 6.5 9.4 0 0 3.8 1.7 4.4 6.8 1.7 0 4-.3 4-.3s.3 0 0-2.4zM74.3 283.4c-1.5.8-2.2 1.6-4.8 2C57.7 286.7 51 271 51 271c-.4-3 1-1.5 3.5-.6 3.2 1.2 4.2.3 7.8-.2 4.8-.5 10.2 4.2 10.2 4.2 3 2.6 3.3 8 3.3 8-.4.8-1.5.8-1.5.8zM60.2 255.2c-12.4-5.3-19.7.6-19.7.6-.5.8.7 1.2.7 1.2 7.8 1 5.3.6 8.5 5 5.5 7.6 15.3 6 15.3 6 2 .4 4 3 4 3-.8-7-8.8-15.8-8.8-15.8zM38.8 206.2c-2.4-1.7-1.8 1.6-1.8 1.6-5.2-9-18.7-9.6-18.7-9.6-1 0-1.7-1-1.7-1-2.3 0 .5 4.6.5 4.6 4.2 11 8 12 8 12-4.6 2.7-12-3-10.3 1.2 7.2 7.5 12 8.6 12 8.6 9 2.2 13 0 13 0 2 3.7 3.5 4.2 3.5 4.2 8.2 2.5 10 7.2 10 7.2 0-9-3.4-20-3.4-20-2.5-4-11-8.8-11-8.8z"/><path d="M102.7 293.2c-4.4 1.4-4.8 4.5-4.8 4.5-4.4 5.8-19.8.3-19.8.3-4.8-1.3-4-2.6-4-2.6 4.4-2.2 6-4 6-4-8.3-7.3-9.5-17-9.5-17 12.8-2.5 16.7 0 16.7 0-.8-5-5-5-5-5-1-1.7 1.2-1.8 1.2-1.8 11.2 1 17.2 8.2 17.2 8.2 4.2 6 3 11.7 3 11.7 1 6-1 5.7-1 5.7zM50.5 241.7c-6.3-2-10 .2-10 .2-3 1.2-9-2.6-9-2.6-7.7-6.4-9.2-10.5-9.2-10.5 0-1.2 6.8-1 6.8-1 9.2-.2 11.2 1.7 11.2 1.7 4.7 2.6 4.2 5 6 6 4 2.4 4.5 3.5 4.5 3.5 1.2 1.5 1.7 3-.2 2.5zM62.5 244.8c4.3-5 10-1.5 10-1.5 9 1 12-9 12-9 2-4.2 3.5-6 3.5-6 .5-2.5-4-.5-4-.5-7.5 2-7.8 2.7-7.8 2.7l1.3-12.2c0-2-2-.5-2-.5-11 6.4-12.3 11-12.3 11l-4.6-8.5c-1.4-3.5-2.4.4-2.4.4C54.2 231 55 232 55 232c1.3 5.5 2.7 7 2.7 7 2.6 3.4 2.6 4.7 2.6 4.7z"/><path d="M127.2 273c-1.8.6-6.3 7.8-6.3 7.8-5.6-10.3-13-12-13-12-1.4.7.2 3 .2 3 2.2 5.5-.3 9.8-.3 9.8-1 4 0 5 0 5-8.7-4.5-9.3-4-9.3-4 0 5.5 6.6 16 6.6 16 14.5-4 15.6-3.6 15.6-3.6l5-1c4.5-12.4 1.2-21 1.2-21zM56.4 216.3c5.6 2.7 6 6.4 6 6.4 1.4 4.7 14.4 5.8 14.4 5.8 10.6-1 9.5-3 9.5-3-6-5.4-4.4-5-7-7.5-4.6-4.5-10.6-4.7-10.6-4.7-8.2 1.3-10-.3-10-.3-2.8 1.5-2.3 3.3-2.3 3.3zM43.8 197.6c-2.6-9.5 6-21.4 6-21.4 7.3 13.5 6 17.2 6 17.2-2.7 9-6.2 15.6-6.2 15.6-1.3-6.8-4.8-8-5.8-11.4z"/><path d="M39.2 201.4c-9 .2-18-10-18-10 13.8-3.7 16.8-1.6 16.8-1.6 7.5 4.2 12.7 8.8 12.7 8.8-6.4-.2-8 2.7-11.5 2.8z"/><path d="M32 188.5c-5.7 1-10.7-4.8-10.7-4.8C13.5 173.4 16 170 16 170c.8-.4 1.7 1 1.7 1 2.4 2 6.8 2.6 6.8 2.6-12.4-7.7-4.2-25-4.2-25 1.5-1.6 2 2.5 2 2.5 1.7 4.7 6.6 7.4 6.6 7.4 2.5 3.5 2.5 5 2.5 5 1.3-6 2.7-4.4 2.7-4.4 1.6 4.7 6.7 8 7.4 11 1.8 8.8.4 10 .4 10-1 5-1 8.8-1 8.8-4.8-1.7-9-.3-9-.3zM61.4 209.3c3-4 0-11.5 0-11.5-1.2-8 10.8-15.6 10.8-15.6 3.5 6.4 3 10.3 3 10.3l11.4-2.8c.3 5-4.6 12.6-4.6 12.6 7.5 2.2 10-1.4 10-1.4-3.5 16.6-19.4 13.2-19.4 13.2-6.6-4.3-11.2-5-11.2-5z"/><path d="M36.4 160.7c1-10 2.8-10.4 2.8-10.4 1 .4 1.6 5 3 5.5 6.3 3 6.3 9.7 6.3 9.7-.2 8-1.4 7.3-1.4 7.3-8.7 0-10.6-12-10.6-12zM65.5 162.7c3-11.4 1.2-12.6 1.2-12.6-1.3 0-3.7 4.8-5.6 5-8 .6-10.7 8-10.7 8-3 9-1.4 8.6-1.4 8.6 9.5 3.4 15.4-5 16.5-9z"/><path d="M36.8 141.8c1-11.7 3.2-12 3.2-12 1.3.3 2 5.5 3.6 6.3 7.4 3.5 7.3 11.4 7.3 11.4-.3 9.4-1.7 8.5-1.7 8.5-10.2-.2-13-10-12.5-14.2zM69.6 144.7C73 133.3 71 132 71 132c-1.2 0-3.7 4.7-5.6 4.8-8 .5-11 7.8-11 7.8-3.2 9-1.6 8.6-1.6 8.6 9.6 3.6 15.7-4.5 16.8-8.5zM83 176.3c9.5-7.2 8.7-9.2 8.7-9.2-1-.7-5.8 1.5-7.4.5-6.8-4.4-13.4 0-13.4 0-8 5-6.5 5.8-6.5 5.8 5.6 8.6 15.3 5.6 18.6 3z"/><path d="M82.8 182.5c9-4 8.6-5.8 8.6-5.8-.7-.8-5 .2-6-.8-5-4.5-11.2-2.3-11.2-2.3-7.3 2.8-6.2 3.6-6.2 3.6 3.2 7.5 11.7 6.6 14.8 5.2zM52 128.5C48.7 118 59.4 104 59.4 104c2.2 6.6 3.4 11.7 3.4 11.7 8.5-8.6 16-10 16-10 0 4-.2 6.8-.2 6.8 5.6-.6 8-2 8-2-1.2 8.6-12 17-12 17-4 2.7-8.8 1.8-8.8 1.8-7.8 2.2-9.6 7.4-9.6 7.4-.6-4.6-1.2 0-4-8.2zM67.7 163.8c4.8-6.3 12.4-3.6 12.4-3.6 7 .5 12.8-6.6 12.8-6.6 3-5 5-6.2 5-6.2-.3-1.7-2-1.4-2-1.4l-4 1c3-11.5 1.3-12 1.3-12-1 0-1.5.8-1.5.8-1.8 5.3-9.2 5-9.2 5-.4-7.6-2-6.6-2-6.6-1.2 2-3.7 3-3.7 3-7.2 7.3-7.2 10.5-7.2 10.5.4 8.5-1.7 16-1.7 16z"/></g><path d="M66.3 205.6c1-1 3-2.7 4.8-3.7 1.8-1 1.2-.6 2-2.5.8-1.7.6-1.3 1.8-2.5l-1 3.2c1.6-1 2.2-1.5 4.6-2.7.2 1-1.5 1.7-3 2.7l-3.7 2.4-6.5 5.4c6.2-1.4 5-.4 8-1 6.7-1 9.8-10.2 12-15.6-4.5.8-9.2 1.8-12.4 4-4.3 3-4 5.5-6.5 10.2zM49.6 229c-.4-1-1.5-2.7-2.2-3.8-1.7-3-2-4-4.2-7.6-1.4-2.3-1-1-2-3.6 1 0 2.2 2.6 3.2 3.7V214c1 0 .7 1 .8 2 .2 3.7-.2 3 2 7.2l4.7 7.5c-.4-1.2-1-2.2-1.3-3.5-1.4-5 1.7-10.8-10.5-18l-3-2c.2 6 1 16 6.4 19 1 .7 2 1 3 1.3l3 1.5zM46.7 153.8c-.4-1.5-1-3-1.6-4.6-.3-1.6 0-1.2-1.2-2l-1.4-1.7 1.8 1c-.3-1-1-2.2-1.4-3-1.2-1.5-.7-.5-1.8-2.5 2-.3 4.3 6 4.7 7.5 1.5 4.8 1.4 4.2 4.2 8 0-.6-1-1.7-1.4-2.7-.7-2.7 2-6.2-.7-12-1.8-3.2-5.2-3.8-7-6.6l-1.4-3c-.5 1-1.4 5-1.5 6.4 0 4 1 9.5 3.7 12.3 1 1 3.6 2.3 5 2.8zM62.3 124c.6-.4 1.8-2 2.8-3l3-2.4-.4-2.7c.6 0 .4-.4 1 1.8.7-.7 2.5-3.7 3.3-5 .5 1-1.3 3.4-1.8 4.2-1 1.4-1.7 2.4-3 3.4l-5.7 7c1.2-.4 2-.8 3.4-1 3.6-.8 5-1 7.6-5.3 2.5-3.8 3-8.6 4-13-5.2 2-10.8 4.2-13.5 9-1 2-.5 3.5-.7 7zM29 174c-1.6-3.8-5.7-8.4-6.2-10.3l-.6-4.7c1 0 .5-.2.7.6 0 0 .2 2.6.5 3.4l2 3.4c0-2.3-.4-1.2.4-3 1 1-.5 3 .8 5.3.7 1.2 1.7 3 2.6 4 0-3.2 2-8-1.5-12.8-1.4-1.7-3-2.3-4.5-3.6l-3-5c-2.5 5.4-2 16 3 19.6 1 .7 1.7 1 2.7 1.5.6.3 1 .4 1.4.8l1.3.8zM52.8 153.3c2-1.7 1.5-2.4 6.4-6.2 1.3-.8 2.2-1.8 3.2-3 1.5-1.6 1-1.3 3-3.3.6 1-2.7 4.3-3.7 5.6l2 .2c-.4 1.2-1.5.3-3 .7-1.5.4-5.4 4.8-6.4 6 1-.4 1.8-.8 3-1 3-.6 5 .2 8.3-4 2.7-3.6 3.7-8 5-12.4-4.2 1-9.3 3.2-11.7 5.5-3.5 3.3-3.2 6-4.5 9-.5 1.2-1.2 2-1.7 3zM36.2 185.4c-.5-.7-2.2-2-3-2.6-1.7-1.2-2-1.3-4.3-1.4l-7.2-4c1-.4 1.3.6 3 1.5l3.3 1.3-.3-1.8c.7 0 .7 0 1 .8l.2 1.2c3 .2 2.6.3 5.8 2.3-.4-1.4-.6-1.3-1.5-2-.8-.7-1-1.2-1.6-2-1-1.4 0 .6-1.6-2-2.6-4-5.7-2.3-7.6-2.8l-5-2c.7 4.8 3.3 8.5 6 10.8 1.2 1.3 2.7 2.7 5.2 3 .8.2 6.6-.2 7.6-.4zM33.3 212c-1-1-2-2-3.3-2.7-.8-.7-1.3-.6-2.4-.7l-2.3-.8H28l-1.3-1c-2-1.5-2.2-1.5-3.4-3.3.5-.4.8.2 1.5.7 2 1.6 6.2 5 8.3 6.3l4 2c-.3-2-3.8-8.5-6.6-9.7l-12.7-3.5c.6 2 3.8 8 5 9.8 3.8 5.2 4.2 3.5 7 3h3.6zM39.4 183.3l-4.8-16c1 .4.8 1.4 1.3 3.2l1.2 3.3c.6-1.4-.3-.2 1-2.3.7.7 0 2.2-.3 3-.6 1.7-.5 1 0 2.8l2.4 6c0-1.4 0-2 .3-3.5.7-3.8 1.3-6-.5-10-1.6-3.5-4.3-6-6.8-9-.4.8-1 5.4-1.3 6.5-.5 4 0 9.7 3 12.3 2.7 2 1.2.5 4.4 3.7zM49 204l-.2-12.7V189c0-1 0-.7.6-1.6l.2.4v6.3l1.5-2.5c1 .4.3 1.4-.2 2.3l-1.2 2.6.2 7.5s0-.3.2-.2l1.2-2.7c1.6-2.6 3.4-6.3 2.6-9.7l-4-12c-1 1.4-2 4-2.8 5.5-1 2-1.6 4.3-2 6.7-.7 5.6.8 6.7 2.5 9.6.6 1 1 2 1.4 3zM55.6 132.5c0-1.4.7-8.7.5-9.4l-.5-1.3-.7-3c1 .2.6 1 1.2 2l.4.5c0-.7 0-1.5.2-2.2 0-1.4 0-.7.5-2 .7.2.4-.4.5.5v1c-.6 5-.8 10.4-1 15.4.5-1 .7-2.2 1.2-3.2C59 128.3 61 124 61 121L58 106.8c-1 1.5-2 4-3 5.7-1.8 3.8-3.5 9.6-2.3 14l2.3 5.7.3.5zM17.2 215.4c1 1 2.6 2.6 4 3.5 2.3 1.7 8 4 10.7 4l6.4-1.3-1-3c-1.2 0-2 .6-3.5.6-1.4 0-2.8 0-4-.3l-3.7-.6c-2.2-.5-1.4 0-3-1.3l6.7 1c-1.8-1.3-1.2-.6-2.4-2.3 1-.2 3 1.8 3.8 2.4l5.8-.2-.4-3.4c-3-1.2-7-1.2-10 0-6 2-4 1.5-9.6 1zM25 230.4c.2 1 6.3 8 7.8 8.6l13.4.6c-1.7-1-4-2-6-2.7-2.5-1-2.7-.6-6.8 0 .2-1 1-1 3.2-1.4-1-.5-5-1.6-5-1.7l-.6-.7c.2-.3 0-.3.6-.3l1 .3c6.3 2 8 3 14 5.3-2-1.5-2.4-2-4-3.8-5.2-6.8-11-4.6-17.7-4.4zM71.4 155.8l2-3.8c1-2-.6-2 0-5 1 .3.6.2 1 2.6L77 144c.6 2-3.3 9-4 11l-1.5 3.6c3.2-3.6 7-5.3 7.8-8.2l.4-14.4c-2.3 2-5.4 5-7 7.5-2.3 3.7-2 7-1.3 12.3zM65.2 240.5c1.2-.5 2-1.2 3.4-1.8 5.3-1.4 3.2 1 6.5-3.6l-.8 2.6c2.4-.8 3-2.3 4.8-4 .5.8-1 2.3-1.6 3-3 3-6 2-7.7 2.7l-3.5 1.7c4-.6 3.6 0 6.8.6 6.8 1 8.7-5.7 11-9.7l1.5-3c-3.8.5-8.4 3-11.3 4.5-2.3 1.2-3 2-4.5 3.3l-2 2c-1 .6-2 .8-2.5 1.7z" fill-rule="evenodd" fill="#00873f"/><path d="M64.7 205c2.3-2.3 1.8-7.5 3.6-10.7.3-.6.6-1 1-1.4.6-1 .4-.8 1.2-.7.3.6-1 1.2-1.5 2.4l-1 3.3c.2 0 0 0 .3-.3l.4-.4c1.6-2.4 3-3 5.5-4.5l-2.3-8.4-4.2 3.6c-1 1-2.7 2.8-3.6 4.3-3 5.2.3 7.7.5 12.6zM63.5 239.7l5.5-9v-4.2c.8 0 .5-.4 1 2.5 2-2.7.6-2.4 2.7-3.8.2.8-2 5-2.4 5.4-2.4 3.3-3.5 5.3-5.5 8.8 1.3-.5 3-2.5 4-3.3l2-1.6 2.5-1.4 2.3-13c-2 1-7.7 5-9.4 7-3.4 4.5-3.6 5.8-2.7 12.7zM75.8 208l7.2-.6c-.3 1-1.3 1-3.3 1.3-3.2.5-9.2.4-12.6.5l3 1.5c1 .6 2 1 3 1.7 2.2 1 5 1 7.3 0l9.4-8.6c-5 1-2.2 1.3-9 0-1 .8-1.3 2-3.5 3.4-.4.3-1 .5-1.4 1zM25 190.8c2 4 7.8 9 13.2 8.4 2.3-.3 2.8-1 4.2-2.4-.3-.4 0 0-.4-.3l-.6-.2c-4-.8-4.6-.5-8.7 0l2-1-3.4-.8c-1.7-.5-1.5-.4-2.8-1.3.5-.5.4-.4 1.2-.2 5.5 1.8 6.8 1.7 12.7 2.6-.6-1.8-5.3-4-7.8-4.3-4-.6-5.3 1.5-9.7-.5zM60 238.4l-1.8-11.6c1 .3.7.7 1 3l2.2 10.6c.2-4 1.5-7 .3-11l-4-8c-1 2-1.4 7.3-1.3 9.6.3 3.5 1 4.6 3 6.7.2.4.2.4.6.7zM75.7 120.3c.6-.3 1-1 1.6-1.6l1.7-1.3c0 1-1.4 2-2.3 3.3-1.4 1.7-2.2 2-3 2.8-2.6 3.3-2.3 2.8-6.5 4.6 8.6.6 13.3-8.5 17-14.7-8 1.2-6.6 1.7-7.4 4-.4 1-1 2-1 3zM78.5 156.8l2.3-4c1.4-2 2.4-.5 4.6-2.7-.6-.5-.4-.3-3 .7l4-5.4c-2 .4-6.7 8-8 9.6l-2.6 3c1.6-4.7 1-9.2 3.4-11.4l13-8c-.5 3-1.7 7.5-3 10.3-2.3 4-5.6 5.7-10.7 7.8zM46 172c-.6-2-3.2-4.3-3.6-5.4l-2-7.6c1.2.2 1.2 2.2 1.4 3l1 3.3c.6-2.3-.5-.7 1-3 .7 1.5-1 3.8 0 5l2.6 3.5c1-3.5 1-8-1-10.2l-6-6.6c-1.6 2.2-1.5 8.5-.4 11.6 1.2 3.6 2.6 4 5 5.2.8.5 1.3 1 2 1.3zM51.3 171.3c1.6-2 5-3.5 6-4.6l4.8-7.3c-1-.2-1.8 2-2.3 2.7l-2.3 3.2c.2-2.7.7-.6 0-3.5-1.3 1.3-.5 4.3-2 5.4l-4 2.7c.4-4 2-8.7 5-10.4l8.8-5c.8 3-1.6 9.7-4 12.7-2.6 3.3-4.2 3.2-7 3.7-1 .2-1.8.5-3 .5zM67.2 172.2c2.4-.2 8.8-.3 10.7-1.3l2.6-1.4c0 .8 0 .4-1 1.4 2.6 0 1.5-.3 4 .2-.3.5.5.4-2 .6-3 .2-4.5.5-7 .8l-9.7 1c6 2 7 5.5 14 3 5.5-2 6.6-4.4 10-8.6-8.5 2-9.5-5.3-18 .3-1 .7-3.2 3-3.8 4z" fill-rule="evenodd" fill="#00873f"/><path d="M78.7 177.4c2.2.3 1.3 0 3.2 1-1 .7-4.8-.3-6.2 0h-6.2c2 2.6 5.3 4 10 3.5 4.6-.6 5.8-1.8 9.5-4l-7-2.4z" fill-rule="evenodd" fill="#00873f"/><g fill-rule="evenodd" stroke="none" stroke-width="0" fill="#00873f"><path d="M76 217.6c-.5-.6-2-1.3-3-1.7-4-1.6-7-.2-9-.2l-4.4-.5c1.2 1.3 6 3 8.3 3.4 6 1 2 2.6 8-1zM76.7 222l1.8 1.7c-.5.2-1-.2-2-.6l-.2 4.2 8-1c-2.4-3.3-4-5-7-7.7-.4 1.2-.7 2.2-.6 3.6zM66.3 224.4l4.8-3.7c-1-1-3.3-1-5-1.5l-4.7-2c1 1.7 1 1.3 2.5 3.7.7 1 1.2 2.5 2.5 3.4z" stroke-width="0"/></g><path d="M89.8 152.3c-2 1.2-3.6 3.2-6 4-3 1.4-6.5.2-8.5 2.2 5.3-.3 9 1.8 13-2 2.6-2.5 5-6 7-9-1-.2-3.7.7-4.2 1.2-.2.3-.6 1.3-1 1.8-1 1.5-.2.4-.2 1.8z" fill-rule="evenodd" fill="#00873f"/><path d="M44 195c-1-6.4-4.5-8.2-4.5-8.2M48.7 173.6l-2.6-2M51.4 157.8c-2-3-2.2-3-2.2-3" stroke="#006300" stroke-width="1.9" fill="none"/><g fill-rule="evenodd"><g fill="#006300"><path d="M138.6 315.8c2.3.8 6.8 3 8.7 3.8l6.3 11.7c2.4 1.8 2 1.4 4.8 2l-15 6.3c-4.5 1.6-2.7 5.5-.7 6.2 2.2.7 7-1.2 8.6-2 7.5-3.4 14.3-7 21-11.3 1-.7 6-4 7-4l26.7 15.2c2 1 5.8 3.4 8 1.8.8-.5 2.2-2 1.7-3.4-.4-1.5-1.4-1.8-2.7-2.3-2-1-14-6.3-14.5-6.3l3.2-1c1-.6-.7-2.6.6-2.2l6.6-10.8 8.2-3c0-7.6-62.3-12.4-78.6-.6z"/><path d="M184.3 317.5c.2 5 1 3.8 5.7 3.7l9 .4c-2.4.4-5 .4-7.2.6l-6.6 1.2v2.2L201 330c1.3-3.3-2-5.7-1-8.2.5-.8 1.4-1.4 1.8-3.5l.4-4.2c3 2-.2 7.8-.2 8l-.5 8.8c3.2-1.8 1-6 2-8.8.4-2 1-2 .6-4.4 0-1.4-.4-3.4-1.5-4-2.6-1-10.3 2-13.5 3-1.6.3-3.4.4-4.7 1zM155.3 330.8c-2.8-4.4 0-6.2-.5-8.7-1-4.4-2.3-.7-.2-8 .3.6 0 3 .4 4 1.7 6.3 1.8-.6 1 12l16.5-4.4-.4-3c-5.4 0-8.6-.6-14-1l14-.8c0-1 0-1-.4-1.6l-.6-2c-3.8-1-15-5-17-3.3-1 .7-1.2 2.5-1.4 3.8-.2 2.3.3 2.5.8 4.3 1 3.4-1.4 6.3 2 8.8zM175.4 315c-5.5 1-1 5-1 7.6 0 1.4-1.3 3.7 0 4.2 1.5.6 4.4 0 6 0 2 0 3.6 0 3.3-2.6-.2-2-1-2.7-1-5.3 0-2 .4-4-1.6-4-1.2-.2-4.3 0-5.6 0zM143 341c-2.2.6-1.7 5 2.8 3.5 3-1 .7-4.7-2.8-3.6zM209.2 341c-.7 1.8-.6 2.5 1 3.2 1.6.8 2.6.8 3.7-.4 1.3-1.4.2-2-1-2.7-1.5-.6-.4-.5-1.5-.3-.7.3-1.3.2-2.3.4z"/></g><g fill="#FF0"><path d="M143 341.4c-2.3.7-1.7 5 2.7 3.6 3-1 .7-4.7-2.8-3.6zM209 341.6c-.6 1.6-.5 2.4 1 3 1.7.8 2.7.8 3.8-.3 1.5-1.5.3-2-1-2.7-1.3-.8-.3-.7-1.3-.4-.8.3-1.4.2-2.4.4z"/></g></g><path d="M104.7 298.6c-6.4 2.3-13 4.3-19 7.4-1.5.8-4 2.6-5.4 3-3.4-5-8-12.6-11.4-17-2-2.4-4.5-5-7.7-6.5-5-2.4-7-1.7-10 1l-2.4-4.2c-4.6-8-9.3-11.7-14.4-18l-4.5-5.4c-.6-.8-.8-1.4-1.6-1.8l2.6 9.6 2 10c-2.7-1.6-5.3-3-8.2-4.3-2.2-.8-7.7-2-10.4-1.8l3.3 3c5.7 5 9.4 11.7 11.6 19 2.5 8.2 8.3 16.8 14.4 22.7 1.2 1.2 4.7 4.4 7 5.2 6.8 2.5 6.5 0 9-1.3 4 6.7 6.2 10 11.3 16.3l3.3 3.7c6.5 7 16.7 8.7 26 6.6 4-1.2 6.7-2.3 10-4 12-7 6.2-12.5 4.7-18 4-1.2 19.3-6 24.8-7 19.4-3.5 55.4-4 78.5-.6 2 .3 25.2 6.5 27.5 7.8l-2 5.3c-.2 1.8 0 4.7 0 4.7.3 4 3.7 6 6.7 7.7 3.2 1.7 5.8 2.8 10 4 4 .8 8.2 1 12.4.4 8.5-1.5 13-6.5 16.8-11l3.2-3.7 3-4c1.5-2.5 4-7 5-8.5 0 0 1.8 1.6 3 2 1.2.4 5-.3 6-.7 3-1 5-3.4 7-5.3 6.4-6 11.7-14 14.3-22.8 3-10.2 7.3-15 15-21.7 0 0-3.7.2-5.4.5-2 .3-5.3 1.4-5.3 1.4-1.6.6-2.7 1.2-4.2 2-1 .6-3 1.8-4 2.2l2.2-10c.6-2.8 2-7 2.5-9.6l-3.2 3.5c-2 2.5-4.3 4.7-6 7.2-1 1-2.2 2-3 3.2-2 2.5-4 4.5-6 7.2-.8 1.4-1.4 2.6-2.4 4-.6 1-1.5 3.5-2 4.2-13.8-7.6-20 11-29.2 22.3-8.7-4.7-13.8-7-23.6-10.2-2-.5-7.4-1.7-8.6-2.3l-20-4c-3.5 0-8.6-1-12.3-1.5-25.5-3-53.5-3-78.7 1l-12 1.7s-20.7 5-20.6 5z" fill-rule="evenodd"/><path d="M87 338c.5-.5.7-1.5 1-2.4 1.3-2 4-3.8 6.5-5 12.5-5.6 18.7-8 33-11.7 7.6-2.2 16.8-4 25-4.8 3-.3 2-.6 6.4-.8l6.5-.4c11.4-.7 18-.7 29.3 0 2.7 0 4 0 6.7.3l3.4.4c1 .3 1.6.3 3 .5 8.4 1 17.3 2.5 25.3 4.7 12.8 3.2 21.2 6.2 32.8 11.6 5.3 2.5 4.6 2.6 7.6 7.4 3.8-2.6 6.6-8 8.7-11.8 1.2-2 2.8-4.6 3.6-6.8 1-3.8-1.3-5-3-6.4-6.4-5.6-18.4-10.4-28.6-13.2-43.8-12.2-104-12.7-147.8 0C96 302.7 85 307 78 312.5l-2.6 2.5c-2.5 3 1.6 8.6 3 11 1.2 2.4 2.3 4.8 3.6 6.6 1.7 2.3 3 3.7 5 5.5z" fill-rule="evenodd" fill="#ce1126"/><g fill-rule="evenodd" fill="#ce1126"><path d="M43.8 299c5 1 6.7 2.4 10 6.7 7 9.8 7.3 16.8 19.4 30 2.7 3 4.8 5.6 9 7.4 4.5 2 9 2.7 14.4 2 5-.7 8.6-2 12.3-4 0 0 4.4-2.7 5.5-4.3 1.2-1.5 1.4-5.2 1.4-5.2-3.7-1.2-10.2 6-14.4 8.6-7.7 5.3-10.7 3.4-16.2-1.4-4.7-4-6.5-8.5-9.6-13.8-1.2-2-3.5-5.4-2.6-8.8l5.7-6c-.6-1.2-2.8-4-3.7-5.4l-3.6-5.7c-3-4.4-4.5-7.4-8.2-10.3-2.2-1.7-6.5-4.3-9.6-2.4-1.4.8-1.6 1.3-2.6 2.2-1 1-3.2 3.7-4.2 5-1.3 1.4-2.7 3.4-3.4 5.5z"/><path d="M35.5 280.2c-1-.4-5.2-3.5-7.4-4.5l-9-3c1.3 1.5 2.5 2.4 5 5.5 5.7 7.3 5.7 13.3 10.3 22 1.5 3 4.2 7 6.5 9.6 1.5 2 6.8 7 8 8 2.4 2 2.6 1.8 4.8 2 1.4.4 3.3 0 3.6-1 .4-1.7-3.7-4.4-6-5.5-2.8-1.6-5.3-3.2-7.2-5-5.4-5.5-1.3-12 3-16.8l2.6-3.3c.6-1-1-3-1.4-4-1.5-2.8-3.2-5.5-4.8-7.6-2.5-3-8.8-10-11.6-13.2.4 2.5 1.2 6 1.8 8.7.4 2 1.8 6.8 2 8.2zM115.6 329.8l-2-5c-3 .2-17.8 6.7-21.2 8.8-1 .6-5 4-3.2 6 5.7 6 14.3-3 19.3-6.8 1.8-1.4 4-3 7-3z"/><path d="M59 318c-1-.3-.7-2.2-4-4.6-1.2-1-8.7-5-10-6.3 0 0-2.4-1.7-2-4.2 0-2 1.7-2.3 1.7-2.3 6.7.2 14.6 16.7 14.3 17.5z"/></g><g fill-rule="evenodd" fill="#ce1126"><path d="M317 299.4c-5 1-6.6 2.3-9.8 6.6-7.2 9.8-7.5 16.8-19.5 30-2.8 3-5 5.6-9 7.4-4.5 2-9.2 2.6-14.4 2-5-.8-8.7-2-12.4-4.2 0 0-4.5-2.6-5.7-4.2-1.2-1.5-1.4-5.2-1.4-5.2 3.5-1.2 10 6 14.2 8.7 7.7 5 10.7 3.2 16.2-1.6 4.7-4.2 6.5-8.6 9.6-14 1.2-2 3.5-5.3 2.7-8.7l-5.8-6c.4-1.2 2.6-4 3.5-5.4l3.6-5.7c3-4.4 4.7-7.4 8.4-10.3 2-1.7 6.5-4.3 9.6-2.4 1.2.8 1.4 1.3 2.4 2.2 1 1 3.2 3.7 4.3 5 1.2 1.4 2.6 3.4 3.4 5.6z"/><path d="M325.3 280.5c1-.4 5.3-3.5 7.4-4.5l9-3c-1 1.5-2.4 2.4-4.8 5.5-6 7.4-6 13.3-10.5 22-1.5 3-4.2 7-6.5 9.6-1.5 2-6.7 7-8 8.2-2.3 1.8-2.5 1.7-4.8 2-1.4.3-3.3 0-3.6-1.2-.4-1.6 3.8-4.3 6-5.4 2.8-1.6 5.3-3.2 7.2-5 5.4-5.5 1.3-12-2.8-16.8l-2.8-3.3c-.5-1 1-3 1.4-4 1.6-2.8 3.2-5.5 5-7.6 2.3-3 8.6-10.2 11.4-13.3l-1.7 8.7c-.4 1.8-2 6.7-2 8zM245.2 330l2.2-5c3 .3 17.6 6.8 21 9 1 .5 5 3.8 3.2 5.8-5.7 6.2-14.2-2.8-19.3-6.7-1.7-1.3-4-3-7-3z"/><path d="M301.8 318.3c1-.3.7-2 4-4.6 1.3-1 8.7-5 10-6.3 0 0 2.5-1.8 2.2-4.3-.3-1.8-2-2.2-2-2.2-6.6.2-14.5 16.7-14.2 17.5z"/></g><g fill-rule="evenodd" fill="#eac102"><path d="M112.5 312.6c.2 0 .4.3.4.3h.4c0-.2-.2-.3-.3-.4l-.5-.2v.2zM140 299.2h-1.6l-1.7.3c-.8 0-1 .3-1.7.4h-.4c0 .6.2 0 .5.7.4.5.3 1 .4 1.4v.6l.4 2v.7c.2.6 0 .7.3 1.2.2.2.5 3.5.5 3.8 0 .2 0 .4-.2.6v.2c-.2 0-.2 0-.2.3.5 0 .3-.2 1-.2h.2l1.8-.4c1-.2.6 0 1-.2h.6c.4 0 .2 0 .4-.2.2 0 .8 0 1.3-.3h.3c.2-.2 0-.3.2-.3l.8-.8.4-.4c.4-.8.3-2.2 0-2.8 0-.3-.2-.4-.4-.6h-.2v-.2l-.3-.2-1.2-.4c-.4-.2-.3 0-.6-.4.6-.4 1.3-.8 1.6-1.4v-.2c.4-.5.4-1.4 0-2l-.7-1-.7-.3H140zm-1.8 1c.5-.2 1-.2 1.5 0 .3.2.2 0 .4.4h.2c.3.3.5.8.5 1v1.4c-.2 0 0 0 0 0l-.5.6c-.3.3 0 0-.4.2l-.5.3c-.5.3-.6.4-1.4.4l-.2-2V300.6l.4-.5zm1 5h1.5l.5.7.5 1c0 .5 0 1.7-.3 2.2-.2.3-.6.5-1 .6-1.6.6-1.6 0-1.7-.6l-.2-1.3-.2-1c0-1-.2-1-.2-1.7.8 0 .7 0 1.2-.2zM102.3 308.5h-1l-.2.2c-.2 0-.6 0-.8.2l-2 .8c-.5.2-1.5.5-1.6.8 0 .2.3 0 .7.5l.2 1v.4c.2.4.5.7.5 1.3l.2.5v.4l.2.5.2 1c0 .3.2 0 .2.5l.2.8c0 .4 0 .7.3 1v.4l.2.4v.4l.2.5c0 .3.2.6 0 1l-.2.5c.5 0 .6 0 1-.3l.6-.2c.6-.2 1.3-.3 1.8-.6 0-.4 0 0-.4-.3h-.3l-.3-1.7-.2-.6v-.3l-.3-.8c0-.3 0-.5-.2-.8.3 0 .5 0 .8-.2 0 .3.4.5.6.8 0 .3.4.5.6.7l.4.6.5.4h.2v.2l.7.5c.8.5 2 .7 3 .3l-.8-.5-.5-.5-.6-.5-.6-.8-1.4-2 .2-.4h.2v-.2h.2l.4-.6c.3-.5.6-1 .7-1.7 0-.5-.2-1.3-.5-1.8l-.2-.4-.5-.5h-.2c-.3-.2 0-.2-.3-.2l-.7-.2h-1zm2 5.6zm-3-4.5c.3 0 .5 0 .7.2.4 0 0 0 .5.4v.2l.3.2.4 1c.3 1 .3 1.7-.4 2.5l-1 .6c-.5.3-.7.3-1 .3-.2-.4 0-.2-.2-.3v-.7c-.2 0-.2-.2-.3-.4l-.5-1.8v-.2l-.2-1c0-.4.3-.6.6-.7l.8-.4h.4zM120.5 303h-.5l-1.6.3-1.7.6h-.5-.2l-.8.3s-.4 0 0 .4c0 0 .2 0 .5.4s.3 1.5.4 1.8c.2.4.2 0 .2.4v.6c.2.2.3.4.3.8 0 .8 0 .5.2 1l.2 1.3v.4c0 .3 0 .6.2 1 .2.8.5 2 .3 2.8l-.3.5 1.8-.4H119.6c.7-.4.4 0 1-.6-.3-.4-.6 0-.7-.8-.3-.7-.5-1.2-.5-1.8l-.4-2 2-.4 1.6-1 .6-.5c.6-.8.8-1.4.7-2.2v-.4l-.2-.4-.2-.6v-.2l-1-1-.4-.2h-.2l-1.5-.2zm1.6.2zm-2.5.8h.2c.4 0 1 .4 1 .5.5.4 1 1.6 1 2 0 1 0 1-.2 1.4-.3.5 0 0-.5.5l-1.4.8h-.7c0-.3 0-.7-.2-1-.2-.5 0-.5-.3-.8l-.3-2v-.3c-.2-.2-.2-.4 0-.5 0 0 0-.3.2-.4.3-.2.7-.3 1-.3zM172.2 295.6h-1.5v.4l-.5 2v.3s-.2 0-.2.3c0 .7 0 .4-.2.8l-.2 1.2v.6c-.2 0-.2.2-.2.4 0 .3 0 .4-.2.7l-.3 1.5c-.2.2-.2.5-.2.7 0 .2 0 0-.2.3l-.7 1.8h-.2l-.2.6h2.7c0-.5 0-.4-.3-.5 0-.2 0 0-.2-.3v-.2h-.2v-.2-.2c-.2 0 0-.7 0-1v-.7h3.2v.5l.2.2c.4 1 .3 1.3 0 2.2h2.3l.8-.2s.4 0 0-.5c-.2-.2-.2 0-.3-.3l-.2-.4-.2-.7-.2-.5-.8-3v-.3l-.3-.7s0-.3-.2-.4l-.5-1.7c-.2-1-.5-1.5-.7-2.7h-.4zm-1.2 2.6l.7 2.3.4 1.5c.2.2.4 1 .4 1.2H170c0-1 0-.7.2-1.3 0-.8.2-1 .4-1.7v-.3-.6c.3-.7 0-.5.4-1.2z"/><path d="M106.5 307c0 .5.3 0 .6 1 .3.5.3 1.3.5 1.8l.3 1v1c.2.4.4 1 .5 1.7v.3l.5 2v.2c0 .5.4 1 .2 1.5-.2.3-.2.2-.3.7l5-1.3c.7-.4 1.4-.6 2.2-.7v-2.6c-.6 0-.5.2-.8.6v.2l-.2.2-.4.4-.7.6-1.7.6h-.3c-.4.2-.7 0-.8-.2l-.3-1c-.2-.2 0-.5-.2-.7l-.2-.6-.4-2c.7-.4 2-.6 2.4-.4h.3c0 .2 0 .3.2.4l.5.2v-1l-.2-.8c-.2-.6-.2-1-.6-1.6-.4 0-.2 0-.3.3-.2.3-.3.7-.5.8l-1 .5c-.4 0-.7.2-1 .3l-.2-.2c-.3-1-.3-2-.4-3.2l1-.4c.6-.3 1.3-.3 2 0 .5 0 .8.5 1.3.8v-.2-.6l-.5-1.2c0-.2 0-.3-.3-.5-.5 0-.8.2-1.3.4l-.7.2-2.4.6-1.3.3h-.4zM131 300.8c0 .2.2.3.4.5l.5.8c0 .6 0 1.4.3 2v.7c.2.7.5 1.6.5 2.3v.7c.3.4.3 1.2.3 1.7 0 .4 0 .7-.2 1l-.7.8-.3.3h-1c-.6 0-1-.3-1.2-.6l-.2-.4s0-.2-.2-.3v-.7s0-.2-.2-.3c0-.3 0-1-.2-1 0-.5 0-1-.2-1.3l-.2-1v-1c0-.2 0-.4-.2-.7 0-.3 0-.7-.2-1 0-.4-.2-1 0-1.2l.3-.6c-1 0-1.6.3-2.6.4-.3 0-.5 0-.7.3v.3c.3.3 0 0 .2 0 .3.4.5.7.5 1v1l.5 2.3c.2.6.2 2 .4 2.5v.7c.2.5 0 .5.3 1l.2.4.4.7v.2h.3c.4.3.7.6 1.2.7.8.2 2.2.2 3-.3l.7-.5v-.2l.7-.6.3-.6v-.4c.2-.2 0-.7 0-1v-2c0-.6-.2-1.6-.4-2.2 0-.5 0-1.2-.2-1.6v-1c0-.4 0 .3 0 0-.2-.6-.2-1.2.2-1.7l.2-.4c-.4 0-1 0-1.4.2h-1v.3zM167.4 304.3h-.5l-1 1.2-.6.4h-.6c0 .2 0 .2-.4.2h-.4l-.6-.3-.7-.6-.3-.4v-.2l-.3-.4v-.3l-.4-1c0-.3 0-.7-.2-1-.2-.7 0-2.3 0-3v-.4-.2l.6-1c.2-.3.5-.6 1-.6H164l.5.5.2.2c1 .8.5 1.4 1.2 1.8l.2-.7.3-1.3v-.3l-.2-.2-1.2-.6c-1-.3-1.7-.3-2.6 0-.5 0-.8.3-1.2.5l-.8.7-.8 1.3-.2.7-.3 1.3v1.6l.3 1.8.6 1.7 1.5 2h.3c.5.2 1 .4 1.4.4.7 0 1.2 0 1.8-.3l.4-.2 1-1 .7-1v-.2c.3-.4 0 0 .2 0v-.6l.2-.2v-.2zM145 298c0 .7 0 0 .4.8v.3c.2.6 0 1.2.3 1.7v2c.2.2.2 0 .2.2v1.6c0 .2 0 .4.2.6v1.7c0 .3.5 1 0 2 0 .3 0 0-.4.5h.3s.2.2.3 0h1.3c1.3 0 1.4-.2 2.7-.3h.8l2-.3v-.4c.2-.8.2-1.8.3-2.6-.6 0 0 0-.8.8-.2.3-.2.5-.5.7l-.5.3-1.2.3c-.2.2-1.2.2-1.2.2-.6-.2-.4-2-.5-2.5l-.4-4.2c0-.6-.2-1.8 0-2.8 0-.4 0-.4.5-1h-1c0 .2-.5.2-.8.2H145zM153.6 297.2v.2c.4.2.2 0 .5.3.3.4.2.7.3 1.2v.7l.6 6.5v1.2c0 .8 0 .2-.5 1h2.7l.8-.2c0-.5 0-.2-.3-.5-.5-.3-.4-2.6-.6-3.6v-1.5l-.2-1.5v-1.5c-.2-.3-.3-1.7 0-2l.3-.8s-3 .2-3.4.5z"/></g><g><g fill-rule="evenodd" fill="#eac102"><path d="M185.8 295l-3.3.4c0 .7 0-.2.4.7v.4l-.2 8.2c0 2.3 0 1.6-.6 2.7.7 0 3.7.2 4.4 0h.8c.4-.3.7-.3 1-.6h.2v-.3c.5-.2.3 0 .6-.3l.2-.2.5-.7.3-.6v-.2s0-.3.2-.4v-.8c.2-.4.2 0 .3-.8v-1.8c-.2-1 0-.6-.3-1.3-.2-.5-.3-1-.5-1.2l-.4-.6-.2-.4c-.5-.6-.8-.8-1.4-1.2h-.3c0-.2 0-.2-.2-.2h-.5c-.5 0 0-.2-1.2-.3zm.3 1c.5 0 1 0 1.2.4l.3.2.2.4.4.8.2.6v.4c.2.4 0 1 .2 1.5.2.6 0 2 0 2.6v.3c0 .5-.2 1-.4 1.5l-.2.4v.2c-.2 0-.3.4-.4.5l-.8.4H185l-.2-.3v-.2c-.3-.5 0-8.8 0-9 0-.4 0-.3.2-.7h1zM196.4 295.5h-1.1l-.8.5-.4.3c0 .2-.2.3-.3.5l-1 1.2-.2 1s0 .3-.2.5l-.2 1v2.8c0 .4 0 0 .2.4l.7 2.2.2.4v.2h.2v.2h.2l.2.3.4.4.6.3h.2l.2.2h1.2c.5 0 1 0 1.3-.3l.4-.3c.4-.2.6-.5.8-.7l.4-.5.5-.7c.3-.5.4-1 .5-1.5l.2-1c0-.6 0-.7.2-1.3v-1.2l-.3-1v-.3l-.3-.4c0-.3 0-.5-.3-.8l-.7-1-.5-.7h-.2c-.7-.6-1.2-.8-2-.8zm0 .8h.6l.3.4.4.5c.3 1 0 .7.3 1 .2.7 0 .4 0 1 .2.2.2 0 .2.6v3.5c-.2.5 0 1-.2 1.4l-.2.7-.2.7-.3.5c0 .3-.2.4-.5.6l-.3.2s-.3.3-.6 0h-.4c-.2 0-.5-.4-.6-.6-.2-.3 0-.3-.2-.5l-.3-.7c-.2-.4 0-2.8 0-3.6V300v-1.5c.2-.2 0 .3.2-.2v-.7c.4-.6.3-.7.7-1l.3-.2h.7zM200.8 308.2c1.2 0 1 0 1.8.2h.5c0-.4-.2-.4-.4-.7l-.3-.7c0-.4 0-1 .2-1.3v-.7c0-.2.2-.2.2-.5v-1.3-.7c.2-.4.2 0 .3-.5v-.7c0-.5.2-.3.2-1.3l.3-1.2v.5h.2v1.2l.2.3v1.3c.2.4 0 .7.2 1 0 .3 0 .6.2 1 0 .3 0 1.3.2 1.5v.6c0 .5 0 .5.2.7v.8l.2 1 1 .2c0-.6 0-.4.2-.6 0-.4.2-.4.2-.7l.2-1c0-.3.2-.5.3-.8l.3-1c0-.5 0 0 .2-.5 0-.7.3-1 .3-1.4l.2-.6.3-1.3.5-1.3c0 2.8.2 5.7 0 8.5 0 .4-.2.5-.5.7v.2c.6.2 1.3 0 2 .2h1.2c0-.2 0-.3-.3-.5-.5-.5-.4-1.4-.4-2v-1.8-1.6-5.6l.4-.2v-.5h-2.7c0 .2 0 .4-.2.6l-.4 2h-.2c0 .3 0 .7-.2 1l-.2.4v.4c0 .2 0 .4-.2.5 0 .4 0 .4-.3 1v.3c-.2.4-.2.3-.3 1-.3 0-.2-.3-.2-.7v-.6c-.2-.5-.2 0-.2-.4v-1l-.2-.4V300v-1l-.2-.4-.2-2h-.7c-.4 0-.4-.2-.7-.2h-1.5v.4c0 .2 0 0 .2.2.2.4 0 1.4 0 1.8v.4l-.2 1.2-.7 3.7v1.4c-.3.3-.2.7-.4 1v.4c-.3.3 0 .6-.4.8-.4.2-.4 0-.4.6zM259.6 310l-.3.5v.3h-.2l-.7 1.5-.2.6-1 2-2.7 4.3c-.3.3-.6.4-.6.6h.2c0 .2.3.3.5.4l1 .4.5.2v-.7h-.2v-.4c-.2-.5 0-.6 0-1v-.2l.5-1h.2l2 1h.5v2.2l-.3.6h-.3v.3c.2.2.6.3.8.3l.5.3c.3 0 .4 0 .6.2l1 .2c0-.4-.2-.2-.3-.6-.2-.7 0-1.7 0-2.3v-2.4-.7l.3-6.6c-1.2 0-.6-.4-1.7-.4zm-.4 2.4v5.5l-.7-.3h-.3l-.3-.2-1.2-.6 1-2c.6-.8.2-.2.5-1l.2-.2c0-.4 0-.3.3-.6l.2-.5.2-.3zM247.8 318c0-.7 0-.5-.3-1v-1.4-.7-.6-.3c.2-.2.2 0 .3-.2v-.5-.3c0-.4 0 0 .2-.3l.3-1.7v-.6c.2-.4.2 0 .3-.5 0-.5 0-1 .3-1v.2l.5 1.6v.5l.5 1.8v.3l.2.4v.3c.2 0 .2.3.2.4v.3l.2.2c0 .3.2 1 .4 1.2l.4 1.7c0 .3 0 .4.2.5v.7l.7.3h.3v-.3l.2-.4.4-1.6c0-.6 0-1.2.3-1.7v-.3l.5-2.4.4-1.4c0-.5 0-.2.2-.7l.2-1.3v-.2l.5-.5c.3 0 .5-.2.4-.5 0-.2 0 0-.2 0l-1.4-.6h-.5c0 .4 0 0 .2.5v.5h.2c0 .5 0 1.4-.2 1.8 0 .3 0 .8-.2 1v.5c-.3.6-.3 1-.5 1.6v.2l-.2 1.5h-.2c0-.4 0-1-.3-1.3l-.3-1.4-.2-.6v-.5c-.2-.4-.3-.2-.3-.6v-.4c-.4-.7-.4-1.5-.7-2.2v-.3l-.3-.7v-.5l-.7-.4-2-.5c0 .6.4.4.3 2v1.4l-.2 1-.6 2.2v1l-.2.3v.2c-.2.6-.3 1.5-.6 2l-.4.7c-.3.4-.5.3-.6.5 0 .2 0 0 .3.2h.4l.7.3c.3.2.7.4 1 .4zM216.3 310.3h.7c.5 0 .2 0 .5.2h.6c.4 0 .5 0 .7.2v-.3l-.4-.7c-.2-.6 0-3 0-3.5.2-.6 0-1.3.2-2v-.4c.2-.2.2-1 .2-1.2 0-.4.2-.7.3-1v.2l1 2.4s0 .2.2.2l1.4 3.8v.3h.2v.2l.7 2c.5.8.4.8 1.2 1v-1.4l.2-.3v-1.6-.3c.2-.3.2-.7.2-1v-.6c.3-.6.2-1.3.3-2v-.2c.2-.8 0-1.7.3-2.3.2-.6 0-1 .5-1.5.4-.4.4-.3.5-.7l-.8-.2h-.3l-1.2-.2v.4c1 1 .3 3.3.3 4.3 0 .6 0 1-.2 1.6v1.5c-.3 0-.3-.2-.4-.5 0-.3-.3-.5-.4-.8 0-.4 0-.5-.3-1l-.5-1.2-.2-.5v-.2l-.2-.2v-.3l-.4-1-1-2.5h-.7l-1-.3-.8-.2v.5l.2.2v.2c.2.8.3 1.7 0 2.5v2l-.2 1c0 .3 0 1.2-.2 1.5-.2.6 0 1.2-.2 1.6-.2.7 0 1-.5 1.7l-.3.2c-.3.2-.3.2-.4.6zM242.6 304c0 .2-.2.3-.2.3l-.7 1.7v.3l-1 2v.2l-.4.6v.5c0 .2 0 0 0 0l-.4.6-1 2-1 2c-.2.3-.4.3-.7.5v.2l.3.2c.4 0 1 0 1.4.2 0 0 0 .3.7 0 0-.3 0 0-.2-.4v-.2c-.2-.3-.2-1 0-1.2 0-.3.2-.7.4-1 0 0 .5 0 .6.2h.7c.2.2-.2 0 .2.2h.4l.5.2v2.6l-.3.4c0 .3 0 0 .3.3l1 .3c.4 0 .3 0 .7.2h.2c.3 0 .5 0 .7.2l-.3-1c0-.5 0-3.8-.2-4v-.2-4.2c0-.7 0-1-.2-1.6 0-2 .2-1.5-.6-1.7l-1-.3zm-.2 2.5v5.4l-1-.2-.6-.2h-.5c0-.6.4-1.2.5-1.4l.2-.6v-.4c.4-.5.2 0 .4-.6l.4-1 .2-.3c.4-.8 0-.4.4-.8zM230.5 308.5v1l.2.8v.8l.2.3c0 .4 0 .3.3.8v.2l.4.6.4.5 1.3.7.3.2c1 0 1.3 0 2-.3l.4-.3c.2 0 .2 0 .3-.2l.7-1c.3-.2.5-.6.7-1l-.3-.2c-.3.2-.6.7-1.2 1-.5.2-1 .4-1.7 0-.4 0-.4 0-.6-.3-.3-.2-.2 0-.3-.2l-.4-.7-.3-.8v-.5c-.2-.3 0-2.7 0-3v-.5l.3-1.4c0-.3.3-.6.4-1 0-.3.2-.5.4-.7l.4-.2 1-.3h.3v.2l1 .8.2.7v1.7c.7 0 .6 0 .8-.6l.3-.7c.4-.6.5-1 .2-1.3l-1-.8-.4-.3-.3-.2c-.7-.3-1.8-.4-2.5 0l-1.2.6-.7.7-.3.6-.3.4-.3 1v.5l-.4 1.2v1.3zM227 300.2c0 .6-.2 0 0 .4.3.3.2.5.2 1v.7l-.2 1.4c0 .8-.2.6-.2 1.5v.3c-.3 1.2-.2 2-.3 2.3-.2 1 0 1-.2 1.5v.3l-.3 1.4-.3.6c-.3 0-.3 0-.4.3h.3l.4.2h1c.2.2.4.2.5.2.3 0 0 0 .3.2h.8c0-.3 0-.3-.2-.5h-.2v-.5-1.6c.2-1.3.3-.4.4-2.3v-.7c.2-.4.2-1 .2-1.2v-.3l.3-1.5c.2-.4.2-.2.2-.7 0-1.2 0-.4.2-1 0-.3 0-1 .2-1l.4-.5h-.5c-.3-.3.2 0-.2-.2h-.5l-.7-.2c-.3 0-.5-.3-1-.2-.2 0 0 0 0 0zM212.4 309.5l1.8.4h1.2c0-.5 0-.3-.2-.5-.5-.5 0-1.7 0-2.2v-1.5-.7l.3-2.4c0-.8 0-1.3.2-2.3v-.8c.2-.2 0-.5.3-.8 0-.2 0-.2.4-.3v-.4c-.6 0-1.2 0-1.6-.2h-1.6v.2h.2c0 .2 0 0 .2.3.2.5 0 .7 0 1.3v.8l-.2 2.3-.2 1.6v.4c-.2.3 0-.2 0 .2-.2.4-.2 1.8-.2 2.4l-.2.8v.7h-.2c-.3.3-.2 0-.2.5z"/></g></g><path d="M72 274.8l4 8 5.4 6.6c1-.6 2.4-1.5 3.7-2l4.4-1.6c-2.4-1-2.5-2.3-4-2.4-3.3-.2-1.3.3-5.8-.4.5-.7.3-.4 2.6-.4H85c-1.7-1.6-3.7-2.7-5.5-4l5.8 3-.2-4c1.5.2.6 2.4 1.3 4.5.3 1 2.2 2.4 3.2 3 2 .8 2.6.6 4.6 1l4.6 1.5c-1.8-2.6-1 .4-4.2-6-1.2-2.8-2.4-4.4-4.6-5.7-5.2-3.3-11.7-1-17.7-1zM78.7 267c0-3.2-.2-6.2 0-9.4.2-1.5-.5-5.5-.8-7.7.6 0 .5.5.7 1.4l.6 2c.7-3.3 1-3.2 2.7-5.6.3.8-1.8 3.4-2 7.2l-.5 9.5.8-1 1-1L83 260c4.6-7 1.8-11 2-13l1.2-7c-1.4.6-5.3 3.4-6 4.3-3.7 3.6-7 9.8-5 15.2.6 1.2 1.3 2.3 1.8 3.5.6 1.3 1 3 1.7 4z" fill-rule="evenodd" fill="#00873f"/><path d="M76.3 294.2c.7.4 5 2 6.3 2.2 4 1.3 10.7 1.8 13.6-2 1.6-2.2 2.5-2.8 4.5-4.4-3 0-5.2 1.2-8 2-2 .3-2 1.7-3.7 3.3l-1.5 1c0-1 2-2.8 2.8-4h-6c0-1 1.8-.4 4.4-.7 5.3-.4 6.2-1.8 12-2.5l1-.2c-8.5 0-10.4-5.8-20.6 1.5zM115.2 289v-4.4c-2-1.4-2-1.8-3-4 1 0 1.4 1.7 3 2.7-.2-2-1-5.4-1.5-7.6 1 .2 1.4 3 1.6 4 1.2 4.8.2 8.7 1 10.3l2.5 3.3c.8-3.5 4.4-5.7.2-14.3-2.6-5.2-4.7-6-9-9.3.4 2.4 1 3.2.7 6-.3 2.2-1 3.7-1.4 5.7-.5 4.6 1 4.3 1.8 5 1.6.7 3 1.6 4.2 2.5zM73 280.8L72 278c-3.6 0-4.7 1.5-9.7-2-1.2-.8-1-.7-1.7-2l5.5 3c-.3-.6-1-1.2-2-3.5 0 0-.2-.3.5 0l.4.5 2.7 3.6 3.7-.4c0-.6-.6-1.7-1-2.3-.4-1.4 0-1.6-1-2.2-1.3-1-2.8-1.8-4.7-2-2.3-.2-3.7.6-5.8.7l-5.7-1c.3 1 2.4 4.5 3 5.3 2.4 3.4 8.7 8.3 14 6.2 1-.3 2.6-.8 3.3-1.2zM43.6 254.6l.3.2.4.2c1.6.6 3 1.4 4 2.7 1.6 1.6 1.7 2.4 4 4.3 3.5 3 7.3 2.8 12 3.5-.3-.7-1.5-2-2-2.6-4-4.2-3.2-4-5.6-3.6l-4 .3c.2-.8 2.5-1 4.3-1.4-.8-.4-1.5-.6-2.5-.8-2-.4-.6.2-3-.7 1.2-1.4 6.3.4 8.7 2.7 1.8 1.6 4 4.2 5.6 6.2l-2.7-6c-2.8-5-10.2-7-15.7-6-1 0-3 .5-3.7 1zM77 268.3c-2-6.3-5.3-9-6.2-12.8-.6-2.6-.4-2.8 0-5.2 1.4 1.7-1 3 2.7 9.2-.2-2-.7-3-.3-5.4 0-1 1.3-4.6 1.3-4.7-.2-1-4.7-5.2-6-6.5-.6 5.6-2 10.5-.2 16 1.8 5.8 5 4.4 8.6 9.5zM107 296.5l4-1c-.7-.5-2-2.3-2.7-3.2-1.7-2.5-1.5-2.7-1-4 .4.4.2 0 .3.5 0 .7 0 1 .4 1.8l1.2 1.6c1 1.3 1.6 2 2.8 3 0-2-.4-3 0-4 1 .2.4-.3.6.4l.3 3.4 4.3-1c-3-5.4-8.7-7.2-14-9.3l1.6 6c.4 2.5 1 3.8 2 5.8zM100 285.2c-.5-1.2-1.4-2.4-2-3.8-1.5-3-1.2-4.4-4-7.4l-1.6-1.4c-.2-.3-1-.7-1-1H91v-.6c1-.2 3 2 3.6 2.7 1.7 1.6 5.7 10 7 12.5-.2-1-.8-2.5-.4-3.6 1-3.3-2-8.3-3.6-9.4l-12.3-5.4c1.5 1.4 2.4 2.2 3.4 4.4.7 1.8 1 .3 4.3 3.7 3.3 3.5 3 8 6.6 9.2z" fill-rule="evenodd" fill="#00873f"/><path d="M122.5 285.2l.7-1.8c.3-1 0-.7 1-1.6.4.7 0 1-.5 2.7-1 3-1.7 5.5-2.5 8.5 2.7-.3 2.6-.4 3.7-2.4.6-1.3 1.2-3 1.5-4.6l-.4-11.6-3.4 4.6c-2 2.7-.7 1.3 0 6.2zM85.5 259c1-.6 3-3 4-4 .4 1-2 3.4-2.5 4-2 1.8-.7 0-3.4 3 5.3.8 7.5-6.2 9.2-9.7-1 0-4.4 1-5.2 1.6-.7.3-.5 0-.7 1l-.5 1.4c-.2 1-.6 1.7-1 2.6z" fill-rule="evenodd" fill="#00873f"/><g stroke="#000"><path d="M221.7 324l-6.6 3.3 3.8 7.4c-2.7-.4-12.7-4-16-5 .8-2.2 1-2.5.8-5.4l1-5.3 8.2 2.7c3 1 5.6 1.6 9 2.2zM134.7 325l6.6 3.5-3.8 7.4c2.8-.6 12.8-4 16-5-.8-2.3-1-2.6-.8-5.5l-1-5.3-8.2 2.7c-3 .8-5.6 1.5-8.8 2z" fill-rule="evenodd" stroke-width=".8" fill="#ce1126"/><path d="M158.7 335.6c7.5-1 14.2-5 14.2-5 1 1.2 7 .3 7 .3l4-1c7.4 4.7 13 5.4 13 5.4 6.7-.4 7-5.4 7-5.4-.4-4.5-.8-4.7-.8-4.7 3.5-5.5-.3-10-.3-10-2-2-12 1.3-12 1.3-7 3.3-7.3 2-7.3 2-2-3.2-9-2.7-12.2-.3-7.6-1.7-8.6-2.2-8.6-2.2-7.8-2.8-9-1-9-1-2.7 3.2-2 6.6-2 6.6 0 2 .8 3.6.8 3.6-1.7 9.8 6 10.4 6 10.4z" stroke-width=".8" fill="#ce1126"/><path d="M184 327.3c16.3 3.7 15.2 6 15.2 6-1 1.7-6-.5-6-.5-12.7-4.5-9.3-5.5-9.3-5.5zM173.7 327.3c-16.4 3.7-15.2 6-15.2 6 1 1.8 5.8-.4 5.8-.4 12.8-4.6 9.4-5.7 9.4-5.7z" stroke-width=".6" fill="#ce1126"/><path d="M174.4 316.2c-7 1.3-1.5 6.5-1.2 9.8 0 1.7-1.8 4.7 0 5.5 1.8.8 5.5 0 7.5 0 2.7-.3 4.6 0 4.2-3.5-.3-2.6-1.2-3.5-1.2-7 0-2.3.4-5-2.2-5.2-1.6 0-5.6.2-7.2.4z" stroke-width=".6" fill="#aa241e"/><g stroke-width="1.3" fill="none"><path d="M352.6 828c-37.8.5-35.2-6-35.2-6M352 840.3c-37.2 6-32 11.7-32 11.7" transform="matrix(-.49523 .00777 .00822 .46784 351.9 -70)"/></g><g stroke-width="1.3" fill="none"><path d="M172.8 325.3C155.6 329 157 332 157 332M171 319.7c-17.7 1.3-16-1.7-16-1.7" stroke-width=".60827"/></g></g></g></svg>