<svg xmlns="http://www.w3.org/2000/svg" width="600" height="300" viewBox="0 0 1200 600"><title>Flag of Dominica</title><path fill="#006b3f" d="M0 0h1200v600H0z"/><path fill="#FFF" d="M0 325h1200v50H0z"/><path d="M0 275h1200v50H0z"/><path fill="#fcd116" d="M0 225h1200v50H0z"/><path fill="#fcd116" d="M525 0h50v600h-50z"/><path d="M575 0h50v600h-50z"/><path fill="#FFF" d="M625 0h50v600h-50z"/><path d="M750 300a150 150 0 1 1-300 0 150 150 0 1 1 300 0z" fill="#d41c30"/><path d="M595.2 181.6L600 168l4.4 13.4s14.6.4 14.6.2-11.6 8.8-11.6 8.8l5.3 15-12.7-9.2s-12.7 9-12.5 9 4.8-14.8 4.8-14.8l-11.3-8.6 14.2-.2zM604.8 418.8l-4.8 13.7-4.4-13.5s-14.6-.5-14.6-.2 11.6-9 11.6-9l-5.3-15L600 404s12.7-8.7 12.5-8.7-4.8 14.6-4.8 14.6l11.3 8.5-14.2.2zM669.7 215.5l-4.8 13.7-4.5-13.5s-14.6-.5-14.6-.2 11.5-9 11.5-9l-5.3-15c.2.5 12.7 9.4 12.7 9.4s12.6-9 12.4-9-4.8 14.6-4.8 14.6l11.3 8.6-14.3.3zM711.8 338.5l-4.8 13.7-4.4-13.5s-14.6-.4-14.6-.2 11.6-8.8 11.6-8.8l-5.3-15 12.7 9.2s12.7-9 12.5-9c-.2 0-4.8 14.7-4.8 14.7l11.3 8.6-14.2.2zM497.8 342l-4.8 13.7-4.4-13.5s-14.6-.4-14.6-.2 11.6-8.8 11.6-8.8l-5.3-15c.2.4 12.7 9.2 12.7 9.2s12.7-8.8 12.4-8.8-4.8 14.6-4.8 14.6l11.4 8.6-14.2.2zM536.6 217l-4.8 13.6-4.3-13.5s-14.7-.3-14.7 0 11.6-9 11.6-9l-5.2-15c.2.4 12.6 9.3 12.6 9.3s12.7-9 12.5-9-4.8 14.7-4.8 14.7l11.4 8.7-14.3.2zM487.3 262c0-.4 4.8-14 4.8-14l4.5 13.6s14.7.5 14.7.3-11.6 8.7-11.6 8.7l5.2 15-12.7-9.2s-12.6 8.8-12.3 8.8c.2 0 4.8-14.6 4.8-14.6L473 262h14.3zM529 384.7l5-13.7 4.3 13.5s14.7.4 14.7.2-11.6 8.8-11.6 8.8l5.2 15c-.2-.4-12.7-9.2-12.7-9.2s-12.7 8.8-12.5 8.8 4.8-14.5 4.8-14.5L515 385l14-.3zM701.4 258.6l4.8-13.7 4.4 13.4s14.7.4 14.7.2-11.6 8.8-11.6 8.8l5.2 15c-.3-.4-12.8-9.2-12.8-9.2s-12.6 8.8-12.4 8.8 4.8-14.6 4.8-14.6l-11.4-8.6 14.2-.2zM662.5 383.5l4.8-13.7 4.3 13.5s14.7.4 14.7.2-11.6 9-11.6 9l5.2 15c-.3-.5-12.7-9.4-12.7-9.4s-12.7 9-12.5 9 4.8-14.6 4.8-14.6l-11.4-8.6 14.2-.3z" stroke="#000" fill="#006b3f"/><g font-size="12" transform="matrix(1.26072 0 0 1.26072 -21.8 423.7)"><g transform="matrix(.1635 -.01628 .01182 .18436 429.8 -215.6)" stroke="#000" stroke-width="2.5" fill="#006b3f"><ellipse rx="30.8" ry="189.8" transform="matrix(1.40512 -.0058 .00817 .99998 -534.3 263.7)" cy="586.1" cx="680.2"/><ellipse rx="30.8" ry="189.8" transform="matrix(1.48615 -.0058 .00864 .99998 -547.2 267.1)" cy="586.1" cx="680.2"/><ellipse rx="30.8" ry="189.8" transform="matrix(1.18905 -.00642 .0069 1.10525 -364.9 214.1)" cy="586.1" cx="680.2"/></g><g stroke="#000" transform="translate(72.9 -9.8)"><path d="M238.3 971.8c30-1.7 16.7-16.7 31.7-25s36.6-3.3 43.3 6.7 1.6 20 10 20c8.3 0 234.5-12.7 242.8-4.4 8.5 8.4 10 25 1.8 31.7-8.3 6.7-294.5 14.4-304.5 7.7-10-6.6-25-35-25-36.6z" transform="matrix(.20244 .0035 -.00394 .21385 340.9 -247.3)" stroke-width="2.5" fill="#9c4a00"/><path d="M529.6 405.5c0 40 45.6 27.8 46.8 61.2-.7 35.4-76.7 3.5-78.6-61.2 2-64.8 75-98 76.7-61 1.2 30.6-45 21-45 61z" transform="matrix(.148 .00195 -.00275 .1146 340.4 -81.7)" stroke-width="3.9" fill="#fcd116"/><path d="M529.6 405.5c0 40 45.6 27.8 46.8 61.2-.7 35.4-76.7 3.5-78.6-61.2 2-64.8 75-98 76.7-61 1.2 30.6-45 21-45 61z" transform="matrix(.148 .00195 -.00275 .1146 344.4 -81.6)" stroke-width="3.9" fill="#fcd116"/><path d="M529.6 405.5c0 40 45.6 27.8 46.8 61.2-.7 35.4-76.7 3.5-78.6-61.2 2-64.8 75-98 76.7-61 1.2 30.6-45 21-45 61z" transform="matrix(.148 .00195 -.00275 .1146 348.7 -81.8)" stroke-width="3.9" fill="#fcd116"/><path d="M529.6 405.5c0 40 45.6 27.8 46.8 61.2-.7 35.4-76.7 3.5-78.6-61.2 2-64.8 75-98 76.7-61 1.2 30.6-45 21-45 61z" transform="matrix(.148 .00195 -.00275 .1146 352.7 -81.7)" stroke-width="3.9" fill="#fcd116"/><ellipse rx="3.5" ry="3.4" transform="matrix(1.09455 .01648 -.0243 1.15366 -75.6 4.7)" cy="-41.1" cx="478.4" stroke-width=".4" fill="#9c4a00"/></g><g stroke="#000" stroke-width="2.5" transform="rotate(-5.8 688.3 -625.2)"><ellipse rx="20.8" ry="24.1" transform="matrix(.1662 -.00807 .0017 .3152 369.8 -361.7)" cy="905" cx="427.1" fill="#006b3f"/><ellipse rx="20.8" ry="24.1" transform="matrix(.1662 -.00807 .0017 .3152 364 -362.7)" cy="905" cx="427.1" fill="#006b3f"/><ellipse rx="20.8" ry="24.1" transform="matrix(.1662 -.00807 .0017 .3152 360.6 -370.6)" cy="905" cx="427.1" fill="#006b3f"/><ellipse rx="20.8" ry="24.1" transform="matrix(.1599 -.0089 .00162 .34772 369.3 -399.4)" cy="905" cx="427.1" fill="#006b3f"/><ellipse rx="20.8" ry="24.1" transform="matrix(.1599 -.00835 .00162 .32604 377.4 -379.1)" cy="905" cx="427.1" fill="#009543"/><ellipse rx="20.8" ry="24.1" transform="matrix(.1599 -.00835 .00162 .32604 373.2 -382.2)" cy="905" cx="427.1" fill="#009543"/><ellipse rx="20.8" ry="24.1" transform="matrix(.1599 -.00835 .00162 .32604 368 -386.7)" cy="905" cx="427.1" fill="#009543"/><ellipse rx="20.8" ry="24.1" transform="matrix(.1599 -.00835 .00162 .32604 363 -389.5)" cy="905" cx="427.1" fill="#006b3f"/></g><path d="M173.2 346.4S119 411.2 152 555.2C186 699.8 331 745 331 745s26.4-47.5 1.6-164c-40-170-116-234.6-116-234.6H173z" transform="matrix(.1769 .0322 -.03142 .18236 461.8 -208.6)" stroke="#000" stroke-width="2.5" fill="#9461c9"/><g transform="rotate(4.5 181 769.9)" stroke="#000" stroke-width="2.5" fill="#006b3f"><ellipse rx="20.8" ry="24.1" transform="matrix(.1662 -.00807 .0017 .3152 369.8 -361.7)" cy="905" cx="427.1"/><ellipse rx="20.8" ry="24.1" transform="matrix(.1662 -.00807 .0017 .3152 364 -362.7)" cy="905" cx="427.1"/><ellipse rx="20.8" ry="24.1" transform="matrix(.1662 -.00807 .0017 .3152 360.6 -370.6)" cy="905" cx="427.1"/><ellipse rx="20.8" ry="24.1" transform="matrix(.1599 -.0089 .00162 .34772 369.3 -399.4)" cy="905" cx="427.1"/><ellipse rx="20.8" ry="24.1" transform="matrix(.1599 -.00835 .00162 .32604 377.4 -379.1)" cy="905" cx="427.1"/><ellipse rx="20.8" ry="24.1" transform="matrix(.1599 -.00835 .00162 .32604 373.2 -382.2)" cy="905" cx="427.1"/><ellipse rx="20.8" ry="24.1" transform="matrix(.1599 -.00835 .00162 .32604 368 -386.7)" cy="905" cx="427.1"/><ellipse rx="20.8" ry="24.1" transform="matrix(.1599 -.00835 .00162 .32604 363 -389.5)" cy="905" cx="427.1"/></g><ellipse rx="58.3" ry="186.5" stroke="#000" transform="matrix(.15695 -.06063 .06364 .1484 369.6 -145.1)" cy="606.1" cx="624.4" stroke-width="1pt" fill="#d41c30"/><g stroke="#000" transform="rotate(1 242.6 -1957.8)"><ellipse rx="10.8" ry="12.9" transform="matrix(.3953 0 0 .2927 445.1 -230.5)" cy="356.8" cx="218.1" stroke-width="1.5" fill="#009543"/><ellipse rx="10.8" ry="12.9" transform="matrix(.35412 0 0 .2927 457.2 -235.9)" cy="356.8" cx="218.1" stroke-width="1.5" fill="#009543"/><ellipse rx="10.8" ry="12.9" transform="matrix(.35412 0 0 .2927 452 -235.9)" cy="356.8" cx="218.1" stroke-width="1.5" fill="#009543"/><ellipse rx="10.8" ry="12.9" transform="matrix(.3706 0 0 .27478 449.5 -233.5)" cy="356.8" cx="218.1" stroke-width="1.6" fill="#006b3f"/><ellipse rx="10.8" ry="12.9" transform="matrix(.3706 0 0 .27478 448.9 -237.9)" cy="356.8" cx="218.1" stroke-width="1.6" fill="#006b3f"/><ellipse rx="10.8" ry="12.9" transform="matrix(.35412 0 0 .2927 447 -238.9)" cy="356.8" cx="218.1" stroke-width="1.5" fill="#006b3f"/><ellipse rx="10.8" ry="12.9" transform="matrix(.35412 0 0 .28673 448.1 -241.6)" cy="356.8" cx="218.1" stroke-width="1.6" fill="#006b3f"/><ellipse rx="10.8" ry="12.9" transform="matrix(.3953 0 0 .2927 432.8 -243.5)" cy="356.8" cx="218.1" stroke-width="1.5" fill="#006b3f"/><ellipse rx="10.8" ry="12.9" transform="matrix(.3706 0 0 .27478 445.9 -243.5)" cy="356.8" cx="218.1" stroke-width="1.6" fill="#006b3f"/><ellipse rx="10.8" ry="12.9" transform="matrix(.35412 0 0 .28673 444.2 -247)" cy="356.8" cx="218.1" stroke-width="1.6" fill="#006b3f"/><ellipse rx="10.8" ry="12.9" transform="matrix(.35412 0 0 .2927 436.1 -243.2)" cy="356.8" cx="218.1" stroke-width="1.5" fill="#006b3f"/><ellipse rx="10.8" ry="12.9" transform="matrix(.35412 0 0 .28673 437.4 -243.9)" cy="356.8" cx="218.1" stroke-width="1.6" fill="#006b3f"/><ellipse rx="10.8" ry="12.9" transform="matrix(.35412 0 0 .28673 439 -247)" cy="356.8" cx="218.1" stroke-width="1.6" fill="#006b3f"/></g><g stroke="#000" fill="#006b3f" transform="matrix(.1796 -.00452 .0042 .18512 421 -216.8)"><ellipse rx="67.4" ry="205.6" transform="matrix(.97574 -.30793 .36305 .87448 -245.8 324.4)" cy="564.5" cx="528.7" stroke-width="2.5"/><ellipse rx="13.3" ry="40.8" transform="rotate(-23.4 630.5 660.8)" cy="646.1" cx="528.7" stroke-width="2.5"/><path d="M140 644c0 57.7-19 86.2-34.7 110.3 7.5-32.5 13-52.6 13-110.3s29.5-85.3 40.3-102c-4.2 16.6-18.7 44.3-18.7 102z" transform="matrix(1.88282 -.45598 .95342 1.1822 -352.3 -10)" stroke-width="1.5"/><path d="M140 644c0 57.7-19 86.2-34.7 110.3 7.5-32.5 13-52.6 13-110.3s29.5-85.3 40.3-102c-4.2 16.6-18.7 44.3-18.7 102z" transform="matrix(1.88282 -.45598 .95342 1.1822 -348.4 44.1)" stroke-width="1.5"/><path d="M140 644c0 57.7-19 86.2-34.7 110.3 7.5-32.5 13-52.6 13-110.3s29.5-85.3 40.3-102c-4.2 16.6-18.7 44.3-18.7 102z" transform="matrix(1.87302 -.49468 .97758 1.1623 -361.9 105.8)" stroke-width="1.5"/><ellipse rx="13.3" ry="40.8" transform="matrix(1.81048 -.4005 .69907 1.6353 -915.6 -221)" cy="646.1" cx="528.7" stroke-width="1.4"/><ellipse rx="13.3" ry="40.8" transform="matrix(1.62567 -.23068 .54158 1.35284 -739.5 -91.8)" cy="646.1" cx="528.7" stroke-width="1.6"/><ellipse rx="13.3" ry="40.8" transform="matrix(1.63044 -.1972 .5125 1.36353 -750.6 -91.8)" cy="646.1" cx="528.7" stroke-width="1.6"/><ellipse rx="13.3" ry="40.8" transform="matrix(1.31445 -.2006 .4689 1.01012 -531.1 47.6)" cy="646.1" cx="528.7" stroke-width="2.1"/><ellipse rx="13.3" ry="40.8" transform="matrix(1.32578 -.13044 .40342 1.03274 -517.9 12.2)" cy="646.1" cx="528.7" stroke-width="2.1"/><path d="M145.7 569.5c0 34-6.7 61.6-15 61.6s-15-27.5-15-61.5" transform="matrix(1.02543 -.49277 .46438 1.17733 12.8 -14.5)" stroke-width="2.1"/><ellipse rx="13.3" ry="40.8" transform="matrix(1.32578 -.13044 .40342 1.03274 -519.5 -34.4)" cy="646.1" cx="528.7" stroke-width="2.1"/><ellipse rx="13.3" ry="40.8" transform="matrix(1.32875 -.1051 .37955 1.04 -534 -40.1)" cy="646.1" cx="528.7" stroke-width="2.1"/><path d="M145.7 569.5c0 34-6.7 61.6-15 61.6s-15-27.5-15-61.5" transform="matrix(.6722 -.47182 .45894 .7991 39.5 143.3)" stroke-width="2.9"/><path d="M145.7 569.5c0 34-6.7 61.6-15 61.6s-15-27.5-15-61.5" transform="matrix(.6722 -.47182 .45894 .7991 51.1 125.8)" stroke-width="2.9"/><path d="M145.7 569.5c0 34-6.7 61.6-15 61.6s-15-27.5-15-61.5" transform="matrix(.9374 -.64468 .64 1.09186 -40.2 -10.7)" stroke-width="2.1"/><path d="M145.7 569.5c0 34-6.7 61.6-15 61.6s-15-27.5-15-61.5" transform="matrix(.6722 -.52022 .45894 .88108 68.6 71.2)" stroke-width="2.7"/></g><g stroke="#000" stroke-width="2.5" fill="#9461c9"><path d="M276.3 345.4c-12.3 9.2.4 25.2 12 30.7 13 7.8 86.6 58.3 136.3 12-40.8 1-118.7-63-148.3-42.6z" transform="matrix(.15614 .0074 -.00415 .22464 458 -214.3)"/><path d="M276.3 345.4c-12.3 9.2.4 25.2 12 30.7 13 7.8 86.6 58.3 136.3 12-40.8 1-118.7-63-148.3-42.6z" transform="matrix(.15614 .0074 -.00415 .22464 456.6 -220.2)"/><path d="M276.3 345.4c-12.3 9.2.4 25.2 12 30.7 13 7.8 86.6 58.3 136.3 12-40.8 1-118.7-63-148.3-42.6z" transform="matrix(.15614 .0074 -.00415 .22464 454.8 -225.8)"/><path d="M276.3 345.4c-12.3 9.2.4 25.2 12 30.7 13 7.8 86.6 58.3 136.3 12-40.8 1-118.7-63-148.3-42.6z" transform="matrix(.15614 .0074 -.00415 .22464 450.9 -232.2)"/></g><g transform="rotate(1 -589.7 681.6)"><path d="M211.2 247.3c21.7-12 56.6-9.8 79.7 11.2 19.3 17 45.2 75.2 70.2 92.8-20.2 0-31.3-5.8-42.2-15.2-28.8 15.6-38 16.8-64 15.8-35.8-1.4-62.4-17.7-68-40.7-6.3-21.7 4.8-52.4 24.2-63.7z" transform="matrix(.20883 -.0409 .0473 .1806 407.8 -213.6)" stroke="#000" stroke-width="2.5" fill="#9461c9"/><ellipse rx="14.2" ry="15" stroke="#000" transform="matrix(.2452 0 0 .13433 401.8 -215.2)" cy="323" cx="287.2" stroke-width="2.5" fill="#d41c30"/><ellipse rx="23.3" ry="15.9" stroke="#000" transform="matrix(.19364 -.076 .0676 .17273 398.7 -208.1)" cy="348.3" cx="204.6" stroke-width="2.5" fill="#fcd116"/><ellipse rx="5.8" ry="5.8" transform="matrix(.21412 0 0 .18518 411.3 -233.7)" cy="333.9" cx="283.9"/><path d="M516.8 260.3c4.4 18-6.7 43-33 52.6-27 13-46.2 41.7-55.8 88-47.2-103.3-23-148.4 20.6-160.4 37.4-14.4 60.4-13.4 68.2 19.7z" transform="matrix(.0923 .0009 -.0034 .08482 417.9 -191.5)" stroke="#000" stroke-width="6.6" fill="#fcd116"/><ellipse rx="4.7" ry="4.7" transform="matrix(.18697 -.01313 .014 .19143 418.7 -235)" cy="362.4" cx="199"/></g></g></svg>