<svg xmlns="http://www.w3.org/2000/svg" height="600" width="900" xmlns:xlink="http://www.w3.org/1999/xlink"><defs><clipPath id="j"/></defs><path fill-rule="evenodd" d="M0 300h900v300H0z"/><path fill-rule="evenodd" fill="#ce1126" d="M0 0h900v300H0z"/><path fill-rule="evenodd" fill="#fff" d="M0 200h900v200H0z"/><path stroke-linejoin="round" d="M450 393.8c20 0 39-1.6 50.2-4.7 4.7-.8 4.7-3.2 4.7-6.4 4.7-1.6 2.2-7 5.5-7-3.3.7-4-5.7-8-5 0-5.5-5.6-6.2-10.3-4.6-9.5 3-26.3 4-42.2 4-16-1-32.6-1-42.2-4-4.7-1.6-10.3-1-10.3 4.7-4-.8-4.7 5.6-8 4.8 3.3 0 .8 5.5 5.6 7 0 3.3 0 5.7 5 6.6 11 3.2 30 4.8 50 4.8z" fill-rule="evenodd" stroke="#c09300" stroke-linecap="round" stroke-width="2.4" fill="#fff"/><path stroke-linejoin="round" d="M450.8 302.4l68.5 63.6-5-115.5c-.6-17.5-15.8-13.5-26.8-7.2-11.2 7.2-24 7.2-37.5 2.5-13.5 4.7-26.2 4.7-37.4-2.5-11-6.3-26.3-10.3-27 7.2l-5 115.5 70.2-63.6z" fill-rule="evenodd" stroke="#c09300" stroke-linecap="round" stroke-width="1.3" fill="#fff"/><use fill-rule="evenodd" xlink:href="#a" transform="matrix(-1 0 0 1 900 0)" height="600" width="900"/><path d="M453.2 315l9.6 43.8-3.2 3.2-3.3-2.5-5.4-39 2.2 39-3.2 4-3.2-4 2.3-39-5.3 39-3.3 2.5-3.2-3.2 9.6-43.7h6.4z" fill-rule="evenodd" stroke="#c09300" stroke-linecap="square" stroke-width="1.1" fill="#c09300"/><path id="b" d="M393.5 246.5l-4.8 112.3-8 7.2 5-115.5c2.2-1.6 6.2-4 7.8-4z" fill-rule="evenodd" fill="#c09300"/><path id="c" d="M403 254.5l-4 94-8 8.2 5-108.5c1.5 1.6 6.2 5.5 7 6.3z" fill-rule="evenodd" fill="#c09300"/><path id="d" d="M411.8 261.7l-3 78.4-6.6 6.4 4-89.4c1.6 1.5 4.8 3.8 5.6 4.7z" fill-rule="evenodd" fill="#c09300"/><path id="e" d="M421.3 265.7l-3 66.8-6.5 5 3.2-74.2c1.6.7 4.7 2.4 6.3 2.4z" fill-rule="evenodd" fill="#c09300"/><path id="a" d="M430 265.7l-2.2 55.7-6.5 6.3 2.4-61.3c1.6 0 5.6 0 6.4-.7z" fill-rule="evenodd" fill="#c09300"/><use fill-rule="evenodd" xlink:href="#b" transform="matrix(-1 0 0 1 900 0)" height="600" width="900"/><use fill-rule="evenodd" xlink:href="#c" transform="matrix(-1 0 0 1 900 0)" height="600" width="900"/><use fill-rule="evenodd" xlink:href="#d" transform="matrix(-1 0 0 1 900 0)" height="600" width="900"/><use fill-rule="evenodd" xlink:href="#e" transform="matrix(-1 0 0 1 900 0)" height="600" width="900"/><path stroke-linejoin="round" d="M428.5 295.8l-19 67.7 26.2 4 11-51-18.2-20.7zM471.5 295.8l19 67.7-26.2 4-11-51 18.2-20.7z" fill-rule="evenodd" stroke="#c09300" stroke-linecap="round" stroke-width="1.2" fill="#fff"/><use fill-rule="evenodd" xlink:href="#f" transform="matrix(-1 0 0 1 900 0)" height="300" width="218"/><use fill-rule="evenodd" xlink:href="#g" transform="matrix(-1 0 0 1 899.8 0)" height="300" width="218"/><path id="f" stroke-linejoin="round" d="M422.2 319l2.3 5.5 12.4-11.8" stroke="#c09300" stroke-linecap="round" stroke-width="1.3" fill="none"/><path id="i" stroke-linejoin="round" d="M430.8 305l2.6 24.3 7.8-10.4" stroke="#c09300" stroke-linecap="round" stroke-width="1.3" fill="none"/><path id="k" stroke-linejoin="round" d="M438 323l4.4 14.8" stroke="#c09300" stroke-linecap="round" stroke-width="1.3" fill="none"/><path id="g" stroke-linejoin="round" d="M444 332.4l-8.6 13.2m2.7 13.2l-2.7-13.2-2.4-13.4-6 8-2.5-9.2-8.2 8.4 4 15.2 6-9.4 3 9.6 6-9.2" stroke="#c09300" stroke-linecap="round" stroke-width="1.3" fill="none"/><path id="h" stroke-linejoin="round" d="M415 362l5.3-7.5 3.4 11.5 4.8-8 3 9.6" stroke="#c09300" stroke-linecap="round" stroke-width="1.3" fill="none"/><use fill-rule="evenodd" xlink:href="#h" transform="matrix(-1 0 0 1 900.2 0)" height="300" width="218"/><path stroke-linejoin="round" d="M423 363.5c6.3 1 13.5 1.6 19 1 3.3 0 5.6 5.4-.7 6.2-5.6.7-14.4 0-19-.8-4-1-13-2.4-18.5-4-5.6-2.5-1.6-7.2 1.6-6.5 5 1.6 11.2 3.2 17.5 4zM477 363.5c-6.3 1-13.5 1.6-19 1-3.3 0-5.6 5.4.8 6.2 5.6.7 14.3 0 19-.8 4-1 12.8-2.4 18.4-4 5.6-2.5 1.6-7.2-1.6-6.5-5 1.6-11.2 3.2-17.5 4z" fill-rule="evenodd" stroke="#c09300" stroke-linecap="round" stroke-width="1.3" fill="#fff"/><path stroke-linejoin="round" d="M403 360.4c-4.8-1-7 4.7-5.5 8 .7-1.7 4-1.7 4.7-3.3 1-2.3-.7-2.3 1-4.6zM422.2 375c0-3 3-2.7 3-6 0-1.4-.7-4-2.3-4-1.7 0-3.3 1.7-3.3 3.3-.7 3 2.5 3.6 2.5 6.8zM445 366c4.6 0 4 6.3 1.8 9.4 0-2.2-4-3-4-4.7 0-2.4 3.7-2.4 2-4.7zM497 360.4c4.8-1 7 4.7 5.5 8-.7-1.7-4-1.7-4.7-3.3-1-2.3.7-2.3-1-4.6zM477.8 375c0-3-3-2.7-3-6 0-1.4.7-4 2.3-4 1.7 0 3.3 1.7 3.3 3.3.7 3-2.5 3.6-2.5 6.8zM455 366c-4.6 0-4 6.3-1.8 9.4 0-2.2 4-3 4-4.7 0-2.4-3.7-2.4-2-4.7z" fill-rule="evenodd" stroke="#c09300" stroke-linecap="round" stroke-width="1.3" fill="#fff"/><path stroke-linejoin="round" d="M404.7 362c1.6 0 4 .7 4.7 1.5l-4.7-1.5zM412.6 364.4c.8 0 4 .7 5.5 1.6l-5.5-1.6zM441.3 367.6c-1.6 0-4.8 0-5.6.7l5.6-.7zM432.5 367.6c-1-1-4-1-5.6 0h5.5z" stroke="#c09300" stroke-linecap="round" stroke-width=".9" fill="none"/><path stroke-linejoin="round" d="M495.3 362c-1.5 0-3.8.7-4.7 1.5l4.7-1.5zM487.4 364.4c-.8 0-4 .7-5.5 1.6l5.4-1.6zM458.8 367.6c1.5 0 4.7 0 5.5.7l-5.6-.7zM467.5 367.6c1-1 4-1 5.6 0h-5.5z" fill-rule="evenodd" stroke="#c09300" stroke-linecap="round" stroke-width=".9" fill="#fff"/><use fill-rule="evenodd" xlink:href="#i" transform="matrix(-1 0 0 1 900.1 0)" height="300" width="218"/><path d="M450 327.2c32.6-25 29.8-62 29.8-62-.8.3-1.7.4-2.5.4-7 0-23.2-4-27-9-4 4.6-20.8 9-27.6 9-.8 0-1.7 0-2.5-.3 0 0-3 36.8 29.8 62z" fill-rule="evenodd" stroke="#c09300" stroke-width="1.2" fill="#fff"/><path fill-rule="evenodd" fill="#fff" d="M477.2 268h-.8c-6.2 0-20.6-3-26.2-8-5.8 4.5-20.5 8-26.6 8h-.8v4c.4 5 1.3 10 2.6 14.7 4 15 12.5 27.5 24.6 37 12-9.5 20.5-22 24.6-37 1.3-4.8 2-9.7 2.5-14.6.2-1.2.2-2.6.2-4z"/><g fill-rule="evenodd" transform="matrix(0 0 0 0 378.6 202.8)" clip-path="url(#j)"><g fill="#c09300"><path d="M3255500 11376000V4258600h2064000v7117400zM7124200 11376000V4258600h2173700v7117400z"/></g></g><use fill-rule="evenodd" xlink:href="#k" transform="matrix(-1 0 0 1 899.7 0)" height="300" width="218"/><path d="M403.3 374.6c-.5 0-.8-.5-.6-1 0-.7.6-1 1-.8.4 0 1 .6 1 .8 0 .2-.4.8-.5.8h-.2c0 .2-.4.2-.7.2zm55 4c-.2-.2-.5-.6-.5-.8 0-.4.5-1 1-1l.7.4c.3.3.3 1 0 1.2-.3.2-1 .2-1.2 0zm.3 2.4c-.4-.2-.5-.4-.6-.8 0-.5 0-.6.5-1h.7c.4.3.7.5.7 1 0 .2-.3.6-.7.7h-.7zm-54.2-3c.2-.3.2-.5 0-.6h-.6c-.3.2-.3.3-.3.4 0 .2 0 .2.6.3h.4zm8.4 4.3l-1.2-.3-3.2-.7s-.5 0-.7-.2c-.4 0-.6 0-1.3-.3l-1.2-.3c-.4 0-1-.2-1-.3h-.5s-.3 0-.4-.2h-.7c-.6-.2-1-.4-1.2-.7-.2-.2-.2-.4 0-.8v-.4l.2-.2.2-.2.5-.8c.3-.3 1-.6 1.2-.6h.4c0-.2.2-.3.6-.3h.5l.3-.4.2-.6v-.4c.2 0 .3-.4.3-.6l.5-1.5v-.5l-.5-.2c-.2 0-.6 0-.8.2-.2.3-.6.5-.8.5-.4 0-.8-.3-1-.6v-.5s.2-.3.4-.3h1.3c0 .2 0 .2.5.2l.5-.3h.4l.4-.2.3-.2h.4c0-.2.2-.2.3-.2.2 0 .3 0 .4.3.2.2.2.3 0 .7v.7l-.3.6v.4c-.2 0-.3.3-.3.4v.3l-.3.6v.5s0 .3-.2.5v.4c-.2 0-.2.2-.2.3 0 .2 0 .4-.2.5v.7c-.2 0-.2.3-.3.4v.5s0 .3-.2.4v.4c.3.3 1 .5 1.6.5.5 0 .5 0 .7-.3.2 0 .3-.3.4-.5v-.6c.2-.2.2-.5.2-.7 0-.4 0-.4-.3-.6-.2-.2-.2-.2 0-.4 0-.2.3-.3.6-.3l.2-.2s.3 0 .4-.2c0 0 .2 0 .4-.3.3-.3.5-.3.7 0v1.2l-.2.4-.2.4c0 .2 0 .4-.2.6v.6s0 .4-.2.6c-.2.4 0 .6 0 .7h.4l.5.2h.6c.2.2.6.3.8.3.6 0 .6 0 .8-.2.2 0 .3-.4.3-.6l.3-.6c0-.2 0-.5-.3-.7-.4-.4-.3-1 .3-1 .2 0 .8-.2 1-.4.5-.5.7-.6 1-.5.2.2.3.5.2.7l-.2.6-.3 1-.2 1-.3 1v.6l-.3.5c-.2.5-.6.6-1.4.3zm-9.7 0c-.4-.4-.3-.7.4-1.3.4-.2.5-.2 1 0 .5.6.5 1 0 1.4-.2.2-.4.2-.6.2-.3 0-.4 0-.7-.2zm3.2 1c-.5 0-.8-.6-.7-1 .2-.5.3-.6 1-.6.6 0 .7 0 .8.8 0 .3 0 .4-.2.6-.2.2-.6.4-.8.3zm89 0s-.2-.2-.2-.5c0-.4.2-.7.7-1 .7-.2 1-.2 1.3.3.3.7.3 1 0 1.3-.3.3-.4.3-1 .3-.4 0-.5 0-.7-.2zm-85 1.2c-.3 0-.5-.4-.5-.8 0-.3 0-.4.2-.6h1.1c.6.4.7.8.4 1.2-.3.4-.6.5-1.2.3zm22 1l-.3-.2v-.7-.8l.2-1v-.7l.3-1.3v-1.3c.2 0 .2-.3.2-.6v-.8c.2-.3.3-.8.3-1.2v-1-.4l.5-.5s.2 0 .3.2l.7.8c1 1 1 .8.6 1 0 .2 0 .3-.2.3l-.3.2-.2.6v.8c-.2.2-.3 1.2-.3 2.2v.5l-.2 1.2v1.2s-.2 0-.2.2c0 .6 0 1.2-.3 1.3 0 .2-.2.2-.5.2s-.4 0-.7-.2zm29-.7h.4v-.8h-.9c-.3.4-.3.7 0 .8h.5zm-2.3 1.6c-.2-.2-.3-.3-.2-.7v-1l.2-.5v-.4c0-.2.2-.3.4-.5 0-.2.3-.4.3-.4 0-.2.6-.6.7-.6l.2-.2h.3l.3-.3c.2-.3.2-.3.2-1v-1c-.2 0-.2-.3-.2-.3v-1c0-.6 0-.7-.3-1h-.3l-.4-.6 1.5-1.3c.3 0 .6 0 .7.3v1l.2 1c0 .4 0 1 .2 1.8v1.5s0 .7.2 1.3v1.4c.2.5 1 1 1.3.6h.7c.7-.3.8-.3.7-1.3-.2-.8-.2-1-.4-1 0-.2-.2-.4-.3-.4-.3 0-.4-.3-.4-.6l.5-.6.5-.3c.5-.4.7-.4 1 0 .2 0 .2.2.2 1 0 1 0 1.2.2 1.4 0 0 .2.3.2.8v1c.2.3.2.3 0 .5v.4c0 .2-.2.3-1 .3h-.8l-1 .2c-1.5 0-3.7.2-3.8.3h-2zm-34-6c.3 0 .4-.3.2-.3-.3 0-.5-.3-.5-.7 0-.6-.3-.7-1 0l-.4.4-.3.2h.2c.3.4.7.5 1.2.6.4 0 .6 0 .7-.2zm2.5 7.2c-.2 0-.2 0-.2-.2l-1-.5v-.3s0-.4-.2-.6v-.8c.2 0 .2-.3 0-.4l-.6-.2c-.7 0-.8 0-1-.3-.2 0-.3-.2-.3-.6v-.6h-.6-.2c-.2 0-.3.2-.3.3l-.4.5c-.2.2-.2.2-.7.2h-.8c-.3-.2-.6-.2-1.4-.3-1.2 0-1.8 0-1.8.3-.2.4-1 1.2-1.5 1.3h-.7c0 .2-.3.2-.3.2h-1c-.8-.2-1-.4-1-.7 0 0 .4-.4.6-.3h.7l.4-.2c.3 0 .5 0 .6-.2h.3s.2 0 .3-.3l.3-.5v-.2c.2-.2.3-.3.3-.5-.2 0 0-.4 0-.6v-1l-.4-.5v-.3c-.3-.3 0-.7.4-1.2v-.4l.6-.4c.2 0 .6.4.6.6v.4c.2 0 .2.4.3.8 0 .7.2 1.4.3 1.6 0 .3.4.6.7.6h.6l1 .2c.4 0 .4 0 1-.5 0-.3.3-.5.3-.6 0-.3-1-.8-1.7-1-.3 0-.5-.3-.4-.6 0-.3.4-.8.7-1l1-.4.7-.2.2-.4c.3-.8 1-1.4 1.8-1.4.3 0 .4 0 .6.3l.3.4.5 1.2v.7c.2 0 1.3 1 1.4 1v.2c.2 0 .3.5.3 1 0 .4-.2.5-1 .5h-1l-.3.2v.3c0 .5 0 .7.6.8l.6.2c.2 0 .4 0 .5.2v2H428.2c.2.3.4.2.5 0 0 0 0-.3.2-.4v-1c0-.6 0-1 .2-1.3 0-.2 0-.7.2-1v-1c.2-.2.2-.6.2-1 0-1 0-1 .2-1.2v-2l-.2-.2c-.2 0-.3-.3-.3-.4 0-.4 0-.4.4-.6.2 0 .5 0 .7-.2l.4-.2c0-.2.5-.4.6-.4h.2c.2.3.2 1 0 1.3v1.3c-.2.2-.3 1-.3 1.6l-.2 1.3v1.6c-.2.3-.2 1-.3 1.3v1l-.3.6c0 .2 0 .5-.2.7v.4c0 .2-.5 1-.6 1h-.2s0 .2-.3.2c0 0-.2 0-.3.2-.2.2-1 .3-1.2.2zm63-5.7c.5-.3.7-.5.5-1-.2-.2-.4-.3-.8-.2-.4 0-.8.3-.8.6 0 .2 0 .3.4.4 0 .2.3.2.3.3h.6zm-6 0c.4-.2.4-.2.4-.5s-.4-.7-.8-1c-.5-.2-.6-.2-.8 0-.2.3-.2.4 0 .7v.4c0 .2.5.5.7.5h.6zm-2.6.2v-.6c0-.3-.2-.5-.4-.6-.3-.2-.4-.2-.7 0-.3.3-.3.4-.4.8 0 .6 0 .6.8.6.5 0 .5 0 .5-.2zm-6 1c.2 0 .3-.2.2-.5 0-.5-.7-.6-1-.2v.3h-.3V383.5h1zm9.4 1c.2-.2.3-.4 0-.6 0-.2-.5-.2-1 0-.2 0-.3.2-.3.4l.3.2h1zm-11.6 3.4v-.5h.7c0-.2.3-.3.5-.3.6 0 1.3-.7 1.3-1.3v-.3s-1.4 0-2 .2c-.3 0-.4 0-.6-.2l-.2-.2v-2l.2-.5.5-.6c0-.2.2-.3.2-.3l.4-.3 1.2-.6h.3c0-.2 0-.2.3-.2 0 0 .2 0 .4.3l.2.5v.5c.2.2.3.5.3.7v.5c.2 0 1.2.2 1.3 0l.2-.6v-.8l.3-.5c0-.3.6-1.2 1-1.4.2 0 .3-.2.4-.3h.3c.2-.2.2-.3.2-.6s-.2-.6-.7-1l-.2-.3.6-1 .2-.3.3-.2c.2-.2.3-.2.4 0 0 0 .2 0 .4.7l.3 1.5v.5l1 .3c.2 0 .6 0 .7.2h.4l.6.6.8 1.2c.4.7.4.7 1 .7.5 0 .6 0 .7-.2v-.4c0-.2.3-.5.7-1 .2 0 .4-.2.5-.3l.8-.5s.4 0 .8.3l1 .7c.3.5 1 .7 1.5.4h.2v-.2l-.3-1v-.7l-.4-.8-.2-1c0-.4 0-1-.2-1.2v-.7c0-.6-.6-1.3-1-1.5h-.4c-.3-.3-.6-.3-.8 0h-.3c-.2 0-.7.4-.7.6h-.3c-.2 0-.3 0-.5-.3l-.2-.2s0-.2-.3-.4-.3-.3-.3-.5c0-.3 0-.4.2-.4v-.2h.3l1-.3h2.6c0 .2.2.2.3.3.3 0 1 .6 1 1l.2.2s0 .2.2.3v.5c.2.2.3 1 .4 2l.4 1.4c0 .2 0 .5.2.8l.2.7.2.2c0 .3.7.8 1.2.8.4 0 1-.3 1.3-.6l.6-.4c.3 0 .6 0 .7.3.2.2.4.5.7.6.4.3.5.6.4.8h-.2l-.6.3-.5.3s-.5 0-1 .3l-1.7.4-2.3.7h-.3c-.6.2-.6.2-.6.4 0 .5-.8 1.2-1.3 1.5-.4 0-.4.2-1.3.2h-1l-.3-.3c0-.2 0-.3-.2-.4-.3-.2-.5-.2-1.2 0h-.2v1.8c-.2 0-.3 0-.3.2l-.4.5-.7.6c-.4.4-.7.4-1 .2h-.2c-.3 0-.8-.4-1.2-.6-.2-.2-.7-1-.7-1.2l-.2-.2H480l-1 .3s-.4 0-.5.2c-.5 0-.6.2-.6.7l-.2.5h-.2c0 .4-.7 1-1 1.2-.3 0-.6.3-.8.3-.2.2-.4.2-1 .2h-1zm-6 .7v-.3s.3-.3.5-.3l1.3-.8.4-.6s0-.3.2-.4c.2-.2.2-.3.2-1s0-1-.3-1.3c0-.2-.5-.6-1-.8-.3-.2-.4-.5-.2-.8l.4-1 .5-.7c0-.3.4-.3.7 0l.5 1v.2c.2 0 .6.7.6 1l.2.3.2.7v.6c.3.4.2 1.8 0 2.2l-.2.4h-.3c-.2.5-1 1-1.2 1 0 0-.2 0-.2.2l-1 .2h-1zm-6.8.4c-.2-.2-.3-.3-.3-.6 0 0 0-.2.3-.4.4-.5.6-.5 1.4 0 .7.3 1 .3 1 0 0-.2.5-.5 1-.5.2 0 .3.2.5.3.2.2.2.3.2.7 0 .5 0 .5-.3.8l-.8.2c-.4 0-.7-.3-.8-.6 0-.3 0-.3-.2 0h-.2c-.2 0-.5.3-.8.5h-.5c-.4 0-.4 0-.7-.3zm-6.3-4h.2l-.3-.6c0-.2 0-.2-.2-.2l-.8.4c-.2.2-.2.5-.2.6.2.2.7.2 1.2 0zM449 387v-3c-.3-.2-.4-.2-1.8-.2-.8 0-1.6 0-1.7-.2H444c-1-.2-2 0-2.2.4v.4l.3.3h.7c.2.2.7.2 1 .2h3.3c.4 0 .7 0 .8.2h.2v1.6l.7.4.2-.2zm-.7 2.3l-.4-.2c-.6 0-1-.4-1.2-.8-.2-.2-.3-.8-.3-1 0-.3 0-.3-.2-.3-.5-.3-1.8-.4-2.8-.4l-2.5-.2c-1.6-.2-2.3-.2-2.5 0l-.2.4-.4.7-.4.4h-.3c-.2.3-.6.6-.8.6l-.3.2c-.3.2-2.2.2-2.5 0h-.4-.4c-.2-.2-.2-.3 0-.5 0-.2.2-.3 1.2-.3.5 0 .7 0 1-.2.3-.2 1-.6 1-.8h.2l.2-.5c0-.2 0-.4.2-.6l-.2-1.4c-.2-.8-.4-1-.7-1.3-.5-.3-.5-.5 0-1 .2-.2.5-.5.6-.8.3-.3.3-.4.5-.3.3 0 .4 0 .6.4l.6 1.5v.5c.2 0 .3.3.3.5.2.3.2.4.8.4.7 0 .7 0 .8-.8 0-.4 0-.7.2-.7v-.3l-.4-1.3v-.8l.3-.3c.2 0 .3 0 .5-.2.4-.2 1-.3 1.2 0 .2 0 .2 0 .2.7 0 .6 0 .7.2.8l.4.2h.3c0 .2.3.2 1.5.2H449.3c1 .2 1 .2 1.2.4l.2.2v1c0 1 0 1.2.6 1.2.4 0 .5 0 .6-.6v-.5s0-.2.2-.3c0-.3.7-1 1-1h.2c0-.2.3-.3.4-.3.5 0 1-.2 1.3-.3l.6-.2c.2 0 .3 0 .5.2s.3.3.3 1.3c0 .4 0 1 .2 1v1l.2 1-.3.3-.2.3H451c-.2.2-.3.3-.3 1v.3c-.2 0-.3 0-.3.2s-.5.5-1 .6l-.2.2-.8.4z" fill-rule="evenodd" fill="#c09300"/><path d="M477.2 268h-.8c-6.2 0-20.6-3-26.2-8-5.8 4.5-20.5 8-26.6 8h-.8v4c.4 5 1.3 10 2.6 14.7 4 15 12.5 27.5 24.6 37 12-9.5 20.5-22 24.6-37 1.3-4.8 2-9.7 2.5-14.6.2-1.2.2-2.6.2-4z" stroke="#c09300" stroke-width=".9" fill="none"/></svg>