<svg xmlns="http://www.w3.org/2000/svg" width="1000" height="500" viewBox="0 0 1000 500"><path d="M0 0v500h1000V0z" fill="#68bfe5"/><path fill="#002868" d="M0 0h500v250H0z"/><path d="M0 0v28l444 222h56v-28L56 0H0z" fill="#fff"/><path d="M500 0v28L56 250H0v-28L444 0h56z" fill="#fff"/><path d="M208.3 0v250h83.4V0h-83.4z" fill="#fff"/><path d="M0 83.3v83.4h500V83.3H0z" fill="#fff"/><path d="M0 100v50h500v-50H0z" fill="#ce1126"/><path d="M225 0v250h50V0h-50z" fill="#ce1126"/><path d="M0 250l166.7-83.3H204L37.2 250H0zM0 0l166.7 83.3h-37.3L0 18.6V0zM296 83.3L462.8 0H500L333.3 83.3H296zM500 250l-166.7-83.3h37.3L500 231.4V250z" fill="#d21034"/><path d="M649 120v171c0 55.8 101 89 101 89s101-33.2 101-89V120z" fill="#fff"/><path d="M736 185v72h-87v28h87v89.6l14 5.4 14-5.4V285h87v-28h-87v-72z" fill="#d21034"/><path d="M649 120h202v66H649z" color="#000" fill="#d21034" overflow="visible"/><path d="M665.2 151c6.3 0 11.3 4 11.3 9.2 0 5-5 9-11.3 9-6.3 0-11.4-4-11.4-9s5-9.2 11.4-9.2z" fill="#fff"/><path d="M653.5 160.2c0 5.2 5.2 9.4 11.7 9.4 6.4 0 11.7-4.2 11.7-9.4s-5.4-9.5-11.8-9.5c-6.5 0-11.7 4.3-11.7 9.5zm.7 0c0-5 5-8.8 11-8.8s11 4 11 8.8c0 4.8-5 8.8-11 8.8s-11-4-11-8.8z"/><ellipse transform="translate(524.3 -13.2)" cx="140.9" cy="168.6" rx="10.1" ry="5.1" fill="#fff"/><path d="M654.8 155.4c0 3 4.5 5.5 10.4 5.5 5.8 0 10.4-2.5 10.4-5.6 0-3-4.6-5.4-10.4-5.4-6 0-10.4 2.4-10.4 5.4zm.6 0c0-2.6 4.4-4.7 9.8-4.7s9.7 2 9.7 4.7-4.4 4.8-9.8 4.8c-5.3 0-9.8-2.2-9.8-4.8z"/><path d="M665.2 160.5c5.6 0 10 2.3 10 5 0 3-4.4 5.2-10 5.2s-10-2.2-10-5c0-3 4.4-5.2 10-5.2z" fill="#fff"/><path d="M654.8 165.6c0 3 4.5 5.5 10.4 5.5 5.8 0 10.4-2.3 10.4-5.4 0-3-4.6-5.4-10.4-5.4-6 0-10.4 2.4-10.4 5.4zm.6 0c0-2.6 4.4-4.7 9.8-4.7s9.7 2 9.7 4.6c0 2.7-4.4 4.8-9.8 4.8s-9.8-2-9.8-4.8z"/><ellipse transform="translate(524.3 -13.2)" cx="140.9" cy="173.3" rx="10.1" ry="5.1" fill="#fff"/><path d="M654.8 160.2c0 3 4.5 5.4 10.4 5.4 5.8 0 10.4-2.4 10.4-5.4 0-3-4.6-5.5-10.4-5.5-6 0-10.4 2.4-10.4 5.5zm.6 0c0-2.7 4.4-4.8 9.8-4.8s9.7 2 9.7 4.8c0 2.6-4.4 4.7-9.8 4.7s-9.8-2.2-9.8-4.8z"/><path d="M846 173l-1.6-4.7s-4.6-2-5-4.3c-.7-6.4-3-8.8-6.4-9.7-3.5-1-5.8.6-5.8.6-1 1.4-6.2 1.4-9 1.5-3 0-3-1.3-3-1.3-2.2 0-3-1.6-3-1.6-1.5-3-2.6-4-3.3-4.3 3.6 0 6.4-1.7 10.6-6 4.5-5 7.8-3 7.8-3-2.2 4.4.7 4 .7 4 6.2-3 1-10.8-1-10.5-1.7.4-2.2-1-2.2-1 0 1.5-2 2-2 2 1.5-8.8-3.8-11.2-3.8-11.2-.8.8-1.3 2.4-1.3 2.4-1.5 5.4-6.4 4.6-12 2-5.4-2.7-20 2.7-24.6 4.6-4.5 1.8-13 4.7-20.4.4-7.6-4.2-9.4-3.4-12.4-2.6-3 .8-8.2 2-10.2 1s-4-1-4-1c.4-.4-.4-1.6-.4-1.6-2.3-3 .3-5 .3-5s-4.4 1.2-2.7 8.5l.8 1s.7 2.3 2 3v.5s1-.5 1.3 1c.3 1.5 2 0 2.6-1 0 0-1.2 6.5 7 8 0 0-1-1-.6-1.6.4-.7-1-1.3-1-2.3.2-1-2-1.6-.2-2.4 1.7-.8 2.5-2.4 6.2-.2 3.6 2.2 6.5 1.7 6.5 1.7s-2.3-4.5-1-4.5c1 0 6.7 7 9.4 6.5 2.7-.3 8-3.4 10.6-2.2 0 0 .2-1.4 10.3-3 10-1.8 22.5-7 27.2-2.5 0 0 .5 3.5 2.5 4.4 0 0-.4 7.2-12.8 3.2l-4.6-1.3s-.7-2-24.4 4c0 0-1.4.4-2.3 1-1 .8-2.3-.2-7 1.5s-22.2 7.5-33 5.4c-2.3-.7-4.5-.3-4.6-.7-.2-.6 1.2 0 1.2 0-.8-1-1-1-1-1-9.2-1-7.6-5-7.6-5l.5 1.2c1.5-2-.6-6.5-.6-6.5h-.2v-.4l.7-.5c4.3-3.7 9.4-4.4 9.4-4.4-3-3.6-9.4-1.7-9.4-1.7 0-4.5-1.7-9.6-1.7-9.6-6.3.8-9.8 6-9.8 6-.3-4.7-6-7.3-6-7.3 2 2.6.7 9 .7 9h-.5v1.4h-.3s-2.2.8-4.7 6.5c0 0-.2 1.4-1.2 2.6v-.4s-2.8 3.7-9.3 0c0 0-9-5.2-12-5-3 .2-5 1.6-5 2.5 0 0-7-.5-9.4 3.6 0 0-5.4 2-.8 6.3 0 0 .6 1.8 2 2.8 0 0-.3-4 .7-2.8l.7.7c.2.5.6 2 1.5 3l.7-.3c0-1 .3-2.3.6-2.8h.2l1.2 2 1.4-.7c.7-.2 1.6.4 1.6.4l1.6-1.3c1.6.3 2-2.8 2-2.8 1.5.4 3 0 4-.8.7 2.6 6.5 5.4 6.5 5.4h.3l-.8.6c2.6 1.8 7.6 1.3 7.6 1.3-2 .8-1.8 4.7-1.8 4.7-1.2.4-1.3 1.6-1.3 1.6 4 1.6 6.7.3 6.7.3.2 1.3 0 1.5 0 1.5-1.7 3.4-2.4 6.7-2.4 6.7v.3s-7 2.4-10 5.8c0 0-.4-1-1.3-1-1 0-3.6-2.2-4.8-2.6-1.3-.3-3 .4-3.6 0-.4-.7-.2-4.7-1-5.3l-1-2.4c-.4 1.2-3 1-3 1l-1 .7-1-.2c-.2 0-.4.8-.6 1.5 0 0-.2 0-.3.2v-.7c-.4.4-1.3-.2-1.7-.2-.2 0-.4.6-.6 1-1 .3-2.3.4-2.3.4-.4.2 0 3.2 0 3.2-3 1.5-1.6 4-1.6 4 1.6 7.4 14.5 4 15.4 5 1 1 3.2 1.2 4.4 1.2 1.2 0 2.6 2.8 4.3 3 1.5.4 0-2.2 7.5-4 7.7-1.8 10.2-5 10.2-5 2.4-.4 3-3.3 3.3-4.5v1.7c.5 2.7-1.3 3.6-1.3 3.6l6.6-2c2.6-.7 2.3-3 2.3-3 2.5 7.3 7 7.7 7 7.7 1-2.7 1-3.5 1-3.5l2-.2c0-1.5-1.3-2.6-2-3.2l3 2h1.4c0 1 1.7 2 1.7 2l.2-1.5c1.4 2 4 1.3 4 1.3v-1c5.8 3.6 15-1 15-1 2.7.5 3-1 3-1 3 .4 3.5-1.6 3.5-1.6 6.8-.6 11.5-5.4 11.5-5.4 3.3-.2 3.4-2.6 3.4-2.6s3.4.7 6.6-3.3c7.4-10.8 18.5-5.2 18.5-5.2l-6.4.4c-16.7 0-9.8 11.3-9.8 11.3h1c1.7.3 7.2 4.6 5 8-3.4 4.7-9.8.2-11.6-3.7-1.8-4-5.5-3-5.5-3s-9.4 1.5-5.5 9h.2c0 2 1.2 4 4.6 6 2 2.8 8.2 3 12.7 2 2.2-.4 13.5-5.3 13.5-5.3.8-2.4 3.6-2 6-5.4 2.6-3.5-3.4-4.7-4.8-6.7s.3-1.6.3-1.6c5.5 3 6-6.5 6-6.5.6 5.5 5.4 7 5.4 7 3-3 .8-9 .8-9 7 12.7 11.4 10.6 11.4 10.6-3.8-2.3-2-5.5-2-5.5 3.5 13.5 17.6 1.7 17.6 1.7-.7 2 0 3 1.3 4.4 1.2 1.2 2.7 1.8 2 4-.7 2.4-7.2 2-7.2 2s-6.4-.4-5.8 5c.3 1.2 4.6 1.7 6.2 1.3 0 0-.7.2 1.7.5h2.7c2.8 0 5.7-.5 5.7-.5 3.7-.8 3-2 3-2 5.7-1 6.3-4.8 6.3-4.8z" fill="#ffd100"/><path d="M701.7 123c1 1 1 2.8 1 4.5 0 1.7 0 3.2-.2 3.8h-.4v1.4c-.2 0-2.4 1-5 6.6 0 0 0 .5-.3 1l-.8 1c-.2.2-2.8 3.3-8.8 0-.4-.3-9-5.4-12.2-5.2-2.6.3-4.4 1.3-5 2l-.3.6c-1.2 0-7 0-9.4 3.6-.3 0-2.4 1-2.8 2.8v.6c0 1 .6 2.3 2 3.5 0 .4.6 2.2 2 3.2l.8.6v-1-.7-1.5c.2 0 .3.3.5.4.2.6.6 2 1.6 3h.2l1.3-.3v-.3c0-.6 0-1.2.2-1.7l1 1.6 1.8-1 1 .5.4.3 2-1.5h-.5l1-.3c1-.6 1.3-1.8 1.4-2.5 1 .2 2.3 0 3.4-.7 1 2.2 4.5 4.2 6 5l-.7.4.7.4c2 1.3 4.8 1.5 6.5 1.5-.8 1-1 2.7-1 3.6-1 .8-1.2 2-1.2 2v.3l.3.2c3 1.2 5.4.8 6.4.5v.4c-1.6 3.6-2.3 7-2.4 7-1 .4-6.5 2.5-9.5 5.5-.3-.5-.7-.8-1.3-.8-.3 0-1.5-.7-2.2-1.2l-2.5-1.4H673.4c0-.2 0-1-.2-1.7 0-2-.3-3.2-1-3.7l.3.2-1.3-3.5-.5 1c-.4.8-2 .8-2.5.8h-.2l-1 .7h-1c-.2 0-.4 0-.6.5l-.6.4h-1l-.5-.3c-.4 0-.7.6-1 1.3l-2 .2c-.3 0-.6.3-.6 1.8v1.7c-.8.5-1.4 1.2-1.6 2v.7c0 1 .4 1.6.4 1.6 1.2 5.8 8.8 5.4 13 5.2h2.5c1 1.2 3.8 1.3 4.6 1.3.4 0 1 .7 1.5 1.2 1 .8 1.8 1.8 2.8 2 1 0 1.2-.4 1.5-.8.6-.8 1.5-2.2 6.3-3.3 7.5-2 10-5 10.4-5.2 1.4-.4 2.2-1.4 2.7-2.4 0 1.8-1.2 2.5-1.3 2.5l.4.8 6.6-2c1.3-.4 2-1 2.4-2 2.6 6 6.7 6.7 6.8 6.7h.4v-.3c.7-1.8 1-2.8 1-3.3l2-.2v-.4-.2c0-.4 0-.7-.2-1l.8.4s.7 0 1-.2c.4 1 1.7 2 1.8 2l.6.4.3-1.4c1.6 1.3 3.8 1 4 1l.4-.2v-.7c5.7 2.8 13.8-1 14.5-1.3 2 .4 2.8-.4 3-1 2 .3 3.2-.8 3.6-1.6 6.5-.6 11-4.8 11.5-5.3 2.5-.3 3.3-1.8 3.5-2.6 1 0 3.8 0 6.5-3.5l.3-.3c-.2.5-.3 1-.3 1.6 0 2.7 1.4 5 1.5 5.2l.2.2h1.3c.8 0 3.7 2 4.7 4.5.4 1 .4 1.8 0 2.6-1 1.6-2.4 2.2-4 2-3-.3-5.8-3-7-5.4-2-4.4-6-3.4-6-3.4s-4.8.8-6.4 4c-.8 1.7-.6 3.6.5 6 .3 2 2 4.2 5 6 2 2.8 8.2 3.2 13 2 2.3-.4 13.2-5 13.7-5.2h.2v-.3c.3-1 1-1.5 2-2 1.2-.7 2.7-1.4 4-3.3.5-.7.7-1.3.7-2v-.4c-.3-1.5-2-2.4-3.4-3.3-1-.6-1.8-1-2.2-1.6-.3-.5-.3-.7-.3-.8h.3c1.2.7 2.4.8 3.5.2 1.5-1 2.3-3 2.6-4.7 1.6 3.7 5.2 5 5.2 5h.3l.2-.2c1.3-1.3 1.7-3.2 1.7-5V159c6.2 10 10.2 8.3 10.4 8.3l.7-.4c.5.4 1 .7 1.8 1 4.4 1.4 10-2.2 12.2-4v.4c0 1.3.6 2.3 1.6 3.3l1 .7c.7.7 1.2 1 1.2 2v1c-.6 1.3-4.5 1.6-7 1.4 0 0-3.3 0-5 1.8-1 1-1.4 2.2-1.2 3.8.5 1.7 4.7 2 6.4 1.8.3.2.8.3 2 .5h2.7l5.8-.5c2-.4 3-1 3.4-1.8v-.4c5.6-1.2 6.3-5 6.3-5v-.2l-1.8-5h-.2c-1.2-.4-4.3-2-4.6-3.8-.8-6-3-9-7-10.2-3.5-1-6 .6-6 .7-1 1.2-5.3 1.4-8 1.5h-.8c-2 0-2.4-.5-2.5-.8v-.4h-.4c-2 0-2.7-1.4-2.8-1.4-1-2-1.8-3-2.6-3.8 3.2-.2 6-2 10-6 3.3-3.7 6-3.4 6.8-3-.4 1-.7 1.7-.7 2.3 0 .4.2.8.4 1 .6 1 1.8.8 1.8.8 3-1.4 4-4 2.8-7-.7-2.4-2.6-4.7-4-4.5-1.4.3-1.8-.5-1.8-.6l-1 .2c0 .5-.5 1-1 1 .2-.7.3-1.6.3-2.3 0-6.5-4-8.4-4.3-8.5l-.3-.2-.4.3c-.8 1-1.3 2.5-1.3 2.6-.5 1.5-1.3 2.6-2.5 3-1.8 1-4.7.5-8.8-1.5-5.8-2.7-20.7 2.8-25 4.6-5.3 2.2-13 4.5-20.2.6-7.4-4.2-9.4-3.6-12.3-2.8h-.4c-6.4 2-8.8 1.7-9.7 1.2-1.5-.8-3-1-3.8-1 0-.7-.4-1.3-.5-1.5-.7-1-1-1.6-1-2.2 0-1.3 1-2 1.2-2l-.5-1s-4.6 1.4-3 9l1 1.3s.5 2 1.7 3v1l.7-.3h.5l.3.6c.2.7.7 1 1 1 .5 0 1-.4 1.6-1 .2 2.3 1.4 6.2 7.5 7.4l1.3.2-1-1-.5-1v-.2c.2 0 .2-.3.2-.4 0-.5-.3-.8-.5-1-.3-.4-.5-.7-.5-1v-.2c0-.6-.4-1-.7-1.3l-.2-.2.4-.3 1-.5c1-.7 2-1.3 4.7.3 4 2.2 7 1.8 7 1.8h.6l-.3-.7c-.7-1.7-1.3-3.3-1.3-4l2.5 2c2.4 2.3 5 4.8 7 4.5 1 0 2.3-.6 3.7-1 2.4-1 5-2 6.6-1.3l.4.2.3-.4s1-1.3 10-3l8.3-1.7c7.4-1.8 15-3.6 18.3-.7.2.6.8 3.2 2.5 4.3 0 .3-.4 1.7-1.8 2.6-2 1.5-5.7 1.4-10.4 0l-4.5-1.3.3.3c-.4-1.7-9.6-.4-25 3.6l-2.4 1.2c-.2.2-.5.2-1 .2-1 0-2.8 0-5.7 1-2.3 1-21.3 7.7-33 5.5l-3-.3c-.8-1-1.2-1-1.4-1-4.6-.7-6.3-2-7-3 .2 0 .3-.2.3-.2.3-.6.5-1.4.5-2.3 0-2-1-4.6-1-4.7h-.2l.5-.4c4.2-3.4 9-4 9-4l1-.2-.5-.7c-2.7-3-7.6-2.3-9.2-2 0-4.3-1.6-9-1.7-9v-.4h-.5c-4.8.5-8 3.7-9.4 5.2-1-4-6-6.4-6-6.5l-.7.7zm2 4.5c0-1.3-.2-2.5-.6-3.7 1.7 1 4.5 3.2 4.7 6v1.6l1-1.2s3.2-4.7 9-5.6c.2 1 1.4 5 1.4 8.7v1h.7c0-.2 5.2-1.7 8.2.8-1.8.5-5.5 1.6-8.8 4.4l-.7.5h-.3l.2.8c.4 1 1 3 1 4.5v.4l-.4-1-.4 1s-.2.4-.2 1c0 .4 0 1 .5 1.6 1 1.6 3.3 2.7 7 3v.7c0 .5.6.6 1.5.6h.5l1 .3s0-.2-.2-.3c.7 0 1.4.2 2 .4 12 2.3 31.2-4.6 33.4-5.3 2.8-1 4.3-1 5.3-1 .7 0 1.2 0 1.7-.5l2.2-1c21.5-5.6 23.8-4.2 24-4.2v.2l4.6 1.2c5 1.6 9 1.6 11.3 0 2-1.4 2.2-3.5 2.2-3.6v-.4h-.3c-1.7-1-2.2-4-2.2-4v-.3h-.2c-3.6-3.4-11.2-1.6-19.2.4l-8.4 1.8c-6 1-9.3 2-10.3 3-2-.5-4.7.4-7 1.3-1.5.5-2.7 1-3.7 1-1.4.3-4-2.2-6-4-2-1.7-2.8-2.5-3.4-2.5-.4 0-.6.2-.8.4v.7c0 1 .5 2.5 1 3.7-1 0-3-.3-5.6-1.7-3.2-2-4.5-1-5.7-.3l-1 .5c-.4.2-1 .4-1 1 0 .5.4.8.6 1l.5.6v.2c0 .7.4 1 .7 1.5l.3.5v1.2c-5-1.5-5.7-5-5.7-6.7v-.7l-.8-.4c-.5 1-1.3 1.6-1.6 1.6 0 0-.2 0-.2-.3-.2-.6-.5-1-1-1.3h-.4v-.3h-.3c-.7-.6-1.3-2.2-1.5-2.8l-.8-1.2c-.3-1-.4-2-.4-3 0-1.4.4-2.3 1-3l-.2.3c0 1 .5 1.8 1.2 2.8l.4 1-1.5.7h2s2 .2 3.8 1c1.6 1 5 .6 10.5-1h.4c2.7-.7 4.6-1.2 11.7 2.7 7.4 4.2 15.4 1.8 21-.4 3-1.2 18.6-7.3 24.2-4.6 4.3 2 7.5 2.6 9.6 1.6 1.5-.6 2.5-2 3-3.8 0 0 .3-1.2 1-2 .8.6 3.3 2.6 3.3 7.5 0 1 0 2-.2 3l-.2.8.8-.2s1.6-.4 2.2-1.5c.4.4 1.2.7 2.2.5.5 0 2.2 1.4 3 3.7 0 .5.3 1.2.3 2 0 1.4-.6 3-2.6 4 0 0-.6 0-.8-.4v-.7c0-.5 0-1.3.6-2.5l.2-.4-.4-.2s-3.6-2-8.4 3c-4.2 4.5-7 6-10.3 6l-.4 1c.5 0 1.6 1 3 4 0 0 1 1.8 3.4 2 .2 0 .3.4.3.4.6.6 1.6.8 3 .8h1c4-.2 7.3-.4 8.3-2 0 .3 2-1 5.2-.2 3.7 1 5.5 3.7 6.2 9.3.4 2.6 4.3 4.4 5 4.6 0 .4 1.4 4 1.5 4.3 0 .4-1 3.3-5.8 4.2h-.3v.8c-.2.3-.8.8-2.8 1.3l-5.5.5h-2.6l-1.6-.4h-.2c-1.8.2-5.5-.4-5.7-1.2-.2-1.2 0-2.2.8-3 1.5-1.5 4.5-1.4 4.5-1.4.7 0 7 .4 7.7-2.2.6-2-.4-3-1.5-4l-.7-.6c-1.2-1.2-1.7-2.2-1-3.8l.4-1.7-1.3 1c-.2.2-7.4 6-12.4 4.5-2.2-.7-3.6-2.6-4.5-5.8v-1l-.7.8s-.6 1-.6 2.2c0 1 .4 2 1.6 3.2-1.7-.3-5-2.2-9.7-10.5l-1 .3s1 2 1 4.3c0 1.5-.5 3-1.4 4-1-.4-4.3-2-4.7-6.5l-1 .2s-.3 5-2.5 6.4c-.7.4-1.6.3-2.7-.3-.3 0-1-.2-1.5.4v.5c0 .4.2 1 .5 1.4.5.7 1.5 1.3 2.5 2 1.3.7 2.7 1.5 3 2.6v.3c0 .4-.2.8-.6 1.3-1.2 1.7-2.5 2.4-3.6 3-1 .6-2 1.2-2.4 2.3-.6.4-11.2 5-13.3 5.4-4.7 1-10.6.6-12.3-1.8-3-2-4.5-3.8-4.6-5.8v-.2c-1-2-1.2-3.6-.5-5 1.4-2.7 5.7-3.4 5.7-3.5.2 0 3.4-.6 5 3 1.2 2.7 4.5 5.6 7.7 6 1.8.2 3.4-.6 4.6-2.2l.2-.2c.6-1 .6-2.2 0-3.5-1-2.5-4-4.8-5.4-5h-1c-.2-.6-1-2.4-1-4.4 0-.8 0-1.7.5-2.5 1.2-2.2 4.6-3.4 10-3.3l8.3-.6-1.6-.6s-11.5-5.7-19 5.2c-3 3.7-6 3.2-6.2 3.2h-.5v.4s-.2 2-3 2.2h-.2c-.2 0-5 4.8-11.3 5.3h-.3v.3c-.2 0-.7 1.6-3 1.3h-.6v.4s-.4 1-2.4.6h-.3c-.2 0-9.3 4.5-15 1l-.8-.6.4 1.7c-.8 0-2.4 0-3.3-1.2l-.7-.8-.3 1.7c-.4-.2-1-.7-1-1.2v-.5l-1.5.3-3-2-.6 1c.6.3 1.6 1.2 1.7 2.3h-2v.5c0 .2 0 1-.6 3-1-.3-4.4-1.6-6.4-7.3l-1 .2v.2c0 .6 0 1.8-1.8 2.2l-5 1.6c.2-.6.5-1.2.5-2v-.8l-.3-1.7-1-.2c0 1-.7 3.8-2.8 4.2h-.2c0 .2-2.6 3.2-10 5-5 1.2-6.2 2.7-7 3.6-.2.4-.2.4-.4.4-.7 0-1.5-1-2.2-1.6-.8-.8-1.4-1.5-2.2-1.5-1.4 0-3.3-.4-4-1.2-.4-.3-1.3-.3-3.3-.2-4 .2-11 .5-12-4.7 0-.2-.3-.7-.3-1.3v-.5c.2-.6.7-1.2 1.5-1.6l.3-.2v-.3l-.2-1.8v-.8l2.4-.2v-.3s.4-.7.4-1c0 .2.3.2.3.2l1 .2v1l1-.8.2-.2.3-1h1l1-.7c.4 0 1.7 0 2.7-.5l.6 1.8c.4.3.6 2 .7 3 0 1.2 0 1.8.4 2 .4.7 1.2.6 2 .5h1.8l2.3 1.3c1.3.8 2 1.3 2.7 1.3.5 0 .7.7.7.8l.3.8.5-.7c3-3.3 10-5.7 10-5.7l.3-.5c0-.2.7-3.5 2.2-7l-.2.4c.4-.2.6-1 .4-2v-.6l-.7.3s-2.4 1-6-.3c.2-.3.4-.7 1-1h.3v-.4-.4c0-1.3.2-3.3 1.4-3.8l-.2-1s-4 .4-6.6-1l1.4-1h-1.8c-1.6-.7-5.6-3-6-5l-.3-.5-.5.3c-1.3.8-2.5 1-3.6.7h-.6v.4c0 .6-.4 2-1 2.5h-.6l-.3.2-1.4 1.2c-.3-.4-1-.7-1.6-.6l-1.2.6-1.5-2.3-.5.7c-.2.5-.4 1.6-.5 2.6-.8-.7-1.2-2-1.3-2.4v-.2h-.2l-.6-.6c-.5-.6-1-.5-1-.4-.2 0-.7.3-.8 2.3l-1-2c-1.2-1.2-1.8-2.2-1.8-3v-.5c.4-1.4 2.3-2 2.3-2l.2-.2c2.2-4 9-3.4 9-3.4h.7l-.2-.6.2-.3c.5-.7 2.2-1.5 4.3-1.6 2.5 0 9.3 3.6 11.7 5 5 3 7.8 1.6 9 .7v.5l1-.8c1-1.3 1.3-2.7 1.3-2.8 2-4.7 4-6 4.2-6l.6.2s0-1.2.2-1.6l.3-.6s.5-2 .5-4zm85.6 26l-4.2.2c-2.7 0-5 .3-6.7 1 4.2-2.5 8.5-2 11-1.2zm25.5 13c-1.7-1-2-2.4-2-3.3v-.3c.5 1.4 1.3 2.7 2.2 3.5h-.2z"/><path d="M818.7 123.4c-.8.8-1.3 2.5-1.3 2.5-.5 1.6-1.3 2.7-2.5 3.3-2 1-5 .3-9-1.6-5.8-2.8-20.6 2.8-25 4.5-5.3 2.2-13.2 4.5-20.2.5-7.4-4-9.4-3.5-12.3-2.8h-.4c-5 1.5-8.5 1.8-9.8 1-1.5-.7-3-1-3.8-1 0-.6-.4-1.3-.5-1.4-.8-1-1-1.7-1-2.3 0-1.4 1-2.2 1-2.2l-.2-.5s-4.6 1.3-2.8 8.8c0 .2.8 1.3.8 1.3s.6 2 1.8 3v.8l.4-.3h.5c.3.3.4.6.5 1 0 .6.5.8.8.8.6 0 1.2-.5 1.8-1 0 2 1 6.2 7.4 7.4l1 .2-.7-.7c-.2-.2-.6-.8-.6-1.2v-.5c0-.4 0-.7-.3-1-.3-.3-.5-.6-.5-1v-.2c0-.5-.5-1-.8-1.2l-.3-.4.3-.3 1-.6c1.2-.8 2-1.4 5 .3 3.6 2.2 6.5 1.8 6.7 1.7h.4l-.2-.4c-.8-1.7-1.3-3.3-1.3-4 .2 0 1.6 1 2.6 2 2.2 2 5 4.6 6.8 4.4 1 0 2.4-.6 3.8-1 2.4-1 5-2 6.7-1.3l.2.2v-.3c.2-.2 1-1.4 10.2-3l8.4-1.8c7.8-2 15.2-3.7 18.5-.6 0 .3.6 3.2 2.3 4.3 0 .2-.3 1.7-1.8 2.8-2 1.4-5.8 1.4-10.5-.2 0 0-4.3-1-4.5-1.2-.7-.6-4.7-1.2-24.7 4l-2.3 1.2c-.3.2-.6.2-1.2.2-1 0-2.7 0-5.6 1-2.2 1-21.3 7.7-33 5.5v.6c11.7 2.2 31-4.7 33-5.5 3-1 4.5-1 5.5-1 .7 0 1.2 0 1.6-.4l2.3-1c22-5.7 24-4 24-4h.2l4.6 1.3c5 1.6 9 1.6 11.2 0 2-1.4 2-3.5 2-3.5v-.3c-1.8-1-2.4-4.2-2.4-4.2-3.6-3.6-11.2-1.7-19.2.2l-8.3 1.8c-8 1.4-10 2.5-10.4 3-2-.5-4.6.5-7 1.3-1.4.5-2.7 1-3.7 1-1.5.3-4.2-2.2-6.2-4-1.6-1.6-2.5-2.4-3-2.4-.3 0-.5 0-.7.3v.6c0 1 .6 2.8 1 3.8-.8 0-3 0-5.8-1.7-3-1.7-4.3-1-5.5-.2l-1 .5c-.3.2-.7.4-.8.8v.3c0 .3.3.6.5.8.3.4.5.6.5.8v.2c0 .6.3 1 .6 1.4l.4.6-.2.5.3 1c-5.4-1.5-6-5.3-6-7v-.8l-.7-.2c-.5 1-1.4 1.7-1.7 1.6-.2 0-.3 0-.4-.3 0-.6-.4-1-.8-1.2h-.6v-.4c-1.2-.6-1.8-2.7-1.8-2.7l-.8-1.2c-.3-1-.4-2-.4-3 0-2 .7-3.2 1.4-4 0 .3-.2.5-.3.8v.5c0 1 .3 1.8 1 2.7.3.4.4.8.4 1l-.2.5h.4s2 .2 4 1.2c1.4.8 4.8.5 10.3-1h.4c2.7-.8 4.6-1.4 11.7 2.6 7.4 4 15.4 1.7 20.8-.4 3-1.4 18.8-7.4 24.5-4.7 4.3 2 7.4 2.6 9.5 1.6 1.4-.7 2.3-2 2.8-4 0 0 .4-1.2 1-2 1 .5 3.7 2.5 3.7 7.7 0 1 0 2-.3 3v.6h.4s1.6-.6 2-1.7c.5.4 1.2.8 2.4.5.6 0 2.3 1.7 3 4 .3.5.5 1.2.5 2 0 1.4-.6 3-2.7 4 0 0-.6 0-1-.3v-.8c0-.6 0-1.4.7-2.6v-.3c-.3 0-3.7-2-8.4 3-4.2 4.4-7 6-10.5 6l-.3-.2h-.7l-.2.2-.6.5h1.8c.6.4 1.6 1.4 3 4.3 0 0 1 1.7 3.3 1.7l.4.6c.6.6 1.5 1 2.8.8h1c3 0 7.3-.3 8.3-1.7 0 0 2-1.2 5.4-.4 3.6 1 5.4 3.8 6 9.5.5 2.5 4.6 4.3 5 4.5l1.7 4.5s-.7 3.4-6 4.3h-.2v.8c-.2.4-.8 1-2.8 1.4-4 .6-9.5 1-10-.2 0-.2 0-1 3-3l-.2-.6c-2.7 1.7-3.7 3-3.3 3.8.8 2 9 1 10.6.7 1.8-.3 3-1 3.3-1.6l.2-.5c5.5-1.2 6-5 6-5l-1.5-4.8v-.2h-.2s-4.4-1.8-4.7-4c-.7-6-2.8-9-6.8-10-3.5-1-6 .5-6 .6-1 1.3-5.3 1.4-8 1.5h-.8c-2 .2-2.6-.4-2.6-.8v-.3h-.3c-2 0-3-1.5-3-1.5-.8-2-1.7-3.2-2.6-4 3.3-.2 6-1.8 10-6 4-4 6.5-3.4 7.3-3-.5 1-.8 1.8-.8 2.5 0 .4 0 .8.4 1 .5.8 1.5.7 1.6.7 2.8-1.4 3.7-4 2.7-7-1-2.4-2.8-4.4-4-4.2-1.5.3-2-.7-2-.7h-.6v.2c0 .7-.8 1.2-1.3 1.4l.3-2.6c0-6.5-4-8.5-4.2-8.5h-.3z"/><path d="M803 156.7s.6 2 .6 4.4c0 1.5-.3 3-1.4 4.2-1-.4-4.4-2-5-6.6h-.5s-.3 5.2-2.6 6.5c-.7.6-1.7.5-2.8 0-.2-.2-1-.3-1.2.2l-.2.4c0 .4.4 1 .6 1.3.5.6 1.5 1.2 2.5 1.8 1.2.8 2.6 1.7 3 2.8v.3c0 .3-.3.8-.6 1.3-1.3 1.8-2.6 2.5-3.7 3-1 .7-2 1.2-2.4 2.4-.5.2-11.3 4.8-13.3 5.2-5 1-10.8.6-12.5-2-1-1.3-.5-3.2 1.2-5.4l-.6-.4c-1.7 2.5-2 4.6-1 6.2 1.8 3 8 3.3 13 2.2 2.3-.5 13-5 13.6-5.3l.2-.2c.4-1 1-1.4 2.2-2 1-.7 2.6-1.4 4-3.3.5-.8.7-1.6.5-2.3-.3-1.4-1.8-2.3-3.3-3.2-1-.5-1.8-1-2.2-1.6l-.5-1s.3-.2.5 0c1.2.6 2.4.7 3.4 0 1.6-.8 2.4-3.2 2.7-5 1.4 4 5.2 5.3 5.3 5.3h.2v-.2c1.4-1.2 1.8-3 1.8-4.7 0-.8 0-1.6-.3-2.4 6.5 10.7 10.6 9 10.7 9l.6-.3-.5-.3c-1.8-1-2.3-2.4-2.3-3.4 0-.4 0-.6.2-1 1 3 2.5 5 4.6 5.6 4.6 1.5 10.5-2.5 12.4-4v.7c0 1 .5 2 1.5 3l.8.7c.8.7 1.4 1.2 1.4 2.2l-.2.8c-.5 1.7-5 1.7-7 1.6 0 0-3.2-.2-5 1.7-1 1-1.2 2.3-1 3.8.4 1.6 5 2 6.5 1.7v-.7c-1.7.4-5.6-.2-6-1 0-1.4.3-2.5 1-3.2 1.6-1.7 4.6-1.5 4.6-1.5.7 0 6.8.5 7.6-2 .5-2-.5-3-1.6-3.8l-.7-.7c-1.2-1.2-1.8-2.2-1.2-4l.4-1-1 .7s-7.3 6-12.5 4.4c-2-.7-3.7-2.7-4.5-6l-.2-.7-.4.5s-.5 1-.5 2 .3 2.4 1.7 3.5c-1.4 0-5-1.3-10.2-10.6l-.6.3z"/><path d="M758.3 176.2c0 2.4 1.7 4.5 5 6.4l.2-.6c-3-1.8-4.4-3.7-4.5-5.8 0-3.2 3.2-5.6 3.3-5.6l-.4-.6c-.3 0-3.8 2.7-3.7 6.2z"/><path d="M772.8 159.2c-3 3.8-6.3 3.3-6.3 3.3h-.3c0 .2 0 2.4-3.2 2.6-.2.2-5 5-11.5 5.4-.2.2-.8 2-3.5 1.7l-.2.2s-.3 1.3-2.6.8c-.3 0-9.8 4.7-15.5.8l-.2.3c5.8 4 15.3-.5 15.7-.7 2 .6 2.8-.5 3-1 2.8.4 3.5-1.6 3.5-1.6 6.6-.5 11.4-5.3 11.4-5.3 3-.2 3.5-2 3.6-2.5.5 0 3.5.2 6.5-3.6 6.3-8.8 15-6.3 17.7-5.3l-5.6.4c-5.6 0-9.2 1.3-10.7 3.8-2 3.4.7 7.7.8 7.8h1.3c1 .3 4 2.5 5 4.8.4 1 .4 2 0 3-1.3 1.5-2.6 2-4.3 2-3-.4-6-3.2-7.2-5.7-2-4-5.7-3-5.7-3s-4.6.7-6 3.8c-1 1.5-.7 3.4.4 5.5h.3c-1-2-1.2-4-.5-5.3 1.5-3 6-3.7 6-3.7s3.5-.8 5.3 3c1 2.5 4.3 5.5 7.4 5.8 1.7.3 3.3-.4 4.4-2 .7-1 .7-2.2.2-3.4-1-2.4-4-4.7-5.3-5l-1 .2c0-.2-1.3-2.4-1.3-4.8 0-.8.2-1.8.6-2.6 1.4-2.4 5-3.6 10.5-3.6l7.2-.4-.6-.4s-11.4-5.5-18.8 5.2zM823.6 176.7c-1 1.6-.7 3.4-.7 3.5h.5s-.3-1.8.6-3c.7-1 1.5-1.4 2.7-1.6v-.7c-1.5.2-2.5.8-3 1.7z"/><path d="M718.6 141.2s1 2.5 1 4.5v1l-.6-1.3-.3.8s-.4 1.2.3 2.4c1 1.7 3.5 2.8 7.4 3.2h-.2l-.2.3v.4c0 .4.6.4 1.5.5h1.2c.8 0 1.8.2 3 .6-.4 0-1 .3-1 .3l1 .2s7.2 3 10.2 5.3c-1 .7-4.4 3.4-10.6 2l-1-.4.6 1s4 4.6 5 7.4c-1.5 0-7 0-8.8-1.6l-.5.4s2.6 3.8 3.2 6.8c-.7 0-2.5 0-3.5-1.2l-.5-.7-.3 1.8c-.5-.3-1-1-1-1.5v-.4s-1.4 0-1.6.2l-3.2-2c-.2 0-.4-.2-.5-.3l-.3.5.5.3c.7.4 1.8 1.4 2 2.7h-2v.4c0 .2 0 1-.7 3-1-.2-4.5-1.4-6.6-7.4l-.7.2v.2c0 .6-.2 2-2 2.4l-5.5 1.6c.4-.5.7-1.2.7-2.2v-.7l-.2-2c0-1.3.3-2 1.2-2.6l-.3-.6s-8 3.2-12 2c.2-1 1-3.6 2.2-6.5l-.2.2c.3 0 .6-.5.3-1.8v-.5l-.4.2s-2.5 1.2-6-.2c0-.3 0-.8 1-1v-.5-.4c0-1 .3-3.3 1.7-3.8l-.2-.7s-4.3.4-7-1c.8-.5 2.2-1.4 4-1.6h.2v-.3-.4c0-.3 0-1-.4-1.7 1 .2 2 .5 2.5.2l.2-.2v-2.5h-.8v2c-.3.2-1.4 0-2.4-.4l-1-.2.6.8c.5.7.6 1.6.6 2-2.3.4-4 2-4.2 2l-.4.2.4.3c2 1.4 5 1.6 6.7 1.5-1 1-1 3-1 3.8v.3c-1.2.6-1.4 1.8-1.4 1.8v.3h.3c3.5 1.4 5.8.8 6.6.5v.7c-1.8 3.5-2.5 6.8-2.5 7l.2.2c3.2 1.3 9-.4 11.5-1.3-.4.4-.6 1-.6 2 0 .6 0 1.3.2 2.2v.6c0 2-1.2 2.6-1.3 2.6l.3.6 6.6-2c1.5-.3 2-1.2 2.4-2 2.6 6.2 6.7 6.7 7 6.8l.2-.3c.6-2 .8-2.8.8-3.3h2v-.4-.2c0-.5 0-1-.3-1.4l1 .7 1.2-.3c.3 1 1.6 2 1.8 2l.4.3s0-1 .2-1.5c1.6 1.5 4 1 4 1h.3v-.3c-.4-2.3-2-5-2.7-6.4 3 1.4 8.2 1.3 8.4 1.3h.4v-.3c-.5-2.4-3.5-6-4.7-7.6 6.7 1.4 10.4-2 10.6-2.3l.2-.2-.3-.3c-2.3-2-7.6-4.3-9.7-5.2l.8-.2-.8-.4c-1.8-1-3.6-1-5-1.2-.7-1-1-1-1.2-1-4.7-.6-6.4-2-7-3l.2-.4c.4-.6.6-1.3.6-2.2 0-2-1-4.5-1.2-4.6l-.6.2z"/><path d="M697.3 140s-.5 2.5-2.6 3.7c-1.7 1-3.8.8-6.4-.3h-.3v.2s.2 1.6 1.6 2.7c1.2 1 3 1.2 5 1-.7.8-3 3.7-3 6.5v.4c.3.2 3.8 1.2 5.5-1 0 1 .4 4 1.5 5 .6.6.8 1.5.8 2.2v1.2l-.3.5.5-.2s3.3-2.5 4.4-5.6c0 0 .4-.8 1.4-1v.3c0 1.2.5 3.4 4 4.8h.3v-.2-.5c0-1 0-2.5 1-3.4.4-.4.6-1 .6-1.6 0-.4 0-.7-.2-1 .8.2 2.5.7 3.2 2 1 1.8 4.4.4 4.6.3l-.2-.4s-1.4.4-2.3-.3c-.4-.2-.7-.7-.7-1.2l-.2-2c0-.8-.2-1.4-.6-1.8.5 0 1.4 0 1.8.8.6 1.4 2.7 1.5 2.8 1.5h.7l-.5-.4s-2-1.3-1.5-2.8l.2-1.2c.5-2 1.3-5.5.7-7.6h-.5c.2.6.2 1.2.2 2 0 1.8-.5 4-1 5.5v1l-.2.5c0 1 .7 1.8 1.2 2.3-.6 0-1.5-.4-1.8-1.2-.6-1-2-1-2.6-1h-.4l.3.4c.7.4.7.8.7 2l.2 1.8c0 .7.4 1.2 1 1.6.3.3.8.3 1.3.3-1 .3-2.5.5-3-.5-1-1.8-3.6-2.2-3.7-2.3h-.4l.2.2s.3.6.3 1.2c0 .5-.2 1-.7 1.5-1 .8-1 2.5-1 3.4v.4c-3-1.3-3.6-3.2-3.6-4.2v-.8l.2-.3h-.4c-1.4.3-2 1.5-2 1.5-1 2.5-3.2 4.5-4 5v-.6c0-.8 0-1.8-.8-2.5-1.2-1.3-1.4-5-1.4-5v-.8l-.3.6c-1.2 2.4-5 1.2-5 1.2-.3-3 3-6.8 3-6.8l.5-.4h-.5c-2.2.4-4 0-5-.8-1-.7-1.4-1.6-1.5-2 2.6 1 4.7 1 6.4 0 2.2-1.3 2.7-4 2.7-4 2.4-5.5 4.5-6.4 4.6-6.4l-.2-.3s-2 .8-4.7 6.6z"/><path d="M703 132s11-.3 16.5 8.2l-1.5 1.6s-5.7-6.6-16.6-7.6l1.5-2z" fill="#ffd100"/><path d="M703 131.7h-.3l-2 2.7h.6c10.7 1 16.4 7.6 16.4 7.6l.3.3 2-2-.2-.3c-5.4-8.5-16.8-8.3-17-8.3zm0 .7c1.4 0 11 .3 16 7.8l-1 1c-1.2-1-6.7-6.2-16-7.3.3-.6 1-1.4 1-1.6z"/><path d="M701.3 137.4c-1 1.2-1.7 3-1.7 4v.3c-1 1-1.7 2.7-1.7 4.6 0 1 0 2 .5 3l.2.7c1 2.8 2 5.3 6.5 4 4.4-1.5 4.6-1.8 5.7-3.6l.2-.5c.6-1 1.2-1.3 2-1.5.7-.2 1.6-.5 2.4-2l.7-1c.8-1.2 1.8-2.5 2-4.3h-.5c0 1.6-1 3-1.8 4l-.8 1c-.7 1.5-1.4 1.7-2.2 2-.7.2-1.5.4-2.2 1.5l-.3.5c-1 1.7-1.2 2-5.4 3.3-4 1.3-4.8-.8-6-3.6v-.7c-1.3-3.2-.4-6.4 1.2-7.6l.5-.4h-.7c0-.5.5-2.2 1.6-3.7 1-1.3 3.3-2.6 3.3-2.6l-.3-.4s-2.4 1.4-3.4 2.8z"/><path d="M699.3 149c.8.4 1.8.4 3 0 0 .3.2 1.3 1 2 1 .8 2.4 1 4.6.5l-.2-.4c-2 .6-3.4.4-4.3-.3-1-.8-.7-2-.7-2v-.4l-.3.2c-1.3.5-2.3.5-3 0-1.2-.8-1-3-1-3h-.5s0 2.4 1.3 3.4z"/><path d="M701.7 145.8c-.5.2-.7.6-.7 1v.2c.2 1 1.2 1.6 2.2 2 1 .2 2 .2 2.6-.4 0-.2.3-.6 0-1.3-1.6-2.5-4-1.5-4-1.5zm1.6 2.8c-.8-.3-1.8-.8-2-1.7 0 0 0-.7.5-.8 0 0 2.2-1 3.5 1.3.3.4.3.7.2 1-.3.3-1.3.3-2.2 0zm-1.6-2.8zM703 150.8c-.2 2 0 2.2 0 2.2h.4l1.2-1.7-1.5-.7v.2zm.4.3l.6.4-.7 1V151zM700 149l-.2 2 1.7-2H700zm.3.4h.4c0 .2-.3.3-.5.6v-.6z"/><path d="M698.8 148.5s1.2 2.4 1.4 3.3c.2.5 1 1.2 1.7 1.5.8.3 1.5.3 2-.2l1.2-.8c.4-.3.5-.4.8-.4v-.4c-.4 0-.7.2-1 .5l-1 .8c-.7.5-1.5.3-2 0-.7-.2-1.3-.7-1.4-1-.2-1-1.4-3.4-1.5-3.5l-.2.2zM700.4 141.3c-1.4.7-2 2.3-2 2.4h.4s.5-1.5 1.7-2c.6-.3 1.3-.3 2 0v-.3c-.7-.4-1.4-.4-2 0zM709.4 145.6s2.7 2 1.2 4.4l.4.2c1.6-2.7-1.3-5-1.3-5l-.3.4zM701.8 146s-.4 1.5 1.6 2c0 0-2 0-2-.5-.2-.5 0-1.6.4-1.5zM708 147.7c0 .2 0 .3-.3.3 0 0-.2 0-.2-.3 0 0 0-.2.2-.2s.3 0 .3.2zM708.2 148.6c0 .2 0 .3-.2.3s-.3-.2-.3-.4c0 0 0-.2.3-.2 0 0 .2 0 .2.2z"/><circle transform="translate(524.3 -13.2)" cx="182.3" cy="161.3" r=".2"/><path d="M707.3 149.5c0 .2 0 .3-.2.3 0 0-.2 0-.2-.3 0 0 0-.2.3-.2.2 0 .3 0 .3.2zM701.4 143.4c0 .2 0 .3-.3.3v-.3-.2c.3 0 .4 0 .4.2z"/><circle transform="translate(524.3 -13.2)" cx="177" cy="157.5" r=".2"/><circle transform="translate(524.3 -13.2)" cx="175.7" cy="157.1" r=".2"/><path d="M700.7 145.3s0 .2-.2.2-.3 0-.3-.2 0-.3.3-.3c0 0 .2 0 .2.3zM704.6 137.3s3 1.8.2 5.2c0 0 1.3-1 1.5-2.8 0-1.8-1-3.2-1.7-2.4zM716 142.2c-1 .4-2.4-.5-3-1.3-.8-1-2.2-1.2-3 .4-1 1.5-2.2 2-2.2 2s1.2-.6 2.5-2c1.3-1.3 2-.2 3.2.4 1.3.7 1.5.8 2.3.5z"/><path d="M715.6 142.4c-.3.3-1 .5-1.8 0-.7-.7-1.4-1.5-2.3-1-1 .4-2.8 1.8-2.8 1.8s3-2 3.5-1.6c.6.5 2 1.5 2.7 1.2.7-.3.6-.4.6-.4z"/><path d="M713.4 143.6c-1-.7-1.8.8-2.6.6-.8 0-1.4-1.4-1.4-1.4s.7 1.3 1.7 1c1.2-.3 2-1 2.5-.5.6.5 0 .3 0 .3z"/><path d="M712 143.8c-1.8.2-2-1.5-2-1.5s.5 1.5 2.2 1.2l-.2.3z"/><path d="M712 142.6c0 .5 0 .7-.5.7s-.8 0-.8-.6c0-.5 1-.3 1.2 0zM705.4 140c0 .4-.3.7-.6.7s-.4-.2-.4-.5 0-.6.4-.6c.3 0 .6.2.6.5z"/><path d="M703.4 138s3 0 1.5 4c0 0 1-2 .4-3.3-.8-1.4-2-1-2-1s-.2.2 0 .4z"/><path d="M703.3 139.7c0 .7.5 1.5 1.5 2.3l.3-.3c-1-.7-1.3-1.4-1.3-2 0-.7.5-1 .5-1l-.2-.4s-.7.5-.7 1.4z"/><path d="M704 140.3c0 .5.5.8 1 1l.2-.3c-.5-.2-.8-.5-1-.8 0-.7.5-1.4.5-1.4l-.3-.3s-.7 1-.4 1.8zM708.3 142.5s.5 1.2-.3 2.6c-1 1.5-.8 1.4-.8 1.4s1-2 .6-2.7c-.4-.7.5-1.2.5-1.2zM675 136.8c-2.5.2-4.3 1-5 2v.5c-1 0-7.2-.3-9.6 3.6 0 0-2.2.7-2.6 2.5-.2 1.2.4 2.6 2 4v.2l.2-.3s.3-.7.8-.8c.5 0 1 .3 1.6 1l.3-.3s-1.6-2.2-1-3.7c.3-.7 1-1.2 2-1.4v-.4c-1.2.3-2 .8-2.3 1.6l-.2 1c0 .7.3 1.5.6 2l-1-.2c-.6 0-1 .5-1 .8-1-1-1.7-2-1.7-3l.2-.4c.3-1.6 2.4-2.4 2.4-2.4 2.5-4 9.4-3.5 9.5-3.5h.3v-.2-.5c.7-.8 2.4-1.6 4.7-1.8 3-.2 11.8 5 12 5 6.4 3.8 9.4 0 9.4 0l-.3-.3s-2.7 3.5-9 0c-.3-.3-9-5.4-12-5.2z"/><path d="M677.8 147c.7 2.5 6.4 5.3 6.6 5.4l.2-.3s-5.7-2.7-6.4-5.2h-.4z"/><path d="M674 147.4v.2s-.4 2-1.4 2.6h-.8l-1.6-1c-.3-.2-.6-.4-1-.3 0-.2-.5-.7-.5-1.5v-.2c.2-1 .8-1.8 2-2.7l-.3-.3c-1.2 1-2 2-2 3-.2 1 .5 2 .6 2h.2c.3 0 .4 0 .8.3l1.7 1h1c1-.7 1.4-2.3 1.5-2.8 4 1 7.3-4 7.5-4.3l-.3-.2s-3.4 5-7.3 4z"/><path d="M664.4 146.7c-.2.8 0 1.6.4 2.4.4.8 1 1.2 1.3 1.2.7 0 1-.3 1.5-.7.3-.2.6-.5.8-.5l.4.3.3-.3-.7-.4c-.4 0-.7.3-1 .6-.4.4-.7.7-1 .7-.5-.2-.8-.5-1.2-1-.3-.8-.4-1.5-.3-2.3.5-1.8 2.6-3 2.7-3l-.2-.4s-2.4 1.4-2.8 3.4z"/><path d="M662.3 149.5s.5.8 1.4 1c.6.2 1.3 0 2-.4l-.2-.2c-1.8 1-2.8-.4-2.8-.5l-.4.2zM700.7 174.7s-2.7 3-10.2 5c-5 1-6 2.7-6.7 3.5-.3.4-.4.6-1 .5-.7 0-1.5-1-2.2-1.7-.7-.8-1.3-1.4-2-1.4-1.5 0-3.4-.3-4.2-1-.3-.4-1.2-.4-3-.3-4.3.2-11.3.5-12.4-5 0 0-.5-.8-.2-1.8.2-.7.7-1.3 1.6-1.7-.2 0 .8.8 1.7.7l.7-.3c.2.2 1.7 1.6 1.7 3.3 0 .4 0 .8-.2 1.2h.3c1-2.5-1.7-4.8-1.7-5l-.3.2h-.5c-.7.2-1.6-.6-1.6-.6-1.2.6-1.8 1.2-2 2-.3 1.2.2 2 .2 2.2 1.2 5.6 8.4 5.3 12.8 5h2.7c1.2 1.3 3.8 1.4 4.6 1.4.5 0 1 .6 1.7 1.3.8.7 1.6 1.6 2.5 1.8.7.2 1 0 1.3-.6.6-.8 1.7-2.2 6.6-3.4 7.6-1.8 10.2-5 10.3-5 3-.6 3.2-5 3.2-5.2h-.4s-.3 4.3-3 5z"/><path d="M671.7 165.8c-.8 0-3.2.6-4 1.8-.2.4-.2 1 0 1.4l.3.8c.7 2 1.4 4 2.3 4.4l.2-.3c-.7-.5-1.5-2.5-2.2-4.3l-.3-.8v-1.2c.7-1 2.8-1.5 3.7-1.6.6 0 .7 2 1 3 0 1.3 0 2 .2 2.2.3.4 1 .3 1.7.2h2l2.2 1.4c1 .7 2 1.3 2.5 1.3.7 0 1 .8 1 .8v.4l.3-.2c3-3.3 10-5.8 10-5.8v-.3c-.4 0-7 2.5-10 5.7-.2-.3-.5-.8-1.3-.8-.4 0-1.4-.8-2.4-1.4l-2.3-1.3h-2c-.7 0-1.3 0-1.5-.2l-.3-1.7c-.2-1.7-.4-3.5-1.3-3.5zM665.3 167.7c-.5.5-.4 1-.4 1.2 0 0 .2 5 2.5 6v-.4c-2-1-2.2-5.7-2.2-5.8 0 0 0-.5.3-.8.3-.3 1-.3 2 0v-.4c-1-.3-1.8-.3-2.3 0z"/><path d="M663.5 168c-1 1-1 3-1 3h.4s-.2-2 .7-2.5c.3-.3.7-.3 1.3 0v-.4c-.5-.2-1-.2-1.5 0z"/><path d="M660.3 170.6s-.3-3 0-3.2c0 0 1.2.4 1.7 0 0 0 .7 2.3.5 3.3-.2 1-1.4.6-2.2 0z" fill="#fff"/><path d="M662 167.2c-.4.3-1.3 0-1.6 0-.5.2-.5 2-.3 3.4h.2c.5.6 1.4 1 2 .8.2 0 .4-.2.5-.7.2-1-.5-3.4-.5-3.5v-.3l-.3.2zm0 .3c0 .4.3 1.8.3 2.8v.4c0 .2 0 .3-.3.3-.3.2-1 0-1.5-.5v-2-1s.8.3 1.4 0z"/><path d="M667.7 167.5s0-2.5.4-2.8c0 0 2.6.3 3-1l1 2.4s-2.7-.2-4.3 1.5z" fill="#fff"/><path d="M671 163.6c-.6 1-2.8 1-2.8 1-.7.2-.7 2.3-.6 3v.4l.3-.4c1.3-1.5 4-1.3 4-1.3h.3l-1-3-.3.3zm0 .4l.7 2c-.6 0-2.4 0-3.8 1.2v-.2c0-1 0-2 .2-2.2 0 0 2 .2 2.8-.8z"/><path d="M665 168s.6-2.6 1-2.7c0 0 1.4.3 1.7 0v3s0-1.3-2.6-.3z" fill="#fff"/><path d="M667.6 165c-.2.3-1 .2-1.5 0-.5.2-1 2-1 3v.3l.2-.2c1.3-.3 2-.2 2 0 .2 0 .3.3.3.3h.3l.2-3.7-.4.4zm0 .4v2.3c-.5-.3-1.3-.3-2.2 0 .2-1 .5-2.2.7-2.3.2 0 1 .2 1.5 0z"/><path d="M662.3 168.4s.6-2.4 1-2.4 1.3.6 1.8.2v1.8s-2-.5-2.3 2.4l-.4-2z" fill="#fff"/><path d="M665 166c-.2.3-.7 0-1 0l-.7-.2c-.4 0-.8 1-1.2 2.5l.5 2h.4c0-.8.3-1.5.8-2 .6-.3 1.3 0 1.3 0h.3v-2.5l-.3.3zm-1.7.2h.4c.4.3 1 .4 1.2.3v1.3c-.4 0-1 0-1.4.3-.4.4-.7 1-1 1.5v-1c0-1 .5-2.2.7-2.3z"/><path d="M660 149s0 2 1.7 3.3c0 0-.2-2.4.3-3.3 0 0-1-1-2 0z" fill="#fff"/><path d="M659.8 148.7v.2s0 2 1.8 3.4l.4.3v-.5s-.3-2.3.2-3.2c0-.2-1-1.3-2.4-.3zm2 .4c-.2.5-.3 1.5-.3 2.3v.4c-1-1-1.4-2.4-1.4-2.7 1-.7 1.8 0 2 0z"/><path d="M663.2 150.2s.4 2 1.5 2.8l.7-.2s.3-2.4.7-2.7c.5-.2-1.6 1-2.8.2z" fill="#fff"/><path d="M663 150.2s.4 2 1.6 3l1-.2c0-1.3.4-2.6.6-2.7 0 0 0-.2-.2-.3-.6 0-2 .6-2.7 0l-.4-.2v.4zm2.7.2l-.5 2.4h-.5c-.7-.6-1-1.8-1.3-2.3 1 .3 1.8 0 2.3 0z"/><path d="M666 150l1.4 2 1.4-.7-.3-2.3s-1-.2-2.4 1z" fill="#fff"/><path d="M666 150h-.2l1.5 2.3 1.6-1-.3-2.4v-.2c-.2 0-1-.2-2.7 1.2zm2.4-1l.2 2.3-1.2.5c0-.2-1-1.4-1-1.6 1-1 1.7-1 2-1z"/><path d="M672 150.5l-1.6 1.4s-1-.8-1.6-.7l.3-2.2s1.3-.7 3 1.5z" fill="#fff"/><path d="M669 149l-.4 2.3v.2h.2c.5 0 1.2.3 1.4.5h.2l2-1.5h-.2c-2-2.5-3.2-1.5-3.2-1.5zm2.7 1.5c-.2.2-1.2 1-1.4 1 0 0-.7-.4-1.3-.4l.3-1.8s1-.5 2.4 1.3zM702 123.3c2 2.5.7 8.7.7 8.7h.4s.5-2 .5-4c0-1.6-.3-3.2-1-4.5 1.3.8 5.3 3.2 5.5 7v.4l.3-.5s3.5-5 9.5-5.8c0 .5 1.6 5 1.6 9v.8h.3s5.8-1.8 8.8 1.3c-1 .2-5.3 1-9 4.3v.3c4.4-3.6 9.4-4.3 9.4-4.3h.2l-.2-.3c-2.7-3.4-8-2-9.2-1.8v-.3c0-4.3-1.7-9.2-1.7-9.3-5.4.5-8.8 4.3-9.7 5.5-.6-4.5-6-7-6-7l-.4.3zM720.4 155.6c3.2.6 10.4 6.3 10.5 6.4l.3-.6c-.3-.2-7.4-5.8-10.8-6.4v.6zM723.2 163.6c.2 3 3.3 4.6 3.5 4.7l.3-.6s-3-1.6-3-4h-.8zM715.5 164.2c0 3.2 3 7 3.2 7.2l.5-.4s-3-3.8-3-6.8h-.7zM705.4 164.6c.5 1 .5 1.6.3 1.8 0 .3-.4.4-.4.4v.6c.3 0 .8-.2 1-.7.4-.5.2-1.4-.3-2.4l-.6.3z"/><path d="M700 216.7s6.7 6 5 11.4c0 0 4.2-9-.3-11.7-4.6-2.6-4.7-.6-4.6.4z" fill="#00a651"/><path d="M700.3 215c-.4.3-.6 1-.5 1.7v.2c.2 0 6.5 6 5 11l.5.3c.2-.4 4.3-9.4-.4-12.2-2.4-1.2-4-1.6-4.7-1zm0 1.2l.4-.7c.3-.2 1.3-.4 3.8 1 1.5 1 2 2.6 2 4.3 0 1.7-.5 3.5-1 5-.3-4.6-4.5-8.8-5-9.3v-.3z"/><path d="M691.8 222.6s-1.7 2.4.2 4c0 0-2 3-.5 5.6 0 0-1.3 2.7-1 5.5 0 0-1 4.4 1.3 6.5 0 0 2.5 1.2 3.6 0 0 0 2.2-3.2.8-6.6 0 0 1.6-3-.2-6.5 0 0 .5-2-1-4.3 0 0 1-1.6.3-2.8 0 0-3.2-3.4-3.5-1.4z" fill="#964b36"/><path d="M692 221.7s-.4.3-.5 1v-.3c-.3.5-.7 1.4-.7 2.4 0 .6.2 1.3.8 2-.3.4-1 1.7-1 3.3 0 .8.2 1.5.5 2.2 0 .3-.8 2.2-.8 4.6v1s-.2 1-.2 2.2c0 1.5.3 3.3 1.6 4.4.2 0 2.8 1.4 4 0 .2 0 1.4-2 1.4-4.4 0-.7 0-1.6-.5-2.4.2-.3.7-1.4.7-3 0-1-.2-2.2-.8-3.5v-.8c0-.8 0-2-1-3.5.2-.2.5-.8.5-1.7 0-.4-.2-1-.5-1.3-.4-.4-2.3-2.4-3.4-2zm0 22c-2-1.7-1-6-1-6-.4-2.7.8-5.3.8-5.3v-.4c-1.5-2.3.4-5 .4-5l.2-.3-.2-.2c-1.6-1.5-.2-3.6 0-3.7v-.5c.6 0 2 .8 2.8 1.8.6 1-.2 2.5-.2 2.5v.4c1.3 2 1 4 1 4v.2c1.6 3.5 0 6.2 0 6.2v.3c1.4 3.2-.6 6.4-.7 6.4-.6.8-2.4.2-3-.2z"/><path d="M691.8 227c.2 0 1.8 1 2.8.5l.8-.6-.6-.4c-.4.7-2 0-2.7-.2l-.2.6zM691.6 232l-.2.5c.2 0 3.4.7 5-.7l-.6-.5c-1.2 1.2-4.2.6-4.2.6zM690.7 237.4l-.3.6s3.7 2.6 6-.2l-.5-.5c-2 2.4-5 .2-5.3 0z"/><path d="M693.7 215s-8-15-13.4-15.8c-5.5-.6-5.8-6-5.8-6s.7 2.6 5 2.6c4.5 0 13 6 14 10.8.8 4.7 1.8 4 1.8 4l-1.6 4.3z" fill="#00a651"/><path d="M674.2 193.3s.4 5.6 6 6.3c5.4.6 13 15.3 13.2 15.5l.3.8 2-5.4h-.6s-.6 0-1.3-4c-1-4.8-9.6-11-14-11-4.2 0-4.8-2-4.8-2.2h-.8zm6.2 5.6c-3.4-.5-4.7-2.7-5.2-4.2.8.7 2 1.3 4.4 1.3 4.2 0 12.5 6 13.5 10.7.6 2.5 1 4 1.8 4.2l-1.2 3c-1.5-2.7-8.2-14.5-13.2-15z"/><path d="M693.7 213.8s2.8-19 15.2-19.3c12.3-.3 8.3 1 11.2-1 0 0-8.3 4.3-13.5 5-5.2.6-9.4 10.6-9.2 12.5 0 2-3 5.5-4.3 4.3-1.4-1.3.5-1.5.5-1.5z" fill="#00a651"/><path d="M717.8 194.3H709c-12 .2-15.2 17.2-15.6 19.3-.3 0-.8.2-1 .6v.3c0 .4.4.8.6 1 .5.4 1 .5 1.8 0 1.5-.7 3-3 3-4.4 0-2.2 4.2-11.6 9-12.2 3.5-.4 8.2-2.5 11-4 1 .2 1 0 1.6-.3l1-.8-.3-.6-2.2 1.3zM693.4 215l-.4-.6.7-.2h.3v-.3c0-.3 3-18.8 15-19h7.4c-3 1.2-6.8 2.8-9.7 3-5.3.8-9.6 10.6-9.6 13v.2c0 1-1.2 3.2-2.5 3.8-.4.2-.8.2-1 0z"/><path d="M696.5 221s2.8-7.6 7.7-5c0 0-3.8-7.3-10.5-1 0 0 3 4 2.8 6z" fill="#00a651"/><path d="M693.5 214.7l-.3.2h.2c.8 1.2 3 4.4 2.8 6h.6s1.6-4 4.2-5c1-.4 2-.4 3 .2l1 .5-.5-1s-1.6-3-4.6-3.6c-2.2-.2-4.3.6-6.5 2.7zm6.2-2c2 .4 3 1.8 3.7 2.6-.8-.2-1.7-.3-2.6 0-2 .8-3.5 3.2-4.2 4.5-.5-1.8-2-4.2-2.4-4.8 2-1.7 3.8-2.5 5.5-2.2z"/><path d="M687 213.4s4.2 16.8-2 22c0 0 0-8.7-3.7-14-3.8-5 3.8-10.7 5.8-8z" fill="#00a651"/><path d="M682.7 213.5c-2.4 1.8-4 5-1.7 8.2 3.7 5 3.6 13.6 3.6 13.6v.8l.5-.4c6.5-5.2 2.6-21.6 2.4-22.3-1-1.3-3-1.2-4.7.2zm-1 7.8c-.8-1-1-2-1-2.8 0-1.8 1-3.4 2.4-4.5 1.4-1 3-1.4 3.8-.4 0 .5 1.3 5.5 1.3 10.8 0 3.8-.6 7.7-2.8 10 0-2.3-.5-8.8-3.6-13z"/><path d="M687.6 216.3s7.3 7 7.8 9.5c.5 2.3 2.2-7-1.2-9.8-3.5-2.6-7.3-3-7.3-3l.6 3.3z" fill="#00a651"/><path d="M686.6 213l.7 3.5c2 2 7.4 7.5 7.8 9.3 0 .2.2.6.6.7.3 0 .5-.4.5-.5.8-1.7 1.2-8-1.6-10.2-3.5-2.7-7.3-3.2-7.4-3.2h-.5v.4zm.8.3c1 .2 3.8 1 6.6 3 1.2 1 1.7 3 1.8 4.4v1.7c0 1.4 0 2.4-.2 3-1-2.7-7-8.7-7.7-9.2-.2-.2-.5-2.2-.6-3z"/><path d="M674 235s.6 2.8 2.4 3.4c0 0 0 2.2 1.8 3 0 0-1 1.7.5 3 0 0-.3 3.5 1 4.3 0 0 3.3-.2 4.5-1.2 0 0 .7-2.4-1.2-4.8 0 0 .3-2.3-1.5-3.5 0 0 .6-3-1.7-4.2 0 0-.4-2.5-1.8-3.8 0 0-2.8 4-4 3.7z" fill="#964b36"/><path d="M677.7 231c-1.3 1.8-3 3.7-3.7 3.5h-.5v.4s.8 2.8 2.6 3.6c.2.4.4 2 1.8 2.8l-.2 1c0 .7.2 1.4.8 2v.7c0 1.3 0 3.3 1.2 4 .3 0 3.6-.2 4.8-1.2 0-.2.2-.7.2-1.5 0-1-.2-2.3-1.2-3.6v-.3c0-.8-.2-2.3-1.5-3.3v-.7c0-1-.4-2.6-2-3.5 0-.4-.4-2.6-1.8-3.8l-.3-.3-.3.3zm.3.8c1 1.2 1.5 3.2 1.5 3.2v.2c1.5.8 1.7 2.2 1.7 3v1.3c1.4.8 1.5 2.2 1.5 3v.4c1 1.2 1.3 2.5 1.3 3.4v1c-1 .6-3.4 1-4.2 1-.6-.4-.8-2-.8-3.3V244.2c-.6-.4-.8-1-.8-1.5 0-.6.2-1 .3-1v-.4h-.2c-1.4-.6-1.5-2.6-1.5-2.6v-.2h-.3c-1.3-.5-2-2.4-2-3 1-.4 2.8-2.5 3.5-3.4z"/><path d="M676.4 238.2v.4c.2 0 3.4-1.3 3.6-3.6h-.4c-.2 2-3.2 3.2-3.2 3.2zM678 241l.2.5s3-.2 3.5-2.3h-.4c-.4 1.7-3 2-3.2 2zM678.7 244v.5c.2 0 3.4 0 4.5-1.7l-.3-.2c-1 1.6-4.2 1.5-4.3 1.5z"/><path d="M677.6 231.2s-9.7-3.5-15 1.6c0 0 8.2 1 9.2 2.7 1 1.7 6.2-2.6 5.8-4.3z" fill="#00a651"/><path d="M662.3 232.5l-.5.5h.7c3 .5 8.4 1.6 9 2.7.3.4.8.8 2.2.3 1.8-.8 4.5-3.4 4.2-4.8v-.2h-.3c-.4-.2-10-3.6-15.4 1.5zm15-1c0 1-2.2 3-4 4-.3 0-1 .2-1.2 0-.8-1.6-6.4-2.6-8.6-3 5-3.8 13-1.3 14-1z"/><path d="M674.6 237.3L673 236c-1-.7-9.2-3-10.4 5 0 0-3-8 1.4-9 4.3-1 7.7 1.5 10.6 5.3" fill="#00a651"/><path d="M664 231.8c-1 .2-1.7.7-2.2 1.6-1.4 2.6.5 7.4.5 7.6l.5 1.2.2-1.2c.3-2.5 1.5-4.2 3.3-5 2.6-1 6-.2 6.4.2l1.7 1.3.2-.2.3-.2c-3.6-4.5-7.2-6.2-11-5.2zm-2 4c0-.7 0-1.5.4-2 .4-.8 1-1.2 1.7-1.4 3-.7 5.8.3 8.6 3-1.2-.4-4-1-6.6 0-1.7.7-2.8 2.4-3.3 4.5-.3-1-.7-2.6-.7-4z"/><path d="M668.2 221.2s3 6.5 4 6.8c1.2.3 2-.8 2-.8s-4-5.8-6-6z" fill="#00a651"/><path d="M668 221.4c.7 1.5 3 6.6 4.2 7 1.4.3 2.3-1 2.3-1v-.4c-.4-.6-4-6-6.2-6l-.6-.2.2.6zm4.4 6.3c-.5-.2-2-3-3.4-5.7 1.6 1 3.8 3.7 4.8 5.2-.2.2-.7.6-1.4.5z"/><path d="M666 211.3s-2.5-8.3-5.4-6c-3 2-2.2 8-2.2 8s-6-6-2.6-11c3.5-4.8 10.3.5 10.3 9z" fill="#00a651"/><path d="M655.6 202.2c-3.6 5 2.5 11.3 2.5 11.4l.8.7v-1s-.8-5.8 2-7.8c.4-.3.8-.4 1.2-.3 1.7.6 3.3 4.7 3.7 6.2h.7c0-6-3-10-6-11-2-.6-3.6 0-4.8 1.8zm-.5 3.5c0-1 .4-2 1-3 1.2-1.6 2.6-2.2 4.2-1.7 2.2.7 4.4 3.6 5.2 7.6-.8-1.6-2-3.6-3.2-4-.6-.2-1.3 0-1.8.3-2 1.5-2.5 4.6-2.5 6.6v.8c-1-1.3-3-4-3-6.7z"/><path d="M672.8 228.4s0 1.6 1 2c1.2.6 3.2 1.3 3.2.4 0-1-1.5-4.6-2.2-4-.6.4-1.7.4-2 1.6z" fill="#964b36"/><path d="M674.6 226.4l-.5.3c-.5.3-1.3.6-1.5 1.7 0 0 0 1.8 1.3 2.4 2.2 1 3 .8 3.3.6.3 0 .4-.3.4-.6 0-1-1.2-4-2-4.4h-.8zm-.3 1l.7-.4c.4.2 1.7 3 1.7 3.8 0 0-.5.3-2.7-.6-.8-.4-1-1.5-1-1.7.3-.7.8-1 1.3-1z"/><path d="M671 218.7s-.4-7.2 4.3-10c0 0 1 .3 1.4-1 0 0-3.7 9-2.6 13.5v.6" fill="#00a651"/><path d="M676.4 207.5c-.4 1-1 1-1 1h-.2c-5 2.8-4.6 10-4.6 10.2h.7v-.2c0-1.3.2-7 4-9.4h.5c-1 2.4-2.3 6.8-2.3 10.3 0 .7 0 1.4.2 2v.5h.5l.2-.5-.2-2c0-4.7 2.8-11.5 2.8-11.6l-.6-.3z"/><path d="M672 210s8.3-17.7 18.7-11.6c0 0-10.8 2.2-14.8 10l-4 5.7v-4z" fill="#00a651"/><path d="M683.7 197.2c-7 2-12 12-12 12.6h-.2l.2 5.4 4.5-6.7c3.8-7.5 14.5-9.7 14.6-9.7l.8-.2-.7-.4c-2.4-1.4-5-1.7-7.3-1zm.2.6c1.8-.6 3.8-.3 5.7.6-2.7.7-10.7 3.3-14 9.8l-3.4 5V210c0-.5 5-10.2 11.6-12.2z"/><path d="M667.3 216.3s-2.5-11.7-4-13.3c-1.6-1.6-4.3-3.3-7.5-.6 0 0 5.5-5 11.3-.8 6 4 4.7 10.5 4.7 10.5l-.6 8.3-4-3.6" fill="#00a651"/><path d="M655.6 202l.5.6c2.3-2 4.7-1.7 7 .6 1.2 1.3 3.3 10 4 13.2h.6c-.2-1.3-2.5-12-4-13.6-1.4-1.3-2.7-2-4-2 2-.7 4.6-1 7.4 1 4 2.8 4.5 6.8 4.5 8.8v1.4l-.7 7.6-3.4-3.2-.5.5 4.4 4 .6-9s1.3-6.5-4.7-10.7c-6-4.2-11.6.7-11.7.8z"/><path d="M676.4 230.3s-10.3-19.6-17-5.6c0 0-1.4 3.6 0 5 0 0-3.7-2.8-2-9.7 1.7-7 13.2-3.8 16.5 1.8 3.2 5.7 4 8.5 3.7 8.8-.5.4-1.3-.3-1.3-.3z" fill="#00a651"/><path d="M662 215.8c-2.6.3-4.3 1.8-5 4-.2 1.4-.4 2.6-.4 3.6 0 4.4 2.4 6.4 2.6 6.5l.5-.5c-1-1-.4-3.8 0-4.7 1.4-3 3.3-4.8 5.3-4.8 5.5 0 11 10.4 11 10.5h.2c0 .2 1 1 1.7.4 1-.8-2-6.2-3.8-9.3-2.2-3.8-8-6.6-12.3-6zm-4.7 7.6c0-1 0-2 .4-3.4.7-2.5 2.7-3.4 4.3-3.6 4-.6 9.6 2 11.6 5.6 3.5 6 4 8 3.8 8.4 0 0-.5 0-.7-.3-.5-.7-6-10.8-11.7-10.7-2.3 0-4.4 1.8-6 5.2 0 0-.6 1.6-.6 3v.6c-.5-1-1-2.4-1-4.6z"/><path d="M705.6 236s7.6-15.6 12-8.5c0 0 1.2 3.5-.7 5 0 0-3-3.7-5.7.7s-1.6 4-1.6 4-2.8.8-4-1.2z" fill="#00a651"/><path d="M714.7 225.3c-4.3.3-9.2 10-9.4 10.5v.4c1.4 2.2 4.4 1.4 4.5 1.4l.5-.2-.5-.4c0-.2.2-1 1.8-3.7.7-1.2 1.6-2 2.5-2 1.5 0 2.7 1.3 2.7 1.3l.2.2v-.2c2.2-1.5 1-5 1-5.2-1-1.5-2-2-3.3-2zm0 .7c1 0 2 .5 2.6 1.7 0 0 .3 1 .3 2.2 0 .6-.2 1.3-.7 2-.6-.6-1.6-1.4-3-1.4-1 0-2 1-3 2.4-1.5 2.5-2 3.5-2 4h.2c-.8 0-2.3 0-3.2-1 .6-1.2 5-9.8 8.7-10z"/><path d="M717 232.4s4 2.2 2.6 6.6c0 0 5.5-10.6-2-11.5 0 0 1.4 3.3-.7 5z" fill="#00a651"/><path d="M717.3 227.6s1.2 3-.6 4.5l-.4.4.5.3s3.8 2 2.5 6.2h.6s3-6 1.3-9.6c-.7-1.2-2-2-3.7-2.2h-.6l.3.4zm1 2.3c0-1 0-1.5-.2-2 1.3.3 2.2.8 2.7 1.7.4.7.5 1.5.5 2.4 0 1.7-.5 3.5-1 4.8-.2-2.6-2-4-2.8-4.5.7-.7 1-1.6 1-2.4z"/><path d="M717.4 221.7s10 2.8 10.2 7c0 0 1.7-8-4-10.6 0 0-6.7 1.2-6.2 3.7z" fill="#00a651"/><path d="M717.4 220.4c-.3.4-.4 1-.3 1.4v.2h.3s9.7 2.8 10 6.8h.6s1.7-8.4-4.2-11c-.4 0-5 .8-6.4 2.6zm.5.4c1-1.6 5.7-2.4 5.7-2.4 3.2 1.5 3.8 5 3.8 7.5v1.2c-2-3.3-8.7-5.4-9.8-5.8 0-.2 0-.4.2-.6z"/><path d="M721.8 208.7c4.2-8.4 9.6 2.6 9.6 2.6s2-8.6-3.5-10.2c-5.4-1.5-9 18.5-9 18.5l-6 1.4s1.6-17.5 11-19h1" fill="#00a651"/><path d="M726 201l-1 1c0-.2.2-.3.2-.3h-1c-9.8 1.5-11.6 18.4-11.7 19.2v.3l7-1.5v-.3s1-6 2.8-11c1-1.7 2-2.6 3-2.6 3 0 5.8 5.4 5.8 5.5l.5.8.2-1c0-.3 2-9-3.7-10.5-.7-.2-1.4 0-2 .3zm-2 1.2h.7c-1.2 1.5-2.2 3.7-3 6 0 .2 0 .2-.2.3-1.5 4.7-2.5 9.8-2.7 10.7-.3 0-4.8 1-5.6 1.3.3-2.3 2.5-17 11-18.3zm2.3-.5c.5-.3 1-.4 1.5-.3 3 1 3.6 4 3.6 6.6 0 1 0 1.7-.2 2.3-1-1.7-3.2-5-5.8-5-.7 0-1.5.3-2.2 1 1-2.2 2-4 3-4.6z"/><path d="M714.3 213.7s-6-12.3-10-13.5c-4.2-1.3 2-3.2 4.6-.8 2.4 2.3 7.2 5.3 6.7 11.6l-1.4 2.7z" fill="#00a651"/><path d="M703.3 198.4c-.7.3-.8.6-.8 1s.6.8 1.6 1c4 1.3 10 13.3 10 13.4l.3.6 1.7-3.2c.4-5.7-3-8.8-5.7-11l-1-1c-1.7-1.5-4.7-1.5-6-.8zm1 1.5c-1-.4-1-.7-1-.8l.3-.2c1-.6 3.8-.6 5 .6l1.3 1c2.3 2.2 5.4 4.8 5.4 9.5v1l-1 2c-1.3-2.5-6.4-12-10-13z"/><path d="M708 230.5s2-8.3 6.6-11c4.7-2.4 9-1.4 9-1.4s-5.6 1.3-6.5 4.2c-.8 2.8-2.4 3-2.4 3l-6.5 5.3z" fill="#00a651"/><path d="M714.4 219.4c-4.8 2.5-6.5 10.7-6.6 11l-.2 1 7.2-6s1.6 0 2.6-3c1-2.7 6.3-4 6.4-4v-.7c-.2 0-4.6-1-9.4 1.7zm.3.5c3-1.6 5.5-1.8 7.2-1.7-2 .6-4.6 1.8-5.2 3.8-1 2.6-2.2 2.8-2.3 2.8l-5.8 4.8c.6-2.2 2.4-7.7 6-9.7z"/><path d="M705.6 236s-2.6 5-2 5.8c0 0-2.8 4-1.7 6 0 0 2.7 2.3 4 1.4 0 0 3.2-4.6 2.3-7 0 0 2.2-3 1.4-5 0 0-3.3.2-4-1.2z" fill="#964b36"/><path d="M705.3 235.8c-.7 1.4-2 4.3-2 5.6v.3c-.3.4-2 3-2 5 0 .6 0 1 .3 1.4.4.4 3 2.5 4.5 1.4.3-.2 2.8-3.6 2.8-6.3v-.8c0-.4 1.4-2.3 1.4-4 0-.4 0-.8-.2-1v-.3h-.3c-1 0-3.2-.2-3.8-1.2l-.4-.5-.3.5zm-3.2 12v-1c0-1.6 1.2-4 2-4.8v-.4c-.2 0-.2 0-.2-.2 0-.7.8-2.7 2-5 1 1 3 1.2 3.6 1.2l.2.6c0 1.6-1.6 3.7-1.6 3.7v1.2c0 2.3-2.3 5.7-2.3 5.8-.8.6-3-.8-3.6-1.3z"/><path d="M703.4 242s1.4 1.5 3 1.4c.8 0 1.6-.4 2.2-1l-.6-.5c-.4.4-1 .7-1.6.7-1.3 0-2.6-1-2.6-1l-.4.3z"/><path d="M801 253.5c-.3 0-.5.2-.6.4l.5-.5z" fill="#964b36"/><path d="M800.5 254l.5-.3-.2-.4-.5.4"/><path d="M812.4 250.6c0-.3-.2 0-.3-.3l-.4-1h-.4l-.8-1.7v-.3-.5c-.2 0-.3 0-.4-.2v-1-.4-.8l-.2-.5c-.2-.5-.4-1-.4-1.5v-1.3c.2-.5 0-.7 0-1.2v-1c.2-.6.2-1.2 0-1.7V236v-.3-.4-.7c0-.2.2-.5 0-.7v-.6c0-.3.2-.4 0-.7v-.6-1l-.2-.7v-.5-.7-.6 3l-.3-5.2-4.3-2s-.3 7.7-.2 8.8c0 1 .4 8.4.2 9.3 0 1-.6 5.4-.6 5.4s-2 1.4-2.7 3c-.8 1.6-.7 2-1 2l2-.2-1.4 1c.2 0 .5 0 .8.2l.3.2c.2 0 .3-.3.4-.4.3 0 .5.5.8.5.2 0 .4 0 .5-.3l.3-.5h1.4c.3 0 .6-.5 1-.8.3-.3.6-.4 1-.4.3 0 .7.4 1 .4.4 0 .6 0 .8-.2l.5-.8 1-.2.5.2h.8l.3.2.2-.5v-.4z" fill="#964b36"/><path d="M804.5 224.3c0 .3-.3 7.7-.2 8.7 0 1 .4 8.4.2 9.3l-.6 5.3s-2 1.4-3 3l-.6 1.8-.2.6h1.2c-.2 0-.6.4-.6.4l.2.3h.7l.4.4h.4v-.2s.2 0 .3.2c.2 0 .3.3.6.3l.6-.5v-.4H805.4l1-.6.2-.3.8-.3.5.2.7.2c.3 0 .6 0 1-.3l.3-.8h1 1.1c0 .2.3.3.5.2v-.3h.2v-.7l-.4-.4-.3-.4-.3-.5c0-.2-.3-.2-.4 0l-.6-1.5s0-.2-.2-.3v-.2-.6l-.3-.2v-2.1l-.2-.5-.4-1.5V239v-3.1-.3-1.8V232v-1.4l-.2-.2v-.3-.3-1.2-.4h-.2v-2.2l-4.4-2-.2-.2v.3zm-3.7 28.2l.6-1.7c.8-1.6 2.8-3 2.8-3l.7-5.5V241l-.3-8v-.6l.2-7.8 3.8 1.8v5.1h.4V242.3l.4 1.4.2.4v2.2l.3.3.2.3v.2l.2.5.7 1.6h.4l.2.3.4.5h.2v.8h-.8l-.6-.2-1.2.2-.3.5-.2.4c0 .3-.2.3-.5.2l-.5-.2-.7-.2-1 .4-.4.4-.7.4h-1-.4l-.3.4v.2l-.5.3-.2-.3c-.2 0-.4-.3-.7-.2l-.2.2v-.2h-.5l1-.8-.2-.4-1.6.3zm11.8-2zm0 1.2z"/><path d="M811.8 226c0 1.2-.7 2-1.7 2-.8 0-1.6-.8-1.6-2 0-1 .8-2 1.7-2 1 0 1.8 1 1.8 2z"/><path d="M808 226c0 1.4 1 2.4 2 2.4 1.2 0 2.2-1 2.2-2.3 0-1.2-1-2.3-2-2.3-1.2 0-2.2 1-2.2 2.4zm.7 0c0-1 .6-1.6 1.4-1.6 1 0 1.5.7 1.5 1.7s-.6 1.8-1.4 1.8c-.7 0-1.3-.8-1.3-1.7zM806.2 223.6c0 1-.8 2-1.7 2-1 0-1.8-1-1.8-2 0-1.2.8-2 1.8-2s1.7.8 1.7 2z"/><path d="M802.4 223.6c0 1.3 1 2.3 2 2.3 1.2 0 2-1 2-2.4s-.8-2.4-2-2.4c-1 0-2 1-2 2.4zm.7 0c0-1 .7-1.8 1.5-1.8.7 0 1.4.8 1.4 1.8s-.8 1.7-1.5 1.7c-.8 0-1.4-.8-1.4-1.7z"/><path d="M809.2 224.3c0 1.2-.8 2-1.8 2s-1.7-.8-1.7-2c0-1 .8-2 1.7-2 1 0 1.8 1 1.8 2z"/><path d="M805.4 224.3c0 1.3 1 2.4 2 2.4 1.2 0 2-1 2-2.4 0-1.3-.8-2.3-2-2.3-1 0-2 1-2 2.3zm.7 0c0-1 .7-1.7 1.4-1.7.8 0 1.4.8 1.4 1.7 0 1-.6 1.7-1.4 1.7-.7 0-1.3-.7-1.3-1.7z"/><path d="M806.3 226.2c0 1-.8 2-1.7 2-1 0-1.8-1-1.8-2s.8-2 1.8-2 1.7 1 1.7 2z"/><path d="M802.5 226.2c0 1.3 1 2.4 2 2.4 1.2 0 2-1 2-2.4 0-1.3-.8-2.4-2-2.4-1 0-2 1-2 2.4zm.7 0c0-1 .6-1.7 1.4-1.7.7 0 1.4.8 1.4 1.7 0 1-.7 1.7-1.4 1.7-.8 0-1.4-1-1.4-1.8z"/><path d="M809 227.8c0 1-.8 2-1.8 2s-1.7-1-1.7-2c0-1.2.8-2 1.7-2 1 0 1.8.8 1.8 2z"/><path d="M805.2 227.8c0 1.3 1 2.3 2 2.3 1.2 0 2-1 2-2.2 0-1.3-.8-2.4-2-2.4-1 0-2 1-2 2.4zm.6 0c0-1 .7-1.7 1.4-1.7.8 0 1.4.8 1.4 1.8s-.6 1.7-1.4 1.7c-.7 0-1.4-.8-1.4-1.7z"/><path d="M804 253.4h.7v.3h.3s0 .2.3.2h.9c.3.2.5 0 .7 0 .2-.4.4-.2.6 0 .3.3.2.3.4 0h.4l.5-.3s0-.2.3-.2l.5.2.3.2c.3-.5.7-.7 1-1l1 .2h.2c.2-.2.3 0 .5-.2 0 0 0-.2.3-.2s.6.4 1 .5c0 0 .7.3.6-.3 0-.5-.5 0-.6-.5v-.7c0-.3-.3-.5-.5-.5h-.4c0-.2 0-.6-.2-.8l-.4.2c-.2 0-.2 0-.3-.3-.3-.5-.5.2-.8 0-.2 0-.5-.6-.7-.8 0-.2-.4-.6-.5-.5-.2.3 0 .7-.2 1h-.5c-.2 0-.2 0-.4.3-.3.4-.5.8-1 .8 0 0-.3-.2-.5 0l-.5.2h-.6l-.5-.5h-.3-.2c-.3-.2-.2-.2-.3 0 0 .3 0 .6-.2.8l-.3.4c-.2 0-.3 0-.5.2-.2 0-.5.3-.6 0 0-.6.4-1.5-.2-1.3-.2 0-.3 0-.4.2v.7c0 .3-.8 1-.7 1.3 0 .3.4 0 .5 0 .2 0 0 .3.2.5.3.3 1-.5 1 0" fill="#964b36"/><path d="M810 249c-.3 0-.3.3-.3.4v.4h-.4l-.5.4c-.3.5-.5.7-.7.7v-.2h-.8l-.2.2h-.5l-.2-.2-.3-.2h-.2l-.2-.2h-.4l-.2.3v.3l-.2.4-.3.4h-.2l-.4.3h-.2v-.6-.3-.2c0-.2-.4 0-.4 0-.2 0-.4 0-.5.3l-.2.6v.3l-.3.4c-.2.4-.5.7-.4 1l.2.2h.6v.3c.3.2.7 0 1 0v-.2l.2-.4h-.5l-.3.3v-.2l-.3-.6-.4.2h-.2l.4-.6.4-.6v-.7c0-.2 0-.2.3-.2v1.4h.2c0 .2.3 0 .4 0h.4l.4-.3.4-.5v-.4h.2v-.3c.2 0 .3.2.3.2h.3l.4.4h.6l.4-.2h.7c.6 0 .8-.3 1-.7l.4-.3h.6v-.6-.2l.3.2.3.4.5.7c.4 0 .6 0 .7-.2h.2l.4.4s.2 0 .3-.2l.3.6h.4c.2 0 .3.3.4.4v.7c0 .3.3.4.4.4h.3v.2h-.6l-.4-.3-.8-.4v.2h-.2-.4c-.2 0-.3.2-.3.2h-.4c-.2 0-.5-.2-.7 0h-.4l-.6.7-.2-.2-.5-.2-.4.2h-.4l-.3.2h-.3v.3h-.2c-.3-.4-.6-.6-1-.3-.2.2-.3.2-.5.2 0-.2-.5-.3-.5-.3h-.7v-.2h-.2l-.7-.3v.4h.5v.2h.4l.3.3h.3l.4.2c.5.2.8 0 1-.2h.4c.3.4.4.5.7.3.2 0 .2-.2.3-.2h.6v-.2h.7l.4.3h.2l.6-.5.3-.2h1.6l.2-.2.4.2.4.3s.6.2 1 0v-.5c0-.4-.3-.5-.5-.5v-.8c-.2-.3-.5-.6-.7-.6h-.3v-.2l-.4-.6-.3.2h-.2-.2l-.4-.4-.6.2s0 .2 0 0l-.5-.4-.3-.3c-.2-.3-.5-.7-.8-.5z"/><path d="M801.3 250.3l-.6-.3-.5.5c-.3.5-.3 1.3-.8 1.3h-.6c-.2 0 0 .5 0 .8v.4s-.2 0-.3.2c0 .5.3.4.5.3h2c0-.2.5-.2.6-.3l.2-.5v-.6c0-.2.4 0 .4-.4 0-1-.8-.2-.7-1" fill="#964b36"/><path d="M800 250.4l-.2.7c-.2.5-.2.6-.4.6h-.7c-.2.2-.2.5 0 .8v.5l-.4.2v.4l.6.2h1.3l.6-.2h.2l.5-.3.3-.6v-.5l.4-.6c0-.6-.3-.7-.5-.7-.3-.2-.3-.2-.3-.5h-.4v.2c0 .4.3.5.5.5 0 0 .2 0 .2.2v.2l-.3.5V252.7l-.2.4h-.4v.2l-.7.2h-1.6c0-.2.2-.3.2-.3v-.2-.2-.2-.3h.2c.7 0 .8-.5 1-.8v-.6l.6-.4.4.2v-.4l-.5-.2c-.3 0-.7.6-.7.6z"/><path d="M809.8 205.5s17.4-24.4 36 1c0 0 .3 2.4-1.4 5l-.5-2-1.2.4-.3-1.4h-2l.6-2.8-2 1.7.2-2-2.5 2.7.3-5.4-2.7 4.6.3-3.2-1 1.4-.5-1.8-.7 1.8-1.3-1v1.4l-2.2-2-.8 2.6-1-2.7-.4 1.8-1-2.2-.2 2.4-3.7-1.6.8 2.2-1.7-1.3.3 1.3-2.2-.5v1.5l-2.4-.4.5 1.3-3.6-.5 1.3 1.5-.4.5s19-6.2 20.2 17.4L831 229l1-2-1-.6-2.8-2.2.8-3-1 .3v-1.7l-.6.3-1-1.6-.4.6-.8-2-.8 1.4-.5-3.5-1.3 2-.2-1-.5.6-1.5-1.8-.5 1.2-.6-1-.5 1.2-1.8-1.6v1.3l-1-1-.6.5-2.7-1.4-.2 1.4-1.4-1.3-.5 1.4s17 9.7 11.7 25.6l-1 2-.3-5.3-1.5 2.8 1-6-1 1-.3-2.4-1.4 2.5-.5-2.7-.6.8-1-4-.8 1.7-1.2-4.6-1 2-.6-4-.6 2.3-2-3.4-.2 1.4-1-3-.7 1s-3 0-4-1c-1-.6-3.6 5-3.6 5l.3-3.4-1 2.2v-2.2l-2.2 6.6-.4-4.8-1 4-.5-1-.3 1.6-.6-.6-.6 1.8-1-.7v2.5l-1-1.3-.7 3.8-.5-1.6v1.7l-.8-1-.8 3.8-1-1.6-.2 2.6.4 2-1.2-.6.5 3.3s-5-9 1-18c5.7-8.7 13.6-11 13.6-11l-.8-.8-.2-.8-4.7 2.3.2-1.4-1.3 1-.3-1.5-.8 1.6-.2-.7-1 1.7-.7-2.6-.8 3-.7-2-1.6 4.5v-3.3l-1.3 3.4-.4-3.7-1 4.3v-4l-1.3 4-1-3.8-.6 3.6-1-2.7-1 4.2-1.3-3.8-.8 5.7-1-2.2v4l-1.2-2.4 1 5.3-1.3-2 .6 3.4-2-3.6v4.2l-1-1.4-.5 1.6s-.3-16.4 10.8-19.5c11.2-3.2 18.4 1 18.4 1L799 208l.4-1H798l.5-1.4-3.3.2 1-1.3-2.6.3v-.8l-1.6 1.3.7-1.4-2.2 1.5-.2-2-1 1.7-.7-2-5 5 1.4-5-1 1v-1l-1.5 2-.3-1.4-.7 2-.4-2.3-1 2.2-1-2-.6 2.6-.8-1.4-1 2-1.2-1.3-.2 1.2-2.5-1.2.7 2-2-1.7-.4 2.6-1-1.2-1 3-.7-3-.8 2.5s10-25.3 34.7-9c0 0 2.7 2.8 3.4 4.7.6 1.8 0 .3 0 .3l-.4-17.5 1 7.6.6-2.6v4l2.4-5.6s-3 9-2 12.4c0 0 1.2-10.5 5-11.7l-3.5 7.5 1-.2-.7 1.6h1l-1.2 2.5-.6 1.2.7 1.2.8-1z" fill="#00a651"/><path d="M805 188.5l.3 16c-1-1.7-2.7-3.5-2.8-3.6-8-5.4-15-7-21.4-5-6.5 2-10.5 7.8-12.4 11l-.2-.6-1.2 3.4.7.2s0-.5.4-1l.7 3s1-3 1-4l1.2 1.4.5-2.7 2.3 2-.7-2.3 2.2 1s0-.7.2-1l1 1 1-1.8 1 1.7.3-2.7 1 1.8 1-2c0 .7.5 2.5.5 2.5l.6-2 .3 1.2 1.4-2v.8l.6-.5-1.4 5 5.5-5.6c0 .5.6 2 .6 2s.8-1 1-1.5l.2 1.6 1.7-1c-.2 0-.3.4-.3.4l.6.4 1-1v.6l2-.3c0 .4-.8 1.3-.8 1.3h3.4l-.7 1h1.6l-.4 1 2.7 2.2c-3-1-8.8-2.4-16.6-.2-11.2 3.2-11 19.7-11 20h.8s0-.6.2-1l1.4 1.7v-4c.5 1.2 1.3 2.5 1.3 2.5l.6-.2-.3-2 .6 1 .6-.3-.7-2.6h.6v-2.7c0 .4.8 2 .8 2l.8-5.6 1.3 3.7.8-4.2 1 3 .6-3.4.8 3.4 1.2-3.2v2h.6l.6-2.3.2 1.7h.6l.6-1.6v1.5h.7s1-2.4 1.3-3.5l.8 2.2.7-2.7.5 2 1-1.7c.2 0 .3.6.3.6l.7-1.3.3 1.3 1-1v1.3l4.8-2.5v.5c.2 0 .4.4.7.6-2 .8-8.4 3.6-13.4 11.2-2.2 3.3-3 6.7-3 9.7 0 4.7 2 8.4 2 8.4l.7-.2-.4-2.6c.3 0 1.3.6 1.3.6l-.7-2.7V238c.4.3 1 1.3 1 1.3l1-4c0 .3.8 1.3.8 1.3v-.4l.3.7 1-4.5 1 1.5v-3l1 .8.4-1.8.7.7.2-1.2.4 1 1-3.2.2 3h.7l1.3-4.6.6.2s0-.5.2-.7c0 .8-.2 1.5-.2 1.5l.7.2c1.2-2.5 2.6-4.6 3-4.6 1 .8 4 1 4.4 1h.2l.4-.5 1.3 3 .2-1.5 2 3.4.3-1.7.6 3.4 1-2 1.4 4.5.7-1.6c.4 1 1 3.8 1 3.8l.6-.8c0 .8.5 2.8.5 2.8l1.4-2.2.2 2 .8-.8-1 5 .7.3 1.2-1.8.3 5.4 1.5-3.3c.7-2 1-4 1-6 0-11.7-11.4-19-12.7-19.8 0 0 0-.3.2-.5l1.5 1.3.2-1.4 2.5 1.4.4-.6 1.5 1.2v-1.2l1.5 1.3.4-1 .7 1 .6-1.3 1.5 1.8.3-.3.2 1s1-1.4 1.2-2l.5 3.4 1-1.7.7 2 .3-.7 1 1.6.3-.2v1.6l1-.3-.8 2.6 3 2.3.7.5-1.3 2.6 4.6-2.2v-.3c-.4-7.6-2.8-13-7-16-5-3.2-10.7-2.2-12.8-1.7l-.7-1c1 0 3 .4 3 .4l-.4-1.2c.6 0 2.3.4 2.3.4s0-1-.2-1.5l2.6.5-.3-1 2 1.5-1-2.5 3.4 1.5V205l1 2 .4-2 1 2.6 1-3 2.3 2v-1.2l1 .8.7-1.5.6 1.7.5-1v2h.6l2-3.2-.3 4.8 2.4-2.4-.3 1.7s1.5-1 2-1.6c0 .7-.4 2-.4 2l2.2.2.3 1.3 1-.3.7 2.5.4-.7c1.8-2.7 1.7-5.3 1.7-5.4-5.8-8-12-11.8-18.6-11.8-10.4 0-18 10.4-18.2 10.7l-.6.6-.4-.8c0-.3 2-4 2-4h-1l.8-1.8s-1 0-1 .2c.3-1 3.4-7.7 3.4-7.7h-.7c-2.6 1-4 5.8-4.6 9 .4-3.8 2-9 2-9l-.5-.3-2 4v-2.3h-.5l-.2.8-.7-5.7h-.7zm4 18.2l1-1s7.6-10.3 17.7-10.4c6.3 0 12.3 3.8 18 11.3 0 0 0 2-1.2 4l-.4-1.4-1 .3-.3-1.2h-2l1-3.4-2.4 1.7.4-2-2.7 2.6.3-4.5h-.6s-1 1.8-2 3l.3-1.5-.7-.3-.5 1-.6-2s-1 1.7-1 2c-.4 0-1.5-1-1.5-1v1.2l-2-1.7-.7 2-1.2-2.8-.4 2-1-2.4-.3 3.2-3.8-1.7.6 2-1.5-1.3.4 1.7-2.3-.5v1.4l-2.5-.4s.2 1 .4 1.3l-3.8-.6 1.7 2-.7 1 .8-.2s7.4-2.4 13 1.5c4 2.7 6.3 8 6.7 15.3l-2.2 1 .6-1-1.2-1-2.6-2 .8-3.3-1 .4-.3-1.8-.5.4-1.2-2-.3.6-.8-2-.6 1c0-1-.5-3.3-.5-3.3l-1 2-.3-1-.7 1-1.6-2-.5 1.3-.7-1-.5 1.3-2-1.8v1.3c-.2 0-.8-.6-.8-.6l-.5.7c-.4 0-2.8-1.4-2.8-1.4s0 .8-.2 1l-1.3-1-.7 2h.2c.2.2 12.7 7.4 12.7 19.4 0 1.8-.3 3.8-1 6l-.4.7-.3-5.2-1.2 2 1-5s-1 1-1.4 1.2V232s-1 2-1.5 2.5l-.5-2.5s-.6.7-.6 1l-1-4.5-1 1.8-1-4.5-1 1.7-.4-3h-.7l-.4 1.6c-.6-.8-2-3.4-2-3.4l-.3 1.2-1-2.4-.8 1.3c-1 0-3-.3-3.8-.8-.2-.3-.4-.3-.6-.3-.8.2-2 2-2.7 3.5v-1.6l-.6-.2-.5 1v-.8h-.7l-1.6 5c0-1.5-.3-3.2-.3-3.2h-.6l-1 3-.4-1.4-.4 2.3-.6-.6-.6 2-1-1v2.3l-1-1-.6 3v-.2h-.7v1c0-.2-.7-.8-.7-.8l-.7 3.6-1.2-1.7-.2 3.6.4 1.4-1.2-.6v.7c-.3-1.3-.7-3-.7-5 0-3 .8-6.2 3-9.4 5.5-8.6 13.3-11 13.4-11l.5-.2-1.3-1.2v-1l-4.7 2.2.2-1.6s-1 1-1.5 1.3l-.4-1.8-.8 1.4v-.5s-1 1.3-1.2 1.8l-.8-3-.8 3.2-.7-2-1.3 3.6v-1.4h-.6l-.7 2-.3-2.4h-.7s0 .7-.3 1.3v-.7h-.6l-1 2.8-.7-2.6h-.7l-.4 2.3-1-2.7-.8 4.3-1.5-4-.8 6-.5-1.2-.6.2v2.6l-.6-1.2-.7.2 1 3.8-.6-.7h-.6s0 1 .2 1.6l-1-2-.8.2v3.2c0-.3-.5-1-.6-1 .3-4.5 2-14.6 10.3-17 10.8-3 18 1 18 1l.4-.6-4-3.3.5-1.3h-1.6l.7-1.3-3 .2c0-.3 1-1.3 1-1.3l-3 .3v-1s-1 .6-1 .8l.4-1.2-2.6 1.7-.2-2.7-1.3 2-.6-1.6-4.5 4.5 1-4-.5-.3-.4.5-.2-1.3-1.4 2.3-.4-2-.6 2c0-.6-.4-2-.4-2l-1.2 2.4-1.3-2.4-.5 2.7c0-.3-.6-1.2-.6-1.2l-1 2.3-1.4-1.4-.2 1.4-2.8-1.2.5 1.5-1.4-1.2-.5 2.4-1-1.3-.7 2.5c0-.6 0-.8-.2-1.2 1.7-3 5.7-9.2 12.5-11.3 6-2 13-.4 20.7 4.7 0 0 2.6 2.6 3.2 4.4.4 1.2.5 1.2.8 1 .2 0 .2 0 .2-.2v-.2c0-.2 0-.3-.2-.5 0-.4 0-6-.2-10.6v.7h.6v1.3l.6.2.7-1.6c-.5 2-1 4.4-1 6.3 0 .8 0 1.5.3 2h.6s.2-1.8.7-4h1l-.8 1.4h1l-1.6 3.5.8 1.8.3-.3zm2.4-13.3l-3 6.4c.6-2.5 1.5-5.2 3-6.4z"/><path d="M806.5 207.2v.6l1-.5c0 .3-.8 1.4-.8 1.4l1.8-.6c-.7 1.2-2.2 3-2.2 3l.5.5 3.6-4.7-2.2.7 1-1.6-2 .7c0-.8.4-2.4.4-2.4h-.6l-.5 3z"/><path d="M803 207.4l1 1.7-1.3-.4 3.6 6.4.5-.6-.8 2h.7l1.5-4-.6-.2-1.2 1.6-2.2-4 1 .5-1-2.2 1.4 1v-2.4h-.7v1c-.6-.2-2.3-1.2-2.3-1.2l.4 1zM800.8 215.4l.3.6c1-.4 2-.5 2.5-.2.7.4 1 1 1 1h.6s-.2-1-1.2-1.6c-.8-.3-1.8-.3-3 .2zM807.2 215.7l.5.5s1.6-1.8 4.2.5l.4-.6c-3-2.5-5.2-.3-5.2-.3z"/><path fill="#00a651" d="M804 222l-.6-3.4"/><path d="M803.6 222.2l-.5-3.6h.8l.5 3.5z"/><path fill="#00a651" d="M808 219l.8 2.5"/><path d="M808.5 221.7l-1-2.7.8-.2 1 2.6z"/><path fill="#00a651" d="M810 221l.6 2.5"/><path d="M810.2 223.7l-.7-2.7.7-.2.7 2.7z"/><path d="M676.2 304.2s-3-1.3-4.3-.4c-1.4 1-1.3 2.5-2.4 2.4 0 0 4.4 1 5.4-.2l1.2-1.5" fill="#00a651"/><path d="M671.7 303.6l-1.2 1.5c-.4.7-.5 1-1 .8v.7c.5 0 4.7 1 5.8-.3l1.2-1.6-.4-.2.3-.5c0-.2-3-1.5-4.6-.4zm-.7 1.8l1-1.3c1-.5 3 0 3.8.4 0 .2-1 1.4-1 1.4-.5.6-2.5.5-4.2.2l.4-.6z"/><path d="M676.7 305.4s-2 2.6-1.3 4c.7 1.7 2 1.8 1.8 3 0 0 2-4.2 1-5.4l-1.2-1.5" fill="#00a651"/><path d="M677 305.6c-.2 0-.6-.4-.6-.4s-2 2.8-1.3 4.5l1.4 1.5c.4.4.6.6.5 1l.5.2c.2-.4 2-4.3 1-5.6l-1.3-1.6-.3.4zm-.2 5l-1-1.2-.2-.6c0-1 .8-2.3 1.2-3l1 1.4c.3 0 .3.4.3.7 0 .8-.3 2-.7 3.2l-.5-.5z"/><path d="M673.5 298.3s-3 1-3.5 2.5c-.3 1.7.7 2.6-.2 3.3 0 0 4-2 4-3.6s-.2-2-.2-2" fill="#00a651"/><path d="M669.7 300.8v2c.2.6.2.8 0 1l.3.6c.4-.2 4-2.4 4-4v-2h-.5v-.5c-.3 0-3.4 1-3.8 2.8zm.7 1.8V301c.2-1.2 2-2 3-2.3v1.7c0 .8-1.5 2-3 3v-.8z"/><path d="M675.3 299.3s1.4-3 .5-4.2c-1-1.3-2.3-1.2-2.2-2.4 0 0-1.2 4.5 0 5.5l1.4 1.3" fill="#00a651"/><path d="M673.3 298.3l1.5 1.3.3-.4.6.3s1.5-3 .5-4.6l-1.4-1.4c-.5-.4-.7-.5-.7-1h-.7c-.2.4-1.2 4.6 0 5.7zm.5-.5c-.3-.2-.4-.8-.4-1.5 0-.8 0-1.7.3-2.6l.6.4 1.2 1.2c.2.3.3.7.3 1 0 1-.4 2-.7 2.7 0-.2-1.2-1.2-1.2-1.2z"/><path d="M672.2 298.3s0-3.3-1.3-4c-1.6-1-2.8-.2-3.2-1.3 0 0 1 4.5 2.3 5l2 .4" fill="#00a651"/><path d="M667.5 293c0 .5 1 4.7 2.5 5.2l2 .5v-.4h.6c0-.2 0-3.5-1.6-4.4l-1.8-.6c-.7 0-1 0-1-.5h-.7zm2.7 4.6c-.7-.2-1.4-2-1.8-3.7h.7l1.7.5c1 .5 1.2 2.5 1.2 3.5l-1.8-.4zM676.7 305.5l.3 2.8h.5l-.4-2.8 1.3-6-.5-.2-1 6.2z"/><path d="M712 305.2c2.6-1.4 3-6.4 3-6.4-.5 2-5.2 3.7-5.2 3.7 3.4-2 7.6-11.7 7.6-11.7-1 3.4-10 6.2-16 9.5-5.7 3.2-2.6 12.5-2.6 12.5-1.6-1-4.8-6-5.4-10.4-.6-4.4-2.3-6-6.3-6.6-3.8-.5-6 4-6 4l-6 3 6 .2s4.2 1.4 4.2 4.8c0 3.3-3.7 16.6 2.4 24 4.3 5.3 20.2 8.3 20.2 8.3" fill="#fff"/><path d="M717 290.6c-.8 2.2-5.3 4.3-9.7 6.3l-6 2.8c-3 1.7-3.8 5-3.8 7.7 0 1.4.2 2.7.4 3.7-1.7-2-3.6-5.6-4-9-.7-4.4-2.6-6.3-6.8-7-4-.4-6.4 3.6-6.7 4.2l-7.4 3.8 8 .3s3.7 1.3 3.7 4.3l-.3 3c-.3 2.3-.8 5.5-.8 8.8 0 4.4.8 9 3.7 12.6 4.3 5.3 19.7 8.3 20.4 8.4l.2-1c-.3 0-16-3-20-8-2.7-3.2-3.4-7.7-3.4-12 0-3.2.4-6.4.7-8.6l.4-3.2c0-3.7-4.4-5.2-4.6-5.3H677l4.4-2.4s2.3-4.2 6-3.7c3.6.5 5.2 2 5.7 6.2.5 4.3 3.7 9.5 5.5 10.7l1.2.8-.5-1.3s-.7-2.5-.7-5c0-2.7.6-5.6 3.2-7l6-3c3-1.3 6-2.7 8-4.2-1.6 3-4 7.3-6 8.6l.3 1c.3-.2 2.7-1.2 4.2-2.4-.3 1.5-1 3.4-2.4 4.2l.5.8c2.7-1.5 3.2-6.5 3.2-6.7l-1-.3c0 .7-1 1.4-2.3 2 3-3.5 5.5-9.4 5.6-9.8l-.8-.4z"/><path d="M700.4 315.5s1.2-6 5.2-5.7c4 .2 5-4.5 7.3-5.2 2.3-.7 14.3-4 15.6-9.7 0 0-1 9.4-12 14.2 0 0 8.8-3 9.8-5 0 0-4 8.6-13.6 10 0 0 9-.8 10.4-3.2 0 0-4 5.4-10.8 6 0 0 6.2 2.6 7.8.5 0 0-3.3 4-7.5 4.2l1.2.3s-4 4.7-8.4 1.5c-4.4-3-4.5.8-4.5.8" fill="#fff"/><path d="M713.3 304l-.5.2c-1 .3-1.8 1.2-2.7 2.3-1 1.4-2.3 3-4.4 2.8-4.3-.2-5.6 6-5.7 6l1 .3s1-5.5 4.5-5.3c2.7 0 4.2-1.8 5.4-3.2.6-.8 1.3-1.7 2-2h.5c2.8-1 10-3 13.6-6.7-1.2 3-4.2 7.6-10.7 10.4l.3 1c.7-.3 5-1.8 8-3.4-2 2.6-5.6 6.5-11.8 7.4v1c.7 0 4.4-.5 7.3-1.4-1.7 1.4-4.4 3-7.6 3.3l-2 .2 2 .7c.3.2 3.3 1.4 5.7 1.3-1.2 1-3 2.3-5.3 2.4v1h.2c-1.2 1-4 3.2-7.2 1-1.6-1.3-3-1.6-4-1.2-1 .6-1.2 2.3-1.2 2.3h1c0-.3 0-1 .7-1.4.6-.4 1.7 0 3 1 4.6 3.3 9-1.6 9-1.7l.4-.5c3.2-1 5.8-4 6-4l-.8-.6h-.2c-.8 1-3.5.6-5.5 0 5.7-1.4 9-5.7 9.2-6l-.7-.5c-.5 1-2.2 1.5-4 2 5.4-3 8-8 8-8.2l-.8-.4c-.4.8-2.3 1.8-4.5 2.7 6.5-5 7.6-11.4 7.6-11.7l-.8-.2c-.8 3.4-5.8 6.5-15 9.2z"/><path d="M709.4 324.5s5 8.5 5.6 13c0 0 9.7 10.8 13.3 11.4 0 0-1.7.6-4.8-2 0 0 2.6 2.7 3 2.8.6 0-2-.2-2.4-1 0 0 1.2 1.8 2 2l-.8-.2s-1.3-.3-2-.8c-.5-.5 0 1.4 0 1.4s-1.7-.5-2.2-1c-.5-.5.2 1.2.2 1.2l-1.3-.3-1 .7s0 .6-.7 0c-.6-.4-1.7 0-1.7 0s-.8.8-1.2.3c-.4-.5-2 2-2 2l-6.3-15.5" fill="#fff"/><path d="M709 324.8s5 8.5 5.5 13c.4.4 5 5.6 9.2 9l-.6.5 1.4 1.4-.7.5.3.5s-.3 0-.4-.2c-.4-.3-.7-.2-.8 0 0 0-.4 0-.4.7v.3l-1-.6-.3-.4-.4.2-.2.4v.5l-.6-.2-1.2.8c-.8-.6-2 0-2.2 0-.3.3-.6.4-.7.4v-.2h-.5c-.4 0-1 .5-1.6 1.4l-6-14.7-1 .4 6.7 16.3.5-.8c.6-1 1.2-1.7 1.5-1.8l.4.2 1.2-.5h1c.3.4.7.5 1 .4.3 0 .4-.4.5-.7l-.2.4.7-.4 2 .4-.3-.8 1.2.4.6.2v-1.4c.6.4 1.4.6 1.5.6l1.2.3.3-.4v-.3c0-.2 0-.3-.5-.4h.8l1.3-.4-1.3-.6c1 .2 1.7 0 1.8 0l1.6-.7-1.6-.2c-2.8-.5-10.3-8-13-11-.6-4.8-5.4-13-5.6-13.2l-.8.5z"/><path d="M715.4 352.4l-8-15.3.8-.4 8 15.4zM722.5 351.3L708.7 336l.7-.8 13.8 15.5zM725.6 350L710 335.5l.6-.7 15.7 14.6zM680.6 300l.6 1-.6 2h.4l.7-2-.6-1.3-.4.2zM686.2 300.7s-1-1.8-2-1c-.8.5-1.3.7-1.5.6 0 0 1 0 1.4-.4.6-.6 1.5-.3 2.2.7z"/><path d="M686 300.4s-.8 1-1.8.7l-1-.2h1.4c.6 0 1.3-.2 1.4-.4z"/><path d="M685.7 300.6s-1-1-1.6-.7c0 0 1.3-.5 2 .5h-.3z"/><path d="M685.6 300.4s-1 .8-2.3 0v-.2s1.6.6 2.3.2z"/><circle transform="translate(527 -12.1)" cx="157.6" cy="312.3" r=".3"/><path d="M685.5 328.5s-.8 1.5-.4 2.5c.5 1 2.5 1.3 2.8 2.6.2 1.2 1 1.2 1.8 1 1 0 1-.2 1-.2s-3.7-2-4.7-5.4l-.5-.5zM673.6 304.6l-.2.4c1.6.6 4-1.2 4-1.2l-.3-.4s-2 1.7-3.4 1.2z"/><path fill="#00a651" d="M678 300.7l-7.6-3.8"/><path d="M677.8 301l-7.6-4 .4-.5 7.5 4z"/><path fill="#00a651" d="M673.6 298.4L672 300"/><path d="M672.4 300l-.5-.4 1.4-1.5.4.6z"/><path fill="#00a651" d="M675.3 299.3l-1.6-3.5"/><path d="M675 299.5l-1.6-3.5.6-.3 1.6 3.5z"/><path d="M677.5 303.7s3.4-1.2 3.7 2.5c.2 3.6-.2 2.4-.2 2.4s-1.8-4-3.8-4.6l.3-.3z" fill="#00a651"/><path d="M677.4 303.3l-.7 1h.4c2 .6 3.7 4.4 3.7 4.4 0 .4.4.4.5.4.3 0 .5 0 .3-3 0-1-.5-2-1.2-2.4-1.2-.8-2.8-.3-3-.3zm2.5.8c.5.5.8 1.2.8 2.2v1.5c-.5-1-1.7-3-3-3.7.2 0 1.3-.4 2 0z"/><path d="M677.2 303.7v.7c2-.2 2.6 1 2.6 1.2l.7-.2c0-.4-1-2-3.3-1.7z"/><path d="M810 297.4s7-9.3 13.3-6.8c6.2 2.4 10.3 3.6 10.3 3.6s0 6.2-3.2 6.2c-3.3 0-6.5-6.2-9.5-4.4-3 2-5.6 4.4-5.8 5.3-.2.8-8 1-5-4z" fill="#964b36"/><path d="M810 297.3c-1 1.3-1 2.4-.3 3.3 1 1.4 3.6 1.5 4.8 1.2.6 0 1-.3 1-.5 0-.8 2.5-3.3 5.5-5 1.6-1 3.2.3 5 1.8 1.4 1.3 2.8 2.6 4.4 2.6.7 0 1.3-.3 1.8-.8 1.6-1.7 1.6-5.5 1.6-5.6v-.2h-.2s-4-1.2-10.2-3.6c-6.3-2.5-13.2 6.5-13.5 7zm13.2-6.6c6 2.3 9.8 3.5 10.2 3.6 0 .6 0 3.8-1.5 5.2-.5.5-1 .7-1.6.7-1.4 0-2.8-1.2-4.2-2.4-1.8-1.5-3.6-3-5.4-2-3 2-5.5 4.4-5.8 5.4 0 0-.4.3-1.2.3-1.5 0-3.3-.2-4-1.3v-1c0-.4 0-1 .4-1.7.2-.2 7-9 13-6.8z"/><path d="M790.5 305.5s0-13.3 11-12.7c2 .2 1 2.6 1 2.6s2.5-1.6 3.5 1c0 0 3.5-1.6 3.8 1.8 0 0 3.8-.4 3.3 2.6 0 0 2.6-.6 2.5 1.5 0 0 3-1 2.7 2 0 0 3.2-2.3 2.7 1.6 0 0 3.3-2.4 4.4 1.5 1.2 4-3.3 12-7.7 14.3" fill="#fff200"/><path d="M794.4 295c-4 3.7-4 10.5-4 10.5h.2s.2-6.6 4-10.2c1.8-1.7 4-2.5 7-2.3.4 0 .7.2 1 .5.3.7-.2 1.8-.2 2l-.2.5.5-.4s1-.7 2-.4c.4 0 1 .6 1.2 1.3v.2s1.7-.8 2.7-.2c.5.3 1 1 1 1.8v.2h.2s1.7-.3 2.5.6c.4.5.5 1 .4 1.7l-.2.3h.3s1.3-.3 2 .2c.2.3.4.6.3 1v.4h.3s1.3-.6 2 0c.3.2.5.8.4 1.6v.4l.3-.3c.4-.2 1.4-.8 2-.4.4.2.6.8.4 2v.3l.3-.2s1.5-1 2.7-.5c.7.3 1.2 1 1.5 2 1.2 3.8-3.2 12-7.6 14l.2.4c4.5-2.2 9-10.6 7.8-14.6-.4-1.2-1-2-1.8-2.2-1-.4-2.2 0-2.7.4l.2-.4c0-.8-.3-1.4-.7-1.6-.7-.5-1.7 0-2 .2 0-.7-.3-1.3-.7-1.6-.7-.5-1.7-.2-2 0-.2-.6-.3-1-.6-1.3-.7-.6-1.6-.5-2-.4v-.3c0-.6 0-1-.4-1.5-1-1-2.5-.8-2.8-.8-.2-1-.5-1.5-1-2-1.2-.5-2.6 0-3 .2-.2-.7-.7-1.2-1.3-1.4-.7-.2-1.4 0-1.8.2v-.8c0-.3 0-.6-.2-1-.3-.3-.7-.5-1.3-.6-3 0-5.3.7-7 2.4z"/><path d="M820.7 306.3s1.4 10.5-4.4 14.2l.2.4c6-4 4.6-14.6 4.6-14.7h-.3zM813.6 317.6l.3.3c3.6-3.7 4.4-13.4 4.4-13.8h-.3s-.8 10-4.4 13.4zM810.2 315.3h.4c.4-6 5-12.8 5.2-13h-.3s-4.8 7-5.3 13zM807.5 313.6h.3c.7-7.2 5.5-12.6 5.5-12.7l-.3-.4s-5 5.6-5.5 13zM803.7 311.2h.3c.4-8.6 6-12.8 6-12.8v-.3c-.2 0-6 4.4-6.3 13.2zM800.2 309h.3c-.2-7.7 5.7-12.4 5.8-12.4l-.2-.4s-6 5-5.8 12.8zM794 306.2h.2c1-8.4 8.6-10.6 8.6-10.6v-.4s-8 2.3-9 11z"/><path d="M783.4 342s-2 2-1 2.5 2.6 0 2.6-.8c0-.7-1.2-2-1.6-1.7z" fill="#964b36"/><path d="M783.3 341.7c-.3.3-1.6 1.7-1.5 2.5 0 .3.2.5.4.6.7.4 1.8.2 2.5-.2.4-.2.6-.5.6-1 0-.6-.7-1.5-1.3-1.8-.2-.2-.5-.2-.7 0zm-.8 2.5c0-.5.6-1.3 1-2 .4.2 1.2 1 1.2 1.5 0 0 0 .2-.3.3-.5.3-1.4.5-2 .2z"/><path d="M782 344s-3.7-2-6.5 2.7c-2.8 5-5.2 12.8-6.8 13.8-1.7 1 16-7.7 16.2-11.4 0 0 1-4.7-.8-4.6-1.8 0-2 .3-2.3-.5z" fill="#964b36"/><path d="M775.2 346.6c-1.3 2.2-2.5 5-3.5 7.4-1.2 3-2.4 5.7-3.2 6.3v.7c1-.2 16.6-8.2 16.7-12 0-.2 1-3.4 0-4.5-.3-.3-.6-.5-1-.4h-1c-.8.2-.8.2-1-.2v-.2c-.2 0-4-2-7 3zm-3 7.7c1.2-2.5 2.3-5.2 3.6-7.4 2.5-4.5 5.7-3 6-2.8.3.6.6.7 1.6.6H784.6c.3.4.3 1 .3 1.5 0 1-.2 2-.4 2.7-.2 2.7-11 8.8-14.8 10.7.8-1.2 1.6-3 2.5-5.4z"/><path d="M784 321.7s-1.8-12.4 5.6-16.3c0 0 1.3-.3 2 1.5 0 0 4-1.8 4 1.5 0 0 2-1.5 2.5.6 0 0 4.3-.7 3.5 2.4 0 0 3.5-1 3.2 2 0 0 3.5-1.3 3 1.4 0 0 3.6-1 2.8 2 0 0 4.5-.4 3.2 2.8 0 0 3.4-1 2.6 1.8 0 0 4.5.8 2.4 3.6-2 2.8-7.2 7-12.2 9" fill="#00a651"/><path d="M789.5 305.3c-7.4 4-5.7 16.3-5.7 16.4h.4c0-.2-1.7-12.3 5.5-16 0 0 1-.3 1.8 1.3h.3s2-.7 3 0c.4.2.7.8.7 1.6v.3l.3-.3s1-.7 1.5-.5c.3 0 .5.5.6 1v.2h.2s2-.5 3 .3c.2.4.3 1 0 1.6v.3h.4s1.6-.5 2.5.2c.5.3.6 1 .5 1.6v.3h.3c.5-.3 2-.7 2.5-.2.2.3.3.7.2 1.2v.3h.2s1.7-.4 2.4.3c.4.3.5.8.3 1.6h.2s2.3 0 3 .8c.3.4.3 1 0 1.7l-.2.4.4-.2c.5 0 1.8-.3 2.3.2.2.3.3.7 0 1.3v.2h.3s2.2.5 2.7 1.6c.2.6 0 1.2-.4 2-2.2 2.8-7.3 7-12.2 8.7v.4c5-1.7 10.3-6 12.5-9 .3-.4.5-1 .5-1.4 0-.2 0-.4-.2-.6-.5-1.2-2.3-1.7-2.8-1.8v-.5c0-.4 0-.7-.2-1-.6-.6-1.8-.4-2.4-.3v-.8c0-.4 0-.7-.2-1-.7-1-2.6-1-3-1v-.5c0-.4 0-.7-.4-1-.7-.7-2-.6-2.5-.5v-.3c0-.4-.2-.7-.5-1-.7-.6-2-.2-2.6 0 0-.8-.3-1.3-.7-1.7-.8-.7-2-.5-2.5-.4v-.4c0-.4 0-.8-.4-1-1-1-3-.7-3.2-.7-.2-.6-.4-1-.8-1-.6-.4-1.3 0-1.6.2 0-.7-.3-1.3-.8-1.6-1-.7-3 0-3.2 0-1-1.6-2.3-1.4-2.3-1.3z"/><path d="M805.6 332l.2.3c3.8-1.4 10.4-10.4 10.7-10.8l-.4-.2s-6.7 9.3-10.4 10.7zM803.5 330.3l.2.4c3.3-2 9.8-10.6 10-11l-.2-.2s-6.8 9-10 10.8zM801.6 329.6l.2.3c3.5-3 8.6-12.6 8.8-13l-.3-.2s-5.3 10-8.7 12.8zM800 327.4h.3c.6-4.8 7.4-12.4 7.5-12.5l-.3-.4c-.3.4-7 7.8-7.6 12.8zM786.3 321.5h.4c-.6-7 5-14.4 5.2-14.5l-.4-.2s-6 7.7-5.3 14.7zM790 322h.3c-1-5.5 5.5-13.3 5.5-13.3l-.3-.3c-.2.3-6.6 8-5.6 13.7zM795.4 324h.4c-.2-6.2 5.8-12.4 6-12.5l-.4-.3s-6.2 6.5-6 13z"/><path d="M780 334s-3-10.2 2.8-12.8c0 0 1-.3 1.2.8 0 0 1.3-1.7 2.3-.2 0 0 3-1.4 3.6.7 0 0 1.8-1.6 2.8.8 0 0 1.8-.8 1.8 1.2 0 0 2.6-1 2.6 1.2 0 0 2.4-1 2 1.7 0 0 3.6.6 2.5 2.3 0 0 3.3 1 2 2.3 0 0 3.7-.4 1.7 2 0 0 2.7-1 1.2 2-1.6 3.2-6.4 6.5-9.8 6.8" fill="#00a651"/><path d="M784 321.7c0-.3-.3-.6-.3-.6h-1c-5.8 2.7-3 12.7-2.8 13.2h.2c0-.3-3-10.3 2.7-12.8h.5l.5.8h.2s.6-1 1.2-.8c.2 0 .5 0 .7.5h.4s1.5-.8 2.5-.3c.3 0 .5.4.7 1v.2l.3-.3s.8-.7 1.5-.5c.5 0 .8.5 1 1.2l.2.2h.2s.6-.4 1 0c.3 0 .4.4.4 1v.2h.3s1.2-.6 1.8-.2c.3.2.5.6.5 1v.4h.2s1-.5 1.5 0c.3.2.3.7.2 1.4v.2c.7 0 2.3.5 2.7 1.2v.8l-.3.2h.3c.5.3 2 .8 2 1.4.2.2 0 .4 0 .6l-.4.4h.5c.4 0 1.7 0 2 .4 0 .3 0 .7-.5 1.3l-.4.4.5-.2c.2 0 1-.2 1.3 0 .2.3 0 1-.4 2-1.5 2.8-6.3 6-9.7 6.5v.3c3.5-.4 8.5-3.7 10-6.8.6-1 .7-1.8.3-2.2-.3-.4-1-.3-1.3-.2.2-.4.5-.7.5-1v-.4c-.5-.7-1.6-.7-2-.6v-.4-.3c-.2-.8-1.8-1.3-2.2-1.4v-.5-.3c-.4-1-2.2-1.4-2.7-1.5v-.4c0-.5 0-1-.4-1.2-.6-.4-1.5-.2-1.8 0 0-.6 0-1-.5-1.3-.7-.5-1.7-.2-2 0 0-.5 0-1-.4-1-.5-.5-1.2-.3-1.4-.2-.4-.6-1-1-1.4-1.2-.8-.2-1.5.3-1.7.5-.3-.4-.5-.8-1-1-1-.5-2.5.2-2.7.3-.3-.4-.6-.6-1-.6-.6 0-1 .4-1.2.7z"/><path d="M782.2 335.4h.4c-2.2-6 1.6-13.3 1.6-13.4h-.3c-.2 0-4 7.5-1.8 13.4zM784.7 335.8h.4c-1.8-6 1.4-14 1.4-14h-.3s-3.2 8-1.3 14zM795 341.7l.3.4c6.2-2.2 10.2-7.8 10.3-8h-.3s-4 5.5-10.2 7.7zM794 340.3v.4c5-2.2 9.6-8.5 9.6-8.5l-.3-.3s-4.6 6.2-9.4 8.3zM792.7 340l.2.2c3.8-2.8 8.7-10 8.8-10l-.3-.3s-5 7-8.8 10zM786.5 336.3h.3c-.8-6.3 3.2-13.6 3.2-13.7l-.3-.2s-4 7.6-3.2 14zM789.2 338l.2.2c4-3.6 5.4-13.3 5.4-13.7h-.4s-1.4 10-5.2 13.4z"/><path d="M792 339v.4c5.7-4 7.3-12 7.3-12h-.4s-1.6 7.7-7 11.7zM792.5 322.2v1l-4.2 14h.4l4.3-13.8c-.7-6.7 5.2-14 5.3-14l-.3-.4s-5.5 6.8-5.5 13.2z"/><path d="M797 325.6c0 .2-1.3 9.7-6.5 13.2l.3.3c5.2-3.5 6.5-12.8 6.5-13.2 2.3-2.7 7.5-12.2 7.6-12.3l-.4-.2s-5.3 9.6-7.6 12.3z"/><path d="M783.6 342.3s-6.4-6.3-3.4-8c0 0 1.4.3 2 1.6 0 0 1.4-2.3 2.3 0 0 0 2.4-.7 2.4.8 0 0 2 0 1.7 1.4 0 0 2-.2 1.8 1 0 0 2.3 0 2.2 1 0 0 2 .2 1.8 1.6 0 0 3.5.6 2 2.3 0 0-6 1.4-10.4-.4 0 0-2.2-.8-2.4-1.3z" fill="#00a651"/><path d="M779.3 335.4c-.3 2.6 4 6.8 4.2 7 .2.6 2 1.3 2.5 1.4 4.3 1.7 10.3.6 10.5.5.4-.4.6-.7.6-1v-.4c-.3-1-2-1.3-2.3-1.4l-.2-.8c-.5-.5-1.4-.6-1.7-.6 0-.3 0-.5-.2-.6-.5-.5-1.5-.5-2-.5v-.5c-.5-.5-1.4-.5-1.8-.5l-.2-.7c-.5-.6-1.4-.7-1.6-.7 0-.3 0-.5-.4-.7-.6-.5-1.7-.3-2-.2-.3-.6-.6-1-1-1-.7 0-1.2.5-1.5.8-.5-1.2-1.6-1.6-1.7-1.6-.7.4-1 .8-1 1.4zm6.8 8c-.8-.3-2-1-2.2-1.2 0 0-4.2-4-4.2-6.5v-.3c0-.4.3-.8.7-1 0 0 1.2.4 1.6 1.6v.4l.2-.3c.2-.2.8-1 1.3-.8.4 0 .6.3.8 1h.3c.3 0 1.3-.3 1.8 0 .2 0 .3.3.3.6v.2h.2s1 0 1.3.5l.2.8h.2c.3 0 1.2 0 1.5.4V339.6h.3c.3 0 1.4 0 1.8.2l.2.4v.3h.2s1 0 1.5.6l.2 1c.6 0 2 .4 2.2 1v.3c0 .2 0 .4-.3.7 0 0-6 1-10.2-.6z"/><path d="M782 336c0 .2.8 5 1.8 6.6l.3-.2c-.8-1.6-1.7-6.4-1.7-6.5h-.4zM784.3 336v6.6h.3c.2-.4 0-5.5 0-6.6h-.3z"/><path d="M784.5 342.8h.4c1.5-3.5 2-6 2-6h-.3s-.5 2.4-2.2 6zM785 343v.2c3.2-1.8 4-4.8 4-5h-.5s-.7 3-3.6 4.7z"/><path d="M785.5 343v.5c3-.3 5-4 5-4l-.2-.2s-2 3.6-4.8 3.8z"/><path d="M785.8 343.3v.4c4.8-.3 7-3 7-3.3l-.3-.2s-2 3-6.7 3z"/><path d="M786 343.4v.4c.3 0 6.4 1.4 8.5-1.8l-.3-.2c-2 3-8 1.6-8 1.6z"/><path d="M782.4 344.5s-3.7 1-4.5 6c-1 5.4-6 8-6.3 8.3" fill="#964b36"/><path d="M777.7 350.6c-.6 4.3-4.4 7-6 8l.2.3c1.5-1 5.4-3.8 6-8.4 1-5 4.3-6 4.4-6v-.3s-4 1-4.7 6.3z"/><path d="M833.6 294.2s-5.6 2-4.7 5.8" fill="#964b36"/><path d="M828.7 300h.4c-.8-3.7 4.6-5.6 4.6-5.7v-.3s-6 2-5 6z"/><path style="text-indent:0;text-align:start;line-height:normal;text-transform:none;block-progression:tb;-inkscape-font-specification:Sans" d="M647.3 118.2V291c0 14.4 6.5 27.3 16.2 38.5 9.6 11.2 22.4 20.7 35 28.4 25.5 15.3 51.5 23.8 51.5 23.8s26-8.5 51.4-24c12.7-7.6 25.5-17 35-28.3 9.8-11.2 16.4-24 16.4-38.6V118zm3.5 3.5h198.5V291c0 13.3-6 25.5-15.4 36.2-9.4 10.8-22 20-34.4 27.7-24.6 14.8-48.8 22.8-49.6 23-.8-.2-25-8.2-49.6-23-12.5-7.7-25-17-34.3-27.8-9.2-10.7-15.3-23-15.3-36.3z" color="#000" overflow="visible" font-family="Sans"/></svg>