<svg xmlns="http://www.w3.org/2000/svg" width="4393.7" height="2746.1" viewBox="-1806.498 -1038.495 4393.7 2746.06"><title>Flag of Guatemala</title><path fill="#4997D0" d="M-1806.5-1038.5h4393.7v2746h-4393.7z"/><path fill="#FFF" d="M-342-1038.5h1464.7v2746H-342z"/><g><path fill="none" stroke="#24420E" stroke-width="2" d="M262.7 689c12.3-1.7 19.3-5 27.7-8M300.5 662.4c6.2 6.5 11 13.5 13.7 21.2M277 660.4c6.5 6 11 12.4 14.5 19M64.5 54.3c-4.8 7.3-14 12.5-22 15.7M41 69c.3-6.2-1-13.8.3-20M32.3 72l3 9.2M44.6 85.4c-1.7.4-7 1.2-9.2 1.6M17.2 83c0 11.6 1.3 25.4 2.5 35.8M11.5 114.4c2 3.5 4.3 7 7 8.6M-2.4 152.6c2.2 4.3 4.3 9.7 6 18M20.5 149.5c-1.8 1-5.5 4.3-8.8 7M19 176.7c-4.5 4-10 7-15.7 9.7M-14 371.4c5 8.7 11 16.3 18 21.4M6.6 400.6c-6-.8-10-2.5-13.5-4.5M13.3 434.6L21 439M19 455c5.7 3.6 11.5 10.4 17.2 17.6M29.6 485.6c6.3 1.4 11.4 3 14.8 5M39.6 501.5l9.7.4M54.8 477.2c-.5 7-1.2 13.6-2.2 19.5M57.2 504l2-7.5M80.7 524l-.7 14.7M259.4 666.4l-5.3 7.3M243 655.8l-3-8.4"/><path fill="#67923D" stroke="#24420E" stroke-width=".8" d="M53.2 479.2c-12.8-28.8-6.2-99-1-107.6 30.5 59.5 20.4 108.6 1 107.6z"/><path fill="#406325" stroke="#24420E" stroke-width=".8" d="M53.5 478.5c19.4 1 29.4-47.5-1.2-107 5.6 56.4 5.5 102 1.2 107z"/><path fill="#406325" stroke="#24420E" stroke-width=".8" d="M418.3 723.2c-3.6-5.7-9.6-9.2-15-12-35.3-18.7-70.5-27-110.3-33.3-9.3-1.6-18.5-10.2-28-14.7-22.6-10.8-48-15-70-26-1.5-.7-7-4-9.6-7-8.8-10.3-24.7-13.4-34.5-23-38.3-36-78.8-69-99.8-116.8-25.5-58-57.2-118-53-184 3-42-3.4-84 7-124 15.2-59 34.7-117.2 70.4-166l-6 3.7C33.6 69 14 127.4-1 186.4c-10.4 39.8-4 82-7 123.8-4.2 66 27.5 126 53 184.3 21 47.5 61.7 80.7 99.7 117 9.8 9.2 25.7 12.3 34.5 22.7 2.5 2.8 8.3 6.4 9.6 7 22 11 47.4 15.3 70 26 9.5 4.5 18.7 13 28 14.5 39.8 6.4 75 14.8 110.3 33 5.7 3 11.5 6.5 15 12.3l6.3-3.8"/><path fill="#67923D" stroke="#24420E" stroke-width=".8" d="M263 687c-32.3 1.7-94.2 42.5-100 52.2 69 .5 110-33.5 100-52.2zM297.3 667.4C266 642.4 232.3 559 233 546c69.2 49.7 86.7 111.2 64.3 121.4z"/><path fill="#67923D" stroke="#24420E" stroke-width=".8" d="M274.2 667.6c-32-19.3-72.3-92-73-104 69.6 37.4 92.5 92 73 104zM203 636.6c4.4-35.8-26-111-34.8-119-13.5 75.5 13.7 126.3 34.7 119zM78 525.5c-10.6-26-3-88.5 2-96 25.4 53.4 15 97-2 96z"/><path fill="#406325" stroke="#24420E" stroke-width=".8" d="M104.7 570C84.2 545 16 518.2 5.3 519c40.7 55.4 91 69.2 99.4 51zM-7 327.6c-5.3-36.8-56.5-104-67.5-109.7 7 78.5 48.3 122 67.4 109.6zM31.3 484.5C8.5 467.7-55.5 460-64.5 463c46.4 38 92.5 38.6 95.8 21.5zM-11.5 371C-24.7 344.7-79.3 309-88.8 308c25.2 56.7 66.6 77.5 77.3 62.7zM1 153.3C5.2 118.6-24.3 46-32.6 38.3c-13 72.7 13.4 122 33.6 115z"/><path fill="#67923D" stroke="#24420E" stroke-width=".8" d="M15.2 173.8c16.4-30.4 84-72 96-73-31 66.8-82.5 91-96 73z"/><path fill="#67923D" stroke="#24420E" stroke-width=".8" d="M18.5 148.4c9.8-33.4 68-88.2 79.4-91.7-17 71.7-62.7 106-79.5 91.7z"/><path fill="#406325" stroke="#24420E" stroke-width=".8" d="M21.5 85C33.5 55.3 25-17.6 19-26.7-10 35 1.7 86 21.6 85z"/><path fill="#406325" stroke="#24420E" stroke-width=".8" d="M44.5 50c14.3-21.8 19-81 16-89-33.2 44.4-32 86.6-16 89zM71.7 22c20-16 42.2-71 41.6-80-44.6 32-56 72.6-41.6 80zM-1.8 219.6c.5 4-4.5-37.4-46-83.8 2 67.8 28.6 93.5 46 83.8z"/><path fill="#67923D" stroke="#24420E" stroke-width=".8" d="M145.7 602.2C123 574 109 493 112.3 481.5c51.6 57.3 55 115.5 33.4 120.7z"/><path fill="#406325" stroke="#24420E" stroke-width=".8" d="M147.2 612.2c-28.2-21-107-30.8-118-27 57.6 47.3 114 48.2 118 27z"/><path fill="#67923D" stroke="#24420E" stroke-width=".8" d="M-10.5 215.2c18.7-21.4 80-41.8 89.7-40.6-36.8 47.7-82 57.3-89.7 40.6z"/><path fill="#406325" stroke="#24420E" stroke-width=".8" d="M202.5 636.2c-20.8 7.3-47.8-43-34.5-118.5 12.8 64 28.3 114.7 34.5 118.5zM263.4 687.2c9.6 18.7-30.7 52.3-99.8 51.8 54.7-22.4 97.3-45 99.8-51.8zM297.2 666.8c22.2-10.3 5-71-64.2-120.7 39.4 60.6 66.2 112.7 64.2 120.8z"/><path fill="#406325" stroke="#24420E" stroke-width=".8" d="M274 667c19.5-12-3.2-66-72.8-103.5 43 51.2 73.7 96 72.7 103.6zM78 525.3c17.2 1 27.4-42.4 2.3-95.8 3.3 50.3 2 91.5-2.2 95.8z"/><path fill="#67923D" stroke="#24420E" stroke-width=".8" d="M104.3 570.3c-8.3 18-58 4.2-99-51 49.7 31.2 92.5 52.6 99 51zM-7.4 327.5c-19.2 12.5-60-31-67.2-109.3 30.3 60.4 59.7 107 67.2 109.3zM31.2 484.7c-3.5 17-49 16.4-95.5-21.6 49 15.7 90.3 24.5 95.5 21.7zM-12 370.5c-10.7 14.8-51.7-5.8-77-62.5 37.5 36.4 71 63 77 62.5zM.6 152.8C-19.7 160-46 111.3-32.8 38.4-20.6 100-5.8 149 .6 152.8z"/><path fill="#406325" stroke="#24420E" stroke-width=".8" d="M15 174c13.6 18 64.5-6 95.5-72.8-46.5 42.7-88 73.5-95.4 73z"/><path fill="#406325" stroke="#24420E" stroke-width=".8" d="M19 148.4c17 14.4 62-19.7 79-91.4-37 51.5-71.6 90.3-79 91.4z"/><path fill="#67923D" stroke="#24420E" stroke-width=".8" d="M21 84.8c-19.7 1-31.4-49.5-2-111.3C15 32 16.5 79.8 21 84.8zM44 49.7C28.3 47.3 27 5.5 60.3-39c-12.6 45.7-19 84-16 88.7zM71.4 22C57 14.3 68.2-26 112.8-57.5 87.5-18 70.2 16.6 71.4 22zM-2 219.7c-17.5 9.6-44-16-45.8-84 23.3 53.6 39.4 81.6 45.7 84z"/><path fill="#406325" stroke="#24420E" stroke-width=".8" d="M146 602c21.5-5.2 18-63.2-33.3-120.3C135.7 543 149.3 595 146 602z"/><path fill="#67923D" stroke="#24420E" stroke-width=".8" d="M147 612.4c-4 21-60.2 20-117.6-27 60.3 19.5 111 30.6 117.6 27z"/><path fill="#406325" stroke="#24420E" stroke-width=".8" d="M-10.7 215.6c7.4 16.5 52.4 7 89.2-40.7-54.8 31-76.5 44.5-89.2 40.6z"/><path fill="#406325" stroke="#24420E" stroke-width=".8" d="M-2.2 297C7.2 258.4-10 193.3-22 180-43.4 250.4-23 301.5-2 297z"/><path fill="#67923D" stroke="#24420E" stroke-width=".8" d="M-3.6 306c-27 6-39.5-55-18.6-124 5 62 13 119.7 18.6 124zM14.6 435.3c-31.6 5-97.8-21.2-105-29 66.6-14.4 111.3 9.5 105 29z"/><path fill="#406325" stroke="#24420E" stroke-width=".8" d="M13.7 435c6.5-19.4-38-42.8-104.3-28.6 56 10 101 23 104.3 28.6z"/><path fill="#67923D" stroke="#24420E" stroke-width=".8" d="M4.4 391C8.2 365.5 44 318.6 52 314.8c-5.2 54.7-34.2 85-47.6 76.2z"/><path fill="#406325" stroke="#24420E" stroke-width=".8" d="M5 391c13 8.7 42-21.3 47-76-21.5 42-42 74.4-47 76z"/><path fill="#67923D" stroke="#24420E" stroke-width=".8" d="M-9 305.8c-2.6-34.4 31.7-105.7 40.8-113C41 265 11.3 313-9 305.7z"/><path fill="#406325" stroke="#24420E" stroke-width=".8" d="M-8.6 305.3C11.6 312.8 41 265.3 32 193 15.7 253.5-2.3 301.5-8.7 305.2z"/><path fill="#67923D" stroke="#24420E" stroke-width=".8" d="M-2.6 349.5c0-35 38.7-101.8 48.3-108 3.8 73.8-29 118-48.3 108z"/><path fill="#406325" stroke="#24420E" stroke-width=".8" d="M-2.3 350c19.4 10.2 51.7-33.6 48-107.5C25.3 301.3 4 347.3-2.4 350z"/><path fill="#67923D" stroke="#24420E" stroke-width=".8" d="M109.6 569c-18.5-20-32.8-79.4-31-88 41.3 40 46.8 83 31 88z"/><path fill="#406325" stroke="#24420E" stroke-width=".8" d="M109.6 568.8c16-5 10.3-48-30.7-87.8 20 44.5 33 82.4 30.6 87.8z"/><path fill="#BA1F3E" stroke="#511124" stroke-width=".8" stroke-linecap="round" stroke-linejoin="round" d="M14.7 111.5c0 2.7-2.2 5-5 5-2.7 0-5-2.3-5-5 0-2.8 2.3-5 5-5 2.8 0 5 2.2 5 5zM53 83c0 3-2.2 5-5 5s-5-2-5-5c0-2.6 2.3-4.8 5-4.8s5 2.2 5 5zM36.3 67.7c0 2.8-2.2 5-5 5-2.7 0-5-2.2-5-5 0-2.7 2.3-5 5-5 2.8 0 5 2.3 5 5z"/><path fill="#BA1F3E" stroke="#511124" stroke-linecap="round" stroke-linejoin="round" d="M-4.3 394.6c0 3.2-2.6 5.8-5.8 5.8-3.3 0-6-2.6-6-5.8s2.7-6 6-6c3 0 5.7 2.8 5.7 6zM7.3 321.4c0 3.2-2.6 5.8-5.8 5.8-3.2 0-6-2.6-6-5.8 0-3.2 2.8-5.8 6-5.8s5.8 2.6 5.8 5.8zM67.6 492.2c0 3.3-2.6 6-5.8 6-3.2 0-6-2.7-6-6 0-3.2 2.8-5.8 6-5.8s5.8 2.6 5.8 5.8zM41 501.3c0 3.2-2.6 5.8-5.8 5.8-3.3 0-6-2.5-6-5.7 0-3.3 2.7-6 6-6 3.2 0 5.8 2.7 5.8 6zM243.8 644c0 3.3-2.6 6-5.8 6-3.3 0-6-2.7-6-6 0-3.2 2.7-5.8 6-5.8 3.2 0 5.8 2.6 5.8 5.8zM257 676.5c0 3.2-2.5 5.8-5.7 5.8s-6-2.6-6-5.8 2.8-6 6-6 5.8 2.7 5.8 6z"/><path fill="#67923D" stroke="#24420E" stroke-width=".8" d="M32.3 454.6C16 428 14.6 359 19 349.6c37.8 54 33 103.3 13.3 105z"/><path fill="#406325" stroke="#24420E" stroke-width=".8" d="M21.3 455C9 426-46.4 384-56.4 382.3-33.8 444.8 8.8 470 21.3 455zM32 454c20-1.8 24.4-50.7-13.4-104.7C30.8 403.5 36 448.5 32 454z"/><path fill="#67923D" stroke="#24420E" stroke-width=".8" d="M20.3 455C7.7 470-34.3 445-57 382.5c37.3 41.7 71 72.4 77.3 72.5zM239.4 659c-38.8 2-112.8 50.8-119.6 62.3 82.5.6 131.3-40 119.6-62.4z"/><path fill="#406325" stroke="#24420E" stroke-width=".8" d="M239.2 659.6c11.8 22.3-36.4 62.6-119.2 62 65.4-26.8 116.2-54 119.2-62z"/><g><path fill="none" stroke="#24420E" stroke-width="2" d="M761.8 146.8c2.8 2.8 5.3 3.7 10.5 8.6M742 68.7c-.2-6.2-3-16.5-4.3-22.7M753.5 59.6c.3 9-1 17.4-5 25.2M729.6 82.3c8 7.3 16 14 24 18M771.2 105.8c.5 9-.7 18-3.2 27.2M769.5 140l6-10.5M767 185.5c6.4 1.3 13 9 16 16M785.2 195.5l7.5-10M800.5 326c-3.4 6-7.2 11.2-11.2 16M771.2 341.7c3.6 6.7 7 13.5 11.8 18.5M794.3 387c-6 8-12.7 14.5-20.3 18.5M774.6 426c-5 3.5-11 13.6-17 21.7M796.4 355.3l-9.7 4M780.2 325l5.8 5M743.5 501.2c-4-.5-6.7 0-9.8.3M724.6 492.7l2.8 7.5M692 523.6c-1 8.5-.2 17 1 25.6M712.7 508l4.7 10.3M735 517.3l-11.6 2M582.2 635l-4.2 7.8M632.4 624.8c-6.8 1-12.7-.2-18.7-1M588.7 651c-5-1.8-9.3-3.2-13.5-4.3M507.7 659c-4 3.4-9 11-14 18.7M491.2 656.7c-11.2 5.8-14.6 17-20.3 26.6M483.7 696.4c-7-2-15.6-5.6-24.4-9.4M536 684c-10.6-5.6-21.7-5-32.6-6.8M552.6 675.6c-16.6-3.2-32-2.8-47-.6M541.2 663l-6.4-2.5M509.5 685.6l-10.7-6"/><path fill="#2CA02C" stroke="#24420E" stroke-width="2" d="M764 454.5c-5.7 3.8-11.5 10.5-17.2 17.7"/><path fill="#406325" stroke="#24420E" stroke-width=".8" d="M727.4 493c12.6-34 0-113.8-6.8-123.5-30.4 70.4-15.3 126 6.8 123.4z"/><path fill="#67923D" stroke="#24420E" stroke-width=".8" d="M727 492c-22 2.6-37-52.2-6.4-122.5-2.2 65 1 117.3 6.4 122.6z"/><path fill="#406325" stroke="#24420E" stroke-width=".8" d="M364.7 723c3.6-6 9.6-9.4 15-12.3C415 692 450.2 684 490 677.7c9.3-1.7 18.5-10.3 28-14.7 22.6-11 48-15 70-26 1.5-.8 7-4 9.6-7.2 8.8-10 24.7-13.2 34.5-22.7 38.3-36 78.8-69 99.8-117 25.5-58 57.2-118 53-184-3-41.7 3.4-84-7-123.7-15-59-34.6-117.4-70.4-166.2l6 3.8C749.4 68.8 769 127 784 186c10.4 39.8 4.2 82 7 123.8 4.2 66-27.5 126-53 184.3-21 47.6-61.7 80.8-99.6 117-10 9.3-25.8 12.4-34.6 22.8-2.5 3-8.3 6.4-9.6 7-22 11-47.4 15.3-70 26-9.5 4.6-18.7 13-28 14.5-39.8 6.4-75 14.8-110.3 33.2-5.7 2.8-11.5 6.4-15 12l-6.3-3.6"/><path fill="#67923D" stroke="#24420E" stroke-width=".8" d="M482.8 692c32.4 1.6 94.3 42.5 100 52-69 .6-110-33.4-100-52zM482.8 655.6c9.6-36.5 68.7-97 80-101.4-16.4 78.4-62.7 117-80 101.4zM580 636.2c-4.4-35.8 26-111 34.8-119 13.5 75.5-13.7 126.3-34.7 119z"/><path fill="#406325" stroke="#24420E" stroke-width=".8" d="M695 525c10.5-25.8 2.7-88.3-2.2-96-25.3 53.5-15 97 2 96z"/><path fill="#67923D" stroke="#24420E" stroke-width=".8" d="M678.3 569.7c20.5-25 88.7-52 99.4-51-40.7 55.3-91 69-99.4 51zM796.4 326c4-29 44.4-82 53-86.4-5.4 61.8-38 96.2-53 86.3z"/><path fill="#67923D" stroke="#24420E" stroke-width=".8" d="M743 500c26.5-19.5 101-28.4 111.5-25-54 44.2-107.7 45-111.6 25zM790 388c13.8-27.5 71-65 81-66-26.4 59.6-70 81.5-81 66zM783 179.4c-.4-35 36.6-104 45.7-111 5.3 74-26.2 120-45.6 111z"/><path fill="#406325" stroke="#24420E" stroke-width=".8" d="M771.8 185.7c-15-28-77.2-66-88-67 28.3 61.3 75.6 83.4 88 67z"/><path fill="#406325" stroke="#24420E" stroke-width=".8" d="M764.5 149c-8-27.7-56.7-73.4-66.2-76.4 14.3 59.8 52.2 88.4 66.2 76.4z"/><path fill="#67923D" stroke="#24420E" stroke-width=".8" d="M751.4 60.8c-10.7-24.2-5-84.3-.5-92 25.3 50.3 16.8 92.4.4 92zM732 50.8c-24.2-21.5-48.7-90.4-47.7-101.2C738-8 750.3 42.8 732 50.8zM785.2 209c-1.4 3.6 13.5-35.4 65-70.2-18.2 65.3-50.4 83.7-65 70z"/><path fill="#406325" stroke="#24420E" stroke-width=".8" d="M627.6 612c19.8-30.6 25.4-112.5 21-123.6-45.6 62.3-43 120.5-21 123.5z"/><path fill="#67923D" stroke="#24420E" stroke-width=".8" d="M629.2 620.3c32-23.6 121.4-35 133.8-30.7-65.2 53.7-129.2 54.7-133.8 30.7z"/><path fill="#406325" stroke="#24420E" stroke-width=".8" d="M786.3 217.5c-16.2-18.5-69.4-36.3-78-35.2 32 41.4 71.4 49.7 78 35.2zM580.5 635.8c20.8 7.3 47.8-43 34.5-118.5-12.8 64-28.3 114.7-34.5 118.5zM482.5 692c-9.7 18.8 30.7 52.5 99.7 52-54.7-22.5-97.2-45.2-99.7-52zM483.3 655.3c17.3 15.2 63.2-22.7 79.6-101-37.3 56.7-72 99.7-79.7 101z"/><path fill="#67923D" stroke="#24420E" stroke-width=".8" d="M694.7 525c-17 1-27.2-42.5-2-95.8-3.4 50.2-2 91.4 2 95.7z"/><path fill="#406325" stroke="#24420E" stroke-width=".8" d="M678.8 570c8.2 17.8 58 4 99-51-49.8 31-92.6 52.5-99 51zM796.6 326c15 9.7 47.3-24.4 53-86.2-24 47.6-47 84.2-53 86zM743 500.3c4.2 20 57 19 111.3-25.2C797 493.4 749 503.7 743 500.4zM790.5 387.5c11.2 15.6 54.3-6 80.8-65.7-39.4 38.3-74.5 66-80.8 65.7zM783.6 179c19.4 9.2 50.7-36.4 45.3-110.3-18.8 60-38.8 107-45.4 110.3z"/><path fill="#67923D" stroke="#24420E" stroke-width=".8" d="M772 186c-12.5 16.3-59.2-5.6-87.6-67 42.6 39.3 80.7 67.5 87.5 67zM764 149c-14 12-51.6-16.3-65.8-76 31 42.8 59.7 75 66 76z"/><path fill="#406325" stroke="#24420E" stroke-width=".8" d="M751.7 60.6c16.2.4 24.8-41.4-.6-91.5 4.5 48 4.3 87.4.7 91.6zM732.4 50.3c18.2-8 6-58.2-47.7-100.6C714.3.2 734.3 44 732.4 50.3zM785.5 209c14.6 13.6 46.5-5 64.8-70.2-35.7 46.2-58 69.5-64.8 70.2z"/><path fill="#67923D" stroke="#24420E" stroke-width=".8" d="M627.4 611.6c-22-3-24.4-61 20.8-123-16.6 63.4-25 116.4-20.8 123z"/><path fill="#406325" stroke="#24420E" stroke-width=".8" d="M629.5 620.5c4.6 24 68.2 22.8 133.3-30.6-68.4 22-126 34.6-133.3 30.5z"/><path fill="#67923D" stroke="#24420E" stroke-width=".8" d="M786.5 217.8c-6.5 14.4-45.5 6-77.5-35.2 47.6 27 66.4 38.7 77.5 35.2zM788.3 299c-4.3-35.6 18.2-92.3 30.4-103.2 11.7 65.8-12.2 109.6-30.4 103z"/><path fill="#406325" stroke="#24420E" stroke-width=".8" d="M788.5 307.2c23.6 8.5 41.6-45.2 30.2-109.4-11 55.2-24.6 106.2-30.2 109.4zM773.4 429.6c28 4.4 86.8-19 93-25.8-59-12.8-98.5 8.4-93 25.8z"/><path fill="#67923D" stroke="#24420E" stroke-width=".8" d="M774.2 429.3c-5.8-17.2 33.7-38 92.6-25.4-49.8 8.8-89.6 20.4-92.6 25.3z"/><path fill="#406325" stroke="#24420E" stroke-width=".8" d="M772.7 403.7c-.2-25.8-29.2-77-36.4-82-2.5 54.8 22 89 36.4 82z"/><path fill="#67923D" stroke="#24420E" stroke-width=".8" d="M772.3 403.7c-14.3 6.7-38.6-27-36-81.8 15.3 44.5 31.2 79.4 36 81.7z"/><path fill="#406325" stroke="#24420E" stroke-width=".8" d="M792 305.4c2.6-34.4-31.7-105.6-40.7-113-9.3 72.3 20.4 120.4 40.8 113z"/><path fill="#67923D" stroke="#24420E" stroke-width=".8" d="M791.6 305c-20.2 7.4-49.7-40.2-40.5-112.5 16.2 60.7 34.2 108.8 40.6 112.4z"/><path fill="#406325" stroke="#24420E" stroke-width=".8" d="M774.6 341c0-34.7-38.8-101.6-48.3-108-4 74 29 118.2 48.3 108z"/><path fill="#67923D" stroke="#24420E" stroke-width=".8" d="M774.3 341.8c-19.4 10-51.8-33.7-48-107.7 20.2 59 41.5 105 48 107.8z"/><path fill="#406325" stroke="#24420E" stroke-width=".8" d="M661 585c15-22.5 19.6-83.5 16.3-91.8-34.2 46-32.7 89.6-16.3 92z"/><path fill="#67923D" stroke="#24420E" stroke-width=".8" d="M661 585c-16.6-2.4-18-45.7 16-91.7-12.6 47.2-19.2 86.7-16 91.6z"/><path fill="#BA1F3E" stroke="#511124" stroke-linecap="round" stroke-linejoin="round" d="M772.7 128c0 2.8 2.2 5 5 5 2.7 0 5-2.2 5-5 0-2.6-2.3-5-5-5-2.8 0-5 2.3-5 5zM790 182.7c0 2.7 2.3 5 5 5 2.8 0 5-2.3 5-5 0-2.8-2.2-5-5-5-2.7 0-5 2.2-5 5zM795.3 354.2c0 3.2 2.6 6 5.8 6s6-2.8 6-6-2.6-5.8-6-5.8-5.7 2.6-5.7 5.8zM772 322c0 3.4 2.5 6 5.8 6s5.8-2.6 5.8-6c0-3-2.6-5.7-5.8-5.7-3.3 0-6 2.6-6 5.8zM704.4 504.7c0 3.2 2.7 5.8 6 5.8 3 0 5.7-2.6 5.7-5.8s-2.5-6-5.7-6-6 2.7-6 6zM733.3 517c0 3.4 2.6 6 5.8 6 3.3 0 6-2.6 6-6 0-3-2.7-5.7-6-5.7-3 0-5.7 2.6-5.7 5.8zM539.2 665.2c0 3.3 2.6 6 6 6 3 0 5.7-2.7 5.7-6 0-3.2-2.7-5.8-6-5.8-3.2 0-5.8 2.6-5.8 5.8zM507 688.3c0 3.2 2.7 5.8 6 5.8 3.2 0 5.8-2.5 5.8-5.7 0-3.3-2.6-6-5.8-6-3.3 0-6 2.7-6 6z"/><path fill="#67923D" stroke="#24420E" stroke-width=".8" d="M767.8 107.8c-10-27 0-91.7 5.6-99.7 24.2 56.2 12 101.3-5.6 99.8z"/><path fill="#406325" stroke="#24420E" stroke-width=".8" d="M768.2 107.6c17.5 1.6 29.6-43.2 5.4-99.3 1.5 52.4-1.3 95-5.4 99.3z"/><path fill="#67923D" stroke="#24420E" stroke-width=".8" d="M502 657.7c11.3-37 74-96.5 86-100.3-19.8 79.7-69 116.8-86 100.3z"/><path fill="#406325" stroke="#24420E" stroke-width=".8" d="M502.5 657.3c17.3 16.6 65.7-20.2 85.6-100-40.4 56.6-77.6 99-85.5 100zM750.7 454.2c16.4-26.5 17.8-95.7 13.4-105-37.7 54-33 103.3-13.3 105z"/><path fill="#67923D" stroke="#24420E" stroke-width=".8" d="M751.6 467.3c12-28.6 67.7-70.7 77.7-72.5-22.6 62.5-65.2 87.7-77.7 72.5zM751 453.5c-19.8-1.7-24.4-50.5 13.4-104.6C752.2 403 747 448 751 453.4z"/><path fill="#406325" stroke="#24420E" stroke-width=".8" d="M752.6 467.4c12.5 15.2 54.6-10 77.2-72.4-37.2 41.7-70.8 72.3-77.2 72.4zM532.6 685.6c20.5 25.2 90 51 101 50-40.2-56-91.8-69-101-50z"/><path fill="#67923D" stroke="#24420E" stroke-width=".8" d="M533 685.4c9.3-19 60.3-6.3 100.7 49.8-50.3-31-93.7-51.7-100.6-49.8z"/><path fill="none" stroke="#24420E" stroke-width="2" d="M755 107.8l-9.7-3.3"/><path fill="#BA1F3E" stroke="#511124" stroke-linecap="round" stroke-linejoin="round" d="M738 102.3c0 2.7 2.3 5 5 5s5-2.3 5-5c0-2.8-2.2-5-5-5-2.7 0-5 2.2-5 5z"/></g><g><path fill="#8C959D" stroke="#485654" stroke-width=".5" d="M181 500.6c-.6 4.8 3.8 10.7 9.7 9.4 1.8-.3 3-2.6.6-2.2-2 .5-4-.3-5.5-1.7-2.7-2.5-3-6-1.8-8.7l-3 3.2z"/><path fill="#8C959D" d="M194.7 510c-4.7 5.3-11.8 7.7-15.7 3.8-2.7-2.6-3.6-5.5-2.2-8.7l-5 5.7c0 .4 3.2 6 7.7 8 5.6 2.6 13.6-1.2 18.4-7 3.3-4.3 7-11.2 4.3-16.6-1.6-3.3-5.6-6.5-9-7.7l-4.7 5c2.4-1 5.3-.6 7.8 1.4 5.8 4.8 2.4 11.5-1.7 16.3z"/><path fill="#485654" d="M194.7 510c-1.5 1.7-3.3 3.3-5.4 4.4-2 1-4.3 1.7-6.7 1.4-1.2 0-2.3-.6-3.3-1.3-1-.8-1.7-1.7-2.3-2.7-.6-1-1-2.2-1-3.4-.2-1.2 0-2.4.5-3.5l.6.3-5 5.7v-.5c1.3 2.2 3 4.3 4.8 6 1 .8 2 1.5 3.2 2 1 .4 2.4.6 3.6.6 2.6 0 5-1 7.2-2 2.3-1.4 4.3-3 6-5 1.7-1.8 3-4 4.3-6.2 1.2-2.3 2-4.8 1.8-7.3 0-1.3-.4-2.5-1-3.6-.6-1.2-1.4-2.2-2.3-3-1.8-2-4-3.4-6.3-4.4h.4l-4.7 5-.5-.6c1-.5 2.3-.7 3.4-.5 1 0 2.2.5 3.2 1 2 1.3 3.7 3 4.2 5.3.6 2.3 0 4.6-1 6.7-1 2-2.2 3.8-3.7 5.5zm0 0c1.4-1.7 2.7-3.6 3.6-5.6 1-2 1.4-4.3.7-6.5-.6-2.2-2.2-3.8-4-5-2-1-4.3-1.3-6.2-.4l-.4-.5 4.6-5 .2-.2h.3c2.5 1 4.7 2.6 6.6 4.5 1 1 2 2 2.5 3.2.7 1.2 1 2.5 1.2 4 .2 2.6-.6 5.3-1.8 7.7-1.2 2.4-2.7 4.6-4.5 6.6-1.8 2-4 3.6-6.2 5-2.3 1.2-5 2-7.6 2.2-1.4 0-2.8-.2-4-.7-1.3-.5-2.4-1.3-3.4-2.2-2-1.7-3.7-3.8-5-6V510.3l5.3-5.6.5.4c-.3 1-.6 2-.5 3.2 0 1 .4 2.2 1 3 .6 1 1.3 2 2 2.7 1 .8 2 1.2 3.2 1.4 2.2.4 4.5-.2 6.5-1.2s4-2.5 5.5-4.2z"/><path fill="#6C301E" stroke="#351710" stroke-linejoin="round" d="M551.6 102.3L368 283C354 297 194 449.7 179.7 463.5c-5 6-19.4 22.2-21 24.5-9.6 10.4-20.2 24.3-32.8 36.6-2.2 2.8-5.2 1.8-8 3.4-8.2 4.8-17 13-23 20l-56 61.8c-3.5 4-4.5 6.3-2 8.6L67.2 659c5.6 5.4 12 8.3 14.6 3.6 14.3-25 50-63 63.6-93 8-18 18.2-50.7 25.4-58.5l54-58 4.3-4.7c1.5-1.5 3-3 4.3-4.6C341.2 334 465.6 201 556.4 107l-4.8-4.7z"/><path fill="#8C959D" stroke="#485654" stroke-width=".5" d="M170.2 463.2c-5.6.2-9.3-3.3-13-6.4 5.3 1.6 10.7 3.6 15.7 1.5l-2.8 5z"/><path fill="#B2B6BA" stroke="#485654" d="M743-31L597.4 89c-1.4 1.6-2.8 1-4.2 0L580 77.7v-.5c0-.7 0-1.5-.4-2l6.5-6.8c1-1 .7-1.4-.4-2.5-1-.8-1.6-1.6-2.7-2.7-1.2-.8-2-.2-3 .8l-6.6 7c-3.4 0-6 2.7-6.2 6-88 85.8-163.8 162.3-251.5 246.7l-103.3 98.6c-3.7 4.8-19.6 13.3-30.2 20.2-3.7 2.4-7 4.6-8.3 7l-8.5 25c-2.7 5.4-11 18.2-11.5 19 10.8 11 10.3 10.2 17.7 17.2 8.3-9.3 30.6-32.6 51-54.3l3.7-4.4c-1.6-2.2-4.3-5.5-6.4-7.6l-5.5-5c-1-1-2-1.8-3-2.5-.6-.8 1.2-2 2-3C334.8 317 465.2 188.2 572 83.4l1.8.3c1 0 2-.3 3-.7L589 97.7c3 3 5.6 3 8 1.8L743-31z"/><path fill="#485654" d="M166 473.6l2.7.2c1 0 1.8-.4 2.6-.8 1-3.5 2-7.2 3.2-10.8 1-3.6 2.3-7.2 3.4-10.8-1-1-2-1.8-3.4-2.2 1.4.3 2.6 1.2 3.6 2v.2c-1 3.7-2 7.3-3.3 11l-3.5 10.8c-1 .5-2 .7-2.8.7-1 0-2-.2-2.8-.4z"/><path fill="none" stroke="#485654" stroke-width=".8" stroke-linecap="round" stroke-linejoin="round" d="M201.8 463.3c0 1.6-1.3 2.8-3 2.8-1.4 0-2.7-1-2.7-2.7 0-1.6 1.4-2.8 3-2.8 1.5 0 2.8 1.2 2.8 2.8zM184.7 480.4c0 1.6-1.3 3-3 3-1.4 0-2.7-1.4-2.7-3 0-1.5 1.3-2.8 2.8-2.8 1.6 0 3 1.3 3 2.8z"/><path fill="#485654" d="M211.7 437c-1.5-1.2-2.8-2.4-4-3.6-1.5-1.3-2.8-2.5-4-4 1.5 1.2 3 2.4 4.2 3.6l3.7 4z"/><path fill="#8C959D" stroke="#485654" stroke-width=".5" d="M507.8 162.7l3-2.6-16-15.5-3 2.6z"/></g><g><path fill="#8C959D" stroke="#485654" stroke-width=".5" d="M588.4 508c.4 5-4.4 10.5-10.2 9-1.7-.4-2.7-2.8-.5-2.2 2 .6 4 0 5.6-1.5 2.8-2.4 3.2-6 2.3-8.7 1 1.2 1.7 2.5 2.8 3.5z"/><path fill="#8C959D" d="M574.2 517c4.4 5.4 11.3 8.2 15.5 4.5 2.8-2.4 4-5.3 2.6-8.7l4.8 5.8c-.2.4-3.6 6-8.2 7.6-5.7 2.3-13.5-2-18-8-3.2-4.3-6.7-11.5-3.6-16.8 2-3.2 6-6.2 9.4-7.3 1.5 2 3 3.8 4.4 5.4-2.2-1-5-1-7.8 1-6 4.6-3 11.5 1 16.5z"/><path fill="#485654" d="M574.2 517c1.5 1.6 3.2 3.2 5.2 4.3 2 1 4.3 2 6.5 1.6 1-.2 2-.6 3-1.3 1-.7 1.7-1.5 2.3-2.4.7-1 1-2 1.2-3 0-1.2 0-2.3-.6-3.4l.5-.4c1.6 2 3.2 4 5 5.8v.5c-1.5 2-3.3 4.2-5.4 5.8-1 .8-2 1.5-3.4 2-1.3.4-2.7.6-4 .5-2.7-.2-5.3-1.3-7.5-2.7-2.2-1.4-4.2-3.2-6-5.2-1.6-2-3-4.4-4-7-1-2.3-1.7-5-1.4-7.7.2-1.4.7-2.7 1.4-4l2.7-3c2-1.7 4.2-3 6.8-4h.3v.2l4.5 5.2-.4.5c-2-1-4.4-.8-6.3.2-2 1-3.6 2.5-4.3 4.6-.8 2-.4 4.4.4 6.5.8 2 2 4 3.4 6zm0 0c-1.4-2-2.7-3.8-3.6-6-.8-2-1.3-4.3-.6-6.5.3-1 1-2 1.7-3 .8-.8 1.7-1.5 2.8-2 2-1.2 4.6-1.5 6.7-.4l-.4.6-4.5-5.2h.4c-2.4 1-4.6 2.3-6.5 4-1 1-1.8 2-2.4 3-.7 1-1 2.2-1.3 3.4-.3 2.5.4 5 1.4 7.4 1 2.3 2.3 4.5 4 6.5 1.5 2 3.4 3.7 5.6 5 2 1.5 4.5 2.5 7 2.7 1.3 0 2.6 0 3.7-.5 1.2-.5 2.3-1 3.3-2 2-1.4 3.7-3.4 5-5.6v.5c-1.4-2-3-4-4.6-6l.6-.3c.4 1 .6 2.3.5 3.5 0 1.2-.5 2.4-1.2 3.4s-1.5 1.8-2.5 2.5c-1 .8-2 1.2-3.3 1.3-2.4.2-4.7-.6-6.7-1.8-2-1.2-3.7-2.8-5-4.6z"/><path fill="#6C301E" stroke="#351710" stroke-linejoin="round" d="M237 92.4L411.6 282C425 296.4 577 456.7 590.6 471c5 6.2 18.3 23.2 19.8 25.5 9.2 11 19 25.4 31 38.4 2.2 3 5.2 2.2 8 3.8 8 5.2 16.2 14 22 21l52.8 64.7c3.4 4 4.2 6.4 1.7 8.6l-32.3 39c-6 5.4-12.6 8-15 3-13-25.5-47-65.2-59-96-7.2-18.4-15.7-51.5-22.6-59.7-8.3-10.3-31-37-51-60.7-1.3-1.7-2.6-3.2-4-4.7-1.4-1.8-2.8-3.3-4-5C435.6 334.3 318 195 232 97c3.7-3.5 1.3-1.5 5-4.6z"/><path fill="#8C959D" stroke="#485654" stroke-width=".5" d="M601 471.3c5.6.4 9.3-2.7 13.3-5.7-5.4 1.3-11 3-15.8.8l2.5 5z"/><path fill="#B2B6BA" stroke="#485654" d="M53-50.4l139.6 127c1.3 1.8 2.7 1.3 4.3.2l13.6-10.4v-.6c0-.8.2-1.4.5-2l-6-7c-.8-1-.5-1.5.6-2.5.8-1 1.7-1.7 2.8-2.7 1-.8 2 0 3 1l6 7c3.4.3 6 3.3 6 6.6 83.6 90 155.6 170 239 258.6l98.4 103.6c3.5 5 19 14.2 29 21.5 3.7 2.5 6.8 5 8 7.4l7.2 25.3c2.3 5.6 10 18.8 10.5 19.8-11.4 10.3-10.8 9.6-18.6 16L548.6 462l-3.6-4.6c1.8-2.2 4.6-5.3 6.8-7.3l5.7-4.6c1-1 2.2-1.6 3-2.4 1-.6-1-2-1.8-3C443.5 317 319.5 182.2 218 72.4c-.5 0-1.2.2-1.8 0-1 0-2-.2-3-.7l-13.4 14c-3 2.8-5.6 2.7-8 1.5L53-50.4z"/><path fill="#485654" d="M604.7 482H602c-1 0-2-.3-2.8-.8l-3-11c-1-3.7-1.8-7.4-2.6-11v-.2c.5-.5 1-1 1.7-1.2.6-.4 1.3-.7 2-.7-1.4.3-2.5 1.2-3.5 2.2v-.2l3 11c1 3.7 1.8 7.4 2.6 11 .7.4 1.6.7 2.5 1h2.7z"/><path fill="none" stroke="#485654" stroke-width=".5" stroke-linecap="round" stroke-linejoin="round" d="M569.6 470c0 1.4 1 2.8 2.6 2.8s3-1 3-2.7-1-2.8-2.7-2.8-3 1-3 2.7zM585.8 488c0 1.4 1 2.8 2.6 3s3-1.3 3-2.8c0-1.6-1-3-2.7-3-1.5 0-3 1-3 2.7z"/><path fill="#485654" d="M560.7 443l4-3.7c1.4-1.2 2.8-2.3 4.4-3.3-1.2 1.3-2.6 2.5-4 3.7-1.4 1.2-2.8 2.3-4.3 3.3z"/><path fill="#8C959D" stroke="#485654" stroke-width=".5" d="M295 140l-16.5 14.7-3-2.8 16.8-15z"/></g><g stroke="#24420E" stroke-width=".8"><path fill="#67923D" d="M179.4 633.7c-36-15.2-123-3-133.7 4.2 74.5 36.6 135.2 21 133.7-4.3z"/><path fill="#406325" d="M178.7 634.2c1.5 25.2-58.5 40.7-133 4 70 4.4 127.2 2 133-4z"/></g><g stroke="#24420E" stroke-width=".8"><path fill="#67923D" d="M587 649c36-15.3 123-3.2 133.6 4-74.5 36.7-135.2 21-133.7-4z"/><path fill="#406325" d="M587.5 649.3c-1.4 25.2 58.6 40.6 133 4-70 4.4-127 2-133-4z"/></g><g><path fill="#B2B6BA" stroke="#485654" d="M520.7 609c-94.8-137.8-238-249.8-348.3-311 16.3-1 52.5 17.7 67.2 27C349 395.8 442.3 489 540 599c-5.6 5.6-9.4 9-15.7 14l-3.6-4z"/><path fill="#8C959D" d="M530.2 608l-6.6 6.4C418.2 478.8 271.4 349.2 172.6 298 310.4 361.4 426.3 489 530 607.6l.4.4z"/><path fill="#485654" d="M530.2 608l-6.6 6.4C499 583 473.2 553 446.3 524c-27-29-55-57-84-84-29.2-26.7-59.3-52.5-90.8-76.6-15.7-12-31.7-23.6-48.2-34.6-16.5-11-33.4-21.3-51-30.4l.5-1c36 16.8 70 37.6 102.3 61 32.2 23.2 62.6 49 91.6 76 29 27 56.8 55.6 83.8 84.7 27 29.2 53.2 59 79.4 89zm0 0c-26.3-29.8-52.6-59.6-79.7-88.6-27-29-55-57.5-84-84.5S307 382 274.8 359c-32.2-23.2-66.3-44-102.4-60.6l.5-1c17.5 9.3 34.4 19.7 51 30.7 16.4 11 32.4 22.7 48 34.8 31.6 24 61.7 50 90.7 77 29 26.8 57 54.8 84 84 27 29 52.6 59.2 77 90.5h-.2l6.7-6.3z"/><path fill="#FAB81C" stroke="#6C301E" d="M562 586.6c-9 2.3-17 5.7-24 10-1 6.5-9 13.7-16.5 15.3l-2.7-3.6c-.2-.3-.5-.4-.8-.2-.6.3-1.5.8-2.6 1.6-2.8-.5-6 1-7.6 4.4-1.7 4.5 1.8 10.3 5.6 14 4.3 3.5 6.4 5 11.3 4.3 5-1 7.7-5.5 8.8-7 17 20.7 29.8 31.8 51.4 48.8 9.5 0 14.6-6 11.4-13-1-2.2-3.8-3.7-6-3v-2c11.2-10.3 16-23.2 4-45-10-18.5-21.5-24.8-32.3-24.7zm28.6 20.7c2 3.4 3.2 6.3 4.7 9.4 6.8 13.7 1 30.2-10.7 35.3h-1c2-3-3.8-9.8-6.7-7.4 1.3-3.5-3-9.3-6.8-7.8 2-3.2-2.4-8.7-6.5-7 2-3.4-1.4-8.5-5.6-7.5 1.3-3.8-2-8-6-7.4.2-3.4-.8-5.2-2.5-6.7 5-4 10.8-9.8 15.8-12.5 12.4-5.4 20 5 25.3 11.5z"/><path fill="#FAB81C" stroke="#6C301E" stroke-width=".5" d="M595.8 621.8c-2.3-1-3.4-3.5-2.7-5 1-1.6 3.4-2 5.7-.8 2.4 1 3.7 3.4 3 5-1 1.5-3.5 2-6 .8z"/><path fill="#FAB81C" d="M533.5 625.6c3-8 9.3-15.6 16-17.4"/><path fill="#6C301E" d="M533.5 625.6c.6-2 1.5-3.8 2.5-5.6 1-1.8 2.2-3.5 3.5-5 1.3-1.6 2.8-3 4.5-4.2 1.7-1.2 3.5-2.2 5.5-2.6-2 .6-3.7 1.7-5.3 3-1.6 1-3 2.5-4.3 4-2.8 3.2-5 6.7-6.5 10.4z"/><path fill="#FAB81C" d="M540 633.4c7.6 1.8 15-5.6 18-11"/><path fill="#6C301E" d="M540 633.4c1.8.3 3.7.2 5.5-.4 1.8-.5 3.4-1.4 5-2.5 1.4-1 2.8-2.3 4-3.7s2.5-2.8 3.5-4.4c-.8 1.7-2 3.3-3 4.7-1.4 1.5-2.8 2.8-4.3 4-1.6 1-3.3 2-5 2.4-2 .5-4 .5-5.7 0z"/><path fill="#FAB81C" d="M546.8 640.7c9 .2 14.5-6 17-11"/><path fill="#6C301E" d="M546.8 640.7c1.8 0 3.5-.3 5.2-1 1.7-.4 3.3-1.2 4.8-2.2 1.4-1 2.7-2.2 4-3.5l3-4.3c-1.4 3.3-3.8 6-6.8 8.2-1.5 1-3 1.7-5 2.2-1.6.5-3.4.6-5.2.5z"/><path fill="#FAB81C" d="M553.7 647.6c7.6 0 14.5-6.2 16.7-11"/><path fill="#6C301E" d="M553.7 647.6c3.5-.2 7-1.5 9.7-3.5 1.4-1 2.7-2 4-3.3 1-1.2 2.2-2.6 3-4.2-.6 1.7-1.6 3.2-2.8 4.5-1 1.3-2.5 2.5-4 3.5-1.4 1-3 1.8-4.7 2.4-1.7.4-3.5.7-5.3.6z"/><path fill="#FAB81C" d="M560.4 654c8.3-.3 14-4 16.6-9.5"/><path fill="#6C301E" d="M560.4 654c1.7-.2 3.3-.4 5-.8 1.5-.5 3-1 4.6-1.8 1.4-.8 2.8-1.7 4-3 1.2-1 2.2-2.4 3-4-.6 1.7-1.6 3-2.7 4.4-1.2 1.2-2.6 2.2-4 3-3 1.6-6.5 2.3-10 2.2z"/><path fill="#FAB81C" d="M568 660.5c7.5.5 13.6-4 15.7-8.5"/><path fill="#6C301E" d="M568 660.5c1.5 0 3 0 4.6-.5 1.5-.4 3-1 4.3-1.7 1.3-.7 2.6-1.6 3.7-2.6s2.2-2.3 3-3.7c-.6 1.5-1.6 2.8-2.7 4-1 1-2.4 2-3.8 2.8-1.5.7-3 1.3-4.6 1.6-1.5.3-3 .3-4.7 0z"/><g><path fill="#FAB81C" d="M534.5 626.7c5.8 1.2 15.2-5.6 17.5-11.8"/><path fill="#6C301E" d="M534.5 626.7c2 .3 3.7-.2 5.4-.8 1.6-.8 3.2-1.8 4.7-3 1.5-1 3-2.2 4.2-3.5 1-1.4 2.2-3 3-4.6-.6 1.7-1.7 3.3-3 4.7-1 1.5-2.5 2.7-4 3.8-1.5 1-3.2 2-5 2.7-1.7.6-3.6 1-5.5.5z"/></g><g><path fill="#FAB81C" d="M576 667.2c7.7.4 12.4-4.3 14.4-8.7"/><path fill="#6C301E" d="M576 667.2c1.5 0 3-.2 4.4-.6 1.5-.3 2.8-1 4-1.7 1.3-.8 2.5-1.8 3.4-3 1-1 2-2.2 2.6-3.5-1 2.8-3 5.2-5.7 6.8-1.3.8-2.7 1.4-4.2 1.7-1.4.3-3 .4-4.5.2z"/></g><path fill="#FAB81C" stroke="#6C301E" stroke-width=".5" d="M594.4 617c-2.3-1-3.4-3.3-2.7-5 .8-1.5 3.2-2 5.6-.7 2.4 1 3.7 3.4 3 5-1 1.5-3.5 2-6 .8z"/><path fill="#FAB81C" stroke="#6C301E" stroke-width=".5" d="M591.6 612c-2.4-1.2-3.5-3.5-2.7-5 .7-1.7 3-2 5.5-1 2.3 1.2 3.6 3.5 3 5-1 1.6-3.6 2-6 1z"/><path fill="#FAB81C" stroke="#6C301E" stroke-width=".5" d="M588 607.3c-2.3-1.2-3.4-3.5-2.7-5 .8-1.6 3.2-2 5.6-1 2.3 1.3 3.6 3.5 2.8 5-.8 1.7-3.4 2.2-5.8 1z"/><path fill="#FAB81C" stroke="#6C301E" stroke-width=".5" d="M583.3 602.8c-2.3-1.2-3.4-3.5-2.7-5 0-.3 0-.7.3-.6 1 .5 2.8.8 2.6-.6-.3-.6-.6-1-.3-.7.7 0 2 .5 3 1 2.3 1 3.6 3.3 2.8 5-.7 1.5-3.3 2-5.7.8z"/></g><g stroke="#24420E" stroke-width=".8"><path fill="#406325" d="M66.5 60c33-10.8 85.7-70.7 89.2-82C84.3-3 51.5 43.7 66.5 60z"/><path fill="#67923D" d="M66.5 60C51.3 43.7 84-2.5 155-21.5 105 17 67.2 52.5 66.5 60z"/></g><g stroke="#24420E" stroke-width=".8"><path fill="#406325" d="M733.5 81.5c-7.8-32.2-60.8-87-71.3-91 12.7 69.3 54.6 104 71.3 91z"/><path fill="#67923D" d="M733.5 81.5c-16.7 13.3-58.2-21.3-71-90.5 33 50.7 64 89.3 71 90.5z"/></g><g><path fill="none" stroke="#000" stroke-width="2" d="M201 635.2l4 8"/><path fill="#B2B6BA" stroke="#485654" d="M253.5 597.4c103-132 252.4-235.3 366.2-290-16.2-1.6-53.4 14.7-68.6 23.3C437.6 394.7 339 482.2 235 586c5.4 6 9 9.7 15 15l3.7-3.6z"/><path fill="#8C959D" d="M244 595.7l6.4 6.8c113.2-129 267.5-249.7 369-295-141 55-264.3 175.8-374.8 287.8l-.5.4z"/><path fill="#485654" d="M244 595.7l6.4 6.8c26-30 53.5-58.5 82-86 28.7-27.4 58.3-53.7 89-78.8 30.5-25.2 62.2-49.2 95-71.4 16.4-11 33-21.8 50.2-31.8 17-10 34.6-19.3 52.7-27.4l.4 1c-37 14.4-72.2 33-105.8 54.4-33.6 21.2-65.5 45-96 70.3-30.8 25.2-60.2 52-89 79.3-28.8 27.4-57 55.5-85 83.7zm0 0c28-28.3 56-56.5 84.7-84 28.7-27.5 58-54.2 88.7-79.5 30.7-25.3 62.5-49.2 96-70.5 33.6-21.4 69-40 106-54.6l.3 1c-18 8-35.5 17.4-52.7 27.3-17 10-33.8 20.6-50.2 31.7-32.8 22.2-64.4 46-95 71.2-30.7 25-60.4 51.4-89 78.7-28.6 27.3-56.2 55.8-82.4 85.5l-6.3-6.8z"/><path fill="#FAB81C" stroke="#6C301E" d="M266 603.3c-1.2-3.7-4.4-5.2-7.2-5l-2.5-1.6c-.3-.2-.6 0-.8 0-1 1.3-1.5 1.8-3 3.4-7.3-2-14.8-9.5-15.4-16-6.7-4.8-14.5-8.7-23.3-11.6-11-.7-22.7 5-34 22.7-13 21.2-9 34.4 1.6 45.4-.2.7-.3 1.4-.2 2-2-1-5 .5-6 2.7-3.8 6.8 1 13 10.6 13.6 22.6-15.7 36-26 54.2-45.6 1 1.6 3.5 6.2 8.4 7.6 5 1 7-.5 11.5-3.6 4-3.6 8-9.2 6.4-13.7zm-44-2c-4-1-7.6 3.2-6.5 7-4.2-1.2-8 3.6-6.2 7.3-4-2-8.6 3.2-7 6.5-3.4-1.6-8.2 4-7 7.4-2.8-2.5-8.8 4-7 7h-1c-11.3-5.8-16.2-22.6-8.6-36 1.7-3 3-5.7 5.2-9 5.4-6.3 13.7-16 25.8-10 4.8 3 10 9.3 15 13.5-1.7 1.3-3 3-2.7 6.4z"/><path fill="#FAB81C" d="M239.8 613c-2.6-8.2-8.4-16-15-18.2"/><path fill="#6C301E" d="M239.8 613c-1.4-3.7-3.3-7.3-5.7-10.6-1-1.6-2.5-3-4-4.4-1.6-1.3-3.3-2.5-5.2-3.2 2 .5 3.8 1.6 5.4 3 1.6 1.2 3 2.7 4.3 4.3 1.2 1.8 2.3 3.5 3.2 5.4 1 1.8 1.6 3.8 2 5.7z"/><path fill="#FAB81C" d="M233 620.5c-7.8 1.3-14.8-6.5-17.5-12"/><path fill="#6C301E" d="M233 620.5c-2 .4-4 .3-5.7-.3-2-.6-3.5-1.7-5-2.8-1.5-1.2-2.8-2.6-4-4-1-1.6-2-3.2-2.8-5 1 1.7 2 3.2 3.2 4.7 1.2 1.5 2.5 2.8 4 4 1.4 1.2 3 2 4.7 2.8 1.7.6 3.6 1 5.5.7z"/><path fill="#FAB81C" d="M225.6 627.3c-9-.2-14-7-16.4-12"/><path fill="#6C301E" d="M225.6 627.3c-1.8 0-3.6-.2-5.3-.8-1.7-.5-3.3-1.4-4.7-2.5-3-2.3-5-5.3-6.4-8.6 1 1.6 1.8 3 3 4.5 1 1.2 2.3 2.5 3.7 3.6 1.2 1 2.8 2 4.5 2.6 1.6.6 3.4 1 5 1z"/><path fill="#FAB81C" d="M218.3 634c-7.6-.5-14-7.2-16-12.2"/><path fill="#6C301E" d="M218.3 634c-1.8 0-3.5-.5-5.2-1.2-1.5-.6-3-1.5-4.5-2.6-1.3-1-2.6-2.4-3.7-3.8-1-1.4-2-3-2.5-4.6.7 1.6 1.7 3 2.8 4.4 1.2 1.3 2.5 2.5 3.8 3.6 2.8 2 6 3.7 9.5 4z"/><g><path fill="#FAB81C" d="M211.2 640c-8.2-1-13.8-5-16-10.6"/><path fill="#6C301E" d="M211.2 640c-3.3-.3-6.7-1.2-9.6-3-1.4-.8-2.8-2-4-3.2-1-1.3-1.8-2.8-2.3-4.4.7 1.5 1.6 3 2.7 4.2 1 1.2 2.4 2.2 4 3 1.3 1 2.8 1.6 4.4 2 1.5.6 3.2 1 4.8 1.3z"/></g><g><path fill="#FAB81C" d="M203.4 646c-7.6 0-13.5-5-15.3-9.5"/><path fill="#6C301E" d="M203.4 646c-1.6 0-3.2 0-4.8-.5-1.5-.4-3-1-4.4-2-1.3-.7-2.6-1.7-3.6-3-1-1-2-2.5-2.5-4 .8 1.4 1.7 2.7 2.8 3.8s2.3 2 3.7 3c1.3.7 2.8 1.3 4.2 1.8 1.5.6 3 .8 4.7 1z"/></g><g><path fill="#FAB81C" d="M238.7 614.2c-5.8.8-14.8-6.6-16.7-13"/><path fill="#6C301E" d="M238.7 614.2c-2 .3-3.8-.2-5.5-1-1.7-.6-3.3-1.7-4.8-2.8-1.4-1.2-2.8-2.6-4-4-1-1.6-2-3.3-2.4-5 .7 1.7 1.7 3.2 2.8 4.7 1.2 1.5 2.5 2.8 4 4 1.3 1.2 3 2.2 4.6 3 1.6.7 3.4 1.3 5.3 1.2z"/></g><g><path fill="#FAB81C" d="M194.8 652c-7.6 0-12-5-13.8-9.4"/><path fill="#6C301E" d="M194.8 652c-1.4.2-3 0-4.4-.4-1.5-.4-3-1-4-2-2.6-1.6-4.5-4.2-5.4-7 .7 1.3 1.4 2.6 2.4 3.7 1 1.2 2 2.2 3.2 3 1.2 1 2.5 1.5 4 2 1.3.4 2.8.7 4.2.8z"/></g><path fill="#FAB81C" stroke="#6C301E" stroke-width=".5" d="M177.8 605.6c2.4-1 3.7-3.3 3-5-.7-1.5-3-2-5.5-1s-4 3.2-3.2 4.8c.8 1.6 3.4 2.2 5.8 1.2z"/><path fill="#FAB81C" stroke="#6C301E" stroke-width=".5" d="M179.5 601c2.4-1 3.6-3.3 3-5-.7-1.5-3-2-5.6-1-2.5 1-4 3.2-3.2 4.8.7 1.6 3.3 2.2 5.7 1.2z"/><path fill="#FAB81C" stroke="#6C301E" stroke-width=".5" d="M182.6 596c2.5-1 3.7-3.2 3-5-.7-1.5-3-2-5.5-1-2.3 1-3.8 3.2-3 4.8.6 1.6 3.2 2.2 5.6 1.2z"/><path fill="#FAB81C" stroke="#6C301E" stroke-width=".5" d="M186.5 591.6c2.4-1 3.6-3.3 3-5-.7-1.5-3-2-5.6-1-2.5 1-4 3-3.3 4.7.7 1.7 3.3 2.3 5.8 1.3z"/><path fill="#FAB81C" stroke="#6C301E" stroke-width=".5" d="M191.4 587.3c2.4-1 3.7-3.2 3-5 0 0 0-.5-.2-.4-1 .3-3 .6-2.7-1l.3-.5c-.6 0-2 .5-3 .8-2.4 1-3.8 3.2-3 4.8.6 1.7 3.2 2.4 5.6 1.4z"/></g><g><path fill="#F9F0AA" stroke="#999270" stroke-width=".8" d="M263 417.4s-28 3-36-36c-8.4-41.5 24.3-46 24.3-46s37-3.5 60.2-4l10.3 82-58.7 4z"/><radialGradient id="a" cx="241.2" cy="372.4" r="75.7" gradientUnits="userSpaceOnUse"><stop offset=".2" stop-color="#B07E09" stop-opacity="0"/><stop offset="1" stop-color="#B07E09"/></radialGradient><path fill="url(#a)" stroke="#999270" stroke-width=".8" d="M263 417.4s-28 3-36-36c-8.4-41.5 24.3-46 24.3-46s37-3.5 60.2-4l10.3 82-58.7 4z"/><path fill="#F9F0AA" stroke="#999270" stroke-width=".8" d="M267 404.8s-18.4 3.5-22-25.4C242 359 255 356 255 356l42 7.2.4 37.7-30.5 3.8z"/><radialGradient id="b" cx="260.2" cy="394" r="49.9" gradientUnits="userSpaceOnUse"><stop offset=".2" stop-color="#B07E09" stop-opacity="0"/><stop offset="1" stop-color="#B07E09"/></radialGradient><path fill="url(#b)" stroke="#999270" stroke-width=".8" d="M267 404.8s-18.4 3.5-22-25.4C242 359 255 356 255 356l42 7.2.4 37.7-30.5 3.8z"/><path fill="#F9F0AA" stroke="#999270" stroke-width=".8" d="M255 356s27-2 41-3.7l6 26-32.6 2S267 357 255 356.2z"/><radialGradient id="c" cx="271.9" cy="374.1" r="44.8" gradientUnits="userSpaceOnUse"><stop offset=".2" stop-color="#B07E09" stop-opacity="0"/><stop offset="1" stop-color="#B07E09"/></radialGradient><path fill="url(#c)" stroke="#999270" stroke-width=".8" d="M255 356s27-2 41-3.7l6 26-32.6 2S267 357 255 356.2z"/><path fill="#F9F0AA" stroke="#999270" stroke-width=".8" d="M249.2 336.2s34.7-8.5 39 29.7c1 10-4.3 32.7-21.3 38.8l63.4-6.6-5.8-68.7-21.4 1.8s-45.4 1.5-54 5z"/><radialGradient id="d" cx="291.4" cy="366.8" r="79.4" gradientUnits="userSpaceOnUse"><stop offset=".2" stop-color="#B07E09" stop-opacity="0"/><stop offset="1" stop-color="#B07E09"/></radialGradient><path fill="url(#d)" stroke="#999270" stroke-width=".8" d="M249.2 336.2s34.7-8.5 39 29.7c1 10-4.3 32.7-21.3 38.8l63.4-6.6-5.8-68.7-21.4 1.8s-45.4 1.5-54 5z"/><path fill="#F9F0AA" stroke="#999270" stroke-width=".8" d="M263 417.4c.3 0 237.7-16 262-15 72-39.6-.4-194.8-61-281.6 7-19.6-136.7-63.6-201.7-59.6l-23.5 1.6c-35.3 3.7-35.6 49-21.3 77.4 14 27.7 138.8 252.3 51 276l-5.4 1.2z"/><linearGradient id="e" gradientUnits="userSpaceOnUse" x1="362.5" y1="147.7" x2="355.4" y2="23.1"><stop offset=".2" stop-color="#B07E09" stop-opacity="0"/><stop offset="1" stop-color="#B07E09"/></linearGradient><path fill="url(#e)" d="M517.6 212.5c-16-33.4-35.4-65.7-53.7-91.7 7-19.6-136.7-63.6-201.7-59.6l-23.5 1.6c-35.3 3.7-35.6 49-21.3 77.4 4.4 8.7 19.7 36.8 36 72"/><path fill="#999270" d="M517.6 212.5c-7.8-16-16.2-31.6-25.2-46.8-9-15.3-18.5-30.3-28.7-44.8v-.2c.4-1 .3-2.2 0-3-.4-1-1-2-1.7-3-1.3-1.5-3-3-4.7-4.2-3.4-2.6-7.2-4.7-11-6.7-7.6-4-15.6-7.5-23.7-10.6-16-6-32.6-11.2-49.3-15.7-16.7-4.5-33.6-8.2-50.6-11.2-8.5-1.5-17-2.7-25.6-3.7-8.5-1-17-1.6-25.8-1.6-4.3 0-8.6.2-13 .5l-12.8 1-6.5.4c-2.2.3-4.3.6-6.4 1.2-4 1.2-8 3.2-11.3 6-3.2 2.7-5.8 6.2-7.7 10-2 4-3 8-4 12.3-1.3 8.5-.8 17.3.8 25.7 1.6 8.5 4.4 16.7 8.5 24.3l11.8 23c8 15.5 15.5 31 22.6 46.7-7.2-15.6-15-31-22.8-46.5l-12-23c-4-7.6-7-16-8.7-24.4-1.7-8.5-2.2-17.3-.7-25.8.7-4.3 2-8.5 3.8-12.4 2-3.8 4.6-7.4 8-10.3 3.3-2.8 7.3-4.8 11.5-6 2-.6 4.2-1 6.4-1.2l6.3-.5 13-1c4.3-.2 8.6-.4 13-.4 8.6 0 17.2.6 25.8 1.5 8.7 1 17.3 2.3 25.8 3.8 17 3 34 6.8 50.7 11.3 16.6 4.6 33.2 9.7 49.3 16 8 3 16 6.4 23.8 10.4 3.8 2 7.5 4.2 11 6.8 1.7 1.3 3.4 2.7 4.8 4.5.7.8 1.3 1.8 1.7 2.8.4 1 .5 2.3 0 3.3v-.2c10.3 14.6 19.8 29.6 28.7 45 9 15.2 17.2 31 25 47z"/><linearGradient id="f" gradientUnits="userSpaceOnUse" x1="404.7" y1="319.2" x2="415.5" y2="456.2"><stop offset=".2" stop-color="#B07E09" stop-opacity="0"/><stop offset="1" stop-color="#B07E09"/></linearGradient><path fill="url(#f)" d="M276 265.7c25.6 67 39.8 137.8-7.4 150.6l-5.4 1c.3 0 237.6-16 262-15 39-21.4 35.6-76.8 14.6-137"/><path fill="#999270" d="M276 265.7c5.3 13.5 10 27 14 41s7.3 28 9 42.3c.7 7.2 1 14.5.7 21.7-.3 7.2-1.5 14.4-4 21.2-2.5 6.7-6.7 13-12.5 17.5-2.8 2.2-6 4-9.4 5.3-1.7.7-3.4 1.3-5.2 1.8l-5.3 1v-.5l65.4-4.3 65.4-4 65.6-4 32.7-1.6 16.4-.6c5.5-.2 11-.4 16.4-.3v.2c5.4-3 10.4-7 14.5-11.6 4-4.6 7.3-10 9.7-15.8 4.7-11.5 6-24.2 5.7-36.6-.3-12.4-2.2-24.8-5-37-2.6-12-6-24-10.2-36 4 12 7.7 23.8 10.5 36 2.7 12.2 4.7 24.5 5 37 .2 6.3 0 12.5-1 18.7-1 6-2.4 12.2-4.7 18-2.4 5.8-5.6 11.3-9.8 16-4 4.7-9 8.6-14.6 11.6-5.5 0-11 0-16.5.3-5.4 0-11 .4-16.4.7-11 .5-21.8 1-32.7 1.7-21.8 1.2-43.6 2.5-65.5 4l-65.3 4-65.5 4.2v-.5l5.3-1c1.7-.4 3.4-1 5-1.6 3.4-1.4 6.6-3 9.4-5.3 5.6-4.3 9.7-10.5 12.2-17.2 2.6-6.8 3.7-14 4-21 .5-7.3 0-14.6-.7-21.7-1.6-14.2-4.8-28.4-8.7-42.3-4-13.8-8.6-27.5-13.7-41z"/><g fill="#B07E09"><path d="M361 246c0 .8.5 1.3.8 1.7.3.3.7.6 1.2.8.4.3 1 .4 1.5.5l2 .2c.4 0 .6.2.8.4.2 0 .3.3.4.5v.8c0 .2-.2.3-.5.3-.5.2-1 .2-1.6.2h-5.2c-.4 0-1 0-1.5.2-.7 0-1.2 0-1.8.2-.6 0-1.2 0-1.7.2-.6 0-1 0-1.5.2-.3 0-.6 0-.8-.3-.3-.2-.4-.4-.5-.7v-.6c0-.2.2-.3.4-.4.8 0 1.4-.3 2-.4l1.2-.6.5-1c0-.4 0-1-.3-1.6l-6-14.3-.5-1-.6-.5-.7-.3h-2c-.5 0-1 .2-1.4.3-.4 0-.7 0-1-.3l-.4-.7c-.2 0-.2-.3-.2-.5s0-.4.4-.5l3.4-1.3c1-.4 2.3-1 3.5-1.3.3-.2.6-.2 1 0 .3 0 .6.2.7.6L361 246zM364.3 225.5h8.9c.4 0 .6 0 .8-.2.2 0 .3-.2.4-.4l.2-.7v-.6c0-.2.3-.4.6-.4h.5l.6.3.4.6v1c.2.3.2.7.3 1v1c0 .4-.2.8-.4 1 0 .4-.3.6-.6.8l-1.2.4H367l.7 2 1 2.5.3.5V234.6l1-.3c.2 0 .6 0 1-.2h1c1.2 0 2.4 0 3.6.4 1.2.3 2.4.7 3.5 1.4 1.2.6 2 1.4 3 2.3 1 1 1.6 2 2 3.3.6 1.4 1 2.7 1 3.8-.2 1.2-.5 2.2-1 3-.6.8-1.5 1.4-2.6 1.8-1 .5-2.4.7-4 .8h-2c-.6 0-1.3-.2-2-.4s-1.4-.5-2-1c-.6-.3-1-1-1.3-1.6 0-.4-.2-1 0-1.4 0-.6.5-1 1.2-1h.8l.8.4.7.6c.3.2.4.5.6.8l.2.4v.5c0 .2 0 .2.3.3l.7.2h2c1.7 0 2.7-.6 3-1.8.3-1.2 0-2.8-.8-4.7-.7-1.8-1.7-3-3-4-1.4-1-3-1.5-4.8-1.4-.8 0-1.3.2-1.7.4l-1 .3c-.5 0-1 0-1.2-.3s-.6-.6-.8-1l-2-4.8-1.5-4.8v-.6c.2-.2.4-.3.8-.3zM395.7 230.2l-1-2c-.3-.7-.7-1-1-1.5-.4-.4-.8-.6-1.3-.8-.5-.3-1-.4-1.8-.4-.3 0-.5 0-.7-.3-.3-.2-.5-.4-.5-.6v-.6s0-.3.4-.3h4.4l3-.2c1 0 1.8-.2 2.7-.3 2 0 4 .2 6 .8 2 .5 4 1.4 5.6 2.5 1.7 1 3.2 2.4 4.5 4 1.5 1.5 2.5 3.3 3.3 5.2.8 2 1.2 4 1.2 5.5 0 1.6-.4 3-1.2 4-.7 1-1.8 2-3.2 2.5-1.3.6-3 1-4.7 1H404c-.4 0-.8 0-1 .2h-1.3l-1.2.2c-.3 0-.6 0-.8-.2l-.6-.7v-.6c0-.2.3-.4.6-.4.5 0 1-.2 1.3-.4l.5-.6c.2-.2.2-.5.2-.8 0-.4-.2-1-.4-1.5l-5.6-13.8zm9.3 11.2c.4 1.2 1 2.2 1.2 2.8l1 1.5c.5.3 1 .4 1.6.5h2.3c1 0 2-.3 2.6-.7.6-.5 1-1.2 1.4-2 .2-1 .3-2 0-3.3 0-1.2-.4-2.7-1-4.3-.8-2-1.6-3.4-2.4-4.7-1-1.3-2-2.4-3-3.2-1.2-.8-2.5-1.4-4-1.8-1.4-.4-3-.5-5-.5-.4 0-.6 0-.7.2-.2 0 0 .3 0 .6l6 14.8zM434.4 222h.7c.6 0 .8.4 1 1 0 0 0 .3.2.5 0 .3 0 .5.2.7l.3.6.7 1.6.6 1.5s0 .3-.2.4l-.5.2h-.7l-.6-.7c-.5-1-1-1.6-1.3-2-.3-.6-.7-1-1-1.2-.3-.2-.8-.3-1.3-.4h-5.6l-.6.3v.6l.4 1.3 2.5 6.4.3.4c1.2 0 2 0 2.6-.2l1-.5c.2-.2.2-.5.2-1l-.4-1.4c0-.3 0-.5.2-.6l.6-.2c.2 0 .5 0 .7.2.3 0 .4.3.5.5l.4 1c0 .4.2.7.3 1 0 .4.2.7.3 1l.4 1 .8 2 .6 1c0 .5.3 1 .4 1.2.2.3 0 .5 0 .6l-.6.2h-.7c-.3-.2-.5-.4-.6-.7l-.8-1.6c-.3-.5-.6-.8-1-1-.2 0-.7-.3-1.3-.3h-2.7v.2l2 4.7 1 2.6c.3.5.7 1 1 1.2.5.3 1 .4 1.6.5h4.1l1-.3 1-.6c.2 0 .4-.3.5-.6 0-.3.2-.7 0-1l-.2-2s0-.3.2-.4l.6-.2c.3 0 .6 0 1 .2.2 0 .4.3.4.6l1 3c0 .7.4 1.6.8 2.5v.7l-.3.2h-.7l-13 .5c-1 0-1.8 0-2.6.2l-2.3.2c-.3 0-.6-.2-.8-.4-.3-.2-.4-.4-.5-.6v-.6c0-.2.2-.3.5-.4.5 0 1-.2 1.3-.3l.7-.6s.2-.4 0-.7c0-.4 0-1-.2-1.4l-5.5-14-.7-1.6c0-.5-.4-1-.6-1.4l-1-1c-.2-.2-.6-.3-1-.4-.2 0-.5 0-.8-.2h-.8c-.3 0-.5 0-.7-.3 0 0-.3-.3-.3-.5s-.2-.5 0-.7c0-.2 0-.3.4-.3h4.6l12.8-.6z"/><g><path d="M374.4 331.4c-.2-.8-.4-1.5-.7-2-.2-.6-.5-1-.8-1.4-.4-.4-.8-.7-1.2-.8-.5-.2-1-.3-1.7-.3-.2 0-.5-.2-.6-.4l-.4-.6v-.6c0-.2.3-.3.6-.4h4.5l3-.4 3-.2c2-.2 3.8 0 5.7.6 2 .5 3.6 1.3 5 2.4 1.6 1 3 2.4 4 4 1 1.5 2 3.2 2.4 5 .6 2.2.7 4 .4 5.6-.3 1.6-1 3-1.8 4-1 1.2-2 2-3.6 2.7s-3 1-5 1H384c-1 0-2 0-2.7.2h-2.4c-.3.2-.7.2-1 .3-.5 0-1 0-1.4.2-.3 0-.6 0-.8-.3l-.4-.6v-.6c0-.2.3-.4.6-.4.5 0 1-.3 1.3-.4.3 0 .5-.3.7-.5.2-.2.2-.5.3-1 0-.3 0-.7-.2-1.3l-3.4-14zm7.5 11.2l.7 2.8c.3.6.6 1 1 1.4.2.3.7.4 1.2.5h2.2c1 0 2-.3 2.6-.8.7-.5 1.3-1.2 1.7-2 .4-1 .6-2 .7-3.3 0-1.3 0-2.8-.5-4.4-.5-1.7-1-3.2-1.7-4.5-.7-1.4-1.5-2.4-2.5-3.2s-2.2-1.4-3.6-1.7c-1.5-.4-3.2-.5-5-.4h-.8v.8l3.7 14.8zM414.2 322.3h.6c.4.2.7.5.8 1v.6s0 .4.2.6v.6l.6 1.6c0 .5.3 1 .4 1.4 0 .3 0 .5-.2.6-.2 0-.4 0-.6.2h-.6l-.6-.7c-.3-1-.7-1.5-1-2-.2-.5-.5-.8-.8-1-.3-.3-.7-.4-1.2-.4-.5-.2-1-.2-2 0h-3.6c-.4 0-.6.2-.7.3v.6l.2 1.2 1.5 6.4v.4h.2c1 0 2-.2 2.5-.3.5 0 1-.3 1-.5.3-.2.4-.5.4-1V331c0-.3 0-.5.2-.6l.6-.2h.7c0 .3.2.4.3.7 0 .4 0 .7.2 1v1c.2.3.2.6.3 1 0 .2 0 .6.2 1l.6 2 .3 1 .3 1.2s0 .3-.2.4c0 .2-.3.2-.5.2h-.7c-.2-.2-.4-.3-.5-.6l-.7-1.6c-.2-.4-.4-.7-.7-.8l-1.5-.4H408v.3l1 4.8.8 2.5c.2.6.5 1 1 1.3.2.3.7.5 1.3.5h2.7c.6 0 1.2 0 1.6-.2.4 0 .8 0 1-.2.4 0 .7-.3 1-.5l.6-.7.2-1v-2c0-.2 0-.3.2-.5h.7c.3-.2.6 0 .8 0 .3 0 .5.3.5.6 0 1 .3 2 .4 2.8 0 1 .3 1.7.5 2.6v.6l-.4.3h-.6l-13 1h-2.7l-2.3.4c-.3 0-.6 0-.8-.3-.2-.2-.3-.4-.3-.7v-.5c0-.2.3-.4.6-.4.5 0 1-.3 1.3-.4l.7-.6c.2-.2.3-.5.3-.8 0-.4 0-1-.2-1.4l-3.3-14c0-.5-.3-1-.4-1.5 0-.4-.3-.8-.5-1.2l-.7-1-1-.5h-.8l-.8-.2c-.3.2-.5 0-.7 0 0-.3-.2-.5-.3-.7v-.7c0-.2.3-.3.6-.3h2.2c.6 0 1.3 0 2.3-.2l13-.7zM444 341c0 .7.2 1.3.5 1.6l1 1c.4 0 1 .3 1.5.4l2 .2c.3 0 .5.2.7.4l.3.6v.6c-.2.2-.4.3-.7.3-.5.2-1 .2-1.6.2h-6.9l-1.8.3c-.6 0-1.2 0-1.8.2H436c-.4 0-.7 0-1-.2l-.2-.6v-.7s.3-.4.6-.4l2-.5 1.2-.6.7-1c.2-.5.2-1 0-1.7L436 327c0-.4-.2-.7-.3-1 0-.3-.3-.5-.4-.6 0-.2-.4-.2-.6-.3h-1c-.4 0-.8 0-1.2.2s-.8 0-1.3 0c-.4.2-.7 0-1 0 0-.3-.2-.6-.3-.8v-.6c0-.2 0-.4.4-.5 1.3-.3 2.5-.8 3.7-1.2l4-1.2h.7c.4 0 .6.4.7.7L444 341zM460.7 326c-.3-1.5-.7-2.5-1.4-3-.7-.8-1.6-1-2.7-1-1 0-1.8.4-2.3 1-.5.7-.6 1.7-.3 3 0 .4.4 1 .7 1.3.3.4.7.8 1.2 1 .4.4 1 .8 1.6 1l2.2 1c.4-.4.7-1 1-1.8.2-.7.2-1.6 0-2.6zm4 13l-1-1.7-1.5-1.4-2-1.2-2.5-1c-.7.5-1.3 1.3-1.6 2-.3 1-.3 1.8 0 2.8.2 1.6 1 3 2 3.8 1 1 2 1.3 3.3 1.2 1.3 0 2.2-.5 2.8-1.3.7-1 1-2 .6-3.2zm4-.8c.2 1.2.2 2.2 0 3-.5 1-1 1.8-1.7 2.5s-1.5 1-2.5 1.4c-1 .4-2 .6-3 .7-1 0-2 0-3-.2s-2-.6-3-1c-1-.6-1.6-1.2-2.3-2-.6-1-1-2-1.3-3-.5-1.6-.3-3 .4-4.3.7-1.2 1.8-2 3.3-2.6-1.3-.4-2.5-1.2-3.6-2.2-1-1-1.7-2-2-3.5-.2-1-.2-2 0-3 .3-.8.7-1.5 1.3-2 .5-.7 1.3-1.2 2-1.5 1-.4 2-.6 3-.6 1-.2 2 0 2.8.2 1 .2 2 .6 2.8 1 .8.6 1.4 1.3 2 2 .6.8 1 1.7 1.2 2.7.2.5.2 1 0 1.7 0 .6-.2 1.2-.6 1.7-.3.5-.7 1-1.2 1.4-.5.5-1 .7-1.5.8.6 0 1.3.3 2 .7 1 .4 1.6 1 2.2 1.4l1.6 2c.5.7.8 1.5 1 2.5zM483.6 340.7c1 0 1.6-.3 2-.8.5-.7.7-1.7.6-3 0-.3 0-.5.3-.6l.5-.2c.3 0 .6 0 .8.2.3 0 .5.3.6.6 0 1 .3 1.7.3 2.6 0 1 0 1.7-.3 2.4-.2.7-.5 1.3-1 1.8-.4.5-1 .8-2 .8h-2.3c-.7 0-1.6 0-2.3-.2-.8 0-1.6 0-2.3-.2h-2c-.6 0-1.2 0-1.7.3-.3 0-.5.2-.8.3l-.7.2c-.6 0-1 0-1-.4-.3-.3-.5-.6-.5-1v-.6c.2-1 .5-2 1-3 .3-1 .8-1.8 1.3-2.5l1.8-2 1.7-1.5 1.5-1.6c.5-.4 1-1 1-1.5.4-.7.6-1.3.7-2v-2.4c-.5-1.7-1-3-2-3.8-.8-1-2-1.4-3.6-1.4-.6 0-1.2.2-1.7.5-.4 0-.8.4-1 .8-.3.3-.5.7-.6 1v1.3c0 .2.2.4.3.5l.4.3h.7c.7 0 1.3.2 1.6.6.4.3.6.7.7 1.2.2.6 0 1-.2 1.6-.2.4-.7.6-1.5.6-.7 0-1.3 0-1.8-.3s-1-.6-1.3-1c-.3-.4-.6-.8-.7-1.2l-.4-1c-.2-1-.2-2 0-2.8.2-.8.6-1.6 1.2-2.2.5-.6 1.2-1 2-1.5 1-.4 2-.7 3.2-.7 1.4 0 2.6.2 3.7.5 1 .3 2 .7 3 1.3.7.6 1.3 1.4 1.8 2.2.5 1 1 1.8 1 2.8.4 1.4.4 2.7 0 3.8-.5 1-1 2-1.8 3s-1.6 1.6-2.5 2.4c-.5.3-1 .6-1.3 1l-1.3 1c-.8.8-1.4 1.4-1.8 2-.5.7-.6 1.4-.4 2.2 0-.2 0-.4.3-.5.6-.2 1.3-.3 2.2-.3h2.8l1 .3h1.2zM501.6 338.8c0 .7.3 1.2.6 1.6l1 1c.4 0 1 .3 1.5.4l2 .3c.3 0 .5.2.6.4l.3.6v.6c0 .2-.3.4-.7.4h-3.5c-.6 0-1.2 0-1.8-.2h-3.1l-1.7.3-1.8.2h-1.5c-.4.2-.6 0-.8-.2l-.4-.6v-.6c.2-.2.4-.4.7-.4.7 0 1.3-.2 2-.4.4 0 1-.3 1.3-.6.3-.2.6-.5.7-1V339l-3-14.4c0-.4-.2-.7-.3-1 0-.3-.2-.5-.3-.6-.2-.2-.4-.2-.7-.3h-3.5c-.3.2-.6 0-.8 0-.2-.4-.4-.6-.4-1v-.4c0-.2.2-.4.5-.5l3.8-1c1.2-.5 2.4-1 3.7-1.3h1c.2 0 .4.4.5.7l4 19.6z"/></g><g><path d="M291.8 185.4c-.3-.7-.6-1.3-1-1.8-.2-.5-.5-1-.8-1.2-.3-.3-.7-.5-1-.6l-2-.2s-.4 0-.6-.2l-.5-.7c-.2-.2-.2-.4-.2-.6 0 0 .2-.3.5-.3h5.4l1.5-.3h1.2l1.2-.3h1.4c.3 0 .5 0 .7.2l.4.6c.2.2.2.4.2.7 0 .2-.2.3-.4.4-.7 0-1.2 0-1.5.3-.4 0-.6.3-.7.6v1c.3.6.5 1.3 1 2l5.3 12.7c.2.8.5 1.4.8 2 .2.4.5.8.8 1 .3.3.6.6 1 .7.3.2.8.3 1.3.4h2.3c.8 0 1.4-.2 2-.3s.8-.5 1-1c.3-.2.5-.7.5-1.4l-.2-2.4c0-.3 0-.5.2-.6l.6-.2c.2 0 .5 0 .7.2.4 0 .6.3.7.5l1 3.3 1.2 3v.5l-.4.2s-.3 0-.5.2l-12.8 1c-1 0-1.8 0-2.6.2-.8 0-1.6 0-2.4.2-.3 0-.6 0-.8-.3-.3-.2-.4-.5-.5-.7-.2-.2-.3-.4-.2-.6 0-.2.2-.4.4-.4l1.6-.4.7-.6v-1c0-.4-.3-1-.6-1.7l-6.2-14.2zM314 184l-1-2c-.3-.5-.6-1-1-1-.2-.4-.6-.6-1-.7-.5-.2-1-.2-1.8-.2-.3 0-.5 0-.7-.2l-.5-.7v-.5c0-.2 0-.3.4-.4h6.9c.3-.2.7-.2 1-.3h1.4l1.4-.3c.4 0 .6 0 .8.3.2.2.4.4.4.6v.7c0 .2 0 .3-.3.3-.8 0-1.3.3-1.6.4-.4.2-.6.4-.7.7v1.2l1 2 6 14.2c.2.8.5 1.3.7 1.7l.8 1 1 .3h2c.2 0 .4.3.6.5.3.2.4.4.5.6v.5c0 .2-.2.3-.5.4h-5.4c-1 0-1.8 0-2.7.3-1 0-1.8.2-2.6.3-.2 0-.4 0-.6-.3l-.5-.6c-.2-.2-.2-.4-.2-.6 0 0 .2-.3.4-.3l1.6-.4c.4 0 .6-.3.7-.5v-1l-.6-1.7-6-14zM334.3 187c0 .4.2.5.3.6h1.1c.8 0 1.4 0 2-.3.5-.2 1-.4 1.2-.8.2-.3.4-.8.4-1.4 0-.5-.2-1.2-.6-2.2l-1-2c-.5-.5-1-1-1.5-1.2-.5-.3-1-.5-1.7-.6-.6-.2-1.2-.2-2-.2h-1.2l-.3.2c0 .2 0 .3.2.5 0 .2 0 .4.3.8l2.8 6.8zm3 7.4c.6 1.3 1 2.4 1.5 3 .3.8.7 1.3 1 1.6.4.3.8.5 1.2.5h1.8c1.5 0 2.4-.5 2.7-1.2.3-.8.2-2-.5-3.5-.4-1-1-2-1.6-2.7-.6-.5-1.2-1-2-1.4-.5-.4-1.3-.6-2-.7-.8-.2-1.6-.2-2.4 0H335.7c0 .2 0 .5.3 1l1.4 3.4zm-9.2-10.8c0-.5-.4-1-.6-1.5l-.8-1.3-1-1c-.2-.2-.6-.4-1-.4-.2 0-.5 0-.8-.2h-.8c-.3 0-.5 0-.7-.2l-.5-.6v-.7c0-.2 0-.3.4-.3h4.5c.5-.2 1-.2 1.3-.2.3 0 .7 0 1.2-.2h1.4l1-.2h2c1 0 1.6 0 2.3.2.6 0 1.4.3 2 .6 1 .2 1.6.6 2.2 1 .7.5 1.3 1 1.8 1.6.6.7 1 1.4 1.4 2.2.3.8.5 1.6.5 2.2 0 .6-.2 1.2-.4 1.6-.3.5-.6 1-1 1.3l-1.3 1v-.2h-.2c2.3.4 4 1 5.6 2 1.6 1 2.8 2.6 3.6 4.5.6 1.4.8 2.5.7 3.4-.2.8-.6 1.5-1 2-.7.6-1.4 1-2.3 1.3l-3 .5h-5c-.6.2-1.2.2-1.7.2h-1.3l-1 .3h-1.2c-.4.2-.8.2-1.3.3-.3 0-.6 0-.8-.2l-.5-.7c-.2-.2-.2-.4-.2-.6 0 0 .2-.3.4-.3.6 0 1-.2 1.3-.4.4 0 .6-.3.7-.5 0-.2.2-.5 0-1 0-.2 0-.7-.3-1.3l-6-14zM362 175c.3-.2.5 0 .7 0 .4 0 .7.3 1 1v.4l.4.7.3.7.7 1.6.7 1.5c0 .2 0 .4-.2.5l-.5.2h-.7l-.6-.7-1.3-2-1-1c-.4-.2-.8-.4-1.3-.4h-4l-1.5.2c-.3 0-.5 0-.6.2-.2.2-.2.3 0 .6 0 .3 0 .8.4 1.4l2.6 6.3c0 .3.2.5.2.5 1.2 0 2 0 2.5-.3.6 0 1-.3 1-.5.3-.2.3-.5.3-1l-.4-1.4c0-.3 0-.5.2-.6l.6-.2c.2 0 .4 0 .7.2.3 0 .5.3.6.5l.4 1c0 .4.2.7.3 1l.3 1 .4 1c.3.8.6 1.5 1 2 0 .3.3.6.5 1l.5 1.2v.6l-.7.2h-.7l-.6-.6c-.3-.7-.6-1.3-1-1.7s-.4-.7-.8-1l-1.4-.3h-2.6v.4l2 4.8 1.2 2.6c.3.6.7 1 1 1.2.5.3 1 .4 1.6.5h4.1l1-.4 1-.6.5-.7c0-.3.2-.7 0-1 0-.5 0-1-.3-2 0 0 0-.3.2-.4l.6-.3c.3 0 .5 0 .8.2.3 0 .5.2.6.4l1 3c0 .8.4 1.7.8 2.6V199.6l-.3.2h-.6l-13 1H358l-2.4.4c-.3 0-.6 0-.8-.3l-.5-.8v-.5c0-.2 0-.4.4-.4.5 0 1-.3 1.2-.4.3-.2.5-.4.6-.7l.2-.8c0-.4-.2-.8-.4-1.4l-5.8-14-.7-1.4c-.3-.5-.6-1-1-1.3 0-.4-.4-.7-.7-1l-1-.5h-1l-.8-.2c-.2 0-.5 0-.7-.2l-.4-.6v-.7s0-.2.4-.2h2.2c.6 0 1.3 0 2.3-.2l12.7-.7zM372.6 181l-.7-1.6-1-1.4c-.2-.4-.4-.7-.8-1-.3-.2-.6-.4-1-.4l-1-.2h-.7c-.3 0-.5 0-.7-.3-.2 0-.4-.3-.4-.5s-.2-.5 0-.7c0-.2 0-.3.4-.3h4.5c.7-.2 1.3-.2 2-.2l1.5-.2h5.7l3 1.2c1 .5 2 1.2 3 2 .7.8 1.3 2 1.8 3 .4 1 .6 2 .6 2.6 0 .8-.2 1.4-.5 2-.3.5-.8 1-1.3 1.3-.6.5-1.2.8-2 1v-.2c1 .4 2 .8 2.6 1.2.7.4 1.3 1 2 1.3.4.5 1 1 1.3 1.5.6.5 1 1 1.3 1.5l1 1.4.8 1.5c.5.5.8 1 1 1l.7.3c.2 0 .4 0 .5-.3 0-.2.2-.5 0-1 0-.2 0-.4.2-.5l.5-.2c.2 0 .5 0 .8.3.3 0 .5.4.6.7.2.6.2 1.2 0 1.7 0 .5-.2 1-.4 1.2l-1 .7c-.6.3-1 .4-1.6.4h-1.2c-.4 0-.8-.2-1.2-.4l-1.2-.7c-.4-.2-.7-.5-1-1l-1-1.3-1-1.4-.8-1.4c-.3-.5-.6-1-1-1.3-1-1.5-1.8-2.6-2.7-3-1-.7-2-1-3-1-.3 0-.5 0-.6.3-.2 0-.2.4 0 .7l2 5c.3.7.6 1.3 1 1.8.3.4.6.8 1 1l1.3.5h1.7c.3 0 .5.2.7.4.3.2.4.4.5.6v.7c0 .2-.3.3-.6.3H382.5c-1 0-1.7.2-2.6.3l-2.6.3c-.3 0-.6-.2-.8-.4l-.4-.6v-.6c0-.2 0-.4.3-.4.7 0 1-.2 1.5-.4.3 0 .5-.3.6-.5 0 0 .2-.4 0-.8 0-.4-.2-1-.5-1.7l-5.4-13.6zm6.4 4l.5.7h1.6c1 0 1.6 0 2-.3.6-.2 1-.5 1.2-1 .2-.2.2-.8 0-1.4 0-.6-.3-1.4-.6-2.4-.4-1-.8-1.6-1.2-2.2-.4-.6-.8-1-1.3-1.4-.4-.3-1-.5-1.5-.7h-2c-1 0-1.4 0-1.5.2-.2.2-.2.7 0 1.3l3 7.2zM412 193c.4.6.6 1.2 1 1.6 0 .4.3.7.6 1l1 .3h2l.7.4.4.6v.7c0 .2-.2.3-.5.3h-5.4c-1 0-1.8 0-2.8.2l-2.6.3c-.3 0-.5 0-.7-.3l-.5-.6v-.7c0-.3 0-.4.4-.5.7 0 1.2-.2 1.6-.3.3 0 .6-.3.7-.5v-1l-.6-1.7-6.5-16c-.3-1-.7-1.3-1-1.5l-2.2-.2c-1 0-1.5.2-2 .3-.5 0-.8.4-1 .7-.2.3-.3.8-.3 1.4 0 .5 0 1.3.3 2.3 0 .2 0 .4-.2.5H393.3c-.2-.2-.4-.3-.5-.6-.2-1-.5-2-1-2.8-.2-1-.7-1.8-1-2.7-.3-.5-.2-.8.2-1l1.2-.2 19.2-.8h1.4c.5.2.8.5 1 1 0 .3 0 .6.3 1l.6 1.4.6 1.4.8 1.5v.5l-.6.3h-.7c-.3-.2-.5-.3-.6-.6l-1.4-2.3c-.5-.7-1-1-1.4-1.4-.5-.3-1-.5-1.6-.6h-2c-1 0-1.6 0-2 .3-.2.2-.3.7 0 1.4L412 193zM429 188.7h-.3v5.5c0 .3.2.5.4.6l.8.4 1 .2h1l.7.4.4.6v.7c0 .3-.3.4-.6.5h-2l-1.2-.2h-1c-.6 0-1 0-1.7.2l-2 .2c-.2 0-.4 0-.6-.3-.4-.2-.5-.5-.6-.7v-.6s0-.2.4-.2h.5l.8-.4c.3 0 .5-.3.6-.5.2-.3.3-.6.3-1v-1.8l.2-20.7c0-.3.2-.5.7-.5.4 0 .8 0 1.3.4l4 5 4 5.3c1.5 1.8 3 3.6 4.2 5.3l4 5.2 1.5 1.5 1 .8c.4 0 .7.2 1 .3.3 0 .6 0 1 .2.2 0 .4 0 .6.3.2.2.4.4.4.6v.6c0 .2 0 .3-.4.3h-1c-.5 0-1 0-1.3-.2H445c-1 0-2 0-2.8.2l-2.6.2c-.3 0-.5 0-.8-.3l-.5-.8v-.6s.2-.3.5-.3c.7 0 1.2-.3 1.5-.5.2 0 .2-.4 0-1l-.2-.4c0-.2-.2-.5-.5-.8l-1-1.5-1.8-2c0-.3-.3-.4-.4-.5h-.8l-6.4.2zm5.5-2.4h.4l-.2-.2-6.5-8.4v8.9h.4l5.8-.2zM448.5 178c-.3-1-.6-1.6-1-2.2-.2-.6-.6-1-1-1.4-.3-.4-.7-.6-1.2-.8l-1.7-.4c-.3 0-.6 0-.8-.3l-.4-.7v-.6c0-.2.2-.3.5-.4H453c2-.2 4 0 6 .8 2 .7 3.8 1.6 5.5 2.7 1.7 1 3 2.5 4.4 4 1.5 1.7 2.5 3.4 3.2 5.3.7 2 1 4 1 5.5 0 1.6-.5 3-1.3 4-1 1-2 1.8-3.4 2.3-1.5.5-3 .8-5 .8h-3.2c-1 0-2-.2-2.8 0H454l-1.3.3c-.3 0-.6-.2-.8-.4-.4-.2-.5-.5-.6-.7v-.7c0-.2.2-.3.5-.4l1.2-.4c.3 0 .5-.3.7-.5v-.7c0-.4 0-.8-.3-1.4l-5.2-14zm9 11.3c.4 1.2.8 2 1.2 2.8.3.8.7 1.2 1 1.5.4.3 1 .5 1.5.6.6.2 1.3.2 2.3.2 1 0 2-.2 2.5-.7.7-.4 1.2-1 1.5-2 .3-.8.4-1.8.3-3 0-1.4-.5-2.8-1-4.4-.7-1.7-1.5-3.2-2.3-4.5-1-1.4-1.8-2.5-3-3.3-1-1-2.4-1.5-3.8-2-1.5-.4-3.2-.6-5-.6-.5 0-.7 0-.8.2-.2 0-.2.3 0 .7l5.5 14.8z"/></g><g><path d="M309.6 287.3c.2.6.5 1.2 1 1.6.4.3.8.7 1.4 1l1.7.7 2 .6 3 1.2c1.2.4 2.2 1 3.2 1.6.8.7 1.7 1.4 2.5 2.3.8 1 1.4 2 1.8 3.3.5 1.3.6 2.5.4 3.4-.3 1-.7 1.8-1.4 2.4-.6.7-1.4 1-2.4 1.5l-3 .5h-2.6c-1-.3-1.8-.5-2.7-1h-.3-.3-.2v.8l-.4.5h-1.2c-.2-.2-.4-.4-.4-.6l-.4-1.8-.6-1.8-.7-1.8c0-.6-.4-1.3-.7-2-.2-.2 0-.5 0-.6 0-.2.3-.3.5-.4h.7l.6.6 1.8 2.6c.6.7 1.3 1.4 2 1.8.7.5 1.5 1 2.2 1 .8.4 1.6.5 2.4.4.6 0 1-.2 1.6-.4.5-.2 1-.5 1.2-.8l.6-1.2c0-.5 0-1-.3-1.7-.2-.7-.6-1.4-1.2-2l-1.8-1.5-2-1-2.4-.8-2.6-1c-1-.3-2-.7-2.7-1.3-.8-.5-1.6-1-2.3-2-.7-.7-1.2-1.7-1.6-3-.4-1-.5-2-.3-3s.6-1.6 1.2-2.2c.6-.6 1.4-1 2.3-1.3 1-.4 2-.6 3-.7h1.8c.5 0 1 0 1.8.3.3 0 .6 0 .8.2h.5v-.2c.2 0 .3-.3.5-.4h1.1c.2.2.4.3.4.6 0 .5 0 1 .2 1.3 0 .5.3 1 .5 1.4l.6 1.7 1 2s0 .3-.2.4l-.4.3h-.7l-.6-.5c-.6-1-1.2-2-1.7-2.5-.5-.7-1-1.2-1.5-1.5-.5-.3-1-.5-1.6-.6h-2.2c-.5 0-1 0-1.5.3-.5 0-.8.4-1 .7-.4.3-.5.6-.6 1 0 .5 0 1 .2 1.6zM340.2 279.7h.7c.3.2.6.5.7 1v.6l.4.7.3.6.6 1.6c0 .5.2 1 .4 1.4 0 .3 0 .5-.2.6-.2 0-.3 0-.5.2h-.7l-.5-.7-1.2-2c-.3-.5-.7-.8-1-1l-1.2-.4h-1.8l-2.2.2h-1.5l-.6.3c-.2 0-.2.3-.2.6l.4 1.4 2.2 6.3v.5h.2c1 0 2-.2 2.5-.3.6-.2 1-.3 1.2-.6.2-.2.3-.5.2-.8 0-.4 0-1-.2-1.6 0-.2 0-.4.2-.6.2 0 .4 0 .6-.2.2 0 .4 0 .7.2.2 0 .4.3.5.5 0 .5.2.8.3 1.2 0 .3 0 .6.2 1l.2.8c0 .3 0 .7.3 1.2l.7 2 .5 1 .4 1c0 .4 0 .5-.2.7H341.5c-.2 0-.4-.3-.5-.5l-.8-1.6c-.3-.5-.5-.8-1-1-.2-.2-.7-.3-1.3-.3h-2.6v.3l1.6 4.8 1 2.5c.3.6.6 1 1 1.3.3.2.8.4 1.5.4h2.5l1.6-.2c.4 0 .8-.2 1-.3l1-.6.5-1c.2 0 .3-.5.3-1 0-.4 0-1-.3-1.7 0-.3 0-.5.3-.6l.6-.2s.4 0 .6.2c.3 0 .5.3.6.5l.6 3 .8 2.6v.7l-.4.2-.5.2-13 1h-2.5l-2.3.5c-.5 0-.7 0-1-.3l-.4-.7v-.6c0-.2.2-.3.5-.4.6 0 1-.2 1.4-.4l.7-.6c.2-.3.3-.5.3-1 0-.3 0-.7-.3-1.3l-4.7-13.8-.6-1.6c-.2-.5-.4-1-.7-1.3l-.8-1-1-.4c-.2-.2-.5-.2-.8-.2h-.8c-.3 0-.5 0-.7-.3-.3-.2-.4-.4-.5-.6v-.8c0-.2.2-.3.5-.4h2.2c.5 0 1.3 0 2.2-.2l12.8-1zM359.3 298.6c.3.8.6 1.5 1 2l1 1 1.2.3h1.8c.3 0 .6 0 .8.3l.5.7v.6c0 .2-.3.4-.6.4h-6.2c-1 0-1.7.3-2.6.4-.8.2-1.7.3-2.5.3-.3 0-.6 0-.8-.2l-.5-.7v-.6c0-.2.2-.4.4-.4.6 0 1-.3 1.4-.4.4 0 .6-.3.7-.5.2-.4.3-.7.2-1 0-.5-.2-1-.4-1.7l-4.5-13.6-.6-1.5-.7-1.4-.8-1c-.3-.2-.6-.4-1-.4-.3 0-.6 0-1-.2h-.7c-.2 0-.5 0-.7-.3l-.4-.7v-.7c0-.2.3-.3.6-.3h4.8l3.2-.4c1-.3 1.8-.4 2.6-.4h3l3 1c1 .5 1.7 1.2 2.5 2s1.4 2 1.8 3c.4 1.5.6 2.7.3 3.7 0 1-.6 1.8-1.4 2.4-.8.7-1.7 1.2-3 1.5-1 .4-2.4.6-4 .7v.3l1.7 5.3zm-2.6-7.8h.4c1.2 0 2-.2 2.8-.4s1.2-.6 1.5-1c.3-.4.4-1 .4-1.6 0-.6-.2-1.4-.5-2.4-.6-1.8-1.4-3-2.2-3.7-1-.7-2-1-3.6-1-1 .2-1.4.3-1.5.5-.3.2-.3.6 0 1.2l2.7 8.4zM385 297.3c0 .8.3 1.4.5 1.8.2.5.4.8.7 1 .3 0 .6.3 1 .4h2c.2 0 .4.2.6.4l.4.7v.6c0 .3-.3.4-.6.5h-5.4c-1 0-1.8 0-2.7.3l-2.6.3c-.4 0-.7 0-1-.2l-.3-.6v-.6s.2-.4.4-.4c1 0 1.4-.3 1.8-.4.3 0 .6-.3.7-.5 0-.2.2-.5 0-1 0-.3 0-1-.3-1.7l-5.3-16c-.4-1-.7-1.3-1-1.5h-2.2c-.8 0-1.5 0-2 .3-.4 0-.8.4-1 .7-.2.3-.4.8-.4 1.4 0 .5 0 1.3.2 2.3 0 .3 0 .4-.3.5l-.6.2c-.2 0-.4 0-.6-.2-.2 0-.3-.3-.4-.5l-.7-2.8-1.2-2.8c0-.5 0-.8.4-1l1.3-.2 19-1c.6-.2 1 0 1.5 0s.7.3 1 .8v1l.5 1.4.6 1.6.7 1.5v.6h-1.4c-.2 0-.4-.2-.5-.4l-1.3-2.3-1.3-1.3c-.5-.3-1-.5-1.6-.5-.5 0-1.2-.2-2 0-1 0-1.6 0-2 .3-.2.2-.3.7 0 1.4l5.3 16zM394.4 282.3l-.7-2c-.2-.4-.5-.8-.8-1l-1.2-.7-1.7-.2s-.4 0-.6-.3c-.2 0-.3-.3-.4-.5v-.6c0-.4.3-.5.5-.5h5.6c.5 0 1 0 1.4-.2h1.2c.4-.2 1-.2 1.3-.3h1.3c.3 0 .5 0 .7.2l.4.6v.7c0 .2-.3.3-.5.3-.8 0-1.3.2-1.7.4-.3.2-.6.4-.7.7v1c0 .5.3 1.2.5 2l4.8 14.2.6 1.8.8 1 1 .3h1.8l.7.5.4.6c.2.2.2.4 0 .6 0 .2-.2.4-.5.4H403c-.8 0-1.7 0-2.7.3-1 0-1.8.2-2.6.3-.3 0-.5 0-.7-.3l-.4-.6v-.6c0-.2.2-.3.4-.4.7 0 1.3-.2 1.6-.3.4 0 .7-.3.8-.5 0-.2.2-.5 0-1 0-.3 0-1-.4-1.7l-4.6-14.2zM420.8 275h.7c.4 0 .7.4.8 1v.5l.3.7.2.6.6 1.6.5 1.5s0 .3-.3.4l-.5.2h-.7l-.5-.7c-.5-1-.8-1.6-1.2-2-.3-.6-.6-1-1-1-.3-.4-.7-.5-1-.5h-4.2c-.7 0-1.2 0-1.6.2-.3 0-.5 0-.6.2v.5c0 .2 0 .7.3 1.3l2 6.3c0 .4.2.5.2.5 1 0 2 0 2.5-.2.5 0 1-.3 1-.5.3-.2.4-.5.4-1-.2-.3-.2-.8-.4-1.4 0-.3 0-.5.3-.6l.5-.2h.6c.4.3.5.4.6.7 0 .4.2.7.3 1v1l.4 1c0 .2 0 .6.3 1l.7 2c0 .3.3.6.4 1l.4 1.2v.6l-.7.3c-.2 0-.4 0-.7-.2-.2 0-.4 0-.5-.4l-.8-1.6c-.2-.4-.5-.7-.8-.8-.3-.2-.8-.4-1.4-.4h-2.6v.3l1.5 5 1 2.4c.2.6.6 1 1 1.3.3.2.8.4 1.4.4.7.2 1.5.2 2.6 0h1.6c.4 0 .8-.2 1-.3l1-.6c.2 0 .4-.3.5-.6l.2-1-.2-2s0-.3.3-.4l.6-.2c.2 0 .5 0 .7.2.2 0 .4.3.5.5l.6 3 .8 2.6v.7l-.4.2h-.5l-13.2.7c-1 0-1.7 0-2.6.2-.8 0-1.6 0-2.3.2-.4 0-.7 0-1-.3 0-.3-.2-.5-.3-.8v-.6c0-.2.2-.3.5-.3.5 0 1-.3 1.3-.4l.7-.6.2-1c0-.3 0-.7-.2-1.3l-4.5-14-.5-1.4-.7-1.3-.8-1-1-.5h-1l-.7-.2c-.2 0-.5 0-.6-.2l-.4-.7v-.6l.5-.3h4.5l12.8-.8zM430 279.4l-.6-1.6c-.2-.4-.5-.7-.7-.8l-1-.4h-1.5c-.3 0-.5-.2-.7-.4-.2-.2-.4-.4-.4-.7v-.6c.2-.3.4-.4.6-.4h2.4c.6 0 1.3 0 2-.2h3c.4.2.7.3.8.6l12.7 17-.3-.2v.2l1.6-17.7c0-.2.3-.4 1-.5l2.2-.2 2.4-.2c1 0 1.5 0 1.8-.2.4 0 .6 0 .8.3l.3.6v.8c0 .2-.2.3-.4.3l-1.8.6c-.3 0-.6.3-.7.6v1.3l1 2.6 4 13.5.7 1.8.7 1 1 .3c.5 0 1 0 1.8.2.2 0 .5 0 .7.3l.4.7v.7c-.2.2-.4.3-.7.3h-5.5c-1 0-1.8 0-2.7.2l-2.5.2c-.3 0-.6 0-.8-.3l-.4-.7v-.6c0-.3.2-.4.4-.4.8 0 1.3-.3 1.7-.4l.8-.6v-1l-.3-1.6-4.4-13.5h.2l-1.3 12.7-.2 2.8v3c0 .2-.2.4-.3.4h-.6c0 .2-.3 0-.5 0-.3 0-.5 0-.6-.3l-13.6-18h.2l4.2 13.4c.2.8.5 1.5.8 2l.8.8 1 .4c.4 0 1 0 1.5.2.2 0 .5 0 .6.3l.2.7v.6c0 .3 0 .4-.4.4h-2c-.6 0-1.3-.2-2 0h-2.4c-.7.3-1.3.3-1.8.3-.3 0-.5 0-.7-.2-.3-.2-.5-.4-.5-.6v-.7c0-.2 0-.3.4-.3l1.3-.3.8-.6s.2-.5.2-1l-.5-2-4.7-15zM470 283.2c0 .3 0 .5.2.5h1.1c.8 0 1.5 0 2-.2.6 0 1-.4 1.4-.7.3-.4.5-.8.6-1.4 0-.6 0-1.3-.3-2.3-.2-.7-.5-1.3-1-2l-1-1.2c-.6-.3-1-.5-1.7-.6-.6-.2-1.3-.2-2-.2H468h-.3V275.7l.2.8 2 6.8zm2.2 7.4l1 3 1 1.5c.3.4.6.6 1 .7h2c1.4 0 2.4-.4 2.8-1 .4-1 .3-2 0-3.6l-1.4-2.6c-.5-.7-1-1.2-1.8-1.5-.6-.5-1.3-.7-2-1h-3.2c-.3 0-.5 0-.6.2l.2 1 1 3.4zm-8-11l-.6-1.5-.6-1.3-.8-1-1-.5h-1c-.2-.2-.5-.2-.7-.2-.3 0-.5 0-.7-.3l-.4-.7v-.6c0-.2.3-.3.6-.3h7l1.4-.2h3.2c.7 0 1.5 0 2.2.2l2 .7c1 .3 1.5.6 2 1 .7.5 1.3 1 1.8 1.7.5.6.8 1.4 1 2.2.3.8.4 1.5.4 2.2 0 .6-.3 1-.6 1.6-.3.5-.6 1-1 1.2l-1.6 1v-.3c2 .4 3.8 1 5.2 2.2 1.5 1 2.5 2.5 3 4.5.5 1.3.6 2.4.4 3.3-.2 1-.7 1.6-1.3 2-.5.7-1.3 1-2.2 1.3-1 .2-2 .4-3 .4H472c-.5 0-1 0-1.4.2h-1c-.4 0-.8 0-1.2.2-.4 0-1 0-1.3.2-.2 0-.5 0-.7-.3l-.4-.7c-.2-.2-.2-.4 0-.6 0-.2 0-.3.3-.4.6 0 1-.2 1.4-.3.3 0 .5-.3.7-.5l.2-1c0-.2 0-.7-.2-1.3l-4.3-14zM487 278.7c0-.5-.3-1-.5-1.5l-.6-1.3c-.4-.5-.6-1-1-1-.2-.4-.5-.5-1-.6l-.8-.2h-.8c-.3 0-.5-.2-.7-.4l-.3-.6v-.6c0-.2.2-.3.5-.4h8l2.7-.3c1 0 2 0 3 .2s2 .6 3 1c1 .6 1.8 1.3 2.6 2.2.7.8 1.3 2 1.6 3 .2 1 .3 2 .2 2.6 0 .8-.3 1.4-.6 2-.4.5-1 1-1.5 1.3-.5.3-1.2.6-2 .7l2.5 1 1.8 1.5 1.3 1.4 1 1.4.7 1.5.8 1.4c.4.5.6 1 1 1l.6.3c.2 0 .3 0 .5-.3.2 0 .3-.4.3-1 0 0 0-.3.2-.4l.5-.2c.2 0 .5 0 .8.3.3.2.5.5.5.8v1.6s-.4 1-.7 1.3l-1.2.7-1.5.2h-1.3c-.4 0-.8-.3-1.2-.4l-1-.7-1-1-.8-1.3-.8-1.5-1-1.4c0-.5-.4-1-.6-1.3-1-1.5-1.7-2.5-2.5-3-1-.7-2-1-3-1-.3 0-.5 0-.7.2-.2.2-.2.4 0 .8l1.4 5c.2.7.5 1.3.8 1.8.2.4.6.7 1 1l1.2.5c.5 0 1 0 1.6.2.3 0 .6 0 .8.3.3.2.4.4.5.6v.7c0 .3-.3.4-.6.4H492c-.8.2-1.7.3-2.6.3-.3 0-.5 0-.7-.3l-.4-.6v-.6c0-.2.2-.4.4-.4.7 0 1.2-.2 1.6-.3.3 0 .6-.3.7-.5 0-.2.2-.6 0-1 0-.4 0-1-.2-1.6l-4-13.7zm6 4.2c.2.4.3.6.5.7h1.5c1 0 1.6 0 2-.2.7-.2 1-.5 1.3-1 .2-.3.3-.8.2-1.4 0-.5 0-1.3-.4-2.3-.2-1-.5-1.6-.8-2.2L496 275l-1.5-.6-2-.2c-1 0-1.5 0-1.6.3-.3.2-.3.6 0 1.3l2 7zM524.5 271.3h.7c.4.2.7.6.8 1v.7l.3.7.2.6c0 .5.3 1 .5 1.6 0 .4.3 1 .4 1.3 0 .3 0 .4-.2.5l-.6.2h-.6l-.5-.7-1-2c-.4-.5-.7-1-1-1-.4-.3-.8-.5-1.3-.5h-5.6c-.3 0-.6 0-.7.2-.2 0-.2.3 0 .5 0 .3 0 .8.2 1.4l1.8 6.2v.4h.2c1 0 2 0 2.5-.2.6 0 1-.2 1.2-.4l.2-1c0-.3 0-.8-.2-1.4 0-.3 0-.4.3-.6h1.2l.4.6c0 .4.2.7.3 1 0 .4 0 .7.2 1v1c.2.2.3.6.4 1l.6 2c0 .3.2.6.4 1 0 .4.2.8.4 1.2 0 .3 0 .4-.2.6H525c-.3 0-.5-.3-.6-.5-.3-.8-.5-1.4-.8-1.8l-.7-.8c-.5-.2-1-.4-1.6-.4H519h-.2v.2l1.4 4.8c.3 1 .6 2 1 2.5 0 .6.4 1 .8 1.3s1 .4 1.5.5h4.3c.4 0 .8-.2 1-.3.4 0 .7-.3 1-.5.3-.2.5-.4.6-.7l.2-1V290c0-.3 0-.5.2-.6h1.4l.6.6c0 1 .3 2 .5 3l.7 2.6v.5c-.2 0-.3 0-.4.2h-.6l-13 .3h-2.8l-2.4.3c-.3 0-.6 0-.8-.3l-.4-.7v-.5c0-.2.2-.4.5-.4.5 0 1 0 1.2-.2.4 0 .6-.3.8-.5.2-.3.2-.5.3-1 0-.2 0-.7-.3-1.3l-4-14c0-.5-.3-1-.4-1.5-.2-.5-.4-1-.7-1.3l-.8-1-1-.5c-.3 0-.6 0-1-.2h-.7c-.3 0-.5-.2-.7-.4l-.3-.5v-.6c0-.3.2-.4.5-.5h4.5l13-.2z"/></g></g><path fill="#F9F0AA" stroke="#999270" stroke-width=".8" d="M241.2 76c-17 0-21.4 16.4-21 26.7.5 27 21 28.3 21 28.3l27.3-1.5 13-55.7-40.3 2.3z"/><radialGradient id="g" cx="234.6" cy="116.5" r="59.6" gradientUnits="userSpaceOnUse"><stop offset=".2" stop-color="#B07E09" stop-opacity="0"/><stop offset="1" stop-color="#B07E09"/></radialGradient><path fill="url(#g)" stroke="#999270" stroke-width=".8" d="M241.2 76c-17 0-21.4 16.2-21 26.5.5 27 21 28.4 21 28.4l27.3-1.7 13-55.6-40.3 2.2z"/><path fill="#F9F0AA" stroke="#999270" stroke-width=".8" d="M241.2 76l40.3-2.2 4.2 41.6-35.2 1.6s11.4-33.3-9.3-41z"/><linearGradient id="h" gradientUnits="userSpaceOnUse" x1="260.1" y1="103.5" x2="277.6" y2="62.6"><stop offset=".2" stop-color="#B07E09" stop-opacity="0"/><stop offset="1" stop-color="#B07E09"/></linearGradient><path fill="url(#h)" stroke="#999270" stroke-width=".8" d="M241.2 76l40.3-2.2 4.2 41.6-35.2 1.6s11.4-33.3-9.3-41z"/><path fill="#F9F0AA" stroke="#999270" stroke-width=".8" d="M464 120.8c30.7-5 30.3-46 9.4-62.6-71-2.6-164.3-.7-231.7 4.4 7.6-.3 29 1.7 31.3 29.8 1 13-5.3 25-14 32-8.5 6.6-17.8 6.6-17.8 6.6 1 .5 10 0 16.4-.4 3.4-.2 11.7-1.2 14-1.5 96.2-12.5 192.2-8.2 192.2-8.2h.3z"/><linearGradient id="i" gradientUnits="userSpaceOnUse" x1="359.8" y1="47.3" x2="371.7" y2="199.3"><stop offset=".2" stop-color="#B07E09" stop-opacity="0"/><stop offset="1" stop-color="#B07E09"/></linearGradient><path fill="url(#i)" stroke="#999270" stroke-width=".8" d="M464 120.8c30.7-5 30.3-46 9.4-62.6-71-2.6-164.3-.7-231.7 4.4 7.6-.3 29 1.7 31.3 29.8 1 13-5.3 25-14 32-8.5 6.6-17.8 6.6-17.8 6.6 1 .5 10 0 16.4-.4 3.4-.2 11.7-1.2 14-1.5 96.2-12.5 192.2-8.2 192.2-8.2h.3z"/></g><g><path fill="#A50A0A" stroke="#4C0505" d="M371-34.3l-17 20.5c-5.6 24 8 42 35 57.7 21.6 13.4 62 11 74.6.2l-62.8-54L371-34.4z"/><radialGradient id="j" cx="361.1" cy="4.3" r="67" gradientUnits="userSpaceOnUse"><stop offset=".3" stop-color="#4C0505" stop-opacity="0"/><stop offset="1" stop-color="#4C0505"/></radialGradient><path fill="url(#j)" stroke="#4C0505" d="M371-34.3l-17 20.5c-5.6 24 8 42 35 57.7 21.6 13.4 62 16.8 74.6 6l-62.8-60L371-34.2z"/><g fill="#448127" stroke="#34541F"><path d="M498.3 583c-3-3.8-6.2-7.5-9.4-11.2-39.2 51.7-88 98-149.3 130.8 69-19.6 114-69.8 158.6-119.7zM427.6 746.3c24.3-49.3 53.7-98.6 83.3-148l-10-12c-33.5 55.8-73 122.2-73.4 160zM618.6 222.3C614 203 608.2 182 599 162.6c-12.3-25-30.4-49.6-54.3-77-43-46.5-86-91.5-146-124.7 0-.3 0-.5.2-.7l.3.2h.7l-.7-1h2l-1-1h2l-1.6-2h2l-1.4-1.4h2.2l-1.2-1.6 1.8.2-1.6-1.8 2.5-.5-2-1.3 2-.4-1.8-1.3 2.7-.8-2.5-1.4 3-1.2-3-2 3.2-1.2-3.3-1.3 2.8-1.5-3.3-.6 2-2.6-3 .2 1.4-2.7-3 .3c-.2 0-.2-.2-.3-.3l1.8-2-3 .5 1.3-2.8-3 1.5 1-3.2-3 2 .5-3.3-2.7 2.2.3-3.2-2.2 2.4.2-3.3-2.3 2.7-.2-3.2-2 2.5-.8-3-1.6 3-.6-3.3L382-74l-.8-3.3L380-74l-1-3-1 3-.7-2.7-1 3.3-1-3L374-73l-1.3-3-.5 3.6-1.6-3-.2 3.6-1.8-2.8v3.6l-2-2.6.2 3.2-2-1.7 1 3.3-2.4-1.4 1 3-2-1.2.6 3-1.8-.7 1 2.3s0 .2-.2.3l-1.4-.3.8 1.7c-1.7 4.7-2 10.4-1.6 16 0 1 2.7 2.2 3 2.8 1.4 2 1.2 3 1.2 3-7.3 12-13.8 21-14.5 34.5C355.3-13 361.5-22 370-22c-4.3 7-6.3 28-1.6 31.3L372 3c0 5 .7 8.3 1.7 10.8 1.5-3 3-5.8 4.4-8 .4 7 1.3 12.4 3.3 15.2 2-3.4 4.6-5.5 7.4-7.2-1 4-2.4 7.6-1.8 12.3 3-5 5.8-8 8.8-11.4-1.7 7.3-.2 12.7 2 20.7 1.7-9.5 2.5-10.5 6.8-14.5.5 8.7-1 16.7.7 21.5 4-7.7 6.7-6.6 9-11.5-.4 7.2-2 15 0 21.5 1.5-6.5 5.7-10 9-12.2.2 10 2.5 8.5-3.8 17 2.7 1.2 11.7-1.7 16.5-3.8-2.3 5.4-1.6 9.6-4 13.4 5-2.4 9.2-6.5 13.3-10.6-2 6.2-7 12.4-4.4 18.6 1-5.8 5.7-10.6 10-11.4-.6 3.2-1 10-5.7 13.2 11.2 1 15.6-6.4 21.2-12.4-.7 6.2-.5 11.2 7 20-1.4-11.2 1.2-9 6.3-15.6 2.4 9.8 5.2 20.3 15.4 27.5-4.2-10.5-5-15.8-2.6-22.3 1.3 6.7 7.7 14.8 9.3 21.2.8-7.2 2-14 4.3-18.6 3 8 5.4 16.3 6 25.6 2.4-4.6 4.2-9.3 5.5-14C608 182.2 628.2 302 529.3 429c35.5-24 44.7-62 64.5-94.5-19.3 42.5-28 90.3-62 125.5 33-28.4 40-54.4 59.8-81.8-21 57.2-50.3 120-90.7 177.3l21.4 23.8 18.8-31.4c43-70.7 113-171.7 77.4-325.7z"/></g><path fill="#EAC102" stroke="#A08307" d="M359-53.2c-4.5 1-6.3 3-9.6 6.6 4.2 1 7.7 1.2 11.5 1.2 1 0 1.5-1.6 1.2-2.6l-.6-4.4c0-1-2.7-1-4-.4l1.4-.4z"/><path stroke="#000" stroke-width=".4" d="M379.7-48.8c2 0 3.6-1.7 3.6-3.8 0-2-1.5-3.6-3.6-3.6-1.8 0-3.5 1.7-3.5 3.6 0 2 1.7 3.8 3.5 3.8z"/><path fill="#34541F" d="M427.8 745c2-6.8 4.5-13.6 7-20.3 2.5-6.7 5.3-13.3 8-20 6-13 12.3-25.8 19-38.5 7-12.6 14-25 21.4-37.3l11.2-18.4 11.5-18.2-11 18.4c-3.8 6.2-7.5 12.3-11 18.5-7.4 12.4-14.5 24.8-21.2 37.4-7 12.6-13.3 25.4-19.2 38.4-3 6.7-5.7 13.2-8.4 20-2.6 6.5-5 13.3-7.4 20zM341.6 701.7c7.5-3.3 15-7 22.3-11 7.2-3.7 14.4-7.8 21.4-12.2 14-8.8 27.4-18.6 40-29.4 12.6-10.6 24.4-22.3 35.5-34.5 5.5-6.2 11-12.4 16.2-18.8 5.3-6.4 10.5-12.8 15.5-19.4l-15 19.7c-5.3 6.4-10.7 12.8-16.2 19-11 12.3-23 24-35.5 35-12.6 10.6-26 20.5-40.2 29-7 4.4-14.3 8.5-21.7 12.3-7.3 3.7-14.8 7.2-22.4 10.4zM512.2 567.4c3.5-5 6.8-10 10-15 3.3-5 6.5-10.3 9.7-15.4 6-10.4 12.2-21 18-31.5 6-10.5 11.5-21.2 17.2-32l16.8-32-8 16.2-8.2 16.2c-5.4 10.7-11 21.4-17 32-5.8 10.6-12 21-18.3 31.4-6.4 10.2-13 20.4-20.3 30zM539.2 452.5c7.8-9.3 15-19 21.4-29.3 6.6-10.3 12.4-21 17.5-32 10.3-22 17.7-45.2 22.8-69l2-8.8c.4-3 1-6 1.3-9 1-6 1.5-12 2-18 .7-12.2.7-24.4-.2-36.5-1-12-3-24.2-5.7-36s-6.4-23.4-11-34.6c4.8 11.2 8.6 22.7 11.6 34.5 3 11.7 4.8 23.8 5.8 36 1 12 1 24.2.3 36.3-.3 6-1 12.2-1.7 18.2l-1.3 9c-.6 3-1.2 6-2 9-5.2 23.7-12.7 47-23 69-5.2 11-11 21.7-17.7 32-6.6 10-14 19.8-21.8 29z"/><path fill="#34541F" d="M531.7 426.4c8.4-8 15.8-17 22.4-26.8 6.6-9.6 12.3-19.8 17.4-30.3 5-10.5 9.6-21.2 14-32l6-16.4 1.6-4.2 1.4-4.2c.8-2.8 1.6-5.6 2.6-8.3 2.3-11.5 3.6-23.3 3.7-35 .2-12-.8-23.7-2.6-35.3-1.7-11.7-4.4-23.2-7.8-34.5-3.3-11.3-7.3-22.4-11.7-33.4 4.5 11 8.7 22 12.2 33.4 3.4 11.3 6.2 22.8 8 34.5 2 11.6 3 23.4 3 35.2-.2 12-1.4 23.7-3.7 35.3l-2.7 8.4-1.4 4-1.6 4.2-6.3 16.3c-4.2 11-8.8 21.6-14 32-5 10.6-11 20.8-17.5 30.4-6.7 9.5-14.3 18.5-22.8 26.4z"/><path fill="#34541F" d="M505 559.8l16.4-22.8 8-11.5c2.8-3.8 5.6-7.6 8-11.6 5-8 9-16.5 13.3-25 4-8.3 8.3-16.6 12.4-25 8.2-17 16-34 22.8-51.5 6.7-17.5 12-35.5 15.8-53.8 4-18.3 6.5-37 8.6-55.5 2-18.6 2.2-37.5.2-56-2-18.7-6.2-37-12.5-54.7-6.2-17.7-14.3-34.7-23.4-51 9.2 16.2 17.5 33 23.8 50.8 6.3 17.7 10.6 36 12.7 54.7 2 18.7 2 37.6 0 56.3-2 18.6-4.6 37.2-8.4 55.6-4 18.3-9.2 36.3-16 53.8-6.8 17.5-14.7 34.5-23 51.4-4 8.4-8.2 16.8-12.4 25.2-4.2 8.4-8.4 16.8-13.4 24.8-2.4 4-5.3 7.7-8 11.5l-8.2 11.4c-5.5 7.7-11 15.3-16.6 22.8z"/><path fill="#34541F" d="M517.6 573.6c10.8-17.5 21.6-35 31.8-53 10.3-17.8 20.6-35.7 29.6-54.2s17-37.6 23-57.3c3-9.8 5.4-19.8 7.5-30 1-5 2-10 2.7-15 .8-5.2 1.5-10.2 2-15.4 2.8-20.4 4.4-41 4.4-61.5s-1.7-41-5.5-61.4c-3.7-20.2-9.7-40-18-59-8.5-18.7-19.2-36.5-32-52.7 13 16 23.8 33.7 32.3 52.5 8.5 18.8 14.6 38.7 18.4 59 4 20.3 5.6 41 5.7 61.6 0 20.7-1.5 41.3-4 61.8L613 364c-.6 5.2-1.6 10.3-2.6 15.3-2 10-4.7 20-7.7 30-6 19.8-14 39-23 57.4-9.2 18.5-19.5 36.4-29.8 54.2-10.6 17.7-21.4 35.2-32.4 52.6z"/><radialGradient id="k" cx="150.7" cy="-100" r="1.6" gradientTransform="translate(229.9 46.8)" gradientUnits="userSpaceOnUse"><stop offset="0" stop-color="#FFF"/><stop offset="1" stop-color="#FFF" stop-opacity="0"/></radialGradient><path fill="url(#k)" d="M380.6-51.7c.8 0 1.5-.7 1.5-1.6 0-1-.6-1.6-1.4-1.6-1 0-1.6.8-1.6 1.7 0 1 .7 1.6 1.6 1.6z"/><path fill="#EAC102" d="M349.4-46.6l9.7-2.2"/><path fill="#A08307" d="M349.4-46.6c1.5-.5 3.2-1 4.8-1.3l5-.8c-1.7.6-3.3 1-5 1.3l-4.8 1z"/><path fill="#34541F" d="M390.4-28c2 0 4.3 0 6.5.4 2 .4 4 .8 6.2 1.4 4.2 1 8.3 2.6 12.3 4.4 8 3.5 15.5 8 22.5 13.2 7 5.3 13.4 11 19.4 17.4 3 3 6 6.3 8.8 9.7 2.7 3.3 5.4 6.7 8 10.2-2.7-3.4-5.5-6.7-8.4-10-3-3.2-5.8-6.3-9-9.4-6-6-12.5-12-19.4-17-7-5.3-14.3-9.8-22.2-13.5-4-1.8-8-3.3-12-4.5-4.2-1.3-8.5-2.2-12.8-2.4z"/><g><path fill="#448127" d="M465.3 21.4s14 8.2 21.6 20.3c0 0-21.7-4-37-21.3"/><path fill="#34541F" d="M465.3 21.4c2.2 1.2 4.3 2.6 6.3 4 2 1.5 4 3 6 4.7 1.8 1.7 3.5 3.5 5.2 5.4 1.7 2 3.2 4 4.6 6l.6 1-1.2-.2c-3.5-.8-7-2-10.4-3.3-3.3-1.4-6.6-3-9.7-4.8-6.3-3.7-12-8.3-16.7-13.8 5 5.2 10.8 9.6 17 13 3.2 1.8 6.4 3.4 9.8 4.7 3.3 1.4 6.8 2.5 10.2 3.2l-.5.7c-1.3-2-2.8-4-4.4-6-1.5-2-3.3-3.6-5-5.3-1.8-1.7-3.7-3.4-5.7-5-2-1.5-4-3-6-4.3z"/></g><g><path fill="#448127" d="M434.2 17.3s33 21 38 22.8c0 0-7.5-15.8-23.2-22.7"/><path fill="#34541F" d="M434.2 17.3l19 11.4c3 2 6.3 3.8 9.4 5.7l4.8 2.7c1.6 1 3.2 2 4.8 2.6l-.6.7c-1-2.4-2.6-4.8-4.2-7S464 29 462.2 27c-2-2-4-3.8-6.2-5.4-2.2-1.7-4.5-3-7-4.3 2.5 1 5 2.4 7.3 4 2.3 1.5 4.4 3.3 6.4 5.2 2 2 3.8 4 5.4 6.3 1.8 2.2 3.2 4.6 4.5 7l.6 1.2-1-.5c-3.6-1.5-6.7-3.4-10-5.3-3-2-6.2-4-9.3-5.8l-18.5-12z"/></g><g><path fill="#448127" d="M447.4 6.7s17.2 7.3 21 20c0 0-30.8-13-36.4-20"/><path fill="#34541F" d="M447.4 6.7c2.3 1 4.5 2 6.7 3.3 2.2 1.3 4.3 2.8 6.2 4.4 2 1.6 3.7 3.4 5.2 5.4 1.5 2 2.8 4.3 3.5 6.8l.2 1-1-.4-9.5-4.3c-3-1.6-6.2-3-9.3-4.7l-9.2-5-4.3-3c-1.5-1-3-2-4-3.5 1.2 1.3 2.6 2.3 4 3.3 1.5 1 3 2 4.5 2.8 3 1.7 6 3.3 9.2 4.8 6.2 3 12.6 6 19 8.7l-.7.6c-.7-2.5-2-4.6-3.3-6.6-1.5-2-3.2-3.8-5-5.4-1.8-1.7-3.8-3.2-6-4.6-2-1.3-4-2.6-6.3-3.7z"/></g><g><path fill="#448127" d="M421.3 20s30.4 21.7 39.4 21.7c0 0-9-15-24.7-21.8"/><path fill="#34541F" d="M421.3 20l9.5 6 9.6 6c3.3 2 6.5 3.8 10 5.5 1.6 1 3.3 1.7 5 2.3 1.7.7 3.5 1.4 5.3 1.4l-.4.7c-1.4-2.4-3-4.6-5-6.7-1.7-2-3.6-4-5.6-6-2-2-4.2-3.6-6.5-5.2-2.2-1.5-4.7-3-7.2-4 5.2 2 10 5 14 8.8 2.2 1.8 4.2 3.8 6 6 2 2 3.6 4.2 5 6.6l.6.8h-1c-2 0-3.8-.8-5.6-1.4l-5-2.4c-3.5-1.8-6.8-3.7-10-5.7s-6.4-4-9.5-6.2c-3-2-6.2-4.3-9.2-6.6z"/></g><g><path fill="#448127" d="M421.3 26.7S437 40 446 40c0 0-8.8-14.8-24.5-21.7"/><path fill="#34541F" d="M421.3 26.7L427 31l6 3.7c2.2 1.2 4.2 2.3 6.4 3.2 1 .4 2.2.8 3.3 1 1 .4 2.3.6 3.4.6l-.3.7c-1.4-2.3-3-4.5-5-6.6-1.7-2-3.6-4-5.6-6-2-2-4-3.6-6.4-5.2-2.2-1.6-4.6-3-7-4.2 5 2 9.8 5.2 14 9 2 1.7 4 3.7 6 5.8 1.7 2.2 3.4 4.4 5 6.8l.4.8h-1c-2.4 0-4.7-1-7-1.8-2.2-1-4.3-2.2-6.3-3.4l-6-4c-1.8-1.6-3.7-3-5.4-4.7z"/></g><g><path fill="#448127" d="M413.4-3.3s33 23.4 37 36c0 0-30-13.6-35.5-20.5"/><path fill="#34541F" d="M413.4-3.3c3.6 2.4 7 5 10.5 7.7l10 8.2c3.3 3 6.4 6 9.4 9 1.5 1.7 3 3.4 4.2 5.2 1.2 1.8 2.4 3.7 3 6l.5 1-1-.5-9.2-4.5c-3-1.6-6-3.2-9-5-3-1.5-6-3.2-9-5l-4.2-3c-1.3-1-2.7-2.2-3.7-3.6 1 1.3 2.4 2.3 3.8 3.3s2.8 2 4.3 2.8l9 5c6 3.2 12.2 6.2 18.5 9l-.7.7c-.7-2-1.8-4-3-5.6-1.3-1.8-2.6-3.4-4-5-3-3.3-6-6.2-9.3-9.2-3.2-3-6.5-5.7-10-8.5l-10-8z"/></g></g><g stroke="#24420E" stroke-width=".8"><path fill="#406325" d="M230.3 656.4c-22.4 16.7-85 24.8-93.6 22 45.5-38 90.3-38.8 93.6-22z"/><path fill="#67923D" d="M230 656.3c-3.2-16.8-47.8-15.8-93.2 21.8 47.8-15.6 88-24.6 93.3-21.7z"/></g><g stroke="#24420E" stroke-width=".8"><path fill="#406325" d="M549.5 676.8c24 21.8 96.6 36.8 107.5 34-48.3-49.2-101.2-54.2-107.5-34z"/><path fill="#67923D" d="M550 676.5c6.3-20.2 58.6-15.3 107 34-54.4-23-100.5-37-107-34z"/></g></g></svg>