<svg xmlns="http://www.w3.org/2000/svg" xmlns:xlink="http://www.w3.org/1999/xlink" width="500" height="300" viewBox="0 0 500 300"><title>Flag of Haiti</title><path fill="#00209f" fill-rule="evenodd" d="M0 0h500v300H0z"/><path fill="#d21034" fill-rule="evenodd" d="M0 150h500v150H0z"/><path fill="#fff" fill-rule="evenodd" overflow="visible" d="M202.7 112.3h94.6v75.3h-94.6z"/><path d="M357 303.7l-104 3-103.3 1.4s-53.2 20.4-75 25c-21.5 4.6-18.7 12-35.5 15.8-13.4 3-15 4-22.8 4.6-4.8.4-10.7 4.2-16.4 8.4V420h509v-55.4c-5.5-3-10.8-5.3-16.2-7.2-7.4-2.6-12.5-5.5-26-8.6-16.6-4-13.8-11.2-35.5-15.8-21.7-4.6-74.4-29.3-74.4-29.3zM247.8 74.3l-2.5 50.5H261l-2.4-50 16.3-2.5-2-20-40.3 1.7.2 18 14.8 2.3z" fill="#016a16" fill-rule="evenodd" stroke="#016a16" transform="matrix(.18594 0 0 .17938 202.7 112.3)"/><g transform="matrix(.18594 0 0 .17938 202.7 112.3)"><g id="a"><g fill-rule="evenodd" stroke="#000"><path d="M211 213.3L197.4 183l6-1.2L228 232l-17-18.7z" fill="#f1b517"/><path d="M179.6 147.7l15 42.5h7.8l-22.8-42.5z" fill="#fff"/><path d="M225 174h7.6l13.7 59.8-3 19-18.2-78.7z" fill="#f1b517"/><path d="M231.5 235.8l-23-64.3 8.5-.5 27 78.6-12.5-13.8z" fill="#f1b517"/><path d="M197.6 135l9.5 44.6h7.8L197.6 135zM217.2 134l5 46.3 5.6-.4-10.6-46z" fill="#fff"/></g><g fill-rule="evenodd"><path d="M212.8 218l-61.5-69.7C132 164 135.7 193 135.7 193l69.7 56.7 7.4-31.8z" fill="#0a328c" stroke="#000"/><path d="M248.4 256.2l-45.7-48c-19.2.7-4 30.6-3 34.3l48.7 43.2v-29.5z" fill="#d20014" stroke="#000"/><g fill="#f1b517" stroke="#000"><path d="M244.5 248L150.2 143l-3.7 2.7 99.8 115-1.8-13zM144.7 136.5l-2-2.5v-5l-19.3-12.8 8.7 20.3 6.7 1.3 2 2.4 4-3.7z"/><path d="M134.8 144c3.3-4.2 7.2-8.3 14.3-12.2l5.4 8-11.6 10.2-8-6z"/></g><path d="M186 236.3l-77.3-63.6c-13.3 14-2.3 57-2.3 57L182 272l4-35.7z" fill="#0a328c" stroke="#000"/><path d="M250 287.8L186.5 235c-21.8 3.2-4.7 36.3-3.4 40l67.2 37.7-.2-25z" fill="#d20014" stroke="#000"/><g fill="#f1b517" stroke="#000"><path d="M247.5 277.2L110 170.2l-3 3.3 144.2 117-3.7-13.3zM103.5 164.6l-2.4-2-.6-5-21.4-9.3 12 18.5H98l2.5 2 3.2-4.2z"/><path d="M95 173.6c2.6-4.6 5.7-9.4 12-14.5l6.7 7.2-9.7 12-9-4.6z"/></g><path d="M180.4 275.2c-1-.3-99.6-58.2-99.6-58.2-7.2 12.5-.7 30.8 2.5 33.6.2 8.4-3.3 13 3.8 30.3 2.2 11.3 7.2 21.7 14.6 28 9 35.7 44.2 38 57.8 9l21-42.8z" fill="#0a328c" stroke="#000"/><path d="M245.6 313.5l-67.4-41c-21.8 3 .4 45 1.7 48.5l65 24 .6-31.5z" fill="#d20014" stroke="#000"/><g fill="#f1b517" stroke="#000"><path d="M234.3 298.6l-152.5-84-2.6 3.6 161 92.8-6-12.4zM74.5 210l-2.8-1.8-1.4-4.7-22.6-5.8L62.5 214l6.7-1 2.8 1.7 2.5-4.8z"/><path d="M67.5 220.2c1.8-5 4.2-10.2 9.5-16.2l7.8 6L77 223l-9.5-3z"/></g><path d="M124.4 161.6l3.2 5.8c2-.8 21.7-19.3 21.7-19.3l14-.4 4.2-4.6c-10.4-11.6-20.2 1.6-20.2 1.6l-23 17z" fill="#0a328c" stroke="#0a328c"/><path d="M135.7 171.3c.8-5 10-18 11.4-18.4 7.2 2 13.7 6.3 20.8-10.3-6.2 8-18.7-.2-18.7-.2l-5.3 4.7v2.2l-16.3 15.8 8.3 6z" fill="#d20014" stroke="#d20014"/><path d="M87.4 191.5l.8 6c1.8-1 19.2-20.8 19.2-20.8l14-2.7 2.7-4.6c-9.5-11.8-19.8 4-19.8 4l-16.8 18z" fill="#0a328c" stroke="#0a328c"/><path d="M98.4 202c-.7-5.3 6.5-21.4 7.8-22 8.3 2.5 15.6 6.4 18.6-11.6-4.8 9-18.6 2-18.6 2l-4.6 5.5.6 3-14 18.6 10.2 4.5z" fill="#d20014" stroke="#d20014"/><g><path d="M61.4 239l3.2 6.6c1.7-1.2 16.2-25.5 16.2-25.5l13.4-4.4 2.5-5.7C86 199.5 78 217.3 78 217.3L61.3 239z" fill="#0a328c" stroke="#0a328c"/><path d="M75.8 248.4c-1-5.6 2.6-23.4 3.8-24.3 8.4 2.7 15.4 3.5 17.3-14.5-5 8.5-18 5.3-18 5.3l-3.8 6 .8 2.2-11 22 10.8 3.4z" fill="#d20014" stroke="#d20014"/></g></g><path d="M233.2 337.3l-38-12.2-16.5-29.2-58.6-3 2 22 50 10 4.8 8.7L234 350l-.8-12.7z" fill="#f1b517" fill-rule="evenodd" stroke="#000"/><g fill-rule="evenodd" stroke="#000"><path d="M193.5 345.5l-60-91.5-3 2.3 59.6 91.8 3.5-2.5z" fill="#503200"/><path d="M139 257.6l-6.3-11c-1.2-2-3-2.8-5.7-1.3-2.6 1.4-2.3 4.2-1.2 6.2l6 10.3 7.3-4.2z" fill="#fff"/></g><g fill-rule="evenodd" stroke="#000"><g fill="#f1b517"><path d="M200.6 289l-121-12.7-3 18.2L197.2 307l3.6-18z"/><path d="M77.5 271.6l-3 25.3h5l3.5-23.3-5.5-2zM97.7 275.7l-1.4 22.7 3.2.4 2.5-20.2-4.3-3zM179.7 285.5l-3 21.4 6-.3 2.3-21.2h-5.3zM197.7 286l-4.2 24.8 6.7 1 2-13c.4 2.6 2.7 4.6 5.5 4.6 3.2 0 5.7-2.6 5.7-5.8 0-3-2.5-5.7-5.7-5.7-2.2 0-4.2 1.2-5 3.7l1.2-9.2-6.3-.4z"/></g><g fill="#f1b517"><path d="M154 290l-16.6 19.5 2 2.3 21.3-15-6.7-6.7zM115.3 338.5L132 319l-2-2.3-21.3 15 6.6 6.8zM159 333.6l-20.4-16.2-2 1.5 16 21 6.3-6.4zM109 296.2l20.5 15.6 2.5-2-16-20.8-7 7.2zM131.3 283.2l2 25.5h2.7l6.5-25-11.2-.5zM138 345l-2-25.4-3-.3-3.7 25.8h8.7zM165.2 310.7l-25.8 3-.4 2.4 26 3.7.2-9zM104 319.6l25-4.2.6-2-26-3 .3 9.2z"/><path d="M141.4 313.7c0 3.7-3 6.8-7 6.8-3.6 0-6.7-3-6.7-6.8s3-7 6.8-7 7 3.2 7 7z" stroke-width=".972096" stroke-linecap="round" overflow="visible"/><path d="M170.8 313.7c0 20-16.2 36.2-36.3 36.2-20 0-36.2-16.3-36.2-36.3 0-20 16.2-36.3 36.2-36.3 20 0 36.3 16.2 36.3 36.3zm-7.2 0c0 16-13 29-29 29s-29-13-29-29 13-29 29-29 29 13 29 29z" stroke-linecap="round" overflow="visible"/></g><path d="M112 295.3L106 291M152.5 291l4.8-5M163 336.8l-6-4.8M112 342.4l5-5.7" fill="none"/></g><g fill-rule="evenodd" stroke="#000"><path d="M234 277.8l6.3 32.8-5 2.8-5.6-35 4.3-.6z" fill="#f1b517"/><path d="M230.8 273.6c-3-1.2-6.6 1-12.8-7.2-10 9.6-.6 11 1 20.5 2.8 1.2 4.6-7.4 12.4-8.3l12.3-1-2.8-4.2s-8 .2-10.2 0z" fill="#fff"/><path d="M235 280l-1.2-9.8c-1.3-3.4-5.4-.4-5.4 1.6l1 9 5.5-.8z" fill="#fff"/></g><g fill="#f1b517" fill-rule="evenodd" stroke="#000" stroke-width="1.1" stroke-linecap="round"><path d="M164.5 361c0 1.5-.7 2.8-2 3.5-1.2.7-2.7.7-4 0-1.2-.7-2-2-2-3.4 0-1.3.8-2.7 2-3.4 1.3-.7 2.8-.7 4 0 1.3.7 2 2 2 3.5zM154.4 353.6c0 1.4-.8 2.8-2 3.5-1.3.8-2.8.8-4 0-1.2-.6-2-2-2-3.4s.8-2.7 2-3.4c1.2-.7 2.7-.7 4 0 1.2.7 2 2 2 3.4zM140.7 358.5c0 1.4-.8 2.7-2 3.5-1.3.7-2.8.7-4 0-1.3-.8-2-2-2-3.5 0-1.4.7-2.7 2-3.4 1.2-.7 2.7-.7 4 0 1.2.8 2 2 2 3.5zM119.5 363.3c0 1.4-.8 2.7-2 3.4-1.2.7-2.8.7-4 0-1.2-.7-2-2-2-3.4 0-1.5.8-2.8 2-3.5 1.2-.7 2.8-.7 4 0 1.2.7 2 2 2 3.5zM110.5 364.3c0 1.5-.7 2.8-2 3.5-1.2.7-2.7.7-4 0-1.2-.7-2-2-2-3.5 0-1.4.8-2.7 2-3.4 1.3-.8 2.8-.8 4 0 1.3.6 2 2 2 3.3zM101.7 364.3c0 1.5-.8 2.8-2 3.5-1.2.7-2.8.7-4 0-1.2-.7-2-2-2-3.5 0-1.4.8-2.7 2-3.4 1.2-.8 2.8-.8 4 0 1.2.6 2 2 2 3.3zM92.7 364c0 1.5-.7 2.8-2 3.5-1.2.7-2.7.7-4 0-1.2-.7-2-2-2-3.4s.8-2.7 2-3.4c1.3-.7 2.8-.7 4 0 1.3.7 2 2 2 3.5zM97 357c0 1.4-.7 2.7-2 3.5-1 .7-2.7.7-4 0-1-.8-2-2-2-3.5 0-1.4 1-2.7 2-3.4 1.3-.8 3-.8 4 0 1.3.7 2 2 2 3.4zM105.8 357.4c0 1.4-.8 2.8-2 3.5-1.3.6-2.8.6-4 0-1.2-.8-2-2.2-2-3.6s.8-2.7 2-3.4c1.2-.7 2.7-.7 4 0 1.2.7 2 2 2 3.4zM114 356.3c0 1.5-.7 2.8-2 3.5-1.2.7-2.7.7-4 0-1.2-.7-2-2-2-3.5 0-1.4.8-2.7 2-3.4 1.3-.8 2.8-.8 4 0 1.3.6 2 2 2 3.3zM109.8 349.4c0 1.4-.7 2.7-2 3.5-1.2.6-2.7.6-4 0-1.2-1-2-2.2-2-3.6s.8-2.7 2-3.4c1.3-.8 2.8-.8 4 0 1.3.7 2 2 2 3.4zM101.7 349.3c0 1.4-.8 2.7-2 3.4-1.2.7-2.8.7-4 0-1.2-.7-2-2-2-3.4 0-1.5.8-2.8 2-3.5 1.2-.7 2.8-.7 4 0 1.2.7 2 2 2 3.5z" overflow="visible" stroke-width="1.0075230000000002"/></g><g fill-rule="evenodd" stroke="#000"><path d="M170 334.7c-3.5-1.4-3.5 6.6-3.5 6.6h5.4c2.3 1 4.2 4.7 2.7 6.5-1.3 1.4-11.7-2.5-12.4-.2 1.8 10.8 15.7 15 20.7 10.2 5-4.6 6-17-9.8-20.2l-3.3-3z" fill="#fff"/><path d="M173 337.7l-1.4 3.5" fill="none"/></g><g fill-rule="evenodd"><path d="M66 338.8l-5.2-22.6M72.2 337.5l-8-17.6M86 333l-18-10M93.7 330.8l-33.3-15" fill="none" stroke="#000"/><path d="M40.5 299.5s-12-.2-14.3.7c-.8.4 3 4.6 2.3 6.2-3 6-23.7 5.2-25.3 4-2.8-2.4 19.2-4.3 19.4-5.8 0-1.8-3.3-6.4-2.8-9.3.7-3.6 9.7-5 9.7-5l11 9.2z" fill="#d20014" stroke="#d20014"/><path d="M56.8 311l-27.5-23.7s-1.2-1.3-2.2 0c-1 1 .5 2.3.5 2.3l28.3 24.2 1-3z" fill="#503200" stroke="#000"/><path d="M83.2 334l-22.4-20-1.4-5.7s-3.4 2.3-4.6 3.6c-1.3 1-3.2 4.4-3.2 4.4l6 .3L77.2 335l6.2-1z" fill="#f1b517" stroke="#000"/></g><path d="M204.8 307v9.2c-2.7 1-2.3 3.3-2.2 6.5v26.6c-1 1.8-4 2-5.6 3.3-1.5 1.3-1.3 4 5.5 5.8l5.2.2c8-1.8 9.7-4.6 5.7-6-2-1-5-2-6-3.2l.2-6.4 5 .2c1.5 0 4.2-3.6 4.3-6.6V323c-.3-8-6-8.8-7.5-8.7V307H205zm8.8 15.3c0-2.2-3-4.2-4.2-4.3-1.3 0-4 2.6-4 5v5.5c0 2 1.7 9 5 9.4 1.4.2 3.3-2.3 3.3-4.3v-11.4z" fill="#f1b517" fill-rule="evenodd" stroke="#000"/><g fill-rule="evenodd" stroke="#000"><path d="M253.5 53.6C211.8 10.3 179 31.4 171 37.4c5.2 1 10-2.3 12.3-2.7-1.5 2-4.7 7-4.7 7s13-6.4 14.4-5.8c-2 1.4-4 5-4 5 1 .5 8.3-5.8 9.7-6-2.2 2.7-3 8.6-3 8.6l6.4-3c1.7 1.2-.3 3.5 1 3.3 10.5-1 25.2 9.8 27.3 13.2" fill="#016a16"/><path d="M243.2 61.5c-4.4-10.3-84-28-99.8 1.4 6.2 1.5 12.2-5.6 12.2-5.6L155 64l10.7-8.5-3.8 8.7 8.3-7-.3 7 10.4-11.6-1.4 6.8 9.2-4-1 5.6" fill="#016a16"/><path d="M239.6 63.2c-20.4-14.2-52-4.7-52-4.7-20 11.7-30.8 9.6-33.4 31.3 2-.8 7.4-7.6 7.4-7.6l4 8.4 1.4-12 3.3 9.3 5-15.3 1 10.3 7.6-10.3 3.4 3 3.3-8 3 5.3s5-3.3 8-1.4l5.8-6.8 1.4 5 4.8-6 2 4.3 4.8-4.6-.3 3.3 17 .3" fill="#016a16"/><path d="M235 65.6c-14.2-.3-55 15.7-65.5 32.4 4.2-2.5 6.8-3.6 6.8-3.6l2 6.7 2.6-6.6.4 5.2c1.6-4 3.4-4.5 6.3-.3l1-6.2 1.7 6 2.7-6.5s1.8 7 3 6.8c0 0 4.4-12.2 6.4-12.7l.5 7.6 2.6-7.6 2.5 5.7.6-8.2 2.8 6.4s1.4-6.2 3.5-7.4l4 3.8 18-13.5" fill="#016a16"/><path d="M237.8 69c-19 7.6-36 34.5-34.6 46 8.4-11 6.6-9.4 10.3 3 0 0 1.5-10.8 3-12l2.4 8 .8-10.6h2.5l-.6-6.5 3.7 3c-1-4-1.8-5.2 2-8.4 0 0-4.8.6-1-8.6l3.7 3.7s-.6-4 .7-5.6l13.4-4.7" fill="#016a16"/><path d="M239.6 71l-7.2 14.2 3.7 1-8 6.6 6.8-.8s-10.6 4-12 15l11-5s-9.2 9.6-10.5 15.5l6.2-5.7s-6 6.8-5 17l4.5-5.2c-1 12.4-.8 13.5 4.7 23 0 0-1.4-14.6.2-16.4l12 13-6.8-18.5s7.5 11.7 12 10.6l-9.4-15 9.4 8-10.7-16.7 10 3.2s-7.2-9.4-6.7-15.3l6.8 7.7s-2.6-8.8-1.8-11.3l3.5.6-6.8-8 4.6-1-.5-5.3 3.3-1-.2-6" fill="#016a16"/><path d="M246.7 75.3c-11.7 16.5-5.6 42-12.6 55" fill="none"/></g><path d="M181.7 366.3c0-1.8-4-1-4-3 0-2.4 6.2-.7 7 1.3 3.6-3.3 5.2-1 7.3 0 3-4.6 7-4.4 10.7-1 2-2.4 7.6-1.6 9.4 1 3.7-3.5 7-2.6 9.4 0 1-2 2.4-1.5 3.5 0 1.8-3.6 6.6-2.5 8.6-.2 1.8-2 3.6-.5 6 1 1.6-1.5 4-1.2 4 .3 0 1.6-3.2 1-3.2 2.7 0 1.4 2.4.7 2.4 2.5 0 1.3-3.6 1.8-4.2-.4-1.2 2.4-5.7 1.5-6-.8-1.6 2-5 2.4-6.8-.3-1.6 1.3-3.4 1.5-4.3 0-2.8 3.2-7.4 2.6-9-.8h-1.6c-3 4-7 2-8.3 0-4.6 3.4-7.3 2.3-10 0-2.8 3.8-7.3 3.6-8.4 0-2 1.6-6 2-6 .2s3.4-1.2 3.4-2.7zm9 .8c0 1-1 1.6-2.4 1.6-1.3 0-2.3-.7-2.3-1.5 0-.7 1-1.3 2.3-1.3 1.3 0 2.3.6 2.3 1.4zm9.7-1c0 1-1.2 1.7-2.8 1.7-1.5 0-2.8-.8-2.8-1.8s1.3-1.8 2.8-1.8c1.6 0 2.8.8 2.8 1.7zm19.3 1c0 1-1.2 1.8-2.6 1.8-1.3 0-2.4-.8-2.4-1.8s1-1.8 2.5-1.8 2.7.8 2.7 1.8zm-10.3-.5c0 1.3-1 2.3-2.5 2.3s-2.6-1-2.6-2.3c0-1.2 1-2.2 2.5-2.2 1.3 0 2.4 1 2.4 2.2zm21.8 0c0 1.2-1 2-2.2 2-1.2 0-2.2-.8-2.2-2 0-1 1-2 2.2-2 1.2 0 2.2 1 2.2 2zm-6.6.6c0 .8-.7 1.4-1.5 1.4-.7 0-1.3-.6-1.3-1.3 0-.6.6-1.2 1.4-1.2 1 0 1.6.6 1.6 1.3zm13 .6c0 1-.7 1.8-1.6 1.8-1 0-1.7-.8-1.7-1.8s.8-2 1.7-2c1 0 1.6 1 1.6 2z" fill="#f1b517" fill-rule="evenodd" stroke="#000"/></g><use transform="matrix(-1 0 0 1 508.2 0)" width="509" height="420" xlink:href="#a"/></g><g stroke="#000"><path d="M259.6 302.4S266 247 266 223c0-18.6-4.4-60.3-4.4-60.3h-18.4s-2.8 41.4-2.4 60.2c.6 23.7 6.4 79.4 6.4 79.4h12.4z" fill="#f1b517" fill-rule="evenodd" transform="matrix(.18594 0 0 .17938 202.7 112.3)"/><path d="M242 165.4h21.3l-2.5-15h-15.5l-3.3 15z" fill="#f1b517" fill-rule="evenodd" transform="matrix(.18594 0 0 .17938 202.7 112.3)"/><path d="M243.4 153.5h19l-3.6-15H247l-3.6 15z" fill="#f1b517" fill-rule="evenodd" transform="matrix(.18594 0 0 .17938 202.7 112.3)"/><path d="M244.6 141.4h15.8l-2.6-14.8h-10l-3.2 14.8z" fill="#f1b517" fill-rule="evenodd" transform="matrix(.18594 0 0 .17938 202.7 112.3)"/><path d="M258.3 124.8h-11l-1.2 5.4h13.2l-1-5.4z" fill="#f1b517" fill-rule="evenodd" transform="matrix(.18594 0 0 .17938 202.7 112.3)"/><path d="M260.6 290.3h-14M261.4 279.5h-16M263.4 268.5h-20M264.5 256.5h-21M264.6 244.5h-22M265.5 233.5h-24M265.5 223.5h-25M265.4 211.5h-25M264.6 199.6h-24.2M263.4 187.5h-21.8M262.4 176.6h-19.8" fill="none" transform="matrix(.18594 0 0 .17938 202.7 112.3)"/></g><path d="M773.6 298c-13.5 0-24.4 5-24.4 11.6 0 1 .3 2.2 1 3.2 2.8 3.5 12.3 6 23.5 6 10.5 0 19.5-2.2 23-5.4 1-1.2 1.4-2.5 1.4-3.8 0-6.5-11-11.7-24.4-11.7z" fill="#0a328c" fill-rule="evenodd" stroke="#0a328c" stroke-width="1.3" stroke-linecap="round" overflow="visible" transform="matrix(.18594 0 0 .17938 106 112.3)"/><path d="M798.3 310.5v39.3c0 4.7-11 8.4-24.6 8.4-13.6 0-24.6-3.7-24.6-8.4v-39.3c0 4.6 11 8.3 24.7 8.3 13.6 0 24.6-3.7 24.6-8.3z" fill="#f1b517" fill-rule="evenodd" stroke="#000" stroke-linecap="round" overflow="visible" transform="matrix(.18594 0 0 .17938 106 112.3)"/><path d="M749 310.5v6l12 38.2 9.6-29.4 10.5 30.5 7.7-28.7 9.6 19.4v-10.7l-9-18.8-3 .7-5.6 21.2-7.8-20.2h-4l-7.8 20-9-24.2c-2-1.2-3-2.6-3-4z" fill="#d20014" fill-rule="evenodd" stroke="#d20014" transform="matrix(.18594 0 0 .17938 106 112.3)"/><g fill-rule="evenodd" stroke-linecap="round"><path d="M798.3 342.5v7.3c0 4.7-11 8.4-24.6 8.4-13.6 0-24.6-3.7-24.6-8.4v-7.3c0 4.6 11 8.3 24.7 8.3 13.6 0 24.6-3.7 24.6-8.3z" fill="#0a328c" stroke="#0a328c" overflow="visible" transform="matrix(.18594 0 0 .17938 106 112.3)"/><path d="M263.8 350c-2 .4-4 .6-6.3.8v7.3c2.3 0 4.4-.3 6.4-.6l-.2-7.3zM237.7 348.8v7.3c1.8.7 4 1.2 6.3 1.5v-7.3c-2.3-.4-4.5-.8-6.3-1.4zM229 342.5v7.3c0 1.4 1 2.7 2.8 3.8l.2-7.2c-1.8-1.2-3-2.5-3-4zM278.3 343.3c-.5 1.5-2 3-4.6 4v7.4c3-1.4 4.6-3 4.6-5v-6.4z" transform="matrix(.18594 0 0 .17938 202.7 112.3)" fill="#f1b517" stroke="#000" overflow="visible"/></g><path d="M798.3 310.7v39c0 4.8-11 8.5-24.6 8.5-13.6 0-24.6-3.7-24.6-8.4v-39" fill="none" stroke="#000" stroke-linecap="round" overflow="visible" transform="matrix(.18594 0 0 .17938 106 112.3)"/><path d="M792 307.6c0 5.2-10 9.5-22.5 9.5S747 313 747 307.7c0-5.3 10-9.6 22.5-9.6s22.6 4.3 22.6 9.6z" transform="matrix(.15678 0 0 .09512 129.2 138.3)" fill="#fff" fill-rule="evenodd" stroke="#fff" stroke-width="1.6" stroke-linecap="round" overflow="visible"/><path d="M247.5 311.7l.8 7h5.2l1.2-7h-7.2zM269.6 310l-5 1.3.4 6.6c1.6-.4 3.2-.7 4.6-1.2V310zM240.5 299.3l-4 1.5.8 5.3 3-1 .2-5.7zM253.6 297.3h-2l1.2 6.6 3.2-.2 1.3-6.4h-3.7zM268 299.6l-.7 5.7 3.8 1.4.5-5.7c-1-.5-2.2-1-3.5-1.4z" transform="matrix(.18594 0 0 .17938 202.7 112.3)" fill="#f1b517" fill-rule="evenodd" stroke="#000" stroke-width="1.3" stroke-linecap="round" overflow="visible"/><path d="M233 315l1-7-5-3v8.2l4 2zM278 313.5l.4-7.2-4.7 1.5 4.4 5.7z" transform="matrix(.18594 0 0 .17938 202.7 112.3)" fill="#f1b517" fill-rule="evenodd" stroke="#000"/><g><g transform="matrix(.18594 0 0 .17938 202.7 112.3)"><use transform="matrix(1 0 0 -1 0 534.1)" width="509" height="420" xlink:href="#b" fill="#016a16"/><path d="M188 269.2c0 2.5-4 4.6-9 4.6s-9-2-9-4.6v-2.4h18v2.4z" transform="matrix(1.07456 0 0 2.88246 -10.2 -500.3)" fill="#016a16" fill-rule="evenodd" stroke="#fff" stroke-width=".6" stroke-linecap="round" overflow="visible"/><path d="M191.8 266.4c0 2.7-4.3 5-9.7 5-5.3 0-9.6-2.3-9.6-5 0-2.8 4.3-5 9.7-5 5.5 0 9.8 2.2 9.8 5z" fill="#fff" fill-rule="evenodd" overflow="visible"/><path d="M180 272l-1.8-18.4h7.4l-1.2 18.4H180z" fill="#016a16" fill-rule="evenodd" stroke="#f1b517"/><path d="M193 266.7c-1.6 2.7-5.8 4.7-11 4.7-5 0-9.2-2-10.6-4.7-.3.6-.5 1.3-.5 2 0 3.7 5 6.7 11 6.7 6.3 0 11.4-3 11.4-6.7 0-.7-.2-1.4-.5-2z" id="b" fill="#016a16" fill-rule="evenodd" stroke="#fff" stroke-width="1.3" stroke-linecap="round" overflow="visible"/></g><g fill="#f1b517" fill-rule="evenodd" stroke="#000"><path d="M694.5 304.7l19.7 2 3-18-23-2.5" transform="matrix(.18594 0 0 .17938 106 112.3)"/><path d="M699.7 285.5l-3 21.4 6-.3 2.3-21.2h-5.3z" transform="matrix(.18594 0 0 .17938 106 112.3)"/></g></g><g><path d="M328 266.2c4.6-.7 11.2 5.7 11.6 13.5.3 6.3-9 6-9 6-.6 2.5-5.8 4.8-10 5-4 .2 1-8 1-8-2.4-7 1-15.3 1-15.3l5.5-1.2z" fill="#f1b517" fill-rule="evenodd" stroke="#000" transform="matrix(.18594 0 0 .17938 202.7 112.3)"/><path d="M321.7 282.4h4.3s.4 2.2 1 2.3c1 0 2-2.3 2-2.3h6.4" fill="none" stroke="#000" transform="matrix(.18594 0 0 .17938 202.7 112.3)"/><path d="M330.5 270.8c3.7-2.8.5-8.3-2-8.3h-6c-2.8.2-7.5 3.3-6.8 6 .5 2.4 2 3.5 4.4 3 1.2 0 3.5-3 4.6-3 1.5-.2 4.7 3.2 6 2.3z" fill="#d20014" fill-rule="evenodd" stroke="#f1b517" transform="matrix(.18594 0 0 .17938 202.7 112.3)"/></g><g fill-rule="evenodd"><path d="M254 37.7c-3.7-1.8-12-7.3-9.6-10.6l4-6.7c5.3-12.7-.2-7.8-.8-11.7-.6-3.8 20.8-1 21 7.8.2 2.3-1.5 1-1.3 14.5l-4 8c-3 .3-6.7 0-9.3-1.3z" fill="#0a328c" stroke="#0a328c" transform="matrix(.18594 0 0 .17938 202.7 112.3)"/><path d="M256.6 70.5l-5.3-4.6 1.5-39.7L258 28l-1.4 42.5z" fill="#f1b517" stroke="#000" transform="matrix(.18594 0 0 .17938 202.7 112.3)"/><path d="M263.5 38.8c3.3-2 5.5-8 3.5-11.6-5.5-7.2-9-4.2-18.2-7.5-1.8 2-5.7 6-4.8 8.8 12 6 7.3 1 11.3 1.7 2.2.3 3.6 3 8.2 8.6z" fill="#d20014" stroke="#d20014" transform="matrix(.18594 0 0 .17938 202.7 112.3)"/></g><path d="M62.2 348.8c-3.3.4-4 4.4-2.7 8-14.4 4.3-27.4 9.7-40 13.4-.6-2.6 6.2-10.2 6.2-10.2 1.8 1 3.2 5.2 3.2 5.2.3-8.8 8.7-14.7 8.7-14.7-5-.7-20 5.4-22 8 0 0 6-.8 7 0 0 0-11.7 12.8-12.2 16.6 1.8 4.3 21.7 7.4 21.7 7.4-.3 1-6 5.2-6 5.2 8 1.8 20-4 23.5-7.5 0 0-9.3-.7-16.5-6.8 0 0 1.5 3.8.6 5.6 0 0-11.3-3.4-12.5-5.3 0-.2 26.7-7.4 39.6-11.2.4 2.4 3 7 6 6 2-.8 1.4-5 .7-8 .7.8 1.7 1 2.7 1 2.3 0 4-1.7 4-4 0-2.2-1.7-4-4-4-1.8 0-3.3 1-4 2.7-.4-2.5-1.7-7.5-4.2-7.2zm10 8.5c0 1-.7 2-1.8 2-1 0-2-1-2-2s1-2 2-2 2 1 2 2z" fill="#f1b517" fill-rule="evenodd" stroke="#000" transform="matrix(.18594 0 0 .17938 202.7 112.3)"/><g fill="#f1b517" fill-rule="evenodd" stroke="#000"><path d="M486 365.7c1-2-.7-12.3-.7-12.3-2 .2-4.8 3.8-4.8 3.8 2.6-8.5-4.6-22.5-4.6-22.5 4.8 1 21 17.4 22 20.3 0 0-7.2-2.6-8.3-2.3 1.2 8.4 6.8 12.3 9 16.7 0 0-9.4 2-8.5 10l-6 .3c-2-2.7.8-7 .8-7l-41.6-18.2c-2.7-1.2-8.8-4-8-7.4 1-3.2 11 1.5 13.4 2.4l37.3 16.3z" transform="matrix(.18594 0 0 .17938 202.7 112.3)"/><path d="M446.2 358.2l4.8-9.3c1.8-2.6-1.8-5.2-4.4-2l-5.5 8.4c-2.3 4.7 2.8 6 5.2 2.8z" transform="matrix(.18594 0 0 .17938 202.7 112.3)"/></g><g><g fill="#fff" fill-rule="evenodd" stroke="#000"><path d="M154.3 379.5l-.4-10-12 .5-.6 11 13-1.5z" transform="matrix(.18594 0 0 .17938 202.7 112.3)"/><path d="M67.5 393.8l-15.8-9.2c65.4 6.2 78.8-17.5 94.6-18.7 9.7-1 11.2 11-7.6 5.3l5 12.5s-46.6 27-92.3 16l16-6z" transform="matrix(.18594 0 0 .17938 202.7 112.3)"/><path d="M155.6 379.5l-.4-10-14.5.2-.6 11 15.6-1.2z" transform="matrix(-.18594 0 0 .17938 297.2 112.3)"/><path d="M65.8 391.3l-15-8.4c75 2.2 58-13 95.5-17 9.7-1.2 17 11.7-7.6 5.3l5 12.5h-12c-25.5 17.5-60 19-82.8 13.4l16.8-6z" transform="matrix(-.18594 0 0 .17938 297.2 112.3)"/><path d="M138.4 371.4V389s41.6 16 115.8 16c74.5 0 115.7-16 115.7-16v-17.6s-31.6 15-115.8 15c-84 0-115.8-15-115.8-15z" transform="matrix(.18594 0 0 .17938 202.7 112.3)"/></g><path d="M229.6 182l.7-2.2h.3l-.6 2 1.2.4v.3l-1.6-.4zm2.2-1v-.4l.2-.4h.3v.5l-.3.4h-.2zm3.4 0h.3l-.3 1.3c0 .3 0 .5-.2.6l-.4.2h-.6c-.2 0-.4 0-.5-.2l-.3-.4v-.6l.4-1.4h.3l-.4 1.4v.8h.5c.3.2.5 0 .6 0l.3-.5.2-1.4zm.3 2.4l.4-2.3h.3l1 2.2.2-2 .4.2-.5 2.3h-.4l-1-2-.2 1.8h-.3zm2.6.4l.4-2.4h.3l-.3 2.5-.3-.2zm1-1c0-.4.2-.7.4-1l1-.2c.2 0 .4 0 .5.3 0 0 .2 0 .3.3v.7c0 .2 0 .5-.2.6 0 .2 0 .3-.3.4H239.4c0-.3-.3-.4-.3-.6v-.6zm.3 0c0 .3 0 .5.2.7 0 .2.3.3.6.3s.5 0 .7-.2c.2 0 .3-.3.3-.6v-.6l-.3-.3h-1l-.4.8zm2.3 1.4l.2-2.4h.4l1 2 .3-1.8h.3l-.2 2.4h-.3l-1.2-2v2l-.4-.2zm3.5.3l.2-2.4h1.7v.4h-1.4v.7l1 .2v.2h-1v1h-.5zm2 0l1-2.3h.3l1 2.4h-.4l-.4-.7-1-.2-.3.8h-.3zm.7-1h.8l-.2-.6c0-.3 0-.5-.2-.6v.5l-.3.6zm2 1v-2.3h.3v2.4h-.4zm1.5 0v-2h-1v-.3h2v.2h-.7v2.2h-.3zm2.4 0V182h.2v2.2h1.3l.2.3h-1.6zm1.7 0l.8-2.5h.4l1.2 2.3h-.4l-.3-.7h-1.2l-.2.8h-.3zm.6-1h.8l-.3-.8c0-.2-.2-.3-.3-.5v.5l-.3.7zm2.8.7l-.2-2.4 1.6-.2v.3H259v.8l1.2-.2v.3H259l.2 1-.4.2zm2-1.4c-.2-.4 0-.7 0-1 .2-.2.5-.4 1-.4h.5c.2 0 .4.3.5.4l.2.7v.6c0 .3-.2.5-.4.6l-.6.2h-.6c-.2 0-.4-.2-.5-.4l-.3-.6zm.2 0l.3.6.7.2c.2 0 .4-.2.5-.4.2-.2.2-.4.2-.7 0-.2 0-.4-.2-.5l-.3-.3h-.5c-.2 0-.4 0-.6.3v.8zm2.6.8l-.4-2.4 1-.2h.6s.2 0 .3.2c.2 0 .2.2.3.3v.5l-.6.3h.2s0 .2.2.3l.6.6h-.4l-.4-.4c-.2 0-.3-.2-.3-.3h-.2-.2-.5l.2 1h-.4zm0-1.4h.8c0-.2.3-.2.3-.2s.2 0 .2-.2v-.2l-.3-.3H263.5l.2 1zm4-.3h.4c0 .2 0 .4-.3.6 0 .2-.3.3-.6.3h-.5c-.2 0-.4-.3-.5-.4l-.3-.6v-.7c0-.2.2-.4.3-.5l.6-.3h.6c.2 0 .4.3.5.5h-.3s-.2 0-.3-.2h-.4c-.2 0-.3 0-.4.2l-.2.4v.5l.3.4.3.3h.5c.2 0 .4 0 .5-.3v-.5zm1 .6l-.7-2.3 1.6-.5v.3l-1.3.5.2.7 1.3-.4v.3l-1.3.4.3.8 1.4-.4v.3l-1.7.6z" style="text-align:start;line-height:100%;-inkscape-font-specification:Arial" font-size="18.7" font-family="Arial"/><path d="M228.4 181.7s7.8 3 21.6 3 21.5-3 21.5-3" fill="none"/></g></svg>