<svg xmlns="http://www.w3.org/2000/svg" xmlns:xlink="http://www.w3.org/1999/xlink" width="600" height="300" viewBox="0 0 2000 1000"><title>Flag of Kazakhstan</title><defs><path id="b" d="M0-76.5c4 0 5.5-2.5 5.5-5.5 0-4-5.5-23-5.5-23s-5.5 19-5.5 23c0 3 1.5 5.5 5.5 5.5z"/><path id="d" d="M-1 15C-1 5 8 0 15 0c9.6 0 14.7 5.5 14.7 13 0 4.2-.8 6.8-2.8 11L5 69c-.6 1.7-1 3.5-1 6 0 4 4 7.5 8.2 7.6 3.7 0 8-3.5 8-7.6 0-5-2.7-7.2-5.4-7.2-3.3 0-4.6 1.3-4.6 3.6 0 1.6.8 2.3 2 2.3 2.7 0 2-3.8 2-3.8 1.3.2 2.5 1.6 1.8 3.4 1 .2 2 .8 2.7 1.6-.7.7-1.6 1.3-2.7 1.5.7 2.2-.2 3.2-2 3.7.3-1 .3-1.6.2-2.4-3 1-7.6-.5-7.6-5.6 0-5 3.6-9.4 10.2-8.4-1.6-.7-2.4-2.3-2.5-4 1.2.5 2.5.6 2.5.6C16 59 15 57.8 15 55c1.2.7 2.4 1.7 4 1-2.5-4.8.5-11.6 8.3-13C24.5 46 23 49.7 23 53.3 23 65 26.4 67 26.4 75c0 3.3-1.7 7-5.2 9.4 2.4.5 4 1.6 4.7 3.2C20.5 89 13 89 9 87.4c-4.8-.5-8-4-9-6-1-1.7-2.8-8.3 0-14.2l22.2-47c1-2 1.6-4.2 1.6-6.5 0-6-5.5-8-8.6-8-3.7 0-7.5 2.8-7.5 6.3 0 2.2 1.2 3.5 3 3.5 4.2 0 4-3.5 3-5.7 2.7 1 4.2 3.2 3.8 5.4 1.5.2 3 1 4.2 2.4-1 1.2-2.3 2.2-4.2 2.2.8 3.5-1.5 5-3.7 5.7.7-2.5 1.2-5.4-3-5.4-3.2 0-5.7-.4-7-2.4-.2 2.6-.4 13.3-.4 13.3-.2 4 5.3 3.8 8.8 2.6-1.3 4.6-4 7-10.3 6.4 1.4.7 3 2 3 5 0 3.6-3 7.8-5 9l-1-39z"/><path id="e" d="M0-35.6s4.8-4 6.4-2c2.6 3.2-8 19.2-8 25 0 9 6.2 11.7 13.8 13 5 1 13.5-.4 13.5-.4C24-2 23-2.7 20.5-3c3-1.4 6-4.7 6-10 0-8-3.4-11-3.4-20 0-5 4.2-11.4 4.2-11.4-7.2.7-10.8 7.4-8.8 12.7-1 .2-2.2 0-3-1-.6 1.5.2 3.3 1.4 4.7-1 .5-1.6.2-3 0 0 1.5 1 3 3.3 4.6-6.4-1.7-10.4 2.8-10.4 7.6 0 3.6 2.5 6 5 6 .7 0 2-.2 2.5-.7.6 1 .4 2.3 0 3.3 1.7-.5 2.8-1.6 2-3.8 1.4 0 2.5-.6 3.2-1.5-.7-1-2-1.5-3.2-1.4 1-2 0-3.2-1.7-4 0 0 1 4-1.6 4-1.2 0-2.3-.3-2.3-2 0-1.6 1.3-3.7 4.4-3.6 3 0 5.6 2 5.6 7 0 4.6-3.7 7-8.5 7C7.4-5.4 4-7.8 4-12.3c0-6 8.7-19.6 8.7-25 0-4-3.7-6.2-7.3-6.2-4.5 0-8.4 4.5-8.4 4.5L0-35.6z"/></defs><path fill="#00afca" d="M0 0h2000v1000H0z"/><use xlink:href="#a" transform="matrix(-1 0 0 1 240 0)" height="1000" width="2000"/><use xlink:href="#b" transform="rotate(11 -1591.9 5695.1) scale(1.99905)" height="500" width="1000" fill="#fec50c"/><use xlink:href="#b" transform="rotate(23 -515.5 2926) scale(1.99905)" height="500" width="1000" fill="#fec50c"/><use xlink:href="#b" transform="rotate(34 -152 1990.9) scale(1.99905)" height="500" width="1000" fill="#fec50c"/><use xlink:href="#b" transform="rotate(45 33.3 1514.2) scale(1.99905)" height="500" width="1000" fill="#fec50c"/><use xlink:href="#b" transform="rotate(56 147.4 1220.7) scale(1.99905)" height="500" width="1000" fill="#fec50c"/><use xlink:href="#b" transform="rotate(68 225.9 1018.5) scale(1.99905)" height="500" width="1000" fill="#fec50c"/><use xlink:href="#b" transform="rotate(79 284.4 868.3) scale(1.99905)" height="500" width="1000" fill="#fec50c"/><use xlink:href="#b" transform="rotate(90 330.2 750.2) scale(1.99905)" height="500" width="1000" fill="#fec50c"/><use xlink:href="#b" transform="rotate(101 367.9 653.4) scale(1.99905)" height="500" width="1000" fill="#fec50c"/><use xlink:href="#b" transform="rotate(113 399.9 571) scale(1.99905)" height="500" width="1000" fill="#fec50c"/><use xlink:href="#b" transform="rotate(124 428 498.8) scale(1.99905)" height="500" width="1000" fill="#fec50c"/><use xlink:href="#b" transform="rotate(135 453.3 433.8) scale(1.99905)" height="500" width="1000" fill="#fec50c"/><use xlink:href="#b" transform="rotate(146 476.5 373.9) scale(1.99905)" height="500" width="1000" fill="#fec50c"/><use xlink:href="#b" transform="rotate(158 498.5 317.5) scale(1.99905)" height="500" width="1000" fill="#fec50c"/><use xlink:href="#b" transform="rotate(-146 603.9 46.1) scale(1.99905)" height="500" width="1000" fill="#fec50c"/><use xlink:href="#b" transform="rotate(-135 627.2 -13.8) scale(1.99905)" height="500" width="1000" fill="#fec50c"/><use xlink:href="#b" transform="rotate(-124 652.5 -78.8) scale(1.99905)" height="500" width="1000" fill="#fec50c"/><use xlink:href="#b" transform="rotate(-112 680.6 -151) scale(1.99905)" height="500" width="1000" fill="#fec50c"/><use xlink:href="#b" transform="rotate(-101 712.6 -233.4) scale(1.99905)" height="500" width="1000" fill="#fec50c"/><use xlink:href="#b" transform="rotate(-90 750.2 -330.2) scale(1.99905)" height="500" width="1000" fill="#fec50c"/><use xlink:href="#b" transform="rotate(-79 796.1 -448.3) scale(1.99905)" height="500" width="1000" fill="#fec50c"/><use xlink:href="#b" transform="rotate(-67 854.5 -598.5) scale(1.99905)" height="500" width="1000" fill="#fec50c"/><use xlink:href="#b" transform="rotate(-56 933.1 -800.7) scale(1.99905)" height="500" width="1000" fill="#fec50c"/><use xlink:href="#b" transform="rotate(-45 1047.2 -1094.2) scale(1.99905)" height="500" width="1000" fill="#fec50c"/><circle transform="translate(1080.3 420.2) scale(1.9585)" r="68.7" fill="#fec50c"/><use xlink:href="#b" transform="matrix(1.99905 0 0 1.99905 1080.5 420)" height="500" width="1000" fill="#fec50c"/><use xlink:href="#b" transform="rotate(169 519.6 263.2) scale(1.99905)" height="500" width="1000" fill="#fec50c"/><use xlink:href="#b" transform="rotate(180 540.2 210) scale(1.99905)" height="500" width="1000" fill="#fec50c"/><use xlink:href="#b" transform="rotate(-169 560.9 156.8) scale(1.99905)" height="500" width="1000" fill="#fec50c"/><use xlink:href="#b" transform="rotate(-157 582 102.5) scale(1.99905)" height="500" width="1000" fill="#fec50c"/><use xlink:href="#b" transform="rotate(-34 1232.5 -1570.9) scale(1.99905)" height="500" width="1000" fill="#fec50c"/><use xlink:href="#b" transform="rotate(-22 1596 -2505.9) scale(1.99905)" height="500" width="1000" fill="#fec50c"/><use xlink:href="#b" transform="rotate(-11 2672.4 -5275.1) scale(1.99905)" height="500" width="1000" fill="#fec50c"/><path fill-rule="evenodd" fill="#fec50c" d="M1075.8 655l-2.3 4.6-2.6 6-1.6 2.8-1.3 2.5-1 2-1.3 1.3-3-2.6-3.4-2.3-3.6-1.8-4-1.6-4-1-4-1-4.3-.8-4.4-.5-9-.8-9-.3-8.8-.6-8.2-1-4.7-.7-4.4-1-2.4-.8-2.3-.7-2-1-2-1-2.7-2-3-2-3-2.3-2.8-2.6-6-5.8-6-5.6-5.8-5.4-5.4-5-2.6-1.8-2.6-1.8-2.3-1-2.2-.8-4.4-1-4-1.3-3.7-1.3-4-1.8-3.3-1.5-3.3-2.2-3-2-2.8-2-3-2.4-2.7-2.4-2.6-2.5-2.7-2.6-5-5.5-4.5-5.7-9.3-12-9.8-12.5-5.7-6-6-6-3.3-3-3.3-2.8-3.6-2.6-4-3-.7.3-.7.8-.7 1-.5 1.4-.7 2.3-.3 1-1.8-.7-1.5-.8-1.8-.8-1.7-.5H830l-1.8.4-1.8.8 1.8 2.3 2.3 3 2.3 3.8 2 3.8 2 4.2 1.7 4 .5 2 .5 1.5.3 1.8v1.6h-14l2 3.2 2.4 3 2.6 3.2 2.8 2.8 3 2.8 2.7 3 3 2.2 2.4 1.8-2.8.3-4 .2-3.8.5-3 .3 2.4 2 3 2 3 2.4 3.3 2.4 3.3 2 3.3 2 3 1 3 .7 1.3.3 1 .3.7.2.5.5.2.3v1l-.2.5-.5 1.6-.3 1.5-.3 1v.7l.4 1.3.3 1 .5.6.8.5 1 .6 1.3.3 1.3.4 1.3.5 1 .4 1.2.8.2.2v.6l-.2.2-1 .8-1 .8-1 1-1.2 1.3v1l-.2 1.2.2 1.2.3 1.6 4.4 1.5 4.6 1.6 2 .6 2.2.8 1.5.8 1.3.7-8.5 6.6 2.3 2 3 1.6 3.6 1.8 3.6 1.3 4 1.3 4 .8 3.3.8h3l-2.7 2-3.6 2.4-4 2-2.7 2 2.5 2 3.7 1.7 4 2 5 2.4 11.3 5 12.4 4.8 13 4.6 12.5 4.3 5.6 1.8 5.2 1.4 4.6 1.2 4.2.8-8.3-.8-7.7-1-7.8-1.3-7.2-1.5-7.2-2-7-2.2-6.7-2.3-6.4-2.6-12.7-5-12-5.3-5.5-2.3-5.6-2.2-5.4-2-5.4-2 1.3-1 1.4-.4 2-.8 2.4-.5 5-1.5 4.3-1.5-7.7-1.3-10.5-2-5.2-1.6-4.4-1.2-1.8-.8-1.5-.8-1.4-.7-.8-.8v-.3l.3-.2.8-.3.8-.6 2-.8 3-.7 6-2 5.3-1.8L854 638l-9.8-1.6-3.6-.8-2.8-1-1-.5-1-.7-1-.5-.4-.8.8-.5 2.3-.5 3.4-.6 4-.7 4-.5 3.7-1 1.8-.6 1.5-.5 1-.7 1-.8-2-.7-2-.8-2.6-.5-2.6-.5-6-.8-6-.8-3-.8-2.8-.5-2.8-1-3-1-2.5-1.2-2.3-1.8-2-1.8-1.6-2.4.5-.2 1-.3h1.3l2 .3 4.8.2 5 .3 5.8.6h7.2l2-.2 1.6-.6 1-.5-6-2.6-8.4-3.6-4.6-2.2-5-2.3-4.8-2.6-5-2.7-4.6-2.8-4.4-3-4-3.2-3.7-3-1.6-2-1.6-1.4-1-1.7-1-1.8-1-1.5-.6-2-.3-1.4-.2-1.8h1.8l2 .2 2.2.8 2 .8 4.2 2.6 4.6 2.6 2 1.2 2.4 1.3 2.3 1 2 .8 2.4.7 2.2.2h2.3l2-1-6-4.5-7-6-8-7-8-7.6-8-8.4-7.5-8.2-3.4-4.4-3.4-4.2-2.8-4-2.6-4-.5-1V519l.3-.8.2-.7.8-.6.8-.8.8-.5 1-.3 1-.3h2l1.4.4 1 .3 1 .7.8.8 4.7 4.6 5.5 5.5 5.6 6 6.3 5.8 6.2 5.5 6.2 5.2 3 2 3 2 3 1.4 3 1.2-2.2-1.3-2.3-2.5-3-3-3.5-4-7.4-9L799 526l-4-5.7-4-5.7-3.6-5.7-3.6-5.5-3-5-2.7-4.8-1.7-4.4-1.5-3.6-.3-1.3v-2l.3-.8.5-.8.5-.7.5-.5.8-.5 2-.5 1.4-.5h3.7l1 .2 1 .3 1 .5.7.8 2 1.8 2 2.6 4.7 6 5 7.4 5.6 8 6 8.2 3 4 3 3.8 3.5 3.3 3.6 3-4.3-8.5-5-9.8-2.5-5.4-2.3-5.4-2.4-5.8-2-5.7-2-6-1.7-5.6-1.4-5.7-1-5.7-.5-5.4-.2-5.2.3-2.6.3-2.3.3-2.2.5-2.3.6-.8.3-.8.7-1 .5-.4 1.8-.8 1.8-.5h1.8l1.5.3 1 .2.4.3.3.6.2.8 2.5 8.2 2.3 8.8 2.4 9 2.3 8.8 2.3 8.8 3 8.2 1.7 4 1.8 3.8 2 3.6 2.3 3.6-1.5-7.5-1-6.7-1-6.2-.5-5.6-.5-5-.3-4.3.3-3.7.3-3 .5-2.7.7-2 .6-1 .6-.6.5-.6 1-.5.6-.3h2.4l2 .7 2 1 2 8.3 1.7 8 2 7.5 2.4 7.2 2.7 7.3 2.8 7.2 3 7.4 3.7 7.4 2.6 5 2.6 4.8 2.8 5 2.8 4.8 3 4.7 3.2 4.7 3.4 4.7 3.3 4.6 6 7.8 6.6 7.2 6.7 7.2 7 6.7 7.2 6.6 7.5 6.2 7.7 6 8 5.6 5.4 3.6 5.8 3.4 6 3.3 5.6 3 9 4.5 8.8 4 9.3 3.8 9.3 3.3 8.7 2.8 9 2.5 9.4 2 9 1.8 9.4 1.3 9.3 1 9.6.8 9.5.5M1099.3 733.4l4.4.5 2 .7.6.2v.2h-.6l-.5.2-4 .8h-3.4l-11-.8-13-.2-14.2-.3-14.7.2-7 .2-7 .5-6.3.5-6 .5-4.8.8-4.5 1-1.5.5-1.6.5-1.3.5-1 .8.6-2.5 1-2.6-1.7.5-2 .5-1.5.8-1.5.7-1.3.8-1 1-.8 1.3-.4 1.3-.8-2-.5-1.4-.2-1.8-.2-1.6.3-1.3.3-1.6.3-1.3.7-1.2.6-1 1-1.3 1-1 1-1 2.8-2 3-1.7c1.8 1 3.6 1.7 5.5 2.3 1.6.3 3.5 0 5.4-.4 3.2 2.8 7.4 2.4 10-.5.6-.5 1.2-1.3 1.4-2 .5-1.5.4-3.4 0-5l3.2-.4 3.6-.5 3.8-1 4.2-1 4-.8 4-1 3.6-.5 3-.3-1.2 1-3 2.4-3.7 2.8-2.6 1.8 3.3.8 2.8.5-2 2.4-2 2.4-2 2.3-1.6 2 2 .8 2 .5 2.4.6h4.6l2.4-.6 2.3-.5 2-1 2 1 2 .8 2 .5 2 .5 4.8.6 5 .4h19.5"/><path fill-rule="evenodd" fill="#fec50c" d="M1020 718.7l1 .2.6.2.3.8.2.7-.3.8-.4.8-.7.5h-2l-.4-.5-.6-.8-.2-.8.2-.7.6-.8.5-.3 1-.3"/><path fill-rule="evenodd" fill="#fec50c" d="M1019.8 719.7l.5.3.3.5-.3.5-.5.2-.5-.2-.3-.5.3-.5.5-.3"/><path fill="#fec50c" d="M1020 723.3c-1.3 0-2.4-1-2.4-2.4s1-2.5 2.4-2.5c1.3 0 2.4 1 2.4 2.4s-1 2.3-2.4 2.3z"/><path fill-rule="evenodd" fill="#fec50c" d="M1212.2 746l-1.8.8-1.8.2-1.6.3-1.2-.3-1.3-.2-1.3-.5-1-.5-1.4-.8-2-1.6-2-1.5-1-1-1.4-.4-1-.3h-1.3l-2.2 5-3 6-1.2 1.7-1 1.3-1 .7-1 .8-1.4.5h-1.2l-1.3-.5-1.6-.8-.4-.7-.5-.8-.4-1-.5-1.3-.5-2.4-.2-1.5-1.6 1.3-1.5 1.8-1.3 2-1.7 2.4-1.8 2.3-1.8 2-1 1-1.3.7-1.3.5-1.4.5h-.8l-1.3.3-1.3-.3-1-.5-3-3.6-3.5-3.6-2.3 3.6-2.6 3-1.2 1.4-1.3 1.3-1.3 1-1.3.8-1 .6-1.3.3h-1.3l-1-.4-1-.5-.8-.7-1-1.3-.5-1.5-.5-1.6-1-2.6-.3-1.3-.6-1-.6-.5h-.5l-7 11.4-1 1-1.8.7-2 .5-2 .5h-2.4l-1.7-.5-.5-.3-.8-.8-.3-.6v-1l1-11.3-.7.2-1 .5-1 .6-1 1-2.2 2.3-2.3 2.5-2.3 2.8-3 2.3-1 1-1.4 1-1.6 1h-1.3l-2 .4-1.2-.3-.5-.2-.5-.5-.3-.8v-.8l.3-3.3.5-3.3.3-1.8-.3-1.6-.2-1.6-1-1.8-1.5 2.3-2.6 3.4-3.2 3.3-3.3 3.4-2 1.3-1.7 1.3-1.5.5-1.3.5-.5-.3h-.8l-.5-.5-.3-.2-.6-.8-.2-.8v-1l-.3-1.3.2-9.7-6.5 4.4-7.7 5-1.8.7-2 1-2 .5-2 .4-1.8.5h-1.8l-1.8-.3-1.5-.5.7-2 .8-2 .8-1.7 1-1.6 1-1.6 1-1.6 1.4-1.2 1.3-1.3 2.8-2 3.5-2.2 3.3-1.4 4-1.3 3.8-1 4.3-.8 4.3-.8 4.4-.5 9.6-.5 9.8-.3h19.7l5-.2 4.5-.3 4.6-.3 4.4-.6 4.4-.6 4-.8 3.8-1 3.6-1.6 3.3-1.5 3-2 2.7-2.2 2.3-2.8-2.6-5.2 2-.2 2.2-.4 2-1 1.7-1.4.8-.5.8-.7.5-1 .5-.8.3-1v-2l-.5-1 4.4-.7 4.7-.5 5-.3h5l10.7.5 11 .8 11 1.3 10.8 1 10.6 1 10 .6v3.5l-.4 1.6-.5 1.6-.4 1.5-.5 1.4-.7 1-1 1.4-2 1.8-2.2 1.5-2.2 1-2.6.7-2.8.5-3-.3-2.4-.3-3-.8-2.5-1.4-2.5-1.3-2-1.8-2.2-2v4.3l-.7 5.7-.4 2.8-.8 2.6-.5 1-.8.7-.5.8-.8.5m-207.4-24.2l6 2.5 1.5-1.2 2-1.5 2.4-1.3 2-1.3 7.8-3.2 6.7-3 3.3-1.4 3-1.5 2.7-1.7 2.3-1.5 6-4 6-3.7 5.6-3.6 5.2-3.6 4-3 3-3 3.3-3 3.7-3.3 1.2-1.3 1.6-1 1.8-1 2-1 4.4-2.2 4.4-1.5 6-1.6 6.4-1.6 6.7-1.3 7.5-1.2 9-1 9-1.3 9.3-1 9-1.6 3.2-.6 2.8-.8 3-.8 3.2-.8 3-3.8 5-5.4 3.3-3.4 4-3 4.3-3.4 5.2-3.4 7.7-4.6 8.3-4.2 8.5-4.4 8.2-3.8 7.8-4 7.2-3.5 6-3 4.6-3 1.2-4 2-3.8 2.2-4 2.8-3.8 3-4 4-4.2 4-4.7 5.3-5 4.6-4 4.8-4 2.6-2 2.6-1.7 2.8-1.6 2.8-1.5 3-1.3 2.7-1 3-.8 3-.8 3-.3 3-.2 3 .2 2.8.6v3.2l-1 3-1 3-1.2 3.5-1.8 3.4-2.4 3.4-2.8 3.6-3.4 3.6 2.6-.2 2.3-.5 2-.7 1.7-.7 1.5-.6 1.8-.5 2.3-.2 2.6-.3.3 1.8v1.8l-.3 1.8-.5 1.6-.8 1.5-1 1.6-1 1.4-1.4 1.3-5.4 5-5.5 5 3 .3 3.5 1 3.3 1 2.6.6-3 2.3-3.6 2.2-3.6 2.3-4 2.3-4.3 2.4-4 2.5-4.2 3-4 3 2 .2 2.2 1 1 .2 1 .5 1 .3.7-.3-5.2 3-6.4 3-3 1.5-2.7 1.6-1.4.7-.8.8-.5.8-.5 1 .2 1 .6.7 1 .7.8.8-.3 1-.4.8-1 .8-1 .8-2.4 1.3-3 1-3.2 1.2-2.8 1-2 1-1.6.8 5 5.2-1.7 1.8-2 1.3-1.4.7-1.8.8-3.7.5h-4.8l.6 2.4.7 2.3.5 2.6.6 2.5-4.4 3.5-5.4 4-6 3.7-6.7 4-3.7 2-4 1.8-4 1.5-4.4 1.6-4.8 1.6-5 1-5 1-5.4.8 9.5.3h8.3l7.7-.8 7-.8 6.4-1.3 5.7-1.7 5.7-2 5.5-2 7.2-3.5 7-3.8 6.7-4.2 7-4-4.2-2-4-1.4-2.2-.8-2-1-2.4-1-2.3-1.4 2-1.5 2.4-1 2.8-1 3-.8 6.3-1.4 6.5-.8 5.6-.8 5-.5 2.2-.5 1.8-.5 1-.5.8-.8-.3-.3-.5-.6-.8-.3-1-.4-2.8-.5-3.7-.4-3.6-.3-3.5-.5-3-.8-2-.7 6.8-1.6 7-1.5 6.2-1.3 5-1.4 4.5-1.3 4-1.5 1.7-.8 1.3-.8 1.3-.8 1-1-.2-.2-.5-.6-1-.2-1.3-.3h-7.3l-4-.4-4-.3-3.4-.5-2-.5 1.8-.8 1.8-.7 6.2-1.8 5.4-1.6 5-1.3 4.5-1.4 5-1.6 4.8-2 2.5-1.3 2-1.3.8-.8.8-1 1-.8v-1.5l-1-.6-.7-.2h-7.2l-3.3.2h-4.6l-1.2-.2-1-.5-1-.5 10.3-6.8 9.6-6 8.5-5.6 7.6-5 3-2.6 3-2.6 2.2-2.6 2-2.5 1.7-3 1.2-2.7.8-3v-3.5h-1.8l-1.8.3-2.2.8-2 .7-4 2.6-4.5 2.5-2.4 1.3-2 1.3-2.4 1-2.4 1-2 .4-2 .3h-2.4l-2-.8 6-4.8 7-6 8-7 8-7.6 8-8.2 7.6-8.3 3.3-4.3 3.4-4 3-4.2 2.5-4 .5-1 .3-.7-.3-1-.3-.8-.2-.8-.8-.5-.8-.8-.8-.3-1-.6h-4.2l-1.3.4-.8.8-1 .7-4.7 4.6-5.5 5.4-5.6 6-6.2 6-6.2 5.3-6.2 5-3 2.2-3 1.8-3 1.6-2.6 1.2 1.8-1.6 2.3-2.3 3.2-3 3.4-4 7.4-9 8.3-10.6 4-5.7 4-5.6 4-5.5 3.2-5.7 3-5.2 2.7-4.5 2-4.4 1.3-3.5.3-1.3v-2l-.3-1-.5-.6-.5-.8-.5-.5-.8-.3-1.5-.8-1.8-.5h-3.7l-1 .3-.8.2-1 .6-1 .7-2 1.8-2 2.6-4.6 6-5 7.3-5.4 8-6 8.3-3.3 4-3 3.7-3.5 3.4-3.6 3 4.7-8.4 4.5-9.8 2.6-5.5 2.4-5.4 2.3-5.6 2-5.7 2-6 1.7-5.6 1.3-5.7 1-5.7.5-5.4.3-5.3-.3-2.5-.2-2.4-.3-2.3-.5-2.3-.3-.8-.6-.7-.7-.8-.6-.6-1.7-.8-1.8-.5h-1.8l-1.5.3-.5.3-.8.2-.4.6-.2.7-2.6 8.6-2.3 8.6-2.4 9-2.2 8.8-2.3 8.7-3 8.3-1.6 4-2 3.7-2 4-2.3 3.2 1.5-7.5 1-6.7 1-6.2.6-5.7.5-5 .3-4.4-.3-3.6-.2-3-.5-2.7-.7-2-.6-.8-.5-.8-.5-.5-.8-.3-.7-.3-.8-.3h-1l-.7.3-2 .5-2 1-2 8.3-1.7 8-2 7.5-2.4 7.2-2.6 7.2-2.8 7.2-3 7.5-3.7 7.6-2.5 5-2.6 4.8-3 5-2.7 4.8-3 4.6-3.2 4.7-3.3 4.6-3.3 4.8-6.2 7.7-6.5 7.2-6.7 7.2-7 6.7-7.2 6.7-7.5 6.2-7.7 6-8 5.6-5.4 3.6-5.7 3.6-5.7 3.3-5.6 3.4-9 4.2-9 4-9.4 3.5-9.3 3.4-7.7 2.4-7.7 2.3-8 1.8-8 1.8-8 1.3-8.2 1-8 1-8.2.6-.8.2-.8.3-1.5.8-1.8 1.3-2.6 2.3-3.3 3.2-4 4-5 5.5-4.6 5.4-5.4 6-2.8 3-2.8 2.7-3.4 2.6-3.3 2.6-2.6 1.7-2.6 1.6-2.7 1.2-3 1.3-6 2.6-6.3 2.3-6 2.4-5.6 2-2.3 1.2-2.2 1.2-2 1-1.6 1-1.6 1.7-1.3 1.3-.7 1.3-.5 1.3-.2 1.7v1"/><path d="M1019.8 721.5c-.5 0-1-.5-1-1s.5-1 1-1 1 .5 1 1-.5 1-1 1z" stroke="#00afca" stroke-width=".4" fill="#fec50c"/><use xlink:href="#c" transform="matrix(1 0 0 -1 0 1000)" height="1000" width="2000"/><use xlink:href="#a" transform="rotate(180 120 500)" height="1000" width="2000"/><use xlink:href="#a" transform="matrix(1 0 0 -1 0 1000)" height="1000" width="2000"/><use xlink:href="#c" transform="rotate(180 120 500)" height="1000" width="2000"/><use xlink:href="#a" transform="rotate(180 120 322.5)" height="1000" width="2000"/><use xlink:href="#a" transform="matrix(1 0 0 -1 0 645.1)" height="1000" width="2000"/><use id="a" xlink:href="#d" transform="matrix(-2.02202 0 0 -2.02696 120 322.5)" height="500" width="1000" fill="#fec50c"/><use xlink:href="#a" transform="translate(0 354.9)" height="1000" width="2000"/><use xlink:href="#a" transform="matrix(-1 0 0 1 240 354.9)" height="1000" width="2000"/><use xlink:href="#c" transform="matrix(-1 0 0 1 240 0)" height="1000" width="2000"/><use id="c" xlink:href="#e" transform="matrix(-2.02202 0 0 2.02696 120 145.1)" height="500" width="1000" fill="#fec50c"/></svg>