<svg xmlns="http://www.w3.org/2000/svg" width="750" height="500"><path fill="#ed1c24" d="M0 0h750v500H0z"/><path fill="#fff" d="M0 125h750v250H0z"/><path fill="#00a651" d="M371.6 125l-4 6.8c-2.4 3.8-7.8 9.4-12.2 12.6-4.4 3-9.7 7.7-12 10.3l-3.7 4.6 4-1 6.6-2c1.3-.7 2.4-.4 2.4.6v.2c-.6 2.4-7.6 8-13.2 10.2-5.3 2.2-13.3 8-14.3 10.3v.8c.8.4 2.5.5 4.5 0 3.5-.7 5-.3 6 2 1.8 3.7.8 5.4-3.3 5.4-5 0-11.8 5-12.8 9-.6 2.8-3.3 5-9 7.7-9.4 4.3-21.5 12.5-22.4 15v.2c0 3.5 8 3.3 19.3-.7 2.6-1 3.7 0 5.7 4.5 2.4 5.4 2.3 5.5-3.2 12.7-4 5-7.3 7.6-11 8.4-7.5 1.5-9.8 3-19.4 12.6-4.6 4.6-9.2 8.4-10.2 8.4-.5 0-.7 0-1 .2V265c1 1.4 6 4.2 8.8 4.2 2 0 7.2-2.4 11.3-5.3 7.2-5 7.6-5.2 10.5-2.3 1.7 1.7 3 5 3 7.2 0 3.4-1.8 5-11.3 9.8-7 3.6-15.3 9.7-21.7 16-8.7 8.8-11 10.4-14.8 9.8-2.3-.4-3.6-.5-4-.3h-.2c0 .6.8 1.5 2.2 3 1.3 1.5 4.4 2.7 6.8 2.7 6.7 0 27.6-7.8 34-12.7 6-4.5 12-5.4 16.8-2.5 7.4 4.4-5 13.3-28.6 20.3-8.7 2.6-16.2 5-17.2 5.7v.2c-.4.5 0 2 1 3.3 2.6 3.3 15 3.5 25.5.3 4.2-1.2 14.8-5.5 23.4-9.4 15.6-7.2 15.6-7.2 21-4.3 12.8 6.6 11.7 18.3-3.6 37.5-6.7 8.3-12.6 12-23.4 14.7-4 .8-12 8.5-12 11.3v.7h2.7c.6-.4 1.2-1 2-2 3.2-4.4 10-7.4 17-7.4 7.5 0 16.7-4.2 23.6-10.6 6-5.7 12.2-7.4 16.8-4.7 2.7 1.6 5 1.7 8 .5 5.6-2 8.3-1 8.3 3 0 2 2 4.4 4.5 6 2.6 1.3 7 4.8 10 7.7 2.3 2.2 4 3.2 4.8 3.2h.5v-.2h.2v-.2-.3c.2-1-.6-3-2.3-5.6-1-1.6-1.6-3.2-1.5-4v-.2s.2 0 .2-.2h.2c.8-.5 6-.3 11.4.4 9.8 1 11 1.7 16.8 8.4 2.8 3.3 5.2 5.3 7 6.2h4c.8-.4 1.4-1 1.5-1.5v-.2c-.3-1.2-6-6.7-13-12.5-15.8-13.2-18.2-18-18.3-36.3 0-11 .5-13.7 3-16.5 4-4.4 6.2-4.3 16 .8 7.4 4 9.7 4.2 26.4 3.8 18-.4 18.6-.3 27.6 5 5 3 11.3 7 13.8 9 5.6 4.2 11.3 4.4 12.6.6 1.6-4.6-9-13.4-29-24s-22-13.6-12.8-18.4c5.2-2.8 5.6-2.7 13.8 2 6.6 3.6 9.7 4.4 14 3.5l5.3-1-11.8-10c-6.6-5.3-13-11-14-12.6-3.6-4.7-10.4-7.8-17-7.8-3 0-6-.7-6.8-1.5l-.2-.2c-1.8-3.3 3.8-5 19.5-5.5 21-.8 24-3.3 9.4-8-5.7-2-14.4-4.3-19.2-5.3-6-1.3-9.2-2.7-10-4.3l-.2-.5v-.5c0-.5.4-1 1-1.7 1-1 5.7-1 13.7.4 9 1.4 14 1.7 15 .7 1-1.2-3.3-4.3-12.5-9.4-8.4-4.6-19-12-23.8-17-4.8-4.6-12-10-15.8-11.8-5-2.4-6.7-4-6-6 1-3.2 9-3.3 14.3 0 2 1.3 7.7 2.4 12.3 2.4l8.5-.2-5.6-2.3c-5.6-2.2-20.8-13-22-15.5v-.2-.2c.6-.4 4-.6 8.3-.4l8.5.5-12.2-9.4c-9-7-14.4-10-20.7-11.2l-12-2.5c-5-1.2-13.5-10-17-17.8l-3-6.7zm-27.8 47.4h.6c1.6 0 2.7.4 3.2 1l.2.4v.5c-.3 1.2-2 3.2-4 4.5-1.4 1-2.2 1.6-2.7 1.6l-.2-.2c-.3-.4-.4-1.5-.4-3.3 0-3.5.7-4.5 3.4-4.6zm41 4.2h.2c2.4 0 4 1.2 4.3 3 .5 2.4-.5 3-4.3 3-2 0-3.3-.2-4-.8-.4-.5-.5-1.2-.3-2.2.3-1.8 2-3 4.2-3zm-12 1c2.2 0 3 1 3 3.8 0 3-1.2 4-7 5.6-3.5 1-6.8 1.3-7.5 1-2-2.3-.4-5 4.6-7.6 3-1.7 5.3-2.6 7-2.7zm27.8 0c3 0 3.4 1.4 2 5.7-.6 1.5-2.7 2.7-4.8 2.7-3 0-3.7-.8-3.3-3.8.4-2.8 1.7-4 4.7-4.4h1.4zM354 186h.2c3.7 0 1.4 7-3.4 10.2-4.2 2.8-8.7 4-10 3l-.2-.4v-.2-.3c0-3.8 9-12 13.3-12.3zm34.6 16c1.8 0 3 2 2.3 5.4-.4 2-2.2 3.4-4.8 3.7-2 .3-3.3.3-3.8-.3v-.2s-.2 0-.2-.2c-.2-1 .8-2.7 3-5.5 1.2-1.7 2.4-2.5 3.4-2.7zm-13.8 1h.2c3.6 0 4.2 3 1 5-1.5.8-3 1.5-3.4 1.5h-.2L368 208l-3.7-1.2 4.3-2c2.2-1 5-1.8 6.2-2zm29.8 3.8c1.7 0 3.5.3 5.3 1 3 1.3 3.7 2.5 3 6-.7 4.8-3.3 5.3-12.2 2.5-4.4-1.4-5-2-3.5-5 1.4-2.7 4-4.3 7.3-4.5zm-66 1.2h.3c6.4 0 7.3 1 4 5.3-1 1.4-3 3.5-4.4 4.6-2 1.8-2.8 1.6-4.2-1.3-1.6-3.4-2-5.6-1.3-7 .8-1 2.6-1.7 5.6-1.7zm-17 3c2.7-.2 4.4 1 6.6 5l3 5.2-4.5 1.8c-4.2 1.6-5 1.3-8.4-3.6-2.2-3-3-5.2-2.5-6.5 0-.2 0-.3.2-.4 0-.2.2-.2.2-.2.8-.8 2.4-1.3 4.8-1.5h.6zm102 15.8c3-.2 6.2 2 5.7 5.4-.6 4.5-5.4 5.7-9.4 2.5-2.4-2-2.5-2.6-.7-5.4 1-1.6 2.7-2.3 4.3-2.5zm-58 8.3h.4c.3 0 .5.2.7.3h.4c0 .2.2.2.2.2v.2h.2c.5.6.6 1.7.4 3-.6 4.7-3.6 6-5 2.3-1-3.3 0-5.7 3-6zm-19.3 3.6c1.3 0 3.4.7 5.6 2.5 1.3 1.3 2 2.5 2 3.4v.4h-.2v.3c0 .2-.2.2-.2.2l-.2.2c-1 .8-2.8.6-5-1-1.7-1.4-3.2-3.2-3.3-4.2 0-1 .5-1.5 1.3-1.6zm30.8.7c.7 0 1.3.5 2.3 1.7 1.4 1.4 3 4.2 3.5 6.2 1.3 4.6-.8 6.6-5 4.5-4.5-2.3-5.6-6-3-10 1-1.6 1.6-2.4 2.3-2.4zm10.8 6.4c1.2-.2 2.7 1.5 3 4.4.3 1.8 0 3.2-.5 3.6l-.2.2c-2.2 0-3.5-2-3.5-5.5 0-1.7.6-2.5 1.3-2.6zm-67.4 6.7c2.2 0 4.2 0 5.5.4 2 .5 3.5 1 4.2 1.8l.4.5v1c-.2 1.3-2 3-5.6 4.8-3 1.5-8 3.3-11 4-5.2 1-6 .5-8-4-1.4-3-2.4-5.5-2.4-6v-.2c1-1 10.2-2.2 16.8-2.2zM425 267.6c6-.2 9.3 4 2.7 9-4.2 3.2-10.4 3.4-14.3.2-2.8-2.2-2.6-2.5 2.4-6 3.2-2 6.5-3 9.2-3.2zm22 4.8h.4c1 0 3 1 4.6 2.4 3 2.4 3 2.5-.8 6.8-2 2.2-3.8 4-4.5 4l-6-.8c-3-.5-5-1.7-5-3.2v-.2c.6-2.6 8-8.6 11.3-9zm-111 6.8h1c4.2 0 6.5 3.4 6.5 9.6 0 8.4-5 7.7-7.4-1-2-7.5-2.2-8.5 0-8.6zm31.8 2.4c2.5 0 8.6 1.3 9.4 2.2v.2c0 .7-1.6 3.4-3.6 6l-3.6 4.8-2-6.2c-.8-3-1.4-6-1.2-6.6v-.2h.2c.2-.2.5-.2.8-.2zm-15.4 2.7c.4 0 1.2 0 2 .3 2 .3 4 2 4.2 3.7.4 2 .2 3.6-.3 4.4h-.2v.3l-.5.2h-.2-.3c-1 0-2.3-1.3-3.5-3.8-1.3-2.8-2-4.2-1.7-4.7v-.2l.6-.2z"/></svg>