<svg version="1" xmlns="http://www.w3.org/2000/svg" xmlns:xlink="http://www.w3.org/1999/xlink" width="1000" height="600"><path fill="#002b7f" d="M0 0h1000v600H0z"/><path fill="#ce1126" d="M0 300h1000v300H0z"/><g fill="#ffd83d" stroke="#000" stroke-width="2" stroke-linecap="round" stroke-linejoin="round"><g id="a"><path d="M216.4 122.3l-2 62.5h-63.3c-7.7-15.2-14-28-14-45.5 0-14.6 11.4-26.2 28-26.2 17.4 0 36.7 6 51.4 9.3z" stroke="none"/><g stroke-width="1.5"><path d="M144.5 125.2v36M149.5 121.5v48M154.6 119v57.2M159.7 117.8v45M164.8 117.5V163M170 116v46.8M175 116v46.8M180 116.4v47M185.2 117v46.8M190.3 120v46.8M195.4 120.3v53M200.5 120.3v47M205.6 120.3v47"/><path d="M176.4 118c10.8 1.7 34.4 12.8 31.7 27.7-3.7 21.2-16 12.7-32.5 9.7l-12.4 4c-4.4 4.6-11 8.8-15.3 3.3h-7.4v28.8h81.4V122z" fill="#000"/></g><circle cx="212.8" cy="113" r="4.9"/><circle cx="201.7" cy="110.3" r="4.9"/><circle cx="190.4" cy="107.5" r="4.9"/><circle cx="179.1" cy="105.6" r="4.9"/><circle cx="167.8" cy="104.5" r="4.9"/><circle cx="156.7" cy="105.1" r="4.9"/><circle cx="146.2" cy="108.7" r="4.9"/><circle cx="137.3" cy="115.3" r="4.9"/><circle cx="131" cy="124.4" r="4.9"/><circle cx="127.9" cy="135.2" r="4.9"/><circle cx="128" cy="146.3" r="4.9"/><circle cx="130.2" cy="157.2" r="4.9"/><path d="M215 119.5l-.5 6.5c-12.3-2-29.7-8.8-46-8.8-15 0-26.6 6-26.6 21.2 0 15 6.2 28.5 14.6 42.3l-8.7 4c-8-15-14.3-28-14.3-45.4 0-14.6 11.4-29 31.2-29 17.4 0 35.3 6 50 9.2z"/></g><use xlink:href="#a" transform="matrix(-1 0 0 1 443.9 0)"/><path d="M222 53l-5.2 9.8 5.2 9.6 5-9.6-5-9.7zm0 24.5l-5.2 9.6L222 97l5-9.7-5-9.5zM203.6 75l8 5 8.2-5-8-5.2-8.2 5.2zm20.5 0l8.2 5 8.2-5-8.2-5.2-8 5.2z"/><circle cx="222" cy="75.1" r="3.9"/><circle cx="222" cy="100" r="10.5"/><path d="M219.3 90v6.5c-2.5 0-5 .4-7.4.8m20 0c-2.4-.4-5-.7-7.4-.8V90m-12.8 12.6c3.3-.6 6.7-1 10.2-1 3.4 0 6.8.4 10 1" fill="none" stroke-width="1.5"/><path d="M211.8 117.7c-1 17-3 34.5-9.7 47l11-4.3c3.7-14.3 4.5-32.8 5.6-41.6l-6.8-1zm20.4 0l-7 1c1.3 9 2 27.4 5.8 41.7l10.8 4.4c-6.6-12.6-8.6-30-9.6-47z"/><path d="M222 154.7c-13 0-22.4 6-23 21.6-3.2-5.6-16.5-23-29-20.7-7.4 1.4-14 11.7-12.8 23.4-6.2-17.6-24-20.5-37.2-10 11.6 9.5 16.8 37.8 26.6 50h150.7c9.8-12.2 15-40.5 26.7-50-13-10.5-31-7.6-37.2 10 1-11.7-5.5-22-13-23.4-12.4-2.3-25.7 15-28.8 20.7-.6-15.5-10-21.6-23-21.6z"/><g stroke-width="1.5"><path d="M297 219c0 5.6-33.6 11.7-75 11.7-41.5 0-75.2-6-75.2-11.7 0-5.6 33.7-8.5 75.2-8.5 41.4 0 75 3 75 8.5z" fill="#000"/><circle cx="222" cy="114.4" r="3.5"/><circle cx="222" cy="122" r="3.7"/><circle cx="222" cy="130.2" r="4.1"/><circle cx="222" cy="139.3" r="4.7"/><circle cx="222" cy="149.4" r="5.1"/><path d="M220 159.2c-.6 0-1 .5-1 1.3l.6 4.4c.2 1.4 1 1 1.3-.2v-4c0-1-.5-1.6-1-1.6zm4 0c-.6 0-1.2.5-1 1.6 0 2-.2 3 0 4 .3 1.2 1.2 1.6 1.4 0l.5-4.3c0-.8-.4-1.3-1-1.3zm-7.7.6c-.5 0-1 .5-1 1 0 1 .3 2.3.5 3.8 0 1.5 1.2 1 1.3 0 .2-.8.3-2 .2-4 0-.5-.3-.8-.7-.8h-.2zm11 0c-.2 0-.5.3-.5 1-.2 1.7 0 3 0 3.8.2 1 1.3 1.5 1.4 0 0-1.5.4-2.7.4-3.7 0-.7-.5-1.2-1-1.2h-.2zm-15.3 1.7c-.5 0-1 .7-.8 1.3.3 1.3.6 2.7.6 4 0 1 1 .7 1 0v-4c0-1-.4-1.4-.8-1.3zm19.7 0c-.4 0-.7.5-.7 1.3 0 1.5 0 3.2.2 4 0 .7 1 1 1 0 0-1.3.2-2.7.5-4 .2-.6-.3-1.2-.7-1.3h-.3zm-59 .2c-.7 0-1 .7-.7 1.6.6 1.3 1.3 2 2 3.5.4 1.3 1.3.5 1-.4l-1.4-3.7c-.3-.7-.7-1-1-1zm98.7 0c-.4 0-.7.3-1 1-1 2-1.2 3-1.5 3.7-.3 1 .5 1.7 1 .4l2-3.5c.3-1 0-1.6-.6-1.6zm-94.8 0c-.4.2-.7.7-.4 1.3l1.7 3.8c.3 1 1.3.8 1-.2-.4-1-.5-1.7-1-3.7-.5-1-1-1.4-1.4-1.2zm90.5 0c-.3 0-.7.5-1 1.2l-1 3.6c-.4 1 .6 1.3 1 .2l1.8-3.8c.2-.6 0-1-.4-1.2h-.3zm-85.4 1c-.6 0-1 1-.6 2l1.6 3.6c.6 1.4 1.5 1 1.3.2l-1.3-4.5c-.3-1-.7-1.4-1-1.3zm80.8 0c-.4 0-1 .3-1.2 1.3-.6 2.2-1 3.6-1 4.5-.4 1 .6 1.2 1-.2.7-1.4 1.3-2.5 1.7-3.7.3-1 0-1.8-.6-2zm-93.2.7c-.6 0-1 1-.7 1.7.5 1.2 1 1.5 1.4 2.7.5 1.2 1 .3.8-.5l-.7-2.8c0-.8-.5-1-.8-1zm105.6 0c-.4 0-.7.2-1 1l-.7 2.8c0 .8.5 1.7 1 .5.6-1.2 1-1.5 1.5-2.6.3-.6-.2-1.5-.7-1.6zm-67 2.8c-.7 0-1.3.8-1 1.5.3 1.2.8 2.2 1 3.7.5 1.3 1.4.7 1.4-.2 0-1-.3-2-.6-4-.2-.7-.5-1-1-1zm28.4 0c-.3 0-.7.3-.8 1-.4 2-.6 3-.6 4s1 1.5 1.2.2c.4-1.5 1-2.5 1.2-3.7.2-.7-.4-1.5-1-1.5zm-14.2 1.2c-.8 0-.8 1-1 1.7 0 2.7-1 5.2-2 6.5-.8 1.2-2.2 1-3.4.2-1.3-.7-2-1.2-3.3-2.2-1.4-1-2.4-.4-.8 2 4.6 6.5 9.6 12 9.6 22.8 0 1.4.4 1.8 1 1.8s.8-.3.8-1.7c0-10.7 5-16.3 9.6-23 1.6-2.2.6-2.7-.7-1.8-1.3 1-2 1.5-3.3 2.2-1.3.7-2.6 1-3.5-.2-1-1.3-2-3.8-2.2-6.4 0-.6 0-1.6-.8-1.6zm-35.3-1.6h-.2c-.3 0-.4.4-.3 1 0 1 .8 3 1 4 .4.8 1.5.6 1.3-.6l-.6-3c-.3-1-1-1.4-1.3-1.4zm70.6 0c-.5 0-1 .5-1.2 1.3l-.5 3.2c-.3 1.2.8 1.4 1 .5l1.3-4c0-.5 0-.8-.4-1zm-91.6.4c-.6 0-1 .8-.4 1.8.6 1.2 1.7 2.6 2.2 3.5.5.8 1.4.2.8-.8-.6-1-.8-2.3-1.5-3.8-.3-.6-.7-.8-1-.8zm112.5 0c-.3 0-.7.2-1 .7-.7 1.4-1 2.6-1.5 3.7-.7 1 .2 1.6.7.8.5-1 1.6-2.3 2.2-3.5.6-1 .2-1.8-.4-1.8zM134 169.5c-.6 0-.8 1.2-.2 2 1 1 1.5 1.8 2.6 2.7.8.8 1-.2.6-1l-1.8-2.7c-.5-.7-1-1-1.2-1zm176 0c-.4 0-.8.3-1.2 1l-2 2.7c-.3.8 0 1.8.8 1l2.6-2.7c.6-.8.4-2-.3-2zm-171 1c-.5 0-.8.4-.4 1.3l2 3.8c.4 1 2 1.3 1.3-.2-.7-1.6-1-2.4-1.4-3.8-.3-.7-1-1-1.5-1zm166 0c-.7 0-1.4.4-1.7 1l-1.2 4c-.5 1.4 1 1 1.5 0l1.8-3.7c.5-1 0-1.3-.4-1.3zm-175.7.4c-.8 0-.8.6 0 1 .8.8 2 1.5 3 2.4 1.2 1 1.6 0 1-.8-.7-.8-1.3-1.6-3-2.5h-1zm185.3 0h-1c-1.6 1-2.3 1.8-3 2.6-.6 1 0 1.8 1 .8 1.2-1 2.3-1.6 3.2-2.3.7-.4.6-1-.2-1zm-109.6.6c-.5 0-.8.5-.7 1.2.4 1 .8 2.4 1 3.6.2 1 1.5 1 1.3 0-.2-1-.3-2.3-.7-4-.2-.5-.5-.8-.8-.8h-.2zm33.8 0c-.3 0-.6.3-.8 1-.4 1.5-.5 2.8-.7 4-.2 1 1 1 1.4-.2.2-1.2.6-2.5 1-3.6 0-.7-.3-1.2-.7-1.2h-.2zm-64-2c-.3 0-.5.7-.2 1.7 1.4 5 1.8 7.7 1.6 9-.3 1.2-1 1.3-2 1-.8-.5-1.8-1-2.7-1.7-.8-.6-1.7 0-.5 1 6 5 10.3 10.8 12 17.7.2 1.4 1 1.6 1 0-1.5-8.7-1.8-16 .3-20.3.8-1.7 0-3.3-1.2-.6-.8 1.8-2 2.6-3.2 1-1-1.6-3.3-5.8-4-7.7-.2-.7-.5-1-.8-1zm94 0c-.2 0-.5.4-.7 1-.6 2-2.8 6.2-4 7.8-1 1.6-2.3.8-3-1-1.4-2.7-2.2-1-1.4.6 2 4.4 1.8 11.6.5 20.3-.2 1.6.7 1.4 1 0 1.7-7 6-12.6 12-17.6 1-1 .2-1.7-.6-1l-2.8 1.5c-1 .4-1.6.3-1.8-1-.3-1.2 0-4 1.5-9 .3-1 0-1.5-.2-1.6zM144.5 172c-.5 0-1 .4-.7 1.2.4 1.4 1.2 2.8 1.5 3.6.3 1 1.2.5 1-.7l-.5-3c0-.6-.7-1-1.3-1zm155 0c-.4 0-1 .4-1.2 1l-.4 3c-.2 1.3.7 1.7 1 .8.2-.8 1-2.2 1.5-3.6.2-.8-.3-1.2-.8-1.2zm-136.2-1.7c-.6 0-.7 1.5-.2 2.2.8 1 1.7 2 2.8 3 .8 1 1.3.2.8-.6-.5-1-1.2-1.8-2.6-4-.3-.4-.6-.7-.8-.7zm117.5 0c-.2 0-.5.3-.8.8-1.4 2.2-2.2 3-2.7 4-.5.7 0 1.6 1 .6l2.6-3c.4-.8.4-2.4-.3-2.3zm-132 4c-.4 0-.7.2-.5 1l.8 3c.3 1.2 1 1 1 0l-.3-3.2c0-.4-.6-.7-1-.8zm146.5 0c-.4 0-.8.3-1 .8 0 1.2-.3 2.3-.3 3.3s.7 1.2 1 0l.8-3c0-.8-.2-1-.6-1zm-133.4 1.4c-.6 0-1.2.6-.4 1.6 1 1.5 2.4 2.5 3 3 .3.6 1.4.4.7-.7-.6-1.2-1.8-2.7-2.2-3.5-.2-.3-.6-.4-1-.3zm120 0c-.2 0-.5 0-.6.4-.5 1-1.6 2.4-2.4 3.6-.7 1 .4 1.3 1 .8.3-.6 1.6-1.6 2.8-3 .7-1 0-1.6-.5-1.7zm-140.6 4c-.5 0-.7.5 0 1.4 1.4 2 3 5.2 3.2 6.5 0 1.4-.5 1.4-1 1.4-2 0-3-1.5-4.5-2-1.8-.2-2 .6-.8 1.5 6 4.4 12 9.3 14.6 13.8 1 2 2.3 2.5 1.6.8-2.3-5.3-3-9.8-2.4-12.5.5-2.7 1.2-4.6 1-6.2 0-1.5-1-1.4-1.2 0-.3 1-.7 2.3-1 2.8-.4.6-1.7 1-3-.8-1.3-1.7-4.5-5-5.5-5.8l-1-.6zm161.6 0l-1 .7c-1.2.8-4.4 4-5.6 5.8-1.3 1.7-2.6 1.4-3 1-.3-.6-.8-2-1-3-.4-1.3-1.3-1.4-1.4 0 0 1.7.6 3.6 1 6.3.6 2.7 0 7.2-2.2 12.6-.8 1.8.6 1.2 1.6-.7 2.4-4.5 8.5-9.4 14.6-13.8 1.2-1 1-1.7-.7-1.4-1.6.5-2.5 2-4.3 2-.6 0-1.3 0-1.2-1.5 0-1.3 1.8-4.4 3.3-6.4.6-.8.5-1.2 0-1.2z" fill="#000" stroke="none"/><path d="M150 212.7l2 6m2-7.2l2 6.2m2.5-7l1.2 6.4m2.8-7l1.3 6.3m3.8-6.8l1 6.3m4.5-6.3l1.2 6.3m4.3-8l.8 6.3m4.2-6l.8 6.4m4-7l1 6.4m4-7l.4 6.5m4.8-6.5l.4 6.5m4.3-6.8l.3 6.5m5-6.8l.2 6.4m5.7-6.6l.3 6.5m79 .2l-2 6m-2-7.2l-1.7 6.2m-2.5-7l-1.2 6.4m-3-7l-1 6.3m-4-6.8l-1 6.3m-4.5-6.3l-1 6.3m-4.3-8l-.8 6.3m-4.3-6l-.8 6.4m-4-7l-1 6.4m-4-7l-.4 6.5m-4.8-6.5l-.4 6.5m-4.3-6.8l-.3 6.5m-5-6.8l-.2 6.4m-5.8-6.6l-.2 6.5m-7.2-7v7.2"/></g></g></svg>