<svg xmlns="http://www.w3.org/2000/svg" version="1" width="900" height="600"><path fill="#cf142b" d="M450 0h450v600H450z"/><path fill="#fff" d="M0 0h450v600H0z"/><path d="M100.5 91.5c0 1-1 1.8-2.5 1.8-1.4 0-2.5-.8-2.5-1.8s1-1.8 2.5-1.8c1.4 0 2.5.8 2.5 1.8z" fill="#f1eeee" fill-rule="evenodd"/><path d="M22.2 82.8v45.5h45.5c0 7.6 7.6 15 15 15V189h45.6v-45.6c7.6 0 15-7.5 15-15H189V82.7h-45.6c0-7.5-7.5-15-15-15V22H82.7v45.5c-7.5 0-15 7.6-15 15H22z" font-size="12" fill="#e60d2e" fill-rule="evenodd"/><path d="M25.3 86v39.3h45.4c0 7.5 7.6 15 15.2 15V186h39.3v-45.6c7.5 0 15-7.6 15-15H186V85.8h-45.6c0-7.7-7.6-15.3-15-15.3V25.3H85.8v45.4c-7.7 0-15.3 7.6-15.3 15.2H25.3z" font-size="12" fill="#96877d" fill-rule="evenodd"/><path d="M26.8 87.4v36.3h45.4c0 7.6 7.6 15.2 15.2 15.2v45.3h36.3V139c7.6 0 15.2-7.7 15.2-15.3h45.3V87.4H139c0-7.6-7.7-15.2-15.3-15.2V26.8H87.4v45.4c-7.6 0-15.2 7.6-15.2 15.2H26.8z" font-size="12" fill="#ccc" fill-rule="evenodd"/><path d="M84.5 71.7c2.7 2.6 2 7.7-1.6 11.2-3.6 3.5-8.7 4.2-11.3 1.5-2.7-2.6-2-7.7 1.6-11.2 3.5-3.6 8.6-4.3 11.2-1.6z" fill="#96877d" fill-rule="evenodd"/><path d="M71 79.7l1.2-1 4.3 2-2-4.2 1-1 4.2 8.5-8.6-4.3z" fill="#d0d0d0" fill-rule="evenodd"/><path font-size="12" fill="#d0d0d0" fill-rule="evenodd" d="M77.6 73.3l1-1 6.5 6.4-1 1z"/><path d="M139.4 84.5c-2.6 2.7-7.7 2-11.2-1.6-3.6-3.6-4.3-8.7-1.6-11.3 2.6-2.7 7.7-2 11.2 1.6 3.6 3.5 4.3 8.6 1.6 11.2z" fill="#96877d" fill-rule="evenodd"/><path d="M131.4 71l1 1.2-2 4.3 4.2-2 1 1-8.5 4.2 4.4-8.6z" fill="#d0d0d0" fill-rule="evenodd"/><path font-size="12" fill="#d0d0d0" fill-rule="evenodd" d="M137.8 77.6l1 1-6.4 6.5-1-1z"/><path d="M126.6 139.4c-2.7-2.6-2-7.7 1.6-11.2 3.5-3.6 8.6-4.3 11.2-1.6 2.7 2.6 2 7.7-1.6 11.2-3.5 3.6-8.6 4.3-11.2 1.6z" fill="#96877d" fill-rule="evenodd"/><path d="M140 131.4l-1 1-4.4-2 2.2 4.2-1 1-4.4-8.5 8.6 4.4z" fill="#d0d0d0" fill-rule="evenodd"/><path font-size="12" fill="#d0d0d0" fill-rule="evenodd" d="M133.6 137.8l-1 1-6.5-6.4 1-1z"/><path d="M71.7 126.6c2.6-2.7 7.7-2 11.2 1.6 3.5 3.5 4.2 8.6 1.5 11.2-2.6 2.7-7.7 2-11.2-1.6-3.6-3.5-4.3-8.6-1.6-11.2z" fill="#96877d" fill-rule="evenodd"/><path d="M79.7 140l-1-1 2-4.4-4.2 2.2-1-1 8.5-4.4-4.3 8.6z" fill="#d0d0d0" fill-rule="evenodd"/><path font-size="12" fill="#d0d0d0" fill-rule="evenodd" d="M73.3 133.5l-1-1 6.3-6.5 1 1z"/><path d="M137.4 105.6c0 17.5-14.3 31.8-31.8 31.8-17.6 0-32-14.3-32-31.8 0-17.6 14.4-32 32-32 17.5 0 31.8 14.4 31.8 32z" fill="none" stroke="#96877d" stroke-width=".5"/><path d="M129.8 105.6c0 13.3-11 24.2-24.2 24.2-13.4 0-24.3-11-24.3-24.2 0-13.4 11-24.3 24.3-24.3s24.2 11 24.2 24.3z" fill="none" stroke="#96877d" stroke-width=".5"/><path d="M95 131.3c0 .6-.3 1-.8 1.3-.5.3-1 .3-1.5 0-.5-.2-.8-.7-.8-1.3 0-.5.2-1 .7-1.3.4-.3 1-.3 1.5 0s.7.8.7 1.3zM119.2 131.3c0 .6-.3 1-.8 1.3-.4.3-1 .3-1.5 0-.6-.2-.8-.7-.8-1.3 0-.5.2-1 .7-1.3.4-.3 1-.3 1.4 0 .5.3.8.8.8 1.3zM104.5 131.3v1.6h-2c-2 0-2 1.5 0 1.5h2v1.6c0 1.7 1.8 2 2 .2v-1.7h2c2 0 2-1.6 0-1.6h-2v-1.7c0-1.6-2-1.6-2 0z" fill-rule="evenodd"/><path d="M123 110.2h1.3s0 .3-.2.4c.4.2 1.3.2 1.3.2l-.6.3.8.6h-1v.7s-1.2-.3-1.6-1M120.8 109.5c-.3.7-2.5-.6-2.5-.6s1 1.4 2.4 1.6M93.2 123.7h26l2-1.6-3.5-1.7-5-1.8-2-1h-4l-3 1.8-4.5.5-1 1.2-3.2.3h-5l8.4 1.2-7-.4 1.8 1.7z" fill="#96877d" fill-rule="evenodd" stroke="#000" stroke-width=".2"/><path d="M107 116.2c-3-1.7-4 2.6-5.5 3.6 2 .3 3.3-1.4 5-2.3 1.2 3.3 3 1 3 1s2 3.3 4.8 2c.7.4 1.5 0 1.5 0s1 0 1.2-.3c.5.2 1-.5 1-.5s1.2 0 1.4-.5c1.7.2 4-3.4 4-3.4l.5-1.3 1-.2s0-.7-.6-.6c0-.4-.3-.6-.8-.5 0-.3-.2-.5-.2-.5-1 .3-1 2.6-1 2.6l-2.2 1.5c0-1.3-2.3-3-1.8-4 .5-.8 2 1.4 3.2 1 1.2-.4 2-2 2-3.4l-1.3-2.3h-.8l-.8-1.7s-1.5 1-1.4 2c0 .7 1.6 1.5 1.6 1.5s-1 .5-2 .3c0 1 1 .8 1.5.8.2.6 1 1 1 1s.2 1-.8.8c-1 0-2-2.3-3.5-1.3-1.5 1 .6 3.2.6 3.2s-1.3.7-2 2.5c-3.3-2.7-5-1.5-8.7-.8z" fill="#96877d" fill-rule="evenodd" stroke="#000" stroke-width=".2"/><path d="M102.5 111.7c1.3 1.2.4 3.3 1 3.7.4.4 1.2-.2 1.2-.2 1.4.4 4-.4 4-.4 1 .6.6-.3 1.2-.3.5 1.6 2.5 1.3 2.5 1.3s-1.8-2-3-2.4c-.8.5-3.3.6-3.7.5-.5-.2-.2-.8-.4-1 1-1 .2-3.2-.3-4-2-1.4-4.4 1-2.5 2.7zM93.6 108c-1.7.4-4.6-2.2-6-1.2-1.3 1-.7 3.4.2 4.7 1 1.2-1.3 1.6-1.8 2.3-.6.7 0 1.5 0 1.5l.8.4-.2 1 .4 1s.3.2.4 0c.2.2 0 1 .7 1-.2-.4.3-2 .3-2s1.2.2 1.5-.3c.3-.5-.3-1.7-.3-1.7h.4c-.5-.3-.7-1-.7-1s1.7-.6 1.7-2c0-1.2-2.7-2.5-1.7-3.2 1-.7 3 2 4.6.7 1.6-1.2.5 0 .5 0s.8-1.7-1-1.3zM102.3 90c-2.3-1-7-1-9.4-2.3-1.2 0-1.7 1-1.8 1.3-1.2 0-2 1.8-1.8 2.2-2-1-3 2.5-2.4 3.2-1.8 0-1.6 2.4-1.8 3-.6 1.4 0 2 1.3 1.4.2.6 0 1-.6 1 3 3.7 4.8-2 7.6-2 3.5-1 4.8-2.8 4.8-2.8h1.4l2.5-5z" fill="#96877d" fill-rule="evenodd" stroke="#000" stroke-width=".2"/><path d="M108.5 87.4c0 1.8-1.5 3.3-3.4 3.3-1.7 0-3.2-1.5-3.2-3.3 0-1.8 1.5-3.3 3.3-3.3 2 0 3.5 1.6 3.5 3.4z" fill="#96877d" stroke="#000" stroke-width=".2" stroke-linecap="round"/><path d="M99.3 113.4c-2-.4-5.4-2.5-5.8-5.3 2-7.4 11.8-3.4 12.6-9 0-3.8.6-7.5 2.7-10.6 1-1.2 2.2-1.5 2.2-1.5s0 .7-.2 1.2c1.6-.2 3.8.7 5.3.8.6 1 .5 1.3.4 1.8 0 .6-.7.4-.7.4-.4.4-.8.8-2 .6-.7.6-2.4.8-2.4.8s3.5 3.7 3 5c.7.2 1.8 2 1.8 2s2.5-1.4 3.3-2.6c1.4 0 3.7 1.5 5 1.7l2.7 2.3s-1.7 1-2.4-.4c-1 0-2.8-2-5.4-1.4 0 2.4-2.7 4-2.7 4s2.4-.3 3.7.5l3.4 2.7 1.8 3s-1.6.4-2.2-1.8c-.7 1.7-.7-1-3-2.3-1 0-1.2 0-2-.4-1.6.4-3.7 1.4-6.2 1-1.7.7-3 2-4.8 3-1.8.8-2.3.4-2.3.4h-1.5c-.2 1 0 2.2-1 2.4.6.6-.2 3-1 3.3.3 1.5 1.5 2 2.7 2.7 0 0 1.2-.5 2 .2.6.5 1.4 2.4 1.4 2.4h-2c-.5-.3-.5-.8-1-.6-3.6-3-5.4-2-5.7-2.6-.5-.7.7-2.6.3-3.8z" fill="#96877d" fill-rule="evenodd" stroke="#000" stroke-width=".2"/><path d="M91 99.7c.2-.3 1.4.2 1.4.2l2.4 1.4 4.7 3 1.6 2.4-3-1-4-3.5-2.3-1.5s-1-1-.7-1zM119 107.4c-1.8-.4-5.8 4.4-5.8 4.4l3 3.3s0-5.5 2.7-7.6z" fill="#96877d" fill-rule="evenodd" stroke="#000" stroke-width=".2"/><path d="M99 93.8c-1 1-1 3.4.2 4.3 0 1.5 1.3 4.3 2.2 4.6 1 .3 5 1.2 6.7 1-.2 2.6 1.8 4.6 3.7 6 0 .2 0 .5.2.8 0 .2 1 .3 1 0 .6.8 2.7 1 2.8.8.2-.3-3-2.6-3.8-3.3-.6-1.2-1.8-3.8-2-5.8-1.7-2-4.4-2-4.4-2v-3.6l.2-4.2-1.4-.8s.3 0 .4-.3c.4.2 1-.5 1-.7h1V89c1.2-1 0-3-1.8-3-1.7 0-2 2-2 2v1.2l-.7.5s-1-.5-2 0c-1.3.4-2.6 1-2.7 1.7-.5 0-1.3.8-1.5 1.4-.4 0-1 .4-2 2-1.7.7-1.8 4.5-1.8 4.5s-.5.7-.5 1c0 .5 0 .8.4.7 0 .3.4.5.6.4 0 .3.4.4.6.4h.7v-1c0-.2.6.2.7 0 .2 0 0-.4 0-.5 0 0-.6-.3-.8-1-.2-.5.3-1.3.3-1.3s2-1.5 2-2.8c1.5 0 2.3-1 2.7-1.6z" fill="#96877d" fill-rule="evenodd" stroke="#000" stroke-width=".2"/><path d="M95.7 88.4c.4-1 2-1 2-1s.6-1.5 2.7-.6c.8-.6 3 .3 3 .3s.7-1 1.8-1c2 .4 2.2 2 2 2.4-1 .3-2.8-.8-4.2-.5-.8.3-2 .8-2.6 1.5-1.3 0-2.6-1.2-4.7-1zM99.7 90.2c.5-.3 1.6-1 2.4-.2 1 1 2.3 1.7 2.3 1.7l1.4.6.7.4-.4 6.7c-1.4-1.4-2.7-1.6-3.6-3.2-.5-.7 0-2.4-1-3.5-1-1-2-2-1.7-2.5z" fill="#96877d" fill-rule="evenodd" stroke="#000" stroke-width=".2"/><path d="M103.2 92h1l.6.5c.3 0 .5.3.5.5.2 0 .3.5.3.5l-.2.4s-.3-.4-.3-.7c0 0-.5 0-.6-.4-.3 0-.5-.3-.6-.6-.3 0-.6-.3-.6-.3z" fill="#96877d" fill-rule="evenodd" stroke="#000" stroke-width=".2"/><path d="M109.7 87.7c-.5-.5-1.2 0-1.2 0l-2 3.4-1 1v2.6l.7 2.6-.3 2s1-1 1-1.5c.2-.5-.3-2.2-.3-2.2s-.6-1 0-3c1-2 2.6-3.6 3-4.8z" fill="#96877d" fill-rule="evenodd" stroke="#000" stroke-width=".2"/><path d="M114.7 91s-3.2 4.4-8.4 6c-1.4.4-1-3.3-1-3.3h-.3s-.8 3.7 1 3.8c5.4-1 9.4-6.6 9.4-6.6h-.7zM117 117.2s-.6.3-1.2 0c-.4-.8-1.3-1-1.3-1s-.5-1.5-1.4-1c0-1-1-.5-1-.5s0-1.2-1.2-1c.3-1.5-1.6-1.4-1.6-1.4s0-1.6-3-1.2c6.3-2.7 11.2 4.5 11.2 4.5M120 117.8s1.3 1.6 2 1.6c.8 0 1-1.6 1-1.6s0 .7.5.5c0 .5.5.6.5.6s-1.3 3-5 0M108.6 118.4l-.6 2s-.6.7-.4.8l1.2-.2s1.6-.2 2-.7c.4.8 1.2 1 1.2 1v-.7h.6s.2-.6-.3-.8c0-.5.3-1-.5-.8-.5.6-2 1.3-2.3 1-.4-.2 1.4-1 1-2" fill="#96877d" fill-rule="evenodd" stroke="#000" stroke-width=".2"/><path d="M76 113.4l2-.5-.2-1c0-.3 0-.4-.3-.5H77v-.2l1.7-.5v.2c-.2 0-.3 0-.4.2 0 0-.2 0-.2.2v.5l.4.8 1.6-.4h.5c0-.2 0-.3.2-.4v-.5l.6 2.2H81c0-.4 0-.5-.2-.6l-.6.2-3.4.8c-.3 0-.5 0-.5.2l-.2.2v.4h.2l-.2.2-1-4 1.2-.3-.4.5-.2.4v.6l.4 1.2zm-1.4-9.4c0-.7.4-1.3 1-1.8.5-.5 1.2-.7 2-.7s1.5.4 2 1c.5.5.7 1 .7 2 0 .6-.3 1.2-1 1.7-.5.5-1.2.7-2 .7-1-.2-1.6-.5-2-1-.5-.7-.7-1.3-.7-2zm.3 0c0 .6 0 1 .4 1.3.4.4 1 .6 2 .7.8 0 1.5 0 2-.5.4-.3.6-.6.6-1 0-.6 0-1-.5-1.4-.4-.3-1-.5-2-.5-.8 0-1.5 0-2 .4-.4.2-.6.6-.6 1zm7.8-10l-.5 1.5-3 .8s0 .3-.2.3v.3l1.5.4c.3 0 .5.2.7 0 0 0 .2 0 .3-.2V97h.2l-.8 2.2h-.3V99c.2-.3.2-.4 0-.6l-.5-.3-3.2-1c-.4-.2-.6-.3-.7-.2 0 0-.2 0-.3.3v.3h-.2l.7-2 .6-1c.2-.3.5-.4.7-.5h1c.2 0 .4.3.6.6 0 .3.2.7 0 1l2-.4c.4 0 .7-.2 1-.3l.4-.6zm-4 2.8v-.2c.3-.5.3-1 .2-1.3 0-.3-.4-.5-.7-.6-.3-.2-.6-.2-1 0l-.5.6v.7l2 .8zm11.6-18l1 1.3v.2l-1-.6c-.5 0-1 0-1.4.3-.5.3-.8.8-.8 1.5 0 .5 0 1 .5 1.6.3.5.6 1 1 1 .4.4.8.5 1.2.5.3 0 .6 0 1-.3l.3-.4c.2 0 .3-.3.4-.5l-1-1.3-.2-.4h-.3-.4l1.7-1c-.2.2-.3.3-.3.5s0 .4.3.6l1 1.4-.7.8-.8.6c-1 .6-1.7.8-2.5.5-.7-.3-1-.7-1.5-1.2-.3-.4-.4-1-.5-1.4 0-.6 0-1 .3-1.6.2-.4.6-.8 1-1 .2-.2.3-.3.5-.3l.7-.2h.3V79 79zm9 .5L97 80v1.5h.6l-1.6.5c0-.2.3-.3.3-.4l.2-.8.7-5h.2l3 4 .6.6h.5v.2l-2 .5.3-.3v-.2s0-.3-.2-.5l-.5-.7zM99 79l-1.4-1.8-.3 2.3L99 79zm9.7 0l-.4 1.5H104V80h.3c.2 0 .4 0 .5-.2v-.6l.3-3.5v-.7c0-.2-.3-.2-.5-.2h-.2 2.5v.2h-.6c-.2 0-.2 0-.3.2l-.2.6V80H107.8c.2 0 .3 0 .5-.2l.4-.8zm7.3 2l-.8 1.3-4-1.3v-.2h.2c.2.2.4.2.5 0l.2-.5 1-3.3c.2-.4.3-.6.2-.7l-.4-.3h-.2v-.2l2.4.8H114.3l-.3.7-1 3.2c0 .3-.2.4 0 .5v.2l.5.2h.4c.3.3.6.3.8.3h.5l.7-.7zm5.8 3l-1.7-1-.7.3-.4.4s-.2 0 0 .2l.2.3-1.5-1h.6l.8-.2 4.3-2.5-1 5v.7c0 .2 0 .3.2.4v.2l-1.8-1.3h.7l.2-.6.2-1zm0-.2l.6-2.4-2 1.3 1.5 1zm6.6 1.2l.8 1-1.3 5.3 2.5-2c.2 0 .4-.3.4-.4 0-.2 0-.4-.2-.6h-.2l.2-.2 1 1.5-.6-.3s-.3 0-.5.3l-3.7 2.7 1.3-5.6-2.7 2-.5.4c0 .2.2.4.3.5v.2l-1-1.6c.2.3.4.4.5.4.2 0 .3 0 .6-.3l3-2.3v-.5-.3l-.2-.4h.2zm6.8 12.6l-1.2.5c.2 0 .3-.2.4-.3l.2-.4v-.6l-.3-.7-4 1.4c-.3 0-.4.2-.5.3v.7l-.8-2.2.2.2c0 .2.2.3.3.4l.6-.2 4-1.3-.2-.7-.2-.5h-1v-.2l1-.4 1.6 4.2zm-4.3 9.7l-.2-1.5 2.5-2v-.3-.2h-1.6c-.4 0-.6 0-.7.2v.7h-.2l-.2-2.3h.2c0 .3 0 .5.2.6h.6l3.5-.2h.8v-.8h.3l.2 2v1.3c-.2 0-.3.4-.5.6-.2.2-.5.3-.8.3-.4 0-.7-.2-1-.4-.3-.2-.4-.5-.6-1l-1.5 1.2-.8.7v.8h-.3zm2.5-4v.2c0 .5.2 1 .4 1.2.2.2.4.3.8.3.3 0 .6 0 .8-.4.2-.2.3-.5.3-.8l-.2-.6h-2.3zm1.5 11.2l-.5 1.8v-.4c0-.3-.2-.4-.3-.6l-.4-.5-1.7-2-1.2-.2h-.6c-.2 0-.3 0-.3.3l-.2.3.5-2.3v.8c.2 0 .4 0 .7.2l1.2.3 2.6-.8.6-.2.3-.4v-.3h.3l-.6 2.3h-.2v-.5-.2h-.7l-2 .7 1.4 1.5c0 .2.2.4.3.4h.3v-.2c.2 0 .2-.2.3-.4z" font-size="4" font-family="Times New Roman"/></svg>