<svg width="1800" xmlns="http://www.w3.org/2000/svg" height="900"><path fill="#cc092f" d="M0 0h1800v900H0z"/><path fill="#ffd200" d="M0 0h1200v900H0z"/><path fill="#0046ae" d="M0 0h600v900H0z"/><path fill="#b07f55" d="M816.5 532l8.4-.7.6 7.2 7.7-3.3 2 9.8 17-17 23.6 11.5-45 79.7-15.8 11.8 28.7 10.8 29.4-34.4L869 630l-8.6 22 36 20.5 38.8-23-19-40.2 6-2.8 25.4 36.5 27.5-13.6-35.7-41.8-23.5-50.3 24.8-8.2 17 16.3 2.4-10.5 9 4.3-1.2-8.7 9 2-11-17.4 27.8-23.4 17.6 55 26 29.5 5.4-.6 18.8 23.2-.2-322-34.7-36.5-33.8 27.6 1.4 29.6-15 .6-22.6 11.6-12.6 4-6 1.3-7.7-8.4-10.3-20.8-.7-20.5 6.4-13.3-1-12.7h5.6l-3.7-8.4 5-2-7.5-6.7 2.7-3.2-28.7-12.3L876 205l-6 2.6-2.8 5.4 5.8 16.3-6.2 6.2 6.2 12 .2 26-5 22.3-9.7 16.7-5.2 2-12.3-3-25.7-13.4-16.3-.8-1-31.6-31.4-25-31.8 34.3-4.5 10 1.4 312.5 20.6-25 4.4 1.2 21.2-23 18-45.6 5.3-18.8 24.4 28.8"/><path d="M847.7 183.2c-3.2 0-6 1-7.7 2 2.6 1 4.5 3.3 4.5 6.2v7.5H837c-2.8 0-5.2-2-6-4.6-1.3 1.6-2 4.5-2 7.7 0 3.3.7 6 2 7.8.8-2.7 3.2-4.5 6-4.5h7.6V241c0 2.7-1.8 5-4.3 6 3.6.4 6.6 5.2 7.4 7.8 1-2.6 4-7.4 7.5-8-2.5-.7-4.3-3-4.3-6v-35.6h7.3c3 0 5.4 2 6 4.5 1.4-1.6 2.2-4.5 2.2-7.7s-.8-6-2-7.7c-.8 2.7-3.2 4.6-6.2 4.6h-7.5v-7.6c0-3 2-5.3 4.6-6-1.7-1.3-4.5-2.2-7.7-2.2z"/><path d="M847.7 184.8c-1.7 0-3.2.3-4.4.7 1.7 1.4 2.8 3.5 2.8 6V200h-1.2c0 .2-.2.2-.3.2H837c-2.3 0-4.3-1-5.8-2.7-.4 1.2-.8 2.7-.8 4.4 0 1.8.4 3.2.8 4.5 1.4-1.7 3.5-2.8 6-2.8h8.9V241c0 2.3-1 4-2.7 5.5 1 .7 2 1.6 3 2.6l1.4 2.7c.5-1 .8-1.7 1.6-2.6.8-1 1.7-1.7 2.8-2.4-1.4-1.5-2.6-3.3-2.6-5.7V203.8h8.8c2.4 0 4.5 1 6 2.6.3-1.2.7-2.7.7-4.4 0-1.6-.3-3-.7-4.4-1.5 1.7-3.6 2.8-6 2.8h-7.5-1.4V199 191.3c0-2.3 1-4.4 2.7-6-1.2-.3-2.6-.6-4.3-.6z" fill="#f5d402"/><path fill="#d10429" d="M798.6 565.5l-10.4-.3-10.8 5L774 582l1.5 5.4 11.7 12.7 9.5-5.3 7.7-8.2 2-7.3 27.2-35.6-1.3-9-6 4-2.3-7.4-3.8 1.3M990 589l12.8 11.4 3.8-1 14-16-3.2-11.2-13-8-10 1-21.8-32.7-3.8-1.6-1.5 6.3-6.4-2-2.6 7 28.8 39"/><path d="M801.4 592l16.2 8.8-4 18-16.2-8.8z"/><path d="M726 418.7l-6 2.7 66 144.4h7l-67-147zM803.6 589l-4.8 5 3 6.5 5.7-2.6-4-9z"/><path fill="#f5d402" d="M803.7 597l10 5.5-2.4 11.2-10-5.5z"/><path fill="#0b45bb" d="M895.5 551.2l40-22 47-22 9-13.8V417l-190.6-.4.2 77.8 5.7 9.2 36 20 46.5 21.3"/><path d="M798.6 323l2.5 7-.5 89.3 3.3 3.7 27.5 3.3L861 422l29.2 4.4.4 1.8 5.7-1 5.6 1 .3-1.8 29-4.5 30 4.3 27.4-3.3 3.3-3.7-.6-89.3 2.5-7-33 .2-64.7.7-64.7-.8-33-.2z" fill="#d10429"/><path d="M861 422s-20.3-5-28-15c-13.3 11.8-29.2 16-29.2 16s16.6 7.5 29.2 17c6-8.3 28-18 28-18zM931.4 422s22.2 9.7 28 18c12.7-9.5 29.3-17 29.3-17s-16-4.2-29.3-16c-7.6 10-28 15-28 15zM896.2 330.4l-5.7 16.3-15.6-7.4 7.3 15.6-16.3 5.7 16.3 5.8L875 382l15.5-7.4 5.7 16.3 5.8-16.4 15.6 7.4-7.4-15.5 16.3-5.8-16.3-5.8 7.4-15.7-15.6 7.4-5.8-16.3z"/><path fill="#f5d402" d="M863.6 451.7l5.7-6 6.2 6.2-5.8 5.8M929.4 451.7l-6-6.7-6.3 6.5 5.7 6M916.6 464.3l-3 6.5v18l4.6 10 6.3 2.7-1-23.5 4.4-16.4M868.8 481.8V501l5.6-4 3.8-8.7.7-15.3-3-9.2-11.2-2M946.5 505.6l-.2-11.7 10-13.6 11.5-2.7-13-6.3-12.6 2.8-6.5 7.6-.7 12.3 9.3 11M839 506.3l3.3-6.3 5.4 3.6 6.5-1.4 4.3-6.5-3-6-3-2.5 4.4-2.5 1.7-7.4-6-7-6 1-2.8 2.2-1.5-5.4-7-4-5.8 2.3-3 6 1.7 5.4-6-.6-5 4.8-.7 6.3 3.4 4 4.8 1.7 2.7-.2-2.3 5.6 1.8 5.7 5.7 3"/><path d="M896.3 341.4l3.7 10.4 10-4.8-4.8 10 10.3 3.7-10.3 3.7 4.7 10-10-4.8-3.8 10.3-3.7-10.4-10 4.7 4.8-10-10.3-3.6 10.3-3.7-4.7-10 10 4.8 3.7-10.4z" fill="#ffd200"/><path d="M863.5 328c-1 6.5-34 20.2-34 47.8 0 35.3 33 43.6 33 43.6L861 422l-8 14.6s13.7.6 21 6.8c8.6 7.5 7.8 23.2 7.8 34.7 0 9.2-1.2 18.7-5.8 22.6-6.2 5.3-10.4 5.7-10.4 12 0 5 4 6 10.4 9.5 8.3 4.5 8 10.4 20.2 10.4 12.3 0 12-6 20.3-10.3 6.5-3.3 10.4-4.3 10.4-9.5 0-6.2-4.3-6.6-10.5-12-4.6-3.8-5.8-13.3-5.8-22.4 0-11.4-.8-27 8-34.6 7-6.2 20.8-7 20.8-7l-8-14.5-1.4-2.6s33-8.3 33-43.6c0-27.6-33-41.3-34-47.8-3.2 11.4 11 27 11 45.7 0 24-17.7 25.2-17.7 25.2-4 0-5.8 3-7.4 3-3.6-.5-5.3-5-8.7-5-3.3 0-5.8 5-10 5-4.4 0-6.8-5-10-5-3.5 0-5.2 4.5-8.7 5-1.6 0-3.3-3-7.4-3 0 0-17.8-1.2-17.8-25.3 0-18.6 14.3-34.4 11-45.7z"/><path d="M832.7 412c6.8 7.6 17.4 10.5 17.4 10.5l-17 12.7-.2.3-.3-.3-19-12s12-4 19.2-11.3z" fill="#ffd200"/><path d="M858.6 338c1.4 3-11 21-11 35.7 0 18 9.7 28.8 22.6 28.8 2.4 0 5 3.3 7.4 3.3 3.8 0 6.3-4.2 8.6-4.2 3 0 5 4.6 10 4.6s7-4.6 10-4.6c2.4 0 5 4.2 8.7 4.2 2.2 0 5-3.3 7.3-3.3 13 0 22.6-10.7 22.6-28.8 0-14.8-12.5-32.8-11-35.8 0 0 24 17.3 24 37.8 0 33-33.4 41-33.4 41l7.6 17s-10.4 1.6-16.7 6.7c-8.5 6.8-8.6 25.2-8.6 37.6 0 14.8.5 21 5.8 25 5.5 4 9.7 5 9.7 9.3 0 3.7-4.3 5.3-10 7.7-6.4 3-7 7.8-16.3 7.8s-9.8-5-16.3-7.8c-5.7-2.4-10-4-10-7.7 0-4.3 4.2-5.2 9.7-9.4 5.3-4 6-10.2 6-25 0-12.3-.2-30.7-8.7-37.5-6.3-5-16.7-6.7-16.7-6.7l7.6-17s-33.6-8-33.6-41c0-20.5 24.2-38 24.2-38z" fill="#ffd200"/><path d="M959.8 412c7 7 19 11.3 19 11.3s-12.5 6.3-18.8 12c.2 1-.3 0-.4.2-.2.4 0-.2-.2-.3-6-6.8-17-12.7-17-12.7s10.6-3 17.4-10.6z" fill="#ffd200"/><path d="M869.4 443.6l-8 8 8 8 8-8-8-8zM923 443.6l-7.8 8 8 8 7.8-8-8-8z"/><path d="M869.4 447.4l4 4-4 4.3-4.2-4.2 4.2-4zM923 447.4l4.3 4-4.2 4.3-4-4.2 4-4z" fill="#ffd200"/><path d="M862 459.5c1.7 4 5.4 16 5.4 30.4 0 10-1 15.2-1 15.2s11.2-3.2 13.4-14.6c1-5.3 2.3-25-3-28.3l-14.7-2.8zM930.4 459.5l-14.6 2.8c-5.4 3.4-4.2 23-3 28.3 2 11.4 13.3 14.6 13.3 14.6s-1-5.2-1-15.3c0-14.5 3.8-26.6 5.4-30.5zM835 462.7c-.7 0-1.4 0-2 .2-5 1.2-8 6.3-6.8 11.3.2.8.5 1.5 1 2.2l-2.4-.5h-1c-4.8.2-8.7 4-9 8.8-.4 5 3.5 9.6 8.7 10h2.2c-.4.5-.8 1-1 2-2 4.7.3 10.2 5 12 5 2 10.4-.3 12.4-5 .4-1 .5-1.6.6-2.3l1.6 1.7c4 3.3 10 2.8 13.3-1.2 3.3-4 2.8-10-1.2-13.2-.6-.5-1.3-1-2-1.3.8-.2 1.5-.5 2.2-1 4.3-2.7 5.7-8.5 3-13-2-3-5.3-4.5-8.6-4.3-1.6 0-3.2.6-4.5 1.4l-1.8 1.5c0-.7 0-1.5-.3-2.2-1-4.4-5-7.3-9.5-7z"/><path d="M867.2 464l7.8 1.5c3 4 2.4 10.5 2.4 19.5s-6.8 12.5-6.8 12.5c0-21.8-2.2-27-3.4-33.6zM925.3 464c-1.2 6.5-3.4 11.7-3.4 33.5 0 0-7-3.5-7-12.5s-.4-15.5 2.5-19.5l7.8-1.6zM835.5 466.6c3.4 0 6.5 2 7.3 5.5.2 1 .3 1.7.2 2.5 0 .7-.2 1.3-.5 2-1-.5-2.3-.7-3.6-.7-3.3 0-6 1.4-8 3.5-.6-.4-1-1-1.4-1.5-.4-.6-.8-1.3-1-2-1-4 1.5-8 5.4-9l1.5-.2z" fill="#ffd200"/><path d="M952.4 469.6c-12 0-20.8 9.3-19.6 20.6 1 9.6 8.8 17.7 18.5 20-1.7-2.7-2.8-5.7-3-9-1.3-11.3 7.5-20.5 19.5-20.5 2 0 3.7.3 5.5.7-4.2-7-12.2-11.8-21-11.8z"/><path d="M850 472.2c2.4 0 4.7 1.3 6 3.5 2.2 3.4 1.2 8-2.3 10-.7.5-1.4.8-2.2 1h-2v-.2c0-4.4-2.6-8-6.3-9.8.3-.7.6-1.3 1-1.8.5-.7 1-1.2 1.8-1.6 1.2-.8 2.7-1.2 4-1.2zM952.4 474c3.8 0 7.4 1 10.5 3-11.8 2.2-20.2 12.6-19 24.7-3.8-3-6.5-7.3-7-12-1-9 5.6-15.8 15.4-15.8zM826.5 478.3c1 0 1.6.3 2.4.6.4 0 1 .5 1.5 1-1.4 1.7-2.3 4-2.3 6.5 0 2 .6 3.7 1.5 5.3l-2 1h-2.2c-4-.2-7-3.7-6.8-7.7.2-4 3.8-7 7.8-6.7zM839 479.4c3.8 0 7 3.2 7 7 0 4-3.2 7-7 7-4 0-7.2-3-7.2-7 0-3.8 3.2-7 7-7zM849.5 487.5c.7 0 1.4.2 2 .5l2 1c3 2.7 3.5 7.3 1 10.4-2.7 3-7.3 3.5-10.4 1l-1.4-2c-.4-.5-.6-1-.7-1.7 4-1.2 7-4.8 7.5-9.2zM830 492.4c2 2.8 5.2 4.7 9 4.7h2c.3.5.4 1.2.3 2 0 .7 0 1.4-.4 2.2-1.6 3.7-6 5.5-9.6 4-3.8-1.5-5.6-5.8-4-9.5.2-.8.6-1.4 1-2 .5-.5 1-1 1.6-1.3z" fill="#ffd200"/><path d="M883.6 509.8c-6.6 0-10.8 1.4-10.8 3.4s4.2 3.3 10.8 3.3c1.7 0 3.7-1 3.7-3.3s-2-3.4-3.7-3.4zM909 509.8c-1.8 0-3.8 1-3.8 3.4 0 2.3 2 3.3 3.7 3.3 6.5 0 10.7-1.3 10.7-3.3 0-2-4.2-3.4-10.8-3.4zM1100 393.6l-11.3 8.3 1.3 2.7s-2 .7-3 2.5c-1 2 .6 4.5.6 4.5s-10.8-1-12.5 0c-1.4 1 .8 8.6-.2 15-1.4 8.7-5 8-5 9.7-.2 1.7 1.3 4.2 1.3 4.2s-2 .7-2.4 1.5c-.7 1.5.5 4-.3 5.7l-16.3 31.8c-.6 1.3-2.3 1.7-3.2 3.4-.8 1.5-.2 3.8-.2 3.8s-3 .2-4 2.2c-1.2 2.2-.5 5.2-.5 5.2s-1.8.2-2.8 2c-1 2 .7 3 .3 4l-18 35c-1.5 3.3-7.2 4-10.5 10.4-3.2 6.3 1.3 11 1.3 11s-4.7.4-6 3c-1.3 2.4-.3 6.3 3.2 8 3.4 1.8 7.2.3 8.5-2.2 1.2-2.5-1.3-6.6-1.3-6.6s6.5 1 9.7-5.4c3.3-6.5.5-11.4 2-14.6 4.6-8.7 11.8-23 18-35 .4-1 2.3-.2 3.3-2.2 1-1.8 0-3.5 0-3.5s2.8-1 4-3.3c1-2-.7-4.7-.7-4.7s2.3-.8 3-2.4c1-1.7.3-3.3 1-4.6l16.2-31.8c.8-1.7 3.5-2.2 4.2-3.6.4-.8-.2-3-.2-3s3-.2 4.2-1.2c1.3-1.2-1.3-3.6 5-10 4.5-4.4 11.8-7 11.7-9 0-2-7-10-7-10s3-.3 3.8-2.2c1-1.8.3-4 .3-4l3-.5v-14zM993.4 596.5c-1.5.2-2.4 1-2.7 1.6-.4 1-.5 2 0 3 0 0-3.6-1-4.8-.4-1.2.6 0 17.5 0 17.5s14.3-9 14-10.2c-.2-1.4-3.2-3.6-3.2-3.6 1.2-.2 2-1 2.5-1.8.6-1 .7-3.6-2.6-5.3-1.2-.5-2.3-.7-3-.6z"/><path d="M882.7 203.4c-3.6 0-8.8 0-12 2-2.7 2-2.5 4.4-3.5 5.3-2.3 2-6.3 2-8.2 2-12.5 0-13 13.2-13 13.2s3.2-5 9-5c9.2 0 16.3 5.2 16.3 7 0 1-1 1-1 1-6 0-15.4-3.5-20.3-3.6v2h0v.4c11 3.8 22 9.2 22 33 0 14.8-1.7 30-9.2 42-2.7 4.3-6.4 8-11 11.2-2-.6-11.5-3.6-18-7.3-12-6.5-18-13-32-13.6v-10.5c0-5.7 2.2-10.8 2.2-16.2-6-1.6-22.2-21.5-37.2-30.4-22.2 14.3-39.3 37.8-39.3 48.6 0 0 .7 232.5 0 313.5 0 4.8-2.8 11.4-2.8 11.4 8-3.4 23-23.7 26-31.4v3.7c12.2-5.6 21-20.2 25-27.8l.4 3.8c11-9.6 25-66 25-66l-1-12s-9.5 46.2-20.4 55.7V337l8.7 8 13-12.3v-9.3l-11.6 10.8v-28c1.8-2.7 3-4.7 3.8-6.3 2 3.2 8 13.2 15 19.4 1.3-4.8 9-9.3 9-9.3s2.8 7.6 7 9.5c1.5-2.7 10.4-8.5 10.4-8.5s-7.7 1.2-10.8 4c-2.6-.5-3.3-11-3.3-11s-11.3 5.5-13.2 9.4c-2.2-.6-5.5-9-6.8-12.5 2-.3 4.7-.5 8.3-.5 3.2 0 7.3 1.5 11.6 3.5 4.6 2.2 9.5 5 14 7 5.6 2.6 14 3 16.6 3.2-3 2-6 3.8-9.4 5.5 0 0 13.4 0 22.8-4.8 3.4-2.3 7-4.4 10-7-1.4 3.6-3.4 8-6.6 11.5 14-1.2 20.7-9 22.7-11.7 1 2.4 2.7 6.2 5.2 9.5 2.6-3.3 4.3-7 5.2-9.5 2 2.6 8.8 10.5 22.7 11.7-3-3.6-5-8-6.4-11.5 3 2.6 6.5 4.7 9.8 7 9.5 4.6 23 4.7 23 4.7-3.5-1.7-6.7-3.5-9.5-5.5 2.3 0 11-.6 16.6-3.2 4.3-2 9.3-4.8 14-7 4.3-2 8.4-3.5 11.5-3.5 3.8 0 6.5.2 8.5.4-1.3 3.4-4.6 11.8-6.8 12.4-2-4-13-9.4-13-9.4s-.8 10.5-3.4 11c-3-2.8-10.7-4-10.7-4s9 5.8 10.3 8.5c4.2-2 7-9.4 7-9.4s7.7 4.6 9 9.4c7-6.2 13-16.2 15-19.5 1 1.5 2 3.6 3.8 6v28.2L991 323.4v9.3l13.2 12.2 8.7-8v198.5c-11-9.5-20.6-55.6-20.6-55.6l-.8 11.7s14 56.5 24.8 66l.3-3.8c4 7.5 13 22 25 27.7V578c3.2 7.7 18 28 26 31.4 0 0-2.7-6.6-2.7-11.3-.7-81 0-313.4 0-313.4 0-10.8-17-34.3-39.3-48.7-15 8.8-31.3 28.7-37.2 30.3 0 5.4 2 10.5 2 16.2V293c-13.8.6-20 7.2-31.7 13.7-6.7 3.8-16.3 6.7-18.2 7.3-4.5-3.2-8.2-7-11-11-6.3-10.3-9-23-9-35.7 0-5.3 6-11.4 6-15.8 0-6.6-.5-10.5-.5-10.5 2.2.3 6 4 6 4s-.2-11-3.6-12.8c0 0 1.4-1.4 6.4-1.6-1.4-3.6-8.4-8-8.4-8 .3-.6 1-1 1.8-1.6 1.8-1 4.3-1.6 6.2-2-2-.4-4.4-1-7-2-5.8-1.8-12.7-4.6-19-7.7-11.8-5.6-20.8-6-25.7-6zm.3 3.2h3c11.4 0 19.5 5.3 30.3 10 2.8 1.3 5.4 2.4 7.8 3-1.4 1.4-2.5 2.7-2.8 3.8 0 0 4.8 1 7 5 0 0-4.6.5-5.4 3.2 2.6.2 5.2 3.5 5.2 6.6l-6.5-2s1.5 7.3 1.5 15.3c0 4-5.8 9-5.8 16 0 21.6 5.4 30 9.3 36.7 1.6 2.6 2.8 5.6 5.4 8-11.4-6-19.7-13.5-19.7-20.5v-26.2h-3v26.2c0 5 1.3 7.4 1.3 7.4 1.8 5.7 5.3 14.2 7.5 17.7-10.2-5.6-15.4-12.6-15.4-15.2v-36h-3V302l.6 2.6c-1.2 1.8-3 4-4 4.8-1-.7-2.7-3-4-4.8l.6-2.5v-36.5h-3v36c0 2.6-5 9.6-15.4 15.2 2.2-3.5 5.7-12 7.5-17.6 0 0 1-2.3 1-7.3v-26.2h-2.8v26.2c0 7-8.3 14.4-19.5 20.4 2.5-2.2 3.7-5.2 5.3-7.8 4.2-7.4 9.5-16.7 9.5-43.3 0-10-1.5-17-4-21.6-.8-1.6-2-5.7 4-5.7 3.2 0 10.3 5.4 10.3 5.4s-.3-4.2-4-6.7c-.5-.4-1.5-1.7-1.5-3 0-.8 1.6-3 2.8-3.6 1-.4-12-2.7-12-8.6 0-1 .7-2 3.4-2 3.5 0 9.3 4.3 14.4 4.3 3.8 0 5.3-1 9.2-1 4.7 0 14.6 9 18 8.8-3.8-2.3-10-11.3-19.2-11.3-3.2 0-6 .7-9 .7-4 0-7.7-3.5-12-3.5-2.6 0-5.7 0-6.2-.7-.8-1.2 0-2 .7-3 1.4-2 5.3-2.5 9.2-2.7h3.5zM766.8 246s20.5 19 27.4 21.3l.3 6.3v18.7c-5-1.7-11.3-10-14.4-14.3v-2.6c0-2.4 1.5-4 2.6-5l-3-1.2c-1.2 1.4-2.5 3.3-2.5 5.8v1.5l-.8 1-.5.6-7.6 8.2-8.7-13.4v-3.3c0-2.2 1.7-4.7 3-6.3l-3-1c-1.4 1.8-3 4.4-3 7v2.6l-10 10.4-5.3-11c6.2-8.7 16.3-18.3 25.8-25.2zm259 0c9.4 7 19.5 16.6 25.7 25-1 2.5-5.2 11.2-5.2 11.2l-10.2-10.4V269c0-2.4-1.4-5-3-7l-3 1.2c1.5 1.6 3.2 4 3.2 6.3v3.3l-8.8 13.4-7.6-8-.5-.7-1-1V275c0-2.5-1.2-4.4-2.4-5.8l-3 1c1 1 2.4 2.8 2.4 5.2v2.6c-3 4.4-9.4 12.6-14.4 14.3v-18.7l.2-6.3c7-2.4 27.5-21.2 27.5-21.2zm-288.4 31l4.7 8.4v15.4l-7 6.7v-23c0-2 1-4.7 2.4-7.6zm317.7 0c1.6 2.8 2.5 5.4 2.5 7.6v23l-7-6.8v-15.4l4.6-8.5zm-298.8 1.8l8.2 12.6v9.5l-8.2 7.6v-29.8zm280 0v29.8l-8.2-7.7v-9.6l8.3-12.6zm-283 2.3v27.6L745 301v-11.3l8.3-8.6zm286 0l8.2 8.7V301l-8.2 7.6V281zm-260.6 2c1.2 2 7 11.3 12.3 14-2 2.7-7 9.3-12.4 12.2v-26zm235.3 0v26.2c-5.5-3-10.5-9.5-12.4-12.2 5.4-2.7 11-12 12.3-14zm-238.3 1.4v24.2l-8.3-7.7v-8.7l8.3-8zm241 0l8.4 8v8.5l-8.2 7.6v-24.2zM742.2 310v24.3l-7-6.7V317l7-7zm308.4 0l7 7v10.6l-7 6.7V310zm-305.4.2l4.7 4.4 3.6 3.3v8.5l-3.6 3.3-4.7 4.4v-24zm19.4 0v24l-4.7-4.4-3.5-3.3V318l3.5-3.4 4.7-4.4zm3 0l8.3 7.7v8.5L772 330l-4.6 4.2v-24zm19.4 0v24L782 330l-3.4-3.5v-8c2.8-1.7 5.7-5 8.2-8.3zm219 0c2.4 3.4 5.3 6.6 8 8.3v8l-3.4 3.4-4.7 4.3v-24zm19.3 0v24l-4.6-4.3-3.6-3.5V318l8.3-7.8zm3 0l4.7 4.4 3.6 3.3v8.5l-3.6 3.3-4.7 4.4v-24zm19.4 0v24l-4.7-4.4-3.5-3.3V318l3.5-3.4 4.7-4.4zm-290.2 26.6l8.7 8 8.6-8v198.6l1 16.3-18.4 18.7V336.8zm278 0v233.6l-18.4-18.7 1-16.3V336.8l8.7 8 8.8-8zm-283 0v226c0 6.5-11.6 21.4-17.2 24.8V337l8.6 8 8.7-8.2zm288 0l8.7 8 8.5-8v250.8c-5.6-3.4-17.3-18.3-17.3-24.7V336.7zM824 514.5s-8.4 17-11.6 20c0 0 2 .3 4.6.2-1.5 2.2-13 19-16.8 25.3-3.4 6-5.8 3.2-11 3.2-4.4 0-14.2 7-16 9.8-1.6 3-2.8 6.5-2.8 9.4 0 3.3 3.4 7.7 3.4 7.7.4-1.4 1-2 1-2s9 11.3 10.4 12.7c1 1.2 5.6 2 7.2.4 4-3.6 8-6.2 11.7-11.5 2-2.7 2-6 4.2-8.8 7.2-10 21.4-28.8 24.7-33.2 0 1.2.3 2.2.5 3.5 3.7-7.5 21.4-21.7 21.4-21.7l-5-3.3s-10.7 12.5-14 14.8c0 0-1.6-6.2-2.5-8.4 0 0-4 3-6.3 3.2l-1.2-7c-3 2-7.6 1.5-7.6 1.5 4.2-1.8 9-13.8 9-13.8l-3.4-1.7zm144.5 0l-3.5 1.7s5 12 9 14c0 0-4.7.3-7.5-1.6l-1.2 7c-2.2 0-6.3-3.2-6.3-3.2-1 2.2-2.4 8.4-2.4 8.4-3.5-2.3-14.2-14.8-14.2-14.8l-5 3.3s18 14.2 21.6 21.7l.6-3.5c3.2 4.4 17.5 23.3 24.7 33.2 2 3 2.2 6 4 8.8 3.7 5.3 7.7 8 11.7 11.6 1.7 1.6 6.3 1 7.3-.3 1.3-1.4 10.3-12.7 10.3-12.7s.7.6 1 2c0 0 3.5-4.3 3.5-7.6 0-3-1.2-6.5-3-9.4-1.5-2.8-11.3-9.8-15.7-9.8-5.2 0-7.6 2.7-11-3.2-3.7-6.3-15.3-23-16.8-25.3 2.4 0 4.6-.2 4.6-.2-3-3-11.5-20-11.5-20zm-145.7 19s0 6 1.7 8l6.4-4.5 1 5c-3 3.7-18.5 25-26.2 35.4-2 2.6-3.5 9.2-3.5 9.2s-2.8-1.3-2.8-3.7c0-2.5.3-5.3.3-5.3s-2 2.4-5.8 2.4c0-2.8 5.6-6 6-10-4.4 3-8 1.4-13 3-5.5 1.6-7 4-8.6 3.8-1 0-2-1.7-1.5-2.7.5-1.7 7.2-6.7 12-7.6 1-.2 9.8 2 11.5-.8l20.3-31.3c.7-.2 1.4-.3 2-.7zm147 0c.4.5 1 .6 2 .8 1 1.8 12.8 20 20 31.3 2 2.7 10.7.6 11.8.8 4.7 1 11.3 6 12 7.6.4 1-.5 2.8-1.5 2.8-1.6 0-3-2.2-8.5-3.8-5-1.6-8.6 0-13-3 .3 4 6 7.2 6 10-3.7 0-5.8-2.3-5.8-2.3s.3 2.8.3 5.2c0 2.3-2.8 3.6-2.8 3.6s-1.6-6.6-3.5-9.2c-7.8-10.4-23.4-31.7-26-35.4l1-5 6.2 4.4c1.7-2 1.7-7.8 1.7-7.8zm-96.3 4.3s-34.7 79.7-65.5 92c0 0 13.4 5.7 30 14.2l7.3 4 6.4-8.2c9.8-13 19.4-28.4 19.4-28.4.8 4-4.4 16.2-13.2 31.3l-5.5 9.2 6.6 3.8c16.2 9.8 31.5 21 37.2 31.4 5.7-10.3 21-21.6 37.3-31.4l6.6-4c-2-3-3.7-6-5.4-9-8.8-15.2-14-27.4-13.3-31.4 0 0 9.6 15.3 19.4 28.4 2.2 3 4.4 5.7 6.4 8.2l7.5-4c16.5-8.5 30-14.2 30-14.2-31-12.3-65.6-92-65.6-92l-5.2 1.5s27.6 69 54.7 89.7c-6.2 2-13.4 4.5-20.8 7.7-9-10.6-18.4-24.8-26-37.5-8-13.7-14.8-37.7-14.8-37.7-4 9.2 4 55.5 20.5 84.8-13.5 7-25.5 14.7-31.3 21-5.7-6.3-17.8-14-31.3-21 16.3-29.3 24.4-75.6 20.6-84.8 0 0-6.8 24-15 37.7-7.5 12.7-17 27-26 37.5-7.3-3.2-14.5-5.8-20.7-7.7 27-20.8 54.6-89.7 54.6-89.7l-5-1.5zM783 576c.3 0 .5.2.7.5.4.4.3 1 0 1.3l-3 2.5c-.3.3-1 .2-1.2-.2-.4-.3-.4-1 0-1.2l3-2.5c0-.2.3-.2.6-.2zm226.7 0c.2 0 .5 0 .7.3l2.8 2.5c.4.3.4 1 0 1.3-.3.5-1 .6-1.3.3l-3-2.5c-.3-.3-.3-1 0-1.3.2-.3.4-.4.7-.4zM786 578.7c.8 0 1.5.3 2 1 1 1 1 2.3 0 3l-7 6c-1 1-2.4.8-3.2-.2-1-1-.8-2.5 0-3.2l7-6c.4-.4.8-.6 1.3-.6zm220 0h.7c.4 0 1 .2 1.2.5l7 6.2c.8.7.8 2.2 0 3.2-1 1-2.4 1-3.3.3l-7-6c-.8-.8-1-2.2 0-3.2.4-.5 1-.8 1.4-1zm-216 4.7c.7 0 1.5.3 2 1 1 1 1 2.3 0 3l-7 6c-1 1-2.4.8-3.2-.2-1-1-.8-2.3 0-3l7-6.2c.4-.3.8-.5 1.2-.5zm212.2 0h.5c.4 0 1 .2 1.2.5l7 6c.8 1 .8 2.3 0 3.3-1 1-2.3 1.2-3.2.4l-7-6c-1-.8-1-2.2 0-3.2.3-.5.8-.8 1.4-1zM794.5 588c.7 0 1.4 0 2 .7.8 1 .8 2.5 0 3.3l-7 6c-1 .8-2.4.6-3.3-.4s-.8-2.3 0-3l7-6.2c.4-.3.8-.4 1.3-.5zm203.2 0h.6c.4 0 .8 0 1 .4l7.2 6c1 1 1 2.3 0 3.2s-2.3 1.2-3.2.4l-7-6c-.8-.8-1-2.3 0-3.3.4-.4 1-.7 1.4-.8z"/><path d="M1098 397.8l-6.7 4.7 3.4 1.8 3.4 1.6v-8.2zm-6.5 7.8c-1.2 0-2.2.8-2.8 1.8-.8 1.7 0 4 2 5 1.8 1 4 .3 5-1.4.8-1.7 0-4-2-5-.7-.3-1.4-.4-2.2-.4zm-12.5 8h-2c-.6.5.4 6.6.2 11.7-.2 5-1.8 6.3-2.6 8-.8 1.5-3.7 3.4-3.7 3.4l2.3 2.3s1.5-2.4 4-7c2.8-5.7 2.7-15.8 3.5-16.3.7-.5 6.7-2 6.7-2s-5.5-.3-8.5-.2zm10.3 1.2s-6.2 1.2-7 2c-1 1-.5 9.4-4 16-2.6 5.3-4 7.2-4 7.2l1.7 1 1.7.7s.8-2.2 3.6-7.6c3.3-6.4 10.3-11 10.5-12.2.2-1.3-2.5-7-2.5-7zm2 1s2.3 5.6 2.3 6.4c0 1-8 7-11 12.5-2.4 4.7-3.4 7.3-3.4 7.3l3.3.5s-.2-3.3.6-5c1-1.5 1-3.6 5-6.6 4-3.3 9.5-6 9.5-7 0-.8-6.2-8.3-6.2-8.3zm-18.5 26.7c-1 0-1.8.8-2.2 1.6-.6 1.3-.3 3-5.2 12.6l-5.4 10.6-5.8 11.4s-1.2 2 1 3.3c2.2 1 3.2-1.3 3.2-1.3l5.8-11.4 5.4-10.6c5-9.7 6.4-10.3 7-11.5.7-1.4.6-3-1.6-4.2-1-.5-1.6-.6-2.2-.5zm-21.2 40.4c-1 0-1.5.3-1.8 1-.6 1 .4 3 2.3 4 2 .8 4 .6 4.7-.6.6-1.2-.4-3-2.4-4-1-.4-2-.6-2.7-.5zm-3 5.8c-1.3 0-2.5.4-3 1.4-.8 1.5.5 3.7 2.8 5 2.3 1 4.8.8 5.6-.7.8-1.6-.4-3.8-2.7-5-1-.5-1.8-.7-2.6-.7zm-3.8 7.3c-.8.2-1.5.5-1.8 1-.6 1.3.5 3 2.4 4 2 1 4 .8 4.6-.4.6-1.2-.5-3-2.4-4-1-.4-2-.6-2.8-.5zm-1.7 6.4c-1 0-1.7 1.4-1.7 1.4l-16.8 33c-1.4 2.8-7.3 4.6-9.6 9-2.5 4.7-.8 9 2.2 10.5s7.5.4 9.8-4c2.4-4.7.3-10.5 1.7-13.3l16.8-33s1.3-2.2-1-3.4c-.5-.2-1-.3-1.4-.2zm-30 56.4c-1.3 0-2.6.7-3.2 1.8-1 2 .2 4.3 2.4 5.5 2.3 1.2 5 .7 6-1.2.8-1.8-.3-4.2-2.6-5.4-.8-.4-1.7-.6-2.5-.6zM993.4 598c-.8 0-1.3.3-1.6.8-.5 1 .5 2.4 2.2 3.3 1.6 1 3.4.8 4 0 .3-1-.6-2.5-2.3-3.4-1-.4-1.7-.6-2.4-.5zm-6 4.7v12l10-7s-1.4-2.4-4.3-3.8c-3-1.6-5.6-1.3-5.6-1.3z" fill="#f5d402"/><path d="M746.4 532.6s5.5 11.5 9.8 13c-2.2-.6-9.3 2-9.3 2s12.4 11.2 23 12c9 .6 13.3-4 13.3-4l-1.8-9.4s-5.5-6.7-14.3-9.8c-8.8-3-20.8-3.8-20.8-3.8zM788.3 512s-7.7 6.6-9.8 14.2c-2 7.6 1.4 16.3 1.4 16.3l6.3 12s9-4.8 12.7-12c3.8-7 2.4-16.6 2.4-16.6s-7 2.6-8 3.7c1.6-8-5-17.7-5-17.7zM763.6 509s-8.7 3-17.2 2.4c-8-.5-14.8-7.2-14.8-7.2s6.7-4.6 10-4c-3.6-1.3-9-10.4-9-10.4s7.6-2.3 14.3.2c6.5 2.6 12.3 9.8 12.3 9.8l4.3 9.2zM766.6 466.4s4.4 9 3.3 12.2c1.3-2 6.4-5.4 6.4-5.4s3 14.6 0 23.7c-2.8 9-11.8 12.3-11.8 12.3l-10-19.3s-1.5-7.2 1.6-12.8c3.2-5.7 10.4-10.8 10.4-10.8zM710 442.5s9.3-1 18 2.6c7 3 9.3 8.5 9.3 8.5l3.6 9.5s-10.4 4-18.5 1c-8-3-14-12.8-14-12.8s5.6-2 7.8-1.3c-3.2-1.5-6.4-7.5-6.4-7.5zM739.5 424.8s4 5.3 4.3 11.4c1-3.2 6.2-6.8 6.2-6.8s5.4 12.8 4.2 22c-1.2 9-8.8 14.5-8.8 14.5l-9.6-18.2s-3-7.4-2-13.2c.8-5.7 5.7-9.8 5.7-9.8zM707 390.2s-1.8 10 1 15.5c2.7 5 4.3 6.2 4.3 6.2-5-3.4-12.4-3.6-12.4-3.6s2.5 10.7 9 15.6 16 3.7 16 3.7 6.6-8.6 6-18c-.3-9-7.7-19-7.7-19s-3 6-3.2 10.5c-1.7-4.7-13-11-13-11z"/><path d="M709.8 396.2s-.3 7.2 2 11.3c2.5 4 7.8 5.7 7.8 5.7s.2-7.2-2-11.3c-2.5-4.2-7.8-5.8-7.8-5.8zM704.8 412.5s6.2.3 9.8 3c3.7 3 5 8.7 5 8.7s-4 .4-7.7-2.4-7.2-9.3-7.2-9.3zM724.4 398s-2 4.7-1.8 10c.2 5 3.2 10.8 3.2 10.8s2.7-6.2 2.5-11.3c-.3-5.2-3.2-8-4-9.6zM714 444.3s3 4.3 7.7 6.6 11.8 2.3 11.8 2.3-3.6-4.5-8.3-7c-4.7-2.2-11.3-2-11.3-2zM715.4 454.3s2.3 4.4 6.4 6.3c4 2 12.6 1.7 12.6 1.7s-3.3-4-7.4-6c-4-2-11.6-2-11.6-2zM739.2 430.7s-2.5 4-2.3 8.6c.2 4.6 3 9.6 3 9.6s2.2-5.8 2-10.4c-.2-4.5-2.8-8-2.8-8zM748.4 436.5s-4.3 5.7-5 11.6c-.5 6 2.5 12 2.5 12s5-5 5.7-11c.6-6-3.3-12.5-3.3-12.5zM736.6 491s.5 2 2.3 4.3c1.7 2.2 4.7 4.6 4.7 4.6s3-1 6.6-.2c3.7.7 8.6 4 8.6 4s-5.4-7.8-10.8-11c-5.5-3-11.6-2-11.6-2zM736 504.4s6.8-3 12.4-2.2c5.6.8 10.7 5.2 10.7 5.2s-7.5 2.6-13 2c-5.7-1-10-5-10-5zM764.8 472.8s-6 6.4-6.6 12c-.5 5.4 5 10.5 5 10.5s-.3-3.5.6-5.8c1-2.4 3-5 3-5s.7-2.7.4-5c-.5-3.2-2.4-6.7-2.4-6.7zM773.4 480.2s-5.7 5.7-7.2 11.8c-1.5 6.2 1.2 12.7 1.2 12.7s5-4 6.6-10.2c1.5-6-.6-14.3-.6-14.3zM787.6 517s2.5 5.5 3.2 10c.6 4.4 0 6 0 6s-2.6 2.6-3.8 4c-1.5 2-1.8 5.7-1.8 5.7s-5.3-8-4.5-13.7c.8-5.8 7-12 7-12zM798.8 529.5s-6.8 4.5-9.5 9.2c-2.8 4.6-1.3 9.3-1.3 9.3s4.8-.4 7.5-5c2.7-4.7 3.3-13.5 3.3-13.5zM754 548.5s9.8-.2 15.8 1.3c6 1.4 8.2 4.7 8.2 4.7s-6.7 3-12.8 1.6c-6-1.3-11.2-7.5-11.2-7.5zM752.3 537s4.5 6.8 10.2 9.3c8 3.4 17 1.7 17 1.7s-5-6-11.8-8.8c-6.8-2.6-15.4-2.3-15.4-2.3z" fill="#097754"/><path d="M784 555.3v3.5c6 0 7-.5 8.4 1.3 1 1.4 3.4 2.4 5.8 1.3 2.4-1 3.4-4 2.3-6.3s-3.3-3-5.4-2.5c-1.2.2-2 1.3-3.2 2-2.2 1-8 .8-8 .8z"/><path d="M783.4 552.6l2.8 2c-3 5-4 5.5-3.2 7.8.5 1.5 0 4-2 5.5-2.3 1.4-5.3.8-6.7-1.4-1.5-2.2-.8-4.4.7-6 1-1 2.3-1.2 3.4-1.8 2-1.2 5-6.2 5-6.2zM763.5 510.6l.2 3.5c6 .2 6.8-.4 8.3 1.4 1 1.3 3.4 2.3 5.8 1.2 2.4-1 3.4-4 2.3-6.3-1-2.4-3.2-3-5.3-2.5-1.4.2-2.2 1.3-3.3 2-2.2 1-8 .8-8 .8z"/><path d="M764.6 511.8l2.5 2.5c-3.7 4.5-4.7 4.8-4.3 7 .3 1.7-.4 4.2-2.8 5.3-2.5 1-5.4 0-6.5-2.4-1-2.4 0-4.4 1.7-5.7 1-1 2.4-.8 3.6-1.3 2.2-1 5.8-5.4 5.8-5.4zM743.7 468.7l.2 3.6c5.8 0 6.7-.6 8.2 1.3 1 1.2 3.4 2.3 5.8 1.2 2.4-1 3.5-4 2.4-6.4-1-2.4-3.4-3-5.5-2.5-1.4.2-2.3 1.2-3.4 1.8-2.2 1-8 1-8 1z"/><path d="M745.3 468l2.5 2.5c-3.8 4.5-4.8 4.8-4.4 7 .3 1.7-.5 4.2-3 5.3-2.3 1-5.2 0-6.3-2.4-1-2.4 0-4.4 1.8-5.8 1-.8 2.5-.8 3.6-1.2 2.3-1 6-5.4 6-5.4zM722.6 424.5l.3 3.6c5.7 0 6.6-.5 8 1.4 1 1.2 3.5 2.3 6 1.2 2.3-1 3.4-4 2.3-6.4s-3.3-3-5.5-2.5c-1.3.3-2.2 1.4-3.3 2-2 1-8 .8-8 .8z"/><path d="M724.2 423.8l2.5 2.5c-3.8 4.5-4.8 4.8-4.4 7 .3 1.7-.5 4.2-3 5.3-2.3 1-5 0-6.2-2.4-1-2.4 0-4.4 1.8-5.8 1-.8 2.4-.8 3.6-1.2 2.2-1 5.8-5.4 5.8-5.4z"/><path d="M759.7 500c-2 1-5.2-8.2-7.5-13.2-2.4-5.2-7-13-5.8-13.7 1.5-.6 3.5 3.5 6 8.8 2.3 5.3 9.3 17.5 7.3 18.3zM738 451.8c-2 1-4.3-5-6.6-10.2-2.4-5-4.7-8.7-3.3-9.4 1.6-.6 3.8 4 5.7 8 2 4.2 6.4 10.8 4.4 11.6zM788 561.3c-1.5.4-8.7-14.7-14.6-27.5-5.8-12.7-10-23-8.8-23.7 1.5-.6 6.2 11.5 12 24.3 6 12.8 12.8 26.7 11.5 27z" fill="#f5d402"/><path d="M848.7 220.7s2.4-4.6 8.6-4.6h11c1 3 6.2 7.7 6.2 12.8 0 0-5.2-9.4-19.7-9.4-3.7 0-6 1.3-6 1.3z" fill="#cc092f"/><path d="M867.4 222s-3.5-1.2-3.5-2.4c0-1.5 1.6-1.5 2.6-.3.8.8.8 2.7.8 2.7z"/><path d="M872.3 230.6s-3 3.3-3.7 5c-3-1.2-8.4-6.7-8.4-6.7s4.5 2.6 12 1.6z" fill="#d10429"/><path d="M888 222a5 4 0 1 1-10.3 0 5 4 0 1 1 10.2 0z"/><path d="M886.4 222a3.6 3.6 0 1 1-7.2 0 3.6 3.6 0 1 1 7.2 0z" fill="#f5d402"/><path d="M884.3 222a1.5 1.5 0 1 1-3 0 1.5 1.5 0 1 1 3 0z"/><path d="M790 320.4s8.8 6.6 8.8 13.2v158c0 4 1.3 7 3.3 9.5 2.2 3 6.5 7 11 9.8 14 9 37.3 18.6 55 26.7 14.6 6.6 20.6 9.3 28.2 18.8 7.7-9.5 13.7-12.2 28.4-18.8 17.6-8 41-17.6 55-26.7 4.4-3 8.7-6.8 10.8-9.7 2-2.5 3.2-5.3 3.2-9.4v-158c0-6.6 8.7-13.2 8.7-13.2H790.2zm11.3 5h189.9s-2.6 3-2.6 8.2v158c0 3.4-3.6 11.5-24.2 21.8-34 17-60.3 25-68.2 34.6-7.8-9.7-34-17.6-68.2-34.6-20.6-10.3-24.2-18.4-24.2-21.8v-158c0-5-2.5-8-2.5-8z" fill="#f5d402"/></svg>