<svg xmlns="http://www.w3.org/2000/svg" xmlns:xlink="http://www.w3.org/1999/xlink" width="640" height="320"><path fill="#d3ae3b" d="M0 0h640v320H0z"/><path fill="#c40308" d="M16 16h608v288H16z"/><path fill="#B96B29" d="M389.6 157.4c2-.5 8.4-2.4 13-6.2 4.6-3.7 5.5-6.7 6-8.3.2-1.7.4-3-.8-2-1.2 1-4.7 3.7-7.2 5-2.4 1.4-4.6 2-6 2.4-1.3.4-2.3.6-1 0 1.2-.4 5.4-2 8.5-5 3.3-3.3 6-8 6-11s-.2-2.7-1.2-2c-1 .8-4.3 5-6.2 6.5-2 1.5-5 3.6-6.4 4.4-1.6 1-3.7 2-.7 0 3-2.2 8.6-7 11-13.2 2.3-6.3 1.8-10 1.8-10.6 0-.6-.6-2-1-.7-.6 1-4.4 8.6-7.5 11.8-3 3.3-2.3 2.7-3 3.2-.6.5-1.8 1.5-.3-.4 1.4-1.8 4.5-6 6-10.3 1.6-4.2 2-8.4 2-10.8.2-2.4-1-5.8-1.4-6.8-.3-1-.8-1.7-1-.5 0 1-2.5 8.6-4 12.2-1.2 3.6-3.8 7.7-4.3 8.5-.5.7-2 2.3-.4-.4 1.4-2.7 4.3-10.8 4.6-18.4.3-7.6-.7-11.8-1.8-14-1-2-2-2.8-2-2.8s.2 5.2-1.3 12.7c-1.7 7.6-4 11.5-4 11.5s-1 1-.2-.7c.4-1.2 1.3-4 1.7-8.4.5-4.7.5-10-1-14.6-1.4-5-4-7.5-4-7.5-.7 7-.5 16.3-3.2 23.8-.5-.4-1-1.2-1.4.5-.5 2.4-1.5 7-4.7 13-3.2 5.7-4.6 6.5-4.6 6.5l-1-2.2c-.4-.8-.6-1.2-1.2 0-.5 1-2.3 5-6.2 9.6-4 4.6-6.2 6.8-6 10.2 0 3.4 2 5 4.2 6.7 2.4 1.5 3 2.4 2.5 4.2-.4 2-2.5 2.5-4.4 2.6-1.8 0-4 0-5 .4-.8.5-1 1.7-1.7 2.6-1 .8-1.3 1.3-2 1.4h-.7c-.2-9 3.3-13 3.3-13l-9.8-11.3-1.5.8c0-.2 0-.3-.3-.5-1.3-1.6-1.7-3-1.7-5.2.5.2 1.5.5 2.4.4.8-.2.2-1 0-2-.4-.8-.6-3.7-.4-4.8 0-1 .2-1.6.2-1.6s1.4 1.6 2.3 1.6c1 0 .8-1 1-2 0-1.3.8-3.2 2-4.2 0 0 1.5 1 3.3 1 1.8 0 4.2-.4 6-2.2 2-1.8 2-2.3 2-2.3s3.5 1 6.2 1.3c2.7 0 5.5-.3 7-3.2 1.3-2.7-.5-5.3-.8-5.7-.3-.5-1.2-.8-1.2 0s0 3-1.6 4-3 1-4.4.5c-1.6-.5-3.7-1-6.2-.8-2.2.3-2.5.5-2.5.5s2-2 4-2.7c2-.7 3.3.2 4 1s1.2 2 1.7.2c.5-2 .2-4-.7-5.4-.8-1.3-2.7-2.2-4.7-2-2 .2-2.7.5-2.7.5s-1-2.7-3.5-3.3c-3-.6-6.6.6-9.3 2 0 0-2 .6-4.2 0-1.4-.5-3-1.3-3.7-2l.8-2.2 1.3-.5c.7-.2.5-.4.6-1 0-.5-1.3-1.4-1.3-1.4s-.2-1.6 2-2.8l1.8-1s1.3.4 1.8 0 .5-.6.5-.6 1-.3 1.3-1c.4-.5.5-1.3.2-2-.2-.6-.5-.7-.2-1 .4-.4.7-1 .7-1.7V84s.8-.4.7-1.5c0-1-.6-1.5-1-1.6l-.5-.2s-.2-.7-.7-1.6l-1-1.2s.4-.3.2-1c-.2-.8-.7-1.2-1.2-1.4h-1l-2.5-1.4-1-.5s0-.7-.3-1-1-.6-1.3-.6l-.7.3-4-1c-1.2 0-1.2-.2-1.2-.2s-2.5-1-3.5-1.3l-1.3-.3s1-1.2 1-2.6c.2-1.5-.8-2.8-1.8-3.4l-1-.5v-1h1.8l.2-3-2 .3.4-1.8h-3.7l.3 1.7h-2l.3 3 1.8-.3-.2 1s-.7 0-1.3.6c-1 .6-2 1.7-1.8 3.2 0 1.4 1 2.6 1 2.6l-1.3.3c-1 .2-3.5 1.4-3.5 1.4l-1.2.4c-1.2 0-4 1-4 1l-.7-.3c-.4 0-1 .2-1.3.6-.3.4-.3 1-.3 1l-1 .6-2.5 1.4s-.5 0-1 0c-.5.2-1 .6-1.2 1.3s0 1 0 1l-.8 1.2c-.6 1-.6 1.6-.6 1.6h-.5c-.3.2-1 .6-1 1.7 0 1 .7 1.4.7 1.4v.5c0 .6.4 1.3.7 1.7.3.3 0 .4-.3 1-.2.7-.2 1.5.2 2 .2.7 1.2 1 1.2 1s0 .2.5.6c.5.4 1.7 0 1.7 0l2 1c2 1.2 2 2.8 2 2.8s-1.4 1-1.3 1.4c0 .6 0 .8.6 1l1.3.5.6 2.3c-.8.6-2.2 1.4-3.6 1.8-2.2.7-4.3.2-4.3.2-2.7-1.5-6-2.7-9.2-2-2.6.5-3.6 3.3-3.6 3.3s-.8-.2-2.8-.4c-2-.2-4 .7-4.8 2-.8 1.4-1 3.5-.6 5.4.5 2 1 .6 1.7-.2s2-1.7 4-1c2 .6 4 2.6 4 2.7 0 0-.3-.2-2.5-.5-2.5-.3-4.7.3-6.2.8s-2.8.5-4.5-.6c-1.6-1-1.5-3-1.5-4s-1-.4-1.2 0-2 3-.7 6c1.2 2.8 4 3.2 6.8 3 2.7 0 6.2-1.3 6.2-1.3s0 .4 2 2.2c1.7 1.8 4 2.3 6 2.3s3.2-1 3.2-1c1 1 1.8 2.8 2 4.2.2 1 0 2 1 2 .8 0 2.2-1.7 2.2-1.7l.3 1.6c.2 1 0 4-.3 5-.3.7-1 1.6 0 1.8.8 0 1.8-.2 2.3-.3 0 2.3-.5 3.7-1.8 5.3l-.3.4-1.5-.6-9.7 11.5s3.5 4 3.3 13h-.7c-.7-.2-1-.7-2-1.5-.7-1-.8-2-1.6-2.6s-3.2-.3-5-.3c-2 0-4-.6-4.4-2.5-.3-1.8 0-2.7 2.5-4.2 2.4-1.6 4-3.3 4.3-6.7 0-3.4-2-5.6-6-10.2-4-4.5-5.8-8.6-6.3-9.7s-.8-.7-1.2 0l-1 2.3s-1.4-.8-4.6-6.6c-3.2-6-4.2-10.5-4.6-13-.2-1.6-.8-.8-1.3-.3-2.6-7.4-2.5-16.6-3.2-23.7 0 0-2.6 2.5-4 7.5-1.5 4.6-1.5 10-1 14.6.4 4.5 1.3 7.2 1.8 8.4.6 1.8-.3.7-.3.7s-2.3-4-4-11.4c-1.4-7.4-1.2-12.6-1.2-12.6s-1 .8-2 3c-1 2-2 6.2-1.7 13.8.4 7.6 3.3 15.7 4.7 18.4 1.5 2.7.2 1-.4.3-.5-1-3-5-4.4-8.6-1.5-3.6-4-11-4-12.2-.2-1.2-.7-.5-1 .5-.6 1-1.7 4.4-1.6 6.8 0 2.4.5 6.6 2 10.8 1.6 4.2 4.7 8.5 6 10.3 1.6 2 .5 1-.2.4l-3-3.2s-7-10.8-7.4-12c-.5-1-1 .2-1 .8 0 .6-.6 4.3 1.8 10.6 2.3 6.2 8 11 11 13s.8 1-.7.2c-1.7-.8-4.7-3-6.6-4.5-2-1.7-5.3-5.8-6.2-6.6-1-.7-1.2-1-1 2s2.5 7.7 5.7 11c3 3 7.2 4.6 8.5 5 1.2.6.2.4-1 0-1.5-.4-3.7-1-6-2.4-2.6-1.3-6-4-7.3-5-1.2-1-1 .3-.7 2 .4 1.5 1.3 4.5 6 8.2 4.5 3.8 11 5.7 13 6.2 1.7.5.4.5.4.5l-4.6-1c-3.8-1-9.6-4-11-5-1.7-.8-2-1.2-1.7 1 .2 2 2.4 6.3 6 8.4s9.7 3 11.4 3.2c1.7 0 1.3.3.6.4-.8 0-2.6 0-5.6-.3-2.4-.3-6-1.5-7.3-2l-.3-1.3c-.2-.8-.6-.6-.8-.5-.3 0-.4.3-1.3.7-1 .4-1 0-1-.4 0-.2 0-1.4-.2-2 0-.5-.2-.6-.6-.4-.4 0-2.4 1-3 1.2-.8.4-.2 1 .2 1.6l1 1.8-2.4.6c-.6 0-.4.5-.3 1 0 .4 1 2.4 1.2 3s.7.2.7.2l1.8-1 .6 2.4s-.8.2-1.8.8c-1 .7-.7 1.5.5 1.8 1.2.4 2.5 1 4 3.5 1.3 2.5 1.7 7.2 2.6 14.6.8 7.3 5.6 11 6.2 11.5s.3 1 .3 1-.6 1-.3 2.3c.3 1.5 1.5 2.3 2.2 2.5.5.3.3 1 .3 1s-.3 1.5 0 4.4c.4 2.8 2.7 6 3.4 6.6.6.6.7 1 .6 1 0 .3-.5.2-1.3.8-.8.6-1.7 1.4-2.2 2.4-.6 1-.4 1.6-.2 3s2.2 2.7 2.2 2.7-.4 0-.5 1c0 1 .7 2.3 1.6 3 .8.7 2.6 1 2.6 1l.2 1.6c0 .6 1.3 1.2 2 1.6.7.3 2.2 0 2.8-.2.6-.2 1 0 1.4.7.3.6.2 3 .2 3.8 0 1-.6 2-.2 2.4.3.5 1.2 0 2-.4 1-.5 1 0 2 .4.7.5 2 1 2.3 1 .3 0 .2-1 .2-1.7s0-2.2.4-2.5c0 0 1.4-.2 2.5-.6.5-.3 1-.5 1-1 .2-.5-.5-.5-2-1.2-1.6-.8-1.8-1.3-2.8-2-1-.6-.5-.8-.5-1 0-.4.4-.7.6-1s0-1.3 0-1.3l1.3-1.2 1.4-1.5s1.3-2.4 1.8-3c.5-.7 1.7-1.4 2.4-2.3.7-.8 2.5-2.3 3.6-3 1-.7 4-2 4-2s0 1.7.6 2.5c.7 1 1.7-.6 5-3 3.3-2.2 5.8-3 5.8-3l1.5 2c1 1.2 1.8 0 5.8-5.5 3.2-4.4 7.4-8.4 9-10l1 .5-.4.7c-.3 1.2-1 2-1.7 3.5-.8 1.6-2 2-3.4 4.2-1.4 2-1.5 3.6-1.7 5.8 0 2.2 1 2.7 1 2.7s-2 2-2.5 3.3c-.5 1.5-.8 4.5-.8 4.5s-.3 0-1 1.7c-.8 1.5-2.2 1.7-4 3.6-2 2-4.2 3-5.2 3.5-1 .6-.7 1.2-.5 2 .3.8 1.7 1.6 3.3 2.2 1.6.6 2.2.3 3.3.3 1.2 0 .3.8 0 1.3-.6.4-1.2 2-1 3.8 0 2 1.3 1.5 3 1.2 1.6-.2 3.6-1 3.6-1l-.2.4c-.2.5-.3 1-.3 2.3 0 1.4.3 2 .7 2.4.5.4 1.3-.4 2-.6.5-.2 1.5-.8 3-1 1.4-.4 2-1 2-1s-.4.4-.5 1.4c0 1 0 2.6.2 3.4.3 1 1 2 2 3 1 .8 1.2.4 2-.8.6-1 2-2.6 2-2.6l1.3 3.7c1 3 4.3 5.8 4.3 5.8s3.3-2.7 4.3-6c1-3.2 1-3.6 1-3.6s1.6 1.5 2.4 2.6c.7 1.2 1 1.6 2 .7 1-1 1.6-2 1.8-3 .3-.7.3-2.3.2-3.3 0-1-.4-1.4-.4-1.4s.5.6 2 1c1.5.2 2.5.8 3 1 .7.2 1.5 1 2 .6.3-.3.6-1 .6-2.5s-.2-2-.4-2.4l-.2-.5s2 1 3.6 1.2 3 .7 3-1c.2-2-.4-3.5-1-4-.4-.4-1.2-1.3 0-1.2 1 0 1.5.2 3-.3 1.8-.6 3-1.4 3.4-2.2.3-.8.6-1.4-.4-2-1-.6-3.2-1.4-5.2-3.4-2-1.8-3.2-2-4-3.5-.7-1.6-1-1.7-1-1.7s-.3-3-1-4.5c-.5-1.4-2.6-3.4-2.6-3.4s1.3-.6 1-2.8c0-2.2-.2-3.7-1.6-5.8-1.3-2.2-2.5-2.6-3.3-4.2-.8-1.6-1.4-2.3-1.8-3.5 0-.2 0-.4-.2-.7.4 0 .8-.3 1.2-.5 1.6 1.5 5.8 5.5 9 10 4 5.5 4.8 6.6 5.7 5.5l1.5-2.2s2.5 1 5.8 3.2c3.3 2.3 4.2 3.8 5 3 .4-.5.5-1.2.5-1.8l4 1.3 4 1.5c2.7 1.2 3 1.8 5.3 3.6s5.4 1.6 8.5.7c3-1 11.2-3.6 14.4-5 3.3-1.4 5.6-2.6 6-3.3.3-.6.7-2.5.7-3 0-.8-1-1.7-1-2-.3 0-.2-.6-.2-1s0-1.7-.6-2.2c-.5-.6-.5-.8-.4-2.3.2-3.4-2.2-7.6-5.6-9 0 0 0-.4-.4-.6l-.7-.5V197c0-.3.3-.2.5 0 .2 0 .6.5 1.2.6.5 0 .8-.3 1-1 0-.5.5-1.7.7-2.4.2-.6 0-.7-.3-.7l-1.3-.3c-.4 0-.4 0-.3-.3 0-.3.2-.6.7-1.4.6-.8.2-.8-.3-1-.5 0-2.7-.8-3.3-1-.6 0-.7.5-.7.8v1.7s-.3.4-.6.3l-1-.7c-.4-.4-.7 0-1 .4 0 .5-.6 2.3-.7 3-.2.4 0 1 0 1h2c.7 0 .3.3.3.3l-1 1.6c0 .3-.5.4-1 .4h-1.4s-3.6 0-6 2c-2.7 2-3.5 3.6-4 4.5-.3.8-.7.6-1 1-.5.3-1.6 1.5-1.6 2.2 0 .7.2 1-1 2-1 .6-2 3.8-.4 5.4 1.5 1.7 2 3.3 2.6 4 .4 1 0 1.3-.4 1.3s-1.3-.8-2-1.3l-5.7-4.4c-1.5-1-.4-1-.4-1s.4 0 1.3-.3c1-.4 1-1 0-1-.7-.4-2.5-1.4-3-2-.4-.3-.6-.8.3-1.3.7-.5 2.7-1.7 1.2-2l-4.8-1.3c-1.5-.4-1.7-.8-1.7-.8l1-1.4s.8-1 0-1.3-3.3-.5-5.3-1.4c-4-1.7-6.6-4.7-7.6-8.3 1 1.4 2.6 4.2 5.3 4.3 3.7 0 4.2-1 3.3-2.2l-2-2.7c-.2-.3-.3-.8.6 0s2.7 4 8.2 3.7c5.5-.4 5.5-1.5 5.5-1.8 0-1-1-1.2-1.8-1.8-.4-.4-.7-1 .5-.5s3.8 1 7.5.2c1.4-.3 5.3-2 5.7-4 0 0-2.5 0-4.2-1-1.7-.6-2.7-1.2-1-.8 2 .3 5.4 1 8.5 0 2-.6 4.2-2 4.2-4.8l-4.6-1.2-1.6-.8s4.8 1.5 9.2-.7c4.4-2.2 4.5-5.3 4.5-6v-1s-4 1-7 1-4-.3-4-.3 8.4-.2 12.6-2.8c4.2-2.5 4.4-7.6 4.4-7.6s-4.7 1.7-7.7 2c-3 .4-4.8.4-5.5.4-.8 0-1.2-.3.4-.4 1.6 0 8-1 11.4-3.2 3.5-2 5.7-6.5 6-8.5 0-2.2 0-1.8-1.7-1-1.5 1-7.3 4-11 5l-4.6 1s-1.4 0 .5-.7zm-150 9.6l-1.7 1-1-1.8c-.2-.4 0-.6.2-.6l1.4-.3h.3c0 .5.3 1 .6 1.7zm51 30c-1 2-3.7 3.8-5.7 4.7s-4.4 1.2-5.3 1.3c-1 .2 0 1.3 0 1.3l1 1.4s-.3.4-1.8.8l-5 1.2c-1.4.4.5 1.6 1.4 2 1 .6.7 1 .2 1.5-.5.5-2.2 1.5-3 1.7s-.8.7 0 1c1 .4 3.4 1 3.4 1l-1.5 1c-1.5 1.2-4 2-5.8 2-1.7 0-4.4.2-8 0H257l-.3-3c-.3-1.7-1.3-4-2-5.2-1-1-2.5-3.3-2.5-3.3v-1s.2-1.2-.2-2.2c-.4-1-2.4-2.6-2.4-2.6v-2c0-1.2-.8-5.3-1.5-7.2-.5-2-3.6-7-5-9.3-1.5-2.5-2.4-6-2.8-8.8-.5-2.7-.3-3.6 0-4.4 0-.3 0-.6.2-.8.6.7 1.3 1.4 2.3 2 4.2 2.6 12.5 2.8 12.5 2.8s-1 .3-4 .3c-2.8 0-6.8-1-6.8-1v1s0 3.8 4.4 6 9.2.7 9.2.7-.4.3-1.6.8c-1.2.4-4.6 1-4.6 1 0 2.8 2.3 4.3 4.2 5 3 1 6.6.2 8.4 0 1.8-.5.8 0-1 .8-1.6.8-4 1-4 1 .3 2 4.2 3.6 5.6 4 3.7.7 6.4.2 7.6-.3s1 0 .5.5c-.5.6-1.7.8-1.7 1.8 0 .3 0 1.4 5.5 1.8s7.3-2.7 8.3-3.6c1-1 1-.4.7 0l-2 2.6c-1 1-.4 2.3 3.2 2.2 2.6 0 4.4-3 5-4.5l.2.2v.2c-.2 1-.8 2.3-1.5 3.5zM335 78.2l-.8-1.4s2 1 3.3 2.4c1.3 1.4 1.2 2 1.4 2.8 0 .7 0 2-.3 3v2.4l.5.6-1.7.6c-1 .4-2 .7-2.7 0-.6-.4-.7-.7-.3-1 .3-.4 1.8-.8 2-3.4.2-2.5-1-5-1.5-6zM323.7 85c.5-1 .7-2.3.3-4.7-.3-2-.7-4-.8-6 0 0 1.5.2 3.7 2.2 2 2 2.6 4 2.6 5S329 84 329 85c0 1 .3 2 .3 2l-1.5.7c-.7.5-1.2.8-2.4.8-1 0-1.7-.6-2.4-1s-1-.3-1-.3 1.2-.8 1.7-2zM313 76.5c2.2-2 3.7-2.3 3.7-2.3 0 2.2-.5 4-.8 6-.4 2.5-.2 3.7.2 4.8.5 1.2 1.8 2 1.8 2l-1 .4c-.7.3-1.4.8-2.5 1-1 0-1.6-.4-2.3-1l-1.5-.7s.3-1 .2-2c0-.8-.7-2-.7-3s.5-3 2.7-5.2zm-8 12.2c-.5.6-1.6.3-2.5 0l-1.8-.7.5-.6c.2-.4.2-1 0-2.3-.2-1-.4-2.3-.2-3 .2-.7.2-1.4 1.4-2.8s3.3-2.4 3.3-2.4l-.7 1.4c-.5 1-1.7 3.5-1.5 6 0 2.6 1.6 3 2 3.3.4.4.2.7-.4 1.2zm29.4 21c-2.2 1.3-3.4 1-3.4 2 0 .8 2 1.5 2 1.5s-2 2-3.5 3-3.3 1.7-3.3 1.7-.6 0-.3 1 1 1.6 1.4 1.8l.7.4s-2.6 3-3.8 3.8c-1 1-1.8 1.2-2.8 1.6-1 .4-.5 2-.2 2.7.2.7 1 1.7 1.5 1.8.5.3.7.6 0 1.6l-2.7 3.7-2.8-3.7c-.6-1-.4-1.3 0-1.5s1.4-1 1.6-1.7c.2-.7.7-2.3-.3-2.7-1-.4-1.6-.7-2.8-1.6-1.2-1-4-3.8-4-3.8l1-.4c.4-.2 1-1 1.3-2 .4-.8-.2-1-.2-1s-1.8-.5-3.4-1.5c-1.5-1-3.5-3-3.5-3s1.8-.8 2-1.7c0-.8-1.2-.6-3.4-1.8s-2.8-2.7-2.8-2.7 2.5-.7 3.7-3.2c.4-1 .5-1.7.5-2.4 4 1.3 8.8 1.8 13 1.8 4.2 0 9-.5 13-1.8 0 .7 0 1.5.5 2.4 1.2 2.5 3.7 3.3 3.7 3.3s-.7 1.6-2.8 2.8z"/><path fill="#D4AF3A" d="M347.5 158.5c0-6.8 3-11 3-11l-8.4-9.8c-8 3-15.4 3.3-22 0-6.6 3.3-14 3-22 0l-8.6 9.7s3 4.3 3 11c0 7-1.2 12-2 15.2-.7 3.3-1.4 9.4.4 13.8 1.7 4.4 3.6 8.2 11 11.4s11.6 4.8 14.3 7c2.7 2.2 4 4 4 4s1.3-1.8 4-4c2.6-2.2 6.5-4 14-7 7.6-3.2 9.5-7 11.2-11.4 1.8-4.4 1-10.5.3-13.8-.7-3.3-2-8.3-2-15z"/><path fill="#B96B29" d="M344.8 161.3c-1-6.5 2.7-12.2 2.7-12.2l-7.3-8.4c-5.6 3.2-13.4 2.7-20.2-.4-6.7 3-14.5 3.6-20 .4l-7.4 8.5s3.7 5.8 2.7 12.3c-1 6.5-3.4 16.7-2.8 21 .5 4 3.5 9 6.5 11.5s7.6 4.7 10.8 5.8c3.2 1.2 6.3 3.4 7.8 4.5l2.4 2.3 2.5-2.2s4.6-3.2 7.8-4.4c3.2-1 7.7-3.3 10.7-5.8 3-2.6 6-7.4 6.6-11.6.6-4.2-1.7-14.4-2.8-21z"/><path fill="#1D5E91" d="M344 162c-1-7 2.2-12.6 2.2-12.6l-6.6-7.3c-5.5 3-12.2 2.2-19.6-.3-7.3 2.5-14 3.3-19.6.4l-6.6 7.4s3.2 5.7 2 12.7-2.5 15-2.2 19.6v1h6s.4-.4 1-.7l1-.6s0-1.2.8-1.4c.7-.3 1-.3 1.3-.3s.5 0 .8-.4c.4-.3 1.3-1.2 1.8-2.4s.6-1.8.6-2.6l.2-2s-.2-.4-.8-.2c-.6.2-.6-.4-.7-1 0-.6 0-1.8.3-2.4l.5-.8-.3-1s-3.8 1-4.4-2c-.7-3-.8-4.5-1-4.8 0-.3 0-.5-.6-.4-.5 0-1.6-.4-2.4-2-.7-1.4-.8-2-.6-2.6.3-.7.7-.4.8-.2 0 .2 1 1.6 1.5 1.2.5-.4.2-.4-.3-1.6s-.4-1.5-.4-2v-1.7c0-.4.2-.7.6-.5.3 0 .6.4.8.6 0 .3.2.6.5.4s0-1.3 0-1.6c0-.4.6-.6 1-.3.6.3.8.8.8 1.2 0 .4 0 .7.2.7s.5-.6.5-1c0-.3.2-1 .6-.4.3.5.5 1.2.3 2 0 .6.3.2 0 1.5-.2 1.3-.4 1.8-.3 2.8 0 1 0 1.5.5 2.7.5 1 1 2.5 1.7 2.5h1s1-1.8 1.8-2.3c.8-.4 2-.5 2.6-.6.8 0 1-.3 1-.5s-.2-.2-1-.3c-1 0-1.8-.3-1.8-1s.2-1.3-.4-1.4c-.6 0-2-.5-2.7-1.5-.5-1-.4-1.2-.3-1.7 0-.4.8-1.5 1.2-.5s.7 1 1 1.4c.5 0 1 0 .7-.6 0-.6-.3-1-.2-1.6 0-.5.4-.7.8-.8.4 0 1.7-.5 2.3-.6l.6-.2s0-.5.8-.7c1-.3 1.4-.3 2-.3.6 0 1 0 1.8-.3.8-.5 1.5-.5 2-.5s1 .2 1.2.5c.4.2.3.6.3 1 0 .3 0 .5.6.5.5 0 1 0 1.5.2.5 0 1.2.4.8 1-.5.5-.5 1-.8 1-.3 0-.2.4-.4.6 0 .2-.2.3 0 .5l1 .8c.4.4 1 1 .4 1.5-.7.8-2 1.3-2 1.3s-.5.3.2.8c.8.5 1 1.5 1.4 1.6l.8.5c.2.2 0 1 0 1l-.8.4c-.6.2-1.2.4-1.8.4-.5 0-.8 0-.6.5l.7 1.4c0 .3.3.8.3.8l1.6.2 3-.2c1.7-.2 2.2-.2 4 0 1.5 0 1.8 0 2.2.2l1 .4s2.3 0 3.6-.2c1.3-.3 1.6-1 1.4-1.6-.2-.4 0-1-2.4-1.4-2.3-.3-3.2-.2-5-.5-1.8-.4-4.7-1.3-5.2-3.6-.5-2.2 1.4-3.2 2.3-3.6l3.8-1.4c1-.4 2.6-.8 4.4-.5 1.8.3 2.8.8 3.5.4.7-.4 1.2 0 1 .5 0 .5-.7 2-2.7 2.5-2 .6-4.4.6-5.7.3-1.3-.4-2.3-1-3-.6-1 .3-1.8 1.3-1 2.4 1 1.2 5.3 1.6 6.5 1.7 1.2 0 5.5-.2 6.7 2 1.3 2 .3 4.5-1.2 5-1.4.6-2.7 1-3.8 1s-1 .3-1 .3.4 1 .4 1.6c0 .5 0 1.4.5 1.7.5.3 1.2.5 2 .4 1 0 2.2.6 2.2 1.4l.4 3.6v3l-.3 1.3-1.3 3h6.4v-1c.3-4.8-1.3-12.7-2.3-19.7z"/><path fill="#6D8C3E" d="M294.4 185.7c1.3 3.6 3.8 7.2 7.8 9.6 5.4 3.3 7.8 2.8 13 6.2 5 3.3 4.7 4 4.8 4s-.2-.7 5-4c5-3.4 7.4-3 12.8-6.2 4-2.4 6.5-6 7.8-9.6h-51.2z"/><path fill="#D4AF3A" d="M299 158c.5.7 1 1 1.8.8 1 0 1 .6 1.3 1.3.2.8.2 2.5 1 4 .5 1.6 2.7 1.6 2.7 1.6 0-.7.3-1.7.6-2.5 0 0 .3-.7-.4-.7s-1-.3-1.3-1c-.5-.8-1.4-2.8-1.6-4 0-1.3.3-3.2.5-4 .2-.6.2-1 0-1-.2-.3-.7 0-.7 0s0 .4 0 .5c-.3 0-.5-.3-.6-.7-.2-.3-.4-.3-.7-.2-.3 0-.3.3 0 .6.2.3 0 .8 0 .8l-1-.6c-.2 0-.8 0-1 .5 0 .5.3 1.4 1 2 .5.4.5 1.4.3 2-.2.4-1 .3-1.2 0-.2 0-.6-.2-.8 0-.3.4-.5.5 0 1zM298.5 156.5l-.4-.4-.3-.4v.5l.3 1 .5-.5zM299.8 152.2c.3 0 .5-.2.3-.5 0-.3-.3-.6-.5-.7h-.4l.4 1c0 .2.2.3.4.2zM301.4 151c0 .2 0 .3.3.2.3 0 .4-.5.2-.7-.2-.3-.5-.4-.5-.4h-.2s.2.6 0 1zM303.7 151.3v-.7l-.2.6c-.2.2 0 .2 0 .4.2.2.2 0 .2-.3zM307.4 167c.4 1 1.6-.6 2.6-2 1-1.3 1-.3 1 .8-.3 1 .2 2.2.6 3 .4.7.7.3 1-.2 0-.6.2-1.6.6-2.2s.7 0 .7.4.5 1.5 1 2c.6.7.8 0 1-1l.5-2.2c0-.4.6 0 .6 0l1.2 1c.7.6.7-.4.8-1V164c.3-.2 1 .2 1.8.7 1 .5 1-.4.8-1 0-.4-.6-1.5-1.4-2-.7-.8-.8-1.5-.6-1.8.3-.3 1 0 1.7 0 .6-.2.8-.3 1.3-.3.4 0 .4-.5.4-.5s-.3-.7-1-1.2c-.5-.5-1-1-1.6-1-.7-.3-1.7 0-1.7 0v-.3c-.3-.2-.5-.2-.6 0 0 .2-.4.5-.7.7-.2.3-.4.4-.6.3-.2 0 0-.3 0-.3s.5-.3 1-1c.2-.7.3-1.4 0-1.7-.2-.3-1 0-1.4 0h-.7c0-.4.4-.2 1-.3.5 0 .8-.7 1-1.2s.3-.5.6-.2.6.3.6 0c0-.2.4-.7.7-1.2.4-.5.6-1.3.2-1.8-.4-.4-1.3-.4-1.7 0-.4.3-.6.6-.7 1.3 0 1-.4.5-.4.2s-.4-.6-.2-1v-.6s0-.6-.8-.8-1.6 0-2.3.2-.6.8-.6.8l-1 .2c-.7 0-1.4.3-2 .4-.5 0-.7.2-.7.5v.6l.8.2c.4 0 .2.4 0 .5-.3 0-.4 0-.4.4s0 .5.4.5.8 0 1.5.3 1 1 .8 1.3c0 .3-1 .8-1.5.8s-.6 0-.6.4c0 .3.6.3.6.3l1.7.2c1.2 0 1.3.3 2 .8.4.4 0 .6-.2.7-.3 0-.7.4-1 .6-.4 0-.7.4-1 .5-.4 0-1.2 0-3 .7-1.5.7-2 2.8-2 2.8l1-.5 2.4-1.3c.8-.5.8.2.4 1-.3.7.5.6.8.4l1.3-.8c1-.4.6.3.6.3s-.2.4-.3 1.6c0 1.3 1.2.2 1.7-.6s.8 0 .4 1c-.4.7-1.2 1.4-1.7 1.4-.4 0-.8-.5-.8-.8s0-1-.2-1.3c-.3-.2-1 0-1.7.4-.5.4-.6 0-.8-.2 0-.3.2-.4 0-.6 0-.2-.4 0-.6 0l-2 1c-1 .6-1 1-1 1.8s.3 1 .7 2z"/><path fill="#D4AF3A" d="M317.8 149.4l.7-.3h1c.4 0 .3-.4.2-.6 0-.2-.3-.3-1-.3-.5 0-1 .4-1.2.5l-.8.3.3.4c.2.4.6.4.8.3zM320.3 152l.6-.2.7-.4c.4 0 .6-.2.8-.7.3-.5-.2-.5-1-.7-.7 0-1 0-1 .4-.2.2-.2.5-.4 1-.2.6 0 .5.3.5zM320 152.6c-.6 0-1.4 1-1.7 1.2s0 .4 0 .4l.2.8v1l.6.2c.5 0 .8-.2 1.2-.5s.7-.4 1.2-.5c.6 0 1-.2 1.5-.5.5-.4-.5-1-1-1.5-.8-.5-1.2-.6-2-.6zM310.8 155c.6 0 .8-.3.8-.7s-.3-.6-1-.5c-1.7 0-3.4-.5-3.7-2.2 0 0-.7 1 .4 2.3 1 1 3 1 3.4 1zM305 182.3c0 .2 0 .3.2.3h2.7c.3 0 .3-.5.3-.8l.7-3c.4-2 1-3 1.2-3.8s-.2-1-.4-1.4c-.2-.5-.5-1.3-.5-1.7 0-.5-.8-.4-1-.4s-.5.6-.5 1c0 .6-.3 2.2-.6 3.5-.3 1.5-1.8 3.3-2.2 3.7-.4.4-.8.5-1 .5s-1 0-1.3.2c-.3.2-.6.7-.6 1 0 .5.7.7.7.7l.6-.4c.2-.3.6-.3 1-.4.5 0 .5 0 .4.3-.2.2 0 .2.2.8zM300.8 182.2c-.2 0-.3.2-.4.4h1.7v-.4c-.3-.3-.8-.2-1.2 0z"/><path fill="#D4AF3A" d="M303.2 182l-.6.6h2c0-.2 0-.4-.3-.6-.4-.3-.8 0-1 0zM319.4 181.3l-.7.4c-.3.2-.4.6-.4.8h1c0-.2 0-.4.4-.7.3-.3 0-.5-.2-.5zM321 182.2c0-.2 0-.5-.3-.4l-.7.5c-.2 0-.3.2-.4.3h1.2l.2-.4zM328.2 173.6c.5-.4.5-.5.5-1 0-.4 0-.5-.2-.7-.3-.3-1-.6-2-.6s-2.2.2-2.7.5c-.6.3-1 1.7-1 2.4s.3 1 .5 1 .5-.6.5-.6l1.2 1.6c.4.7.2 1 0 1.5-.2.4-1 1.8-1.5 2-.6.4-1 0-1.7 0s-1 0-1.5.5 0 .7.2.7c.3 0 .6 0 1 .3 0 .3 0 .8-.2 1h3.5c.6-.2 1-1 1-1.4l1.4-1.4c.4-.3.4-.6.4-1.3s-.2-1.2-.4-1.7c-.3-.5-.5-1.3-.4-1.7 0-.6.8-1 1.3-1.4z"/><path fill="#D4AF3A" d="M322.5 165c.3.5.2.6-.3.7l-1.8.2c-.8-.2-.8 0-.8.3 0 .4 0 1.2-.6 1.8-.4.7-1 .5-1.3.2s-.6 0-.7.3l-.7 1.4c-.4.5-.6.5-1 .5s-.4-.5-.6-.5-.7-.5-1-1.2c-.5-.6-.7 0-1 .6-.2.6-.5 1-1 1-.4-.2-1-1-1.3-1.7-.3-.5-.4-1-1-1-.3 0-1 1-1.5 1-.6.4-.7.3-1 0 0-.3-.4 0-.7.8-.3.7 0 1.3.4 1.5.4.2 1.2-.4 1.7-.7.5-.3.8-.3 1.3-.3s.5 1 .7 2.2c.3 1.3 1 1.5 1 1.5s.3.2 1-.8c.5-1 .5-2 1-2 .6 0 .7 0 1.2.8.6.8 1 1.4 1.4.8.3-.6.6-1.4 1-1.7.3-.4.7-.5.3 0-.4.6-.6 1.2.2 1s4-1.5 5-1.7c0 0 1.5-.3 3.2-.3 1.7 0 2-.2 2.7-.2.7 0 .7 0 .7-.5.2-.5-.2-.4-1.4-.4s-2 0-3 .2h-1c.2-.3.4-.5 1.4-.6 1-.2 3-.3 4-.3s.7.3.6 1c0 .7 0 1.7.2 2.3 0 .7 0 1 .6 1.8s2.5 1.4 3 1.8c.6.3.6 0 .5-.6 0-.5.4-.5 1-.2.4.3 1.2.5 1.8.6.5.2.6.3.6.6l.2 1.6c0 .6 0 .8-.3 1.2L336 180l-1.6.2c-1 .2-1.3.7-1.5 1.2s0 .5.2.7v.6h.2l.4-.5c.4-.4 1.3-.5 2-.3.3.2.3.6.3 1h2.5l1.3-2.7c.2-.6.4-1 .4-1.7s0-4 0-4c-.2-.2 0-.8 0-1.6 0-1 0-1.5-1.6-1.7-1.6 0-2-.8-2.7-1.3-.6-.6-.5-1.8-1-3.3-.3-1.6-1.4-1.8-3.3-2.2-1.8-.3-3.2-.4-4.6-.2s-3 .3-4 .2c-1 0-.8.2-.5.7z"/><path fill="#D4AF3A" d="M331.6 182.3c-.2 0-.3.2-.4.3h1.6v-.5c-.4-.2-.8 0-1.2.3zM334.5 182.2c-.3 0-.5.3-.6.4h1.6v-.2c0-.2-.6-.5-1-.2zM293.8 183.2l.3 1.5h52l.3-1.5h-52.6zM328.6 158.4c1.7 1 7 1.2 9.3 1.7 2.4.6 2.2 2.4 1.4 3.4-.7 1-4 1-4.8 1.2.4.2 1 1 1 1l1.3-.2c1 0 2.7-.3 4-1.4 1.2-1 1-2.7 0-3.8-1-1-3-1.2-4.7-1.4l-5.4-.7c-2-.2-3-1-3-2.3 0-1.2 1-1.8 1.8-2 .8-.3 2-.6 3.2-.2 1.2.4 2.5.5 4.8.2s2.8-2 2.8-2-.3.3-1.4.3c-1.2 0-2-.5-4-.5-2.2 0-3 .7-4 1-1 .4-3.5.7-4.3 2.4-1 1.6 0 2.4 1.7 3.5z"/><ellipse rx="1" ry="1" cy="150.6" cx="315" fill="#B96B29"/><path fill="#B96B29" d="M336 152.3l-3 .2s.3.3.8.2l2.4.2c1.3 0 2.2-.5 2.2-.5l-2.4-.2z"/><path fill="#1D5E91" d="M323.7 176.4c-.3-.5-.4-.5-.7-.2-.4.4-.8-.7-.8-1.4l.3-2.8-2.7.7-2.7.6s-1 .4-1.4.3l-2-.2s-.6.2-1.3 1c-.7.5-1 1-1.4 2.2-.7 1.2-.8 2.4-1 4 0 1-.3 1.6-.4 2h8l.4-.8c.2-.5.7-.8 1-1s.6 0 .7-.4c.2-.4.6-.7 1-1s1.2 0 1.8.2c.7.2 1-.3 1-.5.3-.2.4-.5.8-1 .3-.5 0-1 0-1l-.6-.6zM336.8 176.6c-.2-.5 0-.5-.4-.6-.3 0-.7 0-1-.3-.5-.2-.5 1-.5 1s-1 0-2 0c-1.2-.2-2.5-1.2-3-1.5l-1-1-.6.4s-.5 1-.5 1.6c-.2.7.6 1.5.7 2.2 0 .6-.7 2-1 2.6-.4.3-.8 1-1 1.6h4c0-.2.2-.4.4-.6.5-.4 1-.5 1-.5l.3-.6c0-.4.5-1 1.5-1.2 1-.4 2.2-.5 2.2-.5l.8-1c.3-.4 0-1.2 0-1.7z"/><g><path fill="#D4AF3A" d="M304 219.8c1 .2 2.2-.3 3-1 .6-1 .8-2.2 1.3-3l1-1.2s-.2 1.2-1 2.8c-.5 1.5-.6 3.6-.5 4.5.3 1.7 1.5 2 2.2 1.8.5-.2 1.3-1 2-2.2l.6-1.3 1-2.3c.5 0 .3 1 0 1.8-.3 1.3-1 3.3-1 4.5s0 3.4 1.3 3.5c1 0 1.8-1 2.5-3.4.6-2.5.8-3.3 1-3.3.4 0 .4 1.8.4 2.6v1.6c.2 1.3.6 3 1 3.3.5.5 1 .4 1 .4s.5 0 1-.5c.7-.6 1-4.2 1-5s0-2.4.4-2.4c.3 0 .5 1 1.2 3.4.6 2.5 1.3 3.5 2.5 3.4 1.3 0 1.4-2.2 1.4-3.5s-.7-3.2-1-4.5c-.4-1.4 0-1.3 1 .5.3.5.6 1.2 1 1.6.5 1 1.2 1.6 1.6 1.8.7.2 2 0 2.2-2 .3-1.7-1-6.8-1-6.8l.5.8c.5.8.7 2 1.4 3 .8.7 2 1.2 3 1s.7-1.6.2-4c-.6-2.5-2.8-4-4.3-5.8-1.6-1.8-2.7-5-2.8-5.4-2 1-3.7 2-5.3 3.7-3.3 3.3-4 4.2-4 4.2l-4-4.2c-1.5-1.7-3.2-2.8-5.2-3.8 0 .5-1.5 3.5-3 5.3-.6 1-1.6 1.6-2.3 2.4-1 1-1.4 2.2-1.6 3.5-.7 2.4-.6 3.8.2 4z"/><path fill="#D4AF3A" d="M304 228l1.5-1.3s.7-.5.5.5c-.2 1-.5 3.3-.3 4.3s.3 1.8 1.5 1c1.2-.6 1.5-1 2-1.6.7-.7 1.3-1 1 0 0 1-.5 2.3-.3 4.2 0 2 1 2.2 2.3.6 1.2-1.6 2-3 2.3-4 .4-.7 1.2-1.4 1.2 0 0 3.3.7 8 4.2 9.2 3.5-1.3 4.3-6 4.3-9 0-1.6.7-1 1 0 .4.7 1.2 2.2 2.4 3.8 1.2 1.6 2.2 1.3 2.4-.6.3-2 0-3.3-.3-4.3s.5-.7 1 0c.6.5 1 1 2 1.6 1.3.7 1.4 0 1.6-1 .3-1 0-3.3-.3-4.4-.2-1 .5-.5.5-.5l1.5 1.3c1 .8 2.2 1 2.2 1s.6-3.5-.8-5.5l-2-2.6s-.7-.2-1.3-.4c-.5-.2-1-.7-1-.7v1.8l2 2c.4.6 1.2 1.4 0 .6l-2-1.6s-.3 1.7-.8 2c-.5.6-1.2.6-1.5.5h-.2v.5s1 2 1 2.8c.2.8 0 .7-.5-.3s-1.4-2.3-2-3-1-1.3-1-.3c.2 1-.2 2.5-.5 3l-.5 1 .7 2.7c0 .4 0 1-.3.3-.4-.5-1.4-2.8-1.4-2.8s-1.4 0-1.8-.4c-.4-.5-1-2-1-2s-.6 2-1 2.6c-.6.6-1.7 1.3-1.7 1.3v4c-.2.6-.2 1-.5 1-.2 0-.3-.4-.4-1v-4s-1.2-.7-1.7-1.3c-.6-.6-1-2.6-1-2.6s-.8 1.6-1.2 2c-.4.3-1.8.4-1.8.4l-1.4 2.8c-.4.6-.4 0-.3-.3l.7-2.8-.5-1c-.3-.5-.7-2-.6-3 0-1-.7-.5-1 .2s-1.5 2-2 3-.7 1.2-.5.4 1.2-2.8 1.2-2.8v-.6h-.4c-.3.2-1 .2-1.5-.3s-.7-2.2-.7-2.2l-2 1.6c-1.2.8-.4 0 0-.5.4-.6 2-2.2 2-2.2V220l-1 .6-1.5.3-2 2.5c-1.3 2-.7 5.4-.7 5.4s1.3-.2 2.3-1zM321.2 250.3c-1-1-1.2-1.6-1.2-1.6l-1.2 1.6-3 2.7s.2 2.8 1.2 4.3c1 1.3 1.7 2.4 3 3.3 1.4-1 2.2-2 3-3.3 1-1.5 1.2-4.3 1.2-4.3s-2-1.6-3-2.7z"/><path fill="#B96B29" d="M319.6 253.7c0 .7 0 2.3.4 2.3s.3-1.6.4-2.3v-2.2h-1s0 1.6.2 2.2z"/><path fill="#D4AF3A" d="M320 101c-3.8 0-8.2-.6-10.6-1.5l-2.6.6c4 1.6 7.3 2.2 13.2 2.2 5.8 0 9.2-.6 13.2-2l-2.6-.7c-2.4 1-7 1.4-10.6 1.4zM333.7 97.7l-2.5-1.7c-.4-.2 0-.8 0-1 0-.3 2-.8 3-1 1-.4 1-.6 1-.6s-.7-.7-4.5-1.2c-4-.4-10.7-.3-10.7-.3s-6.8-.2-10.7.2c-4 .5-4.5 1.2-4.5 1.2s-.2.2 1 .5c1 .2 3 .7 3 1 0 .2.4.8 0 1l-2.5 1.7c-.3.3-.3.7.2.7l1.8-.3c4-.6 7.7-1 11.7-1 4 0 7.7.4 11.7 1.2l1.8.2c.5 0 .5-.4.2-.7z"/><path fill="#D4AF3A" d="M329.3 99.4c-2.7-.3-4.4-.7-9.3-.6-5 0-6.6.3-9.3.6 1.7.6 4.4 1 9.3 1 5 0 7.6-.4 9.3-1zM319.2 63l2-.3-.2-1.7 2.2.3v-1.8l-2.2.2.4-2H319l.3 2-2.2-.2v1.8l2.3-.3M323.6 65.8H321v-2.4h-1.6v2.4h-3V67h7.3v-.3-1z"/><path fill="#1D5E91" d="M320 70c1.7 0 3-1 3.6-2.2h-7c.5 1.3 2 2.2 3.5 2.2zM321.6 63.6v1.6h1.8c-.4-.7-1-1.2-1.8-1.6zM318.6 63.6c-.8.4-1.5 1-1.8 1.6h1.8v-1.6z"/><path fill="#B96B29" d="M322.2 93.3l-2.2-1-2.2 1c-.8.5-.7.4-1 1s0 .7.4 1c.4 0 2.8 1.3 2.8 1.3l3-1.4c.6-.3.5-.6.3-1 0-.4-.4-.6-1-1z"/><path fill="#D4AF3A" d="M317.6 94l2.4 1.2 2.4-1.2-2.4-1M320 84.6s-.2 1-.5 1.3c-.3.2-.5.5-.4 1 .2.4.7.7 1 .7.3 0 .8-.3.8-.7 0-.5 0-.8-.3-1-.3-.5-.5-1.4-.5-1.4z"/><circle cy="88.6" cx="320" r=".5" fill="#D4AF3A"/><path fill="#D4AF3A" d="M318.4 86.2s.8-.8 1-1.4l.6-1 .5 1c.3.6 1 1.4 1 1.4s1.2-.5 1.8-2.6c.6-2.2 0-4.4-.4-6.8s-.7-6.5-.7-6.5c-.8.5-1.6.7-2.3.7-.8 0-1.6-.2-2.4-.7 0 0-.2 4-.5 6.5-.2 2.4-1 4.6-.3 6.8.6 2 1.7 2.6 1.7 2.6z"/><ellipse rx="1.9" ry="1.8" cy="81.5" cx="320" fill="#B96B29"/><ellipse rx="1.8" ry="1.8" cy="77.2" cx="320" fill="#B96B29"/><ellipse rx="1.7" ry="1.7" cy="73.1" cx="320" fill="#B96B29"/><ellipse rx="1" ry="1" cy="81.2" cx="320" fill="#D4AF3A"/><ellipse rx="1" ry=".9" cy="76.9" cx="320" fill="#D4AF3A"/><ellipse rx=".8" ry=".8" cy="72.8" cx="320" fill="#D4AF3A"/><path fill="#b96b29" d="M320 224v-.8l.3-2.7c.2-.8-.2-.7-.4-.7-.3 0-.4.7-.4 1v2.8l.3.4z"/></g><g id="a"><path fill="#d4af3a" d="M300.3 239.4l3.5-2.4c2-1.2 2.6-2.7 2.6-2.7h-.7c-.4 0-.7-.5-.7-1v-2.7c.3-1.2 0-2.2 0-2.2s-1 .7-2 1.4c-1.3.6-2 .3-2 .3l-.2-1-1.3 2.3c-.7 1.4-2.8 2.8-4.2 4-1.5 1-3 2.2-4.3 2.6-1.2.3-.5 1-.5 1s1.2 1 4.3 1.6 4.6-.7 5.5-1.2z"/><path fill="#d4af3a" d="M311.2 238.2c-1 0-1.8-.5-2-1.7-.2-.8 0-3.8 0-3.8l-.8.8c-.4.5-1.3.6-1.3.6l-.5 1.2c-.4.7-1 1.5-2 2.2-1 .6-2.3 1.4-3 2-1 .8-2 1.6-3 2-1 .7-2 1.7-2.3 3.3-.4 1.5 0 2 1 2 1.3 0 1.5 0 3.5-.5s4.8-2.7 7-4c2-1.4 3.5-4 3.5-4z"/><path fill="#d4af3a" d="M316.7 240s-1-1-1.2-2.3l-1-3.6-.8 2.3c-.7 1.5-1.8 1.8-1.8 1.8s-.2.7-1 2c-1 1-2.5 2.3-4 3-1.4 1-3.2 2-4.2 3.5s-1 3-.6 3.6c.4.8 1 0 2-.4s3.7-1 7.5-3 5-6.6 5-6.6zM318.3 248.4c1-1.5 1.2-5.3 1.2-5.3l-.8-.6c-.5-.4-1.5-2-1.5-2L316 243c-.8 1.2-1 1.7-2.5 3-1.4 1.3-3.3 2.5-4.2 4-.8 1.3-.3 4 .2 5s1.3.6 2-.2c1-.7 1-1 2.5-2s3.3-2.8 4.3-4.4z"/><path fill="#b96b29" d="M306 217c.5-1.2 1.2-2.6 1.7-3.3.5-.7.8-1.5.8-1.5s-1.3 1.2-1.8 2c-.6 1-1 1.8-1.2 2.7-.2 1 0 1 .5 0zM311.3 217.8l.3-1.2s.3-.7 0-.8c0 0-.5.5-1 1.7-.3 1.2-1 3-.8 3 .2.2 1.3-2 1.5-2.7zM315.5 221.2l.2-.5.5-1.7c0-.3-.2-.6-.5 0-.4.8-.4 1.5-.5 1.8 0 .3-.5 1.4-.3 1.5l.5-1zM302.5 234l-.6-.3-1 1c-.4.5-1 .7-1.3 1-.3.6-1 1.2-1.8 1.7s-1.3.5-1 .7c0 .2.6 0 .6 0l1.3-.8 2-1.5 1.5-1.7zM307 239.4c.4-.4.8-.7.6-1l-1 .2-1.7 1.7-1.5 1-2 1.3c-.5.2 0 .3 0 .3l.8-.5c.4 0 1.6-.6 1.6-.6l1-.8 2-1.8zM312.3 243c.3-.6 0-.4-.6-.2s-2 1.6-2.6 2l-1.8 1c-.7.4-.7.6-.6.7 0 .2.2.2.5 0 .4 0 1.2-.6 1.2-.6l.7-.2c.3 0 .7-.4 1.5-1 .7-.7 1.4-1 1.8-1.8zM314.7 247.8c-1 .6-2.5 2-3 2.7-.4 1-.6 1.5-.5 1.6 0 .2.6 0 .8-.4l.6-.8s1.6-1.6 2.2-2 1.5-1.4 1.8-2c.2-.6 0-1 0-1s-1 1.5-2 2z"/><path fill="#c52126" d="M290 113.3c-1-.5-3-1.5-5.6-1.7-2.4-.2-4.3.2-6.3.7-1.3.4-2.5.5-3.6 0-1.8-.3-3-2-3.6-3.8 0 0-1.6 2 0 4.3.8 1 2 1.7 3 2 3.3.6 6.6-1.5 9.5-1.6 2.7-.2 4.8 1.5 4.8 1.5s.8.5 1.7 0c1-.5 1-1 .3-1.4z"/><path fill="#d4af3a" d="M280.2 211.7h-.8l-1.8-.7c-.3 0-.7 0-1 .2l-2.8 1.8h4c1.5 0 2.4-1.3 2.4-1.3z"/><path fill="#d4af3a" d="M291.6 211v-.4l-.5-1.2-1.2 1-2 2.5c-.7.8-1.6 1.6-.8.2.8-1.4 1-2 1.7-3l1-1.3s-.5-.2-2.2-.4c-1.7-.3-2.8-1-3.6-1.4l-2.2-1.2s-3 1.2-4 1.5-1.7.4-.7 1c1.2.5 2 .6 2.6 1 .5.3 2 .8 3 .8s2.7 0 2 .7c-.6.7-1.4 2-2 4-.8 2-.8 3.7-.8 4.5v1.8s1.3-1.4 4.5-3.4 4.3-2.7 5-3c.5-.3.8-.3.7-1 0-.8-.4-2.7-.4-3z"/><path fill="#d4af3a" d="M303.7 201.3l-.6-.3c-.4.3-2.3 1.6-3 3-1 1-1.7 1.2-.8 0 .8-1.5 1.5-2.3 2.2-3 .2 0 .4-.3.6-.5-1.5-.7-3.2-1.6-5-2.8 0 .4-.5 1.2-1 1.7-.6.7-2 1.3-2 1.3s1-1.2 1.5-2.2c.3-.6.4-1.2.5-1.6-1-1-2.2-2-3.2-3.2-.2.8-.8 2.8-2.7 5-2.4 2.7-7.4 4.2-7.4 4.2s-1.8 0-.4.5 2.4 1 5.2.5c2.8-.4 3-.6 3.3-.7.4 0 1.4 0 0 .5s-4.6 1-5.8 1c-1.3-.2-3-.5-1.2.5s2.5 1.3 3.5 1.3 1.6.3 2.6.3 1.2-.3 2-.4c.7-.2 1.2 0 1.2.4 0 .3-1 1-1 3.2 0 2 .2 3.4.4 4l1 2c.3.6.4 1.2.7 0l1.2-4 .5-2c0-.5.8-1 .5.2l-1 3.4c0 1-.6 2.8.3 1.4 1-1.5 4.2-5.2 4.8-6l1.4-1.8c.4-.5 1.6-1.3 2-2 .6-.8 2-2.3 2.7-2.8l-3-1.3zM257.4 115.2c0 2 2.3 6 3.6 8 1.3 2.2 1.7 3 1.5 3.2-.3 0-.8-1-1.5-2-.7-.8-2-3-3.3-4.7s-2.8-5.5-3-6c-.3-.3-.4-.5-1 0-.5.4-1.6 4.7-.3 7.7s3.3 5 4.2 6c.8 1 2 2.8 1.8 3-.2 0-.5-.4-1.5-1.5l-4-4.3c-1-1-2-3.3-2.5-4-.2-.4-.4-.3-.6 0-.4.2-1 1-.8 3.4.4 3.4 2 5.3 3.6 7 1.5 1.6 3 3 2.8 3.2s-1.8-1.2-2.8-2.2l-4.3-4.3c-.6-.7-1.5-.4-1.4 2.5s3.3 5.6 4.6 7.2c1.2 1.6 3 2.5 2.7 2.8 0 .3-1.4-.5-2.3-1-.8-.7-4-2.7-4.6-3.2-.6-.4-1 .4 0 3 .7 2.8 3 5 4.4 6 1.4 1 3.6 2 3.5 2.4-.2.4-1 0-2.4-.7l-4-1.5c-1.2-.3-1.2.5-1.2.5s-.2 2.3 1.4 4 3.6 2.7 5.3 3c1.8.3 2 .4 2 .6 0 .3-.2.3-.6.3l-3.6.2s-2.4.4-2.4 1 0 1.6 2.3 3c2.2 1.7 4.8 2 6 2 1 .3 1 .4.7.7-.2.3-.7.3-2.4.5s-2.7.8-3 1.3c0 .4.2 1.8 1.6 2.7 1.4 1 3.2 1.2 6 1 2.5 0 3.2-.2 3.3.3 0 .4-.8.6-2.2.8-1.3.3-2.3.3-3 1-.8.6-.3 2 1 2.8s4.5 1 6 1 3.3-.7 3.4-.4-1 1-2.4 1.4c-1.3.5-1.7.8-2 1.4-.3.6 0 1 1.6 1.7 1.5.6 4 .6 5.2 0 1.3-.6 2-.8 2-.6.4.2 0 .5 0 .8-.4.3-1.5 1-2.8 1.5s-1.6.3-2 1.5c-.5 1 .7 2 3.2 2s6-.8 7-1.5c1-.6 1.4-.7 1.6-.5 0 .2 0 .4-.4.8-.6.4-2.3 1.6-3 1.8-1 .2-1 .8-1 1.4 0 .6-.3 1.8 2 2.3 2.2.5 4.8 0 7.2-1.6.8-.6 1.3-1 1.5-1.4-.2-2.3 0-4 .2-5.3-.5 0-1.4-.2-2.3-.6-1.3-.5-2-1.8-2.2-2.5-.3-.6-.7-.6-1.3-.4-.6 0-1 .4-2 .3s-2.3-.3-3.4-1.7c-1.2-1.4-1-2.7-1-3.4 0-.8-1-.3-1.7-.3-.6 0-2.2-.2-3.6-1.2s-1.4-2.3-1.5-3c-.3-.4-1-.8-1.3-1-.4 0-1.2-.3-2-1-1-1-1.5-2.5-1.5-3s-.7-.6-2.7-1.6-1.8-3.3-1.7-4c0-1 1-1.7 1-2 0-.3-.6-.4-1.3-.8-.7-.4-2.4-1-2.4-3.6 0-2.5 1.7-2.7 1.7-2.7l-1-.7c-.7-.4-2.5-1.6-2.5-3 0-1.6.7-2.3 1.2-2.6.5-.4 1.8-.7 1.8-.7s-1-.6-1.2-1.7c-.4-1.2-.5-2.6.3-3.6 1-1 2.3-1 3-1s1.5.3 1.8 0c.3 0 .4-.3 0-1 0-.5-.2-2 0-2.4.3-.5.3-1.5 2.2-2 2-.7 4 .6 4.6 1s.3-.5.3-1.2c0-.5-1.2-2-2.6-4.3-1.5-2.2-2.2-3.4-3.8-6.8s-2.8-8-3-9c-.2-1-.6-.6-.6-.6s-.5.2-1.5 2.8c-1 2.6-1.2 5-1 7z"/><path fill="#d4af3a" d="M291 161c-1 0-2.6-.8-3.8-2.4-1-1.7-2.8-2-5.8-2s-4.4-1.4-5-3.5c-1-2 0-4.3 3-5.8s4.4-3.2 4.6-5.8c0-2.6-3-5.8-6.3-9.4s-5.6-8.8-5.6-8.8-.8 1.2-.8 2.4.5 2.5 0 3c-.5.2-.6-.7-2.5-1.5-1.8-.7-3.3-.8-4.5.5s0 3.7 1 4.8c1 1 2 2 1.7 2.3s-2-.7-2.5-1-1.7-1.7-3.5-1.5-2.4.8-2.6 2.3c0 1.5 1.7 2.8 2.8 3.4 1 .5 1.6 1 1.3 1.3-.3.2-.6 0-1-.2-.6 0-2-.3-3 0-1 .4-2.4 1.6-1 3.2 1.4 1.5 4.3 2 4.8 2.2.6 0 1 0 1 .4 0 .5-1.2.5-2.8.6s-2 1.5-1.8 2.7 2.8 2.3 4.3 2.5c1.4.2 2 0 2 .4.2.3 0 .5-1 .7-.7.2-2.3.4-2.6 1.7-.3 1.2-.3 1.8 1 3 1 1 3 .8 3.6.7.6 0 1.3-.6 2 0 .4.5-.7 1-1.6 1.7-1 .7-1 2 .7 3 1.8.8 3.4.5 4 .3s1.7-1.4 2.2-.7c.5.7-1.4 1-2.2 2-.8 1-.6 2.5 1 3.5 1.7 1 4.3.3 4.8 0 .4-.5 1-.7 1.3-.4.5.4 0 1.3-.4 2-.3 1-1 3.3 1.5 4.2 2.5 1 4.7-1 5-1.6.5-.4 1-.4 1.2-.2.4 0 .2.5 0 1-.4.3-1 2 .7 3.2 1 .8 2.4.8 3 .7.4-1.4 1-2.8 1.4-4.8h-.4c-.2 0-.3.2-.3.3s0 .3 0 .3c-.3 0-.3 0-.6.3-.2 0-.5.4-.7.3 0-.2.6-.6 1-.8 0-.3.5-.7.5-1 0-.2.2-.4.6-.7l.3-.4.8-4.8c0-1.3.2-2.5.3-3.6h-.8zM242 125c2.5 5.2 6 8.2 6 8.2l-.6-2.2c-.2-1 0-2 0-2l-2.6-3.7-2.6-6.4s1.6 3.7 2.8 5.8c1.2 2 2.6 3.7 2.6 3.7s.5-1.8.8-2c.4 0 .7.3 1 .7.3.4.5.3.5.3l-1-2c-.4-.3-1-.8-1-1.3-1-1.5-3.2-4.4-4.2-7.3-1-3-3.4-10-3.8-12.3-.4-2-.8-1-1.2.6-.4 1.6-1 3.8-.6 7s1 7.6 3.7 12.8zM245.2 139l2.4 1.7-.4-1-.2-2-2-1.7c-.7-.7-1.6-1.6-3.6-4s-.4-1 1.2.8 4.6 4.2 4.6 4.2v-.5c0-.6.2-1 .5-1.3.3-.4 0-.4-1.6-1.7-1.6-1.3-6-6.3-7.8-9.3-1.8-3-3.8-7-3.8-7s-1 6 2.7 12.5 7.3 8.7 8.2 9.4zM264.3 176.6c2-.8 1.4-2.7 1.4-2.8l-2.3.8c-1.2.5-4 1.3-5 1.3s-1-.2-1-.4c-.2-.2.7 0 2.3-.3 1.5-.3 4.3-1.7 4.8-2 .5-.4.4-.4-.3-.5-.7 0-1.3-.4-1.6-.6-.2-.2-1 0-2.8.5-1.8.4-5.5 1-8.3 1s-5.5-.4-6-.5c-.4 0-1 .2.5 2.5 1.3 2.3 6.2 3.5 9.5 3.5 3.4 0 6.8-1.8 8.8-2.6zM255.3 171.8c3.5 0 4.8-1 4.8-1l-.4-1c-.5-.6-.4-1.8-.4-1.8l-2.2.4c-1.5.2-3.2.4-5 0s-1-.5.4-.3c1.5.3 4.3-.2 5.2-.6 1-.3.5-.6 0-.8-.7-.2-2.4-1.2-2.4-1.2s-4.2.5-8 0c-4-.4-6.5-1.4-7.3-1.5s-.8 0-.8 0-.2.4 1 2.6c1.5 2 4 3.5 6.3 4 2.3.8 5.3 1.2 8.8 1.2zM254.4 163.7l-.3-1c0-.6.4-1 .4-1s-.7-.4-3.3-.7c-2.5-.3-2.7-.5-4.3-1-1.5-.2-2.6-.7-2.6-1s.7.2 1.6.5c1 .4 5 .8 6.6 1 1.7.3 2.6.5 3 .3.2-.2 1.2-.5 1.2-.5l-1.6-.3c-1-.2-1.6-.5-2-1-.6-.2-.7-.3-3-.5-2-.2-3.7-1-7.5-2.3-3.8-1.4-6.6-3-7.4-3.7-.8-.6-.8 0-.6.7.2.8.2 1.8 2 4 2 2.2 3 3.2 7.8 5 4.8 1.7 10.2 1.5 10.2 1.5zM240.2 152c4.2 3 9.2 4 10.3 4.2.2-.3-.3-1.3 0-2 .2-.6.7-.6 1.7-.7 1 0 .4-.3 0-.3l-2-.4c-1.6-.5-3.3-.7-5.7-1.6-2.3-1-3-1.5-3-1.7 0-.2 1 .5 3.3 1.4 2.2.7 4.7 1 6 1.3 1.5.3.3-.3-.4-.7-.6-.4-1.5-1.8-1.5-1.8s-1.7-.2-4.2-1-4.6-1.6-6.6-2.8c-.8-.4-1.5-1-2.2-1.5l-3.4-2.4c-1-.6-.6 0-.5.3s.7 2.2 2 4c1.5 2 2 2.6 6.2 5.6zM239.5 143.5c4.2 3.3 7.8 4.4 8.4 4.6.5.4.5 0 .3-.3l-.2-1.5-3-1.8c-1.7-1-3.6-2.3-4.8-3.2-1.2-1-.5-.8 0-.5.3.4 2 1.4 3.7 2.4 1.6 1.2 4.2 2.7 4.2 2.7s0-.6.4-1 1.2-.2 1.2-.2l-.7-.8c-.2-.4-1.5-1-3-1.6-1.7-.6-4.5-2.7-6.5-4.4-2-1.8-6-6-6.3-6.5-.3-.3-.5-.2-.5.2 0 .5-.2.8.3 2.8.4 2 2.3 6.2 6.5 9.5zM254.3 112l1.4 2.4 1 1.6s0-.3 0-1-.3-1.3 0-2.3v-1.5c0-.5 0-1-.2-1.2 0-.6-.7-3-1-4.8-.3-1.7-.6-4.2-.6-6.4s.2-1 .2 0 0 2.7.5 5.2c.3 2.5 1.4 6.3 1.4 6.3l.4-1.4 1.3-3c.4-1 .2-1.2.2-1.2s-1.5-7-2-10.4l-1-12c-2 2-3.7 7.8-4 13.2-.2 4 .5 8 .6 9.4.4 3 1 5.4 1.7 7zM249.6 123.2c0-1.6.4-2.8 1.4-3.2 0 0-1-1.6-1.7-4-.5-1.4-1-3.4-1.2-5-.5-3.8-1-7.7.2-1.3 1 6.4 2.5 8.7 2.5 8.7l1.6 2.6c-.2-1-.3-2-.2-3.2s.3-3 .7-4.4c0 0-2-4-3.2-8.7s-2-9-2-11.7c0-2.4-.2-3.4-.2-3.4s-2 1.5-2.7 9.3c-.6 7.6 1.4 15 2.4 17.8 1 3 2.6 6.4 2.6 6.4zM271.7 182.2l-1.3-.8c-1-.6-.6-2.4-.6-2.4l-1 .6-2.5 1.5-2 1c-.6 0-.5-.2 0-.5l2-1c1.3-.4 3.8-2.7 3.8-2.7h-1.5l-2.4-.7s-1 1-5.2 3c-4.3 1.8-8 2.2-8 2.2s.5 2.2 2.6 3c1.7.7 4 1 8.6 0s7.7-3 7.7-3zM277.3 186.6c.4-1.8-.7-3-.7-3l-.8.7c-.7.5-1.6 1.6-3.4 2.5s-2.4 1-.7 0 4.3-3.6 4.3-3.6l-.7-.3c-.7-.3-1.8 0-6.6 3s-7.7 3-7.7 3 2.2 2.6 8 2.4c6-.2 8-3 8.3-4.8zM288.3 184.5s-.6 1-1.5 1.5-3 1-3 1l-.7.8c-.3.5-1.3 2-2.3 2.7-1 .7-2.7 1.2-2.8 1s1-.6 2-1.2c.8-.6 1.7-1.7 2.4-2.5s-.3-.7-.3-.7H280c-1 0-1 0-1.2.6s-.8 1-1.6 2l-3 3.4c-.6.8 0 1 0 1s.2.5 2.7.8c1.6.2 3.4 0 5.2-1 1-.7 2.2-1.8 3.4-3 3-3.5 3-6.3 3-6.3zM289.7 191.5c-.6 1-1 1.2-1 1.2s.5-1.4 1-2c0-.3.3-.7.5-1-.5-1-.8-2-1-3-.4 1-1.3 3.6-2.4 5.4-1.3 2.2-2.5 3-1.7 3.6.8.6 2.3.7 4 0 1.7-1 2.2-2.4 2.4-3.5l-.8-1.3c-.2 0-.5.4-1 .8z"/><ellipse rx="1.2" ry="1.1" cy="105.8" cx="289.3" fill="#d4af3a"/><path fill="#d4af3a" d="M286.8 103.7c1 0 1.7-.6 3-.4 1.3 0 3.2 1 5.6 2.2 1.8.8 4.2 1.2 6.5.5.6 0 1.2-.5 1.8-1 3-1.5 2.2-4.6 2.2-4.6-2 1.5-4.7 2.3-7 2 0 0 0 .3.5.7.4.5 1.2 1 1 1.2-.3.2-1.4-.8-2.2-1.4-1-.7-2.2-1.6-4.4-2.2-2.3-.6-4.8-.7-6.4.2-1.6 1-1.8 2-1.6 2.6.2.2.5.3.8.3zM317.6 126.8c-.5 0-1.3-.3-2.5-1.3-1-1-3.8-4-4-4.7-.4-.5-.3-1 .5-1.3.8-.4 1.3-1.4 1.3-1.4s-1.7-.5-2.8-1.3c-1-1-3.8-3.2-4.2-3.8s0-.8.4-1c.6-.2.7-.6.7-.6l-2.5-1.7-2.7-2.4c-1.7.7-4.4.4-5.8 0-2.6-.3-4.5-1.4-4.5-1.4l-.4 1c-.2 1-1.4 1.4-2.6.6-1.2-.8-1-2.5-1-2.5s-1-.5-2.8-1.2-3.6-.8-5.2 0c-1.6.6-2.4 2.8-2.4 4.5 0 1.6 1 1 1 .7.3-.2.6-1.4 2.7-1.7 2-.4 3.8.6 6 2.5 2.4 2 3 2 4 3.2 1.2 1.2.2 1.8-1.7 2.5s-4.5-.7-4.6-.6c-.4 0 .8 1.8 2.5 2.5 1.6.6 3.8.2 5.5-.5 1-.4 1.3 0 1.7.4 1.8 2 2.3 3.8 2.6 6 1-.3 1.6-1.2 1.8-2 0-.4.2-1.2.8-.6.6.6 1 4 1 5.4s-.3 3.5-.3 3.5h.5c.3 0 1-.4 1.6-.8.8-.5 1 0 1 .8s0 2.4 1.2 5.2 2.7 3.7 2.7 3.7.3-.6.6-1.7c.3-1 .5-3.2.5-5s-.4-6-.4-6 2.3 2.8 4.7 3.5c2.4.6 4.7.2 5.8-1 1-1 0-1.6-.4-1.7zM302 134l-1 2.2-.7.7s.7.5 1.8.8l2 .5s-1-1.6-1.5-2.7l-.5-1.6z"/><path fill="#d4af3a" d="M316.3 133l-.6-1.3c-1.4.3-4.2-.4-5.4-1 0 0 1 2 2.2 3l1.2.7s-1 .2-2.5-1.3c-1.5-1.3-2.2-3-2.2-3s.4 4-.2 6.2l-.7 2.7s3.2.4 6.6-.5c3.5-1 3.7-1.3 3.7-1.3s.5 0 0-.8c-.6-.7-1.7-2.4-2-3.3z"/><path fill="#b96b29" d="M310 124.6l-1.2-1.5s-.3.5 0 1c.3.6 1.8 2 2.8 2.5 1 .6 2 .7 2 .7v-.2s-2.5-1-3.6-2.4zM305.8 132.7l-.3-5.6-.4-.4-.5.2 1 7c.2 1 .6.8.8.8-.4-.2-.5-1.7-.5-2zM299.3 111.7c-.4-.4-1.3-.7-.5.3 1 1 2 2 2.3 3 .5 1 .7 2.3 0 2-.5-.2-1-.2-1.5-.7l-2-1.5c-.6 0-1.4 0-.8.8.7.7 1.4 1.4 2.7 2.3l2.6 1.7 1.3.8s-.6-4-1.6-5.7-2-2.7-2.5-3zM278 178c-1 .5-2 .7-2 .7s-.4 0-.4.2.5 0 1-.2c.8 0 1.6-.7 2-1 .2-.2.6-.5.5-.8 0-.4-.3.3-1 1zM284.8 181.6l-1.5 1.2-1 .4-.4.4s0 0 .4 0c.5-.2 2-1 2.3-1.5.5-.3.7-.4.5-.6l-.4.2zM257 132c0 .2.4.6.6.5 0 0 0-.3-.4-.7l-.5-.5-.8-1c-.3-.3-.8-.5-.2.2l1 1.4zM254.8 136.6l1 1s.4.6.6.4c.2-.2-.5-.6-.8-1l-1-1-.8-.5 1 1zM255.5 144c.6.6 1.3.8 1.4.6 0-.2 0-.4-.5-.6l-1.6-1-1-.7c-.3-.3-.6-.5-.7-.4l1 1c.3 0 .7.5 1.2 1zM257 150s0-.2-.3-.3h-1s-1-.4-1-.2c0 0 .7.5 1 .5.4 0 .8.2 1 .3.2 0 .4 0 .4-.2zM257.7 156.6c-1 0-1.7-.2-1.8 0s.4.3.8.5c.5.2 1.4.3 2 .3s.7 0 .7-.4-.8-.4-1.8-.4zM265 163.8c0-.2-.4 0-1 0-.4.2-1.3.3-1.8.3h-1.6l-.6.2 2 .2c1 .2 2 0 2.5 0 .5-.2.7-.5.6-.6zM268 169h-1.3l-1.5.3s-.5 0-.4.3c0 .2.2 0 .7 0h1.5c.8 0 1.2-.3 1.7-.4.5 0 1-.3.7-.6-.2-.3-.7 0-1.3.3zM274 172.7c-.3.4-1.6 1.2-1.6 1.2l-.7.4s-.5.3-.4.5.4-.3.7-.5l1.6-1c.5-.4 1-.8 1-1 0-.3-.2 0-.6.2zM264.2 123l1 1.4c1 1.3.6 0 .3-.3l-2.2-3c-.5-.5-.6-.2-.4.2l1.2 1.7zM262 129.4c.2 0 0-.3-.7-1l-1.8-2.2s-.3-.7-.4-.6c0 0 .5 1 1 1.6l1.4 1.8s.5.6.6.4zM265 141.7c0-.3-1.3-.3-1.8-.4l-1.5-.3s-1-.2-1 0c0 0 0 .2.7.3l2.2.5s1.3.3 1.3 0zM262 135c.8.7 1.3 1 1.7 1.2.4.2.7.6 1 .3.2-.2-.2-.4-1-.7l-1-.6-.6-.3c-.2-.3-.7-.5 0 0zM268.6 130.7l-.8-.6s-.6-.5-.7-.3c0 .2.7.8 1 1 .5.4 1 1.4 1.4 1.2.4-.3-.3-1-.8-1.3zM264.3 147.8l-1 .3s-.5.4.3.4 1-.2 1.8-.3c.7 0 1 0 1-.4-.2-.2-.6 0-1 0s-1 .3-1 .3zM265.5 154c0 .2.5 0 1 0l1.6-.8c.5 0 .5-.2.5-.5 0-.2-.5 0-1 .2-.7 0-1.5.7-1.5.7l-.5.4zM273.5 157.8c.5-.3.6-.6.5-.7-.2 0-.4 0-1 .3-.3.4-1.2 1-1.2 1l-.7.3s-.7.4-.6.6c0 .2.8 0 1.2-.3.4-.4 1.3-.8 2-1.2zM277.3 162.8l1-.6c.4-.2.6-1 .4-1s-.4.3-1 .7l-2.2 1.4-.5.2c-.5.2-.3.4 0 .3.5 0 .8 0 1.3-.5l1-.7zM282.8 167.5c.5-.2 1.2-.8 1.5-1 .4-.4.8-.8.5-1-.2 0-.5 0-1 .5l-1.3 1.4-.7.5c-.5.3 0 .2.2 0l.8-.5z"/><path fill="#d4af3a" d="M305.6 96.6l2.2-1.6-2.6-.7-1.7 1.4z"/><ellipse rx="2.1" ry="2.1" cy="94.7" cx="312.8" fill="#b96b29"/><ellipse cx="312.8" rx="1.3" cy="94.3" ry="1.2" fill="#d4af3a"/><path fill="#d4af3a" d="M308.3 87.6c.6.2 1.3 0 1.3 0s.2-.8-.3-1.3l-1.3-1-.4-.5V86c0 .6 0 1.4.7 1.6z"/><ellipse cx="309.4" rx=".4" cy="88.7" ry=".4" fill="#d4af3a"/><path fill="#d4af3a" d="M306.5 88.3l-.5.6s.4 0 .8 0c.3.4.8.6 1.2.5.4 0 .6-.4.5-.7 0-.3-.3-.6-1-.8-.6-.3-.8 0-1 .2zM308 90.8c-1.3 0-3-1.4-3-1.4-.3 1.2-1 1.8-2.2 2s1.2.6 2.4.8h1.7l2-.7c.7-.6.5-2 .5-2s0 1-1.5 1.3zM302.8 89.4c-.6-.2-1.4-.6-1.8-.6-.3 0-.8 0-.7.5 0 .7.7 1 1.4 1 .6 0 1-.2 1.3-.4.4-.3.3-.4-.2-.6zM298.5 87l-1-.4s-.5 1-.3 1.6c.3.7.7 1 1.3.8.6 0 1.4-.3 1.2-.7-.3-.4-.6-.8-1.2-1.2z"/><ellipse cx="299.1" rx=".5" cy="90" ry=".3" fill="#d4af3a"/><path fill="#d4af3a" d="M300.4 85c-.4-2-.3-3.8 1.4-6.3 1.6-2.5 4.6-3.5 4.6-3.5l1-1c1-1 2.8-2.4 2.8-2.4l-3.4 1c0 1-.7 1.6-1.5 1.6-.4 0-.7 0-1-.3-.6.2-3 1.6-3.4 2v1c0 .7-.6 1.4-1.4 1.4-.3 0-.5 0-.7-.2l-.3.4c-.5 1-.8 1.7-1 2.5.3.3.6.8.6 1.4 0 .8-.6 1.5-1.3 1.5v1c0 .4.2.7 1 1 1 .2 2 1.8 2 1.8.2 0 .8-1.2.4-3z"/><path fill="#d4af3a" d="M305.7 73.5c.4-.3.4-.6.2-1-.4 0-1 0-1.2.2-.3.2-.3.6 0 1 .2 0 .6 0 1-.2zM300 77.3c.5-.3.5-.8.2-1-.2-.4-.8-.3-1 0-.5.3-.5.8-.3 1 .2.4.7.3 1 0z"/><ellipse cx="296.7" rx=".9" cy="82.1" ry=".9" fill="#d4af3a"/><path fill="#d4af3a" d="M315.5 70c-.4 0-1.2.4-2.5 1 1 0 1.6.6 1.6 1.3 0 .7-.8 1.5-1.7 1.5s-1.6-.7-1.6-1.5c0 0 0-.3.2-.4-.4 0-.8.3-1.2.6-2.8 2-3.5 2.8-4.8 5.4-1.4 2.5-2 5.3-1.3 7 .6 1.6 2.8 2 2.8 2s0-.3-.2-.6l.2-1v-1.5s.5 0 .8.2l1 1c.2.4 1 1 1 1s.4-.5.4-1.3-.5-1.6-.6-3 .6-3.6 2-5.3c1.2-1.7 3.6-3.3 4.3-3.6.6-.2.7-.8.8-1v-1.4c.2-.8-.5-.7-1.3-.6z"/><path fill="#d4af3a" d="M312.8 73c.5 0 1-.5 1-1 0-.3-.5-.6-1-.6-.4 0-.8.3-.8.7s.3 1 .8 1zM317 89.2c.6.3 1.3.2 1.7 0 .3-.3.5-1 0-1.3-.4-.4-1-.4-1.4-.2l-1.3 1s.2.2 1 .4z"/><path fill="#d4af3a" d="M319 90c-.2.4-.4.6-1 .6s-1.7 0-2-.5c-.6-.4-1-1-1-1h-.8s-.3 1-.6 1.4c-.4.4-1.7.4-2.3 0s-1-1-1-1 0 .6.4 1c.6.6 1 1 2 1h5.3s1 0 1.4-.7c.3-.6.3-1 0-1.2l-.4.5z"/><path fill="#d4af3a" d="M311 89c.8.5 1.2.3 1.5 0l.3-.6-1-.5c-.5-.3-.7-.5-1-.5h-.5s0 1.2.7 1.6z"/><ellipse cx="307.1" rx="1.8" cy="81.2" ry="1.8" fill="#b96b29"/><path fill="#b96b29" d="M310.2 75c-.7-.3-1.8 0-2.3.6-.7.7-.6 1.7 0 2 .8.6 2 .4 2.4-.3.6-.7.5-1.7-.2-2.2z"/><ellipse cx="307" rx="1" cy="81" ry="1" fill="#d4af3a"/><path fill="#d4af3a" d="M309.4 75.3c-.4 0-1 0-1.2.5-.2.4 0 1 .6 1 1 .2 1.7-1.2.6-1.5z"/></g><g><path fill="#D4AF3A" d="M282.3 212.7s-2.7 1.3-3.6 1.5l-1 .3s-2 1.7-3.3 2.5c-1.4.8-3 1.4-4.7 1.6-2.2.2-8 .2-10.7 0s-4.3.6-5.4 2c-1.2 1.2-1.4 3 0 4.4s3 .7 3.6-.2c.5-.8.3-2 0-2.4-.2-.5.5-.7 1.2-.7.8 0 2 0 3 .2 1.3 0 3.3.7 4.2 1.2.8.5.3.5-.3.4l-2.3-.7c-1-.5-2-.7-2.7-.7-.6 0-.4.3-.3.5l.6 1-.2 1.4.4.6.5-1v-1.2s.8-.3 1.2.2c.5.5 1 1 1.2 2.4.2 1.2-.2 2-.2 2s.6.6.7 1l-.2 1.4s.4.2.7-.5c.4-.6.8-1.8 1-2.3 0-.4.3-1.2.8-.6s1 1.4 1 1.8v.7s1.3-1.2 1.7-2 1.2-1.5 2.4-2.5c1-1 3-2.8 4-3.4 1-.7 3.5-2 4.3-2.5s.8-.4 1-1.7c0-1.3.7-2.5 1-3.4l.3-1.3zM238.5 163.5l-.6-1.4c-.2-.3-.6 0-.6 0l-1.5.6s-1 0-1-.4c0-.3 0-1.4-.3-2 0-.8-.2-.8-.5-.7-.3 0-1 .4-1.6.7-.6.2-.4.5-.2.8l1 2c.4.6 0 .8-.2 1-.4 0-.8 0-1.5.4s-.6.3-.6.6l1 1.5c0 .5.4.2.4.2s.7-.7 1.3-1c.6-.3.6-.2.8.3 0 .4.8 2.8 1 3.2 0 .5.3.4.6.3l1.2-.3c.4 0 .5-.8.5-.8l-1.7-3c-.3-.6 0-.8.3-.8l1.7-.3c.7-.2.5-.6.5-.8zM253.3 228c0-.7 0-1.2-.4-1.7-.5-.4-1-1.3-1.3-2-.2-.7.2-1 0-1.4 0-.5-.5-.5-1 0-.5.3-1.2.7-1.2 2s.4 2.8 2.2 3.3c1.8.6 1.8.2 1.7-.4zM255.2 227.3s-.4-.2-.6 0 0 .6.3 1.3.7 1 1.3 1.3c.5.2 0-.5 0-.7v-.6c-.2-.2-.3-.4-.3-1 0-.4-1-.4-1-.4z"/><path fill="#D4AF3A" d="M257.3 233.3c.4-.5.7-.6 1.5-1s2.2-.5 2.7-.6c.5 0 1.7-1 1.5-2-.2-1-1-1.4-1.5-1.5s-1.2-.2-1.4 0c0 .4-.5.8-1.2 1s-.8.5-1.2.7c-.5 0 0 .3-.5.6-.3.3-.8 0-1.4-.2-.5-.2-.6-.3-1.2-.3H252h-.3c-.4 0-.4 0-.6.4 0 .4 0 1.4.5 2 .4.4 1.7.7 2.6 1l2.2.4c.7.2.8 0 1-.5zM265.4 234c.8-.3.4-1 .2-1.6-.2-.6-1.2-.7-1.7-.7s-.8 0-1 .3c-.4.2-.7.6-1.5.8l-2.3 1c-1 .3-1.3 1-1.7 1.2-.4.3-1.3 0-1.3 0s-.6 0-.8 0c-.2.2 0 .5.4 1 .4.4 1.2.4 2 .6 1 .3 1 0 1.4 0 .4-.4.6-1 1.2-1.2.6-.4 2-.5 2.6-.5.6-.2 1.8-.4 2.5-1zM265.4 231c.4.4.7.7 1 .3.2-.5.7-1.4.4-2l-.7-1-.6 2c-.3.5-.2.5 0 .8zM262.7 226.4c0-.8-.6-2-.6-2l-.4 1.6c-.4.7-.8 1-.8 1l1.2.3s.7 0 .7-.8zM257.7 228.3c1-.2 1.5-.6 2-1s.5-1 .2-1.6c-.3-.5-1-1-1.3-1h-.5s-.2 1-.6 1.3c-.4.5-.8.8-.8 1.3 0 .6 0 1.2 1 1zM259.6 224c0-.4 0-1-.4-1.2l-.5-.5v1l-.2.5.5.4c.2 0 .6.3.6-.2zM248 200.3l.7-4c-.5-4-2.5-7.7-4.2-10.3-1.6-2.6-3.3-6.6-4-8.8-.8-2-1.3-5-1.3-6.6 0-1.6.7-2.4.7-2.4s.2-.4 0-.7c-.3-.2-.8 0-1.2.4s-.8 1-1 1.7l-.2.7s-.8-.2-2.2 0c-1.3 0-2 .2-2 .4 0 .3.2.6 1 1 1 .4 1.7.6 2.2 1 .5.7 1.7 3.6 2 5 .5 1.4 1.3 5.2 1.6 8.2s1.4 6.5 2.8 9.5c.4 1 3 5.7 5 4.8zM250.5 207.2c-1 .5-1 4.3-.5 6.2.5 2 2.4 4.4 3 5 .5.6.6.6 1 .5l.4-.3s.8-.3 1.4-.7c.6-.5.4-1.7.3-2.8 0-1-.8-3-2.3-5.6-1.5-2.4-2.3-3-3.2-2.4zM251.5 204.2c0-1.2-1-2.2-2.2-2.2-.6 0-1 .2-1.4.5-1.4 1-.6 4 1.2 4 .6 0 1.4-.3 1.8-.7.4-.4.5-1 .5-1.6zM269.2 239.3c-.5 0-.8-.3-1.5-.8-.7-.4-1.8-1.4-2-2-.3-.4-.3-.4-1-.2-.6.2-1.6.2-2.3.2-.8 0 0 1 .6 1.6.5 1 .3 3.5.3 3.5v.6c-.2.5 0 .8 0 1 .3 0 .4-.2 1-.8l1.4-2.2 1 .2s2 0 2.7 0c.6-.3.3-.8-.2-1z"/><path fill="#D4AF3A" d="M266 241.3c-.2 0-.3 0-.5.2s-.3.6-.4 1c0 0 0 .3.2.5.2 0 .5.3.5.3l.6.5c.3.2.3-.3.3-.6l.2-1.3s-.3-.6-.6-.7z"/><path fill="#1D5E91" d="M396.6 216c-.8 0-1.2-.4-1.2-.4s-.3 0-.6.5c-.3.6-1.4 1.3-1.4 1.3s-1.5.4-1.7 1.4c-.2 1 .5 1.4 1.3 1.3.7 0 2.4-.5 3.2-1.4.7-1 1-1.5 1-1.8.2-.4.2-.5-.6-.7zM399 207.8c-.6-2.3-2-5-5-6.5l-1.3 5c-.4 1-.4 1 .6 1.4l4.4 1s1.6.7 1.3-1zM385.3 205.7c.7 0 .6-.2.8-1 .4-1 1.6-5.5 1.6-5.5s-3-.2-5.7 1c-2.7 1.4-4 3.7-4 3.7l2.6.6c1.8.4 4 1 4.7 1zM378.3 212l-1.5-.4s.7 2.6 1.8 4c1 1.5 2.3 2.2 4.7 2.3 2.3 0 4-1.4 4.3-2.4.3-1 .8-1.7.8-1.7s-4.2-.7-6-1l-4.2-1z"/><path fill="#D4AF3A" d="M377.6 210.3c1 .3 9.5 2 10.2 2 .8.2 1.4.4 1.6.2.2-.2.3-.3 1-.6.8-.4.8-1.2.8-1.2l.2-1.4c0-.7.5-1 1.3 0 1 .8 1 2 1.2 3.3 0 1.2 2 1.6 2.8 1.7.7 0 1 0 1.5-1 .5-.6.7-2 .8-3 .2-.8.2-.8-.8-1L392 208c-.8-.2-.6-.8-.5-1.3l2-6.2c-1.4-.8-3-1.2-5.2-1.5l-1.5 6.7c-.3.8-.8.8-1.8.7l-7.5-1.7-.5 1.2c-.5 1-.8 2.6-.8 3.4s.3.7 1.3 1z"/><path fill="#D4AF3A" d="M400.2 215.5c-1-.6-1.5-.7-2 .4-.4 1-.5 2.5-1.6 3.6-1.2 1-2.8 2.3-4.4 2-1.6 0-2.5-.4-2-2.2.3-1.8 2.7-2.4 3.3-3.4s.4-2-.4-2.7c-.8-.8-2-1-2.3-.7-.4.2-1.4 1-2 2.5-.4 1.4-.7 2.5-1.8 3.4-1 1-4 1.8-6 1.3s-3-1.2-3.7-3.3c-.8-2-1.8-5.6-2.2-6-.3-.3-.8-.6-1.8 0-1 .7-1 1.6-1 2.4-.2.8 0 1.6 1 2.7.8 1.2 1.7 2.3 2 3.4.4 1 1.4 2.8 0 3-1.5 0-2 0-3.2-1-1-1-5.4-4-6.6-5l-1.7-1.3c-2 0-4-.8-6-2.2l1.4 4 .3 1.8 6 3 7 4c1.6 1 3 2.5 6 2 3-.7 9-2.5 11-3 2-.7 7.3-2 9.3-3.4s2-1.4 2.5-2.8c.4-1.3 0-2-.8-2.7zM388.7 195l1.5-.3c1 0 .6.8.5 1.2l-1 1.7c-.4.8.2 1 .5 1s.7 0 1.5.4c.8.3.7-.3.7-.6V196c.2-.7.7-.5 1-.4l1 .6c.5.2.7 0 .8-.3l.4-1.4c.2-.7-.2-.5-.6-.5h-1.6c-.7 0-.3-.6-.3-.6l1-1.4c.4-.6.3-.7 0-.8-.5 0-1.7-.4-2-.5-.3 0-.5 0-.5.2v1.7c0 .5 0 .7-.6.8-.7 0-1-.4-1.5-1-.5-.4-.7-.2-.7 0l-.6 2c0 .5.2.5.5.4zM392 209.4l-.2 1.6c-.2.4-.4 1 0 1 .5.3 1 .5 1.2.4.3 0 .2-.6 0-1 0-.6-.4-1.2-.7-1.6l-.4-.4zM399 214c0 .4.4.5.6.5.3 0 .6 0 .6-.3s0-1-.3-1.5c-.4-.5-.6-.8-.8 0-.2.6-.4 1-.3 1.3zM374.5 209.4l1 .2v-1.8c.3-.8.6-1.3.3-1.3s-.4.2-.6.6c-.2.4-.8.5-1 1.4-.2 1 0 1 .3 1z"/><circle cy="207.4" cx="379.3" r="1.6" fill="#B96B29"/><circle cy="208.5" cx="383.6" r="1.6" fill="#B96B29"/><circle cy="211.2" cx="396.4" r="1.6" fill="#B96B29"/><circle cy="209.6" cx="388" r="1.6" fill="#B96B29"/><circle cy="205.7" cx="389.2" r="1.6" fill="#B96B29"/><circle cy="201.9" cx="390.3" r="1.6" fill="#B96B29"/><circle cy="207.3" cx="379.4" r=".8" fill="#D4AF3A"/><circle cy="208.4" cx="383.8" r=".8" fill="#D4AF3A"/><circle cy="211.1" cx="396.5" r=".8" fill="#D4AF3A"/><circle cy="209.4" cx="388.2" r=".8" fill="#D4AF3A"/><circle cy="205.6" cx="389.3" r=".8" fill="#D4AF3A"/><circle cy="201.8" cx="390.4" r=".8" fill="#D4AF3A"/></g><use xlink:href="#a" transform="matrix(-1 0 0 1 640 0)" height="320" width="640"/></svg>