<svg xmlns="http://www.w3.org/2000/svg" xmlns:xlink="http://www.w3.org/1999/xlink" width="1000" height="600" viewBox="0 0 1000 600"><defs><linearGradient id="a"><stop offset="0" stop-color="#025"/><stop offset=".5" stop-color="#04a"/><stop offset="1" stop-color="#025"/></linearGradient><linearGradient id="b"><stop offset="0" stop-color="#f5f549"/><stop offset="1" stop-color="#97c924"/></linearGradient><linearGradient id="c"><stop offset="0" stop-color="#f5f549"/><stop offset="1" stop-color="#97c924"/></linearGradient><linearGradient id="d" gradientUnits="userSpaceOnUse" x1="1269.8" y1="418.8" x2="1447.9" y2="418.8" gradientTransform="matrix(1.6854 0 0 -1.6854 -1282 1273.6)"><stop offset="0" stop-color="#025"/><stop offset=".5" stop-color="#04A"/><stop offset="1" stop-color="#025"/></linearGradient><linearGradient id="e" gradientUnits="userSpaceOnUse" x1="1263.4" y1="408.9" x2="1463.4" y2="408.9" gradientTransform="matrix(1.6854 0 0 -1.6854 -1282 1273.6)"><stop offset="0" stop-color="#025"/><stop offset=".5" stop-color="#04A"/><stop offset="1" stop-color="#025"/></linearGradient><linearGradient id="f" gradientUnits="userSpaceOnUse" x1="1650.7" y1="195.8" x2="1650.7" y2="184.8" gradientTransform="matrix(1.6854 0 0 -1.6854 -1625.3 801.3)"><stop offset="0" stop-color="#F5F549"/><stop offset="1" stop-color="#97C924"/></linearGradient><linearGradient id="g" gradientUnits="userSpaceOnUse" x1="1654.7" y1="195.8" x2="1654.7" y2="184.8" gradientTransform="matrix(1.6854 0 0 -1.6854 -1673.1 801.3)"><stop offset="0" stop-color="#F5F549"/><stop offset="1" stop-color="#97C924"/></linearGradient><linearGradient id="h" gradientUnits="userSpaceOnUse" x1="1654.7" y1="195.8" x2="1654.7" y2="184.8" gradientTransform="matrix(1.6854 0 0 -1.6854 -1720.9 801.3)"><stop offset="0" stop-color="#F5F549"/><stop offset="1" stop-color="#97C924"/></linearGradient><linearGradient id="i" gradientUnits="userSpaceOnUse" x1="1654.7" y1="195.8" x2="1654.7" y2="184.8" gradientTransform="matrix(1.6854 0 0 -1.6854 -1768.3 801.3)"><stop offset="0" stop-color="#F5F549"/><stop offset="1" stop-color="#97C924"/></linearGradient><linearGradient id="j" gradientUnits="userSpaceOnUse" x1="1658.8" y1="195.8" x2="1658.8" y2="184.8" gradientTransform="matrix(1.6854 0 0 -1.6854 -1816.4 801.3)"><stop offset="0" stop-color="#F5F549"/><stop offset="1" stop-color="#97C924"/></linearGradient><linearGradient id="k" gradientUnits="userSpaceOnUse" x1="1595.7" y1="161.5" x2="1827.2" y2="161.5" gradientTransform="matrix(1.6854 0 0 -1.6854 -1816.4 801.3)"><stop offset="0" stop-color="#025"/><stop offset=".5" stop-color="#04A"/><stop offset="1" stop-color="#025"/></linearGradient><linearGradient xlink:href="#l" id="t" gradientUnits="userSpaceOnUse" gradientTransform="matrix(8.6128 0 0 -5.1563 -10131.4 2007.1)" x1="1269.8" y1="418.8" x2="1447.9" y2="418.8"/><linearGradient id="l" gradientUnits="userSpaceOnUse" x1="1269.8" y1="418.8" x2="1447.9" y2="418.8" gradientTransform="matrix(1.6854 0 0 -1.6854 -1282 1273.6)"><stop offset="0" stop-color="#025"/><stop offset=".5" stop-color="#04A"/><stop offset="1" stop-color="#025"/></linearGradient><linearGradient xlink:href="#m" id="u" gradientUnits="userSpaceOnUse" gradientTransform="matrix(8.4153 0 0 -8.076 -9870.4 3217.8)" x1="1263.4" y1="408.9" x2="1463.4" y2="408.9"/><linearGradient id="m" gradientUnits="userSpaceOnUse" x1="1263.4" y1="408.9" x2="1463.4" y2="408.9" gradientTransform="matrix(1.6854 0 0 -1.6854 -1282 1273.6)"><stop offset="0" stop-color="#025"/><stop offset=".5" stop-color="#04A"/><stop offset="1" stop-color="#025"/></linearGradient><linearGradient xlink:href="#n" id="v" gradientUnits="userSpaceOnUse" gradientTransform="matrix(1.6854 0 0 -1.6854 -1625.3 801.3)" x1="1650.7" y1="195.8" x2="1650.7" y2="184.8"/><linearGradient id="n" gradientUnits="userSpaceOnUse" x1="1650.7" y1="195.8" x2="1650.7" y2="184.8" gradientTransform="matrix(1.6854 0 0 -1.6854 -1625.3 801.3)"><stop offset="0" stop-color="#F5F549"/><stop offset="1" stop-color="#97C924"/></linearGradient><linearGradient xlink:href="#o" id="w" gradientUnits="userSpaceOnUse" gradientTransform="matrix(1.6854 0 0 -1.6854 -1673.1 801.3)" x1="1654.7" y1="195.8" x2="1654.7" y2="184.8"/><linearGradient id="o" gradientUnits="userSpaceOnUse" x1="1654.7" y1="195.8" x2="1654.7" y2="184.8" gradientTransform="matrix(1.6854 0 0 -1.6854 -1673.1 801.3)"><stop offset="0" stop-color="#F5F549"/><stop offset="1" stop-color="#97C924"/></linearGradient><linearGradient xlink:href="#p" id="x" gradientUnits="userSpaceOnUse" gradientTransform="matrix(1.6854 0 0 -1.6854 -1720.9 801.3)" x1="1654.7" y1="195.8" x2="1654.7" y2="184.8"/><linearGradient id="p" gradientUnits="userSpaceOnUse" x1="1654.7" y1="195.8" x2="1654.7" y2="184.8" gradientTransform="matrix(1.6854 0 0 -1.6854 -1720.9 801.3)"><stop offset="0" stop-color="#F5F549"/><stop offset="1" stop-color="#97C924"/></linearGradient><linearGradient xlink:href="#q" id="y" gradientUnits="userSpaceOnUse" gradientTransform="matrix(1.6854 0 0 -1.6854 -1768.3 801.3)" x1="1654.7" y1="195.8" x2="1654.7" y2="184.8"/><linearGradient id="q" gradientUnits="userSpaceOnUse" x1="1654.7" y1="195.8" x2="1654.7" y2="184.8" gradientTransform="matrix(1.6854 0 0 -1.6854 -1768.3 801.3)"><stop offset="0" stop-color="#F5F549"/><stop offset="1" stop-color="#97C924"/></linearGradient><linearGradient xlink:href="#r" id="z" gradientUnits="userSpaceOnUse" gradientTransform="matrix(1.6854 0 0 -1.6854 -1816.4 801.3)" x1="1658.8" y1="195.8" x2="1658.8" y2="184.8"/><linearGradient id="r" gradientUnits="userSpaceOnUse" x1="1658.8" y1="195.8" x2="1658.8" y2="184.8" gradientTransform="matrix(1.6854 0 0 -1.6854 -1816.4 801.3)"><stop offset="0" stop-color="#F5F549"/><stop offset="1" stop-color="#97C924"/></linearGradient><linearGradient xlink:href="#s" id="A" gradientUnits="userSpaceOnUse" gradientTransform="matrix(4.8586 0 0 -4.869 -7062 816.1)" x1="1595.7" y1="161.5" x2="1827.2" y2="161.5"/><linearGradient id="s" gradientUnits="userSpaceOnUse" x1="1595.7" y1="161.5" x2="1827.2" y2="161.5" gradientTransform="matrix(1.6854 0 0 -1.6854 -1816.4 801.3)"><stop offset="0" stop-color="#025"/><stop offset=".5" stop-color="#04A"/><stop offset="1" stop-color="#025"/></linearGradient></defs><path fill="#0067C6" d="M0 0h1000v600H0z"/><path fill="#FFF" d="M0 200h1000v200H0z"/><g fill="#c8a400" word-spacing="0"><g style="line-height:125%;-inkscape-font-specification:Arial Bold" font-size="155" font-weight="normal" letter-spacing="19" font-family="Untitled"><path style="-inkscape-font-specification:Untitled" d="M431 344.3l-4.6 1 1.8 2.7 2.7-3.7zm.8-2.3l1.5 2.5-6 9-1.4-2.2 1.2-1.8-2.5-4-2.2.4-1.4-2.3L432 342zM429.3 356l7.3-6.6 2.5 2.8-3.8 7 7.2-3.4 2.5 2.7-7.5 6.7-1.6-1.7 6-5.4-7.7 3.6-1.8-2 4.3-7-6 5.2-1.5-1.7zM440 367.4l6.3-7.7 7 5.6-1.2 1.3-5-4-1.2 1.6 4.6 3.7-1 1.2-4.6-3.6-1.6 2 5.2 4-1.2 1.6-7-5.8zm13.8-6l-3.6.3-1-.7 3-1 1.6 1.4zM454.8 371.5l2.6 1.5c.5.3 1 .5 1.4.5.3 0 .6-.3 1-.7v-1c-.2-.4-.5-.7-1-1l-2.6-1.6zm-5 3.5l5-8.5 5.2 3c1 .7 2 1.4 2.2 2 .3 1 .2 1.6-.3 2.4-.4.5-.8.8-1.2 1-.5.2-1 .2-1.6 0 .4.4.6.8.6 1.2 0 .4 0 1-.4 1.5l-.6 1c-.3.5-.3 1 0 1.2l-.3.2-2.4-1.4c0-.2 0-.4.2-.6v-.3l.3-.5.5-1c.3-.4.4-1 .3-1.2 0-.3-.5-.6-1-1L454 373l-2 3.3zM461.7 381.6l4-9 2.4 1-4 9-2.3-1zM478.8 384.3c-.5 1-1.2 1.7-2.4 2-1 .4-2.4.3-4-.2-1.6-.4-2.8-1.3-3.5-2.5-.8-1.2-1-2.5-.4-4 .6-1.7 1.4-2.8 2.7-3.3 1.2-.6 2.8-.6 4.6 0 1.4.5 2.5 1.2 3 2 .8 1 1 2 .7 3l-2.3-.8c0-.5 0-1-.4-1.5s-1-.8-1.7-1c-1-.4-2-.4-2.6 0-.8.4-1.3 1-1.6 2.2-.3 1-.2 2 0 2.6.5.7 1.2 1.3 2.2 1.6.7.2 1.4.3 2 0 .5 0 1-.4 1.2-1zM487.6 381.3l-2.3 4 3.3.4-1-4.4zm-1.2-2.2l3 .5L492 390l-2.7-.4-.5-2.2-4.6-.7-1.2 2-2.6-.5 5.8-9zM516.7 385.3c0 1-.4 2-1.2 3-1 .7-2 1.2-3.7 1.4-1.8.2-3.2 0-4.4-1-1-.6-1.7-1.8-2-3.5-.2-1.6.2-3 1-4 1-1 2.4-1.7 4.3-2 1.5 0 2.8 0 3.8.5s1.5 1.3 1.8 2.4l-2.5.4c-.2-.5-.5-1-1-1-.5-.4-1-.4-2-.3-1 .2-1.8.6-2.3 1.3-.5.6-.7 1.5-.5 2.6 0 1 .5 1.7 1 2.3.8.5 1.6.7 2.7.5.8 0 1.4-.3 1.8-.7.4-.3.7-.8.8-1.4zM520.4 388l-2.7-9.6 8.5-2.5.5 1.6-6.2 1.8.6 2 5.7-1.6.5 1.6-5.6 1.6.7 2.5 6.4-2 .5 2-8.8 2.4zM532.6 384.2l-4-9 2.3-1 7.2 4-2.8-6.2 2.3-1 4 9-2.3 1-7.4-4 3 6.2-2.4 1zM547.6 376.5l-4.4-7-3 2-1-1.4 8.2-5.2 1 1.5-3 2 4.4 6.8-2.2 1.5zM553.6 365.4l2.2-2 1-1c0-.5 0-.8-.4-1.2-.3-.3-.6-.4-1-.4s-.8.2-1.2.6l-2.3 2zm1.8 6l-6.5-7.6 4.3-4c1-.8 2-1.3 2.7-1.3.8 0 1.5.2 2 1 .5.4.7 1 .8 1.4 0 .4-.2 1-.5 1.4.5-.2 1-.3 1.3-.2.4 0 .8.4 1.3.8l.7 1c.4.3.7.5 1 .4l.3.2-2 1.8c-.3 0-.4 0-.6-.2 0 0-.2 0-.3-.2 0 0 0-.2-.2-.3l-.7-.8c-.3-.5-.7-.7-1-.7-.3 0-.8.2-1.3.6l-2 1.7 2.6 3zM562.8 353l2.2 4 2.2-2.7-4.4-1.4zm-2.4-.2l1.8-2.3 10.5 3-1.7 2-2-.6-3.2 3.5 1 2-1.6 2-4.8-9.7zM574.4 350.8l-8.4-5.2 1.3-2 7 4 3-5 1.6 1-4.6 7.2z"/></g><g style="line-height:125%;-inkscape-font-specification:REPUBLICA 1" font-size="37" font-weight="normal" letter-spacing="24.1" font-family="Untitled"><path style="-inkscape-font-specification:Untitled" d="M415 310.4l-.2-3c0-.6-.2-1-.5-1.3-.2-.2-.6-.3-1-.3-.5 0-.8.2-1 .5l-.2 1.4.4 3zm5.8 2l-9.8 1-.6-6c0-1.3 0-2.4.4-3 .4-.7 1-1 2-1.2.6 0 1.2 0 1.6.3.4.3.7.7 1 1.3 0-.5.2-1 .5-1.2.3-.2.7-.4 1.4-.5h1.2c.5 0 1-.3 1-.6h.3v2.7c0 .2 0 .3-.4.3h-.3l-.4.2h-1c-.7.2-1 .4-1.3.7-.2.2-.3.7-.2 1.4l.2 2.6 4-.3zM420 298.8l-10-.7.6-8.7h1.7l-.4 6.4 2 .2.4-6 1.7.2-.3 5.8 2.5.2.5-6.7 1.8.2-.6 9zM416.5 282.4l.5-2.3c.2-.6.2-1 0-1.4 0-.4-.4-.6-1-.7-.4-.2-.7-.2-1 0-.4.3-.6.7-.7 1.3l-.6 2.5zm1.7.4l3.5 1-.6 2.3-9.6-2.2 1.3-5.3c.3-1.2.8-2 1.4-2.6.8-.6 1.7-.8 2.7-.5 1 .2 1.7.7 2 1.5.5.7.5 1.7.2 2.8zM415 270.5l.8-2.3 5.8 2.4c.7.2 1.3.3 1.8 0 .4 0 .8-.6 1-1.4.5-.8.5-1.4.3-2 0-.4-.6-.7-1.3-1l-5.8-2.4 1-2.3 6 2.4c1 .4 1.8 1 2 2.2.4 1 .2 2.2-.4 3.7-.6 1.3-1.3 2.3-2.3 3-1 .4-2 .5-3 0zm-.4-8l1.3 3.3-.5 1-1.7-2.3zM429 259.2l1.7-2.5c.4-.7.5-1.2.5-1.5 0-.4-.2-.7-.6-1-.4-.2-.7-.2-1 0-.4 0-.8.5-1 1l-1.7 2.6zm-3.5-2.3l1.5-2.5c.3-.5.5-1 .5-1.3 0-.3-.2-.6-.5-.8-.3-.2-.6-.2-1 0-.2 0-.5.4-.8 1l-1.5 2.4zm4 5.2l-8.6-5.2 3-5c.6-1 1.3-1.7 2-2 .7-.4 1.4-.3 2 0 .6.4.8.7 1 1 .2.5.2 1 0 1.4.6-.4 1-.6 1.6-.7.5 0 1 0 1.5.4 1 .6 1.3 1.3 1.4 2.2 0 1-.3 2-1 3.2zM436.8 251l-7.6-6.6 1.7-2 6 5.4 4-4.5 1.3 1.2-5.5 6.4zM444.5 242.4l-6.8-7.2 2-1.7 6.6 7.2-1.8 1.7zM456 229c.5 1 .6 2 .2 3-.4 1.2-1.3 2.3-2.6 3.2-1.4 1-2.8 1.5-4.2 1.3-1.3 0-2.5-1-3.5-2.2-1-1.4-1.4-2.7-1-4 .2-1.4 1.2-2.6 2.7-3.8 1.3-1 2.5-1.3 3.6-1.4 1 0 2 .5 2.7 1.4l-2 1.4c-.4-.3-1-.5-1.5-.5s-1 .3-1.7.7c-1 .7-1.4 1.4-1.6 2.2 0 .8.2 1.7.8 2.6.6.8 1.4 1.3 2.2 1.5.8 0 1.6 0 2.5-.7.6-.5 1-1 1.2-1.5v-1.6zM462.3 220.6l.3 4.5 3-1.3-3.3-3zm-2.2-1.2l2.8-1.2 8.2 7-2.4 1.2-1.6-1.5-4.3 2 .2 2-2.6 1.2-.3-10.8zM486.8 219.3l2-.3c1.2-.2 2-.5 2.5-1 .4-.6.6-1.4.4-2.6 0-1-.5-1.8-1-2.3-.6-.3-1.4-.5-2.4-.4l-2.3.3zm-2.2 2l-1.3-9.8 4.8-.6c2-.3 3.4 0 4.4.6 1 .7 1.7 2 2 3.5 0 1 0 1.8-.3 2.6-.2.7-.6 1.3-1.2 1.8-.4.4-1 .7-1.5 1l-2.6.4zM498.4 220l.3-10 9 .3-.2 1.7-6.3-.2v2l5.7.3v1.8l-6-.2v2.6l6.6.2v1.8l-9.2-.3zM521.8 223l3.3-9.5 2.6 1 2.4 8 2.3-6.4 2.3 1-3.3 9.2-2.4-.8-2.6-8-2.3 6.3-2.2-.8zM534.5 228l4.5-9 2.2 1-4.4 9-2.3-1zM551 234c-.6.8-1.6 1.2-2.7 1.2-1.2 0-2.5-.4-3.8-1.3-1.5-1-2.4-2.2-2.7-3.6-.3-1.3 0-2.6 1-4 .8-1.4 2-2.2 3.3-2.4 1.5-.2 3 .3 4.5 1.4 1.3.8 2.2 1.8 2.6 2.8.5 1 .4 2 0 3l-2.2-1.4c.2-.5.2-1 0-1.5s-.6-1-1.3-1.4c-1-.7-1.7-1-2.6-.8-1 0-1.6.7-2.2 1.6-.6 1-.8 1.7-.7 2.6.3.8.8 1.5 1.7 2 .6.5 1.2.7 1.8.7.6 0 1 0 1.5-.5zM561.2 237l-4 1.8 2.3 2.3 1.7-4zm.4-2.5l2 2-3.7 10.2-2-1.8.8-2.2-3.4-3.3-2 1-2-2 10.2-4zM568 248l1.7 2.4 1 1c.4 0 .8 0 1.2-.3.2 0 .4-.5.4-.8 0-.4-.2-.8-.5-1.3l-2-2.6zm-6 1.2l8-5.8 3.5 4.8c.8 1 1.2 2 1.2 2.8 0 .8-.4 1.5-1.2 2-.5.4-1 .6-1.5.5-.5 0-1-.2-1.5-.6.2.4.3 1 0 1.3 0 .3-.3.7-.8 1l-1 1c-.5.2-.7.6-.6 1l-1.7-2.2s0-.2.3-.3c0 0 0-.2.2-.3 0 0 .2 0 .3-.2l1-.7c.4-.4.7-.7.7-1 0-.4-.2-.8-.6-1.4l-1.4-2-3.2 2.2zM579.2 261.8l-4.5.3 1.4 3.2 3.2-3.4zm1.2-2.2l1.2 2.7-7 8.2-1.2-2.3 1.5-1.7-2-4.2h-2.3l-1.2-2.3 11-.4zM579.2 282c-.6-.2-1-.6-1.4-1l-1-2c-.4-1.6-.3-3 .4-4.4.6-1.2 1.7-2 3.2-2.5 1.6-.3 3 0 4 .6 1.3.8 2 2 2.6 3.7.4 1.5.4 2.8 0 4-.2 1-.8 1.7-1.8 2.2l-.7-2.5c.5-.3.8-.7 1-1.2 0-.5 0-1.2-.2-2-.3-1-.8-1.6-1.5-2-.7-.4-1.6-.5-2.7-.2-1 .3-1.6.8-2 1.6-.5.7-.6 1.6-.3 2.6.2.8.6 1.4 1 1.8.6.4 1.2.6 2 .6l-1-2.7 1.8-.5 1.3 5-5.2 1.3-.4-1.6zM589 286.8l.3 2.6-6.2.5c-.6 0-1.2.3-1.5.7-.3.4-.4 1-.4 1.8.2.8.5 1.4.8 1.8.4.3 1 .4 1.8.4l6.2-.6.2 2.6-6.4.6c-1.2 0-2.2-.2-3-1-.7-.8-1-2-1.2-3.5-.2-1.6 0-2.8.6-3.7.6-1 1.4-1.4 2.7-1.6zM587.6 307.2l-4-2-.3 3.3 4.3-1.3zm2-1.3v2.8l-10.3 3.5.2-2.6 2-.6.5-4.7-2-1 .2-2.6 9.5 5.2z"/></g><g font-size="41.1" font-weight="bold" letter-spacing="0" font-family="Arial"><path style="-inkscape-font-specification:Swis721 BT Bold" d="M418 326.5l2-.6 1.4 4.2-1.8.6zM582 326.5l-2-.6-1.4 4.2 1.8.6z" font-size="133.2" font-family="Swis721 BT"/></g></g><path d="M500 226.4L468.5 281 453 307.5h94l-15-25.4-32-55.8z" fill="#fff"/><path transform="matrix(.113 0 0 .113 358.5 327)" d="M1246.6-879.5l-13.6 23.7 20 468.7 20-469-13.5-23.5h-13zM1253-387l70.7-381.3-28.5-49.3L1253-387zm0 0l107-318.6-21-36-86 354.5zm0 0L1388-657l-16.3-28.4-118.7 298zm0 0l158.4-229.4-13.7-23.8-144.7 253zm0 0l178.8-194-12-21L1253-387zm0 0l197.5-161.7-11.2-19.4L1253-387zm0 0L1468.3-518l-10.8-18.7L1253-387zm0 0l233-100-10.8-18.8L1253-387zm0 0l251.3-68.5L1493-475l-240 88zm0 0l271-34.4-12.2-21-258.8 55.3zm0 0l293 4-13.8-24-279.2 20zm0 0l319.2 49.3-16.5-28.6L1253-387zm0 0l352 106-21-36.3-331-69.8zm0 0l396.2 182.7-28.6-49.7L1253-387zm0 0l418.6 269 13.7-23.8-13.7-24L1253-387zm0 0l377.5 324.7 26-33.2L1253-387zm0 0l329 374 30.4-29.2-359.4-345zm0 0l274.2 416.3 34-24.8L1253-387zm0 0l214 450.4 37.3-19.8L1253-387zm0 0l148.7 472.8h9.5l31-11.4L1253-387zm0 0l79.2 472.8h41.8l-121-473zm0 0l12.8 472.8h40.2l-53-473zm0 0l-53 472.8h40.2l12.8-473zm0 0L1132 85.7h42l79-473zm0 0L1063.8 74.3l31 11.4h9.5l148.7-473zm0 0L1001.8 43.5l37.3 19.8L1253-387zm0 0L944.7 4.4 979 29.3 1253-387zm0 0L893.7-42.3 924-13l329-374zm0 0L849.6-95.6l26 33.2L1253-387zm0 0L834.6-165.8l-14 24 14 23.7L1253-387zm0 0L885.6-254 857-204.5 1253-387zm0 0l-331 69.7-21 36.3 352-106zm0 0l-302.6 20.7-16.5 28.5 319-49.3zm0 0l-279-20-14 24 293-4zm0 0l-258.7-55.5-12 21L1253-387zm0 0l-240-88-11.2 19.6L1253-387zm0 0L1031-506l-11 18.7 233 100zm0 0l-204.4-149.4-10.8 18.6L1253-387zm0 0l-186.2-181-11.2 19.4L1253-387zm0 0l-166.6-215-12 21L1253-387zm0 0l-144.5-253.2-13.8 24 158.3 229zm0 0l-118.6-298.2-16.4 28.5L1253-387zm0 0l-86-354.5-20.8 36L1253-387zm0 0l-42.2-430.5-28.4 49.3 70.6 381z" fill="#6dd9f4" stroke="#6dd9f4"/><path d="M499.8 273.5l.2 3.4v-3.5h-.2zm-1 0s-.2 0-.3.2l.6 3-.3-3zm2.4 0l-.3 3.3.5-3c0-.2-.2-.2-.3-.2zm-3.8.4h-.3l1.2 3-.8-3zm5 0l-.6 3 1-3h-.3zm-6.3.3l1.3 3-1.2-3zm7.8 0l-1 3 1.3-3h-.2zm-9 .6h-.2l2 2.7-1.7-2.8zm10.3 0l-1.5 2.7 1.8-2.6h-.2zm-11.3.7l-.2.2 2.3 2.3-2-2.6zm12.5 0l-2 2.6 2.2-2.4c0-.2 0-.2-.2-.3zm-13.5 1h-.2l2.6 2.3-2.3-2.4zm14.5 0l-2.4 2.2 2.6-2.2-.2-.2zm-15.4 1v.2l2.7 1.6-2.7-2zm16.3 0l-2.5 2 2.8-1.8c0-.2 0-.2-.2-.3zm-17 1v.4l3 1.5-3-1.7zm17.8 0l-3 1.8 3.2-1.4-.2-.2zm-18.3 1.4v.4l3 1-3-1.3zm19 0l-3 1.3 3-1v-.2zm-19.4 1.5v.3l3.4.4-3.3-.7zm19.8 0l-3.3.7 3.4-.4-.2-.3zm-20 1.3v.4h3.8l-3.7-.4zm20.2 0l-3.6.3 3.6.2v-.4zm-16.6 1.2l-3.5.3v.3l3.4-.6zm13 0l3.6.6v-.3l-3.5-.3zm-12.7 1l-3.6.7v.3l3.7-1zm12.6 0l3.5 1v-.3l-3.5-.8zm-12.5.8l-3.3 1.2v.3l3.3-1.5zm12.3 0l3.4 1.5v-.3l-3.3-1.2zm-11.6.7l-3.4 1.8s0 .2.2.3l3.2-2zm11.2 0l3.2 2v-.2l-3.2-1.7zm-.6.8l3 2.5s0-.2.2-.3l-3.2-2.2zm-10 0l-3.2 2.2s0 .2.2.3l3-2.5zm.5.7l-2.8 2.6s0 .2.2.3l2.5-3zm9 0l2.5 3 .2-.4-2.7-2.6zm-8.4.7l-2.2 3h.2l2-3zm8 0l2 3h.2l-2.3-3zm-7 .4l-2 3.4.2.2 1.7-3.5zm6 .2l1.7 3.4s.2 0 .3-.2l-2-3.2zm-5.2.2l-1.5 3.7s.2 0 .3.2l1.2-3.8zm4.4 0l1.2 3.8h.3l-1.5-3.8zm-2.7.4l-.4 4h.4v-4zm1 0v4h.4l-.6-4zm-2 0l-.8 3.7h.3l.6-3.7zm2.8 0l.7 3.7h.3l-1-3.7z" fill="#fff"/><path d="M500 265.4c-10.8 0-20.8 4-28.5 10.3L456 302.3c-.3 2.5-.5 5-.5 7.6 0 3 .3 5.8 1 8.7h6c-.5-2.8-1-5.8-1-8.8 0-21.2 17-38.2 38-38.5h.5c21.2 0 38.3 17.2 38.3 38.4 0 3-.3 6-1 8.7h6.2c.6-3 1-5.8 1-8.8 0-2.7-.3-5.2-.7-7.6l-15.4-26.7c-7.7-6.4-17.6-10.3-28.4-10.3z" fill="red"/><path d="M500 266.3c-11.6 0-22 4.5-29.8 11.8l-12.7 22c-.7 3.2-1 6.5-1 10 0 3 .2 5.8.8 8.7h5.3c-.6-2.8-1-5.8-1-8.8 0-21.2 17-38.2 38-38.5h.4c21.2 0 38.3 17.2 38.3 38.4 0 3-.3 6-1 8.7h5.3c.6-3 1-5.8 1-8.8 0-3.5-.5-7-1.2-10l-12.6-22c-7.8-7.2-18.3-11.7-29.8-11.7z" fill="#f60"/><path d="M499.4 267c-12.2.3-23.3 5.6-31 14l-9.2 16c-1.3 4-2 8.4-2 13 0 3 .4 6 1 8.7h4.4c-.6-2.8-1-5.8-1-8.8 0-21.2 17-38.2 38-38.5h.4c21.2 0 38.3 17.2 38.3 38.4 0 3-.3 6-1 8.7h4.5c.6-2.8 1-5.8 1-8.8 0-4.6-.8-9-2-13l-9.3-16c-7.8-8.5-19-14-31.5-14h-.6z" fill="#ff0"/><path d="M499.4 268c-14 .2-26.5 7.4-34 18.2l-3.2 5.6c-2.6 5.5-4 11.6-4 18 0 3 .3 6 1 9h3.4c-.6-3-1-6-1-9 0-21 17-38 38-38.3h.4c21.2 0 38.3 17.2 38.3 38.4 0 3-.3 6-1 8.7h3.6c.5-2.8.8-5.8.8-8.8 0-6.6-1.5-12.7-4-18.2l-3.3-5.5c-7.5-11-20.2-18.3-34.5-18.3h-.6z" fill="#0f0"/><path d="M499.4 269c-22.4.2-40.4 18.4-40.4 41 0 3 .3 6 1 8.7h2.6c-.6-2.8-1-5.8-1-8.8 0-21.2 17-38.2 38-38.5h.4c21.2 0 38.3 17.2 38.3 38.4 0 3-.3 6-1 8.7h2.7c.6-2.8 1-5.8 1-8.8 0-22.8-18.4-41-41-41h-.6z" fill="#0cf"/><path d="M499.5 269.7C477.5 270 460 288 460 310c0 3 .2 6 .8 8.7h1.8c-.6-2.8-1-5.8-1-8.8 0-21.2 17-38.2 38-38.5h.4c21.2 0 38.3 17.2 38.3 38.4 0 3-.3 6-1 8.7h1.8c.7-2.8 1-5.8 1-8.8 0-22.3-18-40.3-40-40.3h-.5z" fill="#00f"/><path d="M499.5 270.6c-21.5.3-38.8 17.8-38.8 39.3 0 3 .4 6 1 8.7h1c-.7-2.8-1-5.8-1-8.8 0-21.2 16.8-38.2 37.8-38.5h.5c21.2 0 38.3 17.2 38.3 38.4 0 3-.3 6-1 8.7h1c.6-2.8 1-5.8 1-8.8 0-21.8-17.7-39.4-39.3-39.4h-.5z" fill="purple"/><path d="M453 307.6L443 325H557l-10-17.4h-93.7z" fill="#fff"/><path transform="matrix(.113 0 0 .113 358.5 327)" d="M838.8-173l-1 2h830.7l-1-2H838.6zm-2 3.4l-1 2h834.6l-1-2H836.7zm-1.8 3l-1.8 3.2H1673l-2-3.2H835zm-2.8 5L830-158h846l-2-4H832zm-3.5 6l-2.2 4h853.2l-2.3-4H828.7zm-3.5 6.2l-2.2 3.8h860.2l-2.2-3.8H825.2zm-3.6 6l-2.2 4h867.3l-2.2-4h-863zm-3.8 6.7L815-132h876l-2.7-4.7H817.8z" fill="url(#t)"/><path transform="matrix(.113 0 0 .113 358.5 327)" d="M875.3-130.2c30.6 6 33.5 0 33.5 0h-33.5zm722 0s3 6 33.5 0h-33.5zm-780 1.4h-4l-3 5 14.4-1c29.2 1 55.7 7.6 86.7 7.6h40c31 0 57.5-6.7 86.7-7.5 29.2.8 55.8 7.5 86.8 7.5H1165c31 0 57.5-6.7 86.7-7.5 29 .8 55.5 7.5 86.5 7.5h40.2c31 0 57.5-6.7 86.7-7.5 29.3.7 55.8 7.5 86.8 7.5H1592c31 0 57.3-6.7 86.4-7.5 6 .2 11.8.7 17.6 1.3l-3.2-5.4h-31.5c-31 0-57.4 6.6-86.5 7.3-29.2-.7-55.7-7.3-86.7-7.3H1448c-31 0-57.6 6.6-86.8 7.3-29.2-.7-55.6-7.3-86.6-7.3H1234.5c-31 0-57.4 6.6-86.5 7.3-29.2-.7-55.6-7.3-86.6-7.3h-39.9c-31 0-57.5 6.6-86.7 7.3-29.2-.7-55.7-7.3-86.7-7.3H817.6zm-9.8 10l-3 5.4c6.6-.7 13.3-1.2 20.2-1.3 29.2.7 55.7 7.5 86.7 7.5l6.3-.2h.8c1 0 1.8 0 2.7.2h20.4l2.8-.2h.7l6.3.2c31 0 57.5-6.8 86.7-7.5 29.2.7 55.8 7.5 86.8 7.5l6.3-.2h.8c1 0 2 0 3 .2H1155l3-.2h.6l6.4.2c31 0 57.3-6.8 86.5-7.5 29 .7 55.5 7.5 86.5 7.5l6.3-.2h1c.8 0 1.6 0 2.5.2h20.5l2.7-.2h1l6.2.2c31 0 57.5-6.8 86.7-7.5 29.3.6 55.8 7.5 86.8 7.5l6.3-.2h.8c1 0 2 0 2.8.2h20.4l2.8-.2h.8l6.3.2c31 0 57.3-6.8 86.4-7.5 8 0 16 1 23.6 1.7l-3.3-5.8h-7c-.7-.2-1.5 0-2.3 0-1 0-2-.2-3.2 0-1-.2-2 0-3 0-.5 0-1-.2-1.7 0-.6-.2-1.2 0-1.8 0-1 0-2.2-.2-3.3 0-1-.2-2 0-3 0h-12c-31 0-57.4 6.5-86.5 7.2-29.2-.7-55.7-7.3-86.7-7.3-2 0-3.6 0-5.4.2h-4.4c-.7-.2-1.4 0-2 0-1 0-2.2-.2-3.3 0-1-.2-2.2 0-3.3 0-.5 0-1-.2-1.7 0-.5-.2-1 0-1.7 0-1 0-2-.2-3.2 0-1-.2-2 0-3 0H1448c-31 0-57.6 6.5-86.8 7.2-29.2-.7-55.6-7.3-86.6-7.3-1.8 0-3.6 0-5.4.2h-4.5c-.7-.2-1.4 0-2 0-1.2 0-2.3-.2-3.4 0-1-.2-2 0-3.2 0-.5 0-1-.2-1.6 0-.6-.2-1 0-1.7 0-1 0-2-.2-3.2 0-1-.2-2 0-3.2 0h-11.9c-31 0-57.4 6.5-86.5 7.2-29.2-.7-55.6-7.3-86.6-7.3-1.8 0-3.6 0-5.3.2h-4.6c-.8-.2-1.5 0-2.3 0-1 0-2-.2-3 0-1.2-.2-2 0-3.2 0-.6 0-1-.2-1.7 0-.5-.2-1 0-1.7 0-1 0-2.2-.2-3.3 0-1-.2-2 0-3 0h-11.8c-31 0-57.5 6.5-86.7 7.2-29.2-.7-55.7-7.3-86.7-7.3-1.8 0-3.6 0-5.4.2H838c-.7-.2-1.3 0-2 0-1.2 0-2.3-.2-3.4 0-1-.2-2.2 0-3.3 0-.5 0-1-.2-1.6 0-.6-.2-1 0-1.6 0-1 0-2-.2-3.3 0-1-.2-2 0-3.2 0h-11.9zm0 9.7h-5.8l-3.5 6.4c8.7-1 17.5-2 26.5-2 29.2.6 55.7 7.2 86.7 7.2h40c31 0 57.5-6.6 86.7-7.3 29.2.7 55.8 7.3 86.8 7.3H1165.2c31 0 57.3-6.6 86.5-7.3 29 .7 55.5 7.3 86.5 7.3h40.2c31 0 57.5-6.6 86.7-7.3 29.3.7 55.8 7.3 86.8 7.3H1592c31 0 57.3-6.6 86.4-7.3 10 .2 20 1.2 29.8 2.4l-4-6.6h-42.8c-31 0-57.4 6.6-86.5 7.3-29.2-.7-55.7-7.4-86.7-7.4H1448c-31 0-57.6 6.6-86.8 7.3-29.2-.7-55.6-7.4-86.6-7.4H1234.5c-31 0-57.4 6.6-86.5 7.3-29.2-.7-55.6-7.4-86.6-7.4h-39.9c-31 0-57.5 6.6-86.7 7.3-29.2-.7-55.7-7.4-86.7-7.4h-40.2zm0 9.8c-4 0-7.7 0-11.5.3l-4 7c10.8-1.3 21.6-2.6 32.8-2.8 29 .7 55.6 7.3 86.6 7.3 2.2 0 4.2 0 6.3-.2h.8l2.8.2h20.3c1 0 1.8 0 2.8-.2h.7l6.3.2c31 0 57.5-6.6 86.7-7.3 29.2.7 55.8 7.3 86.8 7.3 2.2 0 4.3 0 6.3-.2h.8l3 .2H1155c1 0 2 0 3-.2h.6l6.4.2c31 0 57.3-6.6 86.5-7.3 29 .7 55.5 7.3 86.5 7.3 2 0 4.2 0 6.3-.2h1l2.5.2h20.5c1 0 1.8 0 2.7-.2h1l6.2.2c31 0 57.5-6.6 86.7-7.3 29.3.7 55.8 7.3 86.8 7.3 2.2 0 4.2 0 6.3-.2h1l2.6.2h20.4c1 0 2 0 2.8-.2h.8l6.3.2c31 0 57.3-6.6 86.4-7.3 12.2.3 24 1.6 36 3l-4.2-7c-3-.2-5.8-.4-8.7-.4-1.8 0-3.7 0-5.4.2l-4.4-.2H1671c-1.5 0-3 0-4.4.2l-5.4-.2c-31.3 0-58 6.8-87.4 7.4-29-1-55-7.4-85.8-7.4-1.8 0-3.6 0-5.4.2l-4.4-.2h-20.4c-1.6 0-3 0-4.7.2l-5-.2c-31 0-57.6 6.6-86.8 7.4-29.2-.8-55.6-7.4-86.6-7.4-1.8 0-3.6 0-5.4.2l-4.5-.2h-20.5c-1.4 0-2.8 0-4.3.2l-5.4-.2c-31 0-57.4 6.6-86.5 7.4-29.2-.8-55.6-7.4-86.6-7.4-1.8 0-3.6 0-5.3.2l-4.6-.2h-20.2c-1.6 0-3 0-4.6.2l-5.2-.2c-30.7 0-57 6.5-85.8 7.4-29.5-.6-56.3-7.4-87.6-7.4-1.8 0-3.6 0-5.4.2l-4.4-.2h-20.4c-1.7 0-3.2 0-4.8.2l-5.2-.2zm0 10c-6 0-11.7.2-17.5.6l-4 7c12.7-1.5 25.5-3 38.7-3.4 29.2.7 55.7 7.4 86.7 7.4 2.2 0 4.2 0 6.3-.2h.8l2.7.2h20.4c1 0 1.8 0 2.8-.2h.7l6.3.2c31 0 57.5-6.7 86.7-7.4 29.2.7 55.8 7.4 86.8 7.4 2.2 0 4.3 0 6.3-.2h.8c1 0 2 0 3 .2H1155c1 0 2 0 3-.2h.6l6.4.2c31 0 57.3-6.7 86.5-7.4 29 .7 55.5 7.4 86.5 7.4 2 0 4.2 0 6.3-.2h1l2.5.2h20.5c1 0 1.8 0 2.7-.2h1l6.2.2c31 0 57.5-6.7 86.7-7.4 29.3.7 55.8 7.4 86.8 7.4 2.2 0 4.2 0 6.3-.2h1c.8 0 1.7 0 2.6.2h20.4c1 0 2 0 2.8-.2h.8l6.3.2c31 0 57.3-6.7 86.4-7.4 14.3.4 28 2.2 42 4l-4.4-7.7c-4.7-.3-9.5-.6-14.5-.6h-40.1c-31 0-57.4 6.6-86.5 7.3-29.2-.7-55.7-7.3-86.7-7.3H1448c-31 0-57.6 6.6-86.8 7.3-29.2-.7-55.6-7.3-86.6-7.3H1234.5c-31 0-57.4 6.6-86.6 7.3-29-.7-55.5-7.3-86.5-7.3H1021.2c-31 0-57.3 6.6-86.5 7.3-29.2-.7-55.7-7.3-86.7-7.3H807.5zm0 9.8c-8 0-15.8.5-23.4 1.2L780-71c15-1.7 29.6-3.7 45-4 29 .6 55.6 7.3 86.6 7.3 2.2 0 4.2 0 6.3-.2h.8c1 0 1.8.2 2.7.3h20.4l2.8-.2h.7c2 .2 4.2.3 6.3.3 31 0 57.5-6.7 86.7-7.4 29.2.6 55.8 7.3 86.8 7.3 2.2 0 4.3 0 6.3-.2h.8l3 .3H1155l3-.2h.6c2 .2 4.2.3 6.4.3 31 0 57.3-6.7 86.5-7.4 29 .6 55.5 7.3 86.5 7.3 2 0 4.2 0 6.3-.2h1l2.5.3h20.6l2.6-.2h1c2 .2 4 .3 6.2.3 31 0 57.5-6.7 86.7-7.4 29.3.6 55.8 7.3 86.8 7.3 2.2 0 4.2 0 6.3-.2h.8c1 0 2 .2 2.8.3h20.4l2.8-.2h.8c2 .2 4 .3 6.3.3 31 0 57.3-6.7 86.4-7.4 16.5.3 32 2.6 48.2 4.5l-4.7-8c-6.7-.6-13.5-1-20.5-1l-5.4.3-4.4-.2H1671c-1.5 0-3 0-4.4.2l-5.4-.2c-31 0-57.4 6.6-86.5 7.3-29.2-.8-55.7-7.4-86.7-7.4-1.8 0-3.6 0-5.4.2l-4.4-.2h-20.5c-1.5 0-3 0-4.6.2l-5-.2c-31 0-57.6 6.6-86.8 7.3-29.2-.8-55.6-7.4-86.6-7.4-1.8 0-3.6 0-5.4.2l-4.5-.2h-20.5c-1.4 0-2.8 0-4.3.2l-5.4-.2c-31 0-57.4 6.6-86.6 7.3-29-.8-55.5-7.4-86.5-7.4-1.8 0-3.6 0-5.3.2l-4.6-.2h-20.2c-1.6 0-3 0-4.6.2l-5.3-.2c-31 0-57.3 6.6-86.5 7.3-29.2-.8-55.7-7.4-86.7-7.4-1.8 0-3.6 0-5.4.2l-4.5-.2h-20.4c-1.7 0-3.2 0-4.8.2l-5.2-.2zm0 10c-10.2 0-20 .7-29.5 1.7l-4.3 7.4c17-2 33.6-4.5 51-5 29.2.8 55.7 7.5 86.7 7.5 2.2 0 4.2 0 6.3-.2h.8c1 0 1.8 0 2.7.2h20.4l2.8-.2h.7l6.3.2c31 0 57.5-6.7 86.7-7.4 29.2.7 55.8 7.4 86.8 7.4 2.2 0 4.3 0 6.3-.2h.8c1 0 2 0 3 .2H1155l3-.2h.6l6.4.2c31 0 57.3-6.7 86.5-7.4 29 .7 55.5 7.4 86.5 7.4 2 0 4.2 0 6.3-.2h1c.8 0 1.6 0 2.5.2h20.6l2.6-.2h1l6.2.2c31 0 57.5-6.7 86.7-7.4 29.3.7 55.8 7.4 86.8 7.4 2.2 0 4.2 0 6.3-.2h.8c1 0 2 0 2.8.2h20.4l2.8-.2h.8l6.3.2c31 0 57.3-6.7 86.4-7.4 18.6.5 36 3.4 54.3 5.4L1728-68c-8.6-1-17.4-1.5-26.5-1.5h-40.1c-31 0-57.4 6.6-86.5 7.3-29.2-.7-55.6-7.3-86.7-7.3h-39.8c-31 0-57.6 6.6-86.8 7.3-29.2-.7-55.6-7.3-86.6-7.3H1234.5c-31 0-57.4 6.6-86.5 7.3-29.2-.7-55.6-7.3-86.6-7.3h-39.8c-31 0-57.5 6.6-86.7 7.3-29.2-.7-55.7-7.3-86.7-7.3h-40.2zm0 9.7c-12.4 0-24 1-35.6 2.4l-4.4 7.6c19.2-2 37.6-5 57-5.6 29.3.7 55.8 7.3 86.8 7.3h40c31 0 57.5-6.6 86.7-7.3 29.2.7 55.8 7.3 86.8 7.3H1165c31 0 57.5-6.6 86.7-7.3 29 .7 55.5 7.3 86.5 7.3h40.2c31 0 57.5-6.6 86.7-7.3 29.3.7 55.8 7.3 86.8 7.3H1592c31 0 57.3-6.6 86.4-7.3 20.6.5 40 4 60.3 6l-4.7-8.3c-10.5-1.2-21.2-2-32.5-2h-40.1c-31 0-57.4 6.6-86.5 7.3-29.2-.7-55.7-7.4-86.7-7.4l-5.4.2-4.4-.2h-20.5l-4.6.2-5-.2c-31 0-57.6 6.7-86.8 7.4-29.2-.7-55.6-7.4-86.6-7.4l-5.4.2-4.5-.2h-20.5l-4.3.2-5.4-.2c-31 0-57.4 6.7-86.5 7.4-29.2-.7-55.6-7.4-86.6-7.4l-5.3.2-4.6-.2h-20.2l-4.6.2-5.2-.2c-31 0-57.5 6.7-86.7 7.4-29.2-.7-55.7-7.4-86.7-7.4l-5.4.2-4.4-.2h-20.4l-4.8.2-5.2-.2zm0 10c-14.7 0-28.3 1.4-41.7 3l-4.3 7.5c21.6-2 41.6-5.7 63.2-6.2 29.2.7 55.7 7.3 86.7 7.3l6.3-.2h33.7c31 0 57.5-6.5 86.7-7.2 29.2.7 55.8 7.3 86.8 7.3l6.3-.2h33.9c31 0 57.3-6.5 86.5-7.2 29 .7 55.5 7.3 86.5 7.3l6.3-.2H1378.4c31 0 57.5-6.5 86.7-7.2 29.3.7 55.8 7.3 86.8 7.3l6.3-.2h33.9c31 0 57.3-6.5 86.4-7.2 22.6.5 43.6 4.5 66.3 6.4l-4.5-8c-12.5-1.4-25.2-2.8-38.7-2.8-1.8 0-3.7 0-5.4.2l-4.4-.2H1671l-4.4.2-5.4-.2c-31 0-57.4 6.6-86.5 7.4-29.2-.7-55.7-7.4-86.7-7.4-2 0-3.6 0-5.4.2l-4.4-.2h-20.5l-4.6.2-5-.2c-31 0-57.6 6.7-86.8 7.4-29.2-.7-55.6-7.4-86.6-7.4-2 0-3.6 0-5.4.2l-4.5-.2h-20.5l-4.3.2-5.4-.2c-31 0-57.4 6.7-86.5 7.4-29.2-.7-55.6-7.4-86.6-7.4-1.8 0-3.6 0-5.3.2l-4.6-.2H1031.3l-4.6.2-5.2-.2c-31 0-57.5 6.7-86.7 7.4-29.2-.8-55.7-7.4-86.7-7.4-1.8 0-3.6 0-5.4.2l-4.4-.2h-20.4l-4.7.2-5.3-.2z" fill="url(#u)"/><path d="M1163.4 425.6c-5.3 0-7 2.7-7 2.7-8.5 33-36.7 66.4-70.3 66.4h-25v33.6h191.5l-19.2-34c-30.3-4.7-55-35.6-63-66 0 0-1.5-2.7-7-2.7z" fill="url(#v)" transform="matrix(.32 0 0 .32 157.2 160.4)"/><path d="M530.7 297.4c-.8 0-1.3.2-1.6.4 0 .2-.2.3-.2.3-1.4 5.4-4.4 10.8-8.4 14.8s-9 6.8-14.6 6.8h-7.6v10H559l-5.7-10c-4.6-.7-9-3.3-12.4-6.8-4-4-7-9.4-8.4-14.7l-.4-.2c-.3-.2-.8-.4-1.5-.4z" fill="#97c924"/><path d="M530.6 297.5h.4v10.8c0 2.3-.8 4.2-2 6.4-.6 1.6-1 1-2.4 3-1.8.6-3 .8-5 1-2.6.5-8.2 1-11 .3 3.7-1 7-3.3 9.8-6.2.7-.7 1.4-1.5 2-2.4 1.2-1.4 2.2-3 3-4.4.5-.7.8-1.3 1-2 .6-1 1-2 1.4-3l.3-1c.3-.5.5-1.2.7-2l.4-.2.6-.2h1z" fill="#dddf37"/><path d="M530 299c-.5 6-2.4 13-6.7 17.7-1.6 1.3-3.7 2.6-5.7 2.3 6.8-5.5 11-14 12.3-20z" fill="#c6cb24"/><path d="M524.5 309.3c-1 2.7-4.8 6.7-9 10H513c2.5-.2 8.2-5 11.7-10z" fill="#9ecb34"/><path d="M1122.7 428.3c8.5 33 36.7 66.5 70.3 66.5h25.2v33.5h-205v-33.5h25c33.7 0 62-33.6 70.5-66.5 0 0 1.7-2.7 7-2.7s7 2.7 7 2.7z" fill="url(#w)" transform="matrix(.32 0 0 .32 157.2 160.4)"/><path d="M514.2 297c.8 0 1.3.2 1.6.4.2 0 .3.2.3.3 1.5 5.3 4.4 10.6 8.4 14.6s9 6.8 14.6 6.8h7.6v10h-64.8v-10h7.7c5.5 0 10.5-2.6 14.5-6.7 4-4 7-9.3 8.3-14.6 0 0 0-.2.4-.3.3-.2.7-.4 1.5-.4z" fill="#97c924"/><path d="M515.3 297.5h.4v10.8c0 2.3-1 4.2-2 6.4-.6 1.6-1 1-2.4 3-1.8.6-3.2.8-5 1-2.6.5-8.3 1-11 .3 3.6-1 7-3.3 9.8-6.2.8-.7 1.5-1.5 2.2-2.4l3-4.4 1-2c.5-1 1-2 1.2-3 .2-.2.3-.5.4-1l.6-2 .3-.2.6-.2h1z" fill="#e4e630"/><path d="M514.6 299c-.4 6-2.3 13-6.7 17.7-1.7 1.3-3.7 2.6-5.7 2.3 6.8-5.5 11-14 12.3-20z" fill="#c6cb24"/><path d="M509 309.3c-1 2.7-4.7 6.7-8.7 10h-2.8c2.5-.2 8.2-5 11.6-10z" fill="#9ecb34"/><path d="M1075 428.3c8.4 33 36.6 66.5 70.3 66.5h25.2v33.5h-205v-33.5h25c33.6 0 62-33.6 70.4-66.5 0 0 1.6-2.7 7-2.7 5.2 0 7 2.7 7 2.7z" fill="url(#x)" transform="matrix(.32 0 0 .32 157.2 160.4)"/><path d="M499 297c.7 0 1.2.2 1.5.4.2 0 .3.2.3.3 1.4 5.3 4.4 10.6 8.3 14.6 4 4 9.2 6.8 14.7 6.8h7.6v10h-64.8v-10h7.7c5.5 0 10.6-2.6 14.6-6.7 4-4 7-9.3 8.3-14.6 0 0 0-.2.4-.3.3-.2.8-.4 1.5-.4z" fill="#97c924"/><path d="M500 297.5h.3v10.8c0 2.3-.8 4.2-2 6.4-.5 1.6-1 1-2.3 3-2 .6-3.2.8-5.2 1-2.5.5-8 1-10.8.3 3.6-1 7-3.3 9.7-6.2.8-.7 1.5-1.5 2.2-2.4l3-4.4c.2-.7.5-1.3 1-2l1-3c.2-.2.4-.5.5-1l.6-2 .4-.2.6-.2h1z" fill="#eaed29"/><path d="M499.2 299c-.4 6-2.2 13-6.6 17.7-1.6 1.3-3.7 2.6-5.7 2.3 6.7-5.5 10.8-14 12.2-20z" fill="#c6cb24"/><path d="M492.8 308.8c-1 2.7-4.8 6.7-8.8 10h-2.8c2.5-.2 8.2-5 11.6-10z" fill="#9ecb34"/><path d="M1027.5 428.3c8.5 33 36.7 66.5 70.3 66.5h25.2v33.5H918v-33.5h25c33.7 0 62-33.6 70.5-66.5 0 0 1.6-2.7 7-2.7 5.3 0 7 2.7 7 2.7z" fill="url(#y)" transform="matrix(.32 0 0 .32 157.2 160.4)"/><path d="M483.6 297c-.7 0-1.2.2-1.5.4-.2 0-.2.2-.2.3-1.4 5.3-4.4 10.6-8.3 14.6-4 4-9 6.8-14.6 6.8h-7.7v10H516l.2-10h-7.6c-5.5 0-10.8-2.6-14.8-6.7-4-4-7-9.3-8.3-14.6 0 0 0-.2-.3-.3-.3-.2-.8-.4-1.6-.4z" fill="#97c924"/><path d="M483.4 299c-.6 9-5.6 20.4-11.3 22.3-1.8.7-5 1-6.2 1 10-4.7 16-15.8 17.6-23.4z" fill="#93bc30"/><path d="M972.4 425.6c-5.3 0-7 2.7-7 2.7-8 30.3-32.5 61.2-62.6 65.8l-19.3 34.3H1075v-33.6h-25.3c-33.6 0-61.8-33.5-70.3-66.4 0 0-1.7-2.7-7-2.7z" fill="url(#z)" transform="matrix(.32 0 0 .32 157.2 160.4)"/><path d="M468.4 297c-.8 0-1.3.2-1.6.4-.2 0-.3.2-.3.3-1.4 5.3-4.4 10.6-8.3 14.6-3.5 3.5-7.7 6-12.4 6.7l-5.6 10h60.6v-10H493c-5.4 0-10.5-2.6-14.5-6.7-4-4-7-9.3-8.3-14.6 0 0 0-.2-.3-.3-.4-.2-.8-.4-1.6-.4z" fill="#97c924"/><path d="M467.2 298.4c-.6 9-5.7 20.4-11.3 22.4-2 .6-5.2 1-6.3 1 10-4.7 15.7-15.8 17.5-23.4z" fill="#93bc30"/><path d="M469.3 297.5h-.4v10.8c0 2.3.7 4.2 2 6.4v.5c.5 1 .8 1.5 2.4 2.7 5 3.7 11 4.2 14.8 4l-3.4-2.5c1.7 0 3.3-.3 4.5-.5-3.7-1-7-3.3-9.8-6.2l-1.4-1.5c0-.3-.4-.7-.5-.8-1-1.4-2.3-3-3-4.5-.5-.7-.8-1.3-1-2-.6-1-1-2-1.4-3l-.2-1c-.3-.5-.5-1.2-.6-2l-.4-.2-.6-.2h-1z" fill="#dddf37"/><path d="M469 298.4c.5 6 2.3 13.2 6.7 17.8 1.6 1.3 3.6 2.5 5.6 2.2-6.7-5.4-10.8-14-12.2-20z" fill="#c6cb24"/><path d="M473.2 306.8c2.4 5.8 8.4 11.2 14.5 15 1.2 0 1.5 0 2.5-.2-4.4-2.4-11.5-5.7-17-14.8z" fill="#9ecb34"/><path d="M500 298.4c.7 9 6.6 20.4 12.3 22.4 1.8.6 6 1 7 1-9.8-4.7-17.4-15.8-19.2-23.4zM516.5 299c.6 9 6.5 20.4 12.2 22.3 1.8.7 6 1 7 1-9.8-4.7-17.5-15.8-19.2-23.4zM531.8 299c.6 9 6.5 20.4 12.2 22.3 2 .7 6 1 7 1-9.8-4.7-17.5-15.8-19.2-23.4z" fill="#93bc30"/><path d="M451.5 325c-3 0-6.2.6-9 .8l-6.2 11h127.3l-6.3-11c-2.6-.3-5.8-.8-8.5-.8h-1.4-.3-1.6c-3.6 0-6.6 1-10 1-3.5 0-6.5-1-10-1h-1-.8-1.7c-3.7 0-6.7 1-10 1-3.6 0-6.6-1-10.2-1h-1.3-.4-1.6c-3.6 0-6.6 1-10 1-3.4 0-6.5-1-10-1h-1-.4-2c-3.6 0-6.6 1-10 1-3.5 0-6.6-1-10.2-1h-.7-.5-.3H451.5z" fill="#fff"/><path transform="matrix(.1 0 0 .1 358.5 327)" d="M813-22.5c-23.3 0-44 4.2-65 6.7L744-9h.6C775.2-9 801-17 830-17.7c28.7.8 55 8.5 85.5 8.5 2.2 0 4.2-.2 6.3-.3h.7l2.8.2h20.1c1 0 2-.2 2.8-.3h.7l6.2.2c30.6 0 56.8-7.8 85.6-8.6 28.8.8 55.2 8.5 85.8 8.5l6.2-.3h.8l2.7.2H1156.4c1 0 2-.2 2.8-.3h.8l6.2.2c30.6 0 56.7-7.8 85.5-8.6 28.8.8 54.8 8.5 85.5 8.5l6.2-.3h1l2.5.2h20.3c1 0 1.7-.2 2.6-.3h1l6 .2c30.8 0 57-7.8 85.8-8.6 28.8.8 55 8.5 85.6 8.5 2.2 0 4.2-.2 6.2-.3h.8l2.7.2h19.9c1 0 2-.2 2.8-.3h.8l6.2.2c30.6 0 56.7-7.8 85.5-8.6 28.8.8 55 8.5 85.6 8.5 1 0 2 0 3-.2l-4-7c-20-2.5-40-6.3-62-6.3-1.7 0-3.5 0-5.2.2l-4.4-.2H1666c-1.5 0-3 0-4.4.2l-5.3-.2c-30.6 0-56.7 7.6-85.5 8.4-28.8-1-55-8.5-85.6-8.5-1.8 0-3.6 0-5.3.2l-4.5-.2h-20c-1.7 0-3.2 0-4.7.2l-5-.2c-30.8 0-57 7.6-85.8 8.4-29-1-55-8.5-85.7-8.5-1.8 0-3.5 0-5.3.2l-4.4-.2H1244.5c-1.7 0-3 0-4.6.2l-5.3-.2c-30.6 0-56.6 7.6-85.4 8.4-28.8-1-54.8-8.5-85.4-8.5-1.8 0-3.6 0-5.3.2l-4.4-.2h-20.4c-1.6 0-3 0-4.6.2l-5-.2c-30.7 0-56.8 7.6-85.7 8.4-28.8-1-55-8.5-85.6-8.5-1.8 0-3.6 0-5.3.2l-4.4-.2h-20.5c-1.5 0-3 0-4.5.2l-5-.2zm0 11.4c-26 0-48.4 5.3-72 7.5l-3.4 5.7h7C775.2 2.3 801-5.3 830-6c28.7.8 55 8.5 85.5 8.5H955c30.6 0 56.8-7.7 85.6-8.5 28.8.8 55.2 8.5 85.8 8.5H1166.2c30.6 0 56.7-7.7 85.5-8.5 28.8.8 54.8 8.5 85.5 8.5H1376.8c30.8 0 57-7.7 85.8-8.5 28.8.8 55 8.5 85.6 8.5h39.4c30.6 0 56.7-7.7 85.5-8.5 28.8.8 55 8.5 85.6 8.5h9.6L1765-4c-22.5-2.2-44.3-7-69-7H1656.5c-30.6 0-56.7 7.5-85.5 8.3-28.8-.8-55-8.4-85.6-8.4h-39.5c-30.8 0-57 7.5-85.8 8.3-29-.8-55-8.4-85.7-8.4H1234.6c-30.6 0-56.7 7.5-85.4 8.3-28.8-.8-54.8-8.4-85.4-8.4H1024c-30.7 0-56.8 7.5-85.7 8.3-28.8-.8-55-8.4-85.6-8.4H813zm0 11.3c-28.3 0-52.7 6.3-79 8l-3 5.4h13.6c30.6 0 56.5-7.5 85.3-8.4 28.7 1 55 8.4 85.5 8.4H955c30.6 0 56.8-7.5 85.6-8.4 28.8 1 55 8.4 85.8 8.4h39.6c30.6 0 56.7-7.5 85.5-8.4 28.8 1 54.8 8.4 85.5 8.4H1376.8c30.8 0 57-7.5 85.8-8.4 28.8.8 55 8.4 85.6 8.4h39.4c30.6 0 56.7-7.5 85.5-8.4 28.8 1 55 8.4 85.6 8.4h16.2L1772 8c-25.2-1.8-48.8-7.7-76-7.7-1.7 0-3.5 0-5.3.2l-4.4-.2H1666l-4.4.2-5.3-.2c-30.6 0-56.7 7.6-85.5 8.4-28.8-.8-55-8.4-85.6-8.4-1.8 0-3.6 0-5.3.2l-4.5-.2h-20l-4.7.2-5-.2c-30.8 0-57 7.6-85.8 8.4-29-.8-55-8.4-85.7-8.4-1.8 0-3.6 0-5.3.2l-4.4-.2H1244.3l-4.4.2-5.3-.2c-30.6 0-56.7 7.6-85.4 8.4-28.8-.8-54.8-8.4-85.4-8.4-1.8 0-3.6 0-5.4.2l-4.4-.2h-20.1l-4.6.2-5-.2C993.2.3 967 8 938.2 8.7 909.5 8 883.3.3 852.7.3c-1.8 0-3.6 0-5.3.2L843 .3h-20.4l-4.6.2-5-.2zm0 11.4c-30.7 0-56.8 7.6-85.6 8.4l-3 5H744.6c30.6 0 56.5-7.4 85.3-8.3 28.7 1 55 8.4 85.5 8.4H955c30.6 0 56.8-7.4 85.6-8.3 28.8 1 55 8.4 85.8 8.4h39.6c30.6 0 56.7-7.4 85.5-8.3 28.8 1 54.8 8.4 85.5 8.4H1376.8c30.8 0 57-7.4 85.8-8.3 28.8 1 55 8.4 85.6 8.4h39.4c30.6 0 56.7-7.4 85.5-8.3 28.8 1 55 8.4 85.6 8.4h22.7l-3-5c-27.6-1.2-53-8.3-82.6-8.3-1.7 0-3.5 0-5.3.2-1.4-.2-3-.3-4.4-.3H1666c-1.5 0-3 0-4.4.2-1.7-.2-3.5-.3-5.3-.3-31 0-57.2 7.7-86.4 8.4-28.6-1-54.5-8.3-84.8-8.3-1.8 0-3.6 0-5.3.2l-4.5-.3h-20c-1.7 0-3.2 0-4.7.2l-5-.3c-30.8 0-57 7.6-85.8 8.4-29-.7-55-8.3-85.7-8.3-1.8 0-3.6 0-5.3.2l-4.4-.3h-20.3c-1.6 0-3 0-4.5.2-1.7-.2-3.5-.3-5.3-.3-30.6 0-56.7 7.6-85.5 8.4-28.8-.7-54.8-8.3-85.4-8.3-1.8 0-3.6 0-5.3.2l-4.5-.3h-20.1c-1.6 0-3 0-4.6.2-1.6-.2-3.3-.3-5-.3-30.4 0-56.3 7.4-84.8 8.4-29.2-.6-55.6-8.3-86.5-8.3-1.8 0-3.6 0-5.4.2-1.4-.2-3-.3-4.4-.3H822.5c-1.6 0-3.2 0-4.7.2-1.7-.2-3.3-.3-5-.3zm0 11.5c-30.7 0-56.8 7.5-85.6 8.3-2.2 0-4.4-.2-6.5-.3l-3.2 5.3h26.8c30.6 0 56.5-7.5 85.3-8.3 28.7.8 55 8.3 85.5 8.3H955c30.6 0 56.8-7.5 85.6-8.3 28.8.8 55 8.3 85.8 8.3h39.6c30.6 0 56.7-7.5 85.5-8.3 28.8.8 54.8 8.3 85.5 8.3H1376.8c30.8 0 57-7.5 85.8-8.3 28.8.8 55 8.3 85.6 8.3h39.4c30.6 0 56.7-7.5 85.5-8.3 28.8.8 55 8.3 85.6 8.3h29.2l-3-5.2-3.7.2c-29-.8-55-8.3-85.5-8.3H1656.5c-30.6 0-56.7 7.5-85.5 8.3-28.8-.8-55-8.3-85.6-8.3h-39.5c-30.8 0-57 7.5-85.8 8.3-29-.8-55-8.3-85.7-8.3H1234.6c-30.6 0-56.7 7.5-85.4 8.3-28.8-.8-54.8-8.3-85.4-8.3H1024c-30.7 0-56.8 7.5-85.7 8.3-28.8-.8-55-8.3-85.6-8.3H813zm0 11.4c-30.7 0-56.8 7.5-85.6 8.3l-12.8-.8-3.3 5.6H716.6c1 0 2 .2 3 0 1.2.2 2 0 3.2 0 .5 0 1 .2 1.7 0 .5.2 1 0 1.6 0 1 0 2.2.2 3.2 0 1 .2 2 0 3 0 .8.2 1.6 0 2.3 0h9.8c30.6 0 56.5-7.4 85.3-8.2 28.7.8 55 8.3 85.5 8.3l6.3-.2h3.5c.7 0 1.5.2 2.2 0 1 0 2 .2 3 0 1 .2 2.2 0 3.3 0 .5 0 1 .2 1.6 0 .6.2 1.3 0 2 0 1 0 1.8.2 3 0 1 .2 2 0 3 0h11.7c30.6 0 56.8-7.4 85.6-8.2 28.8.8 55 8.3 85.8 8.3l6.2-.2h5.5c1 0 2 .2 3.2 0 1 .2 2 0 3 0 .7 0 1.2.2 1.8 0 .6.2 1 0 1.7 0 1 0 2 .2 3.2 0 1 .2 2 0 3 0h12c30.6 0 56.7-7.4 85.5-8.2 28.8.8 54.8 8.3 85.5 8.3l6.2-.2h3.5c.6 0 1.4.2 2.2 0 1 0 2 .2 3 0 1.2.2 2 0 3.2 0 .5 0 1 .2 1.7 0 .7.2 1.3 0 2 0 1 0 2 .2 3 0 1 .2 2 0 3 0h11.8c30.8 0 57-7.4 85.8-8.2 28.8.8 55 8.3 85.6 8.3l6.2-.2h5.5c1 0 2 .2 3 0 1 .2 2.2 0 3.3 0 .5 0 1 .2 1.6 0 .5.2 1 0 1.6 0 1 0 2 .2 3.2 0 1 .2 2 0 3.2 0h11.8c30.6 0 56.7-7.4 85.5-8.2 28.8.8 55 8.3 85.6 8.3l6.2-.2h5.5c1.2 0 2.2.2 3.3 0 1 .2 2 0 3.2 0 .5 0 1 .2 1.6 0 .6.2 1 0 1.7 0 1 0 2 .2 3.2 0 1 .2 2 0 3.2 0h7.9l-3.3-5.5-10 .6c-29-1-55-8.4-85.6-8.4H1656.5c-30.6 0-56.7 7.5-85.5 8.3-28.8-1-55-8.4-85.6-8.4h-39.5c-30.8 0-57 7.5-85.8 8.3-29-1-55-8.4-85.7-8.4H1234.6c-30.6 0-56.7 7.5-85.4 8.3-28.8-1-54.8-8.4-85.4-8.4H1024c-30.7 0-56.8 7.5-85.7 8.3-28.8-1-55-8.4-85.6-8.4H813zm0 11.4c-30.7 0-56.8 7.5-85.6 8.3-6.5 0-12.7-.8-19-1.5l-3.8 6.5h39.7c30.6 0 56.5-7.5 85.3-8.3 28.7.8 55 8.3 85.5 8.3H955c30.6 0 56.8-7.5 85.6-8.3 28.8.8 55 8.3 85.8 8.3h39.6c30.6 0 56.7-7.5 85.5-8.3 28.8.8 54.8 8.3 85.5 8.3H1376.8c30.8 0 57-7.5 85.8-8.3 28.8.8 55 8.3 85.6 8.3h39.4c30.6 0 56.7-7.5 85.5-8.3 28.8.8 55 8.3 85.6 8.3h42.3L1798 53c-5.5.7-11 1.2-16.4 1.3-29-.8-55-8.3-85.5-8.3H1656.5c-30.6 0-56.7 7.5-85.5 8.3-28.8-.8-55-8.3-85.6-8.3h-39.5c-30.8 0-57 7.5-85.8 8.3-29-.8-55-8.3-85.7-8.3H1234.6c-30.6 0-56.7 7.5-85.4 8.3-28.8-.8-54.8-8.3-85.4-8.3H1024c-30.7 0-56.8 7.5-85.7 8.3-28.8-.8-55-8.3-85.6-8.3H813zm0 11.4c-30.7 0-56.8 7.5-85.6 8.4-8.6-.3-16.8-1.3-25-2.3l-4.3 7.2H744.5c30.6 0 56.5-7.5 85.3-8.3 28.7.8 55 8.4 85.5 8.4 2.2 0 4.2 0 6.3-.2h.7c1 0 2 0 2.8.2h20.1l2.8-.2h.7l6.2.2c30.6 0 56.8-7.6 85.6-8.4 28.8.8 55.2 8.4 85.8 8.4 2 0 4 0 6.2-.2h.8c1 0 1.8 0 2.7.2H1156.4l2.8-.2h.8l6.2.2c30.6 0 56.7-7.6 85.5-8.4 28.8.8 54.8 8.4 85.5 8.4 2 0 4.2 0 6.2-.2h1c.8 0 1.6 0 2.5.2h20.3l2.6-.2h1l6 .2c30.8 0 57-7.6 85.8-8.4 28.8.8 55 8.4 85.6 8.4 2.2 0 4.2 0 6.2-.2h.8c1 0 1.8 0 2.7.2h19.9l2.8-.2h.8l6.2.2c30.6 0 56.7-7.6 85.5-8.4 28.8.8 55 8.4 85.6 8.4 2 0 4 0 6.2-.2h1c.7 0 1.6 0 2.5.2h20l2.8-.2h.7l6.3.2c3 0 6.3 0 9.3-.3L1804 64c-7.5.8-15 1.5-22.6 1.8-29-1-55-8.4-85.5-8.4H1656.5c-30.6 0-56.7 7.5-85.5 8.4-28.8-1-55-8.4-85.6-8.4h-39.5c-30.8 0-57 7.5-85.8 8.4-29-1-55-8.4-85.7-8.4H1234.6c-30.6 0-56.7 7.5-85.4 8.4-28.8-1-54.8-8.4-85.4-8.4H1024c-30.7 0-56.8 7.5-85.7 8.4-28.8-1-55-8.4-85.6-8.4H813zm0 11.4c-30.7 0-56.8 7.5-85.6 8.4-10.7-.3-21-1.7-31.3-3l-4.3 7.4c4.4.3 8.7.6 13.2.6 2 0 4 0 6.2-.2h.7l2.7.2h20c1 0 2 0 2.8-.2h.7l6.3.2c30.6 0 56.5-7.6 85.3-8.4 28.7.8 55 8.4 85.5 8.4 2.2 0 4.2 0 6.3-.2h.7l2.8.2h20.1c1 0 2 0 2.8-.2h.7l6.2.2c30.6 0 56.8-7.6 85.6-8.4 28.8.8 55.2 8.4 85.8 8.4 2 0 4 0 6.2-.2h.8l2.7.2H1156.4c1 0 2 0 2.8-.2h.8l6.2.2c30.6 0 56.7-7.6 85.5-8.4 28.8.8 54.8 8.4 85.5 8.4 2 0 4.2 0 6.2-.2h1l2.5.2h20.3c1 0 1.7 0 2.6-.2h1l6 .2c30.8 0 57-7.6 85.8-8.4 28.8.8 55 8.4 85.6 8.4 2.2 0 4.2 0 6.2-.2h.8l2.7.2h19.9c1 0 2 0 2.8-.2h.8l6.2.2c30.6 0 56.7-7.6 85.5-8.4 28.8.8 55 8.4 85.6 8.4 2 0 4 0 6.2-.2h1l2.5.2h20c1 0 1.8 0 2.8-.2h.7l6.3.2c5.3 0 10.6-.3 15.7-.7l-4-7c-9.5 1.2-19 2.4-28.7 2.7-29-1-55-8.4-85.5-8.4H1656.5c-30.6 0-56.7 7.5-85.5 8.4-28.8-1-55-8.4-85.6-8.4h-39.5c-30.8 0-57 7.5-85.8 8.4-29-1-55-8.4-85.7-8.4H1234.6c-30.6 0-56.7 7.5-85.4 8.4-28.8-1-54.8-8.4-85.4-8.4H1024c-30.7 0-56.8 7.5-85.7 8.4-28.8-1-55-8.4-85.6-8.4H813z" fill="url(#A)"/><g><path d="M484.7 297.5h-.4v10.8c0 2.3.8 4.2 2 6.4l.2.5c.4 1 .7 1.5 2.3 2.7 5 3.7 11.2 4.2 14.8 4-1-1-2.3-1.8-3.4-2.5 1.7 0 3.3-.3 4.5-.5-3.6-1-7-3.3-9.8-6.2l-1.5-1.5-.6-.8c-1.2-1.4-2.3-3-3.2-4.5l-1-2c-.5-1-1-2-1.3-3l-.3-1-.6-2-.4-.2-.5-.2h-1z" fill="#e4e630"/></g><g><path d="M485.4 299c.4 6 2.3 13 6.7 17.7 1.7 1.3 3.7 2.6 5.7 2.3-6.8-5.5-11-14-12.3-20z" fill="#ccd11e"/></g><path d="M488.6 306.8c2.4 5.8 8.3 11.2 14.5 15 1.2 0 1.6 0 2.6-.2-4.4-2.4-11.5-5.7-17-14.8z" fill="#9ecb34"/><g><path d="M497 281.7c-.5 0-1.4 1-1.8.5-.3-.4-.3-1 0-1.4.5-1.2 1-1.8 2-2.4 2.5-1.4 4-1 5.2 1 1 2 2 3.8 2.2 5.5 0 .4.3 1.3 0 1.7-1.5 1.4-4.7-1.4-6.6-1-.7.2-1.4.6-2 .2-.5-.4 0-1 .3-1.3.6-.6 1.5-1.3 1.3-2 0-.6 0-1-.5-1z" fill="red"/><path d="M497 280.7c-1.2.4-1 1-1.6 1.6 0 0 .7.3 1.3-.3l.7-.4-.7.7c-.8.7-2 4-1.5 5.6.5 1.7 4.2 1.6 5.8 1.6 1.6 0 5-1 3.2-2-1.3-.5-4-.2-5.3 0-.5-4 0-2.7-.2-4.4 0-1.8-.6-2 0-3.3-.5.8-1.2.6-2 .7z" fill="#a00"/><path d="M501 278c-.2.2-.2.5-.2.6l.3 1c.2.3.3.5.3 1 0 .2.4.4.7.6.4.3 0 1 .3 1 .2 0 .5-1 .5-1.2v-.6c0-.3-.3-.6-.4-1 0 0-.2 0-.2-.2l-.8-1h-.3v-.2zM498.3 288c-.7-.5-2 0-2.7.4-.4.3-.7-.6-.6-1 0-.6-.2-1.2.4-1.4 1-.4 2.5-.8 3.7-.7h2.6c.7 0 1.5 0 2 .4.6.2 1.3.3 1.3.8s0 1-.2 1.6c-.2.7-1 .3-1.3.2-.6 0-1 .7-1 1.3-.3 1.4-.6 2.2-1 3.4 0 .8-.4 1.6-1.2 1.4-.6 0-1-1.5-1-2 0-.7.4-2.2.2-2.8-.4-1.7-.8-1.5-1.2-1.7z" fill="#ff2a2a"/><path d="M498.3 288c-.7-.5-2 0-2.7.4-.4.3-.7-.6-.6-1 0-.6-.2-1.2.4-1.4 1-.4 2.5-.8 3.7-.7-1.3-.2-.6 2-.7 2.6z" fill="#e91515"/></g><path d="M500 225l-32.2 55.6-32.8 57h130l-32.2-55.8-32.8-57zm0 3l31.5 54.5 31 53.5H437.5l31.5-54.7 31-53.4z" fill="#c8a400"/></svg>