<svg xmlns="http://www.w3.org/2000/svg" xmlns:xlink="http://www.w3.org/1999/xlink" width="600" height="300" viewBox="0,0 1200,600"><title>Flag of Oman</title><path fill="#db161b" d="M0 0h1200v600H0z"/><path fill="#fff" d="M300 0h900v200H300z"/><path fill="green" d="M300 400h900v200H300z"/><g id="a" fill-rule="evenodd" stroke="#db161b" stroke-width=".4" fill="#fff"><rect rx="3.2" ry="3" height="21.2" width="38.7" y="102.6" x="65.9"/><rect rx="3.1" ry="2.8" height="19.4" width="36.7" y="103.5" x="66.8"/><path d="M84 108.8h1.8v1l1.6.7 1-1 1.6.8-1.4 1 .4 1h1.6v1.5h-1.3l-.7 1 1.5 1-1 1-1.3-1-2 .3.2 1.5-2 .2-.3-1.4-1.7-.7-1 1-1.4-.7 1-1.2-1.2-.7H78v-2l1.4.2 1-1.2-1.2-1 1.5-1 1 1 2-.3.2-1z" stroke-width=".2"/><ellipse cx="68.9" cy="426.8" rx="11" ry="9.9" transform="matrix(.18418 0 0 .1752 71.8 38.2)" stroke-width="1pt"/><path d="M71.8 104.4l-3 2.7M73.8 104.4l-3 2.7M75.8 104.4l-3 2.7M77.8 104.4l-3 2.7M79.7 104.4l-3 2.7M81.7 104.4l-3 2.7M83.7 104.4l-3 2.7M85.7 104.4l-3 2.7M87.7 104.4l-3 2.7M89.7 104.4l-3 2.7M91.6 104.4l-3 2.7M93.6 104.4l-3 2.7M85.7 104.4l-3 2.7M95.6 104.4l-3 2.7M97.6 104.4l-3 2.7M99.6 104.4l-3 2.7M101.5 104.4l-3 2.7M98.6 104.4l3 2.7M96.6 104.4l3 2.7M94.6 104.4l3 2.7M92.6 104.4l3 2.7M90.6 104.4l3 2.7M88.7 104.4l3 2.7M86.7 104.4l3 2.7M84.7 104.4l3 2.7M82.7 104.4l3 2.7M80.7 104.4l3 2.7M78.7 104.4l3 2.7M76.8 104.4l3 2.7M84.7 104.4l3 2.7M74.8 104.4l3 2.7M72.8 104.4l3 2.7M70.8 104.4l3 2.7M68.8 104.4l3 2.7M71.8 119.4l-3 2.7M73.8 119.4l-3 2.7M75.8 119.4l-3 2.7M77.8 119.4l-3 2.7M79.7 119.4l-3 2.7M81.7 119.4l-3 2.7M83.7 119.4l-3 2.7M85.7 119.4l-3 2.7M87.7 119.4l-3 2.7M89.7 119.4l-3 2.7M91.6 119.4l-3 2.7M93.6 119.4l-3 2.7M85.7 119.4l-3 2.7M95.6 119.4l-3 2.7M97.6 119.4l-3 2.7M99.6 119.4l-3 2.7M101.5 119.4l-3 2.7M98.6 119.4l3 2.7M96.6 119.4l3 2.7M94.6 119.4l3 2.7M92.6 119.4l3 2.7M90.6 119.4l3 2.7M88.7 119.4l3 2.7M86.7 119.4l3 2.7M84.7 119.4l3 2.7M82.7 119.4l3 2.7M80.7 119.4l3 2.7M78.7 119.4l3 2.7M76.8 119.4l3 2.7M84.7 119.4l3 2.7M74.8 119.4l3 2.7M72.8 119.4l3 2.7M70.8 119.4l3 2.7M68.8 119.4l3 2.7"/></g><use xlink:href="#a" x="-300" transform="scale(-1 1)"/><g id="b" stroke="#db161b"><path d="M126.5 147c-48 47.2-68.6 53-59 57s40.6-20.6 73-52.8c32-32.3 51.8-61 42.2-64.8-9.6-3.8-5 10.7-56.2 60.7z" fill-rule="evenodd" stroke-width=".6" fill="#fff"/><path d="M86 181.3l17 4.4C87 200.7 69 207 64 204.3c-5-2.7 9-8.8 21.8-23z" fill-rule="evenodd" stroke-width=".3" fill="#fff"/><path d="M86 183l14 3.6C84.3 201 69 205.2 65 203.4c-4-1.7 8.3-6.7 20.8-20.3z" fill-rule="evenodd" stroke-width=".3" fill="#fff"/><path d="M137.8 145l-.3 1.7v1.4c-.2.5-.2.8-.7 1-.3.4-.5.6-1 .8l-1.2.6c-.5.2-1 .2-1.5 0-.3 0-.6-.4-1-.6l-.3-1.2c.2.3.3 1 .3 1.4 0 .5-.3.8-.5 1.2M133.2 152.4c.2 0 0 0-.6-.4l-1.6-.4h-1.7c-.7 0-1 0-1.6.2-.4.3-1 .5-1.2.8-.4.2-.6.5-.8 1-.3.2-.5.6-1 .8 0 .5-.3.5-.5 1 .6 0 1 0 1.4.3l-.6-.4-1-.2c-.7 0-1 .2-1.6.3-.3.2-.4.2-1 .2M126.6 157.8c-.3 0-1.4.2-2 0-.4 0-.7-.3-1-.7v1c0 .6-.2.6-.6 1l-1 .7-1.2.5c-.4.2-.8.3-1 .6-.5.2-.5.5-.7 1 0 .5.2.8.6 1 0 .4.4.8.7 1 .3.5.6.8 0 1H119M118.8 165.5l-1.8-.6h-1.8c-.6 0-.8 0-1.3.4l-1.2.7-1 1.3-.3 1.4c0 .7.2.8.3 1.4 0 .5.4 1 .7 1.4l.3.2M113 173l-.4.5c-.4.4-.4.5-1 .5s-.5-.3-1-.4c0-.3-.3-.5-.5-1l-.4-.6c0-.3-.3-.5-.5-.7 0 0 0-.2-.3-.2.5.2.5.4.8.6l.5.8.2 1c0 .6 0 1-.2 1.3l-.6.6-.7.7-.7.5-1 .4-1-.5-1-.6c0-.2-.4-.5-.5-.8-.5 0-.8 0-1 .2l-.7.6-.5.4M103.3 176.6l1 .5c0 .5.3.8.3 1.3v1.5c0 .5-.2 1-.4 1.4l-1 .6h-1.4c-.3.2-1 .3-1.3 0-.5 0-1 0-1.2-.3l-1-.6c-.3-.5-.6-.7-1-1l-.6-1c0 .4.4.8.5 1.2.3.5.4.6.5 1.2v3M87.2 186.2v.2c0-.4 0-.2.2.6.3.4 1 .5 1.8.3.5-.4.5-.7 1.5-1 1 0 1.4.4 2 .7.6.3 1 .4 1.4 1 .3.6.4 1-.3 1.2-.5.3-1.2.5-2 .6-.7 0-1.3 0-1.7.3-.5.6-.5 1-.5 1.8-.2.3-.2 1-.3 1.4-.5.3-.8.4-1.6.4l-.5-2c0-.5 0-1.2-.5-1.6-.3-.5-.7-.8-1.2-1-.2-.4-.6-.6-1-.7.7.3.8.6.8 1.4-.5.2-.6.4-1.6.4s-1.2-.2-1.6-.7c0 .8-.3 1-.5 1.8-.4.5-.5 1-1 1.6.3.8.6.8.6 1.7.2.6 0 1.2.6 1.6.3 0 .4.2 1 .2-1 0-1.7 0-2.4-.5-.5-.2-1-.6-1.4-1-.6-.3-1.3-.7-2-.8-1 0-1.4-.2-1.8.2-.5.3-.8.8-1 1.5-.2 1-.3 1.4 0 2 .4.5.5.8 0 1.5-.3.5-1 .5-1.8.8-.7 0-1.3-.2-1.7-.4" stroke-width=".3" fill="none"/><path d="M181.4 104.7c21.4-37 35.5-68.3 31.6-70-4-1.8-24.3 26.6-45.7 63.5l14 6.5z" fill-rule="evenodd" stroke-width=".4" fill="#fff"/><path d="M180 104c20.6-35.5 34.8-65.6 31.7-67s-22.4 26.3-43 61.8" fill-rule="evenodd" stroke-width=".4" fill="#fff"/><path d="M176.5 85.5c-2.5 4-5.2 9-7.8 13.3L180 104c2.6-4.4 5.4-9 7.7-13.3l-11.2-5.2z" fill-rule="evenodd" stroke-width=".4" fill="#fff"/><path d="M177.4 87c-2.5 4-4.2 7.2-6.8 11.7l8.4 4 7-12-8.6-3.8z" fill-rule="evenodd" stroke-width=".4" fill="#fff"/><path transform="matrix(-.90832 -.41827 -.50125 .8653 0 0)" stroke-width=".4" fill="#fff" d="M-205.7 6.6h6.2v10h-6.2z"/><path d="M183.6 91.7l-10.7 6M178.5 100.3L178 89M209 47.7l-5.6-2.6" fill-rule="evenodd" stroke-width=".4" fill="#fff"/><ellipse rx="3.5" ry="3.5" transform="matrix(-.449 .1132 .10134 .39387 444.3 -55.8)" cy="92.1" cx="545.7" stroke-width="1pt" fill="#db161b"/></g><use xlink:href="#b" x="-300" transform="scale(-1 1)"/><path d="M135.3 85c0 31 0 42.6-2 44.2-2.3 1.7-62.5 0-62.5 8.8s49.6 17.7 64.5 17.7c19.8 0 29.7-9 29.7-26.5V85h-29.7z" fill-rule="evenodd" stroke="#db161b" stroke-width=".4" fill="#fff"/><path d="M135.3 93.8v4.4c10 1.5 19.8 1.5 29.7 0v-4.4c-10 1.5-19.8 1.5-29.7 0zM135.3 85v4.4c10 1.5 19.8 1.5 29.7 0V85c-10 1.4-19.8 1.4-29.7 0z" fill-rule="evenodd" stroke="#db161b" stroke-width=".4" fill="#fff"/><path d="M135.3 89.4v4.4c10 1.5 19.8 1.5 29.7 0v-4.4c-10 1.5-19.8 1.5-29.7 0zM135.3 98.2v4.4c10 1.5 19.8 1.5 29.7 0v-4.4c-10 1.5-19.8 1.5-29.7 0z" fill-rule="evenodd" stroke="#db161b" stroke-width=".4" fill="#fff"/><ellipse rx="8.9" ry="26.6" stroke="#db161b" transform="matrix(.15263 0 0 .03588 97.4 84.3)" cy="210.8" cx="256.9" stroke-width="4.5" fill="#fff"/><ellipse rx="8.9" ry="26.6" stroke="#db161b" transform="matrix(.15263 0 0 .03588 97.4 83.5)" cy="246.3" cx="292.3" stroke-width="4.5" fill="#fff"/><ellipse rx="8.9" ry="26.6" stroke="#db161b" transform="matrix(.15263 0 0 .03588 97.4 83.4)" cy="264" cx="327.8" stroke-width="4.5" fill="#fff"/><ellipse rx="8.9" ry="26.6" stroke="#db161b" transform="matrix(.15263 0 0 .03588 97.4 83.4)" cy="264" cx="363.2" stroke-width="4.5" fill="#fff"/><ellipse rx="8.9" ry="26.6" stroke="#db161b" transform="matrix(.15263 0 0 .03588 97.4 83.5)" cy="246.3" cx="398.6" stroke-width="4.5" fill="#fff"/><ellipse rx="8.9" ry="26.6" stroke="#db161b" transform="matrix(.15263 0 0 .03588 97.4 84.3)" cy="210.8" cx="434.1" stroke-width="4.5" fill="#fff"/><g fill-rule="evenodd" stroke="#db161b" stroke-width=".4" fill="#fff"><path d="M135.3 107l29.7 24M138.2 107l26.8 21.3M142.2 108l22.8 17.6M145.2 108l19.8 15M148.2 108l16.8 12.3M151 108l14 9.7M154 108l11 7M157 108l8 5.2M160 108l5 3.5M163 108l2 1.7M135.3 109.7l29.7 24M165 107l-32.7 26.6M162 107l-28.7 23M158 108l-22.7 17.6M155 108l-19.7 15M152 108l-16.7 12.3M149 108l-13.7 9.7M146.2 108l-11 7M143.2 108l-8 5.2M140.2 108l-5 3.5M137.2 108l-2 1.7M165 109.7l-32.7 26.5M165 112.4L132.3 139M165 115l-32.7 26.5M165 117.7l-32.7 26.5M165 120.3l-32.7 26.5M165 123l-32.7 26.5M165 125.6L132.3 152M165 128.3l-32.7 26.5M165 131l-30.7 24.7M165 133.6l-27.8 22M164 137L142.2 155M163 140.7l-17.8 14M161 145l-9 7M135.3 112.4l28.7 23M135.3 115l28.7 23M135.3 117.7l27.7 22M135.3 120.3l27.7 22M135.3 123l26.7 21.2M134.3 124.7L161 146M134.3 127.4l24.8 19.4M133.3 129.2l24.8 19.4M132.3 131l23.8 18.5M132.3 133.6l22.8 17.7M132.3 136.2l19.8 16"/></g><path d="M135.3 102.6v4.5c10 1.5 19.8 1.5 29.7 0v-4.4c-10 1.5-19.8 1.5-29.7 0zM132.3 139l17.8 14M132.3 141.5L148 154M132.3 144.2l14 10.6M132.3 146.8l10 8M132.3 149.5l8 6.2M132.3 152l5 3.7" fill-rule="evenodd" stroke="#db161b" stroke-width=".4" fill="#fff"/><ellipse rx="8.9" ry="26.6" stroke="#db161b" transform="matrix(.15263 0 0 .03588 97.4 97.6)" cy="210.8" cx="256.9" stroke-width="4.5" fill="#fff"/><ellipse rx="8.9" ry="26.6" stroke="#db161b" transform="matrix(.15263 0 0 .03588 97.4 96.8)" cy="246.3" cx="292.3" stroke-width="4.5" fill="#fff"/><ellipse rx="8.9" ry="26.6" stroke="#db161b" transform="matrix(.15263 0 0 .03588 97.4 96.6)" cy="264" cx="327.8" stroke-width="4.5" fill="#fff"/><ellipse rx="8.9" ry="26.6" stroke="#db161b" transform="matrix(.15263 0 0 .03588 97.4 96.6)" cy="264" cx="363.2" stroke-width="4.5" fill="#fff"/><ellipse rx="8.9" ry="26.6" stroke="#db161b" transform="matrix(.15263 0 0 .03588 97.4 96.8)" cy="246.3" cx="398.6" stroke-width="4.5" fill="#fff"/><ellipse rx="8.9" ry="26.6" stroke="#db161b" transform="matrix(.15263 0 0 .03588 97.4 97.6)" cy="210.8" cx="434.1" stroke-width="4.5" fill="#fff"/><g fill-rule="evenodd" stroke="#db161b" stroke-width=".4" fill="#fff"><path d="M92.6 148.6l35.7-18.6M90.6 147.7l33.8-17.7M89.7 146l30.7-16M88.7 144.2l26.7-14.2M86.7 142.4l24.8-12.4M87.7 139.8l16.8-9M86.7 138l13-7M86.7 135.3l9-4.4M95.6 149.5l33.7-17.7M98.6 150.4l31.7-16.8M101.5 151.3l29.8-16M104.5 152l24.8-13M108.5 152l21.8-11.4M111.5 153l18.8-9.7M114.4 154l15-8M118.4 154l12-6.3M122.4 154.8l8-4.4M126.3 154.8l5-2.7"/></g><path d="M133.3 129.2h-5c-1.6 8.8-1.6 17.6 0 26.5h5c-1.7-9-1.7-17.7 0-26.5zM74.8 141.5l12-8.8M74.8 135.3l12 10.7" fill-rule="evenodd" stroke="#db161b" stroke-width=".4" fill="#fff"/><path d="M92.6 131l-6 .8c-1.2 5.6-1.2 10.3 0 16l6 1.7c-1.3-5.6-1.3-13 0-18.6z" fill-rule="evenodd" stroke="#db161b" stroke-width=".3" fill="#fff"/><path d="M165 86.7v-4.4c-4.5 0-7.5-2.6-7.5-5.3h-14.8c0 2.7-3 5.3-7.4 5.3v4.4H165z" fill-rule="evenodd" stroke="#db161b" stroke-width=".4" fill="#fff"/><path stroke="#db161b" stroke-width=".4" fill="#fff" d="M143.8 71.7h12.7V77h-12.7zM144.8 66.4h10.6v5.3h-10.6zM144.8 61h10.6v5.4h-10.6zM146 54h8.4v7H146zM145.5 47.8h9.2V54h-9.2z"/><ellipse rx="42.5" ry="33.7" stroke="#db161b" transform="matrix(.28916 0 0 .2495 82 1.9)" cy="161.2" cx="237.4" stroke-width="1pt" fill="#fff"/><path d="M156.8 41.6c0 2.4 3 6.2 3 6.2-2.2 1.5-5.8 2.7-9.2 2.7s-7.6-.6-9.2-2.7c0 0 3-3.8 3-6.2 0-2.3-3-5.3-3-5.3 2.2-1.5 5.8-2.6 9.2-2.6s7 1 9.3 2.6c-.2 0-3.2 3-3.2 5.3z" fill-rule="evenodd" stroke="#db161b" stroke-width=".4" fill="#fff"/><path d="M154.7 41.6c0 2.4 3 7 3 7-2 1.6-3.7 2-7 2s-5.6 0-7.2-2c0 0 3-4.6 3-7 0-2.3-3-6-3-6 2.2-1.7 3.7-2 7-2s5 .3 7.3 2c0 0-3 3.7-3 6z" fill-rule="evenodd" stroke="#db161b" stroke-width=".4" fill="#fff"/><ellipse rx="10.6" ry="10.6" stroke="#db161b" transform="matrix(.28916 0 0 .2495 82 1)" cy="166.5" cx="194.9" stroke-width="1pt" fill="#fff"/><ellipse rx="10.6" ry="10.6" stroke="#db161b" transform="matrix(.28916 0 0 .2495 106.6 1)" cy="166.5" cx="194.9" stroke-width="1pt" fill="#fff"/><ellipse rx="10.6" ry="10.6" stroke="#db161b" transform="matrix(.28916 0 0 .2495 94.3 1)" cy="166.5" cx="194.9" stroke-width="1pt" fill="#fff"/><ellipse rx="10.6" ry="10.6" stroke="#db161b" transform="matrix(.28916 0 0 .2495 94.3 -7.9)" cy="166.5" cx="194.9" stroke-width="1pt" fill="#fff"/><ellipse rx="10.6" ry="10.6" stroke="#db161b" transform="matrix(.29948 0 0 .2495 83.3 42.5)" cy="166.5" cx="194.9" stroke-width="1pt" fill="#fff"/><ellipse rx="10.6" ry="10.6" stroke="#db161b" transform="matrix(.29948 0 0 .2495 100.2 42.5)" cy="166.5" cx="194.9" stroke-width="1pt" fill="#fff"/><path d="M142.7 77h14.8l-7.4 8-7.3-8z" fill-rule="evenodd" stroke="#db161b" stroke-width=".4" fill="#fff"/><ellipse rx="10.6" ry="10.6" stroke="#db161b" transform="matrix(.3993 0 0 .33266 72.3 27.8)" cy="166.5" cx="194.9" stroke-width="1pt" fill="#fff"/><rect rx="1.2" ry=".9" height="5.3" width="22.8" stroke="#db161b" y="109.7" x="133.8" stroke-width=".3" fill="#fff"/><path d="M163.5 105.3c-2.7 0-5 2-5 4.6v4c0 2.5 2.3 4.6 5 4.6s5-2 5-4.7v-4c0-2.6-2.2-4.7-5-4.7zm0 1.8c-1.6 0-3 1.7-3 3.8v2.3c0 2 1.4 3.8 3 3.8s3-1.7 3-3.7V111c0-2-1.3-3.7-3-3.7zM137.7 106.2c-1.6 0-3 1.6-3 3.7v4c0 2 1.4 3.7 3 3.7s3-1.7 3-3.7v-4c0-2.2-1.3-3.8-3-3.8zm0-1.8c-2.7 0-5 2-5 4.6v5.8c0 2.6 2.3 4.7 5 4.7s5-2 5-4.7V109c0-2.5-2.2-4.6-5-4.6z" fill-rule="evenodd" stroke="#db161b" stroke-width=".3" fill="#fff"/><path d="M129.8 108c-1.6 0-3 1.6-3 3.7v1c0 2 1.4 3.6 3 3.6s3-1.6 3-3.7v-1c0-2-1.3-3.6-3-3.6zm0-1.8c-2.7 0-5 2-5 4.6v2.7c0 2.5 2.3 4.6 5 4.6s5-2 5-4.5v-2.7c0-2.5-2.3-4.6-5-4.6z" fill-rule="evenodd" stroke="#db161b" stroke-width=".3" fill="#fff"/><path d="M118 105.5c-3 0-5.4 2-5.4 4v4.7c0 2.3 2.3 4 5.3 4s5.3-1.7 5.3-4v-4.6c0-2.2-2.4-4-5.4-4zm0-2c-5 0-9 2.3-9 5.2v6.5c0 2.8 4 5 9 5s8.8-2.2 8.8-5v-6.5c0-3-4-5.2-9-5.2zM182.4 106.4c-3 0-5.4 1.8-5.4 4v4.7c0 2.4 2.4 4.2 5.4 4.2 3 0 5.3-1.8 5.3-4v-4.7c0-2.3-2.4-4-5.3-4zm0-2c-5 0-9 2.3-9 5.2v6.5c0 3 4 5.2 9 5.2s9-2.3 9-5.2v-6.4c0-3-4-5.2-9-5.2z" fill-rule="evenodd" stroke="#db161b" stroke-width=".3" fill="#fff"/><rect rx=".6" ry=".9" height="5.3" width="11.9" stroke="#db161b" y="109.7" x="165.5" stroke-width=".3" fill="#fff"/><rect rx=".4" ry="1.3" height="7.1" width="6.9" stroke="#db161b" y="108.8" x="154.6" stroke-width=".3" fill="#fff"/><rect rx=".4" ry="1.3" height="7.1" width="6.9" stroke="#db161b" y="108.8" x="121.9" stroke-width=".3" fill="#fff"/><rect rx=".8" ry="1.6" height="8.8" width="13.9" stroke="#db161b" y="108" x="100.1" stroke-width=".3" fill="#fff"/><rect rx=".7" ry="1.6" height="8.8" width="12.9" stroke="#db161b" y="108.8" x="186.3" stroke-width=".3" fill="#fff"/></svg>