<svg xmlns="http://www.w3.org/2000/svg" version="1" width="1000" height="600"><defs><linearGradient id="a"><stop offset="0"/><stop offset="1" stop-color="#fff"/></linearGradient></defs><path font-size="12" fill="#fff" fill-rule="evenodd" d="M0 0h1000v600H0z"/><path font-size="12" fill="#0038a8" fill-rule="evenodd" d="M0 400h1000v200H0z"/><path font-size="12" fill="#ce1126" fill-rule="evenodd" d="M0 0h1000v200H0z"/><path d="M563.5 250a63.5 63.5 0 1 1-127 0 63.5 63.5 0 1 1 127 0z" fill="#fff" fill-rule="evenodd" stroke="#000" stroke-width="2.5" transform="matrix(1.2 0 0 1.2 -100 0)"/><path d="M510.3 264.4s29.4 12.6 24.2 38.8c-5 26-21.4 26-27.8 29-6.5 2.8-11 7-13.4 6.3-2.5-.6-6-2.5-6-2.5s-.2 4.3 5 5c5 .8 12-6.7 15.2-7.6 3.2-.8 23.2-3 28-29.6 5.7-28.4-25-38.6-25.2-39.4z" font-size="12" fill="#006700" fill-rule="evenodd" stroke="#000" stroke-width=".24"/><path d="M320.3 487.2a26 108.3 0 1 1-51.8 0 26 108.3 0 1 1 51.8 0z" transform="matrix(.03734 -.00286 .0092 .03604 508.7 253.3)" font-size="12" fill="#006700" fill-rule="evenodd" stroke="#000" stroke-width="2.6"/><path d="M320.3 487.2a26 108.3 0 1 1-51.8 0 26 108.3 0 1 1 51.8 0z" transform="matrix(.0338 -.01235 .017 .03437 505 257.4)" font-size="12" fill="#006700" fill-rule="evenodd" stroke="#000" stroke-width="2.6"/><path d="M320.3 487.2a26 108.3 0 1 1-51.8 0 26 108.3 0 1 1 51.8 0z" transform="matrix(.00354 -.03837 .03482 .0102 503.1 279.5)" font-size="12" fill="#006700" fill-rule="evenodd" stroke="#000" stroke-width="2.6"/><path d="M320.3 487.2a26 108.3 0 1 1-51.8 0 26 108.3 0 1 1 51.8 0z" transform="matrix(.0163 -.03234 .0317 .02126 500.9 271.1)" font-size="12" fill="#006700" fill-rule="evenodd" stroke="#000" stroke-width="2.6"/><path d="M320.3 487.2a26 108.3 0 1 1-51.8 0 26 108.3 0 1 1 51.8 0z" transform="matrix(.0247 -.0253 .02693 .02798 501.8 265.1)" font-size="12" fill="#006700" fill-rule="evenodd" stroke="#000" stroke-width="2.6"/><path d="M525 274.3l-1.5.7c-.2 0-.6-.3-1.3 0-.8.4-1.3 1-1.5 1.5 0 .5.2.6 1 .2 1-.5 1.3-1 1.7-1.4l1.6-.8 1-1.8c.4-.5 1.6-1.3 2-2.2.4-.8.2-1.4-.3-1-.5 0-1 1-1.4 1.5-.3.5 0 1.2-.4 1.8-.4.3-1 1.5-1 1.5z" font-size="12" fill="#006700" fill-rule="evenodd"/><path d="M320.3 487.2a26 108.3 0 1 1-51.8 0 26 108.3 0 1 1 51.8 0z" transform="matrix(.05266 .0126 .0008 .05573 516.8 246.1)" font-size="12" fill="#006700" fill-rule="evenodd" stroke="#000" stroke-width="2.6"/><path d="M320.3 487.2a26 108.3 0 1 1-51.8 0 26 108.3 0 1 1 51.8 0z" transform="matrix(.05092 -.00256 .01218 .05683 510.3 250.4)" font-size="12" fill="#006700" fill-rule="evenodd" stroke="#000" stroke-width="2.6"/><path d="M320.3 487.2a26 108.3 0 1 1-51.8 0 26 108.3 0 1 1 51.8 0z" transform="matrix(.01762 -.05337 .04484 .03017 500.3 281.1)" font-size="12" fill="#006700" fill-rule="evenodd" stroke="#000" stroke-width="2.6"/><path d="M320.3 487.2a26 108.3 0 1 1-51.8 0 26 108.3 0 1 1 51.8 0z" transform="matrix(.0333 -.03902 .03687 .04464 500.1 268.1)" font-size="12" fill="#006700" fill-rule="evenodd" stroke="#000" stroke-width="2.6"/><path d="M320.3 487.2a26 108.3 0 1 1-51.8 0 26 108.3 0 1 1 51.8 0z" transform="matrix(.04257 -.0252 .02802 .05213 503.3 259.8)" font-size="12" fill="#006700" fill-rule="evenodd" stroke="#000" stroke-width="2.6"/><path d="M532.2 283.4l-2 .4c-.5 0-1-.8-2-.6-1.2.3-2 1-2.5 1.5-.4.6 0 1 1.5.8 1.4-.3 2-1.2 2.7-1.4l2.3-.3 2-2c.7-.6 2.6-1.2 3.5-2.3.8-1 .8-2 0-1.8-.8.2-2 1-2.6 1.6-.6.7-.4 1.8-1 2.4-.6.4-2 1.8-2 1.8z" font-size="12" fill="#006700" fill-rule="evenodd" stroke="#000" stroke-width=".12"/><path d="M320.3 487.2a26 108.3 0 1 1-51.8 0 26 108.3 0 1 1 51.8 0z" transform="matrix(.0492 .02257 -.00928 .0552 527.6 255.3)" font-size="12" fill="#006700" fill-rule="evenodd" stroke="#000" stroke-width="2.6"/><path d="M320.3 487.2a26 108.3 0 1 1-51.8 0 26 108.3 0 1 1 51.8 0z" transform="matrix(.05023 .00725 .00165 .05847 520.4 258.3)" font-size="12" fill="#006700" fill-rule="evenodd" stroke="#000" stroke-width="2.6"/><path d="M320.3 487.2a26 108.3 0 1 1-51.8 0 26 108.3 0 1 1 51.8 0z" transform="matrix(.02685 -.04933 .0384 .03842 505.2 286.7)" font-size="12" fill="#006700" fill-rule="evenodd" stroke="#000" stroke-width="2.6"/><path d="M320.3 487.2a26 108.3 0 1 1-51.8 0 26 108.3 0 1 1 51.8 0z" transform="matrix(.03958 -.03214 .02798 .05117 507.3 273.9)" font-size="12" fill="#006700" fill-rule="evenodd" stroke="#000" stroke-width="2.6"/><path d="M320.3 487.2a26 108.3 0 1 1-51.8 0 26 108.3 0 1 1 51.8 0z" transform="matrix(.04615 -.0167 .018 .05687 512 266.3)" font-size="12" fill="#006700" fill-rule="evenodd" stroke="#000" stroke-width="2.6"/><path d="M536 295c0 .2-1.8.2-2.2 0-.4 0-.6-.8-1.8-.8-1.2 0-2.2.6-2.7 1-.4.5 0 1 1.4 1s2-.7 2.8-.8h2.5l2.4-1.5c.6-.6 2.6-.8 3.7-1.8 1-.7 1.2-1.7.4-1.7-.8 0-2 .6-2.8 1-.7.7-.8 1.8-1.5 2.3l-2 1.3z" font-size="12" fill="#006700" fill-rule="evenodd" stroke="#000" stroke-width=".12"/><path d="M320.3 487.2a26 108.3 0 1 1-51.8 0 26 108.3 0 1 1 51.8 0z" transform="matrix(.03578 .04127 -.02983 .04734 542.2 266.8)" font-size="12" fill="#006700" fill-rule="evenodd" stroke="#000" stroke-width="2.6"/><path d="M320.3 487.2a26 108.3 0 1 1-51.8 0 26 108.3 0 1 1 51.8 0z" transform="matrix(.04265 .0275 -.0212 .0549 534.6 266.6)" font-size="12" fill="#006700" fill-rule="evenodd" stroke="#000" stroke-width="2.6"/><path d="M320.3 487.2a26 108.3 0 1 1-51.8 0 26 108.3 0 1 1 51.8 0z" transform="matrix(.04346 -.03464 .01983 .0515 509.8 286.6)" font-size="12" fill="#006700" fill-rule="evenodd" stroke="#000" stroke-width="2.6"/><path d="M320.3 487.2a26 108.3 0 1 1-51.8 0 26 108.3 0 1 1 51.8 0z" transform="matrix(.0483 -.01344 .00547 .05902 516.7 275.6)" font-size="12" fill="#006700" fill-rule="evenodd" stroke="#000" stroke-width="2.6"/><path d="M320.3 487.2a26 108.3 0 1 1-51.8 0 26 108.3 0 1 1 51.8 0z" transform="matrix(.04826 .0036 -.0058 .06017 523.8 270.5)" font-size="12" fill="#006700" fill-rule="evenodd" stroke="#000" stroke-width="2.6"/><path d="M534.4 307.2s-1.7-.7-2-1c-.3-.2-.2-1-1.2-1.5s-2.3-.4-3-.2c-.4.2-.3.8 1 1.5 1.2.6 2.2.2 2.8.4l2.3 1 2.8-.4c.8-.2 2.7.4 4 0 1.2-.3 1.8-1.2 1-1.5-.7-.3-2-.3-3 0-.8 0-1.3 1-2 1.3-.8 0-2.5.4-2.6.4z" font-size="12" fill="#006700" fill-rule="evenodd" stroke="#000" stroke-width=".12"/><path d="M320.3 487.2a26 108.3 0 1 1-51.8 0 26 108.3 0 1 1 51.8 0z" transform="matrix(.02582 .0585 -.0484 .04146 550.8 277.9)" font-size="12" fill="#006700" fill-rule="evenodd" stroke="#000" stroke-width="2.6"/><path d="M320.3 487.2a26 108.3 0 1 1-51.8 0 26 108.3 0 1 1 51.8 0z" transform="matrix(.03792 .04578 -.0414 .05293 542.5 274.9)" font-size="12" fill="#006700" fill-rule="evenodd" stroke="#000" stroke-width="2.6"/><path d="M320.3 487.2a26 108.3 0 1 1-51.8 0 26 108.3 0 1 1 51.8 0z" transform="matrix(.05922 -.02252 .0049 .064 508.5 288.1)" font-size="12" fill="#006700" fill-rule="evenodd" stroke="#000" stroke-width="2.6"/><path d="M320.3 487.2a26 108.3 0 1 1-51.8 0 26 108.3 0 1 1 51.8 0z" transform="matrix(.0576 .00264 -.01338 .06713 519.8 278.4)" font-size="12" fill="#006700" fill-rule="evenodd" stroke="#000" stroke-width="2.6"/><path d="M320.3 487.2a26 108.3 0 1 1-51.8 0 26 108.3 0 1 1 51.8 0z" transform="matrix(.05194 .02142 -.02616 .06432 529.3 275.4)" font-size="12" fill="#006700" fill-rule="evenodd" stroke="#000" stroke-width="2.6"/><path d="M529 319.6s-1.7-1.3-2-1.7c-.3-.4.2-1.3-.8-2.3-1-1-2.4-1.2-3-1.2-.8 0-.8.8.4 2 1 1 2.3 1 3 1.5.6.5 1.6 1.4 2 2l3.3.4c.8 0 2.7 1.5 4.3 1.5 1.4 0 2.3-.8 1.6-1.4-.8-.6-2.4-1-3.4-1.2-1 0-2 1-2.8.7-.8 0-2.8-.2-3-.4z" font-size="12" fill="#006700" fill-rule="evenodd" stroke="#000" stroke-width=".12"/><path d="M320.3 487.2a26 108.3 0 1 1-51.8 0 26 108.3 0 1 1 51.8 0z" transform="matrix(-.00703 .07056 -.06936 .01144 562.1 300.7)" font-size="12" fill="#006700" fill-rule="evenodd" stroke="#000" stroke-width="2.6"/><path d="M320.3 487.2a26 108.3 0 1 1-51.8 0 26 108.3 0 1 1 51.8 0z" transform="matrix(.0116 .06546 -.06886 .0264 555.7 293.1)" font-size="12" fill="#006700" fill-rule="evenodd" stroke="#000" stroke-width="2.6"/><path d="M320.3 487.2a26 108.3 0 1 1-51.8 0 26 108.3 0 1 1 51.8 0z" transform="matrix(.06946 .01283 -.03023 .06372 515.7 286)" font-size="12" fill="#006700" fill-rule="evenodd" stroke="#000" stroke-width="2.6"/><path d="M320.3 487.2a26 108.3 0 1 1-51.8 0 26 108.3 0 1 1 51.8 0z" transform="matrix(.05415 .03582 -.04958 .0561 531.9 283.3)" font-size="12" fill="#006700" fill-rule="evenodd" stroke="#000" stroke-width="2.6"/><path d="M320.3 487.2a26 108.3 0 1 1-51.8 0 26 108.3 0 1 1 51.8 0z" transform="matrix(.03843 .05042 -.06038 .04604 542.7 285.9)" font-size="12" fill="#006700" fill-rule="evenodd" stroke="#000" stroke-width="2.6"/><path d="M518.2 327.8l-1-2.8c0-.5 1-1 .5-2.5s-1.6-2.6-2.3-3c-.7-.3-1.2.4-.7 2 .6 2 1.8 2.4 2 3.3.5 1 1 2.3 1 3 .8.5 2 1.8 3 2.4.7.7 1.8 3 3.4 4 1.4.8 2.6.6 2.3-.3-.4-1-1.6-2.5-2.5-3.2-1-.6-2.3-.2-3-1l-2.6-2z" font-size="12" fill="#006700" fill-rule="evenodd" stroke="#000" stroke-width=".12"/><path d="M314.7 506.2a22.5 81.6 0 1 1-45 0 22.5 81.6 0 1 1 45 0z" transform="matrix(-.00028 .09868 -.09462 .0014 561.6 303.9)" font-size="12" fill="#006700" fill-rule="evenodd" stroke="#000" stroke-width="2.6"/><path d="M314.7 506.2a22.5 81.6 0 1 1-45 0 22.5 81.6 0 1 1 45 0z" transform="matrix(.0732 .06122 -.05995 .0774 519.9 270.3)" font-size="12" fill="#006700" fill-rule="evenodd" stroke="#000" stroke-width="2.6"/><path d="M314.7 506.2a22.5 81.6 0 1 1-45 0 22.5 81.6 0 1 1 45 0z" transform="matrix(.03487 .0911 -.08796 .03793 547.3 284.4)" font-size="12" fill="#006700" fill-rule="evenodd" stroke="#000" stroke-width="2.6"/><path d="M314.7 506.2a22.5 81.6 0 1 1-45 0 22.5 81.6 0 1 1 45 0z" transform="matrix(.0405 -.02206 .04356 .03923 481 252.1)" font-size="12" fill="#006700" fill-rule="evenodd" stroke="#000" stroke-width="2.6"/><path d="M314.7 506.2a22.5 81.6 0 1 1-45 0 22.5 81.6 0 1 1 45 0z" transform="matrix(-.00822 -.04435 .0589 .00765 486.2 277.1)" font-size="12" fill="#006700" fill-rule="evenodd" stroke="#000" stroke-width="2.6"/><path d="M314.7 506.2a22.5 81.6 0 1 1-45 0 22.5 81.6 0 1 1 45 0z" transform="matrix(.02143 -.03505 .05548 .02823 479.6 262.5)" font-size="12" fill="#006700" fill-rule="evenodd" stroke="#000" stroke-width="2.6"/><path d="M479.6 328s6.5 1.5 12 3.6c5.7 2 14.3 9 16.6 9.4 2.5 0 6-.7 7.5-4.5-4 1-6.4 2.7-10.2.6-1.3-.4-5.7-4.4-10.5-6.5-4.8-2-14.5-4.6-14.5-4.6l-1 2zM486.5 269.6l7.4-4-8.3 2.2-1 1.5 1.8.3z" font-size="12" fill="#006700" fill-rule="evenodd" stroke="#000" stroke-width=".12"/><path d="M493.6 271.5c-3-.6-7.4-1.5-10.2-1.8 2-2 4.7-5.8 6.3-8-1 2-2.8 5-3.5 7 2 1 5 2 7.4 2.8z" font-size="12" fill="#006700" fill-rule="evenodd" stroke="#000" stroke-width=".12"/><path d="M485 270l6.8-5-7.7 3.4-.6 1.6h1.7z" font-size="12" fill="#006700" fill-rule="evenodd" stroke="#000" stroke-width=".12"/><path d="M492.2 271.4c-3-.6-7.4-1.6-10.2-1.8 2-2.3 4.6-6 6.2-8.3-1 2.2-2.8 5-3.4 7.2 2 1 5.2 2 7.4 3z" font-size="12" fill="#006700" fill-rule="evenodd" stroke="#000" stroke-width=".12"/><path d="M484 270.5l7.8-3.3-8.4 1.4-1 1.4 1.6.5z" font-size="12" fill="#006700" fill-rule="evenodd" stroke="#000" stroke-width=".12"/><path d="M491.3 271.4c-3-.2-7.4-.8-10.3-.7 1.7-2.5 3.8-6.6 5.2-9-.8 2.3-2 5.4-2.5 7.6 2 1 5.3 1.5 7.6 2z" font-size="12" fill="#006700" fill-rule="evenodd" stroke="#000" stroke-width=".12"/><path d="M483.3 270.5l5.2-6.4-6.7 5-.3 1.8 1.8-.3z" font-size="12" fill="#006700" fill-rule="evenodd" stroke="#000" stroke-width=".12"/><path d="M491.3 272c-3.2-.2-8-.5-11-.2 1.4-2.8 3.3-7.5 4.5-10.3-.6 2.6-1.7 6-2 8.6 2.5 1 6 1.3 8.5 2z" font-size="12" fill="#006700" fill-rule="evenodd" stroke="#000" stroke-width=".12"/><path d="M482.2 272l6.4-6-7.8 4.2-.5 1.8h2z" font-size="12" fill="#006700" fill-rule="evenodd" stroke="#000" stroke-width=".12"/><path d="M490 272c-3.5 0-8.7 0-12 .3 2.2-3.2 5.2-8.3 7-11.5-1.2 3-3 6.8-3.8 9.5 2.4 1 6 1.2 8.7 1.8z" font-size="12" fill="#006700" fill-rule="evenodd" stroke="#000" stroke-width=".12"/><path d="M480 272.5l8.2-7-9.2 5-1 2h2z" font-size="12" fill="#006700" fill-rule="evenodd" stroke="#000" stroke-width=".12"/><path d="M488.7 272.3c-3.4.5-8.6 1-11.8 1.8 1.6-3.2 4-8.7 5.2-12-.7 3-2 7-2.4 9.8 2.5.5 6.2.3 9 .5z" font-size="12" fill="#006700" fill-rule="evenodd" stroke="#000" stroke-width=".12"/><path d="M479 274c0-.2 6.2-8.8 6.2-8.8l-7.8 7-.5 2.3 2-.6z" font-size="12" fill="#006700" fill-rule="evenodd" stroke="#000" stroke-width=".12"/><path d="M486.8 273.3c-3.4.3-8.6.6-11.8 1.3 2-3.3 4.4-8.6 6-12-1 3-2.5 7-3 9.8 2.5.6 6 .6 8.8 1z" font-size="12" fill="#006700" fill-rule="evenodd" stroke="#000" stroke-width=".12"/><path d="M477.8 274.8l8-7-9 5-1 2h2z" font-size="12" fill="#006700" fill-rule="evenodd" stroke="#000" stroke-width=".12"/><path d="M485.8 273.7c-3.3.7-8.6 1.6-11.8 2.6 1.6-3.4 3.6-9 4.8-12.3-.6 3-1.7 7-2 9.8 2.6.3 6.3 0 9 0z" font-size="12" fill="#006700" fill-rule="evenodd" stroke="#000" stroke-width=".12"/><path d="M476.5 275.2l5-9.6-7 8.3v2l2-.8z" font-size="12" fill="#006700" fill-rule="evenodd" stroke="#000" stroke-width=".12"/><path d="M485.8 274.2c-3.6 1-9.2 2.2-12.6 3.5 1.3-4 2.8-10.2 3.7-14-.4 3.4-1 8-1 11 2.8.3 6.8-.4 9.8-.5z" font-size="12" fill="#006700" fill-rule="evenodd" stroke="#000" stroke-width=".12"/><path d="M475.4 277.4l6.5-9.6-8.4 7.7-.3 2.5 2-.6z" font-size="12" fill="#006700" fill-rule="evenodd" stroke="#000" stroke-width=".12"/><path d="M484.4 275.3c-3.5 1-9 2.6-12.4 4 1-3.8 2.3-10 3-14 0 3.4-.6 8-.4 11 3 .2 6.8-.7 9.8-1z" font-size="12" fill="#006700" fill-rule="evenodd" stroke="#000" stroke-width=".12"/><path d="M474 278.8l5-10.6-7 9v2.5l2-1z" font-size="12" fill="#006700" fill-rule="evenodd" stroke="#000" stroke-width=".12"/><path d="M483 276.7c-3.6 1-9.2 2-12.7 3 1.5-3.7 3.3-10 4.3-13.6-.4 3.4-1.4 8-1.4 11 2.8.3 7-.2 9.8-.3z" font-size="12" fill="#006700" fill-rule="evenodd" stroke="#000" stroke-width=".12"/><path d="M473 279.8l8-8.3-9.5 6.2-.7 2.3 2.2-.2z" font-size="12" fill="#006700" fill-rule="evenodd" stroke="#000" stroke-width=".12"/><path d="M481.4 278.2c-3.6.4-9.2 1-12.6 1.8 1.7-3.7 3.8-9.8 5-13.5-.6 3.3-1.8 8-2 11 2.7.6 6.7.4 9.6.7z" font-size="12" fill="#006700" fill-rule="evenodd" stroke="#000" stroke-width=".12"/><path d="M471.4 279l5.5-10.3-7.6 8.6v2.5l2-.8z" font-size="12" fill="#006700" fill-rule="evenodd" stroke="#000" stroke-width=".12"/><path d="M482 277c-4 1.5-10 3.8-13.8 5.7 1.2-4.6 2.5-12 3.2-16.5 0 4-.6 9.3-.3 12.8 3.2 0 7.6-1.5 11-2z" font-size="12" fill="#006700" fill-rule="evenodd" stroke="#000" stroke-width=".24"/><path d="M470.6 282l6.6-11.8-8.7 10-.2 3 2.3-1z" font-size="12" fill="#006700" fill-rule="evenodd" stroke="#000" stroke-width=".24"/><path d="M480.4 278.4c-4 1.8-10 4.3-13.4 6.5 1-4.7 2-12 2.5-16.6 0 4-.3 9.2.2 12.6 3-.3 7.4-1.8 10.7-2.6z" font-size="12" fill="#006700" fill-rule="evenodd" stroke="#000" stroke-width=".24"/><path d="M469.3 284l4.8-13-7 11.5v2.8l2.3-1.4z" font-size="12" fill="#006700" fill-rule="evenodd" stroke="#000" stroke-width=".24"/><path d="M478.7 279.5c-3.8 1.8-9.8 4.4-13.4 6.6 1-4.6 2-12 2.4-16.4 0 4-.2 9.2.3 12.6 3-.3 7.5-2 10.7-2.7z" font-size="12" fill="#006700" fill-rule="evenodd" stroke="#000" stroke-width=".24"/><path d="M468.2 285.4l7.4-11.2-9.3 9.2-.5 2.7 2.4-.6z" font-size="12" fill="#006700" fill-rule="evenodd" stroke="#000" stroke-width=".24"/><path d="M478.3 279c-3.4 2.6-8.8 6.6-11.8 9.6 0-4.7-.7-12-1-16.4.8 3.7 1.6 9 2.8 12 3-1 7-3.7 10-5.3z" font-size="12" fill="#006700" fill-rule="evenodd" stroke="#000" stroke-width=".24"/><path d="M468.6 286l.8-13.5-3.5 13 1 2.5 1.6-2z" font-size="12" fill="#006700" fill-rule="evenodd" stroke="#000" stroke-width=".24"/><path d="M477.4 280c-3.5 2.8-9 6.8-12 9.8 0-4.7-.5-12-1-16.4 1 3.7 1.8 9 3 12 3-1 7-3.7 10-5.3z" font-size="12" fill="#006700" fill-rule="evenodd" stroke="#000" stroke-width=".24"/><path d="M467.7 288.2l3.5-13-6 12 .5 2.7 2-1.8z" font-size="12" fill="#006700" fill-rule="evenodd" stroke="#000" stroke-width=".24"/><path d="M477 280.4c-3.2 3.2-8.4 8-11.2 11.4-.6-4.8-2-12.2-2.8-16.7 1.2 3.8 2.7 9 4.2 12 3-1.4 6.8-4.6 9.8-6.6z" font-size="12" fill="#006700" fill-rule="evenodd" stroke="#000" stroke-width=".24"/><path d="M467.7 290l.7-14-3.4 13.5 1 2.6 1.7-2z" font-size="12" fill="#006700" fill-rule="evenodd" stroke="#000" stroke-width=".24"/><path d="M476 282.8c-3.5 2.8-9 7-12 10.2-.2-5-1-12.4-1.5-17 1 3.8 2 9 3.3 12.4 3-1.2 7-4 10.2-5.6z" font-size="12" fill="#006700" fill-rule="evenodd" stroke="#000" stroke-width=".24"/><path d="M524.7 297a24.6 24.6 0 1 1-49.2 0 24.6 24.6 0 1 1 49.2 0z" fill="#2563c1" fill-rule="evenodd"/><path d="M466.7 291.5l5-13.2-7.4 11.7.2 3 2.2-1.5z" font-size="12" fill="#006700" fill-rule="evenodd" stroke="#000" stroke-width=".24"/><path d="M476 282.8c-3.2 3.2-8 8-10.7 11.5-.5-4.8-2-12.3-2.7-17 1.2 3.8 2.6 9 4 12.2 3-1.5 6.5-4.7 9.3-6.7z" font-size="12" fill="#006700" fill-rule="evenodd" stroke="#000" stroke-width=".24"/><path d="M467 292.2c-.2 0-.7-14-.7-14l-2.2 14 1.4 2.3 1.5-2.3z" font-size="12" fill="#006700" fill-rule="evenodd" stroke="#000" stroke-width=".24"/><path d="M474.4 283.8c-3 3.3-7.7 8.2-10.3 11.7-.5-5-2-12.4-3-17 1.3 3.8 2.8 9 4.4 12 2.8-1.4 6.2-4.6 9-6.7z" font-size="12" fill="#006700" fill-rule="evenodd" stroke="#000" stroke-width=".24"/><path d="M466 293.6l1.7-14.2-4.2 13.4 1 2.7 1.6-2z" font-size="12" fill="#006700" fill-rule="evenodd" stroke="#000" stroke-width=".24"/><path d="M473.8 284.4c-2.7 3.5-7 8.8-9.4 12.6-1-4.8-3-12-4.4-16.5 1.6 3.5 3.5 8.6 5.3 11.5 2.6-1.7 6-5.3 8.5-7.6z" font-size="12" fill="#006700" fill-rule="evenodd" stroke="#000" stroke-width=".24"/><path d="M466 295l-.8-14.3-1.8 14 1.3 2.5 1.4-2.3z" font-size="12" fill="#006700" fill-rule="evenodd" stroke="#000" stroke-width=".24"/><path d="M473.5 285.2c-2.6 3.7-6.7 9.3-8.8 13.2-1.2-4.8-3.8-12-5.3-16.4 1.8 3.5 4 8.5 6 11.3 2.5-2 5.6-5.6 8-8z" font-size="12" fill="#006700" fill-rule="evenodd" stroke="#000" stroke-width=".24"/><path d="M467 296.2l1.4-14.2-4 13.4.8 2.8 1.7-2z" font-size="12" fill="#006700" fill-rule="evenodd" stroke="#000" stroke-width=".24"/><path d="M473 286.5c-2.2 4-5.8 10.2-7.6 14.3-1.6-4.6-4.8-11.4-6.7-15.5 2 3.2 4.7 8 7 10.4 2.3-2.2 5-6.4 7.3-9.2z" font-size="12" fill="#006700" fill-rule="evenodd" stroke="#000" stroke-width=".24"/><path d="M466.5 297.4l-4-13.5 1.3 14 1.8 2 1-2.6z" font-size="12" fill="#006700" fill-rule="evenodd" stroke="#000" stroke-width=".24"/><path d="M473 288c-2.4 4-6 10.2-8 14.4-1.7-4.6-4.8-11.4-6.8-15.6 2.2 3.3 4.8 8 7 10.5 2.5-2.3 5.4-6.4 7.7-9.2z" font-size="12" fill="#006700" fill-rule="evenodd" stroke="#000" stroke-width=".24"/><path d="M466.6 300l-1.4-14.3L464 300l1.3 2.4 1.3-2.5z" font-size="12" fill="#006700" fill-rule="evenodd" stroke="#000" stroke-width=".24"/><path d="M473 289.3c-2.2 4-6 10-8 14-1.6-4.5-4.6-11.4-6.5-15.6 2 3.3 4.6 8 6.8 10.6 2.6-2 5.4-6.2 7.8-9z" font-size="12" fill="#006700" fill-rule="evenodd" stroke="#000" stroke-width=".24"/><path d="M466.5 301l-2.6-14-.3 14.4 1.6 2.2 1.2-2.5z" font-size="12" fill="#006700" fill-rule="evenodd" stroke="#000" stroke-width=".24"/><path d="M472 291.4c-2.4 3.8-6.5 9.5-8.6 13.4-1.4-4.7-4-11.7-5.8-16 2 3.3 4.2 8.3 6.3 11 2.5-2 5.6-6 8-8.4z" font-size="12" fill="#006700" fill-rule="evenodd" stroke="#000" stroke-width=".24"/><path d="M465.3 302.6l1.2-14.2-4 13.5 1 2.6 1.8-2z" font-size="12" fill="#006700" fill-rule="evenodd" stroke="#000" stroke-width=".24"/><path d="M472.3 291.7c-2.2 4-5.7 10.4-7.5 14.6-1.8-4.5-5.2-11.2-7.2-15.2 2.2 3.2 5 7.8 7.3 10.2 2.3-2.3 5-6.6 7.3-9.5z" font-size="12" fill="#006700" fill-rule="evenodd" stroke="#000" stroke-width=".24"/><path d="M464.8 303.8l-4.4-13.3 1.7 14 2 2 .8-2.7z" font-size="12" fill="#006700" fill-rule="evenodd" stroke="#000" stroke-width=".24"/><path d="M471.7 292.8c-1.5 4.5-4 11.4-5.2 16-2.4-4-6.7-10-9.4-13.5 2.8 2.6 6.2 6.5 8.8 8.4 2-2.8 4-7.6 6-11z" font-size="12" fill="#006700" fill-rule="evenodd" stroke="#000" stroke-width=".24"/><path d="M468.7 305l-4.7-13.2 2 14 2 2 .7-3z" font-size="12" fill="#006700" fill-rule="evenodd" stroke="#000" stroke-width=".24"/><path d="M471.6 294c-1.4 4.7-4 11.6-5 16-2.5-3.8-6.8-9.6-9.5-13 2.8 2.4 6.2 6.3 9 8.2 2-3 4-7.7 5.6-11z" font-size="12" fill="#006700" fill-rule="evenodd" stroke="#000" stroke-width=".24"/><path d="M468.7 307l-6-12 3.5 13.5 2 1.5.5-3z" font-size="12" fill="#006700" fill-rule="evenodd" stroke="#000" stroke-width=".24"/><path d="M471.2 295.3c-1 4.7-2.7 12-3.2 16.6-3-3.7-8-8.8-11-12 3 2.3 7 5.6 9.7 7 1.7-3 3-8.2 4.5-11.7z" font-size="12" fill="#006700" fill-rule="evenodd" stroke="#000" stroke-width=".24"/><path d="M469 309l-3.2-13.7.6 14.2 1.7 2.2 1-2.7z" font-size="12" fill="#006700" fill-rule="evenodd" stroke="#000" stroke-width=".24"/><path d="M471.2 296.8c-.5 4.8-1.5 12.2-1.6 17-3.2-3.3-8.6-7.7-12-10.4 3.2 1.8 7.3 4.6 10.3 5.6 1.2-3.3 2.2-8.5 3.2-12.2z" font-size="12" fill="#006700" fill-rule="evenodd" stroke="#000" stroke-width=".24"/><path d="M469.3 310l-8.7-10 6.5 12 2.5 1-.2-3z" font-size="12" fill="#006700" fill-rule="evenodd" stroke="#000" stroke-width=".24"/><path d="M471.4 298.4c-.5 4.8-1.6 12.2-1.7 17-3.2-3.3-8.6-7.7-12-10.4 3.2 1.8 7.4 4.6 10.3 5.7 1.4-3.3 2.3-8.5 3.4-12.3z" font-size="12" fill="#006700" fill-rule="evenodd" stroke="#000" stroke-width=".24"/><path d="M470.2 312.3l-6.6-12 4.2 13.5 2.2 1.4.2-3z" font-size="12" fill="#006700" fill-rule="evenodd" stroke="#000" stroke-width=".24"/><path d="M471.8 300.4c-.3 5-1 12.3-1 17-3.3-3-9-7-12.3-9.6 3.2 1.6 7.4 4.2 10.4 5 1.2-3.3 2-8.6 2.8-12.4z" font-size="12" fill="#006700" fill-rule="evenodd" stroke="#000" stroke-width=".24"/><path d="M471 314.5l-8-10.4 6 12.5 2.2 1v-3z" font-size="12" fill="#006700" fill-rule="evenodd" stroke="#000" stroke-width=".24"/><path d="M472 302.6c-.4 5-1 12.4-1 17-3.3-3-9-7-12.4-9.4 3.2 1.5 7.5 4 10.5 5 1.3-3.5 2-8.8 3-12.6z" font-size="12" fill="#006700" fill-rule="evenodd" stroke="#000" stroke-width=".24"/><path d="M471.8 316.3l-5.7-12.6 3.3 13.8 2 1.6.5-2.7z" font-size="12" fill="#006700" fill-rule="evenodd" stroke="#000" stroke-width=".24"/><path d="M472 304c.2 5 .3 12.5.8 17-3.6-2.4-9.5-5.6-13.2-7.6 3.4 1 7.8 3 11 3.5.8-3.7 1-9 1.5-13z" font-size="12" fill="#006700" fill-rule="evenodd" stroke="#000" stroke-width=".24"/><path d="M472.8 315.8l-10.5-7.2 9 9.8 2.4.2-1-2.8z" font-size="12" fill="#006700" fill-rule="evenodd" stroke="#000" stroke-width=".24"/><path d="M472.4 304.6c.4 4.8 1 12.3 1.7 17-3.7-2.4-9.8-5.4-13.5-7.3 3.3 1 8 2.8 11 3 .7-3.5.6-8.8 1-12.7z" font-size="12" fill="#006700" fill-rule="evenodd" stroke="#000" stroke-width=".24"/><path d="M474 318.5l-8.8-10 6.7 12 2.3 1-.3-3z" font-size="12" fill="#006700" fill-rule="evenodd" stroke="#000" stroke-width=".24"/><path d="M473.2 306.5c.6 4.8 1.3 12.2 2.3 16.8-3.8-2-10-4.8-13.8-6.4 3.4.7 8 2.2 11 2.3.6-3.6.3-9 .5-12.8z" font-size="12" fill="#006700" fill-rule="evenodd" stroke="#000" stroke-width=".24"/><path d="M475.7 320.2l-10.4-7.4 8.8 10 2.6.2-1-2.8z" font-size="12" fill="#006700" fill-rule="evenodd" stroke="#000" stroke-width=".24"/><path d="M473.5 308.5c1 4.8 2.2 12.2 3.5 16.7-4-1.8-10.3-4-14.2-5.2 3.4.5 8 1.5 11.2 1.4.3-3.7-.4-9-.5-13z" font-size="12" fill="#006700" fill-rule="evenodd" stroke="#000" stroke-width=".24"/><path d="M477 321.7c-.2 0-8.8-10.3-8.8-10.3l6.5 12.2 2.4 1v-3z" font-size="12" fill="#006700" fill-rule="evenodd" stroke="#000" stroke-width=".24"/><path d="M474 309.8c1.4 4.6 3.4 12 5 16.2-4-1.2-10.5-2.5-14.5-3.2 3.5 0 8.2.4 11.3 0 0-4-1.2-9-1.7-13z" font-size="12" fill="#006700" fill-rule="evenodd" stroke="#000" stroke-width=".24"/><path d="M477.4 321.7l-12-2.6 11.4 5.8 2.3-1-1.6-2z" font-size="12" fill="#006700" fill-rule="evenodd" stroke="#000" stroke-width=".24"/><path d="M475 311.3c1.2 4.6 3 11.8 4.8 16.2-4-1.3-10.5-2.6-14.5-3.3 3.4 0 8.2.4 11.2 0 0-3.8-1.2-9-1.6-13z" font-size="12" fill="#006700" fill-rule="evenodd" stroke="#000" stroke-width=".24"/><path d="M479.3 323l-11.5-5.6 10.3 8.4 2.6-.3-1.3-2.5z" font-size="12" fill="#006700" fill-rule="evenodd" stroke="#000" stroke-width=".24"/><path d="M474.3 312c2.3 4.3 5.6 11 8.2 14.8-4.3-.3-10.8 0-15 0 3.5-.7 8.2-1.3 11-2.5-.7-3.7-3-8.5-4.2-12.2z" font-size="12" fill="#006700" fill-rule="evenodd" stroke="#000" stroke-width=".24"/><path d="M481.2 324.2l-12-3.3 11.2 6.3 2.4-.7-1.6-2.4z" font-size="12" fill="#006700" fill-rule="evenodd" stroke="#000" stroke-width=".24"/><path d="M475.5 314c2.3 4 5.7 10.7 8.3 14.5-4.2-.3-10.8 0-14.8.2 3.3-.8 8-1.5 11-2.7-1-3.6-3.2-8.4-4.5-12z" font-size="12" fill="#006700" fill-rule="evenodd" stroke="#000" stroke-width=".24"/><path d="M482.7 325.2l-11.2-6.7 9.8 9.4h2.5l-1-2.8z" font-size="12" fill="#006700" fill-rule="evenodd" stroke="#000" stroke-width=".24"/><path d="M476.4 315c2.7 3.8 6.7 10 9.6 13.6-4.2.2-10.6 1.4-14.5 2 3.2-1 7.8-2.4 10.4-4-1.3-3.6-4-8-5.6-11.7z" font-size="12" fill="#006700" fill-rule="evenodd" stroke="#000" stroke-width=".24"/><path d="M483.5 326.2l-12-.3 12 3.4 2-1.3-2-1.8z" font-size="12" fill="#006700" fill-rule="evenodd" stroke="#000" stroke-width=".24"/><path d="M490.5 267.6l8.7-1.4-8.6.2-1.6.7 1.5.6z" font-size="12" fill="#006700" fill-rule="evenodd" stroke="#000" stroke-width=".12"/><path d="M495.3 269.5c-2.5-.8-6.4-2-9-2.6 2.8-1.2 7-3.2 9.4-4.4-2 1.3-4.7 2.8-6.2 4 1.4 1 4 2 5.8 3z" font-size="12" fill="#006700" fill-rule="evenodd" stroke="#000" stroke-width=".12"/><path d="M490 268l8.5-2.4-8.7 1-1.3 1 1.6.3z" font-size="12" fill="#006700" fill-rule="evenodd" stroke="#000" stroke-width=".12"/><path d="M495.7 270c-3-.2-7.5-.8-10.4-.8 2.2-2 5.3-5.2 7.2-7.2-1.3 2-3.3 4.4-4.2 6.2 2 .8 5 1.3 7.4 2z" font-size="12" fill="#006700" fill-rule="evenodd" stroke="#000" stroke-width=".12"/><path d="M487 268.5l8.7-1-8.5-.3-1.6.8 1.4.5z" font-size="12" fill="#006700" fill-rule="evenodd" stroke="#000" stroke-width=".12"/><path d="M493.5 270.4c-2.7-.5-6.8-1.4-9.5-1.7 2.6-1.3 6.3-3.4 8.7-4.8-1.8 1.2-4.3 3-5.6 4.2 1.7.8 4.6 1.5 6.5 2.2z" font-size="12" fill="#006700" fill-rule="evenodd" stroke="#000" stroke-width=".12"/><path d="M486.2 268.4l7.7-3.3-8.5 2.3-1 1h1.7z" font-size="12" fill="#006700" fill-rule="evenodd" stroke="#000" stroke-width=".12"/><path d="M493.2 271.4c-2.2-1-5.6-2.5-7.8-3 1.7-1.7 4-4.5 5.6-6.2-1 1.7-2.6 4-3.3 5.6 1.4 1.3 3.8 2.5 5.5 3.6z" font-size="12" fill="#006700" fill-rule="evenodd" stroke="#000" stroke-width=".12"/><path d="M486.7 269l6-2.6-6.6 1-.7 1 1.4.6z" font-size="12" fill="#006700" fill-rule="evenodd" stroke="#000" stroke-width=".12"/><path d="M481.7 325c0 .2-12.4.2-12.4.2l12.5 3 2-1.3-2-2z" font-size="12" fill="#006700" fill-rule="evenodd" stroke="#000" stroke-width=".24"/><path d="M484 326l-12.7-3 12 6 2.5-1-2-2z" font-size="12" fill="#006700" fill-rule="evenodd" stroke="#000" stroke-width=".24"/><path d="M486 326.7l-12.5-.6 12.5 4 2-1.3-2-2z" font-size="12" fill="#006700" fill-rule="evenodd" stroke="#000" stroke-width=".24"/><path d="M478 318c3.3 3.5 8.2 9.2 11.6 12.4-4.2.6-10.6 2.3-14.5 3.3 3.2-1.5 7.7-3 10.2-5-1.7-3.3-5-7.5-7.2-10.8z" font-size="12" fill="#006700" fill-rule="evenodd" stroke="#000" stroke-width=".24"/><path d="M487.7 327.4l-12.5-4 11.7 7 2.4-.7-1.7-2.3z" font-size="12" fill="#006700" fill-rule="evenodd" stroke="#000" stroke-width=".24"/><path d="M479.2 318.7c3.5 3.2 9 8.4 12.5 11.2-4 1-10 3.6-13.7 5 3-1.8 7-4 9.3-6-2-3.3-5.7-7.2-8-10.3z" font-size="12" fill="#006700" fill-rule="evenodd" stroke="#000" stroke-width=".24"/><path d="M488.7 328c0 .2-11.8 2.5-11.8 2.5l12.4.8 1.7-1.7-2.3-1.5z" font-size="12" fill="#006700" fill-rule="evenodd" stroke="#000" stroke-width=".24"/><path d="M486.2 327.4l-12.3 1 12.6 2 2-1.4-2.4-1.6z" font-size="12" fill="#006700" fill-rule="evenodd" stroke="#000" stroke-width=".24"/><path d="M488.5 328l-12.8-2 12.6 5 2.3-1-2-2z" font-size="12" fill="#006700" fill-rule="evenodd" stroke="#000" stroke-width=".24"/><path d="M490.7 328.7l-12.6.3 13 3 2-1.5-2.3-1.8z" font-size="12" fill="#006700" fill-rule="evenodd" stroke="#000" stroke-width=".24"/><path d="M482 320.5c3.6 3.3 9 8.7 12.5 11.6-4 1-10.3 3.2-14 4.5 3-1.7 7.2-3.7 9.5-5.7-2-3.2-5.5-7.2-8-10.3z" font-size="12" fill="#006700" fill-rule="evenodd" stroke="#000" stroke-width=".24"/><path d="M492.4 329.2l-12.8-3.2 12.3 6.2 2.3-.7-2-2.3z" font-size="12" fill="#006700" fill-rule="evenodd" stroke="#000" stroke-width=".24"/><path d="M483.3 321.2c3.8 3 9.5 7.8 13.4 10.3-4 1.5-9.8 4.4-13.3 6 2.7-2 6.7-4.5 8.7-6.7-2-3-6-6.7-8.7-9.6z" font-size="12" fill="#006700" fill-rule="evenodd" stroke="#000" stroke-width=".24"/><path d="M493.5 330l-11.7 3h12.6l1.6-1.8-2.5-1.2z" font-size="12" fill="#006700" fill-rule="evenodd" stroke="#000" stroke-width=".24"/><path d="M513.4 314l-13.4-9.3-13.3 9.2 5-14.8L480 290h15l5-14.8 5 14.7h15l-11.6 9.2 5 14.7z" font-size="12" fill="#ffce00" fill-rule="evenodd"/><path d="M549 300c0 27-22 49-49 49s-49-22-49-49 22-49 49-49 49 22 49 49zm16.3 0c0 36-29.2 65.3-65.3 65.3-36 0-65.3-29.2-65.3-65.3 0-36 29.2-65.3 65.3-65.3 36 0 65.3 29.2 65.3 65.3z" font-size="12" fill="#ce1126" fill-rule="evenodd" stroke="#ce1126" stroke-width=".36"/><path d="M549.8 311.7l4.3 1.6 7.2-1.3-.5 1.5-3.7.6-2 .4 1.4 1.6 2.3 3-.5 1.3-4.5-5.8-4.3-1.6.4-1.3zM562 295.2v1.3l-6.2.7h-2.6c-.7-.2-1.2-.6-1.7-1-.4-.6-.7-1.3-.8-2.3 0-1 0-1.7.3-2.3.2-.6.7-1 1.3-1.4.7-.3 1.6-.5 2.7-.6l6.2-.7.2 1.2-6.3.7c-.8 0-1.5.2-2 .4-.3.2-.6.5-.8 1-.2.3-.3.8-.2 1.3 0 1 .4 1.6 1 2 .4.2 1.3.3 2.7.2l6.2-.8zM553.2 282.6l1.3-.3.8 4-4 .8c-.6-.4-1.2-1-1.6-1.5-.4-.6-.7-1.2-.8-2-.3-1-.2-1.7 0-2.6.3-1 1-1.6 1.6-2.2.8-.5 1.7-1 2.8-1 1-.4 2-.4 3-.2s1.7.7 2.3 1.3c.6.5 1 1.3 1 2.2.3.7.3 1.4 0 2 0 .6-.2 1-.6 1.5-.3.4-.8.7-1.5 1l-.6-1c.4-.3.8-.5 1-.8.3-.4.5-.7.6-1.2v-1.3c0-.6-.3-1-.6-1.4-.2-.3-.6-.6-1-.8l-1-.4h-2.3c-1 .3-1.7.6-2.3 1-.6.5-1 1-1.2 1.6 0 .6-.2 1.2 0 1.8 0 .6.3 1 .6 1.5s.7 1 1 1l2-.3-.6-2.8zM507.8 248.4l2-10.7 1 .2-1.5 9.3 4.6.8-.3 1.4-6-1zM497.3 247.7v-11h7v1.4h-5.8v3.4h5.3v1.3h-5.3v3.7h6v1.3h-7.2zM467.3 254.5l1.2-.6c.5 1 .7 2 .6 3 0 .8-.5 1.6-1.2 2.2-.8.7-1.6 1-2.4 1-.8.2-1.6 0-2.5-.5-1-.4-1.7-1-2.3-1.8-.8-1-1.3-2-1.5-2.8-.3-1-.3-1.7 0-2.5.2-.8.7-1.4 1.3-2 .8-.6 1.5-1 2.4-1 .8 0 1.6.4 2.5 1l-.8 1c-.7-.4-1.3-.7-1.8-.7-.7 0-1.2.2-1.7.7-.6.4-1 1-1 1.6 0 .6 0 1.3.2 2 .3.6.7 1.2 1.2 1.7.6.7 1.2 1.2 1.8 1.6.6.4 1.2.5 1.8.4.6 0 1.2-.2 1.6-.6.5-.5.8-1 .8-1.7s0-1.4-.5-2.2zM462.7 264l-8-7.3.8-1 8 7.3-.8 1zM457.5 270l-8.6-6.5.7-1 7.6 5.8 3-3.7 1 .8-3.8 4.7zM441.4 276.5l.5-1.2 5.7 2.3c1 .4 1.8 1 2.3 1.3.5.3.8 1 1 1.6.2.7 0 1.4-.3 2.3-.3.7-.7 1.3-1.3 1.7-.5.4-1 .6-1.8.6-.7 0-1.6-.2-2.7-.6l-6-2.3.6-1.2 5.8 2.3c.8.3 1.5.5 2 .5s1 0 1.2-.3c.4-.3.7-.7 1-1.2.2-1 .3-1.6 0-2-.3-.7-1-1.2-2.4-1.7l-5.8-2.3zM447.7 302.7H437l-.2-6.8h1.3l.2 5.5h3.3v-5.3h1.2v5.3h3.7v-6h1.3v7.2zM488.2 249.2l-2.2-10.6 3.3-.7 1.7-.3c.6 0 1 .2 1.5.5.6.4 1 1 1.5 1.6l1 2.4v2.2c0 .7 0 1.3-.3 1.7l-.6 1.3c-.2.3-.5.5-1 .7l-1.4.5-3.4.7zm1-1.5l2-.4 1.4-.5.7-.7c.3-.3.4-.8.5-1.4 0-.6 0-1.3-.2-2-.2-1.2-.6-2-1-2.6-.5-.5-1-.8-1.4-1-.4 0-1 0-1.7.2l-2 .4 1.7 8zM523.2 253.5l5-9.6 3.2 1.6 1.2.7 1 1v1.3c0 .5 0 1-.4 1.5-.4 1-1 1.5-1.7 1.8-.8.3-1.8.2-3-.5l-2.2-1-2 3.8-1-.5zm3.7-4.4l2 1.2c1 .4 1.5.5 2 .4.4-.2.8-.5 1-1 .3-.5.4-1 .3-1.3 0-.4 0-.7-.4-1l-1-.5-2.3-1.2-1.8 3.5zM528.7 256.4l10-5.6 1 1-4.3 10.6-1-1 1.3-3.2-3-2.7-3 1.8-1-1zm5-1.5l2.5 2 1.2-2.8 1-2.2c-.5.5-1 1-1.7 1.2l-3 1.7zM536.5 263.6l8.5-6.6 2.6 3.4c.6.7 1 1.3 1 1.8 0 .4 0 1-.2 1.4-.2.5-.6 1-1 1.3-.6.4-1.3.6-2 .6s-1.3-.4-2-1v1c0 .4-.2 1-.5 1.6l-1.4 3.2-1-1.3 1-2.3.7-1.6.2-1s0-.3-.2-.5c0-.2-.2-.4-.4-.6l-1-1.3-3.8 3-.7-1zm5.5-2.6l1.7 2c.3.6.7 1 1 1 .3.3.6.3 1 .3.3 0 .6-.2 1-.4.3-.4.5-.8.6-1.3 0-.4 0-1-.6-1.5l-1.8-2.4-3 2.2zM542.2 271l11.3-2 .7 1.2-7.6 8.7-.7-1.4 2.2-2.6-2-3.5-3.3.7-.8-1.2zm5.3.3l1.6 2.8 2.2-2.2 1.6-1.7-2 .7-3.3.6zM551.8 299l10.4 5-.2 1.2-11.2 2.8.2-1.4 3.4-.8.4-4-3.2-1.4.2-1.3zm4 3.3l-.2 3.2 3-.7 2.4-.4-2-.7-3-1.4zM449.4 312.7L439 315l-1-4c-.2-1-.3-1.6-.2-2 0-.6.4-1 .8-1.4.4-.3 1-.6 1.5-.7.8-.3 1.5-.2 2 0 .7.4 1.2 1 1.6 2 0-.5.2-.8.3-1 .2-.4.6-1 1-1.3l2.6-2.3.4 1.6-2 1.7-1.2 1.2-.6.7c0 .2 0 .4-.2.6 0 .2 0 .4.2.7l.3 1.5 4.7-1 .2 1.2zm-6 0l-.7-2.6c-.2-.5-.3-1-.5-1.2-.2-.3-.5-.5-.8-.6h-1c-.5 0-1 .3-1 .7-.4.3-.5 1-.3 1.5l.8 3 3.5-.8zM448 293l-10.7-.8.3-3.6c0-.6.2-1 .3-1.5 0-.3.2-.7.5-1 .2-.3.6-.5 1-.7.5 0 1-.2 1.6 0 1 0 1.8.3 2.3.8.6.7 1 1.7.8 3l-.2 2.5 4.4.4v1zm-5.4-1.6l.2-2.5c0-1 0-1.5-.4-2-.3-.3-.8-.5-1.4-.5-.4 0-.8 0-1.2.2l-.7.7v1.2l-.3 2.4 4 .4zM452.6 277l-9-6 2-3 1.3-1.2c.3-.2.8-.3 1.3-.3s1 .2 1.4.5l1 1 .2 1.4c.4-.4 1-.6 1.4-.6.6 0 1 .2 1.7.5.5.3.8.7 1 1l.5 1.2v1.2l-.8 1.4-2 3zm-4.5-4.4l1.3-1.7.5-1.2v-1c0-.2-.3-.4-.6-.7l-1-.2c-.3 0-.6 0-.8.2l-1 1.2-1 1.6 2.7 1.8zm4.3 2.8l1.3-2 .5-.8c.2-.3.2-.5.2-.8 0-.2 0-.4-.2-.7-.2 0-.4-.4-.7-.6-.3-.2-.7-.3-1-.3-.4 0-.7.2-1 .4l-1 1-1 2 3 2zM470.5 256.4l-2.6-11.2 1-.7 9 7-1 .8-2.8-2-3.4 2 .8 3.3-1 .8zm0-5.3l2.7-1.6-2.4-2c-.8-.6-1.3-1-1.8-1.6l.7 2 .8 3.3z" font-size="12" fill="#ffe600" font-family="helvetica"/></svg>