<svg xmlns="http://www.w3.org/2000/svg" height="400" width="600" version="1" xmlns:xlink="http://www.w3.org/1999/xlink"><path fill="red" d="M240 400h360V0H240v400z"/><path fill="#060" d="M0 400h240V0H0v400z"/><path fill-rule="evenodd" fill="#ff0" d="M318.2 262c-30.2-1-168.7-87.3-169.6-101l7.6-13c13.7 20 155.4 104.2 169.3 101.2l-7.3 12.8"/><path fill-rule="evenodd" fill="#ff0" d="M154.6 146.4c-2.7 7.3 36 31.3 83 59.8s87 46 90 43.4c0-.3 1.4-2.5 1.3-2.5-.7 1-2 1.2-4.2.6-12.6-3.6-45.5-18.7-86.3-43.5-40.8-24.6-76.3-47.4-81.8-57-.4-.8-.7-2-.6-3l-1.3 2v.4zm164.4 116c-.6 1-1.5 1-3.3.8-11.3-1.3-45.6-18-86.2-42.2-47.2-28.3-86.2-54-82-60.8l1.2-2h.2c-4 11.5 77 57.6 81.6 60.6 46.7 29 86 45.8 89.6 41.4l-1.2 2.2"/><path stroke-linejoin="round" d="M154.6 146.4c-2.7 7.3 36 31.3 83 59.8 46.6 28.4 87 46 90 43.4 0-.3 1.4-2.5 1.3-2.5-.7 1-2 1.2-4.2.6-12.6-3.6-45.5-18.8-86.3-43.5-40.8-24.6-76.3-47.4-81.8-57-.4-.8-.7-2-.6-3l-1.2 2-.2.4zm164.4 116c-.6 1-1.5 1-3.3.8-11.3-1.2-45.6-18-86.2-42.2-47.2-28.3-86.2-54-82-60.8l1.2-2h.2c-4 11.5 77 57.7 81.6 60.6 46.7 29 86 46 89.6 41.5l-1.3 2z" stroke="#000" stroke-linecap="round" stroke-width=".6" fill="none"/><path fill-rule="evenodd" fill="#ff0" d="M240.2 169.2c30.2-.2 67.5-4 89-12.7l-4.6-7.5c-12.7 7-50.2 11.7-84.7 12.4-40.8-.4-69.6-4.2-84-14l-4.3 8c26.4 11.3 53.6 13.7 88.5 13.8"/><path fill-rule="evenodd" fill="#ff0" d="M330.4 156.7c-.7 1.2-14.7 6-35.3 9.6-14 2-32.2 4-55 4-21.6 0-39.2-1.6-52.6-3.4-21.7-3.5-33-8.2-37-10l1-2c12 4.8 23.2 7.7 36.3 9.7 13.3 1.8 30.8 3.3 52.3 3.3 22.7 0 40.7-2 54.6-4 21.2-3.4 32.7-7.8 34.3-10l1.4 2.7zm-4-7.6c-2.3 2-13.7 6-33.8 9.2-13.5 2-30.5 3.6-52.3 3.7-20.7 0-37.6-1.5-50.5-3.4-20.4-2.7-31.3-7.5-35.2-9l1.2-2c3 1.6 13.5 6 34.2 8.8 12.8 1.8 29.7 3.2 50.3 3.2 21.7 0 38.5-1.8 52-3.7 20-3 31-8 32.6-9.4l1.4 2.5"/><path stroke-linejoin="round" d="M330.4 156.7c-.7 1.2-14.7 6-35.3 9.6-14 2-32.2 4-55 4-21.6 0-39.2-1.6-52.6-3.4-21.7-3.5-33-8.2-37-10l1-2c12 4.8 23.2 7.7 36.3 9.7 13.3 1.8 30.8 3.3 52.3 3.3 22.7 0 40.7-2 54.6-4 21.2-3.4 32.7-7.8 34.3-10l1.4 2.7zm-4-7.6c-2.3 2-13.7 6-33.8 9.2-13.5 2-30.5 3.6-52.3 3.7-20.7 0-37.6-1.5-50.5-3.4-20.4-2.7-31.3-7.5-35.2-9l1.2-2c3 1.6 13.5 6 34.2 8.8 12.8 1.8 29.7 3.2 50.3 3.2 21.7 0 38.5-1.8 52-3.7 20-3 31-8 32.6-9.4l1.4 2.5z" stroke="#000" stroke-linecap="round" stroke-width=".6" fill="none"/><path fill-rule="evenodd" fill="#ff0" d="M141 205.7c18.5 10 59.8 15 99 15.4 35.5 0 81.8-5.5 99.2-14.6l-.5-10c-5.4 8.4-55 16.6-99.2 16.2-44-.3-85-7-98.7-16v9"/><path fill-rule="evenodd" fill="#ff0" d="M340 204.2v2.4c-2.5 3-18.8 7.8-39.3 11-15.6 2.5-36 4.3-61.3 4.3-24 0-43.2-1.8-58-4-23.7-3.5-38.7-9.5-41.7-11.3V204c9 6 33.6 10.4 42 11.7 14.7 2.3 33.8 4 57.7 4 25.2 0 45.5-1.8 61-4.2 14.7-2 35.6-7.6 39.7-11.3zm0-8.5v2.4c-2.5 3.2-18.8 8-39.3 11.3-15.6 2.3-36 4.2-61.3 4.2-24 0-43.2-1.8-58-4-23.6-3.5-38.7-9.5-41.7-11.3v-2.8c9 6 33.7 10.5 42 11.8 14.7 2.3 33.8 4 57.7 4 25.2 0 45.5-1.8 61-4 14.7-2.3 35.6-7.8 39.7-11.5"/><path stroke-linejoin="round" d="M340 204.2v2.4c-2.5 3-18.8 7.8-39.3 11-15.6 2.5-36 4.3-61.3 4.3-24 0-43.2-1.8-58-4-23.7-3.5-38.7-9.5-41.7-11.3V204c9 6 33.6 10.4 42 11.7 14.7 2.3 33.8 4 57.7 4 25.2 0 45.5-1.8 61-4.2 14.7-2 35.6-7.6 39.7-11.3zm0-8.5v2.4c-2.5 3.2-18.8 8-39.3 11.3-15.6 2.3-36 4-61.3 4-24 0-43.2-1.6-58-4-23.6-3.3-38.7-9.3-41.7-11v-3c9 6.2 33.7 10.6 42 12 14.7 2.2 33.8 4 57.7 4 25.2 0 45.5-2 61-4.3 14.7-2 35.6-7.6 39.7-11.3z" stroke="#000" stroke-linecap="round" stroke-width=".6" fill="none"/><path fill-rule="evenodd" fill="#ff0" d="M239.8 260.3c-42.8-.2-79.4-11.6-87.2-13.5l5.7 8.8c13.6 5.8 49.4 14.3 82 13.4 32.4-1 60.8-3.5 80.8-13.2l6-9.2c-13.7 6.4-60.2 13.7-87.2 13.7"/><path fill-rule="evenodd" fill="#ff0" d="M323.3 253.7l-2.6 3.8c-9.4 3.4-24.3 7-30.6 8-12.7 2.5-32.6 4.5-50.2 4.5-38-.6-69-8-83.5-14.3l-1-2v-.3l2 .7c26 9.4 55 13 82.7 13.8 17.6 0 35-2 49.3-4.6 21.8-4.3 30.6-7.6 33.3-9l.7-.5zm5-8.3c-.6 1.2-1.2 2.3-2 3.4-5 1.8-18.6 5.8-38.5 8.6-13.2 1.8-21.4 3.5-47.5 4-49-1.2-80.8-10.8-88.3-13.2l-1-2c28.3 7.3 57.3 12.5 89.3 13 24-.5 34-2.3 47-4 23.4-3.7 35-7.5 38.6-8.6l-.2-.2 2.5-1"/><path stroke-linejoin="round" d="M323.3 253.7l-2.6 3.8c-9.4 3.4-24.3 7-30.6 8-12.7 2.5-32.6 4.5-50.2 4.5-38-.6-69-8-83.5-14.3l-1-2v-.3l2 .7c26 9.4 55 13 82.7 13.8 17.6 0 35-2 49.3-4.6 21.8-4.3 30.6-7.6 33.3-9l.7-.5zm5-8.3c-.6 1.2-1.2 2.3-2 3.4-5 1.8-18.6 5.8-38.5 8.6-13.2 1.8-21.4 3.5-47.5 4-49-1.2-80.8-10.8-88.3-13.2l-1-2c28.3 7.3 57.3 12.5 89.3 13 24-.5 34-2.3 47-4 23.4-3.7 35-7.5 38.7-8.6l-.2-.2 2.5-1z" stroke="#000" stroke-linecap="round" stroke-width=".5" fill="none"/><path fill-rule="evenodd" fill="#ff0" d="M328.8 197.8c.2 28-14.2 53.3-25.8 64.5-16.4 15.7-38.2 26-63.6 26.3-28.4.6-55-18-62.3-26-14-16-25.3-36-25.7-63.3 1.7-30.7 13.8-52 31.3-66.8s40.7-21.8 60-21.3c22.4.6 48.6 11.6 66.6 33.4 11.8 14.2 17 29.7 19.6 53.2zm-89.2-96.4c54.5 0 99.3 44.4 99.3 98.7 0 54.5-45 98.8-99.4 98.8s-99-44.3-99-98.7 44.6-98.6 99-98.6"/><path stroke-linejoin="round" d="M240 101c54.4 0 99 44.6 99 99 0 54.6-44.6 99-99 99-54.6 0-99-44.4-99-99s44.4-99 99-99zm0 2.3c53 0 96.7 43.5 96.7 96.8 0 53.4-43.7 97-96.8 97-53.2 0-97-43.6-97-97s43.8-96.7 97-96.7z" stroke="#000" stroke-linecap="round" stroke-width=".6" fill="none"/><path stroke-linejoin="round" d="M240 109.3c49.7 0 90.7 40.8 90.7 90.7 0 50-41 90.7-90.7 90.7S149.3 250 149.3 200c0-50 41-90.7 90.7-90.7zm0 2.2c48.5 0 88.5 39.8 88.5 88.5s-40 88.5-88.5 88.5-88.5-39.8-88.5-88.5 40-88.5 88.5-88.5z" stroke="#000" stroke-linecap="round" stroke-width=".6" fill="none"/><path fill-rule="evenodd" fill="#ff0" d="M243 99.5v1h-6v-1h-2.3V301h2.2v-1h6.2v1h2V99.5h-2z"/><path stroke-linejoin="round" d="M237 100.7h6M237 299.6h6M243 99.5h2.3v201.3H243V99.5zm-8.3 0h2.2v201.3h-2.3V99.5z" stroke="#000" stroke-linecap="round" stroke-width=".6" fill="none"/><path fill-rule="evenodd" fill="#ff0" d="M140.5 196c12.5-11.6 58.3-19 99-18.8 40.6.2 88.7 8.6 99.2 18.4v8.6c-8.7-8.3-46-18-99.2-18.2-53 0-91.7 10-99 18.4V196"/><path stroke-linejoin="round" d="M140.5 196.3v7.3M339 196.6v7.3" stroke="#000" stroke-linecap="round" stroke-width=".6" fill="none"/><path fill-rule="evenodd" fill="#ff0" d="M240 184.8c23.3 0 46 2.2 64 5.7 18.6 3.7 31.7 8.3 36 13.6v2.6c-5.3-6.4-23-11.2-36.4-14-18-3.4-40.4-5.6-63.7-5.6-24.6 0-47.4 2.4-65 5.8-14.2 2.8-33 8.4-35.3 14V204c1.3-3.8 15.3-9.5 35-13.4 17.7-3.5 40.6-5.8 65.2-5.8zm0-8.5c23.3 0 46 2.2 64 5.7 18.6 3.7 31.7 8.4 36 13.6v2.6c-5.3-6.5-22.8-11.3-36.4-14-18-3.5-40.4-5.7-63.6-5.7-24.6 0-47.3 2.4-65 5.8-13.5 2.6-33 8.4-35.3 14v-2.8c1.3-3.8 15.6-9.7 35-13.4 17.7-3.4 40.6-5.7 65.3-5.7"/><path stroke-linejoin="round" d="M240 184.8c23.3 0 46 2.2 64 5.7 18.6 3.7 31.7 8.3 36 13.6v2.6c-5.3-6.4-23-11.2-36.4-14-18-3.4-40.4-5.6-63.7-5.6-24.6 0-47.4 2.4-65 5.8-14.2 2.8-33 8.4-35.3 14V204c1.3-3.8 15.3-9.5 35-13.4 17.7-3.5 40.6-5.8 65.3-5.8zm0-8.5c23.3 0 46 2.2 64 5.7 18.6 3.7 31.7 8.4 36 13.6v2.6c-5.3-6.5-22.8-11.3-36.4-14-18-3.5-40.4-5.7-63.6-5.7-24.6 0-47.3 2.4-65 5.8-13.5 2.6-33 8.4-35.3 14v-2.8c1.3-3.8 15.6-9.7 35-13.4 17.7-3.4 40.6-5.7 65.3-5.7z" stroke="#000" stroke-linecap="round" stroke-width=".6" fill="none"/><path fill-rule="evenodd" fill="#ff0" d="M239.5 133c36.8-.2 69 5 83.7 12.6l5.3 9.3c-12.7-7-47.4-14-89-13-33.8.2-70 3.7-88 13.4l6.3-10.8c15-7.7 50-11.6 81.7-11.6"/><path stroke-linejoin="round" d="M324 147.2l3.8 5.8" stroke="#000" stroke-linecap="round" stroke-width=".6" fill="none"/><path fill-rule="evenodd" fill="#ff0" d="M240 140.6c21 0 41.3 1 57.4 4 15 3 29.4 7 31.5 9.3l1.5 2.7c-5-3.2-17.4-6.8-33.4-10-16-3-36.2-4-57-3.8-23.8-.2-42.2 1-58 3.8-16.8 3-28.4 7.6-31.2 9.7l1.5-3c5.6-2.8 14.4-6.2 29.2-9 16.4-3 35-3.8 58.5-4zm0-8.5c20 0 40 1.2 55.4 4 12.2 2.4 24.3 6 28.7 9.4l2.4 3.7c-4-4.3-18.8-8.5-32-10.8-15.3-2.7-34.3-3.7-54.4-4-21 .2-40.7 1.5-55.8 4.2-14.4 2.8-23.8 6-27.7 8.6l2-3c5.5-3 14.3-5.6 25.4-7.8 15-2.7 34.7-4 56-4"/><path stroke-linejoin="round" d="M240 140.6c21 0 41.3 1 57.4 4 15 3 29.4 7 31.5 9.3l1.5 2.7c-5-3.2-17.4-6.8-33.4-10-16-3-36.2-4-57-3.8-23.8-.2-42.2 1-58 3.8-16.8 3-28.4 7.6-31.2 9.7l1.5-3c5.6-2.8 14.4-6.2 29.2-9 16.4-3 35-3.8 58.5-4zm0-8.5c20 0 40 1.2 55.4 4 12.2 2.4 24.3 6 28.7 9.4l2.4 3.7c-4-4.3-18.8-8.5-32-10.8-15.3-2.7-34.3-3.7-54.4-4-21 .2-40.7 1.5-55.8 4.2-14.4 2.8-23.8 6-27.7 8.6l2-3c5.5-3 14.3-5.6 25.4-7.8 15-2.7 34.7-4 56-4z" stroke="#000" stroke-linecap="round" stroke-width=".6" fill="none"/><path fill-rule="evenodd" fill="#ff0" d="M289 241.3c-18-3.4-36.3-4-49-3.8-61.5.7-81.3 12.6-83.7 16.2l-4.6-7.5c15.6-11.3 49-17.6 88.6-17 20.5.3 38.2 1.7 53 4.6l-4.2 7.5"/><path stroke-linejoin="round" d="M152.7 247.3l3 5.2" stroke="#000" stroke-linecap="round" stroke-width=".6" fill="none"/><path fill-rule="evenodd" fill="#ff0" d="M239.6 236.5c17 .2 33.8 1 50 4l-1.2 2c-15-2.8-31-3.8-48.8-3.7-22.6-.2-45.5 2-65.5 7.6-6.2 1.8-16.6 5.8-17.7 9.2l-1.2-2c.5-2 6.8-6 18.6-9.3 22.8-6.6 44.2-7.7 66-7.8zm.8-8.6c17.7.2 36 1 53.7 4.5l-1 2.2c-16.2-3.2-31.5-4.3-52.5-4.6-22.8.2-47 1.8-68.8 8.2-7 2-19.3 6.5-19.7 10l-1.2-2c.3-3.3 11-7.5 20.4-10.2 22-6.4 46.2-8 69.2-8"/><path stroke-linejoin="round" d="M239.6 236.5c17 .2 33.8 1 50 4l-1.2 2c-15-2.8-31-3.8-48.8-3.7-22.6-.2-45.5 2-65.5 7.6-6.2 1.8-16.6 5.8-17.7 9.2l-1.2-2c.5-2 6.8-6 18.6-9.3 22.8-6.6 44.2-7.7 66-7.8zm.8-8.6c17.7.2 36 1 53.7 4.5l-1 2.2c-16.2-3.2-31.5-4.3-52.5-4.6-22.8.2-47 1.8-68.8 8.2-7 2-19.3 6.5-19.7 10l-1.2-2c.3-3.3 11-7.5 20.4-10.2 22-6.4 46.2-8 69.2-8z" stroke="#000" stroke-linecap="round" stroke-width=".5" fill="none"/><path fill-rule="evenodd" fill="#ff0" d="M157 144.5c30.3-.4 170.8 86 171.2 101.8l-8.7 13.3c-4-18.4-146.5-102.4-170-100.8l7.4-14.3"/><path stroke-linejoin="round" d="M327.6 247.4l-7.4 11.4M156.7 145.3l-7 12.7" stroke="#000" stroke-linecap="round" stroke-width=".6" fill="none"/><path fill-rule="evenodd" fill="#ff0" d="M148.7 158.3c5.6-3.8 47 14.7 90.5 40.8 43.3 26.4 84.7 56 81 61.6l-1.3 2-.6.4s.7-1 0-3c-2-6-31.3-29.4-80-58.8-47.5-28.3-87-45.4-91-40.5l1.3-2.4zm180.4 89c3.7-7-34.8-36-82.5-64.3-49-27.7-84-44-90.5-39l-1.4 2.5s0-.2.4-.5c1-1 3-1 4-1 11 .2 42.6 14.8 87 40.2 19.4 11.3 82 51.5 81.8 62.8 0 1 0 1.2-.3 1.6l1.6-2.4"/><path stroke-linejoin="round" d="M148.7 158.3c5.6-3.8 47 14.6 90.5 40.8 43.3 26.4 84.7 56 81 61.6l-1.3 2-.6.4s.7-1 0-3c-2-6-31.3-29.4-80-58.8-47.5-28.3-87-45.4-91-40.5l1.3-2.4zm180.4 89c3.7-7-34.8-36-82.5-64.4-49-27.7-84-44-90.5-39.2l-1.4 2.6c0 .2 0 0 .4-.4 1-1 3-1 4-1 11 .2 42.6 14.8 87 40.2 19.4 11.3 82 51.5 81.8 62.8 0 1 0 1.2-.3 1.6l1.6-2.4z" stroke="#000" stroke-linecap="round" stroke-width=".6" fill="none"/><path fill-rule="evenodd" fill="#fff" d="M180.6 211c0 16.3 6.7 31 17.5 41.8 11 10.7 25.6 17.5 42 17.5 16.2 0 31-6.6 42-17.4 10.7-10.8 17.3-25.6 17.3-42v-79l-118.7-.3V211"/><path d="M180.6 211c0 16.3 6.7 31 17.5 41.8 11 10.7 25.6 17.5 42 17.5 16.2 0 31-6.6 42-17.4 10.7-10.8 17.3-25.6 17.3-42v-79l-118.7-.3V211z" stroke="#000" stroke-width=".7" fill="none"/><path d="M182.8 211v.2c0 15.5 6.5 29.7 16.8 40 10.4 10.3 24.6 16.7 40.2 16.7 15.7 0 30-6.5 40.2-16.7s16.7-24.5 16.7-40v-77H183l-.2 76.8m91-53.6v54c0 1.4 0 3-.2 4.3-1 7.7-4.5 14.4-9.8 19.7-6 6-14.7 10-24 10-9.4 0-17.7-4-24-10.2-6.2-6.3-10-15-10-24v-54l68 .2" fill-rule="evenodd" fill="red"/><path d="M182.8 211v.2c0 15.5 6.5 29.7 16.8 40s24.6 16.7 40.2 16.7c15.7 0 30-6.5 40.2-16.7 10.3-10.3 16.7-24.5 16.7-40v-77H183l-.2 76.8m91-53.6v54c0 1.4 0 3-.2 4.3-1 7.7-4.5 14.4-9.8 19.7-6 6-14.7 10-24 10-9.4 0-17.7-4-24-10.2-6.2-6.3-10-15-10-24v-54l68 .2z" stroke="#000" stroke-width=".5" fill="none"/><use id="c" xlink:href="#a" transform="translate(-20.7)" height="400" width="600"/><use id="d" xlink:href="#b" transform="translate(-.1 51.8)" height="400" width="600"/><use xlink:href="#c" transform="translate(-20.8 .1)" height="400" width="600"/><use id="a" xlink:href="#d" transform="translate(20.8 -25.7)" height="400" width="600"/><path id="b" fill="#039" d="M232.6 176.4c0 2.2 1 4.2 2.2 5.7 1.4 1.6 3.3 2.5 5.3 2.5 2.2 0 4-1 5.4-2.4 1.4-1.4 2.2-3.4 2.2-5.6v-10.8h-15v10.8"/><use xlink:href="#e" transform="translate(10.6)" height="400" width="600"/><path fill-rule="evenodd" fill="#ff0" d="M190.2 154.4c0-5.5 4-6.8 4-6.8s4.3 1.4 4.3 7l-8.3-.2"/><path fill-rule="evenodd" fill="#ff0" d="M186.8 147.7l-.7 6.3h4.3c0-5.2 4-6 4-6s4 1 4 6h4.3l-.8-6.4h-15"/><path d="M186.8 147.7l-.7 6.3h4.3c0-5.2 4-6 4-6s4 1 4 6h4.3l-.8-6.3h-15z" stroke="#000" stroke-width=".5" fill="none"/><path fill-rule="evenodd" fill="#ff0" d="M185.8 154h17c.4 0 .6.4.6.8 0 .5-.2.8-.6.8h-17c-.3 0-.6-.3-.6-.8 0-.4.3-.7.7-.7"/><path d="M185.8 154h17c.4 0 .6.4.6.8 0 .5-.2.8-.6.8h-17c-.3 0-.6-.3-.6-.8 0-.4.3-.7.7-.7z" stroke="#000" stroke-width=".5" fill="none"/><path fill-rule="evenodd" fill="#ff0" d="M192 154c0-3.3 2.3-4.2 2.3-4.2s2.3 1 2.3 4.2H192"/><path d="M192 154c0-3.3 2.3-4.2 2.3-4.2s2.3 1 2.3 4.2H192" stroke="#000" stroke-width=".5" fill="none"/><path fill-rule="evenodd" fill="#ff0" d="M186.2 145h16.3c.3 0 .6.4.6.8s-.2.7-.5.7h-16.3c-.3 0-.6-.3-.6-.7 0-.4.3-.7.6-.7"/><path d="M186.2 145h16.3c.3 0 .6.4.6.8 0 .3-.2.7-.5.7h-16.3c-.3 0-.6-.4-.6-.7 0-.4.3-.8.6-.8z" stroke="#000" stroke-width=".5" fill="none"/><path fill-rule="evenodd" fill="#ff0" d="M186.6 146.5H202c.4 0 .7.3.7.7 0 .4-.3.7-.6.7h-15.5c-.3 0-.5-.4-.5-.8s.2-.7.6-.7"/><path d="M186.6 146.5H202c.4 0 .7.3.7.7 0 .4-.3.7-.6.7h-15.4c-.4 0-.6-.4-.6-.8s.2-.7.6-.7z" stroke="#000" stroke-width=".5" fill="none"/><use xlink:href="#f" transform="translate(-5.3 -3.2)" height="400" width="600"/><path d="M191.6 136h1.2v.8h1v-1h1v1h1v-1h1.3v2c0 .4-.2.6-.4.6H192c-.2 0-.4-.2-.4-.5v-2z" stroke="#000" stroke-width=".5" fill="none"/><path fill-rule="evenodd" fill="#ff0" d="M196.2 138.6l.3 6.4h-4.3l.2-6.4h3.8"/><path d="M196.2 138.6l.3 6.4h-4.3l.2-6.4h3.8" stroke="#000" stroke-width=".5" fill="none"/><use id="f" xlink:href="#g" transform="translate(10.6)" height="400" width="600"/><use xlink:href="#h" transform="translate(10.6)" height="400" width="600"/><use xlink:href="#i" transform="translate(10.6)" height="400" width="600"/><path id="g" fill-rule="evenodd" fill="#ff0" d="M186.3 139h1.2v1h1v-1h1v1h1v-1h1.2v2c0 .4-.2.6-.5.6H187c-.4 0-.7-.3-.7-.6v-2"/><path id="i" d="M186.3 139h1.2v1h1v-1h1v1h1v-1h1.2v2c0 .4-.2.6-.5.6H187c-.4 0-.7-.3-.7-.6v-2z" stroke="#000" stroke-width=".5" fill="none"/><path id="e" fill-rule="evenodd" fill="#ff0" d="M191 141.6v3.4h-4v-3.4h4"/><path id="h" d="M191 141.6v3.4h-4v-3.4h4z" stroke="#000" stroke-width=".5" fill="none"/><path fill-rule="evenodd" d="M194 140.6c0-.6.8-.6.8 0v1.5h-1v-1.4"/><use xlink:href="#j" transform="translate(10.6)" height="400" width="600"/><path id="j" fill-rule="evenodd" d="M188.6 142.8c0-.6.8-.6.8 0v1.2h-.8v-1.2"/><use xlink:href="#k" transform="translate(-45.2)" height="400" width="600"/><use id="k" xlink:href="#l" transform="translate(90.9 -46.3)" height="400" width="600"/><g id="l" transform="translate(0 46.3)"><use xlink:href="#e" transform="translate(10.6)" height="400" width="600"/><path fill-rule="evenodd" fill="#ff0" d="M190.2 154.4c0-5.5 4-6.8 4-6.8s4.3 1.4 4.3 7l-8.3-.2"/><path fill-rule="evenodd" fill="#ff0" d="M186.8 147.7l-.7 6.3h4.3c0-5.2 4-6 4-6s4 1 4 6h4.3l-.8-6.4h-15"/><path d="M186.8 147.7l-.7 6.3h4.3c0-5.2 4-6 4-6s4 1 4 6h4.3l-.8-6.3h-15z" stroke="#000" stroke-width=".5" fill="none"/><path fill-rule="evenodd" fill="#ff0" d="M185.8 154h17c.4 0 .6.4.6.8 0 .5-.2.8-.6.8h-17c-.3 0-.6-.3-.6-.8 0-.4.3-.7.7-.7"/><path d="M185.8 154h17c.4 0 .6.4.6.8 0 .5-.2.8-.6.8h-17c-.3 0-.6-.3-.6-.8 0-.4.3-.7.7-.7z" stroke="#000" stroke-width=".5" fill="none"/><path fill-rule="evenodd" fill="#ff0" d="M192 154c0-3.3 2.3-4.2 2.3-4.2s2.3 1 2.3 4.2H192"/><path d="M192 154c0-3.3 2.3-4.2 2.3-4.2s2.3 1 2.3 4.2H192" stroke="#000" stroke-width=".5" fill="none"/><path fill-rule="evenodd" fill="#ff0" d="M186.2 145h16.3c.3 0 .6.4.6.8s-.2.7-.5.7h-16.3c-.3 0-.6-.3-.6-.7 0-.4.3-.7.6-.7"/><path d="M186.2 145h16.3c.3 0 .6.4.6.8 0 .3-.2.7-.5.7h-16.3c-.3 0-.6-.4-.6-.7 0-.4.3-.8.6-.8z" stroke="#000" stroke-width=".5" fill="none"/><path fill-rule="evenodd" fill="#ff0" d="M186.6 146.5H202c.4 0 .7.3.7.7 0 .4-.3.7-.6.7h-15.5c-.3 0-.5-.4-.5-.8s.2-.7.6-.7"/><path d="M186.6 146.5H202c.4 0 .7.3.7.7 0 .4-.3.7-.6.7h-15.4c-.4 0-.6-.4-.6-.8s.2-.7.6-.7z" stroke="#000" stroke-width=".5" fill="none"/><use xlink:href="#f" transform="translate(-5.3 -3.2)" height="400" width="600"/><path d="M191.6 136h1.2v.8h1v-1h1v1h1v-1h1.3v2c0 .4-.2.6-.4.6H192c-.2 0-.4-.2-.4-.5v-2z" stroke="#000" stroke-width=".5" fill="none"/><path fill-rule="evenodd" fill="#ff0" d="M196.2 138.6l.3 6.4h-4.3l.2-6.4h3.8"/><path d="M196.2 138.6l.3 6.4h-4.3l.2-6.4h3.8" stroke="#000" stroke-width=".5" fill="none"/><use xlink:href="#g" transform="translate(10.6)" height="400" width="600"/><use xlink:href="#h" transform="translate(10.6)" height="400" width="600"/><use xlink:href="#i" transform="translate(10.6)" height="400" width="600"/><path fill-rule="evenodd" fill="#ff0" d="M186.3 139h1.2v1h1v-1h1v1h1v-1h1.2v2c0 .4-.2.6-.5.6H187c-.4 0-.7-.3-.7-.6v-2"/><path d="M186.3 139h1.2v1h1v-1h1v1h1v-1h1.2v2c0 .4-.2.6-.5.6H187c-.4 0-.7-.3-.7-.6v-2z" stroke="#000" stroke-width=".5" fill="none"/><path fill-rule="evenodd" fill="#ff0" d="M191 141.6v3.4h-4v-3.4h4"/><path d="M191 141.6v3.4h-4v-3.4h4z" stroke="#000" stroke-width=".5" fill="none"/><path fill-rule="evenodd" d="M194 140.6c0-.6.8-.6.8 0v1.5h-1v-1.4"/><use xlink:href="#j" transform="translate(10.6)" height="400" width="600"/><path fill-rule="evenodd" d="M188.6 142.8c0-.6.8-.6.8 0v1.2h-.8v-1.2"/></g><g transform="rotate(45 120.8 290)"><use xlink:href="#e" transform="translate(10.6)" height="400" width="600"/><path fill-rule="evenodd" fill="#ff0" d="M190.2 154.4c0-5.5 4-6.8 4-6.8s4.3 1.4 4.3 7l-8.3-.2"/><path fill-rule="evenodd" fill="#ff0" d="M186.8 147.7l-.7 6.3h4.3c0-5.2 4-6 4-6s4 1 4 6h4.3l-.8-6.4h-15"/><path d="M186.8 147.7l-.7 6.3h4.3c0-5.2 4-6 4-6s4 1 4 6h4.3l-.8-6.3h-15z" stroke="#000" stroke-width=".5" fill="none"/><path fill-rule="evenodd" fill="#ff0" d="M185.8 154h17c.4 0 .6.4.6.8 0 .5-.2.8-.6.8h-17c-.3 0-.6-.3-.6-.8 0-.4.3-.7.7-.7"/><path d="M185.8 154h17c.4 0 .6.4.6.8 0 .5-.2.8-.6.8h-17c-.3 0-.6-.3-.6-.8 0-.4.3-.7.7-.7z" stroke="#000" stroke-width=".5" fill="none"/><path fill-rule="evenodd" fill="#ff0" d="M192 154c0-3.3 2.3-4.2 2.3-4.2s2.3 1 2.3 4.2H192"/><path d="M192 154c0-3.3 2.3-4.2 2.3-4.2s2.3 1 2.3 4.2H192" stroke="#000" stroke-width=".5" fill="none"/><path fill-rule="evenodd" fill="#ff0" d="M186.2 145h16.3c.3 0 .6.4.6.8s-.2.7-.5.7h-16.3c-.3 0-.6-.3-.6-.7 0-.4.3-.7.6-.7"/><path d="M186.2 145h16.3c.3 0 .6.4.6.8 0 .3-.2.7-.5.7h-16.3c-.3 0-.6-.4-.6-.7 0-.4.3-.8.6-.8z" stroke="#000" stroke-width=".5" fill="none"/><path fill-rule="evenodd" fill="#ff0" d="M186.6 146.5H202c.4 0 .7.3.7.7 0 .4-.3.7-.6.7h-15.5c-.3 0-.5-.4-.5-.8s.2-.7.6-.7"/><path d="M186.6 146.5H202c.4 0 .7.3.7.7 0 .4-.3.7-.6.7h-15.4c-.4 0-.6-.4-.6-.8s.2-.7.6-.7z" stroke="#000" stroke-width=".5" fill="none"/><use xlink:href="#f" transform="translate(-5.3 -3.2)" height="400" width="600"/><path d="M191.6 136h1.2v.8h1v-1h1v1h1v-1h1.3v2c0 .4-.2.6-.4.6H192c-.2 0-.4-.2-.4-.5v-2z" stroke="#000" stroke-width=".5" fill="none"/><path fill-rule="evenodd" fill="#ff0" d="M196.2 138.6l.3 6.4h-4.3l.2-6.4h3.8"/><path d="M196.2 138.6l.3 6.4h-4.3l.2-6.4h3.8" stroke="#000" stroke-width=".5" fill="none"/><use xlink:href="#g" transform="translate(10.6)" height="400" width="600"/><use xlink:href="#h" transform="translate(10.6)" height="400" width="600"/><use xlink:href="#i" transform="translate(10.6)" height="400" width="600"/><path fill-rule="evenodd" fill="#ff0" d="M186.3 139h1.2v1h1v-1h1v1h1v-1h1.2v2c0 .4-.2.6-.5.6H187c-.4 0-.7-.3-.7-.6v-2"/><path d="M186.3 139h1.2v1h1v-1h1v1h1v-1h1.2v2c0 .4-.2.6-.5.6H187c-.4 0-.7-.3-.7-.6v-2z" stroke="#000" stroke-width=".5" fill="none"/><path fill-rule="evenodd" fill="#ff0" d="M191 141.6v3.4h-4v-3.4h4"/><path d="M191 141.6v3.4h-4v-3.4h4z" stroke="#000" stroke-width=".5" fill="none"/><path fill-rule="evenodd" d="M194 140.6c0-.6.8-.6.8 0v1.5h-1v-1.4"/><use xlink:href="#j" transform="translate(10.6)" height="400" width="600"/><path fill-rule="evenodd" d="M188.6 142.8c0-.6.8-.6.8 0v1.2h-.8v-1.2"/></g><g transform="translate(90.8 46.3)"><use xlink:href="#e" transform="translate(10.6)" height="400" width="600"/><path fill-rule="evenodd" fill="#ff0" d="M190.2 154.4c0-5.5 4-6.8 4-6.8s4.3 1.4 4.3 7l-8.3-.2"/><path fill-rule="evenodd" fill="#ff0" d="M186.8 147.7l-.7 6.3h4.3c0-5.2 4-6 4-6s4 1 4 6h4.3l-.8-6.4h-15"/><path d="M186.8 147.7l-.7 6.3h4.3c0-5.2 4-6 4-6s4 1 4 6h4.3l-.8-6.3h-15z" stroke="#000" stroke-width=".5" fill="none"/><path fill-rule="evenodd" fill="#ff0" d="M185.8 154h17c.4 0 .6.4.6.8 0 .5-.2.8-.6.8h-17c-.3 0-.6-.3-.6-.8 0-.4.3-.7.7-.7"/><path d="M185.8 154h17c.4 0 .6.4.6.8 0 .5-.2.8-.6.8h-17c-.3 0-.6-.3-.6-.8 0-.4.3-.7.7-.7z" stroke="#000" stroke-width=".5" fill="none"/><path fill-rule="evenodd" fill="#ff0" d="M192 154c0-3.3 2.3-4.2 2.3-4.2s2.3 1 2.3 4.2H192"/><path d="M192 154c0-3.3 2.3-4.2 2.3-4.2s2.3 1 2.3 4.2H192" stroke="#000" stroke-width=".5" fill="none"/><path fill-rule="evenodd" fill="#ff0" d="M186.2 145h16.3c.3 0 .6.4.6.8s-.2.7-.5.7h-16.3c-.3 0-.6-.3-.6-.7 0-.4.3-.7.6-.7"/><path d="M186.2 145h16.3c.3 0 .6.4.6.8 0 .3-.2.7-.5.7h-16.3c-.3 0-.6-.4-.6-.7 0-.4.3-.8.6-.8z" stroke="#000" stroke-width=".5" fill="none"/><path fill-rule="evenodd" fill="#ff0" d="M186.6 146.5H202c.4 0 .7.3.7.7 0 .4-.3.7-.6.7h-15.5c-.3 0-.5-.4-.5-.8s.2-.7.6-.7"/><path d="M186.6 146.5H202c.4 0 .7.3.7.7 0 .4-.3.7-.6.7h-15.4c-.4 0-.6-.4-.6-.8s.2-.7.6-.7z" stroke="#000" stroke-width=".5" fill="none"/><use xlink:href="#f" transform="translate(-5.3 -3.2)" height="400" width="600"/><path d="M191.6 136h1.2v.8h1v-1h1v1h1v-1h1.3v2c0 .4-.2.6-.4.6H192c-.2 0-.4-.2-.4-.5v-2z" stroke="#000" stroke-width=".5" fill="none"/><path fill-rule="evenodd" fill="#ff0" d="M196.2 138.6l.3 6.4h-4.3l.2-6.4h3.8"/><path d="M196.2 138.6l.3 6.4h-4.3l.2-6.4h3.8" stroke="#000" stroke-width=".5" fill="none"/><use xlink:href="#g" transform="translate(10.6)" height="400" width="600"/><use xlink:href="#h" transform="translate(10.6)" height="400" width="600"/><use xlink:href="#i" transform="translate(10.6)" height="400" width="600"/><path fill-rule="evenodd" fill="#ff0" d="M186.3 139h1.2v1h1v-1h1v1h1v-1h1.2v2c0 .4-.2.6-.5.6H187c-.4 0-.7-.3-.7-.6v-2"/><path d="M186.3 139h1.2v1h1v-1h1v1h1v-1h1.2v2c0 .4-.2.6-.5.6H187c-.4 0-.7-.3-.7-.6v-2z" stroke="#000" stroke-width=".5" fill="none"/><path fill-rule="evenodd" fill="#ff0" d="M191 141.6v3.4h-4v-3.4h4"/><path d="M191 141.6v3.4h-4v-3.4h4z" stroke="#000" stroke-width=".5" fill="none"/><path fill-rule="evenodd" d="M194 140.6c0-.6.8-.6.8 0v1.5h-1v-1.4"/><use xlink:href="#j" transform="translate(10.6)" height="400" width="600"/><path fill-rule="evenodd" d="M188.6 142.8c0-.6.8-.6.8 0v1.2h-.8v-1.2"/></g><use xlink:href="#e" transform="rotate(-45 308 167.1)" height="400" width="600"/><path fill-rule="evenodd" fill="#ff0" d="M208.2 249c-3.8-4-2-7.7-2-7.7s4-2 8 1.8l-6 6"/><path fill-rule="evenodd" fill="#ff0" d="M201 246.6l4 5 3-3c-3.7-3.7-1.5-7-1.4-7.2 0 0 3.6-2 7.2 1.5l3-3-5-4-10.7 10.6"/><path d="M201 246.6l4 5 3-3c-3.7-3.7-1.5-7-1.4-7 0-.2 3.6-2 7.2 1.3l3-3-5-4-10.7 10.6z" stroke="#000" stroke-width=".5" fill="none"/><path fill-rule="evenodd" fill="#ff0" d="M205 251.8l12-12c0-.3.6-.2 1 0 .2.4.2 1 0 1l-12 12c-.3.3-.7.3-1 0-.3-.3-.4-.8 0-1"/><path d="M205 251.8l12-12c0-.3.6-.2 1 0 .2.4.2 1 0 1l-12 12c-.3.3-.7.3-1 0-.3-.3-.4-.8 0-1z" stroke="#000" stroke-width=".5" fill="none"/><path fill-rule="evenodd" fill="#ff0" d="M209.2 247.4c-2.3-2.4-1.4-4.6-1.4-4.6s2.4-1 4.7 1.3l-3.3 3.4"/><path d="M209.2 247.4c-2.3-2.4-1.4-4.6-1.4-4.6s2.4-1 4.7 1.3l-3.3 3.4" stroke="#000" stroke-width=".5" fill="none"/><path fill-rule="evenodd" fill="#ff0" d="M198.8 245.2l11.5-11.5c.2-.3.6-.2 1 0 .2.3.2.7 0 1l-11.5 11.5c-.3.2-.7.2-1 0-.2-.4-.3-.8 0-1"/><path d="M198.8 245.2l11.5-11.5c.2-.3.6-.2 1 0 .2.3.2.7 0 1l-11.5 11.5c-.3.2-.7.2-1 0-.2-.4-.3-.8 0-1z" stroke="#000" stroke-width=".5" fill="none"/><path fill-rule="evenodd" fill="#ff0" d="M200 246l11-11c.2-.3.6-.3 1 0 .2.3.2.7 0 1l-11 11c-.2 0-.6 0-1-.2-.2-.2-.2-.7 0-1"/><path d="M200 246l11-11c.2-.3.6-.3 1 0 .2.3.2.7 0 1l-11 11c-.2 0-.6 0-1-.2-.2-.2-.2-.7 0-1z" stroke="#000" stroke-width=".5" fill="none"/><use xlink:href="#f" transform="rotate(-45 312.2 187.9)" height="400" width="600"/><path d="M196 235l1-1 .6.6.6-.6-.6-.6 1-1 .5.7.7-.5-.6-.7 1-.8 1.4 1.4c.2.2.2.5 0 .7l-3 3.3c-.3.2-.7.2-1 0l-1.3-1.4z" stroke="#000" stroke-width=".5" fill="none"/><path fill-rule="evenodd" fill="#ff0" d="M201.3 233.5l4.7 4.4-3 3-4.4-5 2.7-2.5"/><path d="M201.3 233.5l4.7 4.4-3 3-4.4-4.8 2.7-2.7" stroke="#000" stroke-width=".5" fill="none"/><use xlink:href="#g" transform="rotate(-45 308 167.1)" height="400" width="600"/><use xlink:href="#h" transform="rotate(-45 308 167.1)" height="400" width="600"/><use xlink:href="#i" transform="rotate(-45 308 167.1)" height="400" width="600"/><path fill-rule="evenodd" fill="#ff0" d="M194.6 240.8l.8-.8.7.6.7-.6-.7-.6 1-1 .5.7.7-.5-.7-.6 1-1 1.3 1.4c.3.2.2.6 0 .8l-3 3c-.2.2-.6.2-.8 0l-1.4-1.4"/><path d="M194.6 240.8l.8-.8.7.6.7-.6-.7-.6 1-1 .5.7.7-.5-.7-.6 1-1 1.3 1.4c.3.2.2.6 0 .8l-3 3c-.2.2-.6.2-.8 0l-1.4-1.4z" stroke="#000" stroke-width=".5" fill="none"/><path fill-rule="evenodd" fill="#ff0" d="M199.7 239.3l2.5 2.4-3 3-2.3-2.6 2.6-2.7"/><path d="M199.7 239.3l2.5 2.4-3 3-2.3-2.6 2.7-2.7z" stroke="#000" stroke-width=".5" fill="none"/><path fill-rule="evenodd" d="M201 236.6c-.4-.4.2-1 .7-.6l1 1-.5.7-1-1"/><use xlink:href="#j" transform="rotate(-45 308 167.1)" height="400" width="600"/><path fill-rule="evenodd" d="M199 242c-.6-.5 0-1 .5-.7l.8 1-.6.5-.8-1"/><use xlink:href="#m" transform="translate(-20.8 25.7)" height="400" width="600"/><use xlink:href="#m" transform="translate(-29.1 25.8)" height="400" width="600"/><use xlink:href="#m" transform="translate(-25 21.6)" height="400" width="600"/><use xlink:href="#m" transform="translate(-20.8 17.6)" height="400" width="600"/><path id="m" fill="#fff" d="M265 202.5c-.7 0-1.4.6-1.4 1.4 0 .8.7 1.4 1.5 1.4 1 0 1.6-.6 1.6-1.5 0-1-.7-1.5-1.5-1.5"/><use id="n" xlink:href="#m" transform="translate(-8.1)" height="400" width="600"/><use id="o" xlink:href="#n" transform="translate(4 -4.2)" height="400" width="600"/><use id="p" xlink:href="#o" transform="translate(4.2 -4)" height="400" width="600"/><use id="q" xlink:href="#p" transform="translate(-8.1)" height="400" width="600"/><use id="r" xlink:href="#q" transform="translate(-12.6 8.1)" height="400" width="600"/><use id="s" xlink:href="#r" transform="translate(-8.3)" height="400" width="600"/><use id="t" xlink:href="#s" transform="translate(4.2 -4.2)" height="400" width="600"/><use id="u" xlink:href="#t" transform="translate(4.2 -4)" height="400" width="600"/><use id="v" xlink:href="#u" transform="translate(-8.3)" height="400" width="600"/><use id="w" xlink:href="#v" transform="translate(-12.5 8.2)" height="400" width="600"/><use id="x" xlink:href="#w" transform="translate(-8.1)" height="400" width="600"/><use id="y" xlink:href="#x" transform="translate(4 -4.2)" height="400" width="600"/><use xlink:href="#y" transform="translate(4.2 -4)" height="400" width="600"/><use xlink:href="#m" transform="translate(-29.1 17.6)" height="400" width="600"/><path fill="#ff0" d="M215.4 194.3c-.8 0-1.4.7-1.4 1.5s.6 1.5 1.4 1.5c1 0 1.5-.7 1.5-1.5s-.7-1.5-1.6-1.5"/><use xlink:href="#m" transform="translate(-29.1 -34.2)" height="400" width="600"/><use xlink:href="#m" transform="translate(-20.9 -34.2)" height="400" width="600"/><use xlink:href="#m" transform="translate(-25.1 -30.2)" height="400" width="600"/><use xlink:href="#m" transform="translate(-20.9 -26.1)" height="400" width="600"/><use xlink:href="#m" transform="translate(-29.1 -26)" height="400" width="600"/><use xlink:href="#m" transform="translate(-49.7 -8.2)" height="400" width="600"/></svg>