<svg width="750" xmlns="http://www.w3.org/2000/svg" version="1" height="500"><path fill="#006c35" d="M0 0h750v500H0z"/><path fill-rule="evenodd" d="M323.3 118c-.4 0-1 .3-1.8.8-1.8 1.2-5.5 5-5.6 9.3-.2 2.6-.6 2.6 1 4 1 1.8 2.3 1.6 4.6.4 1.4-1 1.8-1.6 2.3-3.3.4-2.7-3 1.4-3.5-1.7-.8-2.8 1.4-4 3.6-6.8 0-1.3 0-2.4-.7-2.4zm34 .3c-.6 0-1.4 1-2.5 3-.8 2-4.2 5.2-1.8 11.8 2 4.3 3 11 2 18.6-1.4 2-1.8 3-3.6 5-2.6 2.8-5.4 2-7.5 1-2-1.3-3.7-2-4.6-6.3 0-6.8.5-18-.7-20.4-2-3.8-5-2.5-6.2-1.4-6.2 5.7-9.3 15.4-11.2 23-1.8 5.6-3.6 4-5 1.8-3-3-3.3-26-7-22.3-6.2 17.5 3.4 36.6 10 34.8 5 2 8-7.2 10-17.2 1.2-2.8 2.3-3 3-1.7-.2 13.2 1 16.2 4.3 20.2 7.7 6 14 .8 14.5.3l6-6c1.3-1.3 3-1.4 5-.2 1.8 1.7 1.5 4.5 5.4 6.5 3.3 1.3 10.3.3 12-2.5 2-3.8 2.6-5 3.6-6.5 1.6-2 4.2-1 4.2-.5-.2 1.2-1.8 2.3-.7 4.4 1.8 1.4 2.2.5 3.3.2 4-2 6.8-10.3 6.8-10.3.2-3.2-1.6-3-2.7-2.3-1.6 1-1.7 1.2-3.2 2-2 .4-5.5 1.7-7.4-1.2-1.8-3.3-1.8-8-3.2-11.5 0-.2-2.5-5.3-.2-5.6 1 .3 3.6 1 4-1.2 1.2-2-2.6-7.7-5.2-10.6-2.3-2.5-5.4-2.8-8.4-.3-2 2-1.8 4-2.2 6-.6 2.5-.5 5.4 2 8.6 2 4 6 9.5 4.6 17 0 0-2.2 3.6-6 3-1.8-.2-4.4-1-6-11.4-1-8 .4-19-3-24.2-.7-2-1.4-4-2.5-3.7zm-10.7.8c-1 .2-2.2 1.4-3 3.7-1 1.7-2 10.8-1.7 10.8-.7 2.7 2.7 4 4.3.4 2.4-6.5 2.4-9.2 2.5-12-.3-2-1.2-3-2.2-3zm39.8.8c-1 0-2 .7-2.2 2.3-.4 3.7-.2 5.7.4 8.7.5 2 3.4 5.4 4.8 7.4 7 9.3 13.6 18.6 20 28.3 1 7 1.7 14 2.2 21 1 15.4 1.3 34.4.4 50.5 3 0 7.5-4.6 9-11.6 1-9.6-.3-29-.4-34.8 0-2.4-.2-5.2-.4-8 7.5 12 14.7 25 21.8 39.2 2.6-1.3 2-15.8.5-18-5.7-12-13.5-24.2-16-28.8-1-1.7-4-6.4-7.7-11.8-.6-7.7-1.4-14.2-1.8-16.2-1.2-8 3.3 1 2.7-3.8-1.5-8-6-13.6-11.3-21-1.7-2.5-1.6-3-4.3.5-1.5 3.6-1.4 6.6-1 9.4-.7-1-1.5-2.3-2.8-3.8l-8.6-7.4c-1.2-.8-3.5-2-5.2-2zm118 1.3c-.5 0-1 .2-1.7 1-1.2 1.2-2.5 3-2.5 5.5.3 4.3 1 8.7 1.4 13 0 .6.2 1 .3 1.7l-1.2-1.3c-8.3-9 4-1.5-1.6-8.3-4.6-5-6-6.6-10-9.7-1.8-1.3-3-3.7-3.7.5-.2 3.6-.5 7.8-.3 11 0 1.6 1.8 4.8 3.3 6.7 5.6 7 11.3 14.2 17 21.8 1.2 15.5 1.6 29.7 2.8 45.2-.2 6.7-2.2 15.5-4.2 16.4 0 0-2.8 1.7-4.8-.2-1.5-.6-7.2-9.6-7.2-9.6-3-2.7-5-2-7 0-5.8 5.6-8.4 16-12.3 23.2-1 1.6-4 3-7 0-8-11-3.4-26.8-4.4-22.8-7.2 8-4 21.5-2.4 24.4 2.3 4.7 4.2 7.7 8.8 10 4.2 3.2 7.5 1.2 9.3-1 4.3-4.3 4.3-15.5 6.3-17.7 1.4-4 5-3.4 6.6-1.6 1.5 2.3 3.5 4 6 5.2 3.8 3.4 8.5 4 13 1 3.3-2 5.3-4.2 7.2-8.7 2-5.4 1-33.3.5-48.8l9 12.8c1 13.6 1.7 27 1.3 39.8-.3 2.6 9-7.6 8.8-12.4v-11.6c4.5 7 8.8 14.4 13 21.7 2.5-1.3 1.6-15.7 0-17.6-4.3-7.3-9.8-15-14-21-1-7.6-2-16.6-2.5-19.3-.8-4.3-1.6-10.7-3-15.8-.2-2-1.2-8.4-1-9 .6-1.4 2.5 0 3.4-1.6 1.4-1.5-4.8-17.6-8-22.2-1-2-3-1.3-5.7 2-2.3 2.2-1.5 7.3-.6 12 2.4 12.2 4.5 24.6 6 37L513.2 158l-.4-2.5c0-.3-.5-10-1-12.3 0-1-.2-1.2.7-1 1 .8 1.2.8 2 1 1 .3 2-1.5 1.2-3-3.2-6.2-6.5-12.2-9.8-18.3-.4-.5-.8-1-1.3-1zm-304.6.4c-1.8 0-3.8 1-3 3.2-.4 1.2 3.6 5.2 4.3 7.4.7 1.6-.6 6.7.8 7 1.2.6 2.8-3.4 3.5-7 .3-2 0-9-4.7-10.5h-.8zm347 0c-.5 0-1 .7-1.7 2.4-1.8 3-2.4 8.4-1.7 13.2 4.5 30.2 7.8 59.5 8.5 86.3-.4 2.5-.5 3.8-1.7 7-2.5 3.4-5.4 7.7-8.2 9.7-2.7 2-8.5 4-10.5 5.5-6 3.5-6 7.5-1 7.7 8.3-1 18.2-1.7 25-12 2-3 4-10.8 4.2-15.7.6-28.2-.4-55.8-4.6-76.2-.4-2-1.2-6.6-1-7.2.6-1.3 3.4.2 4.4-1.4 1.4-1.4-7-12.4-10-17-.7-1.3-1-2.2-1.6-2.2zm-88.4.5c-.3 0-.8.5-1.8 1.7-2.3 7.7-3 14-2.3 18.8 6 31.5 12.3 60.2 11.3 90.3 3 0 6.2-6.6 7.6-13 .8-9-.5-14.5-.8-19.8-.2-5.3-6-48-7-52-1.5-7.5 5.5-1 4.7-5.4-2.3-5.5-8.3-13.5-10.2-18.3-.7-1.3-.8-2.5-1.4-2.4zm-215 .5c-.7 0-1.4.7-1.7 1.7-.2.7.3 1.8-.3 2-.4.5-1.7.2-1.6-1.6 0-.6-.4-1.2-.7-1.6-.2 0-.3-.2-.8-.2-.6 0-.6.2-1 .7l-.2 1.5c0 .7-.3 1-.8 1-.6 0-.4 0-1-.2 0-.3-.4-.4-.4-1l-.3-1.5c-.2-.4-.6-.5-1-.6-2.2 0-2.4 2.6-2.3 3.6-.2 0-.2 4.7 2.8 6 4 2 12 1 11.5-5.5 0-.6 0-2.6-.2-3-.4-1-1.2-1.5-2-1.3zm55.2 0c-1.4 0-2.7.5-3.7 1-3 2.7-3.5 7-1.4 9.5 2 1 4.2 3 2.8 4.2-6 6.3-21.3 17-22 18.8v.2c1 .6 10.5.6 11.6 0 3.3-1 19-19 19-19l-2.3-2c-1-.7-.8-1.5 0-2.2 3.8-2.3 2.6-7.3.6-9.5-1.7-.8-3.3-1-4.7-1zm144.3 0c-.6 0-1 .8-1.8 2.4-2 3-3.2 8.2-3 13.2 4 27.8 5.2 52 8 80 0 2.6-.3 6.6-2 8-6.7 7-16.3 15.5-26.6 19.5-1 1.2 2.7 6.6 7.8 6.6 8.4-1 15.8-5.8 22.7-18.2 2-2.8 5-9 5.2-13.8.7-28.3-1.4-50.3-5.6-70.7-.3-2 0-4.3.2-5 .6-.6 2.4 0 3.4-1.5 1.4-1.5-3.8-13.7-6.8-18.3-.6-1.2-1-2.2-1.5-2zm-223.6 1c-1.2 0-2.3 1-2.8 2.3-.2 4.4-.2 9 .3 13 2 7.2 2.6 13.6 3.5 21 .3 9.8-5.7 4.2-5.4-.7 1.5-6.2 1-16.3 0-18.8s-2.2-3.2-4.6-2.8c-2 0-6.7 5.2-8 14 0 0-1.2 4.5-1.7 8.5-.7 4.4-3.7 7.6-5.8-.7-2-6-3-21-6-17.6-1 11.7-2 32.3 8 34.4 12 1.2 5.4-20.2 9.8-24 .8-2 2.3-2 2.4.4v18.2c0 6 3.8 7.7 6.8 9 3.2-.4 5.3-.3 6.5 2.8L224 214s7.3 2 7.6-17.8c.4-11.6-2.3-21.4-.7-23.7 0-2.2 2.8-2.3 4.8-1.2 3 2.2 4.5 5 9.4 3.8 7.4-2 12-5.5 12-11.2-.5-5.4-1-10.8-3.4-16.3.3-1-1.5-3.5-1-4.5 1.2 2 3.2 2 3.7 0-1.3-4.2-3.3-8-6.4-10-2.6-2.2-6.4-1.7-7.8 3-.7 5.7 2 12.3 6 17.7 1 2 2 5.6 1.6 8.7-2.2 1.2-4.3.7-6-1.2 0 0-6-4.4-6-5.4 1.6-10 .3-11.2-.5-14-.7-3.8-2.5-5-4-7.6-1.4-1.6-3.4-1.6-4.4 0-2.7 4.5-1.5 14.2.4 18.6 1.4 4 3.5 6.5 2.5 6.5-1 2.2-2.6 1.7-3.8-1-1.8-5.3-2-13.4-2-17-.7-4.5-1.2-14-4.2-16.5-.8-1-1.7-1.5-2.6-1.4zm42 0c-.5 0-1 .4-2 .6-2.4 1-4.8 3-4 7.4 3 18.3 5 32.3 8 50.7.4 2.2-1.4 5-3.7 4.8-4-2.7-5-8-11.7-8-5 .2-10.4 5.5-11 10.6-1 4-1.2 8.4 0 12 3.3 4 7.4 3.7 11 2.7 3-1 5.4-4 6.4-3.3.7 1.2 0 10.7-14 18-8.4 4-15.2 4.8-18.8-2.2-2.3-4.3 0-21-5.4-17-16.5 42.4 38.6 48.3 44.7 1.7.3-1.3 1.5-2.6 2.4-2.3.4 0 .7.6.8 1.5-1.3 42.2-42.6 45-49.6 32-1.7-3.3-2.3-10.3-2.4-14.4-.4-2.5-1-4-1.7-4.5-1.7-1.3-4 2-4.4 7.7-.6 4.6-.4 6-.4 10.3 2.2 33.3 55.4 19 64-8.6 4.3-14.3 0-25 1.3-26.4h.3c5.3 5.6 12.7.6 14.3-1.3.7-1 2.5-1.7 3.7-.4 4 3 11.3 1.5 12.8-3.7 1-5 1.7-10.4 2-16-2.8 1-5 1.6-5.8 2.5-.2.2-.4.5-.4.8l-.7 4.5v.4c0 .2-.3.4-.5.5-1 .4-2.6 0-2.7-1.2-1.3-5.8-6.5-6.6-9.7 2.4-2 1.7-6 2-6.4-.5.5-6-2-7-6.8-4-1.6-12-3-23.4-4.7-35.3 2.2 0 4 1.4 6-1-2-6.2-6.4-19-8.8-20 0-.3-.3-.4-.4-.5v-.2h-.3c0-.2-.2-.2-.3-.2h-.7zm164.5 0c-2.2 0-4.6 1.4-3.7 4-.5 1.4 4.6 6.3 5.4 9 1.5 4-1 8 .4 8.6 1.5.7 3.5-4 4.2-8.6.8-3.7-1.8-11.2-5.4-12.7h-1zm-128.2 4.6c1 0 2.2 1 2.7 2 .6 1.5.3 2.7-.7 3-1 .2-2.2-.7-2.8-2-.6-1.3-.3-2.6.7-3zm237.5 6.3c-2 0-4 1.3-3 4.2-.6 1.6 4 7 4.7 9.8.7 2-1 8.7.4 9.3 1.3.7 3-4.6 3.7-9.5.5-2.6-1.5-12-4.8-13.6h-1zM404 137.5l.5 2.4 1 5-3.2-4.3c-3.4-4 0-2.7 1.7-3.2zm30.3 15c-.8 0-1.5.7-1.7 1.7-.2.6.3 1.7-.3 2-.4.4-1.7.2-1.6-1.7 0-.5-.5-1.2-.7-1.6-.3-.2-.5-.3-1-.3s-.5.2-.8.7l-.3 1.5c-.2.6-.4.8-1 1-.4 0-.3 0-.8-.3-.2-.3-.5-.4-.5-1l-.3-1.5c-.2-.3-.6-.5-1-.6-2.3 0-2.4 2.6-2.3 3.6 0 0-.2 4.8 3 6 4 2 11.8 1 11.4-5.5 0-.6 0-2.6-.2-3-.4-1-1.2-1.4-2-1.3zm-138 1.3c-.6 0-1.3 0-2 .6-3.7 2-5 7.8-3 11.2 2.3 3 5.6 2 6 2 3.6.3 5.7-6.8 5.7-6.8s0-2-4 1.8c-2 .3-2-.3-2.6-1.3-.3-2-.2-3.8.6-5.6.4-1 0-2-.8-2zm195 1c-2-.2-4 1-4.6 3.8 0 1.7.7 2.6.6 4-.2 1-1 1.4-3.2.4.5-.3-1.2-2.6-1.2-2.6-1.6-1-3.8 0-5.2 1-.8 1.4-1.3 3.8-.5 6.2 2.5 4.3 10.4 11.7 14.2 11.7 0-4 .5-9 .7-12.2 0-1 .3-2.4 1.4-2.7 1.2-.3 3.2 1 3.2 0-.2-2.6-.7-6.2-2-8-.8-1-2-1.6-3.2-1.6zM330 168c0 .2 0 .2-.2.2l-2 1.8c-1.8 2-2 3.5-2 7.6 0 .4 3.4 9.6 6.2 16 2 6.7 3.6 14.4 2.3 21.6-4.3 9.6-13 18-21.7 22.8-4.3 1.4-8 1-9 0-2.6-1.7-2.7-4.7-2.5-5.2 7.2-5 15.5-9.2 22-22.8 1.8-5 2.4-8.3.5-16.3-.7-3-1.7-5.4-3.7-7.5 1.3-.7 4.5 1.7 5 .2-.8-3.8-3.4-9-6.3-11.6-2.6-2.3-5.4-2.6-7.8-.4-2.6 1.4-3.2 6.7-2 11.4 1.5 3.4 5.4 4 8 11 0 .6 1 5.4-.4 7.3-1 3.6-15.3 15-16.3 15.5 0 0 0 .2-.2.2-.2-.4 0-1 0-2.3-.2-2 .7-7 .6-7.7-4.7 3-6.2 12.3-7 15-12 8.4-25.7 14.5-33.5 23-4 6.3 28-7.4 31.8-9 .8.8 1 3.5 3 6 3.4 4.5 10.5 7.3 17.4 5.6 11.6-4.2 18.3-12 25-21 1-1.3 2.6-2.4 4-1.3 4.7 10.4 18.2 18 35.6 18.7 4-5 2-7.4.5-8.4-.5-.3-8.7-3.5-10-6.7-.8-3 1.2-5.5 5-7.5 11.3-1.3 22.3-2.8 33-6.2 0-3.6 2-9 3.5-11.2 1-1.6 1.6-1.8 2-2v-.2-.3l-2-1h-35.6l-1-.6v-.2h-.2v-.2-.2c.3-.3.7-.5 1.2-.7 8.5-1 23.7-3.5 24.7-18-.2-7.7-3.3-12.7-12.6-14-6.8.5-11.7 7-11 14.4-.2 2 .8 5.8-1.3 6.2-13 1.2-27.4 9.5-28 15.3h-.2-.2c-.8-.2-2-1.6-1.8-3.6-.5-10.2-3.8-21.7-9-30.6-1.8-1.8-2.6-2.6-3.2-2.7h-.2zm34.2 5.5c-.8 0-1.5.7-1.7 1.8-.2.6.3 1.7-.3 2-.4.4-1.7.2-1.6-1.6 0-.6-.5-1.3-.7-1.6h-1c-.5 0-.5 0-.8.5-.2.5-.4 1-.4 1.5 0 .7-.3 1-.8 1s-.4 0-.8-.2c-.3-.3-.6-.4-.6-1 0-.4 0-1.2-.3-1.5 0-.3-.5-.4-1-.5-2.2 0-2.3 2.5-2.2 3.5 0 .2-.3 4.8 2.8 6 4 2 14 1 11.5-5.5v-3c-.5-1-1.3-1.4-2-1.3zm138 5.7h-.4l-19.5 14c-1.8 1.7-1 7.6 0 7 1.4.5 20.6-12.5 20.3-14 .8 0 1.2-6.8-.3-7zm-120 2c.8 0 1.8.2 2.8.7 1.4.7 2.3 2 2.2 3v.2h-.2c0 .2 0 .3-.2.3-.7.7-2.2.6-3.7-.3-1.5-.8-2.4-2-2.3-3v-.4h.2v-.3c.3-.2.6-.3 1-.3zm-167 3.4c-9.8.2-24.3 13-24.6 20l31.2-15c-1.7-2.5 0-4.8-6.5-5zm32 4.4c1 0 2 .5 2.6 2 .5 1 0 2.4-.5 3v.2c-.4.5-1.8.3-3 .3-1 0-1.8-.3-2.5-1.3-.4-1 .7-2.2 1.2-3 0-.2.2-.3.3-.4.3-.3 1-.6 1.7-.7h.4zm251.2 4c-1.7.2-3.4 2-2.6 4.5-.5 1.6 2.4 7 3 10 .8 2-.7 7.8.6 8.4 1.3.6 4.7-3.5 4.6-8.7.3-2.7-1-12.6-4.3-14.2h-1.3zM285 202.6c-1.6 0-3 1-2.4 3 0 1.7 4.4 3.6 4.7 7.3.6 1.4-1 6.3.4 6.7 1.2.5 3-3.3 3.5-7 .4-2-1.5-8.7-4.7-10H285zm63.8 8.7h.5c4 1 9.8 1.2 15 1.7 4 .3 6 3.6 2.2 5-3.8 1.2-7.5 2.3-7.5 7.8.4 2.7.3 4.2 0 4.8-.2 0-.2.2-.3.2l-.3.2h-.2c-1 .2-2.2-.7-3.2-1.2-2.4-1.7-9-5.8-10-14.6 0-2 1.4-3.7 3.8-4zm-156 6.8c-.2 0-.7 1-1.4 1.7-5.8 9.4-6.4 23.3-3 27.5 1.6 2 4.4 2.8 6.5 2.2 3.6-1.6 5.2-9 4.4-11.8-1.3-2-2.2-2.2-3.5-.6-2.7 5.3-3.7 1.7-4-1.3-.4-5.6.2-10.7.8-14.8.3-2.2.3-3 0-3zM393 230.5c-.4 0-1 0-1.4.3 0 0-4.2 2.8-5.5 4.7-.7.6-.6 1-.4 2.2.7 1.5 1.8 1 3 .3 1.7-.3 2.5.8 2.4 2.8-.8 2.5.3 3.4.3 3.6 0 .2 1.6 1.5 3.5.4 4-1.5 6.5-3 12-4.2 1.5 0 1.5-4-1-4-3 0-5.7.2-8.7 2.6-1.8.4-2-.7-2.5-1.7-.5-2.5 1-4.3.7-6.2 0 0-1-.8-2.2-1zm128.2 4.8c-.8 0-1.6 0-2.7.2-1.2.3-1.7.8-2 2.3.2 2.2 1.6 2 3 3 .8 1 1.3 2 0 3.7-1.4 1.2-2.3 2-3.7 3-.6 1.2-1 2.8 1 3.4 3.5 1 11.7-4.4 11.7-4.5 1.4-1 1-3 .8-3-.8-.8-2.5-.3-3.7-.4-.6 0-2.4-.4-1.5-2 .8-1 1-1.6 1.6-3 .5-1 0-2-2-2.6-1-.2-1.7-.2-2.4-.2zm-53.6 108.4c-6 1.5-5.8 7.7-2 10.4-62.5 0-158.6-1-179.2-1-11.5 0-48-1.5-48.7-1.5 7.8 11.5 19.2 13.8 34 14l193.3-.3c-2.6 4.6.2 12 2.2 13.4h.2c0 .2.2.2.2.2 2.6.6 3.6-1.2 4.5-2.4 4 .3 26.2.6 28.2 0 1.4 2 2.7 3.8 5.4 3.5 4.5-1 8-1.6 8.2-11 0 0-.4-15.7-10.8-14.7-2.5.4-9.4 1-9.4 1-8-1-13.8-1-22.7-1.3.7-1 2.2-5.3.4-6.8-.5-.4-1.2-.6-2.2-.6h-.2v-.2h-.2c-.4-.7-.7-2.3-1-2.7h-.2zm4.3 22.6c9 .4 17.6 0 26.7.5 1.5 1.2.8 4-.2 4.6h-.3c-3 0-4.8 0-7.7-.2v-.3c-.8-2-6-2-7-.3h-.2V371s-.2 0-.2.2c-4 .5-7.5 0-11.5-.3-1.2-1.5-1-4.2.4-4.8z" fill="#fff"/></svg>