<svg width="750" xmlns="http://www.w3.org/2000/svg" height="500"><path fill="#c60b1e" d="M0 0h750v500H0z"/><path fill="#ffc400" d="M0 125h750v250H0z"/><path d="M168 222.2s-.5 0-.8 0-1-1-1-1l-.8-.6-.6-.8s-.8-1.2-.4-2c.3-1 1-1.3 1.4-1.6.5-.3 1.6-.6 1.6-.6l1-.4 1.4-.3.6-.4c.3 0 .6 0 1-.2l1-.2h6.5c.5 0 1.2.3 1.5.4l2 .8s1.8.4 2.4.6l1 1c.4.5.4 1 .5 1.2v1c0 .4-.5 1-.5 1l-.6 1-.8.6s-.6.5-1 .4c-.5 0-5-.8-8-.8s-7.6.8-7.6.8" fill="#ad1519"/><path stroke-linejoin="round" stroke="#000" stroke-width=".3" d="M168 222.2s-.5 0-.8 0-1-1-1-1l-.8-.6-.6-.8s-.8-1.2-.4-2c.3-1 1-1.3 1.4-1.6.5-.3 1.6-.6 1.6-.6l1-.4 1.4-.3.6-.4c.3 0 .6 0 1-.2l1-.2h6.5c.5 0 1.2.3 1.5.4l2 .8s1.8.4 2.4.6l1 1c.4.5.4 1 .5 1.2v1c0 .4-.5 1-.5 1l-.6 1-.8.6s-.6.5-1 .4c-.5 0-5-.8-8-.8s-7.6.8-7.6.8z" fill="none"/><path d="M174.3 215.7c0-1.4.6-2.5 1.4-2.5s1.3 1 1.3 2.5-.6 2.5-1.3 2.5-1.4-1-1.4-2.5" fill="#c8b100"/><path stroke="#000" stroke-width=".3" d="M174.3 215.7c0-1.4.6-2.5 1.4-2.5s1.3 1 1.3 2.5-.6 2.5-1.3 2.5-1.4-1-1.4-2.5z" fill="none"/><path d="M175 215.7c0-1.3.3-2.3.7-2.3.3 0 .6 1 .6 2.3 0 1.2-.3 2.3-.6 2.3-.4 0-.6-1-.6-2.3" fill="#c8b100"/><path stroke="#000" stroke-width=".3" d="M175 215.7c0-1.3.3-2.3.7-2.3.3 0 .6 1 .6 2.3 0 1.2-.3 2.3-.6 2.3-.4 0-.6-1-.6-2.3z" fill="none"/><path d="M174.8 213c0-.4.4-.8 1-.8.4 0 .8.4.8.8 0 .5-.4 1-1 1-.4 0-.8-.5-.8-1" fill="#c8b100"/><path d="M176.3 212.7v.6H175v-.6h.4v-1.3h-.7v-.5h.7v-.7h.6v.6h.6v.4h-.6v1.3h.3" fill="#c8b100"/><path stroke="#000" stroke-width=".3" d="M176.3 212.7v.6H175v-.6h.4v-1.3h-.7v-.5h.7v-.7h.6v.6h.6v.4h-.6v1.3h.3" fill="none"/><path d="M177 212.7v.6h-2.6v-.6h1v-1.3h-.7v-.5h.7v-.7h.6v.6h.6v.4h-.6v1.3h1" fill="#c8b100"/><path stroke="#000" stroke-width=".3" d="M177 212.7v.6h-2.6v-.6h1v-1.3h-.7v-.5h.7v-.7h.6v.6h.6v.4h-.6v1.3h1" fill="none"/><path stroke="#000" stroke-width=".3" d="M176 212.2c.3 0 .6.5.6.8 0 .5-.4 1-1 1-.4 0-.8-.5-.8-1 0-.4.2-.7.6-.8" fill="none"/><path d="M175.7 222H171l-.2-1-.3-1.3-.2-1.6c-1.3-1.6-2.5-2.8-3-2.5 0-.3.3-.6.5-.7 1.2-.7 3.6 1 5.4 3.7l.5.8h4c0-.3.3-.5.4-.8 2-2.7 4.4-4.4 5.6-3.7.2 0 .3.4.4.7-.4-.2-1.6 1-3 2.6v1.7l-.4 1.2v1h-5" fill="#c8b100"/><path stroke="#000" stroke-width=".3" d="M175.7 222H171l-.2-1-.3-1.3-.2-1.6c-1.3-1.6-2.5-2.8-3-2.5 0-.3.3-.6.5-.7 1.2-.7 3.6 1 5.4 3.7l.5.8h4c0-.3.3-.5.4-.8 2-2.7 4.4-4.4 5.6-3.7.2 0 .3.4.4.7-.4-.2-1.6 1-3 2.6v1.7l-.4 1.2v1h-5z" fill="none"/><path stroke="#000" stroke-width=".3" d="M167.6 215.4c1-.5 3 1.2 4.7 3.8m11.5-3.8c-1-.5-3 1.2-4.7 3.8" fill="none"/><path d="M168.6 224.3c-.2-.6-.6-1-.6-1 2-.7 4.7-1 7.7-1s5.7.3 7.7 1c0 0-.3.2-.6.8 0 .4-.4 1-.3 1-1.8-.7-4-1-6.8-1s-5.5.4-7 1v-.7" fill="#c8b100"/><path stroke="#000" stroke-width=".3" d="M168.6 224.3c-.2-.6-.6-1-.6-1 2-.7 4.7-1 7.7-1s5.7.3 7.7 1c0 0-.3.2-.6.8 0 .4-.4 1-.3 1-1.8-.7-4-1-6.8-1s-5.5.4-7 1v-.7" fill="none"/><path d="M175.7 226.7c2.4 0 5-.3 6-.6.7 0 1-.4 1-.7 0-.2 0-.3-.3-.4-1.5-.6-4-1-6.7-1s-5.3.4-6.8 1c-.2 0-.4 0-.4.3s.3.6 1 .8c1 .3 3.6.7 6 .7" fill="#c8b100"/><path stroke="#000" stroke-width=".3" d="M175.7 226.7c2.4 0 5-.3 6-.6.7 0 1-.4 1-.7 0-.2 0-.3-.3-.4-1.5-.6-4-1-6.7-1s-5.3.4-6.8 1c-.2 0-.4 0-.4.3s.3.6 1 .8c1 .3 3.6.7 6 .7z" fill="none"/><path d="M183.5 222l-.6-.4s-.7.3-1.4.2c-.7 0-1-1-1-1s-.7.7-1.4.6c-.6 0-1-.6-1-.6s-.7.5-1.4.5c-.6 0-1.2-.8-1.2-.8s-.6.8-1.2.8-1.2-.5-1.2-.5-.2.6-1 .7-1.5-.6-1.5-.6-.4.6-1 .8c-.5.2-1.2-.3-1.2-.3l-.2.5h-.3v.6c2-.5 4.7-1 7.7-1s5.6.5 7.6 1l.2-.5" fill="#c8b100"/><path stroke="#000" stroke-width=".3" d="M183.5 222l-.6-.4s-.7.3-1.4.2c-.7 0-1-1-1-1s-.7.7-1.4.6c-.6 0-1-.6-1-.6s-.7.5-1.4.5c-.6 0-1.2-.8-1.2-.8s-.6.8-1.2.8-1.2-.5-1.2-.5-.2.6-1 .7-1.5-.6-1.5-.6-.4.6-1 .8c-.5.2-1.2-.3-1.2-.3l-.2.5h-.3v.6c2-.5 4.7-1 7.7-1s5.6.5 7.6 1l.2-.5z" fill="none"/><path d="M175.7 219.5h.3v.4c0 .5.4 1 1 1 .5 0 1-.3 1-.8l.2-.3v.3c.2.5.6 1 1.2 1s1-.6 1-1.2l.4-.4.2.5v.5c0 .6.4 1 1 1 .4 0 .7 0 1-.4v-.2.4c0 .3.2.6.6.7 0 0 .4 0 1-.5l.7-.8v.5s-.5.8-1 1c-.2.2-.6.4-1 .3-.2 0-.4-.3-.6-.6h-.8c-.7 0-1.3-.2-1.5-.7-.3.3-.7.5-1 .5-.6 0-1-.3-1.4-.6-.2.3-.6.4-1 .4-.5 0-1-.3-1.3-.7-.3.3-.8.6-1.4.6-.4 0-.8 0-1-.4-.3.3-.8.6-1.3.6s-1-.2-1.2-.5c-.2.5-.8.8-1.4.8h-.8c0 .2-.3.5-.7.5-.4 0-.7 0-1-.2-.5-.3-1-1-1-1v-.6l1 .8.8.4c.3-.2.5-.5.5-.8v-.4l.2.3c.2.4.5.5 1 .5s1-.4 1-1c0 0 0-.3-.2-.4l.2-.4.4.4c0 .7.3 1.2 1 1.2.5 0 1-.4 1-1v-.3c.2 0 .3.3.3.2 0 .5.5.8 1 .8.6 0 1-.5 1-1v-.5h.4" fill="#c8b100"/><path stroke="#000" stroke-width=".3" d="M175.7 219.5h.3v.4c0 .5.4 1 1 1 .5 0 1-.3 1-.8l.2-.3v.3c.2.5.6 1 1.2 1s1-.6 1-1.2l.4-.4.2.5v.5c0 .6.4 1 1 1 .4 0 .7 0 1-.4v-.2.4c0 .3.2.6.6.7 0 0 .4 0 1-.5l.7-.8v.5s-.5.8-1 1c-.2.2-.6.4-1 .3-.2 0-.4-.3-.6-.6h-.8c-.7 0-1.3-.2-1.5-.7-.3.3-.7.5-1 .5-.6 0-1-.3-1.4-.6-.2.3-.6.4-1 .4-.5 0-1-.3-1.3-.7-.3.3-.8.6-1.4.6-.4 0-.8 0-1-.4-.3.3-.8.6-1.3.6s-1-.2-1.2-.5c-.2.5-.8.8-1.4.8h-.8c0 .2-.3.5-.7.5-.4 0-.7 0-1-.2-.5-.3-1-1-1-1v-.6l1 .8.8.4c.3-.2.5-.5.5-.8v-.4l.2.3c.2.4.5.5 1 .5s1-.4 1-1c0 0 0-.3-.2-.4l.2-.4.4.4c0 .7.3 1.2 1 1.2.5 0 1-.4 1-1v-.3c.2 0 .3.3.3.2 0 .5.5.8 1 .8.6 0 1-.5 1-1v-.5h.4z" fill="none"/><path d="M175.7 222.2c-3 0-5.8.4-7.7 1 0 0-.3 0-.3-.2v-.3c2-.6 5-1 8-1s5.8.4 7.8 1l.2.3-.3.2c-2-.6-4.7-1-7.7-1" fill="#c8b100"/><path stroke-linejoin="round" stroke="#000" stroke-width=".3" d="M175.7 222.2c-3 0-5.8.4-7.7 1 0 0-.3 0-.3-.2v-.3c2-.6 5-1 8-1s5.8.4 7.8 1l.2.3-.3.2c-2-.6-4.7-1-7.7-1z" fill="none"/><path d="M172.8 223.3c0-.2 0-.4.4-.4s.4 0 .4.3c0 .2-.2.4-.4.4s-.4-.2-.4-.4" fill="#fff"/><path stroke="#000" stroke-width=".3" d="M172.8 223.3c0-.2 0-.4.4-.4s.4 0 .4.3c0 .2-.2.4-.4.4s-.4-.2-.4-.4z" fill="none"/><path d="M175.7 223.5h-1l-.3-.3s0-.3.3-.3h2c.2 0 .3 0 .3.2s0 .3-.3.3h-1" fill="#ad1519"/><path stroke="#000" stroke-width=".3" d="M175.7 223.5h-1l-.3-.3s0-.3.3-.3h2c.2 0 .3 0 .3.2s0 .3-.3.3h-1" fill="none"/><path d="M170.8 223.8h-1c0-.3 0-.5.2-.5h.8l.7-.2s.3.2.3.4c0 0 0 .3-.2.3h-.7" fill="#058e6e"/><path stroke="#000" stroke-width=".3" d="M170.8 223.8h-1c0-.3 0-.5.2-.5h.8l.7-.2s.3.2.3.4c0 0 0 .3-.2.3h-.7" fill="none"/><path d="M168 224.3l.4-.5h.6l-.4.7-.5-.2" fill="#ad1519"/><path stroke="#000" stroke-width=".3" d="M168 224.3l.4-.5h.6l-.4.7-.5-.2" fill="none"/><path d="M177.7 223.3c0-.2.2-.4.5-.4.2 0 .4 0 .4.3 0 .2-.2.4-.4.4-.3 0-.5-.2-.5-.4" fill="#fff"/><path stroke="#000" stroke-width=".3" d="M177.7 223.3c0-.2.2-.4.5-.4.2 0 .4 0 .4.3 0 .2-.2.4-.4.4-.3 0-.5-.2-.5-.4z" fill="none"/><path d="M180.5 223.8h1.1c0-.3 0-.5-.3-.5h-.7l-.7-.2c-.3 0-.5.2-.5.4 0 0 0 .3.3.3h.7" fill="#058e6e"/><path stroke="#000" stroke-width=".3" d="M180.5 223.8h1.1c0-.3 0-.5-.3-.5h-.7l-.7-.2c-.3 0-.5.2-.5.4 0 0 0 .3.3.3h.7" fill="none"/><path d="M183.2 224.3l-.2-.5h-.7l.3.7.6-.2" fill="#ad1519"/><path stroke="#000" stroke-width=".3" d="M183.2 224.3l-.2-.5h-.7l.3.7.6-.2" fill="none"/><path d="M175.7 226.2c-2.5 0-4.7-.3-6.3-.7 1.6-.4 3.8-.7 6.3-.7 2.4 0 4.6.3 6.3.7-1.7.4-4 .7-6.3.7" fill="#ad1519"/><path stroke-linejoin="round" stroke="#000" stroke-width=".3" d="M175.7 226.2c-2.5 0-4.7-.3-6.3-.7 1.6-.4 3.8-.7 6.3-.7 2.4 0 4.6.3 6.3.7-1.7.4-4 .7-6.3.7z" fill="none"/><path d="M183.3 221v-.5c-.2 0-.4 0-.5.2 0 .2 0 .4.2.5 0 0 .3 0 .3-.3" fill="#c8b100"/><path stroke="#000" stroke-width=".3" d="M183.3 221v-.5c-.2 0-.4 0-.5.2 0 .2 0 .4.2.5 0 0 .3 0 .3-.3z" fill="none"/><path d="M178.5 220c0-.3 0-.4-.2-.4s-.3 0-.3.3c0 0 0 .3.2.3 0 0 .3-.2.3-.4" fill="#c8b100"/><path stroke="#000" stroke-width=".3" d="M178.5 220c0-.3 0-.4-.2-.4s-.3 0-.3.3c0 0 0 .3.2.3 0 0 .3-.2.3-.4z" fill="none"/><path d="M173 220c-.2-.3 0-.4 0-.4s.4 0 .4.3c0 0 0 .3-.2.3s-.3-.2-.3-.4" fill="#c8b100"/><path stroke="#000" stroke-width=".3" d="M173 220c-.2-.3 0-.4 0-.4s.4 0 .4.3c0 0 0 .3-.2.3s-.3-.2-.3-.4z" fill="none"/><path d="M168 221c0-.3 0-.5.2-.5 0 0 .3 0 .3.2v.5c-.2 0-.4 0-.5-.3" fill="#c8b100"/><path stroke="#000" stroke-width=".3" d="M168 221c0-.3 0-.5.2-.5 0 0 .3 0 .3.2v.5c-.2 0-.4 0-.5-.3z" fill="none"/><path d="M175.7 217.2l-1 .5.7 1.4.3.2h.2l.5-1.5-.8-.5" fill="#c8b100"/><path stroke="#000" stroke-width=".3" d="M175.7 217.2l-1 .5.7 1.4.3.2h.2l.5-1.5-.8-.5" fill="none"/><path d="M173.8 219.2l.4.6 1.3-.4.2-.2-.2-.2-1.3-.4-.4.6" fill="#c8b100"/><path stroke="#000" stroke-width=".3" d="M173.8 219.2l.4.6 1.3-.4.2-.2-.2-.2-1.3-.4-.4.6" fill="none"/><path d="M177.6 219.2l-.4.6-1.4-.4v-.4l1.4-.4.4.6" fill="#c8b100"/><path stroke="#000" stroke-width=".3" d="M177.6 219.2l-.4.6-1.4-.4v-.4l1.4-.4.4.6" fill="none"/><path d="M170 217.8l-.6.6 1 1v.2l.3-.2.3-1.3-1-.2" fill="#c8b100"/><path stroke="#000" stroke-width=".3" d="M170 217.8l-.6.6 1 1v.2l.3-.2.3-1.3-1-.2" fill="none"/><path d="M168.7 220l.5.5 1.2-.6v-.4l-1.5-.2-.3.6" fill="#c8b100"/><path stroke="#000" stroke-width=".3" d="M168.7 220l.5.5 1.2-.6v-.4l-1.5-.2-.3.6" fill="none"/><path d="M172.4 219.3l-.3.6-1.3-.2-.2-.2v-.2l1.3-.6.6.5" fill="#c8b100"/><path stroke="#000" stroke-width=".3" d="M172.4 219.3l-.3.6-1.3-.2-.2-.2v-.2l1.3-.6.6.5" fill="none"/><path d="M167.3 220.2v.7h-1.7v-.3l1-1 .7.5" fill="#c8b100"/><path stroke="#000" stroke-width=".3" d="M167.3 220.2v.7h-1.7v-.3l1-1 .7.5" fill="none"/><path d="M170 219.7c0-.3.2-.5.5-.5s.5.2.5.5c0 .2-.2.4-.5.4s-.5 0-.5-.3" fill="#c8b100"/><path stroke="#000" stroke-width=".3" d="M170 219.7c0-.3.2-.5.5-.5s.5.2.5.5c0 .2-.2.4-.5.4s-.5 0-.5-.3z" fill="none"/><path d="M181.3 217.8l.6.6-1 1-.2.2v-.2l-.4-1.3 1-.2" fill="#c8b100"/><path stroke="#000" stroke-width=".3" d="M181.3 217.8l.6.6-1 1-.2.2v-.2l-.4-1.3 1-.2" fill="none"/><path d="M182.7 220l-.5.5-1.2-.6v-.4l1.4-.2.3.6" fill="#c8b100"/><path stroke="#000" stroke-width=".3" d="M182.7 220l-.5.5-1.2-.6v-.4l1.4-.2.3.6" fill="none"/><path d="M179 219.3l.3.6 1.3-.2.2-.2v-.2l-1.3-.6-.5.5" fill="#c8b100"/><path stroke="#000" stroke-width=".3" d="M179 219.3l.3.6 1.3-.2.2-.2v-.2l-1.3-.6-.5.5" fill="none"/><path d="M183.8 220.2v.7h1.8v-.3l-1-1-.8.5" fill="#c8b100"/><path stroke="#000" stroke-width=".3" d="M183.8 220.2v.7h1.8v-.3l-1-1-.8.5" fill="none"/><path d="M175.2 219.2c0-.2.2-.5.5-.5s.5.3.5.5c0 .3-.3.5-.5.5s-.5-.2-.5-.5" fill="#c8b100"/><path stroke="#000" stroke-width=".3" d="M175.2 219.2c0-.2.2-.5.5-.5s.5.3.5.5c0 .3-.3.5-.5.5s-.5-.2-.5-.5z" fill="none"/><path d="M180.4 219.7c0-.3.2-.5.5-.5s.3.2.3.5c0 .2-.2.4-.4.4s-.6 0-.6-.3" fill="#c8b100"/><path stroke="#000" stroke-width=".3" d="M180.4 219.7c0-.3.2-.5.5-.5s.3.2.3.5c0 .2-.2.4-.4.4s-.6 0-.6-.3z" fill="none"/><path d="M165.4 221l-.6-.7-.7-.4s.4-.3.7-.3c.2 0 .3 0 .4.2l.2-.3s.2 0 .3.3v1" fill="#c8b100"/><path stroke="#000" stroke-width=".3" d="M165.4 221l-.6-.7-.7-.4s.4-.3.7-.3c.2 0 .3 0 .4.2l.2-.3s.2 0 .3.3v1z" fill="none"/><path d="M165.4 220.8c.2-.2.4 0 .6 0 .2.2.2.4 0 .5h-.4c-.2-.2-.3-.4-.2-.6" fill="#c8b100"/><path stroke="#000" stroke-width=".3" d="M165.4 220.8c.2-.2.4 0 .6 0 .2.2.2.4 0 .5h-.4c-.2-.2-.3-.4-.2-.6z" fill="none"/><path d="M185.7 221l.7-.7.7-.4s-.2-.3-.5-.3c-.2 0-.4 0-.5.2v-.3s-.3 0-.4.3v1" fill="#c8b100"/><path stroke="#000" stroke-width=".3" d="M185.7 221l.7-.7.7-.4s-.2-.3-.5-.3c-.2 0-.4 0-.5.2v-.3s-.3 0-.4.3v1z" fill="none"/><path d="M185.7 220.8c0-.2-.3 0-.5 0s-.2.4 0 .5h.4c.2-.2.3-.4 0-.6" fill="#c8b100"/><path stroke="#000" stroke-width=".3" d="M185.7 220.8c0-.2-.3 0-.5 0s-.2.4 0 .5h.4c.2-.2.3-.4 0-.6z" fill="none"/><path d="M164.6 232.4H187v-6h-22.4v6z" fill="#c8b100"/><path stroke="#000" stroke-width=".4" d="M164.6 232.4H187v-6h-22.4v6z" fill="none"/><path d="M167 236.3h17.5c-.6-.2-1-.7-1-1.4s.4-1.2 1-1.4h-17.2-.4c.5.2 1 .8 1 1.4 0 .5-.5 1-1 1.3" fill="#c8b100"/><path stroke-linejoin="round" stroke="#000" stroke-width=".4" d="M167 236.3h17.5c-.6-.2-1-.7-1-1.4s.4-1.2 1-1.4h-17.2-.4c.5.2 1 .8 1 1.4 0 .5-.5 1-1 1.3z" fill="none"/><path d="M167.3 236.2H184c.6 0 1 .3 1 .8 0 .4-.4.8-1 .8h-16.7c-.5 0-1-.4-1-.8 0-.5.5-.8 1-.8" fill="#c8b100"/><path stroke="#000" stroke-width=".4" d="M167.3 236.2H184c.6 0 1 .3 1 .8 0 .4-.4.8-1 .8h-16.7c-.5 0-1-.4-1-.8 0-.5.5-.8 1-.8z" fill="none"/><path d="M167.3 232.4H184c.6 0 1 .3 1 .6 0 .4-.4.7-1 .7h-16.7c-.5 0-1-.3-1-.7 0-.3.5-.6 1-.6" fill="#c8b100"/><path stroke="#000" stroke-width=".4" d="M167.3 232.4H184c.6 0 1 .3 1 .6 0 .4-.4.7-1 .7h-16.7c-.5 0-1-.3-1-.7 0-.3.5-.6 1-.6z" fill="none"/><path d="M191.3 330.7c-1.6 0-3-.3-4-1-1-.4-2.3-.7-3.8-.7s-3 .3-4 .8-2.3 1-3.8 1c-1.6 0-3-.5-4-1s-2.3-.8-3.8-.8c-1.6 0-3 .3-4 .8s-2.3 1-4 1v2.3c1.7 0 3-.3 4-.8s2.4-.8 4-.8c1.4 0 2.7.3 3.7.8s2.4 1 4 1c1.5 0 3-.4 4-1 1-.5 2.3-.8 3.8-.8s2.8.3 3.8.8c1 .6 2.4 1 4 1v-2.5" fill="#005bbf"/><path stroke="#000" stroke-width=".4" d="M191.3 330.7c-1.6 0-3-.3-4-1-1-.4-2.3-.7-3.8-.7s-3 .3-4 .8-2.3 1-3.8 1c-1.6 0-3-.5-4-1s-2.3-.8-3.8-.8c-1.6 0-3 .3-4 .8s-2.3 1-4 1v2.3c1.7 0 3-.3 4-.8s2.4-.8 4-.8c1.4 0 2.7.3 3.7.8s2.4 1 4 1c1.5 0 3-.4 4-1 1-.5 2.3-.8 3.8-.8s2.8.3 3.8.8c1 .6 2.4 1 4 1v-2.5z" fill="none"/><path d="M191.3 333c-1.6 0-3-.2-4-.8-1-.5-2.3-.8-3.8-.8s-3 .3-4 .8c-1 .6-2.3 1-3.8 1-1.6 0-3-.5-4-1s-2.3-.8-3.8-.8c-1.6 0-3 .3-4 .8s-2.3 1-4 1v2.3c1.7 0 3-.3 4-1 1-.4 2.4-.7 4-.7 1.4 0 2.7.3 3.7.8s2.4 1 4 1c1.5 0 3-.4 4-1s2.3-.8 3.8-.8 2.8.3 3.8.8c1 .6 2.4 1 4 1V333" fill="#ccc"/><path stroke="#000" stroke-width=".4" d="M191.3 333c-1.6 0-3-.2-4-.8-1-.5-2.3-.8-3.8-.8s-3 .3-4 .8c-1 .6-2.3 1-3.8 1-1.6 0-3-.5-4-1s-2.3-.8-3.8-.8c-1.6 0-3 .3-4 .8s-2.3 1-4 1v2.3c1.7 0 3-.3 4-1 1-.4 2.4-.7 4-.7 1.4 0 2.7.3 3.7.8s2.4 1 4 1c1.5 0 3-.4 4-1s2.3-.8 3.8-.8 2.8.3 3.8.8c1 .6 2.4 1 4 1V333" fill="none"/><path d="M191.3 335.5c-1.6 0-3-.3-4-1-1-.4-2.3-.7-3.8-.7s-3 .3-4 .8-2.3 1-3.8 1c-1.6 0-3-.5-4-1s-2.3-.8-3.8-.8c-1.6 0-3 .3-4 .8s-2.3 1-4 1v2.3c1.7 0 3-.4 4-1 1-.5 2.4-.8 4-.8 1.4 0 2.7.3 3.7.8s2.4 1 4 1c1.5 0 3-.4 4-1 1-.5 2.3-.8 3.8-.8s2.8.3 3.8.8c1 .6 2.4 1 4 1v-2.5" fill="#005bbf"/><path stroke="#000" stroke-width=".4" d="M191.3 335.5c-1.6 0-3-.3-4-1-1-.4-2.3-.7-3.8-.7s-3 .3-4 .8-2.3 1-3.8 1c-1.6 0-3-.5-4-1s-2.3-.8-3.8-.8c-1.6 0-3 .3-4 .8s-2.3 1-4 1v2.3c1.7 0 3-.4 4-1 1-.5 2.4-.8 4-.8 1.4 0 2.7.3 3.7.8s2.4 1 4 1c1.5 0 3-.4 4-1 1-.5 2.3-.8 3.8-.8s2.8.3 3.8.8c1 .6 2.4 1 4 1v-2.5" fill="none"/><path d="M191.3 340.3c-1.6 0-3-.3-4-1-1-.4-2.3-.7-3.8-.7s-3 .3-4 1-2.3.7-3.8.7c-1.6 0-3-.4-4-1-1-.4-2.3-.7-3.8-.7-1.6 0-3 .3-4 .8-1 .6-2.3 1-4 1v-2.5c1.7 0 3-.4 4-1 1-.5 2.4-.8 4-.8 1.4 0 2.7.3 3.7.8 1 .6 2.4 1 4 1 1.5 0 3-.4 4-1 1-.5 2.3-.8 3.8-.8s2.8.3 3.8.8c1 .6 2.4 1 4 1v2.3" fill="#ccc"/><path stroke="#000" stroke-width=".4" d="M191.3 340.3c-1.6 0-3-.3-4-1-1-.4-2.3-.7-3.8-.7s-3 .3-4 1-2.3.7-3.8.7c-1.6 0-3-.4-4-1-1-.4-2.3-.7-3.8-.7-1.6 0-3 .3-4 .8-1 .6-2.3 1-4 1v-2.5c1.7 0 3-.4 4-1 1-.5 2.4-.8 4-.8 1.4 0 2.7.3 3.7.8 1 .6 2.4 1 4 1 1.5 0 3-.4 4-1 1-.5 2.3-.8 3.8-.8s2.8.3 3.8.8c1 .6 2.4 1 4 1v2.3" fill="none"/><path d="M191.3 342.7c-1.6 0-3-.3-4-.8-1-.6-2.3-1-3.8-1s-3 .4-4 1-2.3.7-3.8.7c-1.6 0-3-.3-4-1-1-.4-2.3-.7-3.8-.7-1.6 0-3 .3-4 1-1 .4-2.3.7-4 .7v-2.4c1.7 0 3-.3 4-1 1-.4 2.4-.7 4-.7 1.4 0 2.7.3 3.7.8 1 .6 2.4 1 4 1 1.5 0 3-.4 4-1s2.3-.8 3.8-.8 2.8.3 3.8 1c1 .4 2.4.7 4 .7v2.4" fill="#005bbf"/><path stroke="#000" stroke-width=".4" d="M191.3 342.7c-1.6 0-3-.3-4-.8-1-.6-2.3-1-3.8-1s-3 .4-4 1-2.3.7-3.8.7c-1.6 0-3-.3-4-1-1-.4-2.3-.7-3.8-.7-1.6 0-3 .3-4 1-1 .4-2.3.7-4 .7v-2.4c1.7 0 3-.3 4-1 1-.4 2.4-.7 4-.7 1.4 0 2.7.3 3.7.8 1 .6 2.4 1 4 1 1.5 0 3-.4 4-1s2.3-.8 3.8-.8 2.8.3 3.8 1c1 .4 2.4.7 4 .7v2.4z" fill="none"/><path d="M167 320.8v.6c0 1.5-1.2 2.6-2.8 2.6h23c-1.6 0-2.8-1-2.8-2.6v-.6H167.4h-.4" fill="#c8b100"/><path stroke-linejoin="round" stroke="#000" stroke-width=".4" d="M167 320.8v.6c0 1.5-1.2 2.6-2.8 2.6h23c-1.6 0-2.8-1-2.8-2.6v-.6H167.4h-.4z" fill="none"/><path d="M167.3 319.3H184c.6 0 1 .3 1 .7s-.4.8-1 .8h-16.7c-.5 0-1-.3-1-.8s.5-.7 1-.7" fill="#c8b100"/><path stroke="#000" stroke-width=".4" d="M167.3 319.3H184c.6 0 1 .3 1 .7s-.4.8-1 .8h-16.7c-.5 0-1-.3-1-.8s.5-.7 1-.7z" fill="none"/><path d="M164.3 330H187v-6h-22.7v6z" fill="#c8b100"/><path stroke="#000" stroke-width=".4" d="M164.3 330H187v-6h-22.7v6z" fill="none"/><path d="M162.5 298.6c-2.3 1.3-3.8 2.7-3.6 3.3 0 .5.8 1 1.8 1.7 1.6 1 2.6 3 1.8 4 1.4-1 2.2-2.6 2.2-4.4 0-2-1-3.6-2.3-4.7" fill="#ad1519"/><path stroke="#000" stroke-width=".4" d="M162.5 298.6c-2.3 1.3-3.8 2.7-3.6 3.3 0 .5.8 1 1.8 1.7 1.6 1 2.6 3 1.8 4 1.4-1 2.2-2.6 2.2-4.4 0-2-1-3.6-2.3-4.7z" fill="none"/><path d="M167.6 318.3h16.2v-79.6h-16.3v79.6z" fill="#ccc"/><path stroke="#000" stroke-width=".4" d="M179 238.8v79.5m2-79.5v79.5M167.6 318.3h16.2v-79.6h-16.3v79.6z" fill="none"/><path d="M200.4 268.5c-3.5-1.5-9.6-2.6-16.5-2.8-2.5 0-5 .2-8 .7-9.6 1.6-17 5.5-16.4 8.7v.3l-3.7-8.5c-.7-3.5 7.5-7.8 18.3-9.6 3.4-.6 6.7-.8 9.5-.8 7 0 13 1 16.6 2.3v9.8" fill="#ad1519"/><path stroke-linejoin="round" stroke="#000" stroke-width=".4" d="M200.4 268.5c-3.5-1.5-9.6-2.6-16.5-2.8-2.5 0-5 .2-8 .7-9.6 1.6-17 5.5-16.4 8.7v.3l-3.7-8.5c-.7-3.5 7.5-7.8 18.3-9.6 3.4-.6 6.7-.8 9.5-.8 7 0 13 1 16.6 2.3v9.8" fill="none"/><path d="M167.5 278.5c-4.5-.3-7.6-1.6-8-3.4-.2-1.4 1.3-3 4-4.6 1.3 0 2.6.3 4 .3v7.8" fill="#ad1519"/><path stroke="#000" stroke-width=".4" d="M167.5 278.5c-4.5-.3-7.6-1.6-8-3.4-.2-1.4 1.3-3 4-4.6 1.3 0 2.6.3 4 .3v7.8" fill="none"/><path d="M183.8 272.4c3 .4 5 1 6 2 .6 1.2-2 3.4-6 5.8v-7.8" fill="#ad1519"/><path stroke="#000" stroke-width=".4" d="M183.8 272.4c3 .4 5 1 6 2 .6 1.2-2 3.4-6 5.8v-7.8" fill="none"/><path d="M157.4 293.8c-.4-1.3 4-3.8 10.2-6 2.8-1 5.2-2.2 8-3.5 8.7-3.8 15-8.2 14.3-9.8h-.2c.5.3 1.2 8 1.2 8 .8 1.6-5 6-13 9.7-2.5 1.2-8 3.2-10.4 4-4.6 1.7-9 4.6-8.7 5.7l-1.6-8.2" fill="#ad1519"/><path stroke-linejoin="round" stroke="#000" stroke-width=".4" d="M157.4 293.8c-.4-1.3 4-3.8 10.2-6 2.8-1 5.2-2.2 8-3.5 8.7-3.8 15-8.2 14.3-9.8h-.2c.5.3 1.2 8 1.2 8 .8 1.6-5 6-13 9.7-2.5 1.2-8 3.2-10.4 4-4.6 1.7-9 4.6-8.7 5.7l-1.6-8.2z" fill="none"/><path d="M166.4 264.6c2-.7 3.3-1.5 2.7-3-.3-1-1.4-1.3-3-.7l-2.6 1 2.4 6 .8-.4 1-.3-1.2-2.6zm-1.2-3h.7c.5-.3 1 0 1.4.7.2.5.2 1-.5 1.5l-.8.4-1-2.5M172.8 259.2l-1 .2c-.2 0-.5 0-.8.2l1.4 6.2 4.4-.8v-.4c0-.2 0-.3-.2-.4l-2.6.6-1.2-5.6M181.6 264.6c.8-2.3 1.8-4.4 2.8-6.6h-1.1c-.5 1.6-1.2 3.2-2 4.8l-2.3-4.5h-1c-.4.2-.7 0-1 .2l3.6 6.2h1.1M190.7 259.8l.5-1c-.2 0-1-.4-1.8-.5-1.8-.2-2.8.6-3 1.7-.2 2.2 3.4 2 3.2 3.5 0 .7-.8 1-1.5 1-.7-.2-1.3-.7-1.4-1.3h-.2c0 .4-.3.7-.5 1 .4.5 1 .6 1.8.7 1.8 0 3.2-.6 3.3-1.8.3-2.2-3.3-2.3-3-3.6 0-.5.3-1 1.3-.8.6 0 1 .5 1.2 1h.2" fill="#c8b100"/><path d="M325 220.4s-1 .8-1.4 1c-.6 0-1.2-.6-1.2-.6s-.5.5-1 .7c-.7 0-1.5-.7-1.5-.7s-.7.8-1.2 1c-.5.2-1-.3-1-.3s-.4.4-.8.7h-.5l-.6-.5-.7-.7-.7-.2-.3-1v-.7c-.2-.5.8-1.3 2.3-1.6.8-.2 1.5-.2 2 0 .6-.5 1.8-.8 3.2-.8 1.3 0 2.4.2 3 .7.7-.5 1.8-.7 3-.7 1.5 0 2.7.3 3.3.8.6-.2 1.3-.2 2 0 1.6.3 2.6 1 2.4 1.7v.7l-.4 1-.6.3-.7.7-.5.4s-.3.2-.5.2l-.7-.7s-.6.5-1 .3c-.6-.2-1.2-1-1.2-1s-.8.8-1.4.7c-.6-.2-1-.7-1-.7s-.7.6-1.3.5c-.4 0-1-1-1-1" fill="#ad1519"/><path stroke="#000" stroke-width=".3" d="M325 220.4s-1 .8-1.4 1c-.6 0-1.2-.6-1.2-.6s-.5.5-1 .7c-.7 0-1.5-.7-1.5-.7s-.7.8-1.2 1c-.5.2-1-.3-1-.3s-.4.4-.8.7h-.5l-.6-.5-.7-.7-.7-.2-.3-1v-.7c-.2-.5.8-1.3 2.3-1.6.8-.2 1.5-.2 2 0 .6-.5 1.8-.8 3.2-.8 1.3 0 2.4.2 3 .7.7-.5 1.8-.7 3-.7 1.5 0 2.7.3 3.3.8.6-.2 1.3-.2 2 0 1.6.3 2.6 1 2.4 1.7v.7l-.4 1-.6.3-.7.7-.5.4s-.3.2-.5.2l-.7-.7s-.6.5-1 .3c-.6-.2-1.2-1-1.2-1s-.8.8-1.4.7c-.6-.2-1-.7-1-.7s-.7.6-1.3.5c-.4 0-1-1-1-1z" fill="none"/><path d="M323.4 216.2c0-1 .7-2 1.4-2s1.4 1 1.4 2-.6 2-1.4 2-1.4-1-1.4-2" fill="#c8b100"/><path stroke="#000" stroke-width=".3" d="M323.4 216.2c0-1 .7-2 1.4-2s1.4 1 1.4 2-.6 2-1.4 2-1.4-1-1.4-2z" fill="none"/><path d="M324.2 216.2c0-1 .3-1.8.7-1.8s.5.8.5 1.8-.3 1.8-.6 1.8-.8-.8-.8-1.8" fill="#c8b100"/><path stroke="#000" stroke-width=".3" d="M324.2 216.2c0-1 .3-1.8.7-1.8s.5.8.5 1.8-.3 1.8-.6 1.8-.8-.8-.8-1.8z" fill="none"/><path d="M317.8 224.3l-.6-1c2-.7 4.6-1 7.6-1s5.8.3 7.7 1l-.5.8-.4 1c-1.7-.7-4-1-6.8-1s-5.4.4-6.8 1c0 0 0-.4-.3-.7" fill="#c8b100"/><path stroke="#000" stroke-width=".3" d="M317.8 224.3l-.6-1c2-.7 4.6-1 7.6-1s5.8.3 7.7 1l-.5.8-.4 1c-1.7-.7-4-1-6.8-1s-5.4.4-6.8 1c0 0 0-.4-.3-.7" fill="none"/><path d="M324.8 226.7c2.5 0 5-.3 6-.6.8 0 1.2-.4 1-.7 0-.2 0-.3-.3-.4-1.4-.6-4-1-6.7-1s-5.2.4-6.7 1c0 0-.2 0-.2.3s.3.6 1 .8c1 .3 3.6.7 6 .7" fill="#c8b100"/><path stroke="#000" stroke-width=".3" d="M324.8 226.7c2.5 0 5-.3 6-.6.8 0 1.2-.4 1-.7 0-.2 0-.3-.3-.4-1.4-.6-4-1-6.7-1s-5.2.4-6.7 1c0 0-.2 0-.2.3s.3.6 1 .8c1 .3 3.6.7 6 .7z" fill="none"/><path d="M330.7 217c0-.2.2-.4.5-.4.2 0 .4.2.4.5s-.2.5-.4.5c-.3 0-.5-.2-.5-.4" fill="#fff"/><path stroke="#000" stroke-width=".2" d="M330.7 217c0-.2.2-.4.5-.4.2 0 .4.2.4.5s-.2.5-.4.5c-.3 0-.5-.2-.5-.4zM330.5 215.6c0-.3.2-.4.4-.4s.4 0 .4.4c0 .2-.2.4-.5.4s-.5-.2-.5-.4zm-1-1c0-.2 0-.4.3-.4s.5.2.5.4-.3.5-.5.5-.5 0-.5-.4zm-1.6-.4c0-.2 0-.4.4-.4s.4.2.4.4-.2.4-.4.4-.5-.2-.5-.4zm-1.5 0c0-.2.2-.4.4-.4s.4.2.4.4-.2.5-.5.5-.5-.2-.5-.5z" fill="none"/><path stroke-width=".3" stroke="#000" stroke-linecap="round" d="M335.2 220l.2-1c0-1.7-1.2-3-2.8-3-.5 0-1 .2-1.4.4" fill="none"/><path stroke="#000" stroke-width=".3" d="M330.2 218l.2-1c0-1-1.2-2-2.6-2-.6 0-1.2.2-1.7.5" fill="none"/><path stroke="#000" stroke-width=".2" d="M335.6 218.7c0-.3.2-.4.5-.4s.5 0 .5.4-.2.4-.5.4-.4 0-.4-.3zm-.2-1.6s.2-.3.5-.3.3.2.3.4-.2.5-.4.5-.6-.2-.6-.4zm-1-1c0-.3.2-.5.5-.5s.3.2.3.4c0 0-.2.3-.4.3s-.6-.2-.6-.4zm-1.3-.7c0-.3.3-.5.5-.5s.5.2.5.5c0 .2-.2.4-.5.4s-.5-.2-.5-.4zm-1.4 0c0-.2.2-.4.5-.4s.5 0 .5.3c0 .2-.2.4-.4.4s-.4-.2-.4-.4z" fill="none"/><path d="M332.6 222l-.5-.4s-.5.3-1.2.2c-.7 0-1-1-1-1s-.7.7-1.4.6c-.6 0-1-.6-1-.6s-.8.5-1.4.5c-.6 0-1.2-.8-1.2-.8s-.6.8-1.2.8c-.7 0-1.2-.5-1.2-.5s-.3.6-1 .7-1.5-.6-1.5-.6-.6.6-1 .8c-.7.2-1.4-.3-1.4-.3l-.2.5h-.3l.3.6c2-.5 4.6-1 7.5-1s5.7.5 7.7 1l.2-.5" fill="#c8b100"/><path stroke="#000" stroke-width=".3" d="M332.6 222l-.5-.4s-.5.3-1.2.2c-.7 0-1-1-1-1s-.7.7-1.4.6c-.6 0-1-.6-1-.6s-.8.5-1.4.5c-.6 0-1.2-.8-1.2-.8s-.6.8-1.2.8c-.7 0-1.2-.5-1.2-.5s-.3.6-1 .7-1.5-.6-1.5-.6-.6.6-1 .8c-.7.2-1.4-.3-1.4-.3l-.2.5h-.3l.3.6c2-.5 4.6-1 7.5-1s5.7.5 7.7 1l.2-.5z" fill="none"/><path d="M318 217c0-.2.2-.4.4-.4s.5.2.5.5-.3.5-.6.5-.4-.2-.4-.4" fill="#fff"/><path stroke="#000" stroke-width=".2" d="M318 217c0-.2.2-.4.4-.4s.5.2.5.5-.3.5-.6.5-.4-.2-.4-.4zM318.2 215.6c0-.3.2-.4.5-.4s.4 0 .4.4c0 .2 0 .4-.3.4s-.5-.2-.5-.4zm1.2-1c0-.2.2-.4.4-.4s.5.2.5.4-.2.5-.5.5-.4 0-.4-.4zm1.4-.4c0-.2.2-.4.4-.4s.5.2.5.4-.2.4-.5.4-.4-.2-.4-.4zm1.4 0c0-.2.2-.4.5-.4s.4.2.4.4 0 .5-.3.5-.5-.2-.5-.5z" fill="none"/><path stroke-width=".3" stroke="#000" stroke-linecap="round" d="M314.4 220l-.2-1c0-1.7 1.3-3 2.8-3 .5 0 1 .2 1.4.4" fill="none"/><path stroke="#000" stroke-width=".3" d="M319.5 218c-.2-.3-.3-.6-.3-1 0-1 1.2-2 2.6-2 .6 0 1.2.2 1.7.5" fill="none"/><path stroke="#000" stroke-width=".2" d="M313 218.7c0-.3.3-.4.6-.4.2 0 .4 0 .4.4s-.2.4-.4.4c-.3 0-.5 0-.5-.3zm.3-1.6s.2-.3.4-.3.5.2.5.4-.2.5-.5.5-.4-.2-.4-.4zm1-1c0-.3.2-.5.5-.5.2 0 .4.2.4.4 0 0-.2.3-.4.3-.3 0-.5-.2-.5-.4zm1.4-.7c0-.3.2-.5.4-.5s.6.2.6.5c0 .2-.2.4-.5.4s-.3-.2-.3-.4zm1.4 0c0-.2.3-.4.6-.4s.4 0 .4.3c0 .2-.2.4-.5.4s-.4-.2-.4-.4z" fill="none"/><path d="M325 219.5v.4c0 .5.6 1 1.2 1 .5 0 1-.3 1-.8l.2-.3v.3c0 .5.6 1 1.2 1s1-.6 1-1.2l.4-.4.2.5v.5c0 .6.4 1 1 1 .3 0 .7 0 .8-.4l.3-.2v.4c0 .3 0 .6.5.7 0 0 .4 0 1-.5l.7-.8v.5s-.5.8-1 1c-.2.2-.6.4-1 .3-.2 0-.5-.3-.6-.6h-1c-.5 0-1-.2-1.3-.7-.3.3-.7.5-1.2.5s-1-.3-1.2-.6c-.3.3-.7.4-1 .4-.7 0-1.2-.3-1.5-.7-.2.3-.7.6-1.3.6-.4 0-.8 0-1-.4-.4.3-.8.6-1.3.6s-1-.2-1.2-.5c-.2.5-.8.8-1.4.8h-.8c0 .2-.4.5-.7.5-.2 0-.6 0-.8-.2-.5-.3-1-1-1-1v-.6l.8.8 1 .4c.3-.2.4-.5.4-.8v-.4l.3.3c0 .4.5.5.8.5.6 0 1-.4 1-1v-.4l.2-.4.3.4c0 .7.5 1.2 1 1.2.7 0 1.2-.4 1.2-1v-.3l.2.2c.2.5.6.8 1 .8.7 0 1.2-.5 1.2-1v-.5h.3" fill="#c8b100"/><path stroke="#000" stroke-width=".3" d="M325 219.5v.4c0 .5.6 1 1.2 1 .5 0 1-.3 1-.8l.2-.3v.3c0 .5.6 1 1.2 1s1-.6 1-1.2l.4-.4.2.5v.5c0 .6.4 1 1 1 .3 0 .7 0 .8-.4l.3-.2v.4c0 .3 0 .6.5.7 0 0 .4 0 1-.5l.7-.8v.5s-.5.8-1 1c-.2.2-.6.4-1 .3-.2 0-.5-.3-.6-.6h-1c-.5 0-1-.2-1.3-.7-.3.3-.7.5-1.2.5s-1-.3-1.2-.6c-.3.3-.7.4-1 .4-.7 0-1.2-.3-1.5-.7-.2.3-.7.6-1.3.6-.4 0-.8 0-1-.4-.4.3-.8.6-1.3.6s-1-.2-1.2-.5c-.2.5-.8.8-1.4.8h-.8c0 .2-.4.5-.7.5-.2 0-.6 0-.8-.2-.5-.3-1-1-1-1v-.6l.8.8 1 .4c.3-.2.4-.5.4-.8v-.4l.3.3c0 .4.5.5.8.5.6 0 1-.4 1-1v-.4l.2-.4.3.4c0 .7.5 1.2 1 1.2.7 0 1.2-.4 1.2-1v-.3l.2.2c.2.5.6.8 1 .8.7 0 1.2-.5 1.2-1v-.5h.3z" fill="none"/><path d="M324.8 222.2c-3 0-5.7.4-7.6 1-.2 0-.3 0-.4-.2 0 0 0-.3.2-.3 2-.6 4.7-1 7.8-1 3 0 6 .4 8 1v.3l-.3.2c-2-.6-4.7-1-7.7-1" fill="#c8b100"/><path stroke="#000" stroke-width=".3" d="M324.8 222.2c-3 0-5.7.4-7.6 1-.2 0-.3 0-.4-.2 0 0 0-.3.2-.3 2-.6 4.7-1 7.8-1 3 0 6 .4 8 1v.3l-.3.2c-2-.6-4.7-1-7.7-1z" fill="none"/><path d="M322 223.3c0-.2 0-.4.4-.4s.4 0 .4.3c0 .2-.2.4-.4.4s-.5-.2-.5-.4" fill="#fff"/><path stroke="#000" stroke-width=".3" d="M322 223.3c0-.2 0-.4.4-.4s.4 0 .4.3c0 .2-.2.4-.4.4s-.5-.2-.5-.4z" fill="none"/><path d="M325 223.5h-1c-.3 0-.4-.2-.4-.3s0-.3.3-.3h2s.2 0 .2.2-.2.3-.3.3h-1" fill="#ad1519"/><path stroke="#000" stroke-width=".3" d="M325 223.5h-1c-.3 0-.4-.2-.4-.3s0-.3.3-.3h2s.2 0 .2.2-.2.3-.3.3h-1" fill="none"/><path d="M320 223.8H319s0-.5.2-.5h.7l.6-.2c.2 0 .4.2.4.4 0 0 0 .3-.3.3h-.7" fill="#058e6e"/><path stroke="#000" stroke-width=".3" d="M320 223.8H319s0-.5.2-.5h.7l.6-.2c.2 0 .4.2.4.4 0 0 0 .3-.3.3h-.7" fill="none"/><path d="M317.2 224.3l.3-.5h.7l-.4.7-.6-.2" fill="#ad1519"/><path stroke="#000" stroke-width=".3" d="M317.2 224.3l.3-.5h.7l-.4.7-.6-.2" fill="none"/><path d="M327 223.3c0-.2 0-.4.3-.4s.5 0 .5.3c0 .2-.2.4-.5.4s-.4-.2-.4-.4" fill="#fff"/><path stroke="#000" stroke-width=".3" d="M327 223.3c0-.2 0-.4.3-.4s.5 0 .5.3c0 .2-.2.4-.5.4s-.4-.2-.4-.4z" fill="none"/><path d="M329.7 223.8h1s0-.5-.2-.5h-.7l-.7-.2s-.3.2-.3.4c0 0 0 .3.3.3h.7" fill="#058e6e"/><path stroke="#000" stroke-width=".3" d="M329.7 223.8h1s0-.5-.2-.5h-.7l-.7-.2s-.3.2-.3.4c0 0 0 .3.3.3h.7" fill="none"/><path d="M332.4 224.3l-.2-.5h-.7l.3.7.6-.2" fill="#ad1519"/><path stroke="#000" stroke-width=".3" d="M332.4 224.3l-.2-.5h-.7l.3.7.6-.2" fill="none"/><path d="M324.8 226.2c-2.4 0-4.6-.3-6.3-.7 1.7-.4 4-.7 6.3-.7 2.5 0 4.7.3 6.3.7-1.5.4-3.7.7-6.2.7" fill="#ad1519"/><path stroke-linejoin="round" stroke="#000" stroke-width=".3" d="M324.8 226.2c-2.4 0-4.6-.3-6.3-.7 1.7-.4 4-.7 6.3-.7 2.5 0 4.7.3 6.3.7-1.5.4-3.7.7-6.2.7z" fill="none"/><path d="M332.5 221v-.5c-.3 0-.4 0-.5.2v.5c.3 0 .4 0 .5-.3" fill="#c8b100"/><path stroke="#000" stroke-width=".3" d="M332.5 221v-.5c-.3 0-.4 0-.5.2v.5c.3 0 .4 0 .5-.3z" fill="none"/><path d="M327.7 220c0-.3 0-.4-.2-.4s-.3 0-.3.3c0 0 0 .3.2.3l.3-.4" fill="#c8b100"/><path stroke="#000" stroke-width=".3" d="M327.7 220c0-.3 0-.4-.2-.4s-.3 0-.3.3c0 0 0 .3.2.3l.3-.4z" fill="none"/><path d="M322 220c0-.3 0-.4.3-.4 0 0 .2 0 .2.3 0 0 0 .3-.2.3l-.3-.4" fill="#c8b100"/><path stroke="#000" stroke-width=".3" d="M322 220c0-.3 0-.4.3-.4 0 0 .2 0 .2.3 0 0 0 .3-.2.3l-.3-.4z" fill="none"/><path d="M317.2 221v-.5c.3 0 .4 0 .5.2v.5c-.3 0-.4 0-.5-.3" fill="#c8b100"/><path stroke="#000" stroke-width=".3" d="M317.2 221v-.5c.3 0 .4 0 .5.2v.5c-.3 0-.4 0-.5-.3z" fill="none"/><path d="M324.8 217.2l-.8.5.6 1.4.2.2h.2l.7-1.5-1-.5" fill="#c8b100"/><path stroke="#000" stroke-width=".3" d="M324.8 217.2l-.8.5.6 1.4.2.2h.2l.7-1.5-1-.5" fill="none"/><path d="M323 219.2l.3.6 1.4-.4v-.4l-1.4-.4-.4.6" fill="#c8b100"/><path stroke="#000" stroke-width=".3" d="M323 219.2l.3.6 1.4-.4v-.4l-1.4-.4-.4.6" fill="none"/><path d="M326.7 219.2l-.4.6-1.3-.4v-.4l1.3-.4.4.6" fill="#c8b100"/><path stroke="#000" stroke-width=".3" d="M326.7 219.2l-.4.6-1.3-.4v-.4l1.3-.4.4.6" fill="none"/><path d="M319.3 217.8l-.7.6.8 1 .3.2v-.2l.4-1.3-.7-.2" fill="#c8b100"/><path stroke="#000" stroke-width=".3" d="M319.3 217.8l-.7.6.8 1 .3.2v-.2l.4-1.3-.7-.2" fill="none"/><path d="M317.8 220l.5.5 1.3-.6v-.4l-1.5-.2-.2.6" fill="#c8b100"/><path stroke="#000" stroke-width=".3" d="M317.8 220l.5.5 1.3-.6v-.4l-1.5-.2-.2.6" fill="none"/><path d="M321.5 219.3l-.2.6-1.4-.2-.3-.2v-.2l1.3-.6.5.5" fill="#c8b100"/><path stroke="#000" stroke-width=".3" d="M321.5 219.3l-.2.6-1.4-.2-.3-.2v-.2l1.3-.6.5.5" fill="none"/><path d="M316.5 220.2v.7h-1.7v-.3l1-1 .7.5" fill="#c8b100"/><path stroke="#000" stroke-width=".3" d="M316.5 220.2v.7h-1.7v-.3l1-1 .7.5" fill="none"/><path d="M319.2 219.7c0-.3.2-.5.5-.5s.5.2.5.5c0 .2-.2.4-.5.4s-.5 0-.5-.3" fill="#c8b100"/><path stroke="#000" stroke-width=".3" d="M319.2 219.7c0-.3.2-.5.5-.5s.5.2.5.5c0 .2-.2.4-.5.4s-.5 0-.5-.3z" fill="none"/><path d="M330.4 217.8l.7.6-.7 1-.3.2-.2-.2-.3-1.3 1-.2" fill="#c8b100"/><path stroke="#000" stroke-width=".3" d="M330.4 217.8l.7.6-.7 1-.3.2-.2-.2-.3-1.3 1-.2" fill="none"/><path d="M332 220l-.7.5-1.2-.6v-.4h.2l1.4-.2.2.6" fill="#c8b100"/><path stroke="#000" stroke-width=".3" d="M332 220l-.7.5-1.2-.6v-.4h.2l1.4-.2.2.6" fill="none"/><path d="M328.2 219.3l.2.6 1.4-.2.2-.2v-.2l-1.3-.6-.5.5" fill="#c8b100"/><path stroke="#000" stroke-width=".3" d="M328.2 219.3l.2.6 1.4-.2.2-.2v-.2l-1.3-.6-.5.5" fill="none"/><path d="M333 220.2v.7h1.7v-.3l-1-1-.7.5" fill="#c8b100"/><path stroke="#000" stroke-width=".3" d="M333 220.2v.7h1.7v-.3l-1-1-.7.5" fill="none"/><path d="M324.4 219.2c0-.2.2-.5.4-.5s.5.3.5.5c0 .3-.2.5-.5.5s-.4-.2-.4-.5" fill="#c8b100"/><path stroke="#000" stroke-width=".3" d="M324.4 219.2c0-.2.2-.5.4-.5s.5.3.5.5c0 .3-.2.5-.5.5s-.4-.2-.4-.5z" fill="none"/><path d="M329.5 219.7c0-.3.2-.5.5-.5s.5.2.5.5c0 .2-.2.4-.5.4s-.5 0-.5-.3" fill="#c8b100"/><path stroke="#000" stroke-width=".3" d="M329.5 219.7c0-.3.2-.5.5-.5s.5.2.5.5c0 .2-.2.4-.5.4s-.5 0-.5-.3z" fill="none"/><path d="M324 214c0-.5.3-1 .8-1s1 .5 1 1c0 .4-.4.8-1 .8s-1-.4-1-1" fill="#c8b100"/><path d="M325.5 213.6v.6H324v-.6h.5v-1.3h-.6v-.5h.5v-.6h.7v.6h.6v.5h-.6v1.3h.3" fill="#c8b100"/><path stroke="#000" stroke-width=".3" d="M325.5 213.6v.6H324v-.6h.5v-1.3h-.6v-.5h.5v-.6h.7v.6h.6v.5h-.6v1.3h.3z" fill="none"/><path d="M326 213.6v.6h-2.4v-.6h1v-1.3h-.7v-.5h.5v-.6h.7v.6h.6v.5h-.6v1.3h1" fill="#c8b100"/><path stroke="#000" stroke-width=".3" d="M325 213c.5.2.8.6.8 1s-.4.8-1 .8c-.5 0-1-.4-1-.8s.4-.8.8-1" fill="none"/><path d="M314.6 221l-.7-.7-.7-.4s.2-.3.5-.3c.2 0 .4 0 .5.2v-.3s.3 0 .4.3v1" fill="#c8b100"/><path stroke="#000" stroke-width=".3" d="M314.6 221l-.7-.7-.7-.4s.2-.3.5-.3c.2 0 .4 0 .5.2v-.3s.3 0 .4.3v1z" fill="none"/><path d="M314.6 220.8c0-.2.4 0 .5 0s.4.4.3.5h-.6c0-.2-.2-.4 0-.6" fill="#c8b100"/><path stroke="#000" stroke-width=".3" d="M314.6 220.8c0-.2.4 0 .5 0s.4.4.3.5h-.6c0-.2-.2-.4 0-.6z" fill="none"/><path d="M335 221l.5-.7.7-.4s-.3-.3-.6-.3c0 0-.3 0-.4.2v-.3s-.3 0-.4.3v1" fill="#c8b100"/><path stroke="#000" stroke-width=".3" d="M335 221l.5-.7.7-.4s-.3-.3-.6-.3c0 0-.3 0-.4.2v-.3s-.3 0-.4.3v1z" fill="none"/><path d="M335 220.8c-.2-.2-.4 0-.6 0s-.3.4 0 .5h.4c.2-.2.2-.4 0-.6" fill="#c8b100"/><path stroke="#000" stroke-width=".3" d="M335 220.8c-.2-.2-.4 0-.6 0s-.3.4 0 .5h.4c.2-.2.2-.4 0-.6z" fill="none"/><path d="M313.7 232.4H336v-6h-22.3v6z" fill="#c8b100"/><path stroke="#000" stroke-width=".4" d="M313.7 232.4H336v-6h-22.3v6z" fill="none"/><path d="M333.7 236.3H316c.7-.2 1-.7 1-1.4s-.4-1.2-1-1.4h17.7c-.7.2-1 .8-1 1.4 0 .5.4 1 1 1.3" fill="#c8b100"/><path stroke-linejoin="round" stroke="#000" stroke-width=".4" d="M333.7 236.3H316c.7-.2 1-.7 1-1.4s-.4-1.2-1-1.4h17.7c-.7.2-1 .8-1 1.4 0 .5.4 1 1 1.3z" fill="none"/><path d="M316.6 236.2h16.6c.6 0 1 .3 1 .8 0 .4-.4.8-1 .8h-16.6c-.6 0-1-.4-1-.8 0-.5.4-.8 1-.8" fill="#c8b100"/><path stroke="#000" stroke-width=".4" d="M316.6 236.2h16.6c.6 0 1 .3 1 .8 0 .4-.4.8-1 .8h-16.6c-.6 0-1-.4-1-.8 0-.5.4-.8 1-.8z" fill="none"/><path d="M316.6 232.4h16.6c.6 0 1 .3 1 .6 0 .4-.4.7-1 .7h-16.6c-.6 0-1-.3-1-.7 0-.3.4-.6 1-.6" fill="#c8b100"/><path stroke="#000" stroke-width=".4" d="M316.6 232.4h16.6c.6 0 1 .3 1 .6 0 .4-.4.7-1 .7h-16.6c-.6 0-1-.3-1-.7 0-.3.4-.6 1-.6z" fill="none"/><path d="M309.3 330.7c1.5 0 3-.3 4-1 1-.4 2.3-.7 3.8-.7 1.6 0 3 .3 4 .8s2.4 1 4 1c1.5 0 2.8-.5 4-1 1-.5 2.2-.8 3.6-.8 1.6 0 3 .3 4 .8s2.3 1 4 1v2.3c-1.7 0-3-.3-4-.8s-2.4-.8-4-.8c-1.4 0-2.7.3-3.7.8-1.2.5-2.5 1-4 1-1.6 0-3-.4-4-1-1-.5-2.4-.8-4-.8-1.4 0-2.8.3-3.8.8-1 .6-2.3 1-4 1v-2.5" fill="#005bbf"/><path stroke="#000" stroke-width=".4" d="M309.3 330.7c1.5 0 3-.3 4-1 1-.4 2.3-.7 3.8-.7 1.6 0 3 .3 4 .8s2.4 1 4 1c1.5 0 2.8-.5 4-1 1-.5 2.2-.8 3.6-.8 1.6 0 3 .3 4 .8s2.3 1 4 1v2.3c-1.7 0-3-.3-4-.8s-2.4-.8-4-.8c-1.4 0-2.7.3-3.7.8-1.2.5-2.5 1-4 1-1.6 0-3-.4-4-1-1-.5-2.4-.8-4-.8-1.4 0-2.8.3-3.8.8-1 .6-2.3 1-4 1v-2.5z" fill="none"/><path d="M309.3 333c1.5 0 3-.2 4-.8 1-.5 2.3-.8 3.8-.8 1.6 0 3 .3 4 .8 1 .6 2.4 1 4 1 1.5 0 2.8-.5 4-1 1-.5 2.2-.8 3.6-.8 1.6 0 3 .3 4 .8s2.3 1 4 1v2.3c-1.7 0-3-.3-4-1-1-.4-2.4-.7-4-.7-1.4 0-2.7.3-3.7.8-1.2.5-2.5 1-4 1-1.6 0-3-.4-4-1s-2.4-.8-4-.8c-1.4 0-2.8.3-3.8.8-1 .6-2.3 1-4 1V333" fill="#ccc"/><path stroke="#000" stroke-width=".4" d="M309.3 333c1.5 0 3-.2 4-.8 1-.5 2.3-.8 3.8-.8 1.6 0 3 .3 4 .8 1 .6 2.4 1 4 1 1.5 0 2.8-.5 4-1 1-.5 2.2-.8 3.6-.8 1.6 0 3 .3 4 .8s2.3 1 4 1v2.3c-1.7 0-3-.3-4-1-1-.4-2.4-.7-4-.7-1.4 0-2.7.3-3.7.8-1.2.5-2.5 1-4 1-1.6 0-3-.4-4-1s-2.4-.8-4-.8c-1.4 0-2.8.3-3.8.8-1 .6-2.3 1-4 1V333" fill="none"/><path d="M309.3 335.5c1.5 0 3-.3 4-1 1-.4 2.3-.7 3.8-.7 1.6 0 3 .3 4 .8 1 .6 2.4 1 4 1 1.5 0 2.8-.5 4-1 1-.5 2.2-.8 3.6-.8 1.6 0 3 .3 4 .8s2.3 1 4 1v2.3c-1.7 0-3-.4-4-1-1-.5-2.4-.8-4-.8-1.4 0-2.7.3-3.7.8-1.2.5-2.5 1-4 1-1.6 0-3-.4-4-1-1-.5-2.4-.8-4-.8-1.4 0-2.8.3-3.8.8-1 .6-2.3 1-4 1v-2.5" fill="#005bbf"/><path stroke="#000" stroke-width=".4" d="M309.3 335.5c1.5 0 3-.3 4-1 1-.4 2.3-.7 3.8-.7 1.6 0 3 .3 4 .8 1 .6 2.4 1 4 1 1.5 0 2.8-.5 4-1 1-.5 2.2-.8 3.6-.8 1.6 0 3 .3 4 .8s2.3 1 4 1v2.3c-1.7 0-3-.4-4-1-1-.5-2.4-.8-4-.8-1.4 0-2.7.3-3.7.8-1.2.5-2.5 1-4 1-1.6 0-3-.4-4-1-1-.5-2.4-.8-4-.8-1.4 0-2.8.3-3.8.8-1 .6-2.3 1-4 1v-2.5" fill="none"/><path d="M309.3 340.3c1.6 0 3-.3 4-1 1-.4 2.3-.7 3.8-.7 1.6 0 3 .3 4 1 1 .4 2.4.7 4 .7 1.5 0 2.8-.4 4-1 1-.4 2.2-.7 3.6-.7 1.6 0 3 .3 4 .8 1 .6 2.3 1 4 1v-2.5c-1.7 0-3-.4-4-1-1-.5-2.4-.8-4-.8-1.4 0-2.7.3-3.7.8-1.2.6-2.5 1-4 1-1.6 0-3-.4-4-1-1-.5-2.4-.8-4-.8-1.4 0-2.8.3-3.8.8-1 .6-2.4 1-4 1v2.3" fill="#ccc"/><path stroke="#000" stroke-width=".4" d="M309.3 340.3c1.6 0 3-.3 4-1 1-.4 2.3-.7 3.8-.7 1.6 0 3 .3 4 1 1 .4 2.4.7 4 .7 1.5 0 2.8-.4 4-1 1-.4 2.2-.7 3.6-.7 1.6 0 3 .3 4 .8 1 .6 2.3 1 4 1v-2.5c-1.7 0-3-.4-4-1-1-.5-2.4-.8-4-.8-1.4 0-2.7.3-3.7.8-1.2.6-2.5 1-4 1-1.6 0-3-.4-4-1-1-.5-2.4-.8-4-.8-1.4 0-2.8.3-3.8.8-1 .6-2.4 1-4 1v2.3" fill="none"/><path d="M309.3 342.7c1.6 0 3-.3 4-.8 1-.6 2.3-1 3.8-1 1.6 0 3 .4 4 1 1 .4 2.4.7 4 .7 1.5 0 2.8-.3 4-1 1-.4 2.2-.7 3.6-.7 1.6 0 3 .3 4 1 1 .4 2.3.7 4 .7v-2.4c-1.7 0-3-.3-4-1-1-.4-2.4-.7-4-.7-1.4 0-2.7.3-3.7.8-1.2.6-2.5 1-4 1-1.6 0-3-.4-4-1s-2.4-.8-4-.8c-1.4 0-2.8.3-3.8 1-1 .4-2.4.7-4 .7v2.4" fill="#005bbf"/><path stroke="#000" stroke-width=".4" d="M309.3 342.7c1.6 0 3-.3 4-.8 1-.6 2.3-1 3.8-1 1.6 0 3 .4 4 1 1 .4 2.4.7 4 .7 1.5 0 2.8-.3 4-1 1-.4 2.2-.7 3.6-.7 1.6 0 3 .3 4 1 1 .4 2.3.7 4 .7v-2.4c-1.7 0-3-.3-4-1-1-.4-2.4-.7-4-.7-1.4 0-2.7.3-3.7.8-1.2.6-2.5 1-4 1-1.6 0-3-.4-4-1s-2.4-.8-4-.8c-1.4 0-2.8.3-3.8 1-1 .4-2.4.7-4 .7v2.4z" fill="none"/><path d="M333.7 320.8l-.2.6c0 1.5 1.3 2.6 2.8 2.6h-23c1.7 0 3-1 3-2.6 0-.2 0-.4-.2-.6H333.8" fill="#c8b100"/><path stroke-linejoin="round" stroke="#000" stroke-width=".4" d="M333.7 320.8l-.2.6c0 1.5 1.3 2.6 2.8 2.6h-23c1.7 0 3-1 3-2.6 0-.2 0-.4-.2-.6H333.8z" fill="none"/><path d="M316.6 319.3h16.6c.6 0 1 .3 1 .7s-.4.8-1 .8h-16.6c-.6 0-1-.3-1-.8s.4-.7 1-.7" fill="#c8b100"/><path stroke="#000" stroke-width=".4" d="M316.6 319.3h16.6c.6 0 1 .3 1 .7s-.4.8-1 .8h-16.6c-.6 0-1-.3-1-.8s.4-.7 1-.7z" fill="none"/><path d="M313.4 330h23v-6h-23v6z" fill="#c8b100"/><path stroke="#000" stroke-width=".4" d="M313.4 330h23v-6h-23v6z" fill="none"/><path d="M338 298.6c2.4 1.3 4 2.7 3.7 3.3-.2.5-1 1-2 1.7-1.5 1-2.5 3-1.7 4-1.4-1-2.2-2.6-2.2-4.4 0-2 1-3.6 2.3-4.7" fill="#ad1519"/><path stroke="#000" stroke-width=".4" d="M338 298.6c2.4 1.3 4 2.7 3.7 3.3-.2.5-1 1-2 1.7-1.5 1-2.5 3-1.7 4-1.4-1-2.2-2.6-2.2-4.4 0-2 1-3.6 2.3-4.7z" fill="none"/><path d="M316.8 318.3H333v-79.6h-16.2v79.6z" fill="#ccc"/><path stroke="#000" stroke-width=".4" d="M328.6 238.7V318m1.8-79.3V318M316.8 318.3H333v-79.6h-16.2v79.6z" fill="none"/><path d="M300.2 268.5c3.5-1.5 9.6-2.6 16.5-2.8 2.4 0 5 .2 7.8.7 9.7 1.6 17 5.5 16.5 8.7v.3l3.7-8.5c.6-3.5-7.6-7.8-18.4-9.6-3.4-.6-6.7-.8-9.6-.8-7 0-13 1-16.5 2.3v9.8" fill="#ad1519"/><path stroke-linejoin="round" stroke="#000" stroke-width=".4" d="M300.2 268.5c3.5-1.5 9.6-2.6 16.5-2.8 2.4 0 5 .2 7.8.7 9.7 1.6 17 5.5 16.5 8.7v.3l3.7-8.5c.6-3.5-7.6-7.8-18.4-9.6-3.4-.6-6.7-.8-9.6-.8-7 0-13 1-16.5 2.3v9.8" fill="none"/><path d="M333 278.5c4.6-.3 7.7-1.6 8-3.4.3-1.4-1.3-3-4-4.6-1.2 0-2.6.3-4 .3v7.8" fill="#ad1519"/><path stroke="#000" stroke-width=".4" d="M333 278.5c4.6-.3 7.7-1.6 8-3.4.3-1.4-1.3-3-4-4.6-1.2 0-2.6.3-4 .3v7.8" fill="none"/><path d="M316.8 272.4c-3 .4-5 1-6 2-.6 1.2 1.8 3.4 6 5.8v-7.8" fill="#ad1519"/><path stroke="#000" stroke-width=".4" d="M316.8 272.4c-3 .4-5 1-6 2-.6 1.2 1.8 3.4 6 5.8v-7.8" fill="none"/><path d="M343 293.8c.6-1.3-3.8-3.8-10-6-3-1-5.2-2.2-8-3.5-8.7-3.8-15-8.2-14.3-9.8-.4.3-1 8-1 8-1 1.6 5 6 13 9.7 2.4 1.2 7.8 3.2 10.3 4 4.6 1.7 9 4.6 8.6 5.7l1.5-8.2" fill="#ad1519"/><path stroke-linejoin="round" stroke="#000" stroke-width=".4" d="M343 293.8c.6-1.3-3.8-3.8-10-6-3-1-5.2-2.2-8-3.5-8.7-3.8-15-8.2-14.3-9.8-.4.3-1 8-1 8-1 1.6 5 6 13 9.7 2.4 1.2 7.8 3.2 10.3 4 4.6 1.7 9 4.6 8.6 5.7l1.5-8.2z" fill="none"/><path d="M310.3 265c.6-2.3 1.4-4.6 2.2-7-.2.2-.4.2-.5.2h-.6c-.3 1.7-1 3.4-1.4 5-1-1.4-2-2.8-2.8-4.3h-1l-1 .2c1.4 2 2.8 4 4 6l.6-.2h.5M316.5 258.2h-1.8v6.3h4.4v-.3-.4h-2.6v-5.6M323.5 259.2c.7 0 1.4.2 2 .3v-.4l.2-.3-6-.5v.8h2l-.5 5.8h1c.2 0 .5 0 .8.2l.5-5.8M326 265.5c.3 0 .6 0 1 .2.2 0 .5 0 .7.2l.8-3 .5 1.2 1 2.2c.3 0 .6 0 1 .2.3 0 .7 0 1 .2l-.3-.6-1.4-3c1 0 2-.4 2.2-1.3 0-.7 0-1.2-.7-1.6-.4-.3-1.3-.5-1.8-.6l-2.4-.6-1.6 6.3m3-5.4c1 .3 1.7.4 1.7 1.2v.5c-.3 1-1 1.2-2.2 1l.6-2.6M337.6 267.5l-.3 2 1 .5.7.5.6-7.2s-.3 0-.4-.2h-.4l-6.3 4s.3 0 .5.2c0 0 .3 0 .4.2l1.8-1.3 2.4 1.4zm-1.8-1.7l2-1.4-.2 2.4-1.8-1" fill="#c8b100"/><path stroke="#000" stroke-width=".1" d="M225.2 200.4c0-1 1-2 2.2-2 1.2 0 2 1 2 2 0 1.2-.8 2-2 2s-2.2-.8-2.2-2z" fill="none"/><path stroke="#000" stroke-width=".3" d="M249.7 182.7c6.6 0 12.5 1 16.4 2.5 2.3 1 5.2 1.8 8.5 2.2 2.4.3 4.8.4 6.8.2 2.7 0 6.7.8 10.6 2.5 3.2 1.6 6 3.3 7.7 5l-1.5 1.4-.5 4-4.3 5-2 1.7-5.2 4.2-2.6.2-.8 2.3-33-4-33 4-.7-2.3-2.5-.2-5-4-2.3-2-4.3-4.8-.5-4-1.6-1.4c1.7-1.7 4.4-3.4 7.7-5 4-1.6 8-2.4 10.6-2.4 2 .2 4.4 0 7-.2 3-.4 6-1.2 8.3-2.2 3.8-1.5 9.4-2.5 16-2.5z" fill="#ad1519"/><path stroke="#000" stroke-width=".4" d="M250.2 226.2c-12.3 0-23.3-1.5-31-3.8-.7-.2-1-.8-1-1.3 0-.4.3-1 1-1 7.7-2.4 18.7-4 31-4 12.2 0 23.2 1.6 31 4 .6 0 1 .6 1 1 0 .6-.4 1.2-1 1.3-7.8 2.4-18.8 4-31 4" fill="#c8b100"/><path d="M250 224.6c-11 0-21-1.3-28.6-3.3 7.6-2 17.7-3.2 28.7-3.2 11.2 0 21.3 1.3 29 3.3-7.7 2-17.8 3.3-29 3.3" fill="#ad1519"/><path stroke="#000" stroke-width=".1" d="M251 224.6V218M249.2 224.6V218" fill="none"/><path stroke="#000" stroke-width=".2" d="M247.5 224.6V218M245.8 224.6V218" fill="none"/><path stroke="#000" stroke-width=".3" d="M244.3 224.6V218M241.5 224.3v-6m1.3 6v-6.2" fill="none"/><path stroke="#000" stroke-width=".4" d="M239 224v-5.5m1.2 5.7v-6M235.3 223.7V219m1.2 4.8v-5m1.2 5v-5" fill="none"/><path stroke="#000" stroke-width=".5" d="M234 223.7V219M233 223.4V219" fill="none"/><path stroke="#000" stroke-width=".6" d="M231.7 223.3v-4M229.2 223v-3.3m1.3 3.4v-3.5M228 222.7v-3" fill="none"/><path stroke="#000" stroke-width=".7" d="M226.7 222.4V220M225.4 222v-1.7" fill="none"/><path stroke="#000" stroke-width=".8" d="M224 222v-1.4" fill="none"/><path stroke="#000" stroke-width=".9" d="M222.7 221.7v-.7" fill="none"/><path stroke="#000" stroke-width=".1" d="M258 224.3v-6m-3 6.2V218m-2.2 6.6V218" fill="none"/><path stroke="#000" stroke-width=".4" d="M250 216c-12.3 0-23.5 1.7-31.3 4 .6-.2.6-1-.2-3-1-2.6-2.5-2.5-2.5-2.5 8.6-2.6 20.7-4.2 34-4.2 13.6 0 25.7 1.6 34.4 4.2 0 0-1.5 0-2.5 2.4-1 2-1 2.8-.3 3-8-2.3-19.2-4-31.6-4" fill="#c8b100"/><path stroke="#000" stroke-width=".4" d="M250 210.3c-13.3 0-25.4 1.6-34 4.2-.6.2-1.2 0-1.4-.6s0-1.3.7-1.5c8.7-2.6 21-4.3 34.8-4.3 14 0 26.3 1.7 35 4.3.6.2 1 .8.7 1.4s-.8.7-1.4.5c-8.6-2.6-20.7-4.2-34.2-4.2" fill="#c8b100"/><path stroke-linejoin="round" stroke="#000" stroke-width=".4" d="M250 224.6c-11 0-21-1.3-28.6-3.3 7.6-2 17.7-3.2 28.7-3.2 11.2 0 21.3 1.3 29 3.3-7.7 2-17.8 3.3-29 3.3z" fill="none"/><path stroke="#000" stroke-width=".4" d="M240.5 213.3c0-.5.5-1 1-1 .7 0 1.2.5 1.2 1 0 .6-.5 1-1 1-.7 0-1.2-.4-1.2-1" fill="#fff"/><path stroke="#000" stroke-width=".4" d="M250.2 214.2h-3.3c-.7 0-1.2-.5-1.2-1 0-.6.4-1 1-1h6.7c.6 0 1 .4 1 1 0 .5-.4 1-1 1H250" fill="#ad1519"/><path stroke="#000" stroke-width=".4" d="M233.6 215l-2.3.3c-.6 0-1.2-.3-1.3-1 0-.4.4-1 1-1l2.4-.3 2.4-.3c.6 0 1 .4 1.2 1s-.4 1-1 1l-2.4.4" fill="#058e6e"/><path stroke="#000" stroke-width=".4" d="M224 215.3c0-.6.5-1 1-1s1.2.4 1.2 1c0 .5-.5 1-1 1s-1.2-.5-1.2-1" fill="#fff"/><path stroke="#000" stroke-width=".4" d="M216.7 217.2l1.2-1.6 3.3.4-2.7 2-2-.8" fill="#ad1519"/><path stroke="#000" stroke-width=".4" d="M266.7 215l2.3.3c.6 0 1.2-.3 1.3-1s-.4-1-1-1l-2.4-.3-2.5-.3c-.6 0-1 .4-1.2 1 0 .5.4 1 1 1l2.4.4" fill="#058e6e"/><path stroke="#000" stroke-width=".4" d="M257.6 213.3c0-.5.5-1 1-1 .7 0 1.2.5 1.2 1 0 .6-.5 1-1 1-.7 0-1.2-.4-1.2-1M274 215.3c0-.6.6-1 1.2-1s1 .4 1 1c0 .5-.4 1-1 1s-1-.5-1-1" fill="#fff"/><path stroke="#000" stroke-width=".4" d="M283.6 217.2l-1.2-1.6-3.4.4 2.7 2 2-.8" fill="#ad1519"/><path stroke="#000" stroke-width=".4" d="M220 221.7c8-2.2 18.4-3.6 30-3.6 11.8 0 22.4 1.5 30.2 3.7" fill="none"/><path d="M225.3 191.4l1.4 1 2-3.3c-2-1.3-3.7-3.7-3.7-6.4v-1c.3-4.2 5.6-7.8 12.3-7.8 3.4 0 6.6 1 8.8 2.5l.3-2c-2.4-1.3-5.6-2.2-9-2.2-7.8 0-13.8 4.5-14 9.7v1c0 2.7 1 5.2 3 7l-1 1.7" fill="#c8b100"/><path stroke="#000" stroke-width=".4" d="M225.3 191.4l1.4 1 2-3.3c-2-1.3-3.7-3.7-3.7-6.4v-1c.3-4.2 5.6-7.8 12.3-7.8 3.4 0 6.6 1 8.8 2.5l.3-2c-2.4-1.3-5.6-2.2-9-2.2-7.8 0-13.8 4.5-14 9.7v1c0 2.7 1 5.2 3 7l-1 1.7" fill="none"/><path d="M225.4 191.5c-2.6-2-4.2-4.7-4.2-7.6 0-3.5 2.2-6.5 5.5-8.5-2 1.6-3.3 3.8-3.5 6.2v1c0 2.7 1.2 5.2 3.2 7l-1 1.8" fill="#c8b100"/><path stroke="#000" stroke-width=".4" d="M225.4 191.5c-2.6-2-4.2-4.7-4.2-7.6 0-3.5 2.2-6.5 5.5-8.5-2 1.6-3.3 3.8-3.5 6.2v1c0 2.7 1.2 5.2 3.2 7l-1 1.8" fill="none"/><path d="M202.2 195c-1.5-1.8-2.4-4-2.4-6.2 0-1.4.4-2.8 1-4 2-4.4 8.8-7.6 16.7-7.6 2.2 0 4.2.3 6 .7l-1 1.4c-1.5-.3-3.2-.5-5-.5-7.3 0-13.4 2.7-15 6.6-.6 1-1 2-1 3.2 0 2.3 1.2 4.4 3 5.8l-2.7 4.3-1.4-1.2 1.8-3" fill="#c8b100"/><path stroke="#000" stroke-width=".4" d="M202.2 195c-1.5-1.8-2.4-4-2.4-6.2 0-1.4.4-2.8 1-4 2-4.4 8.8-7.6 16.7-7.6 2.2 0 4.2.3 6 .7l-1 1.4c-1.5-.3-3.2-.5-5-.5-7.3 0-13.4 2.7-15 6.6-.6 1-1 2-1 3.2 0 2.3 1.2 4.4 3 5.8l-2.7 4.3-1.4-1.2 1.8-3z" fill="none"/><path d="M205 180.5c-2 1.2-3.5 2.7-4.3 4.3-.5 1.2-1 2.6-1 4 0 2.3 1 4.4 2.5 6l-1.6 2.7c-1.5-2-2.4-4.3-2.4-6.7 0-4.2 2.7-8 6.7-10.3" fill="#c8b100"/><path stroke="#000" stroke-width=".4" d="M205 180.5c-2 1.2-3.5 2.7-4.3 4.3-.5 1.2-1 2.6-1 4 0 2.3 1 4.4 2.5 6l-1.6 2.7c-1.5-2-2.4-4.3-2.4-6.7 0-4.2 2.7-8 6.7-10.3z" fill="none"/><path d="M250 171.3c1.8 0 3.3 1 3.7 2.7.2 1.4.4 3 .4 4.6v1.3c.2 3.5.7 6.6 1.4 8.5l-5.4 5-5.4-5c.7-2 1.2-5 1.3-8.5v-.7-.4c0-1.6 0-3.2.3-4.6.4-1.6 2-2.7 3.7-2.7" fill="#c8b100"/><path stroke="#000" stroke-width=".4" d="M250 171.3c1.8 0 3.3 1 3.7 2.7.2 1.4.4 3 .4 4.6v1.3c.2 3.5.7 6.6 1.4 8.5l-5.4 5-5.4-5c.7-2 1.2-5 1.3-8.5v-.7-.4c0-1.6 0-3.2.3-4.6.4-1.6 2-2.7 3.7-2.7z" fill="none"/><path d="M250 173c1 0 1.7.5 2 1.3 0 1.3.3 2.8.3 4.4v1.1c0 3.3.6 6.2 1.2 8l-3.5 3.4-3.5-3.4c.6-1.8 1-4.7 1.2-8v-.6-.5c0-1.6.2-3 .4-4.4.3-.8 1-1.4 2-1.4" fill="#c8b100"/><path stroke="#000" stroke-width=".4" d="M250 173c1 0 1.7.5 2 1.3 0 1.3.3 2.8.3 4.4v1.1c0 3.3.6 6.2 1.2 8l-3.5 3.4-3.5-3.4c.6-1.8 1-4.7 1.2-8v-.6-.5c0-1.6.2-3 .4-4.4.3-.8 1-1.4 2-1.4z" fill="none"/><path d="M274.7 191.4l-1.4 1-2-3.3c2.2-1.3 3.7-3.7 3.7-6.4v-1c-.2-4.2-5.5-7.8-12.2-7.8-3.5 0-6.6 1-9 2.5v-2c2.4-1.3 5.5-2.2 9-2.2 7.7 0 13.7 4.5 14 9.7v1c0 2.7-1.2 5.2-3.2 7l1 1.7" fill="#c8b100"/><path stroke="#000" stroke-width=".4" d="M274.7 191.4l-1.4 1-2-3.3c2.2-1.3 3.7-3.7 3.7-6.4v-1c-.2-4.2-5.5-7.8-12.2-7.8-3.5 0-6.6 1-9 2.5v-2c2.4-1.3 5.5-2.2 9-2.2 7.7 0 13.7 4.5 14 9.7v1c0 2.7-1.2 5.2-3.2 7l1 1.7" fill="none"/><path d="M274.6 191.5c2.6-2 4.3-4.7 4.3-7.6 0-3.5-2.3-6.5-5.7-8.5 2 1.6 3.3 3.8 3.5 6.2v1c0 2.7-1.2 5.2-3.2 7l1 1.8" fill="#c8b100"/><path stroke="#000" stroke-width=".4" d="M274.6 191.5c2.6-2 4.3-4.7 4.3-7.6 0-3.5-2.3-6.5-5.7-8.5 2 1.6 3.3 3.8 3.5 6.2v1c0 2.7-1.2 5.2-3.2 7l1 1.8" fill="none"/><path d="M297.8 195c1.5-1.8 2.4-4 2.4-6.2 0-1.4-.3-2.8-1-4-2-4.4-8.7-7.6-16.7-7.6-2 0-4.2.3-6 .7l1 1.4c1.6-.3 3.3-.5 5-.5 7.3 0 13.4 2.7 15 6.6.6 1 1 2 1 3.2 0 2.3-1.2 4.4-3 5.8l2.7 4.3 1.4-1.2-1.8-3" fill="#c8b100"/><path stroke="#000" stroke-width=".4" d="M297.8 195c1.5-1.8 2.4-4 2.4-6.2 0-1.4-.3-2.8-1-4-2-4.4-8.7-7.6-16.7-7.6-2 0-4.2.3-6 .7l1 1.4c1.6-.3 3.3-.5 5-.5 7.3 0 13.4 2.7 15 6.6.6 1 1 2 1 3.2 0 2.3-1.2 4.4-3 5.8l2.7 4.3 1.4-1.2-1.8-3z" fill="none"/><path d="M295 180.5c2 1.2 3.5 2.7 4.3 4.3.6 1.2 1 2.6 1 4 0 2.3-1 4.4-2.5 6l1.6 2.7c1.6-2 2.4-4.3 2.4-6.7 0-4.2-2.6-8-6.7-10.3" fill="#c8b100"/><path stroke="#000" stroke-width=".4" d="M295 180.5c2 1.2 3.5 2.7 4.3 4.3.6 1.2 1 2.6 1 4 0 2.3-1 4.4-2.5 6l1.6 2.7c1.6-2 2.4-4.3 2.4-6.7 0-4.2-2.6-8-6.7-10.3z" fill="none"/><path d="M248 189c0-1 1-2 2-2s2 1 2 2-1 1.7-2 1.7-2-.8-2-1.8" fill="#fff"/><path stroke="#000" stroke-width=".4" d="M248 189c0-1 1-2 2-2s2 1 2 2-1 1.7-2 1.7-2-.8-2-1.8z" fill="none"/><path stroke="#000" stroke-width=".4" d="M248 185.4c0-1 1-1.8 2-1.8s2 .8 2 1.8-1 1.8-2 1.8-2-.8-2-1.8M248.5 181.6c0-.8.7-1.4 1.5-1.4 1 0 1.5.6 1.5 1.4s-.6 1.4-1.5 1.4c-.8 0-1.5-.6-1.5-1.4M249 178.2c0-.6.4-1 1-1s1 .4 1 1c0 .5-.4 1-1 1s-1-.4-1-1M249.2 175.2c0-.5.4-.8.8-.8.5 0 1 .3 1 .8s-.5.8-1 .8-.8-.4-.8-.8" fill="#fff"/><path stroke="#000" stroke-width=".4" d="M250.2 199.8l1.2.2c-.2.5-.2 1-.2 1.6 0 2.6 2.2 4.7 5 4.7 2 0 4-1.4 4.6-3.2 0 0 .4-1.6.7-1.6 0 0 0 1.8.2 1.8.3 2.3 2.4 4 5 4s4.8-2.2 4.8-4.7v-.6l1.5-1.6.8 2c-.3.5-.5 1.2-.5 2 0 2.4 2 4.4 4.7 4.4 1.7 0 3-.8 4-2l1-1.2v1.5c0 1.6.6 3 2 3.3 0 0 1.8 0 4-1.7 2.4-1.8 3.6-3.3 3.6-3.3l.2 1.8s-2 3-4 4.2c-1 .7-2.8 1.4-4.2 1.2-1.4-.3-2.4-1.4-3-2.8-1 .6-2.2 1-3.5 1-2.7 0-5.3-1.5-6.2-4-1.3 1.5-3 2.4-5.2 2.4-2.3 0-4.3-1-5.6-2.6-1.3 1.2-3 2-5 2-2.4 0-4.6-1.3-5.8-3.2-1.3 2-3.5 3-6 3-2 0-3.6-.6-4.8-1.8-1.3 1.6-3.4 2.6-5.6 2.6-2 0-4-1-5.2-2.3-1 2.4-3.5 4-6.3 4-1.3 0-2.6-.5-3.6-1-.5 1.3-1.5 2.4-3 2.7-1.4.2-3-.5-4.2-1.2-2-1.2-4-4-4-4l.2-2s1.3 1.6 3.6 3.4c2.2 1.8 4 1.7 4 1.7 1.5-.3 2-1.7 2-3.2v-1.4l1 1.2c1 1.2 2.4 2 4 2 2.6 0 4.7-2 4.7-4.5 0-.7 0-1.4-.4-2l.8-2 1.5 1.6v.5c0 2.5 2 4.6 4.8 4.6 2.4 0 4.6-1.5 5-3.8v-1.8c.3 0 .7 1.7.8 1.7.6 2 2.5 3.3 4.6 3.3 2.8 0 5-2 5-4.7 0-.5 0-1-.3-1.6l1.2-.2" fill="#c8b100"/><path stroke="#000" stroke-width=".4" d="M284 206c.2-1 0-1.7-.6-2-.6 0-1.3.4-1.6 1.2-.3 1 0 1.7.5 2 .6 0 1.4-.5 1.7-1.3M262.6 201.8c0-1-.3-1.7-1-1.7s-1.2.6-1.3 1.5c0 1 .3 1.6 1 1.7.6 0 1.2-.6 1.3-1.4M237.8 201.8c-.2-1 .3-1.7 1-1.7.5 0 1 .6 1.2 1.5 0 1-.3 1.6-1 1.7-.5 0-1-.6-1.2-1.4M216.4 206c-.3-1 0-1.7.6-2 .6 0 1.3.4 1.6 1.2s0 1.7-.6 2c-.6 0-1.3-.5-1.6-1.3" fill="#fff"/><path stroke="#000" stroke-width=".4" d="M225.7 191.7c1 .6 2 1.7 2.3 3 0 0 0-.3.7-.6l1-.2-.2 1.3c0 .4 0 1.5-.3 2.4-.2 1-.6 1.7-.6 1.7-.4-.2-1-.4-1.6-.3-.6 0-1 .4-1.3 1 0 0-.7-.7-1.2-1.5-.6-.8-1-1.8-1.2-2l-.7-1.2s.5-.2 1.2 0c.6 0 .8.2.8.2 0-1.2.3-2.6 1-3.6" fill="#c8b100"/><path stroke="#000" stroke-width=".4" d="M226 202c-.2-.4-.5-.8-.5-1.2s0-1 .2-1.3l-1.8-.6c-1-.3-2-.3-2.5-.3h-1.2l.3.5.5.7c-1.2.2-2.2 1-3 2 1 .7 2.4 1 3.7 1l-.2 1v.5l1-.4c.3 0 1.5-.5 2-1 1-.4 1.6-1 1.6-1M229 201.4c.2-.4.3-.8.2-1.3s-.3-.7-.6-1l1.4-1.2c.6-.4 1.8-.8 2.2-1l1-.3v.6c0 .6-.2 1-.2 1 1.3-.2 2.6.2 3.6 1-.7 1-1.8 1.7-3 2l.5.8c.3.3.3.5.3.5h-1c-.5 0-1.8 0-2.5-.2-1-.2-1.8-.6-1.8-.6" fill="#c8b100"/><path stroke="#000" stroke-width=".4" d="M225.2 200.4c0-1 1-2 2.2-2 1.2 0 2 1 2 2 0 1.2-.8 2-2 2s-2.2-.8-2.2-2" fill="#ad1519"/><path stroke="#000" stroke-width=".4" d="M250 188.4c1.2 1 2 2.3 2 3.8 0 0 .3-.3 1-.5.7-.3 1.2-.2 1.2-.2l-.5 1.4-.8 2.4-1.2 1.8c-.4-.5-1-.8-1.7-.8-.5 0-1 .3-1.5.8 0 0-.6-.8-1-1.8l-1-2.5-.5-1.5s.6 0 1.3.2 1 .5 1 .5c0-1.5.8-3 1.8-3.8M248.5 199.8c-.3-.3-.5-.8-.5-1.3s.2-1 .5-1.3c0 0-1-.7-2-1-.7-.5-2-.7-2.5-.8l-1.3-.2.2.6c0 .6.3 1 .3 1-1.5 0-2.8.8-3.8 1.7 1 1 2.3 1.7 3.8 1.8l-.4 1c-.3.3-.3.6-.3.6l1.3-.4c.4 0 1.8-.3 2.6-.7l2-1.2M251.8 199.8c.3-.3.5-.8.5-1.3s-.2-1-.5-1.3c0 0 1-.7 2-1 .6-.5 2-.7 2.5-.8l1.2-.2v.6l-.5 1c1.4 0 2.8.8 3.8 1.7-1 1-2.4 1.7-3.8 1.8l.4 1v.6l-1-.4c-.5 0-2-.3-2.7-.7l-2-1.2M274.7 191.7c-1 .6-2 1.7-2.3 3l-.7-.6-1-.2v1.3c.2.4.2 1.5.4 2.4l.8 1.7c.4-.2 1-.4 1.5-.3.6 0 1 .4 1.4 1l1.2-1.5 1-2 .7-1.2s-.4-.2-1 0c-.8 0-1 .2-1 .2.2-1.2-.3-2.6-1-3.6" fill="#c8b100"/><path stroke="#000" stroke-width=".4" d="M274.2 202c.4-.4.6-.8.7-1.2 0-.5 0-1-.3-1.3l1.8-.6c.7-.3 2-.3 2.4-.3h1l-.3.5-.5.7c1.3.2 2.4 1 3 2-1 .7-2.2 1-3.5 1l.2 1v.5l-1-.4c-.5 0-1.7-.5-2.3-1-.8-.4-1.5-1-1.5-1M271.4 201.4c-.2-.4-.3-.8-.3-1.3l.8-1-1.5-1.2-2-1c-.5 0-1.2-.3-1.2-.3l.2.6c0 .6.2 1 .2 1-1.3-.2-2.7.2-3.6 1 .6 1 1.7 1.7 3 2l-.5.8-.3.5h1.2c.3 0 1.6 0 2.3-.2l2-.6" fill="#c8b100"/><path stroke="#000" stroke-width=".4" d="M270.8 200.4c0-1 1-2 2.2-2s2.2 1 2.2 2c0 1.2-1 2-2.2 2s-2.2-.8-2.2-2M295 205c-.5-.5-1.5-.4-2.3.3-.8.6-1 1.6-.5 2 .5.7 1.6.6 2.3 0 .8-.8 1-1.8.6-2.3" fill="#ad1519"/><path stroke="#000" stroke-width=".4" d="M292 206.3c0-.4.3-.7.7-1 .8-.7 1.8-.8 2.4-.3l.2.3s1-2 2.4-2.8 3.5-.5 3.5-.5c0-1.6-1.2-3-3-3-1 0-1.8.5-2.3 1.2l-.3-1s-1.3.2-2 1.7 0 3.7 0 3.7-.2-1-.7-1.6c-.5-.5-1.8-1.2-2.5-1.5l-1.4-.8v1.4c-1.3 0-2.7.2-4 .6.6 1 1.5 1.8 2.7 2.3l-.8.6-.4.5 1.3.3c.4 0 1.8.3 2.6.2.7 0 1.4 0 1.8-.2M208.4 206.3c0-.4-.4-.7-.8-1-.7-.7-1.8-.8-2.3-.3 0 0 0 .2-.2.3 0 0-1-2-2.3-2.8-1.3-.7-3.5-.5-3.5-.5 0-1.6 1.3-3 3-3 1 0 2 .5 2.5 1.2l.2-1s1.3.2 2 1.7-.2 3.7-.2 3.7.4-1 1-1.6c.4-.5 1.7-1.2 2.4-1.5l1.3-.8v1.4c1.3 0 2.8.2 4 .6-.6 1-1.5 1.8-2.7 2.3l.8.6.5.5-1.2.3c-.4 0-1.8.3-2.7.2-.5 0-1.2 0-1.6-.2" fill="#c8b100"/><path stroke="#000" stroke-width=".4" d="M205.3 205c.5-.5 1.6-.4 2.3.3 1 .6 1 1.6.6 2-.5.7-1.6.6-2.4 0-.8-.8-1-1.8-.5-2.3M248 198.5c0-1 1-2 2-2 1.3 0 2.3 1 2.3 2s-1 2-2.2 2-2-1-2-2" fill="#ad1519"/><path stroke="#000" stroke-width=".3" d="M245.6 167.3c0-2.3 2-4.2 4.5-4.2s4.5 2 4.5 4.3-2 4.2-4.4 4.2c-2.4 0-4.4-2-4.4-4.2" fill="#005bbf"/><path stroke="#000" stroke-width=".3" d="M249 155.5v2.3h-2.5v2.3h2.4v6.7h-3.2l-.2.6c0 .6 0 1 .4 1.6h8c.4-.6.5-1 .5-1.7l-.2-.6h-3V160h2.4V158h-2.4v-2.3H249z" fill="#c8b100"/><path d="M250.5 344.3c-13 0-26-3.2-37-8.5-8-4-13.3-12-13.3-21.2v-33.3h100.4v33.3c0 9.2-5.3 17.2-13.4 21.2-11 5.3-23.6 8.5-36.7 8.5" fill="#ccc"/><path stroke="#000" stroke-width=".5" d="M250.5 344.3c-13 0-26-3.2-37-8.5-8-4-13.3-12-13.3-21.2v-33.3h100.4v33.3c0 9.2-5.3 17.2-13.4 21.2-11 5.3-23.6 8.5-36.7 8.5z" fill="none"/><path d="M250.3 281.3h50.3v-55.8h-50.3v55.8z" fill="#ccc"/><path stroke="#000" stroke-width=".5" d="M250.3 281.3h50.3v-55.8h-50.3v55.8z" fill="none"/><path d="M250.3 314.6c0 13-11 23.8-25 23.8S200 327.7 200 314.6v-33.4h50.3v33.4" fill="#ad1519"/><path stroke="#000" stroke-width=".5" d="M211 334.2c1.7 1 3.8 2.3 6 2.8v-57h-6v54.2z" fill="#c8b100"/><path stroke-linejoin="round" stroke="#000" stroke-width=".5" d="M200 314c.2 7 3 12.4 5.8 15.8v-49.5H200V314z" fill="#c8b100"/><path stroke="#000" stroke-width=".5" d="M222.3 338.3c2.3.2 4 0 5.8 0V280h-5.7v58.3z" fill="#c7b500"/><path stroke="#000" stroke-width=".5" d="M233.3 337c2.3-.5 5-2 6-2.6V280h-5.8l-.2 57z" fill="#c8b100"/><path d="M200 281.3h50.3v-55.8H200v55.8z" fill="#ad1519"/><path stroke="#000" stroke-width=".5" d="M200 281.3h50.3v-55.8H200v55.8z" fill="none"/><path stroke="#000" stroke-width=".5" d="M244.8 329.2c2.5-2 4.8-7 5.6-12.7V280h-5.7v49.2z" fill="#c8b100"/><path stroke="#000" stroke-width=".5" d="M250.3 314.6c0 13-11 23.8-25 23.8S200 327.7 200 314.6v-33.4h50.3v33.4" fill="none"/><path d="M300.6 281.2v33.4c0 13-11.2 23.8-25 23.8-14 0-25.3-10.7-25.3-23.8v-33.4h50.3" fill="#ad1519"/><path stroke="#000" stroke-width=".5" d="M300.6 281.2v33.4c0 13-11.2 23.8-25 23.8-14 0-25.3-10.7-25.3-23.8v-33.4h50.3" fill="none"/><path d="M259.5 306.4v.5c0 .5-.4 1-1 1s-1.2-.5-1.2-1v-.6h-1.6v.5c0 1 .8 2 2 2.4v4h1.6v-4c.8-.3 1.4-1 1.7-1.7h4.6v-1.3h-6m22.4 0v1.3h-4l-.4.6 4.8 5.4-1.2 1-4.8-5.4h-.2v9h-1.8v-9l-5 5.5-1.4-1 5-5.6-.3-.5h-4.2v-1.3H282zm2.8 0v1.3h4.6c.3.8 1 1.4 1.7 1.7v4h1.8v-4c1-.3 2-1.3 2-2.5v-.6H293l.2.5c0 .5-.6 1-1.2 1-.7 0-1.2-.5-1.2-1v-.6h-6m-7 23c1.4-.2 2.6-.5 4-1l.7 1.4c-1.4.6-3 1-4.5 1.2-.3 1.2-1.4 2-2.7 2s-2.4-.8-2.6-2c-1.7-.2-3.3-.6-4.8-1.2l.8-1.5c1.3.6 2.6 1 4 1 .4-.5 1-1 1.6-1.3v-7h1.7v7c1 .2 1.5.8 1.8 1.4zm-11.4-2.3l-1 1.5c-1.3-1-2.6-2-3.7-3.2-.8.3-1.8 0-2.6-.5-1-1-1.2-2.6-.2-3.6l.2-.2c-.7-1.6-1.2-3.2-1.4-5h1.8c0 1.5.5 3 1 4.3h1.5l4.2-4.6 1.3 1-4.3 4.8c.6.8.6 2 0 2.8 1 1 2 2 3.2 2.8zm-6.4-5c.4-.3 1.2-.4 1.7 0s.5 1 0 1.6c-.3.4-1 .5-1.6 0s-.4-1 0-1.5zm-2-4.6l-2-.4-.2-4.4 1.8-.6v2.6c0 1 0 2 .3 2.8zm1.3-5.5l1.8.3v2.2l.3 2.3-1.8.6-.2-2.8V312zM265 326c1.6 1 3.3 2 5 2.6l.5-1.7c-1.5-.3-3-1-4.2-2l-1.2 1.2m-.8 1.4c1.5 1.2 3.2 2 5 2.7l-1.2 1.2c-1.5-.5-3-1.3-4-2l.2-2m2.3-9.7l1.7.7 3-3.4-1-1.3-3.7 4m-1.3-1l-1-1.4 3-3.4 1.8.6-3.8 4.2m19 10.3l.7 1.5c1.3-1 2.6-2 3.7-3.2 1 .3 1.8 0 2.6-.5 1-1 1.3-2.6.3-3.6l-.2-.2c.7-1.6 1.2-3.2 1.4-5H291c0 1.5-.5 3-1 4.3h-1.5l-4.3-4.6-1.3 1 4.2 4.8c-.6 1-.6 2 0 2.8-.8 1-2 2-3 2.8zm6.2-5c-.4-.3-1.2-.4-1.6 0s-.6 1-.2 1.6c.4.4 1.2.5 1.7 0s.5-1 0-1.5zm2.2-4.6l1.7-.4.3-4.4-1.8-.6v2.6c0 1 0 2-.2 2.8zM291 312l-1.6.3v2.2l-.3 2.3 2 .6V312m-5.7 14.2c-1.4 1-3.2 2-5 2.6l-.4-1.7c1.4-.3 2.8-1 4-2l1.3 1.2m1 1.4c-1.6 1.2-3.3 2-5.2 2.7l1.4 1.2c1.5-.5 3-1.3 4.2-2l-.4-2M284 318l-1.8.7-3-3.4 1-1.3 3.7 4m1.2-1l1-1.4-3-3.4-1.7.6 3.7 4.2m-21-9l.6 1.6h4.7l.5-1.6h-5.8m22 0l-.5 1.6H281l-.5-1.6h5.8m-12 22.7c0-.6.4-1 1-1 .7 0 1.2.4 1.2 1s-.5 1-1.2 1c-.6 0-1-.4-1-1zm1.8-8l2-.6v-4.5l-2-.5v5.4m-1.6 0l-1.7-.5v-4.5l1.7-.5v5.4" fill="#c8b100"/><path d="M255.8 306.4c0-1 1-1.7 1.8-2V299h1.7v5.5c.8.3 1.5 1 1.7 1.7h4.6v.2h-6c-.3-.3-.7-.6-1.2-.6-.4 0-.8.3-1 .6h-1.6m12.7 0v-.2h4.2c0-.2 0-.3.2-.4l-5.4-6 1.3-1 5 5.8h.4v-7.7h1.7v7.5h.4l5-5.7 1.3 1-5 5.7.2.7h4v.2h-13.5zm22.4 0c0-.3.5-.6 1-.6s.8.3 1 .7h1.7c-.2-1-1-1.8-2-2V299h-1.6v5.5c-.7.3-1.4 1-1.6 1.7h-4.6v.2h6M259.8 291l6.3 7 1.2-1-6.4-7 .3-.7h4.7v-1.7H261c-.2-1-1.3-1.7-2.5-1.7-1.5 0-2.7 1-2.7 2.5 0 1 .7 2 1.8 2.4v5.3h1.7V291h.3zm33.2 0v5.4H291V291s0-.2-.3-.2l-6.2 7-1.3-1 6.4-7.2s0-.2-.2-.3h-4.6v-1.7h4.6c.4-1 1.4-1.7 2.6-1.7 1.5 0 2.7 1 2.7 2.5 0 1-.7 2-2 2.4zm-16.7 0v3.2h-1.6V291c-.8-.3-1.5-1-1.8-1.7h-4v-1.7h4c.4-1 1.4-1.7 2.6-1.7 1.2 0 2.3.6 2.6 1.6h4.2v1.6h-4.2c-.3.8-1 1.4-1.7 1.7zm-18.4 4l-1.7.5v4.4l1.6.4V295m1.7 0l1.8.5v4.4l-1.7.4V295m31.8 0l-1.6.5v4.4l1.7.4V295m1.8 0l1.8.5v4.4l-1.8.4V295m-26.6.8l1.7-.7 3 3.5-1 1.5-3.8-4.2m-1.3 1l-1 1.6 3 3.4 1.6-.8-3.7-4m19-1.3l-1.6-.7-3 3.4 1 1.5 3.7-4.3m1.4 1l1 1.5-3 3.4-1.7-.7 3.7-4.2m-21.2 9.4l.6-1.7h4.7l.5 1.7h-5.8m-7-17.7c0-.7.7-1.2 1.3-1.2.6 0 1.2.5 1.2 1s-.6 1.3-1.2 1.3-1.2-.5-1.2-1.2zm12.7.8l-.6 1.6h-4.7l-.5-1.7h5.7m0-1.7l-.6-1.6h-4.7l-.5 1.6h5.7m16.3 18.6l-.6-1.7H281l-.5 1.7h5.8m4.5-17.7c0-.7.6-1.2 1.2-1.2.7 0 1.2.5 1.2 1s-.5 1.3-1.2 1.3c-.6 0-1.2-.5-1.2-1.2zm-16.8 0c0-.7.6-1.2 1.2-1.2.7 0 1.2.5 1.2 1s-.5 1.3-1.2 1.3c-.6 0-1.2-.5-1.2-1.2zm6.6.8l.5 1.6h4.8l.5-1.7h-5.7m0-1.7l.5-1.6h4.8l.5 1.6h-5.7m-6.2 5.3l-1.7.4v4.4l1.7.5V293m1.7 0l2 .4v4.4l-2 .5V293" fill="#c8b100"/><path stroke="#c8b100" stroke-width=".3" d="M278 329.4c1.2-.2 2.4-.5 3.7-1l.8 1.4c-1.4.6-3 1-4.5 1.2-.3 1.2-1.4 2-2.7 2s-2.4-.8-2.6-2c-1.7-.2-3.3-.6-4.8-1.2l.8-1.5c1.3.6 2.6 1 4 1 .4-.5 1-1 1.6-1.3v-7h1.7v7c1 .2 1.5.8 1.8 1.4zm-5-21.2l-.3-.5h-4.2V306h4.2l.2-.3-5.3-5.8 1.2-1 5 5.6h.4v-7.8h1.7v7.6h.4l5-5.6 1.3 1-5 5.7.2.6h4v1.7h-4l-.3.6 4.8 5.4-1.3 1-4.8-5.4h-.2v9h-1.8v-9h-.2l-5 5.5-1.2-1 5-5.6M259.6 291l6.3 7 1.2-1-6.4-7 .3-.7h4.7v-1.7H261c-.2-1-1.3-1.7-2.5-1.7-1.5 0-2.7 1-2.7 2.4 0 1.2.7 2 1.8 2.5v5.3h1.7V291h.3zm6.8 36l-1 1.5c-1.3-1-2.6-2-3.7-3.2-.8.3-1.8 0-2.6-.5-1-1-1.2-2.6-.2-3.6l.2-.2c-.7-1.6-1.2-3.2-1.3-5h1.7c0 1.5.5 3 1 4.3h1.5l4.2-4.6 1.3 1-4.3 4.8c.6 1 .6 2 0 2.8 1 1 2 2 3.2 2.8zm-8.8-13.6v-4c-1-.3-2-1.3-2-2.5s1-2.2 2-2.6V299h1.7v5.5c.8.2 1.5.8 1.7 1.6h4.6v1.7H261c-.3.8-1 1.4-1.7 1.7v4h-1.7m2.4 8.7c.4-.3 1.2-.4 1.7 0s.5 1 0 1.6c-.3.4-1 .5-1.5 0s-.6-1-.2-1.5zm-2-4.6l-2-.4v-4.4l1.6-.6v2.6c0 1 0 2 .3 2.8zm1.3-5.5l1.8.3v2.2l.3 2.3-1.7.6-.3-2.8V312zM265 326c1.6 1 3.3 2 5 2.6l.5-1.7c-1.5-.3-3-1-4-2l-1.4 1.2m-.8 1.4c1.5 1.2 3.3 2 5 2.7l-1.2 1.2c-1.5-.5-3-1.3-4-2l.2-2" fill="none"/><path stroke="#c8b100" stroke-width=".3" d="M266.5 317.8l1.7.7 3-3.4-1-1.3-3.7 4m-1.3-1l-1-1.4 3-3.4 1.8.6-3.8 4.2m-8-10c0-.5.6-1 1.2-1 .7 0 1.2.5 1.2 1s-.5 1.2-1.2 1.2c-.6 0-1-.5-1-1zm27 20.3l.7 1.5c1.3-1 2.6-2 3.7-3.2 1 .3 1.8 0 2.6-.5 1-1 1.3-2.6.3-3.6l-.2-.2c.7-1.6 1.2-3.2 1.4-5H291c0 1.5-.5 3-1 4.3h-1.5l-4.3-4.6-1.3 1 4.2 4.8c-.6 1-.6 2 0 2.8-.8 1-2 2-3 2.8zm8.6-13.6v-4c1-.3 2-1.3 2-2.5s-1-2.2-2-2.6V299H291v5.5c-.7.2-1.4.8-1.6 1.6h-4.6v1.7h4.6c.3.8 1 1.4 1.7 1.7v4h1.8zm-2.4 8.7c-.4-.3-1.2-.4-1.6 0s-.6 1-.2 1.6c.4.4 1.2.5 1.7 0s.5-1 0-1.5zm2.2-4.6l1.7-.4.3-4.4-1.8-.6v2.6c0 1 0 2-.2 2.8zM291 312l-1.6.3v2.2l-.3 2.3 2 .6V312m1.8-21v5.3H291V291s0-.2-.3-.3l-6.2 7-1.3-1 6.4-7c0-.2 0-.3-.2-.4h-4.6v-1.7h4.6c.4-1 1.4-1.7 2.6-1.7 1.5 0 2.7 1 2.7 2.4 0 1.2-.7 2.2-2 2.5zm-16.7 0v3.2h-1.6V291c-.8-.3-1.5-1-1.8-1.7h-4v-1.7h4c.4-1 1.4-1.7 2.6-1.7 1.2 0 2.3.6 2.6 1.6h4.2v1.7h-4.2c-.3.7-1 1.3-1.7 1.6zm9.3 35.2c-1.4 1-3.2 2-5 2.6l-.4-1.7c1.4-.3 2.8-1 4-2l1.3 1.2m1 1.4c-1.6 1.2-3.3 2-5.2 2.7l1.4 1.2c1.5-.5 3-1.3 4.2-2l-.4-2M257.6 295l-1.7.4v4.5l1.6.4V295m1.7 0l1.8.4v4.5l-1.7.4V295m31.8 0l-1.6.4v4.5l1.7.4V295" fill="none"/><path stroke="#c8b100" stroke-width=".3" d="M292.8 295l1.8.4v4.5l-1.8.4V295m-9 22.8l-1.6.7-3-3.4 1-1.3 3.7 4m1.2-1l1-1.4-3-3.4-1.7.6 3.7 4.2m-19-21l1.7-.7 3 3.5-1 1.5-3.8-4.2m-1.3 1l-1 1.5 3 3.4 1.6-.7-3.7-4m19-1.3l-1.6-.7-3 3.4 1 1.5 3.7-4.3m1.4 1l1 1.5-3 3.4-1.7-.7 3.7-4.3m-21 9.4l.4-1.5h4.7l.5 1.6h-5.7m0 1.8l.5 1.6h4.7l.5-1.6h-5.7m-7-19.4c0-.6.6-1 1.2-1s1.2.4 1.2 1c0 .7-.5 1.2-1.2 1.2-.6 0-1.2-.5-1.2-1.2zm12.6 1l-.6 1.5h-4.7l-.5-1.7h5.7m0-1.7l-.6-1.6h-4.7l-.5 1.6h5.7m20.8 19.3c0-.7.6-1.2 1.2-1.2s1.2.5 1.2 1-.6 1.2-1.2 1.2-1.2-.5-1.2-1zm-4.5-1l-.5-1.5H281l-.5 1.6h5.8m0 1.8l-.5 1.6H281l-.5-1.6h5.8m-12 22.7c0-.6.4-1 1-1 .7 0 1.2.4 1.2 1s-.5 1-1.2 1c-.6 0-1-.4-1-1zm1.8-8l2-.6v-4.5l-2-.5v5.4m-1.6 0l-1.7-.5v-4.5l1.7-.5v5.4m16.4-34c0-.6.6-1 1.2-1 .7 0 1.2.4 1.2 1 0 .7-.5 1.2-1.2 1.2-.6 0-1.2-.5-1.2-1.2zm-16.8 0c0-.6.6-1 1.2-1 .7 0 1.2.4 1.2 1 0 .7-.5 1.2-1.2 1.2-.6 0-1.2-.5-1.2-1.2zm6.6 1l.5 1.5h4.8l.5-1.7h-5.7m0-1.7l.5-1.6h4.8l.5 1.6h-5.7M274.4 292.8l-1.7.5v4.5l1.7.5v-5.5m1.7 0l2 .5v4.5l-2 .5v-5.5" fill="none"/><path d="M272.6 307c0-1.5 1.2-2.7 2.7-2.7s2.8 1.2 2.8 2.6c0 1.4-1.2 2.5-2.7 2.5s-2.7-1-2.7-2.6" fill="#058e6e"/><path d="M276 239.3v-1s-1.5 0-2.4 0-1.6-.7-2.4-1.4c-.8-.7-1-1.2-1.7-1.2-1.3-.3-2.4.4-2.4.4s1.2.3 2 1.3 1.5 1.4 2 1.5c.5.2 2.5 0 3 0 .7 0 2 .3 2 .3" fill="#db4446"/><path stroke="#000" stroke-width=".4" d="M276 239.3v-1s-1.5 0-2.4 0-1.6-.7-2.4-1.4c-.8-.7-1-1.2-1.7-1.2-1.3-.3-2.4.4-2.4.4s1.2.3 2 1.3 1.5 1.4 2 1.5c.5.2 2.5 0 3 0 .7 0 2 .3 2 .3z" fill="none"/><path stroke="#000" stroke-width=".4" d="M283.5 237v1.4c0 .7-.2 1.2 0 1.6l.2 1c.2.2.2 1 .2 1l-.8-.7-.6-.4v1l.6 1.2c.3.3 1 1 1 1.3.2.5.2 1.4.2 1.4s-.5-.8-1-1c-.3 0-1-.6-1-.6s.7.8.7 1.6c0 .7-.3 1.6-.3 1.6s-.3-.7-.8-1l-1.2-1s.5 1 .5 2l-.2 2.4s-.2-.7-.6-1c-.4-.3-1-.6-1-.8-.2-.2.4.7.5 1.2 0 .5.2 2.4 1.8 4.7 1 1.5 2.4 4 5.5 3 3-.7 2-5 1.3-6.8-.7-2-1-4.2-1-5 0-.7.6-3 .6-3.3 0-.5-.3-2 0-3.4l1-2.4c.3-.5.5-.8.5-1.3v-1.5l.8 1.4c.2.3.2 1.4.2 1.4s0-1 1-1.6 1.8-1.2 2-1.5l.4-.5s0 2-.5 2.7l-1.8 2 1.2-.2h.8s-.6.5-1.4 1.6c-.8 1-.5 1.2-1 2s-1 1-1.8 1.7c-1 1-.5 4.4-.4 5 .2.4 2 4.6 2 5.7 0 1 .3 3.3-1.5 4.8-1.2 1-3 1-3.5 1.2-.5.3-1.3 1-1.3 3 0 1.7.5 2 1 2.4.5.5 1.2.2 1.3.6.2.3.2.5.5.7.2.3.3.6.3 1 0 .3-1 1.2-1 1.8-.4.6-1 2.2-1 2.5s0 1 .2 1.3c0 0 1 1 .3 1.3-.4 0-.8-.4-1-.3-.6 0-.8.5-1 .4-.4 0-.4 0-.4-.6v-.7c-.3 0-.4 0-.4.4s0 1-.3 1-.6-.4-1-.5-.7-.2-.7-.5.3-1 .7-1c.4 0 .8-.3.5-.5-.2-.2-.5-.2-.7 0-.2.2-.7 0-.7-.3v-.8c0-.2-.4-.5.2-.8.6-.4.8.2 1.4 0s.8-.2 1-.5.2-1-.2-1.4c-.4-.5-.8-.5-1-.8l-.3-1v2.4l-.7-1c-.4-.2-.7-1.2-.7-1.2v1.3c0 .4.5.7.4 1-.2 0-1-1-1-1-.2 0-.8-.6-1-1l-.6-1.5c0-.2-.2-1.3 0-1.6 0-.4.4-1 .4-1h-1.4c-.7 0-1.3-.3-1.6.2s0 1.5.2 3l.5 2-.8 1h-1c-.2 0-.5-.3-1.2-.3h-1.4l-1.2-.3s-.7.4-.6.8c.2.6-.2.7-.5.7l-1-.3c-.3-.2-.8 0-.7-.5 0-.4.2-.4.4-.7 0-.3.2-.5 0-.6-.2 0-.5 0-.7.2-.2 0-.5.5-.8.3-.2 0-.4-.4-.4-1 0-.7-.6-1.2 0-1.2.7 0 1.4.5 1.6 0s0-.4-.3-.7-.8-.4-.3-.7c.4-.3.6-.3.7-.5.2-.2.4-.8.8-.6.6.2 0 .6.6 1.3.7.7 1 1 2.2.8 1 0 1.3 0 1.3-.4v-1-1s-.4.3-.6.6l-.5.8v-1-1l-.2-1-.3 1-.2 1s-.6-.5-.4-1.5c0-.8-.2-1.7 0-2 .3-.4.8-1.7 2-1.8h3l2-.3-3.7-2c-.7-.4-1.7-1.6-2-2-.4-.6-.7-1.7-.7-1.7s-.5 0-1 .3l-1.3 1-.7 1V253v-.8s-.3 1.2-1 1.7l-1.4 1.2v-1l.2-1s-.5.7-1.2 1c-.7 0-1.8 0-2 .4 0 .5.3 1 0 1.4l-.4.6s-.4-.4-.8-.4h-.7s-.3-.3-.2-.5c0-.3.7-.7.5-1l-.8.3c-.3.2-1 .3-1-.2.2-.4.3-.7.2-1-.2-.3 0-.5.2-.6.2 0 1 0 1.2-.2 0-.2-.2-.5-.8-.6-.6-.2-1-.5-.6-.8l.5-.6c0-.3 0-.8.7-.5.5.2.4.8 1 1 .5.2 1.8 0 2-.3s1.3-.8 1.6-1c.3 0 1.6-1 1.6-1l-1-1c-.4-.2-1-.8-1.2-1l-2-.6-1.6-.5.8-.4c.2-.2.6-.6 1-.5h-1.3c-.3 0-1-.6-1.3-.6h-.8s.7-.4 1.3-.5c.6-.2 1 0 1 0s-1-.4-1-.7l-.8-1c0-.3-.2-.6-.6-.6s-.8.3-1 .3-.7-.2-.7-.7c0-.4 0-.3-.2-.5 0-.2-.6-.8 0-1 .3 0 1.2.2 1.3 0 .2-.2-.4-.7-.8-.8-.3-.2-1-.5-.6-.8l.8-.6s.3-1 .7-.7c.5 0 1 1 1.3 1 .3 0 .3-.8.2-1 0-.4 0-1 .3-1s.5.5 1 .5c.4 0 1 0 1 .2 0 .4-.3.8-.6 1-.3.5-.4 1.2-.2 1.6.2.5.7 1.2 1 1.5s1.4.5 2 .8c.5.4 1.7 1.4 2.2 1.5l.8.4s.5-.2 1-.2 2.3 0 3 0 1.2-.8 1-1.3c-.3-.6-1.5-1-1.4-1.5s.5-.4 1.3-.4c.7 0 1.7.2 2-1 0-1 .2-1.5-1-1.8-1-.2-1.8-.2-2-1-.2-.8-.4-1 0-1.2 0-.2.5-.3 1.3-.4.8 0 1.7 0 2-.2.2-.2.2-.7.5-1l1.6-.3s1.4.8 2.8 1.8c1.2 1 2.3 2.2 2.3 2.2" fill="#ed72aa"/><path d="M273 236.2v-.6c-.2 0-.3-.3-.3-.3s1 0 1 .3-.4.3-.5.4v.2"/><path stroke="#000" stroke-width=".3" d="M273 236.2v-.6c-.2 0-.3-.3-.3-.3s1 0 1 .3-.4.3-.5.4v.2z" fill="none"/><path d="M277 234.8v-.4s.8 0 1 .3c.7.4 1 1 1 1l-.8-.3h-.5c-.2 0-.3 0-.3-.2v-.3l-.3-.2"/><path stroke="#000" stroke-width=".1" d="M277 234.8v-.4s.8 0 1 .3c.7.4 1 1 1 1l-.8-.3h-.5c-.2 0-.3 0-.3-.2v-.3l-.3-.2z" fill="none"/><path stroke="#000" stroke-width=".3" d="M282.6 241l-.5-.7v-.5" fill="none"/><path d="M262 236s.4.4.7.5h1v-1c-.2-1-1.3-1.3-1.3-1.3s.3.7 0 1c0 .5-.5 1-.5 1" fill="#db4446"/><path stroke="#000" stroke-width=".4" d="M262 236s.4.4.7.5h1v-1c-.2-1-1.3-1.3-1.3-1.3s.3.7 0 1c0 .5-.5 1-.5 1z" fill="none"/><path d="M259.6 237s-.4-.6-1.3-.5c-1 0-1.5.8-1.5.8s1 0 1.2 0c.4.3.5 1 .5 1l.7-.6.4-.6" fill="#db4446"/><path stroke="#000" stroke-width=".4" d="M259.6 237s-.4-.6-1.3-.5c-1 0-1.5.8-1.5.8s1 0 1.2 0c.4.3.5 1 .5 1l.7-.6.4-.6z" fill="none"/><path d="M258.5 240.3s-.8 0-1.2.5c-.4.5-.4 1.4-.4 1.4s.4-.5 1-.5l1 .2-.2-1-.3-.7" fill="#db4446"/><path stroke="#000" stroke-width=".4" d="M258.5 240.3s-.8 0-1.2.5c-.4.5-.4 1.4-.4 1.4s.4-.5 1-.5l1 .2-.2-1-.3-.7z" fill="none"/><path d="M273 240l.4-.4.3.5h-.6"/><path stroke="#000" stroke-width=".3" d="M273 240l.4-.4.3.5h-.6" fill="none"/><path d="M274 240l.3-.4.4.5h-.8"/><path stroke="#000" stroke-width=".3" d="M274 240l.3-.4.4.5h-.8" fill="none"/><path d="M273.5 236.8l.8.3-.7.5v-.7"/><path stroke="#000" stroke-width=".3" d="M273.5 236.8l.8.3-.7.5v-.7" fill="none"/><path d="M274.5 237l.7.3-.5.4-.2-.6"/><path stroke="#000" stroke-width=".3" d="M274.5 237l.7.3-.5.4-.2-.6" fill="none"/><path stroke="#000" stroke-width=".4" d="M269 243.4s-.8.2-1 .7c-.5.6-.4 1-.4 1s.6-.4 1.5-.2l1.5.3 1.2-.3s-.7 1-.6 1.5c0 .6.3.8.2 1 0 1-.6 1.8-.6 1.8l1-.4c.8-.2 1.4-.5 1.8-.8l1-1s-.2 1 0 1.4l.2 1.7.8-.8c.2 0 .7-.3 1-.7l.2-1s0 1 .4 1.3c.3.4.7 1.8.7 1.8s.3-1 .6-1.2.7-.8.7-1v-1l.3 1m-11.4.5s.4-1 1-1.2l1-.8c.3 0 1-.5 1-.5m1 5.2l1.4-.7c.7-.4 1.2-1.2 1.2-1.2" fill="none"/><path d="M261 250.4s-.4-.5-1-.4c-.8.2-1.3 1-1.3 1s.6 0 1 0c.3 0 .6.4.6.4l.4-.5.4-.6" fill="#db4446"/><path stroke="#000" stroke-width=".4" d="M261 250.4s-.4-.5-1-.4c-.8.2-1.3 1-1.3 1s.6 0 1 0c.3 0 .6.4.6.4l.4-.5.4-.6z" fill="none"/><path d="M260.2 253.3s-.6 0-1.2.4c-.5.4-.5 1.2-.5 1.2s.5-.5 1-.4l.8.2v-.6c.2-.4 0-1 0-1" fill="#db4446"/><path stroke="#000" stroke-width=".4" d="M260.2 253.3s-.6 0-1.2.4c-.5.4-.5 1.2-.5 1.2s.5-.5 1-.4l.8.2v-.6c.2-.4 0-1 0-1z" fill="none"/><path d="M261.7 256s0 1 .3 1.4c.4.5 1 .5 1 .5l-.2-1c0-.3.4-.6.4-.6s-.4-.4-.7-.4h-.8" fill="#db4446"/><path stroke="#000" stroke-width=".4" d="M261.7 256s0 1 .3 1.4c.4.5 1 .5 1 .5l-.2-1c0-.3.4-.6.4-.6s-.4-.4-.7-.4h-.8zM278.3 257.4s2 1.3 2 2.3c0 1-1 2.4-1 2.4" fill="none"/><path d="M269 263s-.5-.5-1.2-.5-1.5.7-1.5.7 1 0 1.2.2l.4.7.5-.3.5-.6" fill="#db4446"/><path stroke="#000" stroke-width=".4" d="M269 263s-.5-.5-1.2-.5-1.5.7-1.5.7 1 0 1.2.2l.4.7.5-.3.5-.6z" fill="none"/><path d="M266.8 266s-1-.2-1.4.3c-.4.5-.4 1.3-.4 1.3s.6-.6 1-.5l1.2.4-.2-.8-.2-.7" fill="#db4446"/><path stroke="#000" stroke-width=".4" d="M266.8 266s-1-.2-1.4.3c-.4.5-.4 1.3-.4 1.3s.6-.6 1-.5l1.2.4-.2-.8-.2-.7z" fill="none"/><path d="M268.8 269s-.4.5 0 1 1 .8 1 .8-.3-.4-.2-.8c0-.3.7-.8.7-.8l-1.5-.3" fill="#db4446"/><path stroke="#000" stroke-width=".4" d="M268.8 269s-.4.5 0 1 1 .8 1 .8-.3-.4-.2-.8c0-.3.7-.8.7-.8l-1.5-.3z" fill="none"/><path d="M281.2 270s-.8 0-1.2.2c-.5.3-.8 1.4-.8 1.4s.7-.6 1.2-.6c.6 0 1 .3 1 .3v-.7l-.2-.5" fill="#db4446"/><path stroke="#000" stroke-width=".4" d="M281.2 270s-.8 0-1.2.2c-.5.3-.8 1.4-.8 1.4s.7-.6 1.2-.6c.6 0 1 .3 1 .3v-.7l-.2-.5z" fill="none"/><path d="M281.6 273s-.6.7-.4 1.3l.7 1s-.2-.7 0-1c.5-.3 1-.3 1-.3l-.6-.5-.8-.4" fill="#db4446"/><path stroke="#000" stroke-width=".4" d="M281.6 273s-.6.7-.4 1.3l.7 1s-.2-.7 0-1c.5-.3 1-.3 1-.3l-.6-.5-.8-.4z" fill="none"/><path d="M284.8 274s-.4.8.2 1.3c.6.5 1 .6 1 .6s-.3-1-.2-1.3c.2-.5.6-.8.6-.8l-1-.3-.6.3" fill="#db4446"/><path stroke="#000" stroke-width=".4" d="M284.8 274s-.4.8.2 1.3c.6.5 1 .6 1 .6s-.3-1-.2-1.3c.2-.5.6-.8.6-.8l-1-.3-.6.3z" fill="none"/><path stroke="#000" stroke-width=".5" d="M253 329.6c2 .6 3 2 3 4 0 2.3-2.2 4-5.2 4s-5.5-1.7-5.5-4c0-1.8 1-3.8 3-4v-.5c-.3 0-.8-.5-.8-.5s.8-.2 1.3 0l.8.4.5-.8.8-.5.6.6.2.6.8-.6c.4 0 1-.3 1-.3l-.3.8v.7" fill="#ffd691"/><path stroke="#000" stroke-width=".5" d="M250.3 340.3s-4-2.7-5.7-3c-2.2-.5-4.7 0-5.7-.2 0 .2 1.2 1 1.7 1.6s2.4 1.7 3.4 2c3.4.7 6.3-.3 6.3-.3M251.5 340.6s2.5-2.7 5.2-3c3-.5 5.2.2 6.4.5l-1.4 1c-.6.4-2 1.6-4.2 1.6s-4.6-.3-5-.2l-1 .2" fill="#058e6e"/><path stroke="#000" stroke-width=".5" d="M250.7 337.3c-1-1-1.6-2.3-1.6-3.7 0-1.5.7-2.8 1.7-3.8 1 1 1.6 2.3 1.6 3.8 0 1.4-.6 2.7-1.6 3.7" fill="#ad1519"/><path stroke="#000" stroke-width=".5" d="M249.7 342.7s.6-1.5.7-2.8c0-1.2-.2-2.3-.2-2.3h.8s.4 1.2.4 2.2l-.2 2.2-.7.2-.8.3" fill="#058e6e"/><path d="M300 198.7c0-.6.5-1 1-1 .7 0 1.2.4 1.2 1 0 .5-.5 1-1 1-.7 0-1.2-.5-1.2-1" fill="#fff"/><path stroke="#000" stroke-width=".4" d="M300 198.7c0-.6.5-1 1-1 .7 0 1.2.4 1.2 1 0 .5-.5 1-1 1-.7 0-1.2-.5-1.2-1z" fill="none"/><path d="M301.5 196c0-.5.5-1 1-1 .7 0 1.2.5 1.2 1 0 .6-.5 1-1 1-.7 0-1.2-.4-1.2-1" fill="#fff"/><path stroke="#000" stroke-width=".4" d="M301.5 196c0-.5.5-1 1-1 .7 0 1.2.5 1.2 1 0 .6-.5 1-1 1-.7 0-1.2-.4-1.2-1z" fill="none"/><path d="M302.5 193c0-.6.5-1 1-1 .7 0 1.2.4 1.2 1 0 .5-.5 1-1 1-.7 0-1.2-.5-1.2-1" fill="#fff"/><path stroke="#000" stroke-width=".4" d="M302.5 193c0-.6.5-1 1-1 .7 0 1.2.4 1.2 1 0 .5-.5 1-1 1-.7 0-1.2-.5-1.2-1z" fill="none"/><path d="M302.6 189.6c0-.5.5-1 1-1 .7 0 1.2.5 1.2 1 0 .6-.5 1-1 1-.7 0-1.2-.4-1.2-1" fill="#fff"/><path stroke="#000" stroke-width=".4" d="M302.6 189.6c0-.5.5-1 1-1 .7 0 1.2.5 1.2 1 0 .6-.5 1-1 1-.7 0-1.2-.4-1.2-1z" fill="none"/><path d="M301.8 186.4c0-.6.5-1 1-1 .7 0 1.2.4 1.2 1s-.5 1-1 1c-.7 0-1.2-.4-1.2-1" fill="#fff"/><path stroke="#000" stroke-width=".4" d="M301.8 186.4c0-.6.5-1 1-1 .7 0 1.2.4 1.2 1s-.5 1-1 1c-.7 0-1.2-.4-1.2-1z" fill="none"/><path d="M300 183.4c0-.5.6-1 1.2-1s1 .5 1 1c0 .6-.4 1-1 1s-1-.4-1-1" fill="#fff"/><path stroke="#000" stroke-width=".4" d="M300 183.4c0-.5.6-1 1.2-1s1 .5 1 1c0 .6-.4 1-1 1s-1-.4-1-1z" fill="none"/><path d="M298 181c0-.5.4-1 1-1s1 .5 1 1c0 .6-.4 1-1 1s-1-.4-1-1" fill="#fff"/><path stroke="#000" stroke-width=".4" d="M298 181c0-.5.4-1 1-1s1 .5 1 1c0 .6-.4 1-1 1s-1-.4-1-1z" fill="none"/><path d="M295.3 179c0-.6.5-1 1-1 .7 0 1.2.4 1.2 1s-.5 1-1 1c-.7 0-1.2-.4-1.2-1" fill="#fff"/><path stroke="#000" stroke-width=".4" d="M295.3 179c0-.6.5-1 1-1 .7 0 1.2.4 1.2 1s-.5 1-1 1c-.7 0-1.2-.4-1.2-1z" fill="none"/><path d="M292 177.4c0-.6.6-1 1.2-1s1 .4 1 1c0 .5-.4 1-1 1s-1-.5-1-1" fill="#fff"/><path stroke="#000" stroke-width=".4" d="M292 177.4c0-.6.6-1 1.2-1s1 .4 1 1c0 .5-.4 1-1 1s-1-.5-1-1z" fill="none"/><path d="M289 176.2c0-.6.4-1 1-1s1 .4 1 1-.4 1-1 1-1-.4-1-1" fill="#fff"/><path stroke="#000" stroke-width=".4" d="M289 176.2c0-.6.4-1 1-1s1 .4 1 1-.4 1-1 1-1-.4-1-1z" fill="none"/><path d="M285.3 175.5c0-.5.5-1 1-1 .7 0 1.2.5 1.2 1s-.5 1-1 1c-.7 0-1.2-.4-1.2-1" fill="#fff"/><path stroke="#000" stroke-width=".4" d="M285.3 175.5c0-.5.5-1 1-1 .7 0 1.2.5 1.2 1s-.5 1-1 1c-.7 0-1.2-.4-1.2-1z" fill="none"/><path d="M281.8 175.4c0-.6.5-1 1-1 .7 0 1.2.4 1.2 1 0 .5-.5 1-1 1-.7 0-1.2-.5-1.2-1" fill="#fff"/><path stroke="#000" stroke-width=".4" d="M281.8 175.4c0-.6.5-1 1-1 .7 0 1.2.4 1.2 1 0 .5-.5 1-1 1-.7 0-1.2-.5-1.2-1z" fill="none"/><path d="M278.5 175.5c0-.6.5-1 1-1 .7 0 1.2.4 1.2 1s-.5 1-1 1c-.7 0-1.2-.5-1.2-1" fill="#fff"/><path stroke="#000" stroke-width=".4" d="M278.5 175.5c0-.6.5-1 1-1 .7 0 1.2.4 1.2 1s-.5 1-1 1c-.7 0-1.2-.5-1.2-1z" fill="none"/><path d="M275 175.5c0-.6.6-1 1.2-1s1 .4 1 1-.4 1-1 1-1-.5-1-1" fill="#fff"/><path stroke="#000" stroke-width=".4" d="M275 175.5c0-.6.6-1 1.2-1s1 .4 1 1-.4 1-1 1-1-.5-1-1z" fill="none"/><path stroke="#000" stroke-width=".4" d="M276.8 178.4c0-.6.5-1 1-1 .7 0 1.2.4 1.2 1s-.5 1-1 1c-.7 0-1.2-.5-1.2-1M277.5 181.6c0-.6.5-1 1-1 .7 0 1.2.4 1.2 1 0 .5-.5 1-1 1-.7 0-1.2-.5-1.2-1M277.6 184.8c0-.6.5-1 1-1 .7 0 1.2.4 1.2 1s-.5 1-1 1c-.7 0-1.2-.5-1.2-1M276.6 187.7c0-.6.5-1 1-1 .7 0 1.2.4 1.2 1 0 .5-.5 1-1 1-.7 0-1.2-.5-1.2-1M274.7 190.3c0-.6.5-1 1-1 .7 0 1.2.4 1.2 1s-.6 1-1.2 1-1-.4-1-1" fill="#fff"/><path d="M272.5 173.5c0-.6.5-1 1-1 .8 0 1.2.4 1.2 1s-.4 1-1 1c-.7 0-1.2-.5-1.2-1" fill="#fff"/><path stroke="#000" stroke-width=".4" d="M272.5 173.5c0-.6.5-1 1-1 .8 0 1.2.4 1.2 1s-.4 1-1 1c-.7 0-1.2-.5-1.2-1z" fill="none"/><path d="M269.6 171.8c0-.6.4-1 1-1s1 .4 1 1-.4 1-1 1-1-.4-1-1" fill="#fff"/><path stroke="#000" stroke-width=".4" d="M269.6 171.8c0-.6.4-1 1-1s1 .4 1 1-.4 1-1 1-1-.4-1-1z" fill="none"/><path d="M266.2 170.8c0-.6.5-1 1-1 .8 0 1.2.4 1.2 1s-.4 1-1 1c-.7 0-1.2-.4-1.2-1" fill="#fff"/><path stroke="#000" stroke-width=".4" d="M266.2 170.8c0-.6.5-1 1-1 .8 0 1.2.4 1.2 1s-.4 1-1 1c-.7 0-1.2-.4-1.2-1z" fill="none"/><path d="M262.8 170.2c0-.5.5-1 1-1 .7 0 1.2.5 1.2 1s-.5 1-1 1c-.7 0-1.2-.4-1.2-1" fill="#fff"/><path stroke="#000" stroke-width=".4" d="M262.8 170.2c0-.5.5-1 1-1 .7 0 1.2.5 1.2 1s-.5 1-1 1c-.7 0-1.2-.4-1.2-1z" fill="none"/><path d="M259.4 170.3c0-.6.5-1 1-1 .7 0 1.2.4 1.2 1s-.5 1-1 1c-.7 0-1.2-.4-1.2-1" fill="#fff"/><path stroke="#000" stroke-width=".4" d="M259.4 170.3c0-.6.5-1 1-1 .7 0 1.2.4 1.2 1s-.5 1-1 1c-.7 0-1.2-.4-1.2-1z" fill="none"/><path d="M256 171c0-.7.4-1.2 1-1.2s1 .5 1 1c0 .6-.4 1-1 1s-1-.4-1-1" fill="#fff"/><path stroke="#000" stroke-width=".4" d="M256 171c0-.7.4-1.2 1-1.2s1 .5 1 1c0 .6-.4 1-1 1s-1-.4-1-1z" fill="none"/><path d="M252.7 172c0-.6.5-1 1-1 .7 0 1.2.4 1.2 1s-.6 1-1.2 1-1-.4-1-1" fill="#fff"/><path stroke="#000" stroke-width=".4" d="M252.7 172c0-.6.5-1 1-1 .7 0 1.2.4 1.2 1s-.6 1-1.2 1-1-.4-1-1z" fill="none"/><path d="M197.8 198.7c0-.6.5-1 1-1 .7 0 1.2.4 1.2 1 0 .5-.5 1-1 1-.7 0-1.2-.5-1.2-1" fill="#fff"/><path stroke="#000" stroke-width=".4" d="M197.8 198.7c0-.6.5-1 1-1 .7 0 1.2.4 1.2 1 0 .5-.5 1-1 1-.7 0-1.2-.5-1.2-1z" fill="none"/><path d="M196.3 196c0-.5.5-1 1-1 .7 0 1.2.5 1.2 1 0 .6-.5 1-1 1-.7 0-1.2-.4-1.2-1" fill="#fff"/><path stroke="#000" stroke-width=".4" d="M196.3 196c0-.5.5-1 1-1 .7 0 1.2.5 1.2 1 0 .6-.5 1-1 1-.7 0-1.2-.4-1.2-1z" fill="none"/><path d="M195.3 193c0-.6.5-1 1-1 .7 0 1.2.4 1.2 1 0 .5-.5 1-1 1-.7 0-1.2-.5-1.2-1" fill="#fff"/><path stroke="#000" stroke-width=".4" d="M195.3 193c0-.6.5-1 1-1 .7 0 1.2.4 1.2 1 0 .5-.5 1-1 1-.7 0-1.2-.5-1.2-1z" fill="none"/><path d="M195.2 189.6c0-.5.5-1 1-1 .7 0 1.2.5 1.2 1 0 .6-.5 1-1 1-.7 0-1.2-.4-1.2-1" fill="#fff"/><path stroke="#000" stroke-width=".4" d="M195.2 189.6c0-.5.5-1 1-1 .7 0 1.2.5 1.2 1 0 .6-.5 1-1 1-.7 0-1.2-.4-1.2-1z" fill="none"/><path d="M196 186.4c0-.6.5-1 1-1 .7 0 1.2.4 1.2 1s-.5 1-1 1c-.7 0-1.2-.4-1.2-1" fill="#fff"/><path stroke="#000" stroke-width=".4" d="M196 186.4c0-.6.5-1 1-1 .7 0 1.2.4 1.2 1s-.5 1-1 1c-.7 0-1.2-.4-1.2-1z" fill="none"/><path d="M197.7 183.4c0-.5.5-1 1-1 .7 0 1.2.5 1.2 1 0 .6-.6 1-1.2 1s-1-.4-1-1" fill="#fff"/><path stroke="#000" stroke-width=".4" d="M197.7 183.4c0-.5.5-1 1-1 .7 0 1.2.5 1.2 1 0 .6-.6 1-1.2 1s-1-.4-1-1z" fill="none"/><path d="M200 181c0-.5.5-1 1-1 .7 0 1.2.5 1.2 1 0 .6-.5 1-1 1-.7 0-1.2-.4-1.2-1" fill="#fff"/><path stroke="#000" stroke-width=".4" d="M200 181c0-.5.5-1 1-1 .7 0 1.2.5 1.2 1 0 .6-.5 1-1 1-.7 0-1.2-.4-1.2-1z" fill="none"/><path d="M202.6 179c0-.6.5-1 1-1 .7 0 1.2.4 1.2 1s-.5 1-1 1c-.7 0-1.2-.4-1.2-1" fill="#fff"/><path stroke="#000" stroke-width=".4" d="M202.6 179c0-.6.5-1 1-1 .7 0 1.2.4 1.2 1s-.5 1-1 1c-.7 0-1.2-.4-1.2-1z" fill="none"/><path d="M205.7 177.4c0-.6.5-1 1-1 .7 0 1.2.4 1.2 1 0 .5-.6 1-1.2 1s-1-.5-1-1" fill="#fff"/><path stroke="#000" stroke-width=".4" d="M205.7 177.4c0-.6.5-1 1-1 .7 0 1.2.4 1.2 1 0 .5-.6 1-1.2 1s-1-.5-1-1z" fill="none"/><path d="M209 176.2c0-.6.4-1 1-1s1 .4 1 1-.4 1-1 1-1-.4-1-1" fill="#fff"/><path stroke="#000" stroke-width=".4" d="M209 176.2c0-.6.4-1 1-1s1 .4 1 1-.4 1-1 1-1-.4-1-1z" fill="none"/><path d="M212.6 175.5c0-.5.5-1 1-1s1.2.5 1.2 1-.5 1-1 1-1.2-.4-1.2-1" fill="#fff"/><path stroke="#000" stroke-width=".4" d="M212.6 175.5c0-.5.5-1 1-1s1.2.5 1.2 1-.5 1-1 1-1.2-.4-1.2-1z" fill="none"/><path d="M216 175.4c0-.6.5-1 1-1 .7 0 1.2.4 1.2 1 0 .5-.5 1-1 1-.7 0-1.2-.5-1.2-1" fill="#fff"/><path stroke="#000" stroke-width=".4" d="M216 175.4c0-.6.5-1 1-1 .7 0 1.2.4 1.2 1 0 .5-.5 1-1 1-.7 0-1.2-.5-1.2-1z" fill="none"/><path d="M219.4 175.5c0-.6.5-1 1-1 .7 0 1.2.4 1.2 1s-.5 1-1 1c-.7 0-1.2-.5-1.2-1" fill="#fff"/><path stroke="#000" stroke-width=".4" d="M219.4 175.5c0-.6.5-1 1-1 .7 0 1.2.4 1.2 1s-.5 1-1 1c-.7 0-1.2-.5-1.2-1z" fill="none"/><path d="M222.8 175.5c0-.6.4-1 1-1s1 .4 1 1-.4 1-1 1-1-.5-1-1" fill="#fff"/><path stroke="#000" stroke-width=".4" d="M222.8 175.5c0-.6.4-1 1-1s1 .4 1 1-.4 1-1 1-1-.5-1-1z" fill="none"/><path stroke="#000" stroke-width=".4" d="M221 178.4c0-.6.6-1 1.2-1s1 .4 1 1-.4 1-1 1-1-.5-1-1M220.4 181.6c0-.6.5-1 1-1s1.2.4 1.2 1c0 .5-.5 1-1 1s-1.2-.5-1.2-1M220.3 184.8c0-.6.4-1 1-1s1 .4 1 1-.4 1-1 1-1-.5-1-1M221.3 187.7c0-.6.4-1 1-1s1 .4 1 1c0 .5-.4 1-1 1s-1-.5-1-1M223 190.3c0-.6.6-1 1.2-1s1 .4 1 1-.4 1-1 1-1-.4-1-1" fill="#fff"/><path d="M225.3 173.5c0-.6.5-1 1-1 .7 0 1.2.4 1.2 1s-.5 1-1 1c-.7 0-1.2-.5-1.2-1" fill="#fff"/><path stroke="#000" stroke-width=".4" d="M225.3 173.5c0-.6.5-1 1-1 .7 0 1.2.4 1.2 1s-.5 1-1 1c-.7 0-1.2-.5-1.2-1z" fill="none"/><path d="M228.3 171.8c0-.6.5-1 1-1 .7 0 1.2.4 1.2 1s-.5 1-1 1c-.7 0-1.2-.4-1.2-1" fill="#fff"/><path stroke="#000" stroke-width=".4" d="M228.3 171.8c0-.6.5-1 1-1 .7 0 1.2.4 1.2 1s-.5 1-1 1c-.7 0-1.2-.4-1.2-1z" fill="none"/><path d="M231.6 170.8c0-.6.5-1 1-1 .7 0 1.2.4 1.2 1s-.5 1-1 1c-.7 0-1.2-.4-1.2-1" fill="#fff"/><path stroke="#000" stroke-width=".4" d="M231.6 170.8c0-.6.5-1 1-1 .7 0 1.2.4 1.2 1s-.5 1-1 1c-.7 0-1.2-.4-1.2-1z" fill="none"/><path d="M235 170.2c0-.5.5-1 1-1 .7 0 1.2.5 1.2 1s-.5 1-1 1c-.7 0-1.2-.4-1.2-1" fill="#fff"/><path stroke="#000" stroke-width=".4" d="M235 170.2c0-.5.5-1 1-1 .7 0 1.2.5 1.2 1s-.5 1-1 1c-.7 0-1.2-.4-1.2-1z" fill="none"/><path d="M238.4 170.3c0-.6.5-1 1-1 .7 0 1.2.4 1.2 1s-.5 1-1 1c-.7 0-1.2-.4-1.2-1" fill="#fff"/><path stroke="#000" stroke-width=".4" d="M238.4 170.3c0-.6.5-1 1-1 .7 0 1.2.4 1.2 1s-.5 1-1 1c-.7 0-1.2-.4-1.2-1z" fill="none"/><path d="M242 171c0-.7.4-1.2 1-1.2s1 .5 1 1c0 .6-.4 1-1 1s-1-.4-1-1" fill="#fff"/><path stroke="#000" stroke-width=".4" d="M242 171c0-.7.4-1.2 1-1.2s1 .5 1 1c0 .6-.4 1-1 1s-1-.4-1-1z" fill="none"/><path d="M245 172c0-.6.6-1 1.2-1s1 .4 1 1-.4 1-1 1-1-.4-1-1" fill="#fff"/><path stroke="#000" stroke-width=".4" d="M245 172c0-.6.6-1 1.2-1s1 .4 1 1-.4 1-1 1-1-.4-1-1z" fill="none"/><path stroke="#000" stroke-width=".5" d="M217.3 238.4h-1v-1H215v3.8h1.6v2.5H213v7.4h1.8v15H211v7.5h28.5V266h-3.7v-15h2v-7.3H234v-2.5h1.6v-3.7h-1.6v1h-1v-1h-1.5v1h-1.2v-1H229v3.7h1.5v2.5H227v-8h2v-3.8h-2v1h-1v-1h-1.5v1h-1v-1h-1.8v3.6h2v8H220v-2.4h1.7v-3.7H220v1h-.8v-1h-2v1zm-6.2 35h28.5m-28.4-1.7h28.5m-28.4-2h28.5M211 268h28.5m-28.4-2h28.5m-24.7-1.7h21m-21-2h21m-21-2h21m-21-1.8h21m-21-1.8h21m-21-2h21m-21-1.7h21m-23-2h25m-25-1.7h25m-25-2h25m-25-1.7h25m-21.4-2h17.8m-10.6-1.7h3.4m-3.4-2h3.4m-3.4-1.8h3.4m-3.4-2h3.4m-5.3-2.2h7.2m-12.6 8h3.7m-5.2-2.4h7m-7 34v-2m0-1.8V268m-2 1.8v2m3.6 0v-2m2 3.7v-1.8m0-2V268m0-2v-1.7m0-2v-2m-2 7.7v-2m-3.5 2v-2m7 0v2m1.7-2v-1.7m-5.3-2v2m3.7-2v2m3.6-2v2m-2-2v-2m2-1.8v2m0-5.7v2m-2-3.8v1.8m2-3.7v2m-3.5-2v2m-3.6-2v2m-1.6-3.7v1.8m3.5-1.7v1.8m3.4-1.7v1.8m2-3.6v2m-3.6-2v2m-3.6-2v2m-1.6-3.8v1.8m7-1.8v1.8m-3.5-5.5v1.7m16-1.8h-3.8m5.3-2.4h-7m7 34v-2m0-1.8V268m2 1.8v2m-3.6 0v-2m-1.8 3.7v-1.8m0-2V268m0-2v-1.7m0-2v-2m1.8 7.7v-2m3.5 2v-2m-7.2 0v2m-1.6-2v-1.7m5.2-2v2m-3.7-2v2m-3.5-2v2m2-2v-2m-2-1.8v2m0-5.7v2m2-3.8v1.8m-2-3.7v2m3.5-2v2m3.7-2v2m1.6-3.7v1.8m-3.4-1.7v1.8m-3.5-1.7v1.8m-2-3.6v2m3.5-2v2m3.7-2v2m1.6-3.8v1.8m-7-1.8v1.8m3.6-5.5v1.7m-7.2 18.7v-2m0-5.6V253m0 5.5v-1.8m0-5.6v-1.7m0-2v-1.7m0-3.7v-2m0-1.8v-2m-8.8 5h3.7m3.6-5.6h3.4m3.5 5.6h3.7" fill="#c8b100"/><path stroke="#000" stroke-width=".5" d="M230 273.5v-4.8c0-1-.4-3.7-4.8-3.7-4.2 0-4.6 2.8-4.6 3.7v4.8h9.5z" fill="#c8b100"/><path stroke="#000" stroke-width=".5" d="M222.2 269l-2.3-.3c0-1 0-2.3.8-2.8l2 1.5c0 .3-.6 1-.6 1.4zM228.4 269l2.3-.3c0-1-.2-2.3-1-2.8l-2 1.5c.3.3.7 1 .7 1.4zM226 266.6l1.3-2c-.5-.3-1.4-.5-2-.5-.6 0-1.5.3-2 .5l1.2 2h1.6zM221.7 260.8v-5c0-1.4-1-2.6-2.5-2.6s-2.5 1.2-2.5 2.5v5h5zM229 260.8v-5c0-1.4.8-2.6 2.4-2.6 1.6 0 2.6 1.2 2.6 2.5v5h-5zM227 248.3l.5-4.6H223l.4 4.7h3.7zM230.5 248.3l-.5-4.6h4.7l-.5 4.7h-3.7zM220 248.3l.3-4.6H216l.4 4.7h3.7z" fill="#c8b100"/><path d="M228.4 273.5v-4c0-.8-.4-3-3.2-3-2.5 0-3 2.2-3 3v4h6.2zM221.3 260.4V256c0-1.2-.7-2.3-2-2.3s-2.2 1-2.2 2.3v4.4h4.3zM229.4 260.4V256c0-1.2.7-2.3 2-2.3 1.4 0 2 1 2 2.3v4.4h-4z" fill="#0039f0"/><path d="M234.2 281c0-10 7.3-18.3 16.2-18.3s16.3 8.2 16.3 18.3c0 10-7.3 18.3-16.3 18.3s-16.2-8.2-16.2-18.3" fill="#ad1519"/><path stroke="#000" stroke-width=".6" d="M234.2 281c0-10 7.3-18.3 16.2-18.3s16.3 8.2 16.3 18.3c0 10-7.3 18.3-16.3 18.3s-16.2-8.2-16.2-18.3z" fill="none"/><path d="M239 281c0-7.4 5-13.4 11.4-13.4 6.3 0 11.5 6 11.5 13.4s-5.2 13.4-11.6 13.4c-6.3 0-11.4-6-11.4-13.4" fill="#005bbf"/><path stroke="#000" stroke-width=".6" d="M239 281c0-7.4 5-13.4 11.4-13.4 6.3 0 11.5 6 11.5 13.4s-5.2 13.4-11.6 13.4c-6.3 0-11.4-6-11.4-13.4z" fill="none"/><path d="M245 271.7s-1.3 1.5-1.3 3c0 1.3.6 2.4.6 2.4-.3-.4-.8-.8-1.5-.8-.8 0-1.5.6-1.5 1.4l.3.8.5 1c.2-.4.6-.6 1-.6.6 0 1 .5 1 1v.3h-1v1h1l-.8 1.7 1-.4.8 1 1-1 1 .4-1-1.6h1.2v-1H246v-.2c0-.5.5-1 1-1s1 .2 1 .6l.5-1 .3-.8c0-.8-.7-1.4-1.5-1.4-.7 0-1.2.4-1.4 1 0 0 .4-1.2.4-2.6 0-1.4-1.4-3-1.4-3" fill="#c8b100"/><path stroke-linejoin="round" stroke="#000" stroke-width=".3" d="M245 271.7s-1.3 1.5-1.3 3c0 1.3.6 2.4.6 2.4-.3-.4-.8-.8-1.5-.8-.8 0-1.5.6-1.5 1.4l.3.8.5 1c.2-.4.6-.6 1-.6.6 0 1 .5 1 1v.3h-1v1h1l-.8 1.7 1-.4.8 1 1-1 1 .4-1-1.6h1.2v-1H246v-.2c0-.5.5-1 1-1s1 .2 1 .6l.5-1 .3-.8c0-.8-.7-1.4-1.5-1.4-.7 0-1.2.4-1.4 1 0 0 .4-1.2.4-2.6 0-1.4-1.4-3-1.4-3z" fill="none"/><path d="M243 281h4.2v-1H243v1z" fill="#c8b100"/><path stroke="#000" stroke-width=".3" d="M243 281h4.2v-1H243v1z" fill="none"/><path d="M255.7 271.7s-1.4 1.5-1.4 3c0 1.3.6 2.4.6 2.4-.3-.4-1-.8-1.5-.8-1 0-1.5.6-1.5 1.4 0 .2 0 .6.2.8l.5 1c.2-.4.5-.6 1-.6.6 0 1 .5 1 1v.3h-1.2v1h1l-.7 1.7 1-.4 1 1 .7-1 1 .4-.7-1.6h1v-1h-1.2v-.2c0-.5.5-1 1-1s1 .2 1 .6l.5-1 .4-.8c0-.8-.7-1.4-1.5-1.4s-1.3.4-1.5 1c0 0 .5-1.2.5-2.6 0-1.4-1.3-3-1.3-3" fill="#c8b100"/><path stroke-linejoin="round" stroke="#000" stroke-width=".3" d="M255.7 271.7s-1.4 1.5-1.4 3c0 1.3.6 2.4.6 2.4-.3-.4-1-.8-1.5-.8-1 0-1.5.6-1.5 1.4 0 .2 0 .6.2.8l.5 1c.2-.4.5-.6 1-.6.6 0 1 .5 1 1v.3h-1.2v1h1l-.7 1.7 1-.4 1 1 .7-1 1 .4-.7-1.6h1v-1h-1.2v-.2c0-.5.5-1 1-1s1 .2 1 .6l.5-1 .4-.8c0-.8-.7-1.4-1.5-1.4s-1.3.4-1.5 1c0 0 .5-1.2.5-2.6 0-1.4-1.3-3-1.3-3z" fill="none"/><path d="M253.5 281h4.3v-1h-4.3v1z" fill="#c8b100"/><path stroke="#000" stroke-width=".3" d="M253.5 281h4.3v-1h-4.3v1z" fill="none"/><path d="M250.3 281s-1.3 1.4-1.3 2.7.6 2.6.6 2.6c-.2-.6-.8-1-1.5-1s-1.4.7-1.4 1.5l.3.7.4 1c0-.3.5-.6 1-.6.6 0 1 .4 1 1v.2h-1.2v1h1l-.7 1.7 1-.6.8 1 1-1 1 .5-1-1.7h1.2v-1h-1.2v-.3c0-.6.5-1 1-1s1 .2 1 .5l.5-1 .3-.7c0-.8-.6-1.5-1.4-1.5-.7 0-1.2.4-1.4 1 0 0 .5-1.2.5-2.6s-1.4-2.8-1.4-2.8" fill="#c8b100"/><path stroke-linejoin="round" stroke="#000" stroke-width=".3" d="M250.3 281s-1.3 1.4-1.3 2.7.6 2.6.6 2.6c-.2-.6-.8-1-1.5-1s-1.4.7-1.4 1.5l.3.7.4 1c0-.3.5-.6 1-.6.6 0 1 .4 1 1v.2h-1.2v1h1l-.7 1.7 1-.6.8 1 1-1 1 .5-1-1.7h1.2v-1h-1.2v-.3c0-.6.5-1 1-1s1 .2 1 .5l.5-1 .3-.7c0-.8-.6-1.5-1.4-1.5-.7 0-1.2.4-1.4 1 0 0 .5-1.2.5-2.6s-1.4-2.8-1.4-2.8z" fill="none"/><path d="M248.2 290.3h4.3v-1h-4.3v1z" fill="#c8b100"/><path stroke="#000" stroke-width=".3" d="M248.2 290.3h4.3v-1h-4.3v1z" fill="none"/><path d="M283 232.7h-.4l-.3.4c-.2.3-.6.4-.8.2l-.2-.5h-.5c-.2 0-.3-.5 0-.8V231.3h-.4v.3c-.3.3-.6.3-.8.2v-.4h-.3c-.5.3-.7-1-.8-1.2v.2s0 .7 0 1.3c0 .5-.3 1-.3 1 .7.3 1.8 1 3 1.8s2 1.7 2.3 2.4l1.2-.5 1.3-.2.2-.2c-.3 0-1.5 0-1.5-.5 0 0 0-.2-.2-.2s-.2-.4 0-.7l.2-.2v-.4h-.4v.2c-.4.2-.8.3-1 0 0 0-.2-.2 0-.4h-.5c-.3-.2-.4-.6-.2-1l.4-.2v-.3" fill="#c8b100"/><path stroke="#000" stroke-width=".3" d="M283 232.7h-.4l-.3.4c-.2.3-.6.4-.8.2l-.2-.5h-.5c-.2 0-.3-.5 0-.8V231.3h-.4v.3c-.3.3-.6.3-.8.2v-.4h-.3c-.5.3-.7-1-.8-1.2v.2s0 .7 0 1.3c0 .5-.3 1-.3 1 .7.3 1.8 1 3 1.8s2 1.7 2.3 2.4l1.2-.5 1.3-.2.2-.2c-.3 0-1.5 0-1.5-.5 0 0 0-.2-.2-.2s-.2-.4 0-.7l.2-.2v-.4h-.4v.2c-.4.2-.8.3-1 0 0 0-.2-.2 0-.4h-.5c-.3-.2-.4-.6-.2-1l.4-.2v-.3z" fill="none"/><path d="M280.6 233.4h.3v.2h-.3v-.2"/><path stroke="#000" stroke-width=".1" d="M280.6 233.4h.3v.2h-.3v-.2z" fill="none"/><path d="M281.6 234.2l-.4-.3v-.2h.2l.3.2.3.3h-.4"/><path stroke="#000" stroke-width=".1" d="M281.6 234.2l-.4-.3v-.2h.2l.3.2.3.3h-.4" fill="none"/><path d="M279.8 233h-.2v-.3h.3l.2.3c0 .2 0 .2 0 0h-.4"/><path stroke="#000" stroke-width=".1" d="M279.8 233h-.2v-.3h.3l.2.3c0 .2 0 .2 0 0h-.4" fill="none"/><path d="M278.8 232.3h.2v.2l-.2-.2"/><path stroke="#000" stroke-width=".1" d="M278.8 232.3h.2v.2l-.2-.2z" fill="none"/><path d="M282.6 235v-.3h-.3v.2h.3"/><path stroke="#000" stroke-width=".1" d="M282.6 235v-.3h-.3v.2h.3z" fill="none"/><path d="M283.2 235.6l.2.2h.2l-.2-.3-.2-.3h-.2v.2l.2.2"/><path stroke="#000" stroke-width=".1" d="M283.2 235.6l.2.2h.2l-.2-.3-.2-.3h-.2v.2l.2.2" fill="none"/><path d="M284 236.4c.2 0 .2-.2 0-.2s-.2 0 0 .2"/><path stroke="#000" stroke-width=".1" d="M284 236.4c.2 0 .2-.2 0-.2s-.2 0 0 .2z" fill="none"/><path d="M281.4 230.4h-.6v1l1-.5-.4-.6" fill="#c8b100"/><path stroke="#000" stroke-width=".3" d="M281.4 230.4h-.6v1l1-.5-.4-.6" fill="none"/><path d="M279.8 230.8v.6h1l-.5-.8-.5.2" fill="#c8b100"/><path stroke="#000" stroke-width=".3" d="M279.8 230.8v.6h1l-.5-.8-.5.2" fill="none"/><path d="M281.7 232l-.5.2-.5-.7v-.2h1v.6" fill="#c8b100"/><path stroke="#000" stroke-width=".3" d="M281.7 232l-.5.2-.5-.7v-.2h1v.6" fill="none"/><path d="M280.5 231.3c0-.2.3-.2.4 0v.2s-.3.2-.4 0c0 0-.2 0 0-.2" fill="#c8b100"/><path stroke="#000" stroke-width=".3" d="M280.5 231.3c0-.2.3-.2.4 0v.2s-.3.2-.4 0c0 0-.2 0 0-.2z" fill="none"/><path d="M278.4 230.3l-.3-.7c0-.2-.3-.4-.3-.4s.4-.2 1 0c.3.4 0 1 0 1h-.3" fill="#c8b100"/><path stroke="#000" stroke-width=".3" d="M278.4 230.3l-.3-.7c0-.2-.3-.4-.3-.4s.4-.2 1 0c.3.4 0 1 0 1h-.3z" fill="none"/><path d="M279.4 230.7l-.4.3-.7-.6v-.2h1v.5" fill="#c8b100"/><path stroke="#000" stroke-width=".3" d="M279.4 230.7l-.4.3-.7-.6v-.2h1v.5" fill="none"/><path d="M278.2 230.3c0-.2.2-.2.3-.2 0 0 .2.3 0 .4l-.2.2v-.3" fill="#c8b100"/><path stroke="#000" stroke-width=".3" d="M278.2 230.3c0-.2.2-.2.3-.2 0 0 .2.3 0 .4l-.2.2v-.3z" fill="none"/><path d="M283.7 231.8h-.6l-.2.8h.2l1-.3-.3-.5" fill="#c8b100"/><path stroke="#000" stroke-width=".3" d="M283.7 231.8h-.6l-.2.8h.2l1-.3-.3-.5" fill="none"/><path d="M282 232v.6l.8.2h.2v-.2l-.5-.8-.5.2" fill="#c8b100"/><path stroke="#000" stroke-width=".3" d="M282 232v.6l.8.2h.2v-.2l-.5-.8-.5.2" fill="none"/><path d="M283.7 233.4l-.5.2-.4-.8v-.2l1 .2v.6" fill="#c8b100"/><path stroke="#000" stroke-width=".3" d="M283.7 233.4l-.5.2-.4-.8v-.2l1 .2v.6" fill="none"/><path d="M282.6 232.5h.4c.2 0 .2.3 0 .4s-.2 0-.3 0c0-.2-.2-.3 0-.5" fill="#c8b100"/><path stroke="#000" stroke-width=".3" d="M282.6 232.5h.4c.2 0 .2.3 0 .4s-.2 0-.3 0c0-.2-.2-.3 0-.5z" fill="none"/><path d="M285.6 233.6v.6l-.7.3h-.3v-.2l.4-.8h.6" fill="#c8b100"/><path stroke="#000" stroke-width=".3" d="M285.6 233.6v.6l-.7.3h-.3v-.2l.4-.8h.6" fill="none"/><path d="M285.5 235.2h-.6l-.4-.7v-.2h.2l1 .4-.3.5" fill="#c8b100"/><path stroke="#000" stroke-width=".3" d="M285.5 235.2h-.6l-.4-.7v-.2h.2l1 .4-.3.5" fill="none"/><path d="M284 233.7l-.2.5.8.3h.2l-.3-1-.5.2" fill="#c8b100"/><path stroke="#000" stroke-width=".3" d="M284 233.7l-.2.5.8.3h.2l-.3-1-.5.2" fill="none"/><path d="M285 234.6v-.4h-.5v.4h.4" fill="#c8b100"/><path stroke="#000" stroke-width=".3" d="M285 234.6v-.4h-.5v.4h.4z" fill="none"/><path d="M286.3 236.4h.8l.6.4s0-.4-.3-.8c-.4-.3-1 .2-1 .2v.2" fill="#c8b100"/><path stroke="#000" stroke-width=".3" d="M286.3 236.4h.8l.6.4s0-.4-.3-.8c-.4-.3-1 .2-1 .2v.2z" fill="none"/><path d="M285.8 235.5l-.3.5.7.5h.2v-1h-.7" fill="#c8b100"/><path stroke="#000" stroke-width=".3" d="M285.8 235.5l-.3.5.7.5h.2v-1h-.7" fill="none"/><path d="M286.4 236.5s.2-.2 0-.3h-.2l-.2.3h.4" fill="#c8b100"/><path stroke="#000" stroke-width=".3" d="M286.4 236.5s.2-.2 0-.3h-.2l-.2.3h.4zM326 213.6v.6h-2.4v-.6h1v-1.3h-.7v-.5h.5v-.6h.7v.6h.6v.5h-.6v1.3h1" fill="none"/><path d="M175.4 226.2v-1.3M175 226.2v-1.3M174.8 226.2v-1.3M174.4 226.2v-1.3" fill="none"/><path stroke="#000" stroke-width=".1" d="M174.2 226.2v-1.3M173.6 226v-1m.3 1v-1M173 226v-1m.4 1v-1M172.4 226v-1m.2 1v-1m.3 1v-1M172.2 226v-1M172 226v-1M171.7 226v-1M171.2 225.8v-.6m.3.7v-.8M171 225.8v-.6M170.8 225.7v-.4M170.5 225.7v-.4M170.3 225.6v-.2" fill="none"/><path stroke="#000" stroke-width=".2" d="M170 225.6" fill="none"/><path d="M176.8 226v-1m-.6 1v-1m-.4 1v-1M324.8 226.2V225M324.4 226.2V225M324 226.2V225M323.8 226.2V225" fill="none"/><path stroke="#000" stroke-width=".1" d="M323.5 226.2V225M323 226v-1m.2 1v-1M322.4 226v-1m.3 1v-1M321.8 226v-1m.2 1v-1m.2 1v-1M321.5 226v-1M321.3 226v-1M321 226v-1M320.6 225.8v-.6m.2.7v-.8M320.3 225.8v-.6M320 225.8v-.5M320 225.7v-.4M319.6 225.7v-.3" fill="none"/><path stroke="#000" stroke-width=".2" d="M319.3 225.6" fill="none"/><path d="M326 226v-1m-.4 1v-1m-.5 1.2V225" fill="none"/></svg>