<svg xmlns="http://www.w3.org/2000/svg" xmlns:xlink="http://www.w3.org/1999/xlink" version="1" width="1200" height="600"><path fill="#ffb700" d="M0 0h1200v600H0z"/><path fill="#ff5b00" d="M215 50h165v500H215z"/><path fill="#005641" d="M50 50h165v500H50z"/><path fill="#8d2029" d="M430 50h725v500H430z"/><use transform="matrix(-1 0 0 1 1585 0)" width="1200" height="600" xlink:href="#a"/><use transform="matrix(1 0 0 -1 0 600)" width="1200" height="600" xlink:href="#a"/><use transform="rotate(180 792.5 300)" width="1200" height="600" xlink:href="#a"/><path d="M499 466s-7 14-14.4 19.5c-11 8.4-34 7.8-43.6 17.5-11.6 11.5 1 26.7.8 28l-.6 8s7.8.2 11 .7c5 .7 7 4.8 16.2 4.2 23.2-1.6 22.2-22.5 23.6-40.4 1-6.8 3.8-15.6 5.3-22.4 1.4-6 1.6-15 1.6-15z" id="a" fill="#ffb700" fill-rule="evenodd" stroke="#000" stroke-width="2.1"/><path d="M681.5 479.6l4.4-2.6 1.8 2.6c2.4 3.3 9.3 3.3 14 0l3.4-2.7 3 2.5c3.7 3.4 11 3.4 15.5 0 3.2-2.4 3.6-2.4 5.8-.6 1.2 1 5 2.2 8.2 2.6 6 .8 6 .7 9.4-4.4 3-4.4 3.4-6 2.8-10.3-.5-3-1-7.4-1-10-.4-5-.4-5 6.7-7.4 4-1.4 8.5-3.2 10-4 3-1.6 10.7-10.8 10.7-12.6 0-.5-3-1.2-6.7-1.6-15-1.7-17.4-9.6-7.7-24.4 15.7-24.2 25.2-47.7 25.2-62.6 0-6.7.4-9 1.3-7.5 3.5 5.8-2.8 30.8-12.3 48.7l-4 7.2 3.8-1c2-.4 14-5.4 26.3-11 34.3-15.5 46-18.6 68-17.6 18.5.8 26.4 4.4 39.5 18 7 7.3 13.6 12.5 25.8 20 26 16.4 27 17.8 28.2 37 1.3 19.3.7 20.4-14 23.6-12.5 2.8-20.4 8.6-22.5 16.7-1 4.3 1.3 4.5 7.6.4l4.6-3 2 3c2.8 4 8.5 4 13.3 0l3.6-2.8 3.8 3c5.7 4.5 13.4 3.4 15.5-2.3.4-1.2 1.5-1 3.8 1 4.2 3.7 15 5.3 16 2.4.6-1-.3-3.8-1.7-6-6.3-9.3-8.2-13.8-8.3-19 0-7 2-10.4 10-16 9.8-7 13-16.2 5.4-16.2-4.6 0-9.2-4-12.2-10.7-6-13.4-4.8-28.5 4.2-53.6 9.2-25.6 10.2-30.3 10.2-47.4 0-13.8-.3-16.2-3.4-23.7-2-4.7-5.8-11.6-8.7-15.4l-5-7 6.5-5.4c20.2-16.8 16-44.2-8.3-54.8-7.4-3.2-9.3-3.5-22.3-3.4-8 0-19.8 1-26.6 2.3-7 1.2-18.6 2.2-26.6 2.3-12.7 0-15-.3-19.8-3-5-2.6-6-4-7-10.2-.2-1.3-1-2.6-2-3-1.7-.4-9.7 6.5-11 9.6-.5 1.5-1 1.4-2.7-.6-1-1.3-2.7-4.4-3.5-7-2-6 .4-10.6 7.6-14l5.6-2.7-3.3-2c-6.7-4.3-18.3-1.4-22.4 5.6-1.2 2-2.5 3.5-3 3.5-.3 0-2.6-1.8-5-4-8.7-8.7-5.7-21.4 6-25.3 6.3-2 12-.5 13 3.7 1.8 6.4 7.3-2 6.3-9.6-.7-5-.7-5.2 2.8-5.2 5 0 15.2 6.3 18.4 11.3 3.7 5.8 3.4 14.8-.7 21.6l-3.2 5.3 4.2-1c6.2-1 12-5 15.2-9.5 3.2-4.8 3.5-14.3.7-19.5-2.8-5-2.5-5.8 1.6-4 7 2.8 10.6 6 13.3 11.4 2.5 4.7 2.7 6 1.3 11-.8 3-2.7 7.3-4 9.2-2.3 3-2.4 3.4-.6 3.4 3.3 0 10.2-3 12.6-5.7 1.3-1.4 3-4.7 4-7.3l1.8-4.8 2 3.5c3 5.2 8.5 10 15.2 12.8 7.3 3 10.4 3.3 6.6.4-2.6-2-7.4-16-6-17.3 1-.8 10.8 7 22 17 10.8 9.6 17.6 12.8 27.4 12.8 12.5 0 19.8-11 14.2-21.3-3.3-6-10.6-7-15-1.8-2 2.4-2.4 4.3-1.8 6.7.7 3 .4 3.4-2.4 3.4-3.6 0-10.8-4.7-23.6-15.3-19.5-16.2-43-30-60.2-35-11-3.2-34.4-4.5-45.5-2.4-12 2.2-26.4 9-34 16.5-14 13.2-14 30.6-.7 46.5l3.8 4.5-2.6 4c-3.8 6-3.4 13.8.8 19.7 2 2.5 3.8 4.6 4.2 4.6.5 0 1-1.6 1-3.6.5-5 2.7-8.6 6.4-10 3.4-1 5.6-.6 21 5.6 16.4 6.5 43 7 71.6 1.2 14-2.8 30.5-2.6 37.7.4 13.3 5.5 16.4 20 6.6 31-4 4.7-8.2 6.6-22 10.4-10.3 2.8-12.8 3-36.4 2.8-20.2-.2-27.5.2-35.8 2-9 1.8-14.4 2-40.8 1.3l-30.4-.8 3.4 2.8c1.8 1.6 4.5 3.4 5.8 4.2 2.3 1.3 2.2 1.5-1.2 2.8-2 .7-6.4 1.3-10 1.3h-6l-1 5.3c-.4 3-.4 6.5 0 7.7 1 1.8.6 2-1.3 1.4l-8.2-2c-3-.7-7.3-2-9.3-3-3.4-1.7-3.8-1.6-5 .6-1.2 2-11.8 10-13.3 10-.3 0-.6-1.7-.7-3.5-.2-1.8-1.7-6.6-3.4-10.7-1.8-4-3.6-8.4-4-9.8-.7-2-1-2-2-.6-.5 1-1.3 3.7-1.8 6-.4 2.4-2 6.3-3.5 8.6l-2.8 4.2-1.7-3.6c-2-4-5-8-6-8-.5 0-1 1.3-1.5 2.8-1 3.2-8.2 12-10 12-.7 0-1.2-2.5-1.2-5.5s-.6-5.5-1.3-5.5c-.7 0-1.3.7-1.3 1.7 0 2.3-6.3 9.3-8.4 9.3-1 0-2.4.8-3.2 1.8-2.4 2.7-4.2 2.3-3.3-.6.5-1.4.2-4.5-.6-7-1-2.6-1.7-5.2-2-6-.3-1-2.5-.7-7.3.8-7.7 2.5-10.2 2-6.3-1 1.6-1.2 3.8-5 5-8.8 1.2-3.6 3-7 4-7.2 1.5-.4 1.4 0-.3 2.4-1 1.5-2 3.7-2 4.7s-1 3.6-2 5.5c-1 2-1.8 3.8-1.6 4 .4.3 3.3-.8 6.6-2.4l6-2.8v2.6c0 1.4.8 5 1.7 8.3l1.6 6 4-2c4.2-2 8.2-8.8 8.2-14.2 0-2.6 1.5-2.2 2 .6l2.3 7 1.7 5.2 2.8-3.4c1.6-1.8 3.5-5.5 4.4-8 1.4-4.6 3.6-6.6 3.6-3.3 0 2.3 6.5 10.8 7.8 10 .6-.3 1.8-3.5 2.6-7 1.8-7.4 4.7-12.4 6.6-11.3.6.4 1 1.2.6 1.7-.4.6 1 5.4 3.3 10.7 2 5.4 4.2 10.7 4.7 12 .8 2 1.6 1.6 6.2-2.5 2.8-2.6 5.5-5.5 5.8-6.4.5-1.4 1-1.3 4 .4 3.7 2.4 16.5 6.2 17.4 5.2.4-.3.8-3.7 1-7.4v-7l3.7 1c2 .3 6.2.3 9.4-.2l5.8-.8-5.2-3.5c-2.8-2-5.7-4.5-6.3-5.6-.7-1-3.3-2-6-2.4-7.8-.6-21.5-8.3-21.5-12 0-.7 2 .5 4.2 2.6 5 4.7 12.3 7.7 18.5 7.7h4.6l-3-4c-1.6-2.2-3-6.3-3.4-9.8-.6-5.5-1.2-6.3-7-10.3-3.3-2.5-7.6-6-9.3-8l-3.4-3.7-1.6 4.3c-1 2.4-2 4.3-2.4 4.3-.5 0-2.2-1.5-4-3.2-1.6-1.6-3.3-3-3.7-3-.5 0-2 2.3-3.4 5l-2.5 5-2-2.8c-1-1.6-3.5-4.5-5.6-6.3-2-2-3-3.4-2.4-3.4.8 0 3.3 2 5.7 4.3l4.2 4.3 1.7-3.2c1-2 1.4-4.8 1-7-.8-3.5-.7-3.7.6-1.5 1 1.3 3.4 4 5.6 5.7l4 3.3 2.8-5c2.7-5.2 2.8-5.3 4-2.2 1.7 4.2 14 14.2 24.5 20 1.6 1 1-2-2-9.3-1-2-1.5-5.3-1.5-7.6 0-3.3-1-4.8-5.3-8-6.3-4.8-8.3-8.2-9.5-16-.5-3-1.6-6.5-2.4-7.6-1.3-1.6-1.5-.7-1.2 5 .3 4-.2 8.8-1 10.8l-1.6 3.7-1.2-3.2c-.7-1.7-3.6-4.6-6.5-6.5-2.8-2-4.8-3.8-4.4-4 .4-.5 3.4 1.2 6.6 3.7 5 3.8 6 4.2 6.7 2.5.7-2 0-10.5-1.7-16.5-.7-3-.7-3 3 .7 2.8 2.7 4.3 6 5.4 11.6 1.5 7.3 2.3 8.5 9 14.3 4 3.5 7.4 6.2 7.7 6 .2-.3.7-9.4 1-20.2.8-21 0-25.8-5-32.3l-2.6-3.2 4-4.4c5.4-5.7 7.8-10.2 8.8-16.5l1-5.2-4.7 4.4c-3.8 3.5-5.6 4.3-10 4.3-4.3 0-6-.7-8.8-3.8-3.5-3.7-9.7-7.3-15.6-9-2.2-.6-3-.4-3 1 0 1.2-1 4.3-2.6 7l-2.7 5-5.6-5.5c-3.4-3.4-7.5-6-10.6-7-7.6-2-8-1.7-8 4 0 9-3.8 10.5-10.6 4.7-5-4.6-9.4-5.5-19.2-4.5l-7.5 1 1.3 3.3c1.2 2.8 1 4-1.5 7.2-4 5.3-9 7.6-17 7.6-3.6 0-8 .7-10 1.6-2 1-6.8 2-10.7 2.4-4 .3-8 1-9.3 1.5-1.8.8-2 .2-1.4-4 1-6.5-3.5-11.3-10.5-11.3-9.2 0-13.4 8.2-9.8 19 .7 2 1.6 5.3 2 7.2.4 2 4.5 7.2 9.6 12.2 4.8 5 9.4 10 10.2 11.3.7 1.3 3.2 3.4 5.5 4.7l4 2.3-.4-4.5c-.6-5 .5-5.6 3-2.2 1 1.2 3.4 3.2 5.3 4.4 3 2 3.5 2 3.5.3 0-1 .6-3.4 1.4-5.3l1.3-3.5 2.4 4.7c1.3 2.6 5.7 8.5 9.6 13 7.7 9 12.4 19 10 21.2-1 1-3.6 1-9-.2-4.4-1-9.7-1.3-12-1-4.3.6-4.7 0-2-3.4 3-3.6 2.5-4.2-3.2-4.2-6.4 0-22.8-3.2-29-5.7-6-2.3-7.5-1.7-9.3 4l-3.3 10.6-1.8 5.7 6.6-.6c3.6-.4 8.2-1 10.3-1.8 2-.7 4-1 4.2-.8.2.2-.7 2.5-2 5l-2.5 4.6 4-1c2.4-.3 5.8-1.5 7.7-2.4 3.2-1.6 3.4-1.4 6 2.7 3.2 5.3 5.8 5 6.4-.4.5-5.6 2.4-4.8 6 2.7 3.2 7 6.7 9.7 7.4 5.4.2-1.4 2-3.7 4-5 4-3 7-2 8.8 2.4 1.8 4.7-2.2 9.4-14 16.5-23.2 14-36.8 33.4-40.6 58-3.5 22.3 7.4 45.3 29.2 61.8 10.5 8 27 16.2 26 13-4.4-13.4-4.2-39.2.3-43.6.7-.6.5 2-.5 6-3.6 14.7-2 26.4 7.3 53.8 8.4 24.8 7.3 35.3-4.7 42.3-3.8 2.3-6.3 2.7-16.6 2.5-11.2 0-12.5 0-16 3-3.5 2.8-8 12-8 16.2 0 2.3 2.5 2 7.5-1zm91-215c0-1.8-5.4-6.6-10.8-9.8-4.2-2.5-5-2.5-5-.5 0 3-2.6 10.7-3.7 10.7-.6 0-1.5-1.5-2-3.3-.5-2-2.5-5.5-4.5-8L743 249l-3 4.3c-2.6 4-7.2 8-9.2 8-.5 0-.6-2-.3-4.7.4-2.8 0-5-.7-5.6-.8-.5-1.5-.3-1.5.4 0 1.5-6.3 8.7-7.7 8.7-.5 0-1.3-2-1.7-4.5l-1.6-9c-.4-2.2.5-.6 2 3.7l2.8 7.8 3-4.8c1.7-2.6 3-5.5 3-6.3 0-1 .7-1.4 1.4-1 .7.4 1.6 3.6 2 7l1 6.3 3.4-3.7c1.8-2 4-4.7 4.8-6 1.4-2.3 1.5-2.3 4.3 0 1.7 1.4 4.2 4.7 5.6 7.3 1.4 2.5 2.7 4.4 3 4 .2 0 .7-2.8 1-5.8.5-3 .8-5.6 1-5.8 0-.7 10 5.7 13.7 9 2.3 2 4.6 3.5 5 3.2.3-.4.6-3.5.6-7 0-5.2-.6-6.7-4-9.6-3.6-3.3-3.7-3.3-5-1-2 3.3-4 3.3-4 .2 0-2.3-7-11-9-11-.4 0-2 2-3.2 4.2-1.4 2.4-2.8 4.3-3.2 4.3-1.8 0-11.8-11-11.8-13 0-1.7.7-1.3 2.4 1.4 1.4 2 4 5 6 6.8 3.8 3.4 5.2 2.5 6.7-4 .3-1.8 1-3.3 1.5-3.3 1.7 0 10.4 9.2 11.6 12.2l1.3 3 1-3.3c1-4 2.3-4.3 4-.5 1 1.5 4.6 4.7 8.4 7.2l7 4.4 1.3-4.5c.8-2.3 1.8-3.7 2.3-3 .7 1-1 8.4-2.5 10-.2.3-2.4-1-5-3l-4.6-3.2v6c0 3.2-.3 7.2-.8 8.7-.8 3-3 3.8-3 1zM737.7 217c-8.2-6.8-9.5-8.4-9.3-11.7l.2-3.4.6 3.2c.3 2 2.5 5 5.2 7l4.8 3.7 3-3.4c1.5-2 2.8-4 2.8-5 .2-2 .6-2 6 3 5 4.2 5.2 4.2 6 1.4.3-1.5.2-4.4-.4-6.5-1.6-5.5-1.3-6.3 1-3 1.4 1.7 3.3 4 4.5 5.2 2.2 2.2 2.3 2 3-.6.5-1.4 1-4.3 1-6.2v-3.5l4.3 5c4.2 4.8 4.6 5 6 2.7.6-1.3 1.2-4.5 1.3-7 0-3.4.3-4.2 1.2-3 1.4 2.2.4 8-2.2 12.8l-2 3.6-2.3-4c-3.2-4.8-4.2-4.7-6.2.6-1.8 5-3 5.4-5 1.5-1-2.5-1.4-2.2-2.2 3l-1 6-5.7-4.5-5.5-4.5-2.6 3c-1.5 1.5-2.7 3.5-2.7 4.4 0 1.7-1.4 1.8-3.5 0zm73.2-25.6c-3-2.7-5-5.2-4.5-5.7.4-.4 1-.6 1-.3.3.3 2.8 3 5.6 5.7 6.6 6.7 5.2 7-2 .4zm-97.5-10c-2.7-3.7-2.5-6.2.8-10.2 2.4-3 3.5-3.2 7.7-2.7 2.7.3 8.4 2.7 12.8 5.3 5 3 10.3 5 14.3 5.4 3.7.4 6.5.6 6.5.3 0-.2-1.4-2.6-3.2-5.2-4.2-6.4-4-7 .7-3.3 5 4 10.7 5 23.8 4.7l6.4-.2-3.7-3.7c-5.2-5-3.6-5.6 2-.6 5.5 4.7 5.2 5-6 6-5 .6-10 .3-14.4-.8-6.3-1.7-6.6-1.6-5.4.5.7 1.2 2 2.2 2.6 2.2.6 0 1.2.6 1.2 1.4 0 2.3-14 .3-20.5-3-15.3-7.8-17.2-8.4-20.8-7.3-2 .6-4 2.5-4.7 4.3-2.3 6.2 6.5 11 10 5.6 1.2-1.6 1-2.7-1-4.6-2.5-2.7-2.2-3 1.2-1.8 2.4 1 2.7 6.7.5 8.8-2.6 2.4-8.5 1.8-10.7-1.2zm59.7-15.3c-2-1.7-.4-2.2 8-2.3 10.6-.2 17-2 24.5-6.7 6-3.8 7.7-3 2 1-5.3 3.5-13.4 6.2-21.3 7l-9.6 1.3c-1.5.3-3 .2-3.6-.2zm90.3 313l4.7-3 3 3c4.3 4 9.2 4 13.2-.2 1.8-1.8 3.4-3 3.5-2.7 0 .3 1 1.7 1.7 3 1 1.7 3 2.6 6.7 2.8 4.4.4 5.6 0 7.4-2.6l2-3 4.7 3c12.7 8 19.4-.5 13.8-17.5-3-8.7-1.3-13.5 8-24.5 4-4.7 7-9.6 7-11 0-2.3-.6-2.6-5.8-2.5-5 0-6.5-.4-9-3.3-4.4-4.7-4-10 .7-16l3.8-4.8-6.8-4.6c-3.7-2.5-10.4-8.5-15-13.3-10-10.7-19.8-15.8-33-17l-8.6-.7v6.6c0 8.5 4 16.7 15 30.6 12.3 15.8 13.2 18.2 13.7 38.8l.4 17.5-3.6 3.4c-3 3-4.6 3.4-15 4-10 .5-12 1-15 3.6-4 3.5-5 5.4-6.3 10-.7 3-.4 3.5 1.6 3.5 1.4 0 4.6-1.3 7.2-3zm-266.7-45c1-1.5 2-4 2-5.4 0-2.2 1-2.8 6-3.5l5.7-.7-4-3c-4.5-3.8-5-6.7-1-6.7 4.2 0 11-4.2 12-7.3.6-1.4.3-3.4-.6-4.4-2.4-2.7-6.6-2.3-7.4.6-1 3-2.3 3-5.6 0-4.8-4.6-5-14-.2-19.7 2.3-2.7 2.2-3-.6-5.6-3-3-5.3-8.7-3.8-10 .4-.5 2.8 0 5.4.7 3.5 1.3 5 1.4 6.4.2 4.4-3.5-.4-8-7.5-7-3 .4-4 0-4.5-1.5-.3-1-2.8-2.6-5.6-3.3-5-1.3-5-1.3-5 2.2 0 3.8-2.3 4.6-6.4 2-3.4-2-6.7-.3-6.7 3.2 0 3.4 3.4 5 9.4 4.6 4.5-.3 4.7 3.2.3 8l-3 3.7 2.4 3.7c3.7 5.3 3.4 14-.7 18.5l-3.2 3.5-2-2.8c-3-4-7-3.7-8 .4-.7 2.7 0 4 3.3 6.8 2.3 2 5.6 3.4 7.4 3.4 4.4 0 4.2 3.5-.4 7l-3.5 2.7 5.5.8c3 .6 5.5 1.5 5.5 2 0 2.4 3.8 9.7 5 9.7.7 0 2.2-1.2 3.3-2.7zm71.7-31c5-2 15.8-11.2 15.8-13.5 0-.7-3-4-6.6-7.3-7.7-7-16-18.6-18.2-25.5-1.2-3.5-6.6-9.7-22-24.6L617 312.4l-5.8 1.5c-3.3.8-7.2 1.5-8.8 1.5-2.8 0-2.7.2 1 3l3.8 3 5.4-3c5.2-3 5.4-3 6-.5.4 1.3-.4 3.7-1.8 5.4-1.4 1.7-2.2 3.6-1.8 4.3.4.6-1 2-3 3-4 2-6.5 8-3.5 8 2.7 0 8.7-7.3 8-9.8-.3-1.3 0-2.6.4-3 2.3-1.3 2 4.5-.2 7.4-1.4 1.7-2.2 3.7-1.8 4.3.4.7-1 2-3 3-3.8 2-6.5 8-3.5 8s8.8-7 8-9.6c-.3-1.4 0-2.8.4-3.2 1.5-1 2.4 3.7 1 6-.7 1.2-.7 2.8 0 4 1.4 2.5 0 7-2.4 8.5-1 .6-.3 1.7 2.2 3.6 3.6 2.8 3.7 3 3.7 15.2 0 10 .4 12.7 2.3 14.5 2 2 2.2 2 2.2 0s3.7-4.6 6.6-4.6c1 0 6.4 4.7 12.2 10.4 5.8 5.8 12 10.6 13.7 11l4.2.7c.5 0 3-.7 5.8-1.8zM606 354c0-3.3-6.8-6.7-14.8-7.6-6.5-.8-6.6-.7-6.6 2.5 0 2.6 1 3.7 5.5 5.6 7.3 3 16 2.8 16-.6zm7.3-.3c3.3-3 5-6.5 3-6.5-2.4 0-8.4 5.4-8.4 7.4 0 3.2 1 3 5.3-1zm-7-9.6c.3-1.8-.8-3-4.2-4.5-7.3-3.4-16-5-18.2-3.2-4 3-1.3 7 5 8 2.5.2 6 1 7.6 1.6 5 1.8 9.5 1 10-2zm0-9.8c.4-2.6-1.2-3.6-15-8.4-10.2-3.6-14.7-2-11.4 4.3 1 2.3 3 3.3 7.2 4 3.2.4 7.6 1.3 9.7 2 5.6 1.8 9 1 9.3-1.8zm7-9.2c2-2 3.7-4.6 3.7-5.5 0-3-8.2 2.3-9.2 6-1.3 4.4.7 4.2 5.4-.5zm-7-.6c.5-3-4.5-5.7-14.3-7.8-7-1.5-10.3-.7-9.7 2.7.2 1.8 2.6 3 9.4 5.2 10.8 3.4 14 3.4 14.6 0zm9.6-14c12.4-5.5 13.5-19.6 1.7-23.3-5-1.4-8-.6-10 2.7-1.4 2.6-.4 7.2 1.6 7.2.6 0 1.2.8 1.2 1.8 0 5-19 7-27 3-2.7-1.3-4-5-1.6-5 1.6 0 2.8-3.6 2-6.2-1.3-3.6-5-4.8-10-3.4-11.8 3-11.5 16.8.4 22.7 9.8 4.7 31.3 5 41.5.4zm-8-10.8c.8-.6.5-1.7-.7-2.7-2.7-2-2.5-5.3.4-8.8 2.2-2.7 2.5-6.7 3.2-47 1.2-69.7 6.4-122 13.2-134.6 2.7-5 2.4-5-4.7-.3-9 6.2-16 14.2-22 25.7C586 153.6 582 182.7 582 245c0 35.2.2 39.8 2.2 43.2 2 3 2 4.3.7 7.6-1 2.2-1.3 4.3-1 4.7 2.6 2.4 21.3 1.8 24-1zm105.3-66.3c.4-.6-.4-3.7-2-6.8-2-4.8-3-5.6-6.3-5.6-10 0-26.3-4.6-43-12-9.7-4.4-13-5.4-14.2-4.3-3 2.8 2 9.4 9.5 13 6.8 3 25.7 6.8 34.3 6.8 5 0 5 .3 2.3 4.4l-2.2 3h5.6c3 0 7.4.6 9.6 1 5.5 1.5 5.6 1.5 6.3.3z" stroke="#000" stroke-width="5.6"/><path d="M681.5 479.6l4.4-2.6 1.8 2.6c2.4 3.3 9.3 3.3 14 0l3.4-2.7 3 2.5c3.7 3.4 11 3.4 15.5 0 3.2-2.4 3.6-2.4 5.8-.6 1.2 1 5 2.2 8.2 2.6 6 .8 6 .7 9.4-4.4 3-4.4 3.4-6 2.8-10.3-.5-3-1-7.4-1-10-.4-5-.4-5 6.7-7.4 4-1.4 8.5-3.2 10-4 3-1.6 10.7-10.8 10.7-12.6 0-.5-3-1.2-6.7-1.6-15-1.7-17.4-9.6-7.7-24.4 15.7-24.2 25.2-47.7 25.2-62.6 0-6.7.4-9 1.3-7.5 3.5 5.8-2.8 30.8-12.3 48.7l-4 7.2 3.8-1c2-.4 14-5.4 26.3-11 34.3-15.5 46-18.6 68-17.6 18.5.8 26.4 4.4 39.5 18 7 7.3 13.6 12.5 25.8 20 26 16.4 27 17.8 28.2 37 1.3 19.3.7 20.4-14 23.6-12.5 2.8-20.4 8.6-22.5 16.7-1 4.3 1.3 4.5 7.6.4l4.6-3 2 3c2.8 4 8.5 4 13.3 0l3.6-2.8 3.8 3c5.7 4.5 13.4 3.4 15.5-2.3.4-1.2 1.5-1 3.8 1 4.2 3.7 15 5.3 16 2.4.6-1-.3-3.8-1.7-6-6.3-9.3-8.2-13.8-8.3-19 0-7 2-10.4 10-16 9.8-7 13-16.2 5.4-16.2-4.6 0-9.2-4-12.2-10.7-6-13.4-4.8-28.5 4.2-53.6 9.2-25.6 10.2-30.3 10.2-47.4 0-13.8-.3-16.2-3.4-23.7-2-4.7-5.8-11.6-8.7-15.4l-5-7 6.5-5.4c20.2-16.8 16-44.2-8.3-54.8-7.4-3.2-9.3-3.5-22.3-3.4-8 0-19.8 1-26.6 2.3-7 1.2-18.6 2.2-26.6 2.3-12.7 0-15-.3-19.8-3-5-2.6-6-4-7-10.2-.2-1.3-1-2.6-2-3-1.7-.4-9.7 6.5-11 9.6-.5 1.5-1 1.4-2.7-.6-1-1.3-2.7-4.4-3.5-7-2-6 .4-10.6 7.6-14l5.6-2.7-3.3-2c-6.7-4.3-18.3-1.4-22.4 5.6-1.2 2-2.5 3.5-3 3.5-.3 0-2.6-1.8-5-4-8.7-8.7-5.7-21.4 6-25.3 6.3-2 12-.5 13 3.7 1.8 6.4 7.3-2 6.3-9.6-.7-5-.7-5.2 2.8-5.2 5 0 15.2 6.3 18.4 11.3 3.7 5.8 3.4 14.8-.7 21.6l-3.2 5.3 4.2-1c6.2-1 12-5 15.2-9.5 3.2-4.8 3.5-14.3.7-19.5-2.8-5-2.5-5.8 1.6-4 7 2.8 10.6 6 13.3 11.4 2.5 4.7 2.7 6 1.3 11-.8 3-2.7 7.3-4 9.2-2.3 3-2.4 3.4-.6 3.4 3.3 0 10.2-3 12.6-5.7 1.3-1.4 3-4.7 4-7.3l1.8-4.8 2 3.5c3 5.2 8.5 10 15.2 12.8 7.3 3 10.4 3.3 6.6.4-2.6-2-7.4-16-6-17.3 1-.8 10.8 7 22 17 10.8 9.6 17.6 12.8 27.4 12.8 12.5 0 19.8-11 14.2-21.3-3.3-6-10.6-7-15-1.8-2 2.4-2.4 4.3-1.8 6.7.7 3 .4 3.4-2.4 3.4-3.6 0-10.8-4.7-23.6-15.3-19.5-16.2-43-30-60.2-35-11-3.2-34.4-4.5-45.5-2.4-12 2.2-26.4 9-34 16.5-14 13.2-14 30.6-.7 46.5l3.8 4.5-2.6 4c-3.8 6-3.4 13.8.8 19.7 2 2.5 3.8 4.6 4.2 4.6.5 0 1-1.6 1-3.6.5-5 2.7-8.6 6.4-10 3.4-1 5.6-.6 21 5.6 16.4 6.5 43 7 71.6 1.2 14-2.8 30.5-2.6 37.7.4 13.3 5.5 16.4 20 6.6 31-4 4.7-8.2 6.6-22 10.4-10.3 2.8-12.8 3-36.4 2.8-20.2-.2-27.5.2-35.8 2-9 1.8-14.4 2-40.8 1.3l-30.4-.8 3.4 2.8c1.8 1.6 4.5 3.4 5.8 4.2 2.3 1.3 2.2 1.5-1.2 2.8-2 .7-6.4 1.3-10 1.3h-6l-1 5.3c-.4 3-.4 6.5 0 7.7 1 1.8.6 2-1.3 1.4l-8.2-2c-3-.7-7.3-2-9.3-3-3.4-1.7-3.8-1.6-5 .6-1.2 2-11.8 10-13.3 10-.3 0-.6-1.7-.7-3.5-.2-1.8-1.7-6.6-3.4-10.7-1.8-4-3.6-8.4-4-9.8-.7-2-1-2-2-.6-.5 1-1.3 3.7-1.8 6-.4 2.4-2 6.3-3.5 8.6l-2.8 4.2-1.7-3.6c-2-4-5-8-6-8-.5 0-1 1.3-1.5 2.8-1 3.2-8.2 12-10 12-.7 0-1.2-2.5-1.2-5.5s-.6-5.5-1.3-5.5c-.7 0-1.3.7-1.3 1.7 0 2.3-6.3 9.3-8.4 9.3-1 0-2.4.8-3.2 1.8-2.4 2.7-4.2 2.3-3.3-.6.5-1.4.2-4.5-.6-7-1-2.6-1.7-5.2-2-6-.3-1-2.5-.7-7.3.8-7.7 2.5-10.2 2-6.3-1 1.6-1.2 3.8-5 5-8.8 1.2-3.6 3-7 4-7.2 1.5-.4 1.4 0-.3 2.4-1 1.5-2 3.7-2 4.7s-1 3.6-2 5.5c-1 2-1.8 3.8-1.6 4 .4.3 3.3-.8 6.6-2.4l6-2.8v2.6c0 1.4.8 5 1.7 8.3l1.6 6 4-2c4.2-2 8.2-8.8 8.2-14.2 0-2.6 1.5-2.2 2 .6l2.3 7 1.7 5.2 2.8-3.4c1.6-1.8 3.5-5.5 4.4-8 1.4-4.6 3.6-6.6 3.6-3.3 0 2.3 6.5 10.8 7.8 10 .6-.3 1.8-3.5 2.6-7 1.8-7.4 4.7-12.4 6.6-11.3.6.4 1 1.2.6 1.7-.4.6 1 5.4 3.3 10.7 2 5.4 4.2 10.7 4.7 12 .8 2 1.6 1.6 6.2-2.5 2.8-2.6 5.5-5.5 5.8-6.4.5-1.4 1-1.3 4 .4 3.7 2.4 16.5 6.2 17.4 5.2.4-.3.8-3.7 1-7.4v-7l3.7 1c2 .3 6.2.3 9.4-.2l5.8-.8-5.2-3.5c-2.8-2-5.7-4.5-6.3-5.6-.7-1-3.3-2-6-2.4-7.8-.6-21.5-8.3-21.5-12 0-.7 2 .5 4.2 2.6 5 4.7 12.3 7.7 18.5 7.7h4.6l-3-4c-1.6-2.2-3-6.3-3.4-9.8-.6-5.5-1.2-6.3-7-10.3-3.3-2.5-7.6-6-9.3-8l-3.4-3.7-1.6 4.3c-1 2.4-2 4.3-2.4 4.3-.5 0-2.2-1.5-4-3.2-1.6-1.6-3.3-3-3.7-3-.5 0-2 2.3-3.4 5l-2.5 5-2-2.8c-1-1.6-3.5-4.5-5.6-6.3-2-2-3-3.4-2.4-3.4.8 0 3.3 2 5.7 4.3l4.2 4.3 1.7-3.2c1-2 1.4-4.8 1-7-.8-3.5-.7-3.7.6-1.5 1 1.3 3.4 4 5.6 5.7l4 3.3 2.8-5c2.7-5.2 2.8-5.3 4-2.2 1.7 4.2 14 14.2 24.5 20 1.6 1 1-2-2-9.3-1-2-1.5-5.3-1.5-7.6 0-3.3-1-4.8-5.3-8-6.3-4.8-8.3-8.2-9.5-16-.5-3-1.6-6.5-2.4-7.6-1.3-1.6-1.5-.7-1.2 5 .3 4-.2 8.8-1 10.8l-1.6 3.7-1.2-3.2c-.7-1.7-3.6-4.6-6.5-6.5-2.8-2-4.8-3.8-4.4-4 .4-.5 3.4 1.2 6.6 3.7 5 3.8 6 4.2 6.7 2.5.7-2 0-10.5-1.7-16.5-.7-3-.7-3 3 .7 2.8 2.7 4.3 6 5.4 11.6 1.5 7.3 2.3 8.5 9 14.3 4 3.5 7.4 6.2 7.7 6 .2-.3.7-9.4 1-20.2.8-21 0-25.8-5-32.3l-2.6-3.2 4-4.4c5.4-5.7 7.8-10.2 8.8-16.5l1-5.2-4.7 4.4c-3.8 3.5-5.6 4.3-10 4.3-4.3 0-6-.7-8.8-3.8-3.5-3.7-9.7-7.3-15.6-9-2.2-.6-3-.4-3 1 0 1.2-1 4.3-2.6 7l-2.7 5-5.6-5.5c-3.4-3.4-7.5-6-10.6-7-7.6-2-8-1.7-8 4 0 9-3.8 10.5-10.6 4.7-5-4.6-9.4-5.5-19.2-4.5l-7.5 1 1.3 3.3c1.2 2.8 1 4-1.5 7.2-4 5.3-9 7.6-17 7.6-3.6 0-8 .7-10 1.6-2 1-6.8 2-10.7 2.4-4 .3-8 1-9.3 1.5-1.8.8-2 .2-1.4-4 1-6.5-3.5-11.3-10.5-11.3-9.2 0-13.4 8.2-9.8 19 .7 2 1.6 5.3 2 7.2.4 2 4.5 7.2 9.6 12.2 4.8 5 9.4 10 10.2 11.3.7 1.3 3.2 3.4 5.5 4.7l4 2.3-.4-4.5c-.6-5 .5-5.6 3-2.2 1 1.2 3.4 3.2 5.3 4.4 3 2 3.5 2 3.5.3 0-1 .6-3.4 1.4-5.3l1.3-3.5 2.4 4.7c1.3 2.6 5.7 8.5 9.6 13 7.7 9 12.4 19 10 21.2-1 1-3.6 1-9-.2-4.4-1-9.7-1.3-12-1-4.3.6-4.7 0-2-3.4 3-3.6 2.5-4.2-3.2-4.2-6.4 0-22.8-3.2-29-5.7-6-2.3-7.5-1.7-9.3 4l-3.3 10.6-1.8 5.7 6.6-.6c3.6-.4 8.2-1 10.3-1.8 2-.7 4-1 4.2-.8.2.2-.7 2.5-2 5l-2.5 4.6 4-1c2.4-.3 5.8-1.5 7.7-2.4 3.2-1.6 3.4-1.4 6 2.7 3.2 5.3 5.8 5 6.4-.4.5-5.6 2.4-4.8 6 2.7 3.2 7 6.7 9.7 7.4 5.4.2-1.4 2-3.7 4-5 4-3 7-2 8.8 2.4 1.8 4.7-2.2 9.4-14 16.5-23.2 14-36.8 33.4-40.6 58-3.5 22.3 7.4 45.3 29.2 61.8 10.5 8 27 16.2 26 13-4.4-13.4-4.2-39.2.3-43.6.7-.6.5 2-.5 6-3.6 14.7-2 26.4 7.3 53.8 8.4 24.8 7.3 35.3-4.7 42.3-3.8 2.3-6.3 2.7-16.6 2.5-11.2 0-12.5 0-16 3-3.5 2.8-8 12-8 16.2 0 2.3 2.5 2 7.5-1zm91-215c0-1.8-5.4-6.6-10.8-9.8-4.2-2.5-5-2.5-5-.5 0 3-2.6 10.7-3.7 10.7-.6 0-1.5-1.5-2-3.3-.5-2-2.5-5.5-4.5-8L743 249l-3 4.3c-2.6 4-7.2 8-9.2 8-.5 0-.6-2-.3-4.7.4-2.8 0-5-.7-5.6-.8-.5-1.5-.3-1.5.4 0 1.5-6.3 8.7-7.7 8.7-.5 0-1.3-2-1.7-4.5l-1.6-9c-.4-2.2.5-.6 2 3.7l2.8 7.8 3-4.8c1.7-2.6 3-5.5 3-6.3 0-1 .7-1.4 1.4-1 .7.4 1.6 3.6 2 7l1 6.3 3.4-3.7c1.8-2 4-4.7 4.8-6 1.4-2.3 1.5-2.3 4.3 0 1.7 1.4 4.2 4.7 5.6 7.3 1.4 2.5 2.7 4.4 3 4 .2 0 .7-2.8 1-5.8.5-3 .8-5.6 1-5.8 0-.7 10 5.7 13.7 9 2.3 2 4.6 3.5 5 3.2.3-.4.6-3.5.6-7 0-5.2-.6-6.7-4-9.6-3.6-3.3-3.7-3.3-5-1-2 3.3-4 3.3-4 .2 0-2.3-7-11-9-11-.4 0-2 2-3.2 4.2-1.4 2.4-2.8 4.3-3.2 4.3-1.8 0-11.8-11-11.8-13 0-1.7.7-1.3 2.4 1.4 1.4 2 4 5 6 6.8 3.8 3.4 5.2 2.5 6.7-4 .3-1.8 1-3.3 1.5-3.3 1.7 0 10.4 9.2 11.6 12.2l1.3 3 1-3.3c1-4 2.3-4.3 4-.5 1 1.5 4.6 4.7 8.4 7.2l7 4.4 1.3-4.5c.8-2.3 1.8-3.7 2.3-3 .7 1-1 8.4-2.5 10-.2.3-2.4-1-5-3l-4.6-3.2v6c0 3.2-.3 7.2-.8 8.7-.8 3-3 3.8-3 1zM737.7 217c-8.2-6.8-9.5-8.4-9.3-11.7l.2-3.4.6 3.2c.3 2 2.5 5 5.2 7l4.8 3.7 3-3.4c1.5-2 2.8-4 2.8-5 .2-2 .6-2 6 3 5 4.2 5.2 4.2 6 1.4.3-1.5.2-4.4-.4-6.5-1.6-5.5-1.3-6.3 1-3 1.4 1.7 3.3 4 4.5 5.2 2.2 2.2 2.3 2 3-.6.5-1.4 1-4.3 1-6.2v-3.5l4.3 5c4.2 4.8 4.6 5 6 2.7.6-1.3 1.2-4.5 1.3-7 0-3.4.3-4.2 1.2-3 1.4 2.2.4 8-2.2 12.8l-2 3.6-2.3-4c-3.2-4.8-4.2-4.7-6.2.6-1.8 5-3 5.4-5 1.5-1-2.5-1.4-2.2-2.2 3l-1 6-5.7-4.5-5.5-4.5-2.6 3c-1.5 1.5-2.7 3.5-2.7 4.4 0 1.7-1.4 1.8-3.5 0zm73.2-25.6c-3-2.7-5-5.2-4.5-5.7.4-.4 1-.6 1-.3.3.3 2.8 3 5.6 5.7 6.6 6.7 5.2 7-2 .4zm-97.5-10c-2.7-3.7-2.5-6.2.8-10.2 2.4-3 3.5-3.2 7.7-2.7 2.7.3 8.4 2.7 12.8 5.3 5 3 10.3 5 14.3 5.4 3.7.4 6.5.6 6.5.3 0-.2-1.4-2.6-3.2-5.2-4.2-6.4-4-7 .7-3.3 5 4 10.7 5 23.8 4.7l6.4-.2-3.7-3.7c-5.2-5-3.6-5.6 2-.6 5.5 4.7 5.2 5-6 6-5 .6-10 .3-14.4-.8-6.3-1.7-6.6-1.6-5.4.5.7 1.2 2 2.2 2.6 2.2.6 0 1.2.6 1.2 1.4 0 2.3-14 .3-20.5-3-15.3-7.8-17.2-8.4-20.8-7.3-2 .6-4 2.5-4.7 4.3-2.3 6.2 6.5 11 10 5.6 1.2-1.6 1-2.7-1-4.6-2.5-2.7-2.2-3 1.2-1.8 2.4 1 2.7 6.7.5 8.8-2.6 2.4-8.5 1.8-10.7-1.2zm59.7-15.3c-2-1.7-.4-2.2 8-2.3 10.6-.2 17-2 24.5-6.7 6-3.8 7.7-3 2 1-5.3 3.5-13.4 6.2-21.3 7l-9.6 1.3c-1.5.3-3 .2-3.6-.2zm90.3 313l4.7-3 3 3c4.3 4 9.2 4 13.2-.2 1.8-1.8 3.4-3 3.5-2.7 0 .3 1 1.7 1.7 3 1 1.7 3 2.6 6.7 2.8 4.4.4 5.6 0 7.4-2.6l2-3 4.7 3c12.7 8 19.4-.5 13.8-17.5-3-8.7-1.3-13.5 8-24.5 4-4.7 7-9.6 7-11 0-2.3-.6-2.6-5.8-2.5-5 0-6.5-.4-9-3.3-4.4-4.7-4-10 .7-16l3.8-4.8-6.8-4.6c-3.7-2.5-10.4-8.5-15-13.3-10-10.7-19.8-15.8-33-17l-8.6-.7v6.6c0 8.5 4 16.7 15 30.6 12.3 15.8 13.2 18.2 13.7 38.8l.4 17.5-3.6 3.4c-3 3-4.6 3.4-15 4-10 .5-12 1-15 3.6-4 3.5-5 5.4-6.3 10-.7 3-.4 3.5 1.6 3.5 1.4 0 4.6-1.3 7.2-3zm-266.7-45c1-1.5 2-4 2-5.4 0-2.2 1-2.8 6-3.5l5.7-.7-4-3c-4.5-3.8-5-6.7-1-6.7 4.2 0 11-4.2 12-7.3.6-1.4.3-3.4-.6-4.4-2.4-2.7-6.6-2.3-7.4.6-1 3-2.3 3-5.6 0-4.8-4.6-5-14-.2-19.7 2.3-2.7 2.2-3-.6-5.6-3-3-5.3-8.7-3.8-10 .4-.5 2.8 0 5.4.7 3.5 1.3 5 1.4 6.4.2 4.4-3.5-.4-8-7.5-7-3 .4-4 0-4.5-1.5-.3-1-2.8-2.6-5.6-3.3-5-1.3-5-1.3-5 2.2 0 3.8-2.3 4.6-6.4 2-3.4-2-6.7-.3-6.7 3.2 0 3.4 3.4 5 9.4 4.6 4.5-.3 4.7 3.2.3 8l-3 3.7 2.4 3.7c3.7 5.3 3.4 14-.7 18.5l-3.2 3.5-2-2.8c-3-4-7-3.7-8 .4-.7 2.7 0 4 3.3 6.8 2.3 2 5.6 3.4 7.4 3.4 4.4 0 4.2 3.5-.4 7l-3.5 2.7 5.5.8c3 .6 5.5 1.5 5.5 2 0 2.4 3.8 9.7 5 9.7.7 0 2.2-1.2 3.3-2.7zm71.7-31c5-2 15.8-11.2 15.8-13.5 0-.7-3-4-6.6-7.3-7.7-7-16-18.6-18.2-25.5-1.2-3.5-6.6-9.7-22-24.6L617 312.4l-5.8 1.5c-3.3.8-7.2 1.5-8.8 1.5-2.8 0-2.7.2 1 3l3.8 3 5.4-3c5.2-3 5.4-3 6-.5.4 1.3-.4 3.7-1.8 5.4-1.4 1.7-2.2 3.6-1.8 4.3.4.6-1 2-3 3-4 2-6.5 8-3.5 8 2.7 0 8.7-7.3 8-9.8-.3-1.3 0-2.6.4-3 2.3-1.3 2 4.5-.2 7.4-1.4 1.7-2.2 3.7-1.8 4.3.4.7-1 2-3 3-3.8 2-6.5 8-3.5 8s8.8-7 8-9.6c-.3-1.4 0-2.8.4-3.2 1.5-1 2.4 3.7 1 6-.7 1.2-.7 2.8 0 4 1.4 2.5 0 7-2.4 8.5-1 .6-.3 1.7 2.2 3.6 3.6 2.8 3.7 3 3.7 15.2 0 10 .4 12.7 2.3 14.5 2 2 2.2 2 2.2 0s3.7-4.6 6.6-4.6c1 0 6.4 4.7 12.2 10.4 5.8 5.8 12 10.6 13.7 11l4.2.7c.5 0 3-.7 5.8-1.8zM606 354c0-3.3-6.8-6.7-14.8-7.6-6.5-.8-6.6-.7-6.6 2.5 0 2.6 1 3.7 5.5 5.6 7.3 3 16 2.8 16-.6zm7.3-.3c3.3-3 5-6.5 3-6.5-2.4 0-8.4 5.4-8.4 7.4 0 3.2 1 3 5.3-1zm-7-9.6c.3-1.8-.8-3-4.2-4.5-7.3-3.4-16-5-18.2-3.2-4 3-1.3 7 5 8 2.5.2 6 1 7.6 1.6 5 1.8 9.5 1 10-2zm0-9.8c.4-2.6-1.2-3.6-15-8.4-10.2-3.6-14.7-2-11.4 4.3 1 2.3 3 3.3 7.2 4 3.2.4 7.6 1.3 9.7 2 5.6 1.8 9 1 9.3-1.8zm7-9.2c2-2 3.7-4.6 3.7-5.5 0-3-8.2 2.3-9.2 6-1.3 4.4.7 4.2 5.4-.5zm-7-.6c.5-3-4.5-5.7-14.3-7.8-7-1.5-10.3-.7-9.7 2.7.2 1.8 2.6 3 9.4 5.2 10.8 3.4 14 3.4 14.6 0zm9.6-14c12.4-5.5 13.5-19.6 1.7-23.3-5-1.4-8-.6-10 2.7-1.4 2.6-.4 7.2 1.6 7.2.6 0 1.2.8 1.2 1.8 0 5-19 7-27 3-2.7-1.3-4-5-1.6-5 1.6 0 2.8-3.6 2-6.2-1.3-3.6-5-4.8-10-3.4-11.8 3-11.5 16.8.4 22.7 9.8 4.7 31.3 5 41.5.4zm-8-10.8c.8-.6.5-1.7-.7-2.7-2.7-2-2.5-5.3.4-8.8 2.2-2.7 2.5-6.7 3.2-47 1.2-69.7 6.4-122 13.2-134.6 2.7-5 2.4-5-4.7-.3-9 6.2-16 14.2-22 25.7C586 153.6 582 182.7 582 245c0 35.2.2 39.8 2.2 43.2 2 3 2 4.3.7 7.6-1 2.2-1.3 4.3-1 4.7 2.6 2.4 21.3 1.8 24-1zm105.3-66.3c.4-.6-.4-3.7-2-6.8-2-4.8-3-5.6-6.3-5.6-10 0-26.3-4.6-43-12-9.7-4.4-13-5.4-14.2-4.3-3 2.8 2 9.4 9.5 13 6.8 3 25.7 6.8 34.3 6.8 5 0 5 .3 2.3 4.4l-2.2 3h5.6c3 0 7.4.6 9.6 1 5.5 1.5 5.6 1.5 6.3.3z" fill="#ffb700"/></svg>