<svg xmlns="http://www.w3.org/2000/svg" width="531" height="354" viewBox="0 0 1498.6001 999.06664" id="svg2" fill-rule="evenodd"><defs id="defs4"><style id="style6">.str0 {stroke:black;stroke-width:0.1} .fil1 {fill:#28AE66} .fil0 {fill:#A90000} .fil2 {fill:#CA3745} .fil3 {fill:white} .fil9 {fill:black;fill-rule:nonzero} .fil5 {fill:#28AE66;fill-rule:nonzero} .fil4 {fill:#383739;fill-rule:nonzero} .fil8 {fill:#CA3745;fill-rule:nonzero} .fil6 {fill:#FAAE29;fill-rule:nonzero} .fil7 {fill:white;fill-rule:nonzero}</style></defs><path id="path10" d="M517 916.6c8.3 0 15 6.8 15 15v15c0 8.3-6.7 15-15 15h-15v-45h15zm0 60c16.6 0 30-13.4 30-30v-15c0-16.5-13.4-30-30-30h-30v75h30zm-60-75h15v75h-15v-75zm-30 0h15v75h-15l-30-47v47h-15v-75h15l30 47v-47zm-224.7 0h45v15h-30v15h30v15h-30v15h30v15h-45v-75zm-60 0h15v60h30v15h-45v-75zm157.4 60h15c12.4 0 22.5-10 22.5-22.5 0-12.3-10.3-22.3-22.5-22.4h-15v15h15c4 0 7.5 3.4 7.5 7.5 0 4.3-3.4 7.6-7.5 7.6h-15v15zm15-75c29 0 52.5 23.6 52.5 52.5 0 29-23.5 52.6-52.5 52.6S262.3 968 262.3 939c0-28.8 23.4-52.3 52.4-52.3zm0 15c20.7 0 37.5 16.8 37.5 37.5 0 20.8-16.8 37.6-37.5 37.6s-37.5-16.8-37.5-37.5c0-20.6 16.8-37.3 37.5-37.3z" class="fil0" fill="#a90000"/><path id="rect12" class="fil1" fill="#28ae66" d="M0 0h1498.6v999H0z"/><path id="rect14" class="fil2" fill="#ca3745" d="M179.8 0h269.7v999H179.8z"/><g id="звезды" fill="#fff"><path d="M744 110.8c44.3 19 75.3 63 75.3 114.3 0 68.7-55.6 124.4-124.3 124.4-30.7 0-58.8-11.2-80.5-29.7 13.4 5.8 28 9.3 43.5 10 68.6 3 126.6-50.2 129.6-118.8 1.8-40-15.4-76.2-43.6-100.2z" class="fil3" id="_155960960"/><path class="fil3" id="_155960888" d="M648.2 121.7l-14-10.3 5.3-16.5-14 10-14-10 5.2 16.4-14 10.3H620l5.4 16.5 5.4-16.5z"/><path class="fil3" id="_155960816" d="M648.2 185.6l-14-10.2 5.3-16.6-14 10.3-14-10.2 5.2 16.6-14 10.2H620l5.4 16.6 5.4-16.6z"/><path class="fil3" id="_155960744" d="M648.2 249.6l-14-10.3 5.3-16.5-14 10.2-14-10.2 5.2 16.5-14 10.3H620l5.4 16.5 5.4-16.4z"/><path class="fil3" id="_155960672" d="M585 216.8l-14-10.2 5.4-16.6-14 10.2L548 190l5.4 16.6-14 10.2h17.3l5.3 16.6 5.4-16.6z"/><path class="fil3" id="_155960600" d="M665.8 154.4l14-10.2-5.3-16.5 14 10.2 14.2-10.3-5.4 16.5 14 10.2H694l-5.4 16.6-5.4-16.6z"/></g><g id="_155914472" fill-rule="nonzero"><path class="fil4" id="_155960456" fill="#383739" d="M281.4 163.7l-31-17.4H234L213.6 134v-17L192 104V72l21.6-13.2v-17L234 29.7h16.3l31-17.5H348l31 17.6h16.4L415.8 42v16.8L437.4 72v32l-21.6 13v17l-20.4 12.3H379l-31 17.4z"/><path class="fil5" id="_155960384" fill="#28ae66" d="M347.8 163l31-17.4h16.4l20-12v-17l21.5-13V72.3L415 59V42.4l-19.8-12H379l-31.2-17.5h-66.2l-31 17.5H234l-20 12V59l-21.5 13.4v31l21.6 13.3v17l20 12h16.2l31 17.3z"/><path class="fil4" id="_155960312" fill="#383739" d="M283.3 156.6l-31-17.5H236l-15-9v-16.8L199.2 100V76L221 62.7V46l15-9.2h16.3l31-17.5H346l31 17.5h16.3l15.2 9v17L430 76v24L408.6 113V130l-15.2 9H377l-31 17.6z"/><path class="fil6" id="_155960240" fill="#faae29" d="M393 138.4l14.8-8.8v-16.8l21.6-13.3V88.3H315V156h31l31-17.6z"/><path class="fil6" id="_155960168" fill="#faae29" d="M221.6 46.3V63L200 76.5v11.2h114.3V20h-30.8l-31 17.5h-16.2z"/><path class="fil7" id="_155960096" fill="#fff" d="M221.6 129.6l14.7 8.8h16.2l31 17.5h30.8V88.2H200v11.2l21.6 13.3z"/><path class="fil7" id="_155960024" fill="#fff" d="M407.8 63V46.4L393 37.5h-16L346 20h-31v67.6h114.4V76.4z"/><path class="fil4" id="_155959952" fill="#383739" d="M366.5 63.4l-4-4.3 12.4-11.8v-8l7.2 4.6 5.3-5 5.3 3.3-5.3 5 6.8 4.3h-15z"/><path d="M387.6 39.7l-4.8 4.4 4 2.6 4.8-4.4-4-2.5zm-12 .8v7l-12.2 11.6 3 3.4 12.7-12H392l-16.2-10z" class="fil8" id="_155959880" fill="#ca3745"/><path class="fil4" id="_155959808" fill="#383739" d="M341.3 61.2l-4-4.3 12.4-12v-8l7.3 4.6 5.4-5 5.2 3.3-5.3 4.8L369 49h-14.8z"/><path d="M362.4 37.5l-4.7 4.5 4 2.5 4.8-4.5-4-2.5zm-12 .8v7L338.2 57l3.2 3.2L354 48.4h12.6l-16.2-10z" class="fil8" id="_155959736" fill="#ca3745"/><path class="fil4" id="_155959664" fill="#383739" d="M368.4 77.6l-4.2-4.3 12.6-11.8v-8L384 58l5.4-5 5.3 3.3-5.4 5 7 4.2h-15z"/><path d="M389.5 54l-4.8 4.4 4 2.5 4.8-4.6-4-2.5zm-12 .8v7l-12.2 11.5 3 3.3L381 64.8h12.7l-16.2-10z" class="fil8" id="_155959592" fill="#ca3745"/><path class="fil4" id="_155959520" fill="#383739" d="M366.5 112.5l-4 4.3 12.4 11.8v8l7.2-4.5 5.3 5 5.3-3.2-5.3-5 6.8-4.2h-15z"/><path d="M387.6 136.2l-4.8-4.5 4-2.5 4.8 4.5-4 2.5zm-12-.8v-7l-12.2-11.6 3-3.3 12.7 11.8H392l-16.2 10z" class="fil8" id="_155959448" fill="#ca3745"/><path class="fil4" id="_155959376" fill="#383739" d="M341.3 114.7l-4 4.3 12.4 11.8v8l7.3-4.5 5.4 5 5.2-3.3-5.3-5 6.8-4.2h-14.8z"/><path d="M362.4 138.4l-4.7-4.5 4-2.6 4.8 4.5-4 2.4zm-12-1v-7L338.2 119l3.2-3.3 12.5 11.8h12.6l-16.2 10z" class="fil8" id="_155959304" fill="#ca3745"/><path class="fil4" id="_155959232" fill="#383739" d="M368.4 98.2l-4.2 4.4 12.6 11.8v8l7.3-4.5 5.4 4.8 5.3-3.2-5.4-5 7-4.2h-15z"/><path d="M389.5 122l-4.8-4.5 4-2.5 4.8 4.5-4 2.4zm-12-1v-7l-12.2-11.5 3-3.3 12.7 12h12.7l-16.2 10z" class="fil8" id="_155959160" fill="#ca3745"/><path class="fil4" id="_155959088" fill="#383739" d="M263 112.5l4 4.3-12.5 11.8v8l-7.3-4.5-5.3 5-5.4-3.2 5.3-5-7-4.2h15z"/><path d="M241.8 136.2l4.8-4.5-4-2.5-4.8 4.5 4 2.5zm12-.8v-7l12.2-11.6-3-3.3-12.7 11.8h-12.7l16.2 10z" class="fil8" id="_155917160" fill="#ca3745"/><path class="fil4" id="_155917088" fill="#383739" d="M288 114.7l4.2 4.3-12.5 11.8v8l-7.3-4.5-5.4 5-5.2-3.3 5.3-5-6.7-4.2h15z"/><path d="M267 138.4l4.7-4.5-4-2.6-4.8 4.5 4 2.4zm12-1v-7l12.2-11.4-3.2-3.3-12.5 11.8h-12.7l16.2 10z" class="fil8" id="_155917016" fill="#ca3745"/><path class="fil4" id="_155916944" fill="#383739" d="M261 98.2l4.2 4.4-12.6 11.8v8l-7.3-4.5-5.3 4.8-5.3-3.2 5.4-5-6.8-4.2h15z"/><path d="M240 122l4.7-4.5-4-2.5-4.8 4.5 4 2.4zm12-1v-7l12-11.5-3-3.3-12.6 12h-12.7l16.2 10z" class="fil8" id="_155916872" fill="#ca3745"/><path class="fil4" id="_155916800" fill="#383739" d="M263 63.4l4-4.3-12.5-11.8v-8l-7.3 4.6-5.3-5-5.4 3.3 5.3 5-7 4.3h15z"/><path d="M241.8 39.7l4.8 4.4-4 2.6-4.8-4.4 4-2.5zm12 .8v7L266 59.2l-3 3.4-12.7-12h-12.7l16.2-10z" class="fil8" id="_155916728" fill="#ca3745"/><path class="fil4" id="_155916656" fill="#383739" d="M288 61.2l4.2-4.3-12.5-12v-8l-7.3 4.6-5.4-5-5.2 3.3 5.3 4.8-6.7 4.3h15z"/><path d="M267 37.5l4.7 4.5-4 2.5L263 40l4-2.5zm12 .8v7L291.2 57 288 60l-12.5-11.8h-12.7l16.2-10z" class="fil8" id="_155916584" fill="#ca3745"/><path class="fil4" id="_155916512" fill="#383739" d="M261 77.6l4.2-4.3-12.6-11.8v-8l-7.3 4.5-5.3-5-5.3 3.3 5.4 5-6.8 4.2h15z"/><path d="M240 54l4.7 4.4-4 2.5-4.8-4.6 4-2.5zm12 .8v7l12 11.5-3 3.3-12.6-11.8h-12.7l16.2-10z" class="fil8" id="_155916440" fill="#ca3745"/><path class="fil4" id="_155916368" fill="#383739" d="M356.8 37l2.3-5.6-10-5.3h-13.8l-7-6.7h-27l-7 6.8h-13.8l-10 5.4 2.2 5.7 9-4.6h4l14 16 15-9.2 15.2 9.2 14-16h4z"/><path class="fil4" id="_155916296" fill="#383739" d="M356.8 138.7l2.3 5.8-10 5.3h-13.8l-7 6.8h-27l-7-6.8h-13.8l-10-5.3 2.2-5.8 9 4.8h4l14-16 15 9.2 15.2-9.3 14 16h4z"/><path class="fil4" id="_155916224" fill="#383739" d="M242.8 75.5h-7l-1.5-1.8v-5l4-2.6-6.5-2.3h-.2l-8.3 6V71L210 88l13.3 16.7v1.6l8.5 6 6.4-2.5-4-2.6v-5l1.6-2h7z"/><path class="fil8" id="_155916152" fill="#ca3745" d="M224 106v-1.5L211 88l13-16.6V70l8-5.5 4.6 1.8-3 2V74l2 2.2h6.5v23.4h-6.5l-2 2.4v5.5l3 2-4.6 2z"/><path class="fil4" id="_155916080" fill="#383739" d="M386.6 75.5h7l1.5-1.8v-5l-3.8-2.6 6.4-2.3h.2l8.3 6V71l13.4 17-13.3 16.7v1.6l-8.4 6-6.4-2.5 4-2.6v-5l-1.6-2h-7z"/><path class="fil8" id="_155916008" fill="#ca3745" d="M405.4 106v-1.5l13-16.6-13-16.6V70l-8-5.5-4.6 1.8 3 2V74l-2 2.2h-6.5v23.4h6.6l1.8 2.4v5.5l-3 2 4.7 2z"/><path d="M314.3 20v18.6l-14.6 9-13.7-16h-4.5l-8.5 4.5-1.8-4.3 9.4-5h14l7-6.7h12.7zm.8 2v16.6l14.7 9 13.7-16h4.5l8.4 4.5 1.8-4.3-9.4-5h-14l-7-6.7h-12.7v2z" class="fil8" id="_155915936" fill="#ca3745"/><path d="M314.3 156v-18.7l-14.6-9-13.7 16h-4.5l-8.5-4.6-1.8 4.5 9.4 5h14l7 6.7h12.7zm.8-2.2v-16.5l14.7-9 13.7 16h4.5l8.4-4.6 1.8 4.5-9.4 5h-14l-7 6.7h-12.7v-2.2z" class="fil8" id="_155915864" fill="#ca3745"/><path class="fil4" id="_155915792" fill="#383739" d="M247.7 91.2H235l-5.5 5.6h3.8l-6.5 5.2-3.6-3v-1.6l-7.8-9.5 7.8-9.5V77l3.6-3.2 6.5 5.3h-3.8l5.6 5.7h12.7l10-7.8V56.3h25l28.8-17.8V34l-4.4-3h-1.3l-4.8 3.3-.8 2.4-3.8-5.2 7.3-6h1.2l8-6.2h3.3l8.2 6h1.2l7.3 6.2-3.7 5.2-.8-2.4-4.8-3.3h-1.4l-4.4 3v4.6l28.8 17.8h25V77l10 7.7h12.5L400 79h-4l6.6-5.2 3.6 3.2v1.5L414 88l-7.8 9.4V99l-3.6 3-6.5-5.2h4l-5.7-5.6h-12.6l-10 7.7v20.5h-25L318 137.2v4.7l4.3 2.8h1.4l4.8-3.2.8-2.4 3.7 5.2-7.3 6h-1.2l-8.2 6.2H313l-8-6h-1.3l-7.3-6.2 3.8-5.2.7 2.4 4.7 3.2h1.4l4.5-3v-4.6l-29-17.7h-24.8V99z"/><path d="M315 145.4l3.2 2.4-3 2.4v-4.8zm-10 4.4l8.4 6h1v-4.7L310 148l4.3-3.3v-9l-31-19h-22.8v-19l-11.8-9.2H231l-4.6 5-4.5-5h-5.4L224 97v1.6l2.8 2.5 4.6-3.5h-2.7v-1l6-6H248l10.4 8V119h24.4l29.5 18v5.5l-5 3.3h-1.8l-5.2-3.5-.4-1.2-2.6 3.4 6.6 5.6h1zm-78.6-66.2l3.5 4h-7l3.4-4zm88-58L311 28l3 2.5v-5zm85 62.7l3.6 4 3.5-4h-7zm-75-62.2l-8.4-6h-1v4.7l4.4 3.4-4.3 3.4v9l31 19h23v19l11.7 9.2h17.8l4.5-5 4.5 5h5.3l-7.3-9v-1.3l-3-2.5-4.5 3.6h2.7v1l-6 6h-13.3l-10.4-8V57h-24.4L317 39v-5.4l5-3.3h2l5 3.5.5 1.3 2.5-3.4-6.6-5.5h-1z" class="fil6" id="_155915720" fill="#faae29"/><path d="M314.3 150.2l-3-2.4 3-2.4v4.8zm-84.4-62l-3.6 4-3.5-4h7zm94.4 61.6l-8.4 6h-1v-4.7l4.4-3.2-4.3-3.3v-9l31-19h23v-19l11.7-9.2h17.8l4.5 5 4.5-5h5.3l-7.3 8.8v1.6l-3 2.5-4.5-3.5h2.7v-1l-6-6h-13.3l-10.4 8V119h-24.4l-29.5 18v5.5l5 3.3h2l5-3.5.5-1.2 2.5 3.4-6.6 5.6h-1zM403 83.6l-3.5 4h7l-3.5-4zM305 26l8.4-6h1v4.7L310 28l4.3 3.4v9l-31 19h-22.8v19l-11.8 9.2H231l-4.6-5-4.5 5h-5.4l7.3-9v-1.3l2.8-2.5 4.6 3.6h-2.7v1l6 6H248l10.4-8V57h24.4l29.5-18v-5.4l-5-3.3h-1.8l-5.2 3.5-.4 1.3-2.6-3.4L304 26h1zm10 4.5l3.2-2.4-3-2.4v5z" class="fil7" id="_155915648" fill="#fff"/><path class="fil5" id="_155915576" fill="#28ae66" d="M314.3 41l-30.7 19h-22.4v18.7l-11.3 9h64.3z"/><path class="fil5" id="_155915504" fill="#28ae66" d="M315 134.8l30.8-19h22.4V97.3l11.3-9H315z"/><path class="fil8" id="_155915432" fill="#ca3745" d="M379.5 87.6l-11.3-9V60h-22.4L315 41v46.6z"/><path class="fil8" id="_155915360" fill="#ca3745" d="M250 88.3l11.2 9v18.6h22.4l30.7 18.8V88.3z"/><path class="fil4" id="_155915288" fill="#383739" d="M297.3 84.7l4-4.4L289 68.5v-8l-7.4 4.5-5.3-5-5.3 3.3 5.3 5-6.8 4.2h15z"/><path d="M276.2 61l4.8 4.4-4 2.5-4.8-4.5 4-2.5zm12 .8v7l12.2 11.6-3 3.3-12.7-12H272l16.2-10z" class="fil8" id="_155915216" fill="#ca3745"/><path class="fil4" id="_155915144" fill="#383739" d="M332 91.2l-4 4.3 12.5 11.8v8l7.3-4.5 5.3 5 5.4-3.3-5.3-5 7-4.2h-15z"/><path d="M353.2 115l-4.8-4.6 4-2.4 4.8 4.4-4 2.5zm-12-1v-7L329 95.5l3-3.3 12.7 11.8h12.7l-16.2 10z" class="fil8" id="_155915072" fill="#ca3745"/><path class="fil4" id="_155915000" fill="#383739" d="M297.3 91.2l4 4.3-12.4 11.8v8l-7.4-4.5-5.3 5-5.3-3.3 5.3-5-6.8-4.2h15z"/><path d="M276.2 115l4.8-4.6-4-2.4-4.8 4.4 4 2.5zm12-1v-7l12.2-11.5-3-3.3-12.7 11.8H272l16.2 10z" class="fil5" id="_155914928" fill="#28ae66"/><path class="fil4" id="_155914856" fill="#383739" d="M332 84.7l-4-4.4 12.5-11.8v-8l7.3 4.5 5.3-5 5.4 3.3-5.3 5 7 4.2h-15z"/><path d="M353.2 61l-4.8 4.4 4 2.5 4.8-4.5-4-2.5zm-12 .8v7L329 80.4l3 3.3 12.7-12h12.7l-16.2-10z" class="fil5" id="_155914784" fill="#28ae66"/><path class="fil4" id="_155914712" fill="#383739" d="M347.8 88l-33 22-33.2-22 33-22z"/><path d="M314.3 67l-30.8 20.6h30.8V67zm.8 20.6h31L315 67v20.6zm-31.5.7l30.8 20.6V88.2h-30.8zM315 109l31-20.7h-31V109z" class="fil7" id="_155914640" fill="#fff"/><path class="fil4 str0" id="_155914568" fill="#383739" stroke="#000" stroke-width=".1" d="M323.8 74.4v6h11.5v15.2h-11.5v6H306v-6h-11.3V80.4H306v-6z" transform="matrix(.99907 0 0 .99907 0 0)"/><path d="M306.6 75v6H295v6.6h19.3V75h-7.7zm8.5 12.6h19.3V81h-11.5v-6H315v12.6zm-20 .7v6.5h11.6v6h7.7V88.4H295zm20 12.6h7.8v-6.2h11.5v-6.5H315V101z" class="fil8" id="_155914496" fill="#ca3745"/></g><g id="_155856272" fill-rule="nonzero"><path class="fil4" id="_155914400" fill="#383739" d="M285 339v9.7h59.5V339H371v-9.7h26.7v-9.7h26.7V232h-26.7V222H371v-9.7h-26.5v-9.7H285v9.7h-26.7v9.7h-26.6v9.7H205v87.6h26.7v9.7h26.6v9.7z"/><path class="fil8" id="_155914328" fill="#ca3745" d="M343.8 338.3v9.7h-58.2v-9.7H259v-9.7h-26.6V319h-26.6v-86.4h26.6V223H259V213h26.6v-9.7h58.2v9.7h26.6v9.7H397v9.6h26.6V319H397v9.6h-26.6v9.7z"/><path class="fil4" id="_155914256" fill="#383739" d="M292.7 331.3v9.7h44v-9.7h26.7v-9.7H390V312h26.6v-72.3H390V230h-26.6v-9.8h-26.7v-9.7h-44v9.7H266v9.8h-26.6v9.7h-26.6V312h26.6v9.6H266v9.7z"/><path class="fil8" id="_155914184" fill="#ca3745" d="M336 330.6v9.7h-42.6v-9.7h-26.6v-9.8H240V311h-26.5v-70.6H240v-9.7H267V221h26.6v-9.7H336v9.7h26.6v9.7h26.7v9.7H416V311h-26.7v9.8h-26.7v9.8z"/><path class="fil4" id="_155914112" fill="#383739" d="M286.5 228v-6.8l-6.8 6-6.7-6v7l-7-5.3v10l-6.6 4v-6l-6.3 5.6-6.2-5.7v6l-7.4-4.5v9.3l-6 4.2v-5.6l-7 5-7-5v5.6l-6.6-4.8v28.2H205v12.8h7.8v28l6.6-4.7v5.7l7-5 7 5v-5.7l6 4.2v9.3l7.3-4.6v6.2l6.4-5.6 6.4 5.6v-6.2l6.7 4.2v10l7-5.2v7l6.7-6 6.8 6v-7l6.2 4.6v10.7l9.2-8.4v10l12.7-8.3 12.8 8.2v-10l9.2 8.5V328l6.2-4.6v7l6.7-6 6.7 6v-7l7 5.2v-10l6.6-4.2v6.2l6.3-5.6 6.3 5.6v-6.2l7.4 4.6v-9.3l6-4.2v5.7l7-5 7 5v-5.7l6.6 4.8v-28h7.8v-13h-7.8v-28L410 246v-5.6l-7 5-7-5v5.6l-6-4.2v-9.3l-7.3 4.6v-6l-6.4 5.6-6.3-5.7v6l-6.6-4v-10l-7 5v-6.8l-6.7 6-6.8-6v7l-6.3-4.7v-10.7l-9.2 8.4v-10l-12.8 8.3-12.8-8.2v10l-9.3-8.5v10.7z"/><path class="fil5" id="_155914040" fill="#28ae66" d="M205.8 281.4V270h7.7v-27.4l6.6 4.8.2-5.6 6.3 4.5h.2l6-4.5v5.6l6.7-4.8V309l-6.6-5v5.8l-6.3-4.6-6.3 4.6V304l-6.7 5v-27.6z"/><path class="fil6" id="_155913968" fill="#faae29" d="M247.5 313l-7.4 4.7v-84l7.5 4.7v-6l5.6 5 5.7-5v6l7.4-4.6v84l-7.3-4.7v6l-5.6-5-5.5 5z"/><path class="fil5" id="_155913896" fill="#28ae66" d="M273.7 322l-7 5V224.5l7 5.2v-7l6 5.6 6-5.5v7l7-5.3V327l-7-5v6.8l-6-5.4-6 5.4z"/><path class="fil6" id="_155913824" fill="#faae29" d="M314.7 220.4l-12-7.8v10.2l-9.3-8.4V337l9.2-8.3V339l12-8 12.2 8v-10.3l9.2 8.4V214.5l-9.2 8.4v-10.2z"/><path class="fil5" id="_155913752" fill="#28ae66" d="M423.6 281.4V270H416v-27.4l-6.7 4.8v-5.6l-6.4 4.5h-.3l-6-4.5v5.6l-6.7-4.8V309l6.6-5v5.8l6.3-4.6 6.2 4.6V304l6.7 5v-27.6z"/><path class="fil6" id="_155913680" fill="#faae29" d="M382 313l7.3 4.7v-84l-7.4 4.7v-6l-5.7 5-5.6-5v6l-7.3-4.6v84l7.3-4.7v6l5.6-5 5.6 5z"/><path class="fil5" id="_155913608" fill="#28ae66" d="M355.7 322l7 5V224.5l-7 5.2v-7l-6 5.6-6-5.5v7l-7-5.3V327l7-5v6.8l6-5.4 6 5.4z"/><path class="fil4" id="_155913536" fill="#383739" d="M322.8 239l-3 2.4v-7.2l6.6-4.8-11.7-8.6-11.7 8.6 6.5 4.8v7.2l-3-2.5v-4l-6.7 5.6 7.3 6.8-2.8 4h21l-3-4 7.4-6.8-6.8-5.6z"/><path class="fil8" id="_155913464" fill="#ca3745" d="M306 236.5v2.8l4.2 3.7v-9.2l-6-4.4 10.5-7.7 10.5 7.7-6 4.4v9.2l4.3-3.7v-2.8l5 4-7 6.8 2.3 3.3h-18.2l2.4-3.3-7.2-6.7z"/><path class="fil4" id="_155913392" fill="#383739" d="M314.7 233.3l5.4-4-5.3-3.8h-.2l-5 4z"/><path d="M314.7 226.3l4 3c-.5.6-3.6 3-4 3.2l-4-3c.5-.6 3.6-3 4-3.2z" class="fil5" id="_155913320" fill="#28ae66"/><path class="fil4" id="_155913248" fill="#383739" d="M362 284.5h35.7V280h11.8v-8.3h-11.8V267H362l-25-16.4h-44.6l-25 16.4h-35.7v4.7H220v8.2h11.7v4.5h35.8l25 16.4H337z"/><path class="fil8" id="_155913176" fill="#ca3745" d="M232.4 283.8V279h-11.7v-6.6h11.7v-4.7h35.3l25-16.4h44l25 16.4H397v4.7h11.7v6.7H397v4.8h-35.3l-25 16.4h-44l-25-16.4z"/><path class="fil4" id="_155882848" fill="#383739" d="M384.5 280.5V271H359v-2.3l-22.8-15h-43l-22.8 15v2.3H245v9.5h25.4v2.3l22.8 15h43l22.8-15v-2.3z"/><path class="fil8" id="_155882776" fill="#ca3745" d="M245.6 271.7H271V269l22.4-14.5H336l22.3 14.6v2.7h25.5v8h-25.5v2.7L336 297h-42.6L271 282.4v-2.6h-25.4z"/><path d="M318.6 256.8l-4 3-3.8-3h-7.4l7.6 5.7-14 10.5-7.3-5.5 2.3-1.8 2.6 2 3.7-2.7-6.3-4.8-9.7 7.3 11 8.3-11 8.3 9.7 7.3 6.3-4.8-3.7-2.7-2.6 2-2.3-1.7 7.4-5.5 14 10.5-7.6 5.7h7.4l4-3 3.8 3h7.4l-7.6-5.7 14-10.5 7.3 5.6-2.3 1.8-2.6-2-3.7 2.7 6.4 4.8 9.7-7.2-11-8.2 11-8.3-9.6-7.3-6.3 4.8 3.8 2.7 2.6-2 2.3 1.8-7.4 5.5-14-10.5 7.7-5.7h-7.4zm-4 8.5l14 10.5-14 10.4-13.8-10.4 14-10.5z" class="fil4" id="_155882704" fill="#383739"/><path d="M324 257.5l-6.8 5 15 11.4 8.7-6.5-3.6-2.6-2.6 1.8-2.5-1.8 5-4 8.6 6.5-11.2 8.3 11 8.3-8.4 6.4-5-4 2.4-1.7 2.6 2 3.5-2.6-8.7-6.4-15 11.4 6.6 5h-5l-4.3-3-4.2 3h-5l6.7-5-15-11.4-8.7 6.5 3.5 2.7 2.6-2 2.5 1.8-5 4-8.5-6.4 11-8.2-11-8.3 8.5-6.4 5 4-2.4 1.8-2.6-2-3.5 2.7 8.6 6.4 15.2-11.5-6.7-5h5l4.2 3 4.2-3h5zm-9.5 7l-15 11.3 15.2 11.3 15-11.2-15-11.4-.2.2z" class="fil6" id="_155882632" fill="#faae29"/><path class="fil4" id="_155882560" fill="#383739" d="M275 275.8l6.5 4.3 6.5-4.2-6.5-4.3z"/><path class="fil5" id="_155882488" fill="#28ae66" d="M281.5 272.3l5.2 3.5-5.2 3.4-5.2-3.4z"/><path class="fil4" id="_155882416" fill="#383739" d="M308.2 275.8l6.5 4.3 6.5-4.2-6.5-4.3z"/><path class="fil5" id="_155882344" fill="#28ae66" d="M314.7 272.3l5.2 3.5-5.3 3.4-5.2-3.4z"/><path class="fil4" id="_155882272" fill="#383739" d="M354.4 275.8L348 280l-6.6-4.2 6.5-4.3z"/><path class="fil5" id="_155882200" fill="#28ae66" d="M348 272.3l-5.3 3.5 5.2 3.4 5-3.4z"/><path d="M223.6 263.7c.8.8 1.8 1.2 3 1.2 1 0 2-.5 2.7-1.3 2.6-2.6 2.7-7.2 2.6-10.5 0 0-3 3-3.5 3.7l-2-3.6-2 3.5-3.5-3.8c0 3.3 0 8 2.6 10.5z" class="fil4" id="_155882128" fill="#383739"/><path d="M226.5 254.8l1.8 3.3 3-3c-.2 3.8-1 6.8-2.5 8.2-.6.7-1.4 1-2.3 1-1 0-1.7-.3-2.4-1-1.3-1.4-2-4.4-2.2-8 .8.7 2.8 3 2.8 3l2-3.4z" class="fil7" id="_155882056" fill="#fff"/><path class="fil4" id="_155881984" fill="#383739" d="M258.6 245.8L253 241l-5.4 4.8 3.8 3.2v7.6l-2.2-2.2v-4.2l-4.8 4.5 8.7 8.8 8.8-8.8-4.8-4.5v4.2l-2.2 2.2V249z"/><path class="fil8" id="_155881912" fill="#ca3745" d="M252 248.7l-3.3-3 4.4-3.7 4.5 3.8-3.4 3v9.5l3.7-3.6v-3l3 3-7.6 7.8-7.6-7.8 3-3v3l3.7 3.6z"/><path class="fil4" id="_155881840" fill="#383739" d="M285.2 237.4l-5.5-4.7-5.5 4.7 3.8 3.2v7.5l-2-2v-4.2l-5 4.5 8.7 8.7 8.8-8.7-5-4.5v4.2l-2 2v-7.4z"/><path class="fil7" id="_155881768" fill="#fff" d="M278.7 240.3l-3.4-3 4.4-3.7 4.4 3.8-3.3 3v9.5l3.6-3.7v-3l3 3-7.6 7.7-7.7-7.7 3.2-3v3l3.5 3.6z"/><path class="fil4" id="_155881696" fill="#383739" d="M258.6 305.7l-5.5 4.7-5.4-4.7 3.8-3.2V295l-2.2 2v4.3l-4.8-4.5 8.7-8.8 8.8 8.8-4.8 4.5V297l-2.2-2v7.5z"/><path class="fil8" id="_155881624" fill="#ca3745" d="M252 302.8l-3.3 3 4.4 3.7 4.5-3.8-3.4-3v-9.5l3.7 3.6v3l3-3-7.6-7.7-7.6 7.8 3 3v-3l3.7-3.6z"/><path class="fil4" id="_155881552" fill="#383739" d="M370.8 245.8l5.5-4.7 5.5 4.8-3.8 3.2v7.6l2.2-2.2v-4.2l5 4.5-9 8.8-8.6-8.8 5-4.5v4.2l2 2.2V249z"/><path class="fil8" id="_155881480" fill="#ca3745" d="M377.3 248.7l3.4-3-4.4-3.7-4.4 3.8 3.3 3v9.5l-3.6-3.6v-3l-3 3 7.6 7.8 7.7-7.8-3-3v3l-3.7 3.6z"/><path class="fil4" id="_155881408" fill="#383739" d="M370.8 305.7l5.5 4.7 5.5-4.7-3.8-3.2V295l2.2 2v4.3l5-4.5-9-8.8-8.6 8.8 5 4.5V297l2-2v7.5z"/><path class="fil8" id="_155881336" fill="#ca3745" d="M377.3 302.8l3.4 3-4.4 3.7-4.4-3.8 3.3-3v-9.5l-3.6 3.6v3l-3-3 7.6-7.7 7.7 7.8-3 3v-3l-3.7-3.6z"/><path class="fil4" id="_155881264" fill="#383739" d="M285.2 314l-5.5 4.8-5.5-4.7 3.8-3v-7.6l-2 2v4.3l-5-4.5 8.7-8.7 8.8 8.7-5 4.5v-4.2l-2-2v7.4z"/><path class="fil7" id="_155881192" fill="#fff" d="M278.7 311.2l-3.4 3 4.4 3.7 4.4-4-3.3-2.8v-9.5l3.6 3.5v3l3-3-7.6-7.7-7.7 7.7 3.2 3v-3l3.5-3.5z"/><path class="fil4" id="_155881120" fill="#383739" d="M344.2 237.4l5.5-4.7 5.5 4.7-3.8 3.2v7.5l2-2v-4.2l5 4.5-8.7 8.7-8.8-8.7 4.8-4.5v4.2l2.2 2v-7.4z"/><path class="fil7" id="_155881048" fill="#fff" d="M350.7 240.3l3.4-3-4.3-3.7-4.4 3.8 3.4 3v9.5l-3.6-3.7v-3l-3 3 7.7 7.7 7.7-7.7-3-3v3l-3.7 3.6z"/><path class="fil4" id="_155880976" fill="#383739" d="M344.2 314l5.5 4.8 5.5-4.7-3.8-3v-7.6l2 2v4.3l5-4.5-8.7-8.7-8.8 8.7 4.8 4.5v-4.2l2.2-2v7.4z"/><path class="fil7" id="_155880904" fill="#fff" d="M350.7 311.2l3.4 3-4.3 3.7-4.4-4 3.4-2.8v-9.5l-3.6 3.5v3l-3-3 7.7-7.7 7.7 7.7-3 3v-3l-3.7-3.5z"/><path d="M223.6 287.8c.8-.8 1.8-1.2 3-1.2 1 0 2 .4 2.7 1.2 2.6 2.6 2.7 7.2 2.6 10.5 0 0-3-3-3.5-3.7l-2 3.5-2-3.4-3.5 3.7c0-3.3 0-8 2.6-10.5z" class="fil4" id="_155856944" fill="#383739"/><path d="M226.5 296.7l1.8-3.2 3 3c-.2-3.8-1-6.7-2.5-8.2-.6-.7-1.4-1-2.3-1-1 0-1.7.3-2.4 1-1.3 1.5-2 4.4-2.2 8.2l2.8-3 2 3.2z" class="fil7" id="_155856872" fill="#fff"/><path d="M405.8 263.7c-.8.8-1.8 1.2-3 1.2-1 0-2-.5-2.7-1.3-2.5-2.6-2.6-7.2-2.5-10.5 0 0 3 3 3.4 3.7.3-.8 2-3.6 2-3.6l2 3.5 3.4-3.8c0 3.3 0 8-2.6 10.5z" class="fil4" id="_155856800" fill="#383739"/><path d="M403 254.8l-2 3.3-2.8-3c0 3.8 1 6.8 2.4 8.2.6.7 1.4 1 2.3 1 .8 0 1.6-.3 2.3-1 1.4-1.4 2.2-4.4 2.3-8-.8.7-2.8 3-2.8 3-.6-1.2-1.2-2.3-2-3.4z" class="fil7" id="_155856728" fill="#fff"/><path d="M405.8 287.8c-.8-.8-1.8-1.2-3-1.2-1 0-2 .4-2.7 1.2-2.5 2.6-2.6 7.2-2.5 10.5 0 0 3-3 3.4-3.7l2 3.5 2-3.4 3.4 3.7c0-3.3 0-8-2.6-10.5z" class="fil4" id="_155856656" fill="#383739"/><path d="M403 296.7l-2-3.2-2.8 3c0-3.8 1-6.7 2.4-8.2.6-.7 1.4-1 2.3-1 .8 0 1.6.3 2.3 1 1.4 1.5 2.2 4.4 2.3 8.2l-2.8-3-2 3.2z" class="fil7" id="_155856584" fill="#fff"/><path class="fil4" id="_155856512" fill="#383739" d="M322.8 312.6l-3-2.5v7.3l6.6 4.8-11.7 8.7L303 322l6.5-4.7V310l-3 2.6v4L300 311l7.3-7-2.8-3.8h21l-3 4 7.4 6.7-6.8 5.6z"/><path class="fil8" id="_155856440" fill="#ca3745" d="M306 315v-2.8l4.2-3.6v9l-6 4.5 10.5 8 10.5-8-6-4.3v-9l4.3 3.5v2.8l5-4-7-6.8 2.3-3.3h-18.2l2.4 3.2-7.2 6.7z"/><path class="fil4" id="_155856368" fill="#383739" d="M314.7 318.2l5.4 4-5.3 4-.2-.3-5-4z"/><path d="M314.7 325.2l4-3c-.5-.5-3.6-3-4-3-.4 0-3.5 2.5-4 3l4 3z" class="fil5" id="_155856296" fill="#28ae66"/></g><g id="_155766872"><path class="fil4" id="_155856200" fill="#383739" fill-rule="nonzero" d="M224 458.5v-6.8l-13 8-5-3.8-5.3.5-2.6 3.6 4.7 3.6-4.6 3.5 2.7 3.7 5.3.6 5-4 13 8v-6.6l-8.2-5z"/><path class="fil5" id="_155856128" fill="#28ae66" fill-rule="nonzero" d="M211 460.7l12.2-7.7v5l-8.7 5.6 8.7 5.5v5l-12-7.6-5.4 4-4.7-.4-2-2.8 5-3.6-5-3.7 2-2.8 4.8-.6z"/><path class="fil4" id="_155856056" fill="#383739" fill-rule="nonzero" d="M224 435v-6.7l-13 8-5-4-5.3.8-2.6 3.6 4.7 3.5-4.6 3.6 2.7 3.6 5.3.6 5-4 13 8.2v-6.8l-8.2-5z"/><path class="fil5" id="_155855984" fill="#28ae66" fill-rule="nonzero" d="M211 437.3l12.2-7.7v5l-8.7 5.5 8.7 5.6v5l-12-7.6-5.4 4-4.7-.5-2-2.7 5-3.7-5-3.5 2-2.8 4.8-.5z"/><path class="fil4" id="_155855912" fill="#383739" fill-rule="nonzero" d="M224 492v7l-13-8.2-5 4-5.3-.7-2.6-3.5 4.7-3.5-4.6-3.5 2.7-3.6 5.3-.7 5 4 13-8v6.6l-8.2 5z"/><path class="fil5" id="_155855840" fill="#28ae66" fill-rule="nonzero" d="M211 490l12.2 7.6v-5l-8.7-5.6 8.7-5.5v-5l-12 7.7-5.4-4-4.7.4-2 2.8 5 3.6-5 3.7 2 2.7 4.8.6z"/><path class="fil4" id="_155855768" fill="#383739" fill-rule="nonzero" d="M405.5 458.5v-6.8l12.8 8 5-3.8 5.4.5 2.6 3.6-4.6 3.6 4.6 3.5-2.6 3.7-5.3.6-5-4-13 8v-6.6l8.2-5z"/><path class="fil5" id="_155855696" fill="#28ae66" fill-rule="nonzero" d="M418.4 460.7l-12.2-7.7v5l8.7 5.6-8.8 5.5v5l12.2-7.6 5.2 4 4.7-.4 2-2.8-4.8-3.6 4.8-3.7-2-2.8-4.7-.6z"/><path class="fil4" id="_155855624" fill="#383739" fill-rule="nonzero" d="M405.5 435v-6.7l12.8 8 5-4 5.4.8 2.6 3.6-4.6 3.5 4.6 3.6-2.6 3.6-5.3.6-5-4-13 8.2v-6.8l8.2-5z"/><path class="fil5" id="_155855552" fill="#28ae66" fill-rule="nonzero" d="M418.4 437.3l-12.2-7.7v5l8.7 5.5-8.8 5.6v5l12.2-7.6 5.2 4 4.7-.5 2-2.7-4.8-3.7 4.8-3.5-2-2.8-4.7-.5z"/><path class="fil4" id="_155855480" fill="#383739" fill-rule="nonzero" d="M405.5 492v7l12.8-8.2 5 4 5.4-.7 2.6-3.5-4.6-3.5 4.6-3.5-2.6-3.6-5.3-.7-5 4-13-8v6.6l8.2 5z"/><path class="fil5" id="_155855408" fill="#28ae66" fill-rule="nonzero" d="M418.4 490l-12.2 7.6v-5l8.7-5.6-8.8-5.5v-5l12.2 7.7 5.2-4 4.7.4 2 2.8-4.8 3.6 4.8 3.7-2 2.7-4.7.6z"/><path d="M377.5 392.5v9.8h7v4.3h7v-8h-6v-6h-8z" class="fil4" id="_155855336" fill="#383739" fill-rule="nonzero"/><path d="M384.7 393.2v6.2h6.2v6.5h-5.7v-4.4h-7v-8.4h6.4z" class="fil5" id="_155855264" fill="#28ae66" fill-rule="nonzero"/><path d="M398.4 408v9.6h7v4.4h7v-8h-6v-6h-8z" class="fil4" id="_155855192" fill="#383739" fill-rule="nonzero"/><path d="M405.6 408.6v6.2h6.2v6.4h-5.6V417h-7v-8.4h6.4z" class="fil5" id="_155855120" fill="#28ae66" fill-rule="nonzero"/><path d="M252 392.5v9.8h-7.2v4.3h-7v-8h6.2v-6h8z" class="fil4" id="_155855048" fill="#383739" fill-rule="nonzero"/><path d="M244.7 393.2v6.2h-6.2v6.5h5.6v-4.4h7.2v-8.4h-6.5z" class="fil5" id="_155854976" fill="#28ae66" fill-rule="nonzero"/><path d="M377.5 534.6V525h7v-4.4h7v7.8h-6v6.2h-8z" class="fil4" id="_155786952" fill="#383739" fill-rule="nonzero"/><path d="M384.7 534v-6.3h6.2v-6.4h-5.7v4.3h-7v8.3h6.4z" class="fil5" id="_155786880" fill="#28ae66" fill-rule="nonzero"/><path d="M252 534.6V525h-7.2v-4.4h-7v7.8h6.2v6.2h8z" class="fil4" id="_155786808" fill="#383739" fill-rule="nonzero"/><path d="M244.7 534v-6.3h-6.2v-6.4h5.6v4.3h7.2v8.3h-6.5z" class="fil5" id="_155786736" fill="#28ae66" fill-rule="nonzero"/><path d="M398.4 519.3v-9.8h7v-4.3h7v7.8h-6v6.3h-8z" class="fil4" id="_155786664" fill="#383739" fill-rule="nonzero"/><path d="M405.6 518.5v-6.2h6.2V506h-5.6v4.2h-7v8.3h6.4z" class="fil5" id="_155786592" fill="#28ae66" fill-rule="nonzero"/><path d="M231 408v9.6h-7v4.4h-7v-8h6v-6h8z" class="fil4" id="_155786520" fill="#383739" fill-rule="nonzero"/><path d="M223.8 408.6v6.2h-6.2v6.4h5.6V417h7v-8.4H224z" class="fil5" id="_155786448" fill="#28ae66" fill-rule="nonzero"/><path d="M231 519.3v-9.8h-7v-4.3h-7v7.8h6v6.3h8z" class="fil4" id="_155786376" fill="#383739" fill-rule="nonzero"/><path d="M223.8 518.5v-6.2h-6.2V506h5.6v4.2h7v8.3H224z" class="fil5" id="_155786304" fill="#28ae66" fill-rule="nonzero"/><path d="M341 392.3l-5.5-5.3-5.3 5 4.6 4.5-6 5.8h9l3-3 3.3 3h9l-6-5.8 4.7-4.5-5.4-5-5.4 5.3z" class="fil4" id="_155786232" fill="#383739" fill-rule="nonzero"/><path d="M335.5 388l5.4 5.3 5.4-5.3 4.2 4-4.6 4.5 5.3 5h-7l-3.4-3.3-3.6 3.4h-6.8l5.3-5-4.8-4.6 4.3-4z" class="fil5" id="_155786160" fill="#28ae66" fill-rule="nonzero"/><path d="M314.7 392.3l-5.4-5.3-5.3 5 4.6 4.5-6 5.8h9l3-3 3.3 3h8.8l-6-5.8 4.6-4.5-5.3-5-5.3 5.3z" class="fil4" id="_155786088" fill="#383739" fill-rule="nonzero"/><path d="M309.3 388l5.4 5.3 5.4-5.3c.5.4 4 3.5 4.4 4l-4.6 4.5 5.2 5h-6.8l-3.5-3.3-3.5 3.4h-6.8l5.2-5s-4-4.2-4.6-4.6l4.3-4z" class="fil5" id="_155786016" fill="#28ae66" fill-rule="nonzero"/><path d="M288.5 392.3l5.4-5.3 5.2 5-4.6 4.5 6 5.8h-9l-3-3-3.3 3h-9l6-5.8-4.6-4.5 5.4-5 5.5 5.3z" class="fil4" id="_155785944" fill="#383739" fill-rule="nonzero"/><path d="M294 388l-5.5 5.3s-5-5-5.5-5.3l-4.2 4 4.6 4.5-5.2 5h6.8l3.5-3.3 3.5 3.4h6.8l-5.3-5 4.7-4.6-4.3-4z" class="fil5" id="_155785872" fill="#28ae66" fill-rule="nonzero"/><path d="M341 535c-.5.3-5.5 5-5.5 5l-5.3-4.8 4.6-4.5-6-5.8h9l3 3 3.3-3h9l-6 5.7 4.7 4.5-5.4 5-5.4-5.3z" class="fil4" id="_155785800" fill="#383739" fill-rule="nonzero"/><path d="M335.5 539c.5-.3 5.4-5 5.4-5l5.4 5 4.2-3.8-4.6-4.5 5.3-5h-7L341 529l-3.6-3.4h-6.8l5.3 5-4.8 4.6c.5.4 4 3.5 4.3 4z" class="fil5" id="_155785728" fill="#28ae66" fill-rule="nonzero"/><path d="M314.7 535l-5.4 5-5.3-4.8 4.6-4.5-6-5.8h9l3 3 3.3-3h8.8l-6 5.7 4.6 4.5-5.3 5-5.3-5.3z" class="fil4" id="_155785656" fill="#383739" fill-rule="nonzero"/><path d="M309.3 539l5.4-5 5.4 5 4.4-3.8-4.6-4.5 5.2-5h-6.8l-3.5 3.3-3.5-3.4h-6.8l5.2 5-4.6 4.6c.5.4 4 3.5 4.3 4z" class="fil5" id="_155785584" fill="#28ae66" fill-rule="nonzero"/><path d="M288.5 535l5.4 5 5.2-4.8-4.6-4.5 6-5.8h-9l-3 3-3.3-3h-9l6 5.7-4.6 4.5 5.4 5 5.5-5.3z" class="fil4" id="_155785512" fill="#383739" fill-rule="nonzero"/><path d="M294 539c-.5-.3-5.5-5-5.5-5s-5 4.7-5.5 5l-4.2-3.8 4.6-4.5-5.2-5h6.8l3.5 3.3 3.5-3.4h6.8l-5.3 5 4.7 4.6c-.5.4-4 3.5-4.3 4z" class="fil5" id="_155785440" fill="#28ae66" fill-rule="nonzero"/><path class="fil4" id="_155785368" fill="#383739" fill-rule="nonzero" d="M244 401.6V417h-20.8V510h21v15.4h141v-15.4h21V417h-21v-15.4z"/><path class="fil8" id="_155785296" fill="#ca3745" fill-rule="nonzero" d="M384.6 402.3v15.3h21v92h-21v15.3H244.8v-15.5h-21v-92h21v-15.2z"/><path class="fil4" id="_155785224" fill="#383739" fill-rule="nonzero" d="M375.6 408.2H253.8v18.5h-24v73.8h24V519h121.8v-18.5h24v-73.8h-24z"/><path class="fil8" id="_155785152" fill="#ca3745" fill-rule="nonzero" d="M375 409v18.4h24v72.4h-24v18.5H254.4v-18.5h-24v-72.4h24V409z"/><path class="fil4" id="_155785080" fill="#383739" fill-rule="nonzero" d="M229.8 486.4l44 32.6h81.7l44-32.6v-45.7l-44-32.5h-81.6l-44.2 32.5z"/><path d="M355.3 409c.2 0 43.3 32 43.6 32v45c-.4.3-43.5 32-43.7 32.3H274c0-.2-43.2-32-43.5-32.2v-45c.3 0 43.4-32 43.6-32h81.3z" class="fil5" id="_155785008" fill="#28ae66" fill-rule="nonzero"/><path d="M364 418h-99v8h-12.7v75.2H265v8h99.4v-8H377V426h-12.6v-8h-.4z" class="fil4" id="_155819744" fill="#383739" fill-rule="nonzero"/><path class="fil8" id="_155819672" fill="#ca3745" fill-rule="nonzero" d="M363.7 418.8v8h12.6v73.7h-12.6v7.8h-98v-7.8H253v-73.8h12.7v-8z"/><path class="fil4" id="_155819600" fill="#383739" fill-rule="nonzero" d="M255.4 491l21.6 18h75.4l21.6-18v-54.8l-21.6-18H277l-21.6 18z"/><path d="M352.2 418.8l21 17.7v54l-21 17.8h-75c-.2 0-20.8-17.5-21-17.7v-54l21-17.8h75z" class="fil5" id="_155819528" fill="#28ae66" fill-rule="nonzero"/><path class="fil4" id="_155819456" fill="#383739" fill-rule="nonzero" d="M259.2 489.2l19.2 16H351l19.2-16V438l-19-16H278.2l-19.2 16z"/><path d="M350.8 422.6c.2 0 18.4 15.5 18.7 15.7V489c-.3 0-18.5 15.4-18.7 15.6h-72.2L260 489v-50.7l18.6-15.7h72.2z" class="fil8" id="_155819384" fill="#ca3745" fill-rule="nonzero"/><path class="fil4" id="_155819312" fill="#383739" fill-rule="nonzero" d="M287 418.8h55.4v-3l-6-5-5.3 4.8-5.4-4.7-5.4 4.6-5.5-4.7-5.5 4.6-5.4-4.7-5.5 4.6-5.4-4.7-6 5z"/><path class="fil8" id="_155819240" fill="#ca3745" fill-rule="nonzero" d="M341.7 418h-10.3v-1.8l5-4.4 5.3 4.4z"/><path class="fil6" id="_155819168" fill="#faae29" fill-rule="nonzero" d="M330.7 418h-10.2v-1.8l5-4.4 5.2 4.4z"/><path class="fil8" id="_155819096" fill="#ca3745" fill-rule="nonzero" d="M319.8 418h-10.2v-1.8l5-4.4 5.2 4.4z"/><path class="fil6" id="_155819024" fill="#faae29" fill-rule="nonzero" d="M309 418h-10.3v-1.8l5-4.4 5.2 4.4z"/><path class="fil8" id="_155818952" fill="#ca3745" fill-rule="nonzero" d="M298 418h-10.2v-1.8l5-4.4 5.2 4.4z"/><path class="fil4" id="_155818880" fill="#383739" fill-rule="nonzero" d="M236 474.5l4.6 5.5-4.7 5.4 5 5.8h12V436h-12l-5 5.7 4.6 5.5-4.7 5.5 4.6 5.4-4.7 5.6 4.6 5.4z"/><path class="fil6" id="_155818808" fill="#faae29" fill-rule="nonzero" d="M241.2 490.5l-4.4-5 4.4-5.2h11v10.2z"/><path class="fil8" id="_155818736" fill="#ca3745" fill-rule="nonzero" d="M241.2 479.6l-4.4-5 4.4-5.2h11v10.2z"/><path class="fil6" id="_155818664" fill="#faae29" fill-rule="nonzero" d="M241.2 468.7l-4.4-5 4.4-5.2h11v10.2z"/><path class="fil8" id="_155818592" fill="#ca3745" fill-rule="nonzero" d="M241.2 457.8l-4.4-5 4.4-5.3h11v10.3z"/><path class="fil6" id="_155818520" fill="#faae29" fill-rule="nonzero" d="M241.2 446.8l-4.4-5 4.4-5.2h11v10.2z"/><path class="fil4" id="_155818448" fill="#383739" fill-rule="nonzero" d="M287 508.3h55.4v3l-6 5-5.3-4.8-5.4 4.7-5.4-4.7-5.5 4.7-5.5-4.7-5.4 4.7-5.5-4.7-5.4 4.7-6-5z"/><path class="fil8" id="_155818376" fill="#ca3745" fill-rule="nonzero" d="M341.7 509h-10.3v2l5 4.3 5.3-4.4z"/><path class="fil6" id="_155818304" fill="#faae29" fill-rule="nonzero" d="M330.7 509h-10.2v2l5 4.3 5.2-4.4z"/><path class="fil8" id="_155818232" fill="#ca3745" fill-rule="nonzero" d="M319.8 509h-10.2v2l5 4.3 5.2-4.4z"/><path class="fil6" id="_155818160" fill="#faae29" fill-rule="nonzero" d="M309 509h-10.3v2l5 4.3 5.2-4.4z"/><path class="fil8" id="_155818088" fill="#ca3745" fill-rule="nonzero" d="M298 509h-10.2v2l5 4.3 5.2-4.4z"/><path class="fil4" id="_155818016" fill="#383739" fill-rule="nonzero" d="M393.5 474.5l-4.7 5.5 4.7 5.4-5 5.8h-12.2V436h12.2l5 5.7-4.7 5.5 4.7 5.5-4.7 5.4 4.7 5.6-4.7 5.4z"/><path class="fil6" id="_155817944" fill="#faae29" fill-rule="nonzero" d="M388.2 490.5l4.4-5-4.4-5.2h-11v10.2z"/><path class="fil8" id="_155817872" fill="#ca3745" fill-rule="nonzero" d="M388.2 479.6l4.4-5-4.4-5.2h-11v10.2z"/><path class="fil6" id="_155817800" fill="#faae29" fill-rule="nonzero" d="M388.2 468.7l4.4-5-4.4-5.2h-11v10.2z"/><path class="fil8" id="_155802624" fill="#ca3745" fill-rule="nonzero" d="M388.2 457.8l4.4-5-4.4-5.3h-11v10.3z"/><path class="fil6" id="_155802552" fill="#faae29" fill-rule="nonzero" d="M388.2 446.8l4.4-5-4.4-5.2h-11v10.2z"/><path class="fil3" id="_155802480" fill="#fff" d="M289.4 504.6l4-4 4.2 4z"/><path class="fil4" id="_155802408" fill="#383739" fill-rule="nonzero" d="M293.5 492.4l-4-3.2-4 1.7-.8 4.5 4 3.4-6.4 6h7.8l3.5-3.4 3.4 3.3h7.7l-6.3-6 3.8-3.5-.7-4.6-4-1.8z"/><path class="fil5" id="_155802336" fill="#28ae66" fill-rule="nonzero" d="M286 491.4l3.4-1.4 4 3.3.3-.2 4-3 3 1.4.7 3.8-4 3.6 6 5.8h-5.8l-4-4-4.2 4h-5.7l6-5.8-4.2-3.6z"/><path class="fil3" id="_155802264" fill="#fff" d="M310.6 504.6l4-4 4.2 4z"/><path class="fil4" id="_155802192" fill="#383739" fill-rule="nonzero" d="M314.7 492.4l-4-3.2-4 1.7-.7 4.5 3.8 3.4-6.3 6h7.8l3.4-3.4 3.4 3.3h8l-6.4-6 3.8-3.5-.7-4.6-4-1.8z"/><path class="fil5" id="_155802120" fill="#28ae66" fill-rule="nonzero" d="M307.3 491.4l3.3-1.4 4 3.3.3-.2 3.8-3 3.3 1.4.7 3.8-4 3.6 5.8 5.8h-5.7l-4-4-4.2 4H305l5.8-5.8-4-3.6z"/><path class="fil3" id="_155802048" fill="#fff" d="M340 504.6l-4-4-4.2 4z"/><path class="fil4" id="_155801976" fill="#383739" fill-rule="nonzero" d="M336 492.4l4-3.2 4 1.7.7 4.5-3.8 3.4 6 6h-7.7l-3.4-3.4-3.5 3.3h-7.8l6.3-6-3.8-3.5.7-4.6 4-1.8z"/><path class="fil5" id="_155801904" fill="#28ae66" fill-rule="nonzero" d="M343.3 491.4L340 490l-4 3.3-.3-.2-4-3-3 1.4-.7 3.8 4 3.6-6 5.8h5.8l4-4 4.2 4h5.7l-6-5.8 4.2-3.6z"/><path class="fil3" id="_155801832" fill="#fff" d="M289.4 422.6l4 4 4.2-4z"/><path class="fil4" id="_155801760" fill="#383739" fill-rule="nonzero" d="M293.5 434.8l-4 3.2-4-1.8-.8-4.6 4-3.3-6.6-6.2h8l3.5 3.5 3.5-3.4h7.8l-6.4 6.3 3.8 3.4-.7 4.5-4 1.8z"/><path class="fil5" id="_155801688" fill="#28ae66" fill-rule="nonzero" d="M286 435.7l3.4 1.4 4-3.2.3.2 4 3 3-1.3.7-3.8-4-3.7 6-5.7h-5.8l-4 4-4.2-4h-5.7l6 5.7-4.2 3.6z"/><path class="fil3" id="_155801616" fill="#fff" d="M310.6 422.6l4 4 4.2-4z"/><path class="fil4" id="_155801544" fill="#383739" fill-rule="nonzero" d="M314.7 434.8l-4 3.2-4-1.8-.7-4.6 3.8-3.3-6.4-6.2h7.8l3.5 3.5 3.6-3.4h7.7l-6.4 6.3 3.8 3.4-.7 4.5-4 1.8z"/><path class="fil5" id="_155801472" fill="#28ae66" fill-rule="nonzero" d="M307.3 435.7l3.3 1.4 4-3.2.3.2 3.8 3 3.3-1.3.7-3.8-4-3.7 5.8-5.7h-5.7l-4 4-4.2-4H305l5.8 5.7-4 3.6z"/><path class="fil3" id="_155801400" fill="#fff" d="M340 422.6l-4 4-4.2-4z"/><path class="fil4" id="_155801328" fill="#383739" fill-rule="nonzero" d="M336 434.8l4 3.2 4-1.8.7-4.6-3.8-3.3 6.3-6.2h-7.8l-3.6 3.5-3.6-3.4h-7.8l6.4 6.3-3.8 3.4.7 4.5 4 1.8z"/><path class="fil5" id="_155801256" fill="#28ae66" fill-rule="nonzero" d="M343.3 435.7L340 437l-4-3.2-.3.2-4 3-3-1.3-.7-3.8 4-3.7-6-5.7h5.8l4 4 4.2-4h5.7l-6 5.7 4.2 3.6z"/><path class="fil7" id="_155801184" fill="#fff" fill-rule="nonzero" d="M369.5 443.2v5.4l-3.3-2.7z"/><path d="M364.5 442l-3.4-3-4.4.4-1.8 3.3 3.2 3.2-3.2 3 1.8 3.3 4.5.6s3-2.8 3.5-3l5.4 4.3V448l-2.6-2 2.5-2.2v-5.6l-.6-.4c-1.6 1.4-3.2 2.8-5 4z" class="fil4" id="_155801112" fill="#383739" fill-rule="nonzero"/><path d="M369.5 443.2l-3.3 2.7 3.3 2.6v4.4l-5-4-3.6 3.2-4-.5c0-.3-1-2-1.3-2.5l3.3-3.3-3.3-3.4 1.4-2.5 4-.4c0 .2 3.5 3.3 3.5 3.3l5-4.3v4.5z" class="fil5" id="_155801040" fill="#28ae66" fill-rule="nonzero"/><path class="fil7" id="_155800968" fill="#fff" fill-rule="nonzero" d="M369.5 461v5.3l-3.3-2.7z"/><path d="M364.5 459.6l-3.4-3-4.4.5-1.8 3.4 3.2 3.2-3.2 3 1.8 3.4 4.5.6 3.5-3 5.4 4.4v-6.3l-2.6-2 2.5-2.2V455l-5.5 4.6z" class="fil4" id="_155800896" fill="#383739" fill-rule="nonzero"/><path d="M369.5 461l-3.3 2.6 3.3 2.7v4.4l-5-4-3.6 3.2c-.4-.2-3.6-.6-4-.6 0-.3-1-2.2-1.3-2.5l3.3-3.4-3.3-3.3 1.4-2.5 4-.5c0 .2 3.5 3.2 3.5 3.2l5-4v4.4z" class="fil5" id="_155800824" fill="#28ae66" fill-rule="nonzero"/><path class="fil7" id="_155800752" fill="#fff" fill-rule="nonzero" d="M369.5 484v-5.4l-3.3 2.7z"/><path d="M364.5 485.2l-3.4 3-4.4-.5-1.8-3.3 3.2-3c-.4-.6-3.2-3.3-3.2-3.3l1.8-3.2 4.5-.6 3.5 3 5.4-4.4v6.3l-2.6 2.3 2.5 2v5.7l-.5.3-5-4z" class="fil4" id="_155800680" fill="#383739" fill-rule="nonzero"/><path d="M369.5 484l-3.3-2.7 3.3-2.7V474l-5 4.2-3.6-3.2-4 .5-1.3 2.5 3.3 3.3-3.3 3.3 1.4 2.5 4 .5c0-.2 3.5-3.2 3.5-3.2l5 4V484z" class="fil5" id="_155768192" fill="#28ae66" fill-rule="nonzero"/><path class="fil7" id="_155768120" fill="#fff" fill-rule="nonzero" d="M260 443.2v5.4l3.2-2.7z"/><path d="M265 442l3.3-3 4.5.4 1.8 3.3-3.2 3.2 3.2 3-1.8 3.3-4.5.6s-3-2.8-3.4-3l-5.4 4.3V448l2.4-2-2.4-2.2V438l.3-.2c1.6 1.4 3.2 2.7 5 4z" class="fil4" id="_155768048" fill="#383739" fill-rule="nonzero"/><path d="M260 443.2l3.2 2.7-3.3 2.6v4.4l5-4 3.5 3.2 3.8-.5 1.4-2.5-3.3-3.3 3.3-3.4-1.4-2.5-3.8-.4-3.6 3.3-5-4.3v4.5z" class="fil5" id="_155767976" fill="#28ae66" fill-rule="nonzero"/><path class="fil7" id="_155767904" fill="#fff" fill-rule="nonzero" d="M260 461v5.3l3.2-2.7z"/><path d="M265 459.6l3.3-3 4.5.5 1.8 3.4-3.2 3.2 3.2 3-1.8 3.4-4.5.6-3.4-3-5.5 4.4v-6.4l2.5-2-2.5-2V455l5.4 4.4z" class="fil4" id="_155767832" fill="#383739" fill-rule="nonzero"/><path d="M260 461l3.2 2.6-3.3 2.7v4.4l5-4 3.5 3.2c.3-.2 3.5-.6 3.8-.6l1.4-2.5c-.3-.5-3.3-3.4-3.3-3.4l3.3-3.3-1.4-2.5-3.8-.5-3.6 3.2-5-4v4.4z" class="fil5" id="_155767760" fill="#28ae66" fill-rule="nonzero"/><path class="fil7" id="_155767688" fill="#fff" fill-rule="nonzero" d="M260 484v-5.4l3.2 2.7z"/><path d="M265 485.2l3.3 3 4.5-.5 1.8-3.3-3.2-3c.4-.6 3.2-3.3 3.2-3.3l-1.8-3.2-4.5-.6-3.4 3-5.5-4.3v6.2l2.5 2-2.5 2v5.8l.4.3c1.6-1.3 3.2-2.7 5-4z" class="fil4" id="_155767616" fill="#383739" fill-rule="nonzero"/><path d="M260 484l3.2-2.7-3.3-2.7V474l5 4.2 3.5-3.2 3.8.5 1.4 2.5-3.3 3.3 3.3 3.3-1.4 2.5-3.8.5-3.6-3.2-5 4V484z" class="fil5" id="_155767544" fill="#28ae66" fill-rule="nonzero"/><path class="fil4" id="_155767472" fill="#383739" fill-rule="nonzero" d="M333 475.8v-6.3h8.7v-11.8H333v-6.3h-6.5v-7H303v7h-6.5v6.3h-8.8v11.8h8.8v6.3h6.4v7h23.5v-7z"/><path class="fil6" id="_155767400" fill="#faae29" fill-rule="nonzero" d="M297.3 458.4V452h6.4v-7h10.6v7.3l-10 5.7v5.2h-16v-4.8z"/><path class="fil6" id="_155767328" fill="#faae29" fill-rule="nonzero" d="M332 468.8v6.3H326v7H315v-7l10.2-6v-5H341v4.8z"/><path class="fil7" id="_155767256" fill="#fff" fill-rule="nonzero" d="M332 452v6.4h9v4.8h-15.8V458l-10-5.7V445h10.6v7z"/><path class="fil7" id="_155767184" fill="#fff" fill-rule="nonzero" d="M303.7 475h-6.4V469h-9v-5h16v5.3l10 6v7h-10.6z"/><path class="fil2" id="_155767112" fill="#ca3745" d="M305 464v4.7l9.3 5.4v-10z"/><path class="fil1" id="_155767040" fill="#28ae66" d="M314.3 453l-9.4 5.4v4.8h9.3z"/><path class="fil2" id="_155766968" fill="#ca3745" d="M324.5 463.2v-4.8L315 453v10.2z"/><path class="fil1" id="_155766896" fill="#28ae66" d="M315 474l9.5-5.3V464H315z"/></g><g id="_155698728" fill-rule="nonzero"><path class="fil4" id="_155766800" fill="#383739" d="M229.2 589v19.5h-18.6v17.7h-18.8v50.4h18.8v17.7h18.6v19.5h67.6l12 7-5.8 3.6h-24l-2.2-2.4h21.8l-6-6.2H261l14.2 14.8h29.3l10-6 10 6H354l14.2-14.8H337l-6.2 6.2h21.8l-2 2.4h-24.2l-5.7-3.5 12-7.2H400v-19.5h18.6v-17.7h18.8v-50.4h-18.8v-17.7h-18.6V589h-67.6l-12-7 5.8-3.6h24l2.2 2.4h-21.8l6 6.2h31.4L354 572.2h-29.3l-10 6-10-6h-29.3L261.2 587h31.3l6-6.2H277l2-2.4H303l5.7 3.5-12 7z"/><path class="fil8" id="_155766728" fill="#ca3745" d="M418 627h19v49h-19v17.6h-18.5V713h-67l-13.2 8 7 4h24.6l3.2-3.7h-21.7l4.7-4.8h29.3L353.7 730H325l-10.3-6.3-10.2 6.2h-28.8L263 716.4H292l4.7 4.8H275l3.3 3.8h24.7l7-4-13.2-8h-67v-19.4h-18.7V676h-18.8v-49h18.8V609H230v-19.5h67l13-7.8-6.8-4.3h-24.7l-3.3 3.8H297l-4.8 4.8H263l12.7-13.4h28.8l10.2 6 10.2-6h28.7l12.8 13.3h-29.3l-4.7-4.8h21.7l-3.3-3.8H326l-7 4.2 13.2 7.7h67v19.5h18.7z"/><path class="fil4" id="_155766656" fill="#383739" d="M314.7 718.2l20-12h57.8v-19.6H411V669h19v-35h-19V616h-18.5v-19.5h-57.7l-20-12-20.2 12H237v19.5h-18.7V634h-18.8v35h18.8v17.6H237V706h57.6z"/><path class="fil6" id="_155766584" fill="#faae29" d="M391.8 685.8v19.6h-57.2l-20 12-19.8-12h-57.2v-19.6H219v-17.6h-18.8v-33.6H219V617h18.6v-19.6h57.2l20-12 19.8 12h57.2V617h18.6v17.6h18.8v33.6h-18.8v17.6z"/><path class="fil4" id="_155766512" fill="#383739" d="M314.7 712.4l18.8-11.2h54v-19.5h18.7V664H425v-25.2h-18.8V621h-18.6v-19.4h-54l-19-11.3-18.7 11.3h-54.2V621h-18.6V639h-18.8V664h18.8v17.7h18.6v19.5h54z"/><path class="fil5" id="_155766440" fill="#28ae66" d="M387 681v19.5h-53.7l-18.6 11-18.6-11h-53.5V681H224v-17.7h-19v-23.8h19v-17.7h18.5v-19.5H296l18.7-11 18.6 11H387v19.5h18.5v17.7h18.8v23.8h-18.8V681z"/><path class="fil4" id="_155766368" fill="#383739" d="M249.5 674v19H279l-29.5-19.5z"/><path class="fil8" id="_155766296" fill="#ca3745" d="M250.3 674.8l26.4 17.5h-26.4z"/><path class="fil4" id="_155749368" fill="#383739" d="M333.8 672.7V663h-3.3l-15.8-9.8h-.2L299 663h-3.4v9.7h-9.3V683h9.3v9.7h3.3l15.7 9.8 15.8-9.8h3.3V683h9.3v-10.3z"/><path d="M314.7 654l14.4 9h-28.7l14.4-9zm14.4 38.7l-14.3 9-14.4-9H329z" class="fil6" id="_155749296" fill="#faae29"/><path class="fil8" id="_155749224" fill="#ca3745" d="M333 683v9h-18v-9z"/><path class="fil8" id="_155749152" fill="#ca3745" d="M314.3 683v9h-18v-9z"/><path class="fil8" id="_155749080" fill="#ca3745" d="M342.4 673.4v9h-18v-9z"/><path class="fil8" id="_155749008" fill="#ca3745" d="M323.7 673.4v9h-18v-9z"/><path class="fil8" id="_155748936" fill="#ca3745" d="M305 673.4v9h-18v-9z"/><path class="fil8" id="_155748864" fill="#ca3745" d="M333 663.8v9h-18v-9z"/><path class="fil8" id="_155748792" fill="#ca3745" d="M314.3 663.8v9h-18v-9z"/><path class="fil4" id="_155748720" fill="#383739" d="M287 646.2v-9.6h-3l-16-10v.2l-15.7 9.8H249v9.6h-7.4v10.4h7.4v9.6h3.3l15.8 10 16-10h3v-9.6h11.4v-10.4z"/><path d="M268 627.6l14.5 9h-29l14.6-9zm14.5 38.6l-14.4 9-14.4-9h29z" class="fil8" id="_155748648" fill="#ca3745"/><path class="fil6" id="_155748576" fill="#faae29" d="M286.4 656.6v9h-18v-9z"/><path class="fil6" id="_155748504" fill="#faae29" d="M267.7 656.6v9h-18v-9z"/><path class="fil6" id="_155748432" fill="#faae29" d="M297.7 647v9h-18v-9z"/><path class="fil8" id="_155748360" fill="#ca3745" d="M279 647v9h-18v-9z"/><path class="fil6" id="_155748288" fill="#faae29" d="M260.3 647v9h-18v-9z"/><path class="fil6" id="_155748216" fill="#faae29" d="M286.4 637.3v9h-18v-9z"/><path class="fil6" id="_155748144" fill="#faae29" d="M267.7 637.3v9h-18v-9z"/><path class="fil4" id="_155748072" fill="#383739" d="M342.3 646.2v-9.6h3.3l15.7-10 .2.2 15.6 9.8h3.4v9.6h7.4v10.4h-7.4v9.6H377l-15.7 10-15.7-10h-3.3v-9.6H331v-10.4z"/><path d="M361.3 627.6l-14.4 9h28.8l-14.5-9zM347 666.2l14.3 9 14.5-9h-29z" class="fil8" id="_155748000" fill="#ca3745"/><path class="fil6" id="_155747928" fill="#faae29" d="M343 656.6v9h18v-9z"/><path class="fil6" id="_155747856" fill="#faae29" d="M361.7 656.6v9h18v-9z"/><path class="fil6" id="_155747784" fill="#faae29" d="M331.7 647v9h18v-9z"/><path class="fil8" id="_155747712" fill="#ca3745" d="M350.4 647v9h18v-9z"/><path class="fil6" id="_155747640" fill="#faae29" d="M369 647v9h18v-9z"/><path class="fil6" id="_155747568" fill="#faae29" d="M343 637.3v9h18v-9z"/><path class="fil6" id="_155747496" fill="#faae29" d="M361.7 637.3v9h18v-9z"/><path class="fil4" id="_155747424" fill="#383739" d="M333.8 630v9.8h-3.3l-15.8 9.8h-.2l-15.6-9.8h-3.4V630h-9.3V620h9.3V610h3.3l15.7-9.8 15.8 10h3.3v9.6h9.3V630z"/><path d="M314.7 648.8l14.4-9h-28.7l14.4 9zM329 610l-14.3-9-14.4 9H329z" class="fil6" id="_155734872" fill="#faae29"/><path class="fil8" id="_155734800" fill="#ca3745" d="M333 619.8v-9h-18v9z"/><path class="fil8" id="_155734728" fill="#ca3745" d="M314.3 619.8v-9h-18v9z"/><path class="fil8" id="_155734656" fill="#ca3745" d="M342.4 629.4v-9h-18v9z"/><path class="fil8" id="_155734584" fill="#ca3745" d="M323.7 629.4v-9h-18v9z"/><path class="fil8" id="_155734512" fill="#ca3745" d="M305 629.4v-9h-18v9z"/><path class="fil8" id="_155734440" fill="#ca3745" d="M333 639v-9h-18v9z"/><path class="fil8" id="_155734368" fill="#ca3745" d="M314.3 639v-9h-18v9z"/><path class="fil4" id="_155734296" fill="#383739" d="M249.5 628.7v-19H279l-29.5 19.6z"/><path d="M250.3 628l26.4-17.5h-26.4V628z" class="fil8" id="_155734224" fill="#ca3745"/><path class="fil4" id="_155734152" fill="#383739" d="M380 674v19h-29.6l29.5-19.5z"/><path d="M379 674.8L353 692.3H379v-17.5z" class="fil8" id="_155734080" fill="#ca3745"/><path class="fil4" id="_155734008" fill="#383739" d="M380 628.7v-19h-29.6l29.5 19.6z"/><path d="M379 628L353 610.5H379V628z" class="fil8" id="_155733936" fill="#ca3745"/><path class="fil4" id="_155733864" fill="#383739" d="M255.3 649v5h-8v-5z"/><path class="fil7" id="_155733792" fill="#fff" d="M254.6 649.7H248v3.4h6.6z"/><path class="fil4" id="_155733720" fill="#383739" d="M262.8 639.3v5h-8v-5z"/><path class="fil7" id="_155733648" fill="#fff" d="M262 640h-6.6v3.5h6.6z"/><path class="fil4" id="_155733576" fill="#383739" d="M281.5 639.3v5h-8v-5z"/><path class="fil7" id="_155733504" fill="#fff" d="M280.7 640H274v3.5h6.7z"/><path class="fil4" id="_155733432" fill="#383739" d="M274 649v5h-8v-5z"/><path class="fil7" id="_155733360" fill="#fff" d="M273.3 649.7h-6.6v3.4h6.6z"/><path class="fil4" id="_155733288" fill="#383739" d="M292.8 649v5h-8v-5z"/><path class="fil7" id="_155733216" fill="#fff" d="M292 649.7h-6.6v3.4h6.6z"/><path class="fil4" id="_155733144" fill="#383739" d="M281.5 658.6v5h-8v-5z"/><path class="fil7" id="_155733072" fill="#fff" d="M280.7 659.3H274v3.5h6.7z"/><path class="fil4" id="_155733000" fill="#383739" d="M262.8 658.6v5h-8v-5z"/><path class="fil7" id="_155732928" fill="#fff" d="M262 659.3h-6.6v3.5h6.6z"/><path class="fil4" id="_155727696" fill="#383739" d="M309.4 612.8v5h-8v-5z"/><path class="fil7" id="_155727624" fill="#fff" d="M308.6 613.6H302v3.4h6.6z"/><path class="fil4" id="_155727552" fill="#383739" d="M328 612.8v5h-8v-5z"/><path class="fil7" id="_155727480" fill="#fff" d="M327.3 613.6h-6.5v3.4h6.5z"/><path class="fil4" id="_155727408" fill="#383739" d="M300 622.5v5h-8v-5z"/><path class="fil7" id="_155727336" fill="#fff" d="M299.3 623.2h-6.6v3.5h6.6z"/><path class="fil4" id="_155727264" fill="#383739" d="M318.7 622.5v5h-8v-5z"/><path class="fil7" id="_155727192" fill="#fff" d="M318 623.2h-6.6v3.5h6.6z"/><path class="fil4" id="_155727120" fill="#383739" d="M337.5 622.5v5h-8v-5z"/><path class="fil7" id="_155727048" fill="#fff" d="M336.7 623.2H330v3.5h6.7z"/><path class="fil4" id="_155726976" fill="#383739" d="M309.4 632v5h-8v-5z"/><path class="fil7" id="_155726904" fill="#fff" d="M308.6 633H302v3.3h6.6z"/><path class="fil4" id="_155726832" fill="#383739" d="M328 632v5h-8v-5z"/><path class="fil7" id="_155726760" fill="#fff" d="M327.3 633h-6.5v3.3h6.5z"/><path class="fil4" id="_155714360" fill="#383739" d="M356 639.3v5h-8v-5z"/><path class="fil7" id="_155714288" fill="#fff" d="M355.3 640h-6.6v3.5h6.6z"/><path class="fil4" id="_155714216" fill="#383739" d="M374.7 639.3v5h-8v-5z"/><path class="fil7" id="_155714144" fill="#fff" d="M374 640h-6.6v3.5h6.6z"/><path class="fil4" id="_155714072" fill="#383739" d="M344.7 649v5h-8v-5z"/><path class="fil7" id="_155714000" fill="#fff" d="M344 649.7h-6.6v3.4h6.6z"/><path class="fil4" id="_155713928" fill="#383739" d="M363.4 649v5h-8v-5z"/><path class="fil7" id="_155713856" fill="#fff" d="M362.7 649.7H356v3.4h6.7z"/><path class="fil4" id="_155713784" fill="#383739" d="M382 649v5h-8v-5z"/><path class="fil7" id="_155713712" fill="#fff" d="M381.4 649.7h-6.6v3.4h6.6z"/><path class="fil4" id="_155713640" fill="#383739" d="M356 658.6v5h-8v-5z"/><path class="fil7" id="_155713568" fill="#fff" d="M355.3 659.3h-6.6v3.5h6.6z"/><path class="fil4" id="_155713496" fill="#383739" d="M374.7 658.6v5h-8v-5z"/><path class="fil7" id="_155713424" fill="#fff" d="M374 659.3h-6.6v3.5h6.6z"/><path class="fil4" id="_155708192" fill="#383739" d="M309.4 665.7v5h-8v-5z"/><path class="fil7" id="_155708120" fill="#fff" d="M308.6 666.5H302v3.4h6.6z"/><path class="fil4" id="_155708048" fill="#383739" d="M328 665.7v5h-8v-5z"/><path class="fil7" id="_155707976" fill="#fff" d="M327.3 666.5h-6.5v3.4h6.5z"/><path class="fil4" id="_155707904" fill="#383739" d="M300 675.4v5h-8v-5z"/><path class="fil7" id="_155707832" fill="#fff" d="M299.3 676h-6.6v3.6h6.6z"/><path class="fil4" id="_155707760" fill="#383739" d="M318.7 675.4v5h-8v-5z"/><path class="fil7" id="_155707688" fill="#fff" d="M318 676h-6.6v3.6h6.6z"/><path class="fil4" id="_155707616" fill="#383739" d="M337.5 675.4v5h-8v-5z"/><path class="fil7" id="_155707544" fill="#fff" d="M336.7 676H330v3.6h6.7z"/><path class="fil4" id="_155707472" fill="#383739" d="M309.4 685v5h-8v-5z"/><path class="fil7" id="_155707400" fill="#fff" d="M308.6 685.8H302v3.4h6.6z"/><path class="fil4" id="_155707328" fill="#383739" d="M328 685v5h-8v-5z"/><path class="fil7" id="_155698752" fill="#fff" d="M327.3 685.8h-6.5v3.4h6.5z"/></g><g id="_155661568" fill-rule="nonzero"><path class="fil4" id="_155698656" fill="#383739" d="M416.8 860.3l-70 37.7h-64.2l-70-37.7v-62l70-37.8H347l70 37.7z"/><path class="fil5" id="_155698584" fill="#28ae66" d="M346.6 897.2l69.5-37.4v-61.2l-69.4-37.4h-63.8l-69.5 37.4v61.2l69.5 37.4z"/><path class="fil4" id="_155698512" fill="#383739" d="M411 857l-65.6 35.3H284L218.3 857v-55.4l65.7-35.4h61.4l65.7 35.4z"/><path class="fil6" id="_155698440" fill="#faae29" d="M410.4 856.4v-26.8H315v62h30.2z"/><path class="fil6" id="_155698368" fill="#faae29" d="M219 829h95.3v-62h-30L219 802z"/><path class="fil7" id="_155698296" fill="#fff" d="M284.2 891.5h30v-62H219v27z"/><path class="fil7" id="_155698224" fill="#fff" d="M410.4 802l-65.2-35h-30v62h95.2z"/><path class="fil4" id="_155698152" fill="#383739" d="M345.2 854.3l-18.7 12V879l12.3 9h-18.2v-18l-6 3.6-5.8-3.7v18h-18.2l12.3-9v-12.8l-18.8-12h-13v-50h13l18.7-12v-12.8l-12.4-9h18.2v18l6-3.6 5.8 3.7v-18h18.2l-12.3 9v12.8l18.7 12h13v50z"/><path class="fil6" id="_155698080" fill="#faae29" d="M345 805l-19.2-12.3V779l10.8-8h-15.3V790l-6.2-4v43h42.6v-24z"/><path class="fil6" id="_155698008" fill="#faae29" d="M284.4 853.5l19.2 12.3v13.6l-10.8 8H308v-18.8l6.3 4v-43h-42.5v24z"/><path class="fil7" id="_155697936" fill="#fff" d="M321.3 887.3h15.3l-10.8-8V866l19.2-12.3h12.6v-24H315v43l6.3-4z"/><path class="fil7" id="_155697864" fill="#fff" d="M303.6 792.7L284.4 805h-12.6v24h42.5v-43l-6.2 3.8V771H293l10.8 8z"/><path class="fil4" id="_155697792" fill="#383739" d="M343.7 809.4h9.4V849h-9.3l-29 18.4-29-18.4h-9.4v-39.6h9.4l29-18.4h.2z"/><path class="fil8" id="_155674840" fill="#ca3745" d="M343.5 810l-28.8-18-28.8 18h-9v38.3h9l28.7 18.3 28.8-18.3h9V810h-9z"/><path class="fil4" id="_155674768" fill="#383739" d="M322.3 811v2.6h3.4v5.3H317v-13.3h19.6v9.2h9.5v13.4h-9.8V823h4.6v-2.8h-6.2l-14.8 9 14.8 9h6.2v-2.8h-4.6V830h10v13.6h-9.6v9.2H317v-13.2h8.7v5.3h-3.4v2.5h9v-5l-16.6-10.2-16.6 10v5.2h9V845h-3.3v-5.4h8.6v13.2h-19.5v-9.2h-9.5V830h10v5.4h-4.7v3h6.2l14.8-9.2-14.8-9h-6.2v3h4.6v5.2h-10V815h9.6v-9.3h19.4V819h-8.5v-5.4h3.4V811h-9v5l16.7 10 16.6-10v-5z"/><path class="fil7" id="_155674696" fill="#fff" d="M288 834.7h4.5v-4H284V843h9.5v9h18v-11.7h-7v3.8h3.3v4.2h-10.4V842l17.3-10.5L332 842v6.2h-10.4v-4h3.3v-4h-7.2v12h18v-9.3h9.6v-12.2H337v4h4.5v4.2h-7l-16-9.8 16-9.8h7v4.4H337v3.8h8.4v-12H336v-9.2h-18.2v11.8h7v-4h-3.2v-4H332v6.2L314.7 827l-17.3-10.6v-6.2h10.4v4h-3.3v4h7v-11.8h-18v9.2H284v12h8.5v-3.8H288v-4.4h7l16 9.8-16 9.8h-7z"/><path class="fil4" id="_155674624" fill="#383739" d="M379.6 832.4v7h8.4v-7h8.4V852H388v-7h-8.4v7h-8.3v-19.6z"/><path class="fil4" id="_155674552" fill="#383739" d="M349.8 858.4v7h8.4v-7h8.3V878h-8.3v-7h-8.4v7h-8.3v-19.6z"/><path class="fil4" id="_155674480" fill="#383739" d="M379.6 826v-6.8h8.4v7h8.4v-19.7H388v7h-8.4v-7h-8.3V826z"/><path class="fil4" id="_155674408" fill="#383739" d="M249.8 832.4v7h-8.4v-7H233V852h8.4v-7h8.4v7h8.3v-19.6z"/><path class="fil4" id="_155674336" fill="#383739" d="M249.8 826v-6.8h-8.4v7H233v-19.7h8.4v7h8.4v-7h8.3V826z"/><path class="fil4" id="_155674264" fill="#383739" d="M349.8 800v-6.8h8.4v7h8.3v-19.7h-8.3v7h-8.4v-7h-8.3V800z"/><path class="fil4" id="_155674192" fill="#383739" d="M279.6 858.4v7h-8.4v-7H263V878h8.2v-7h8.4v7h8.3v-19.6z"/><path class="fil4" id="_155674120" fill="#383739" d="M279.6 800v-6.8h-8.4v7H263v-19.7h8.2v7h8.4v-7h8.3V800z"/><path class="fil8" id="_155674048" fill="#ca3745" d="M372 833v18.2h7v-7h9.7v7h7v-18h-7v6.8H379v-7z"/><path class="fil8" id="_155673976" fill="#ca3745" d="M342.2 859v18.2h7v-7h9.7v7h6.8v-18h-7v6.8h-9.7v-7z"/><path class="fil8" id="_155662528" fill="#ca3745" d="M372 825.4v-18.2h7v7h9.7v-7h7v18.2h-7v-7H379v7z"/><path class="fil8" id="_155662456" fill="#ca3745" d="M257.4 833v18.2h-7v-7h-9.7v7h-7v-18h7v6.8h9.8v-7z"/><path class="fil8" id="_155662384" fill="#ca3745" d="M257.4 825.4v-18.2h-7v7h-9.7v-7h-7v18.2h7v-7h9.8v7z"/><path class="fil8" id="_155662312" fill="#ca3745" d="M342.2 799.4v-18.2h7v7h9.7v-7h6.8v18.2h-7v-7h-9.7v7z"/><path class="fil8" id="_155662240" fill="#ca3745" d="M287.2 859v18.2h-7v-7h-9.7v7h-7v-18h7v6.8h9.8v-7z"/><path class="fil8" id="_155662168" fill="#ca3745" d="M287.2 799.4v-18.2h-7v7h-9.7v-7h-7v18.2h7v-7h9.8v7z"/><path class="fil4" id="_155662096" fill="#383739" d="M399.2 801.2l-27.7-14.8v14.8z"/><path class="fil9" id="_155662024" d="M230.3 857.2l27.6 15v-15z"/><path class="fil9" id="_155661952" d="M230.3 801.2l27.6-14.8v14.8z"/><path class="fil4" id="_155661880" fill="#383739" d="M399.2 857.2l-27.7 15v-15z"/><path class="fil6" id="_155661808" fill="#faae29" d="M372.2 800.5v-13l24 13z"/><path class="fil6" id="_155661736" fill="#faae29" d="M257.2 858v13l-24-13z"/><path class="fil7" id="_155661664" fill="#fff" d="M257.2 800.5v-13l-24 13z"/><path class="fil7" id="_155661592" fill="#fff" d="M372.2 858v13l24-13z"/></g><g id="олива" fill="#faae29" fill-rule="nonzero"><path d="M201.7 884c1.3 5.6 6 9.8 7 15.7 2-6 4-11.3 2.6-18-1-4.8-5-8.2-5.6-13-4.4 3.8-5.3 9.4-4 15.2zm-1 23.7c3.6 5 8.8 9 14.6 11.6-1.2-4.5 1-7.8 3.3-11.4 2.8-4.4 4.2-8.6 2-13.5-1.2 2.5-2.6 4.7-4.3 7-2.5 3.3-4.2 6.3-4.6 10.7-3-2-4-5.3-5.7-8.5-2.4-4.4-6.2-8-10.6-10.6 1.2 5 2 10.4 5.2 14.7zm20.8 15.2c-.8 2.8-1.4 5.6-1.3 8.6-2.5-2.7-5.7-4.7-8.7-7-4-3-8.6-5.3-11.8-9.4.4 6 3 11 8 14.6 5 4 11.4 6 16.5 10-.8-5.5 1.2-10 3-15 1.4-4.7 0-9.6-3.3-13.3 0 4-1.3 7.6-2.5 11.4zm11.7 18.5c1 4 4 7.5 6 11.2-5.4-1.7-10.3-4.7-15.2-7.5-6-3.2-12.4-5.2-17.7-9.5 2.6 10 9.2 15.6 19 18.5 6.5 2 12 1 20 4.2-.8-5.4-2.5-11.2-5-16-2-3.7-4.2-7.2-5.4-11-2 3-2.8 6.4-1.8 10zm20.2 15c2 3.3 4.4 6 7.5 8.2-8 .5-14.2-4.5-21.8-4.7-4.7 0-9.2 1.3-14 1 5.7 3.7 11.7 7 18.6 8 9 1 17.3-1 27.2-.2-4.6-3.3-7-7.7-9.8-12.4-3.8-6-7.4-10-14.7-11 3 3.3 4.7 7.4 7 11zm27.7 13c-13.7 2.3-26.8 5.3-41 5.5 16 5.5 30.6 6.5 46.2.8 8.4-3 15-4.7 21.3-4.2 9.2.6 20.5 4.3 33 17.5l5-4c-18-15.8-41.4-19.4-64.4-15.5z" class="fil6" id="_155640120"/><path d="M427.8 884c-1.4 5.6-6 9.8-7 15.7-2-6-4-11.3-2.6-18 1-4.8 5-8.2 5.6-13 4.4 3.8 5.3 9.4 4 15.2zm1 23.7c-3.7 5-8.8 9-14.6 11.6 1-4.5-1-7.8-3.3-11.4-3-4.4-4.3-8.6-2-13.5 1 2.5 2.5 4.7 4.2 7 2.5 3.3 4.2 6.3 4.5 10.7 3-2 4.2-5.3 5.8-8.5 2.3-4.4 6-8 10.5-10.6-1 5-2 10.4-5 14.7zM408 923c1 2.8 1.6 5.6 1.5 8.6 2.4-2.7 5.7-4.7 8.6-7 4-3 8.6-5.3 11.8-9.4-.5 6-3 11-8 14.6-5 4-11.4 6-16.5 10 .8-5.5-1.3-10-3-15-1.4-4.7 0-9.6 3.3-13.3 0 4 1.2 7.6 2.3 11.4zm-11.5 18.5c-1 4-4 7.5-6 11.2 5.4-1.7 10.2-4.7 15.2-7.5 6-3.2 12.3-5.2 17.7-9.5-2.7 10-9.3 15.6-19 18.5-6.5 2-12 1-20 4.2.8-5.4 2.4-11.2 5-16 2-3.7 4.2-7.2 5.4-11 1.8 3 2.6 6.4 1.7 10zm-20.2 15c-1.8 3.3-4.3 6-7.4 8.2 7.8.5 14-4.5 21.7-4.7 4.7 0 9 1.3 14 1-5.8 3.7-11.7 7-18.6 8-9 1-17.3-1-27.2-.2 4.6-3.3 7-7.7 9.8-12.4 3.8-6 7.3-10 14.6-11-3 3.3-4.7 7.4-7 11zm-27.6 13c13.7 2.3 27 5.3 41 5.5-15.8 5.5-30.6 6.5-46.2.8-8.4-3-14.8-4.7-21.2-4.2-9.3.6-20.6 4.3-33 17.5l-5-4c18-15.8 41.4-19.4 64.4-15.5z" class="fil6" id="_155640048"/></g><g id="_155639520" fill-rule="nonzero"><path class="fil4" id="_155639904" fill="#383739" d="M200.4 219l5 5-25.6 23.8V238l15.2-14-5-5 10.7-10-4.7-4.4v6.3h-9.3v-7.6l21-19.5H218l1.2 6.8h-6l6.5 6.2 16.4-15.2-16.5-15-6.7 6h6l-1 7h-10.7l-21-19.5v-7.5h9.4v6.2l4.7-4.3-10.8-10 5-5-15.2-14V116l25.7 23.8-5 4.8 10.7 10-9.3 8.7 6 5.7 11.8-11 26 23.8-26 24-11.8-11-6 5.6 9.2 8.6z"/><path class="fil6" id="_155639832" fill="#faae29" d="M211.4 173.6l8.5-8 17.5 16.2L220 198l-8.6-8h7l-1-5.4H208l-20.6 19v6.6h7.8V203l6.6 6-10.8 10 5 5-16.2 15v7.8l24.6-23-5-4.7 10.7-10-9.2-8.6 7.2-6.7 11.8 11 25-23-25-22.7-11.8 11-7.2-6.7 9.3-8.6-10.7-10 5-5L180 117v7.7l16.3 15-5 5 10.8 10-6.6 6v-7.2h-7.8v6.5l20.5 19h9.5l1-5.4z"/><path class="fil4" id="_155639760" fill="#383739" d="M229 181.5l-5.4 5-1-5 1-5z"/><path class="fil6" id="_155639688" fill="#faae29" d="M224 178l-.5 3.5.6 3.6 4-3.5z"/><path class="fil4" id="_155639616" fill="#383739" d="M192.2 187l5-5-5-5.3H186v-7.2l-6.2-6v36.8l6-6V187z"/><path class="fil6" id="_155639544" fill="#faae29" d="M192 177.4l4.3 4.5-4.4 4.3h-7v7.6l-5.2 5.3v-35l5.3 5.5v7.6z"/></g><g id="_155634008" fill-rule="nonzero"><path class="fil4" id="_155639448" fill="#383739" d="M200.4 407l5 4.7-25.6 24v-10l15.2-14-5-4.8 10.7-10-4.7-4.5v6.3h-9.3v-7.6l21-19.5H218l1.2 7h-6l6.5 6 16.4-15-16.5-15.2-6.7 6.2h6l-1 7h-10.7l-21-19.6v-7.4h9.4v6.3l4.7-4.5-10.8-10 5-5-15.2-14v-9.8l25.7 24-5 4.7 10.7 10-9.3 8.7 6 5.8 11.8-11 26 24-26 23.7-11.8-11-6 5.7 9.2 8.7z"/><path class="fil6" id="_155639376" fill="#faae29" d="M211.4 361.4l8.5-8 17.5 16.3-17.6 16-8.6-7.8h7l-1-5.6H208l-20.6 19v6.6h7.8v-7.2l6.6 6-10.8 10 5 5-16.2 15v7.8l24.6-23-5-4.7 10.7-10-9.2-8.8 7.2-6.7 11.8 11 25-22.8-25-23-11.8 11-7.2-6.6 9.3-8.5-10.7-10 5-5-24.5-22.8v7.8l16.3 15-5 5 10.8 10-6.6 6v-7.2h-7.8v6.5l20.5 19h9.5l1-5.4z"/><path class="fil4" id="_155639304" fill="#383739" d="M229 369.4l-5.4 5-1-5 1-5z"/><path class="fil6" id="_155639232" fill="#faae29" d="M224 365.7l-.5 3.7.6 3.6 4-3.6z"/><path class="fil4" id="_155634104" fill="#383739" d="M192.2 374.8l5-5-5-5.3H186v-7.2l-6.2-6V388l6-6V375z"/><path class="fil6" id="_155634032" fill="#faae29" d="M192 365.2l4.3 4.5-4.4 4.4h-7v7.8L180 387v-34.7l5.3 5.3v7.6z"/></g><g id="_155633552" fill-rule="nonzero"><path class="fil4" id="_155633936" fill="#383739" d="M200.4 594.7l5 4.8-25.6 24v-9.8l15.2-14.2-5-4.8 10.7-10-4.7-4.4v6.3h-9.3V579l21-19.5H218l1.2 7h-6l6.5 6 16.4-15-16.5-15-6.7 6h6l-1 7h-10.7l-21-19.6v-7.6h9.4v6.3l4.7-4.4-10.8-10 5-4.8-15.2-14.2v-9.7l25.7 24-5 4.6 10.7 10-9.3 8.7 6 5.7 11.8-11 26 23.8-26 23.8-11.8-11-6 5.7 9.2 8.7z"/><path class="fil6" id="_155633864" fill="#faae29" d="M211.4 549.2l8.5-7.8 17.5 16-17.6 16.2-8.6-8h7l-1-5.4H208l-20.6 19v6.7h7.8v-7.4l6.6 6-10.8 10 5 5-16.2 15v7.8l24.6-23-5-4.7 10.7-10-9.2-8.7 7.2-6.7 11.8 11 25-22.8-25-23-11.8 11.2-7.2-6.8 9.3-8.7-10.7-10 5-4.8-24.5-23v7.8l16.3 15.2-5 4.7 10.8 10-6.6 6.2V529h-7.8v6.6l20.5 19h9.5l1-5.4z"/><path class="fil4" id="_155633792" fill="#383739" d="M229 557.2l-5.4 5-1-5 1-5z"/><path class="fil6" id="_155633720" fill="#faae29" d="M224 553.5l-.5 3.7.6 3.6 4-3.6z"/><path class="fil4" id="_155633648" fill="#383739" d="M192.2 562.6l5-5-5-5.3H186V545l-6.2-6v37l6-6v-7.4z"/><path class="fil6" id="_155633576" fill="#faae29" d="M192 553l4.3 4.5-4.4 4.4h-7v7.6L180 575v-35l5.3 5.4v7.6z"/></g><g id="_155620248" fill-rule="nonzero"><path class="fil4" id="_155633480" fill="#383739" d="M200.4 782.6l5 4.7-25.6 24v-9.8l15.2-14.2-5-4.7 10.7-10-4.7-4.5v6.4h-9.3V767l21-19.6H218l1.2 7h-6l6.5 6 16.4-15L220 730l-6.7 6.2h6l-1 7h-10.7l-21-19.7v-7.5h9.4v6.3l4.7-4.4-10.8-10 5-4.7-15.2-14.2v-9.6l25.7 24-5 4.7 10.7 10-9.3 8.8 6 5.7 11.8-11 26 23.8-26 23.8-11.8-11-6 6 9.2 8.5z"/><path class="fil6" id="_155633408" fill="#faae29" d="M211.4 737l8.5-7.8 17.5 16-17.6 16.2-8.6-8h7l-1-5.3H208l-20.6 19.2v6.5h7.8v-7.3l6.6 6-10.8 10.2 5 4.7-16.2 15.2v7.7l24.6-23-5-4.6 10.7-10-9.2-8.7 7.2-7 11.8 11 25-22.7-25-22.8-11.8 11-7.2-6.7 9.3-8.7-10.7-10 5-4.7-24.5-23v7.8l16.3 15.3-5 4.8 10.8 10-6.6 6.2V717h-7.8v6.4l20.5 19.2h9.5l1-5.5z"/><path class="fil4" id="_155633336" fill="#383739" d="M229 745l-5.4 5-1-5 1-5z"/><path class="fil6" id="_155633264" fill="#faae29" d="M224 741.4l-.5 3.6.6 3.6 4-3.6z"/><path class="fil4" id="_155633192" fill="#383739" d="M192.2 750.5l5-5.2-5-5.2H186v-7l-6.2-6v36.7l6-6v-7.2z"/><path class="fil6" id="_155620272" fill="#faae29" d="M192 741l4.3 4.3-4.4 4.4h-7v7.7l-5.2 5.3V728l5.3 5.2v7.7z"/></g><g id="_155619792" fill-rule="nonzero"><path class="fil4" id="_155620176" fill="#383739" d="M429 219l-5 5 25.6 23.8V238l-15.2-14 5-5-10.7-10 4.7-4.4v6.3h9.3v-7.6l-21-19.5h-10.5l-1.2 6.8h6l-6.5 6.2-16.5-15.2 16.5-15 6.6 6h-6l1.2 7h10.6l21-19.5v-7.5h-9.4v6.2l-4.7-4.3 10.8-10-5-5 15-14V116L424 139.7l5 4.8-10.8 10 9.3 8.7-6 5.7-12-11-26 23.8 26 24 12-11 6 5.6-9.3 8.6z"/><path class="fil6" id="_155620104" fill="#faae29" d="M418 173.6l-8.5-8L392 182l17.5 16.2 8.5-8h-7l1-5.4h9.5l20.5 19v6.6h-7.8V203l-6.6 6 10.8 10-5 5 16.2 15v7.8l-24.6-23 5-4.7-10.7-10 9.3-8.6-7.2-6.7-11.8 11-25-23 25-22.7 11.8 11 7.2-6.7-9.3-8.6 10.8-10-5-5 24.6-22.8v7.7l-16.3 15 5 5-10.7 10 6.6 6v-7.2h7.8v6.5l-20.5 19H412l-1-5.4z"/><path class="fil4" id="_155620032" fill="#383739" d="M400.3 181.5l5.5 5 1-5-1-5z"/><path class="fil6" id="_155619960" fill="#faae29" d="M405.3 178l.6 3.5-.7 3.6-4-3.5z"/><path class="fil4" id="_155619888" fill="#383739" d="M437.2 187l-5-5 5-5.3h6.3v-7.2l6-6v36.8l-6-6V187z"/><path class="fil6" id="_155619816" fill="#faae29" d="M437.5 177.4L433 182l4.5 4.3h6.8v7.6l5.3 5.3v-35l-5.3 5.5v7.6z"/></g><g id="_155619336" fill-rule="nonzero"><path class="fil4" id="_155619720" fill="#383739" d="M429 407l-5 4.7 25.6 24v-10l-15.2-14 5-4.8-10.7-10 4.7-4.5v6.3h9.3v-7.6l-21-19.5h-10.5l-1.2 7h6l-6.5 6-16.5-15 16.5-15.2 6.6 6.2h-6l1.2 7h10.6l21-19.6v-7.4h-9.4v6.3l-4.7-4.5 10.8-10-5-5 15-14v-9.8l-25.6 24 5 4.7-10.8 10 9.3 8.7-6 5.8-12-11-26 24 26 23.7 12-11 6 5.7-9.3 8.7z"/><path class="fil6" id="_155619648" fill="#faae29" d="M418 361.4l-8.5-8-17.6 16.3 17.5 16 8.5-7.8h-7l1-5.6h9.5l20.5 19v6.6h-7.8v-7.2l-6.6 6 10.8 10-5 5 16.2 15v7.8l-24.6-23 5-4.7-10.7-10 9.3-8.8-7.2-6.7-11.8 11-25-22.8 25-23 11.8 11 7.2-6.6-9.3-8.5 10.8-10-5-5 24.6-22.8v7.8l-16.3 15 5 5-10.7 10 6.6 6v-7.2h7.8v6.5l-20.5 19H412l-1-5.4z"/><path class="fil4" id="_155619576" fill="#383739" d="M400.3 369.4l5.5 5 1-5-1-5z"/><path class="fil6" id="_155619504" fill="#faae29" d="M405.3 365.7l.6 3.7-.7 3.6-4-3.6z"/><path class="fil4" id="_155619432" fill="#383739" d="M437.2 374.8l-5-5 5-5.3h6.3v-7.2l6-6V388l-6-6V375z"/><path class="fil6" id="_155619360" fill="#faae29" d="M437.5 365.2l-4.4 4.5 4.5 4.4h6.8v7.8l5.3 5.3v-34.7l-5.3 5.3v7.6z"/></g><g id="_155610240" fill-rule="nonzero"><path class="fil4" id="_155610624" fill="#383739" d="M429 594.7l-5 4.8 25.6 24v-9.8l-15.2-14.2 5-4.8-10.7-10 4.7-4.4v6.3h9.3V579l-21-19.5h-10.5l-1.2 7h6l-6.5 6-16.5-15 16.5-15 6.6 6h-6l1.2 7h10.6l21-19.6v-7.6h-9.4v6.3l-4.7-4.4 10.8-10-5-4.8 15-14.2v-9.7l-25.6 24 5 4.6-10.8 10 9.3 8.7-6 5.7-12-11-26 23.8 26 23.8 12-11 6 5.7-9.3 8.7z"/><path class="fil6" id="_155610552" fill="#faae29" d="M418 549.2l-8.5-7.8-17.6 16 17.5 16.2 8.5-8h-7l1-5.4h9.5l20.5 19v6.7h-7.8v-7.4l-6.6 6 10.8 10-5 5 16.2 15v7.8l-24.6-23 5-4.7-10.7-10 9.3-8.7-7.2-6.7-11.8 11-25-22.8 25-23 11.8 11.2 7.2-6.8-9.3-8.7 10.8-10-5-4.8 24.6-23v7.8l-16.3 15.2 5 4.7-10.7 10 6.6 6.2V529h7.8v6.6l-20.5 19H412l-1-5.4z"/><path class="fil4" id="_155610480" fill="#383739" d="M400.3 557.2l5.5 5 1-5-1-5z"/><path class="fil6" id="_155610408" fill="#faae29" d="M405.3 553.5l.6 3.7-.7 3.6-4-3.6z"/><path class="fil4" id="_155610336" fill="#383739" d="M437.2 562.6l-5-5 5-5.3h6.3V545l6-6v37l-6-6v-7.4z"/><path class="fil6" id="_155610264" fill="#faae29" d="M437.5 553l-4.4 4.5 4.5 4.4h6.8v7.6l5.3 5.3v-35l-5.3 5.4v7.6z"/></g><g id="_155609784" fill-rule="nonzero"><path class="fil4" id="_155610168" fill="#383739" d="M429 782.6l-5 4.7 25.6 24v-9.8l-15.2-14.2 5-4.7-10.7-10 4.7-4.5v6.4h9.3V767l-21-19.6h-10.5l-1.2 7h6l-6.5 6-16.5-15 16.5-15.2 6.6 6.2h-6l1.2 7h10.6l21-19.7v-7.5h-9.4v6.3l-4.7-4.4 10.8-10-5-4.7 15-14.2v-9.6l-25.6 24 5 4.7-10.8 10 9.3 8.8-6 5.7-12-11-26 23.8 26 23.8 12-11 6 6-9.3 8.5z"/><path class="fil6" id="_155610096" fill="#faae29" d="M418 737l-8.5-7.8-17.6 16 17.5 16.2 8.5-8h-7l1-5.3h9.5l20.5 19.2v6.5h-7.8v-7.3l-6.6 6 10.8 10.2-5 4.7 16.2 15.2v7.7l-24.6-23 5-4.6-10.7-10 9.3-8.7-7.2-7-11.8 11-25-22.7 25-22.8 11.8 11 7.2-6.7-9.3-8.7 10.8-10-5-4.7 24.6-23v7.8l-16.3 15.3 5 4.8-10.7 10 6.6 6.2V717h7.8v6.4l-20.5 19.2H412l-1-5.5z"/><path class="fil4" id="_155610024" fill="#383739" d="M400.3 745l5.5 5 1-5-1-5z"/><path class="fil6" id="_155609952" fill="#faae29" d="M405.3 741.4l.6 3.6-.7 3.6-4-3.6z"/><path class="fil4" id="_155609880" fill="#383739" d="M437.2 750.5l-5-5.2 5-5.2h6.3v-7l6-6v36.7l-6-6v-7.2z"/><path class="fil6" id="_155609808" fill="#faae29" d="M437.5 741l-4.4 4.3 4.5 4.4h6.8v7.7l5.3 5.3V728l-5.3 5.2v7.7z"/></g><g id="_155603432" fill-rule="nonzero"><path class="fil4" id="_155609712" fill="#383739" d="M196 22.8V29h-9.3v-7.4l21-19.6H218l1.2 7h-6l6.5 6 16.4-15h9.4l-26 23.8-11.8-11-6 5.7 9.2 8.7-10.8 10 5 4.8L180 66V56L195 42l-5-4.7 10.7-10z"/><path class="fil6" id="_155603744" fill="#faae29" d="M196 42L180 57.2V65l24.6-23-5-4.7 10.7-10-9.2-8.8 7.2-6.7 11.8 11 25-22.8h-7.3L220 16l-8.6-7.8h7l-1-5.4H208l-20.6 19v6.6h7.8V21l6.6 6.2-10.8 10z"/><path class="fil4" id="_155603672" fill="#383739" d="M228.7 0l-5 4.8-1-4.8z"/><path class="fil6" id="_155603600" fill="#faae29" d="M223.5 0l.6 3.3 3.6-3.3z"/><path class="fil4" id="_155603528" fill="#383739" d="M197.3 0h-17.5v18.4l6-6V5.2h6.4l5-5.2z"/><path class="fil6" id="_155603456" fill="#faae29" d="M179.8 17.4V0h16.5L192 4.4h-7V12z"/></g><g id="_155602976" fill-rule="nonzero"><path class="fil4" id="_155603360" fill="#383739" d="M433.4 22.8V29h9.3v-7.4L421.7 2h-10.5L410 9h6l-6.5 6L393 0h-9.4l26 23.8 11.8-11 6 5.7-9.2 8.7 10.8 10-5 4.8 25.6 24V56L434.4 42l5-4.7-10.7-10z"/><path class="fil6" id="_155603288" fill="#faae29" d="M433.3 42l16.3 15.2V65L425 42l5-4.7-10.7-10 9.3-8.8-7.2-6.7-11.8 11-25-22.8h7.3l17.5 16 8.5-7.8h-7l1-5.4h9.5l20.5 19v6.6h-7.8V21l-6.6 6.2 10.8 10z"/><path class="fil4" id="_155603216" fill="#383739" d="M400.7 0l5 4.8 1-4.8z"/><path class="fil6" id="_155603144" fill="#faae29" d="M406 0l-.7 3.3-3.5-3.3z"/><path class="fil4" id="_155603072" fill="#383739" d="M432 0h17.6v18.4l-6-6V5.2H437l-5-5.2z"/><path class="fil6" id="_155603000" fill="#faae29" d="M449.6 17.4V0H433l4.5 4.4h6.8V12z"/></g></svg>