<svg xmlns="http://www.w3.org/2000/svg" xmlns:xlink="http://www.w3.org/1999/xlink" width="500" height="500" viewBox="0 0 2500 2500"><title>Flag of Vatican City</title><defs><linearGradient id="b"><stop offset="0" stop-opacity=".8"/><stop offset="1" stop-opacity="0"/></linearGradient><linearGradient id="a"><stop offset="0" stop-color="#fff"/><stop offset="1" stop-color="#c9c9c9"/></linearGradient><linearGradient x1="332.7" y1="560.2" x2="362.9" y2="524.3" id="d" xlink:href="#b" gradientUnits="userSpaceOnUse" gradientTransform="matrix(-1 0 0 1 469.6 -517.9)"/><radialGradient cx="483" cy="295.4" r="8.6" fx="483" fy="295.4" id="e" xlink:href="#a" gradientUnits="userSpaceOnUse"/><radialGradient cx="483" cy="295.4" r="8.5" fx="483" fy="295.4" id="f" xlink:href="#a" gradientUnits="userSpaceOnUse"/><radialGradient cx="483" cy="295.4" r="8.5" fx="483" fy="295.4" id="g" xlink:href="#a" gradientUnits="userSpaceOnUse"/><radialGradient cx="483" cy="295.4" r="8.6" fx="483" fy="295.4" id="h" xlink:href="#a" gradientUnits="userSpaceOnUse"/><radialGradient cx="483" cy="295.4" r="8.5" fx="483" fy="295.4" id="i" xlink:href="#a" gradientUnits="userSpaceOnUse"/><radialGradient cx="483" cy="295.4" r="8.5" fx="483" fy="295.4" id="j" xlink:href="#a" gradientUnits="userSpaceOnUse"/><radialGradient cx="483" cy="295.4" r="8.6" fx="483" fy="295.4" id="k" xlink:href="#a" gradientUnits="userSpaceOnUse"/><radialGradient cx="483" cy="295.4" r="8.5" fx="483" fy="295.4" id="l" xlink:href="#a" gradientUnits="userSpaceOnUse"/><radialGradient cx="483" cy="295.4" r="8.5" fx="483" fy="295.4" id="m" xlink:href="#a" gradientUnits="userSpaceOnUse"/><radialGradient cx="483" cy="295.4" r="8.6" fx="483" fy="295.4" id="n" xlink:href="#a" gradientUnits="userSpaceOnUse"/><radialGradient cx="483" cy="295.4" r="8.6" fx="483" fy="295.4" id="o" xlink:href="#a" gradientUnits="userSpaceOnUse"/><radialGradient cx="483" cy="295.4" r="8.6" fx="483" fy="295.4" id="p" xlink:href="#a" gradientUnits="userSpaceOnUse"/></defs><path font-size="12" fill="#fff" fill-rule="evenodd" d="M0 0h2500v2500H0z"/><path font-size="12" fill="#ffe000" fill-rule="evenodd" d="M0 0h1250v2500H0z"/><defs transform="matrix(26.40912 0 0 27.77 -38568.8 -6880)" fill-rule="evenodd"><path id="c" d="M529 342.2v98H470V343z"/></defs><g transform="translate(1873.9 1138.2)"><path d="M354.8 147.7a59 9.8 0 1 1-117.8 0 59 9.8 0 1 1 117.8 0z" transform="matrix(1.6255 0 0 1.502 -479.3 -234.5)" fill="#c80035" fill-rule="evenodd" stroke="#000" stroke-width=".6"/><path d="M-8-22.6l-39-37.8c-21.7 81-80.5 142-108.6 119l39 37.7c28 23 86.8-37.8 108.5-119z" fill="#fff" stroke="#000" stroke-width=".8" stroke-linecap="round" stroke-linejoin="round"/><path d="M-13-27.3c-21.7 81-80.4 142-108.6 119l5 4.6c28 23 86.8-37.8 108.5-119l-5-4.6zM-47-60.4c-21.7 81-80.5 142-108.6 119 0 0 4 3.7 5 4.8C-122.3 85.4-64 25-42.4-55.8l-4.6-4.6z" fill="#ffbd03" stroke="#000" stroke-width=".8" stroke-linecap="round" stroke-linejoin="round"/><path d="M-40.4-17.8c-2.4 6-4.6 12-7.5 18l-9.3-8c-2.6 5.6-5.4 11-9 16.4l11.3 3.8c-5.4 8.6-11 17.2-18.7 25.8l12.7 9.6c6-10.2 11-20.4 14.8-30.6l9 7.3c3.4-5 6-10.7 8.8-16.3l-10.8-3.8c3.4-5.3 7-10.6 10.3-16l-11.4-6.2z" font-size="12" fill="#ffbd03" fill-rule="evenodd" stroke="#000" stroke-width=".8"/><path d="M9.2-22.6l39-37.8c21.6 81 80.4 142 108.5 119l-39 37.7c-28 23-86.8-37.8-108.5-119z" fill="#fff" stroke="#000" stroke-width=".8" stroke-linecap="round" stroke-linejoin="round"/><path d="M48-60.4c21.8 81 80.6 142 108.7 119 0 0-4 3.7-5 4.8C123.2 85.4 65 25 43.4-55.8l4.6-4.6z" fill="#ffbd03" stroke="#000" stroke-width=".8" stroke-linecap="round" stroke-linejoin="round"/><path d="M10.5 585c-3.3 0-15.7.2-19.5 15-3.8 15 2.6 45.6 2.6 45.6s5.8 6.3 17 6.3c11 0 17-6.4 17-6.4S33.7 615 30 600c-3.8-14.8-16.2-15-19.5-15z" fill="#bb0d0d" fill-rule="evenodd" stroke="#000"/><path d="M10.5 652v-40M6.8 651.4c-.2-13.8-2-26.6-.7-40.4M3 650.8c-.2-14-3-27.4-1-41M-.8 649c0-13.7-4.3-27.5-1-41.4M-4.5 647.2c0-13.8-5.3-28.5-1.2-42.4M14.3 651.4c.2-13.8 2-26.6.7-40.4M18 650.8c.3-14 3.2-27.4 1-41M22 649c0-13.7 4.2-27.5 1-41.4M25.6 647.2c0-13.8 5.3-28.5 1.2-42.4" fill="none" stroke="#000" stroke-linecap="round" stroke-linejoin="round"/><path d="M27.4 585a16.8 16.8 0 1 1-33.7 0 16.8 16.8 0 1 1 33.7 0z" fill="#bb0d0d" stroke="#000" stroke-linecap="round" stroke-linejoin="round"/><path d="M.4 180v394.3c0 3.6 2 7 5 8.8 3 2 7 2 10 0 3.2-1.8 5-5 5-8.7V165l-20 15z" fill="#bb0d0d" fill-rule="evenodd" stroke="#000" stroke-linecap="round" stroke-linejoin="round"/><path d="M-2.6 594c-3.3 0-15.7 0-19.5 14.8-4 14.8 2.4 45.6 2.4 45.6s5.8 6.3 17 6.3c11 0 17-6.3 17-6.3s6.3-30.8 2.5-45.6c-4-14.8-16.3-15-19.6-15z" fill="#bb0d0d" fill-rule="evenodd" stroke="#000"/><path d="M-2.6 660.7v-40M-6.4 660.2c-.2-13.8-2-26.6-.6-40.4M-10 659.6c-.4-14-3.3-27.4-1-41M-14 658c0-14-4.3-27.8-1-41.6M-17.7 656c0-13.8-5.2-28.6-1.2-42.4M1.2 660.2c.2-13.8 2-26.6.6-40.4M5 659.6c0-14 3-27.4.8-41M8.7 658c0-14 4.4-27.8 1.2-41.6M12.5 656c0-13.8 5.2-28.6 1.2-42.4" fill="none" stroke="#000" stroke-linecap="round" stroke-linejoin="round"/><path d="M14.2 593.7a16.8 16.8 0 1 1-33.7 0 16.8 16.8 0 1 1 33.7 0z" fill="#bb0d0d" stroke="#000" stroke-linecap="round" stroke-linejoin="round"/><path d="M-12.7 172v411c0 3.7 1.8 7 5 8.8 3 1.8 7 1.8 10 0s5-5 5-8.8V157l-20 15z" fill="#bb0d0d" fill-rule="evenodd" stroke="#000" stroke-linecap="round" stroke-linejoin="round"/><path d="M10.3 165c0 59.2 17.6 136.6 45 193.6 13.5 28.4 29.6 51.7 46 65.2 16.3 13.4 31.2 17.4 48 10.2 12-5 21.6-7.3 30.4-6 0 0-11.2 9-1.7 20.4v-.7s0 .2-1.2 0c-2.5-.3-9.5.5-19.6 4.8-24 10-48.6 3.2-68.6-13.3-20-16.4-37-42-51.5-72-28.7-60.2-46.7-139-46.7-202h20z" fill="#bb0d0d" fill-rule="evenodd" stroke="#000"/><path d="M-6 165c0 59.2-17.6 136.6-45 193.6-13.5 28.4-29.6 51.7-46 65.2-16.3 13.4-31.2 17.4-48 10.2-12-5-21.6-7.3-30.4-6 0 0 11.2 9 1.7 20.4v-.7s0 .2 1.2 0c2.5-.3 9.5.5 19.6 4.8 24 10 48.7 3.2 68.7-13.3 20-16.4 37-42 51.5-72C-4 307 14 228.2 14 165.2H-6z" fill="#bb0d0d" fill-rule="evenodd" stroke="#000"/><path d="M-342.5-189.2a16.8 16.8 0 1 1 33.5 0 16.8 16.8 0 1 1-33.5 0z" fill="#ffbd03" stroke="#000" stroke-width="1.0069400000000002" stroke-miterlimit="2"/><path d="M-312-186.4l17.6 18-11.8 12-17.8-18c-6-6 6-18 12-12z" font-size="12" fill="silver" fill-rule="evenodd" stroke="#000" stroke-width="1.2"/><path d="M-288.5-174.4l17.7 18L-109 7.6l-23.7 24-161.7-164-17.8-18c2.4-9.6 14.3-21.6 23.7-24zm189 191.7L7 125.3l-23.7 24-106.3-108c2.3-9.6 14-21.5 23.6-24z" font-size="12" fill="silver" fill-rule="evenodd" stroke="#000"/><path d="M-270.8-156.4l17.8 18c11.8 12 53 66 53 66s55.5 44 67.3 56l17.7 18c-11.8-12-85-62.2-85-62.2s43.7 68 61.4 86l-17.7-18c-12-11.8-55.4-68-55.4-68s-47.3-36-59-48l-23.7-24c11.8 12 82.7 60 82.7 60s-47.3-72-59-83.8z" font-size="12" fill="#ffbd03" fill-rule="evenodd" stroke="#000"/><path d="M-240 39V20l-12 9.6 12 9.5z" font-size="12" fill="#bfbfbf" fill-rule="evenodd" stroke="#000" stroke-miterlimit="2"/><path d="M204.3 247.3c70.4 0 127.5 57.2 127.5 127.5 0 70.4-57 127.5-127.5 127.5-70.3 0-127.5-57-127.5-127.5 0-70.3 57.2-127.5 127.5-127.5zm15.5 34.3c-3.8 0-7 3-7 7 0 4.7-3.7 8.5-8.4 8.5s-8.5-3.7-8.5-8.4c0-4-3.2-7-7-7h-1.4c-39 7-69.7 38-76.4 77.2v.6c-.2.2-.2.4-.2.7l15.5-1.7v17.2c0 4.7-3.8 8.5-8.5 8.5-3.8 0-7 3-7 7v.7c0 .2 0 .4.2.6 6.7 39 37.4 70 76.4 77l1.3.2c3.8 0 7-3.2 7-7 0-4.7 3.7-8.5 8.4-8.5s8.4 3.8 8.4 8.5c0 3.8 3.2 7 7 7 .5 0 1 0 1.4-.2 39-7 69.7-38 76.4-77v-.6-.7c0-4-3-7-7-7-4.6 0-8.4-3.8-8.4-8.5V358l15.5 2v-.6-.6c-6.8-39-37.5-70-76.5-77-.5-.2-1-.2-1.4-.2z" fill="#bfbfbf" stroke="#000"/><path d="M83.8 782a18.3 18.3 0 1 1-36.6 0 18.3 18.3 0 1 1 36.6 0z" transform="matrix(-.984 0 0 .984 378.3 -513.5)" fill="#d72b2b" stroke="#000" stroke-miterlimit="2"/><path d="M-34.4 71.3l-35.5 36c-6.4 0-11.8-5.6-11.7-12 0 0 0-12 11.8-24 12-12 23.8-12 23.8-12 5.5.7 10 6 11.8 12z" font-size="12" fill="#bfbfbf" fill-rule="evenodd" stroke="#000" stroke-width="1.2"/><path d="M-34.4 71.3l23.6 36-23.6 24-35.5-24c-1.2-1.2 0-12 12-24 11.8-12 23-11.7 23.6-12z" font-size="12" fill="#bfbfbf" fill-rule="evenodd" stroke="#000" stroke-width="1.2"/><path d="M-16.7 113.2c-9.6-9.8-23.6-24-41.3-30 6 18 20 32.2 29.5 42l11.8-12z" font-size="12" fill="#bfbfbf" fill-rule="evenodd" stroke="#000" stroke-miterlimit="2"/><path d="M-34.4 131.2l6-6-12-12c-11.7-12-29.5-6-29.5-6l35.6 24zM-10.8 107.2l-6 6s-7-7-11.7-12c-11.8-12-6-30-6-30l23.7 36z" font-size="12" fill="#bfbfbf" fill-rule="evenodd" stroke="#000" stroke-width="1.1"/><path d="M-10.8 107.2c41.4 42 88.7 66 118.2 96 23.7 24 7.3 42.2.7 48-6.5 6-24.4 24-47.8 0C30.6 221 7 173-34.4 131c0-12 11.8-24 23.6-24z" font-size="12" fill="#bfbfbf" fill-rule="evenodd" stroke="#000" stroke-width="1.2"/><path transform="matrix(-.6548 -.7558 -.7132 .701 0 0)" font-size="12" fill="#bfbfbf" fill-rule="evenodd" stroke="#000" d="M-262.4 52h20.6v65.7h-20.6z"/><path transform="matrix(-.656 -.7548 -.7143 .6998 0 0)" font-size="12" fill="#ffbd03" fill-rule="evenodd" stroke="#000" d="M-281 49.4h22.8v72.2H-281z"/><path d="M277.6 253.7c7 5 13.3 10.6 19.3 17 6 6.5 11 13.4 15.4 20.7l6.7-4.2c-4.5-7.6-10-15-16.2-21.7-6.2-6.8-13-12.8-20.3-18l-5 6.2z" font-size="12" fill="#ffbd03" fill-rule="evenodd" stroke="#000"/><path d="M-278.4-132l-19.2 19 19.2 19-9.6 9.5-19.2-19-38.3 38 19.2 19-9.6 9.5-19-19-19.3 19 57.5 57 38.4-38-19.2-19-9.6 9.5-9.6-9.5 38.4-38 9.6 9.5-9.6 9.5 19.2 19 19-19-9.4-9.5 9.5-9.5 38.3 38-9.6 9.5-9.6-9.5-19 19 19 19 9.7-9.5 9.6 9.6-38.4 38-9.6-9.4 9.5-9.5-19.2-19-38.4 38 57.5 57 19-19-19-19 9.5-9.4 19.2 19 38.4-38-19-19 9.5-9.5 19.2 19 19-19-134-133z" font-size="12" fill="#bfbfbf" fill-rule="evenodd" stroke="#000" stroke-miterlimit="2"/><path d="M-221 77v19l-47.8 47.7v-38l9.6-9.6h19l19.3-19z" font-size="12" fill="#bfbfbf" fill-rule="evenodd" stroke="#000"/><path d="M-173 30l-38 37.7-.5 19 38.6-38.3V30z" font-size="12" fill="#bfbfbf" fill-rule="evenodd" stroke="#000" stroke-miterlimit="2"/><path d="M-211.3 86.6l-19.2-19v-19l19.2 19v19zM-163.3 39l-19.2-19V1l19.2 19v19zM-182.5 1v19l-9.6-9.4 9.5-9.5zM-230.5 48.6v19L-240 58l9.5-9.4z" font-size="12" fill="#bfbfbf" fill-rule="evenodd" stroke="#000" stroke-miterlimit="2"/><path d="M-144 1l-19.3 19v19l19.3-19.5V1z" font-size="12" fill="#a5a5a5" fill-rule="evenodd" stroke="#000" stroke-miterlimit="2"/><path d="M-259.2-18l-19.2-19v-19l19.2 19v19zM-221 20l-19-19v-19l19 19v19zM-211.3-27.5L-240-56v-19l38.3 38-9.6 9.5zM-240-75v19l-9.6-9.5 9.5-9.5zM-259.2-18l19-19v-19l-19 19v19zM-307.2-27.5l28.8-28.5v-19l-38.4 38 9.6 9.5zM-278.4-18l-38.4 38h-19l-9.7 9.6v38l67-66.7v-19z" font-size="12" fill="#bfbfbf" fill-rule="evenodd" stroke="#000" stroke-miterlimit="2"/><path d="M-240 96l-57.6-57h-19.2l57.6 57h19zM-268.8 105.6l-57.5-57 9.5-9.5 57.6 57-9.6 9.6z" font-size="12" fill="#bfbfbf" fill-rule="evenodd" stroke="#000" stroke-miterlimit="2"/><path d="M-268.8 105.6v38l-57.5-57v-38l57.5 57zM-316.8 20l-57.5-57h-19.2l57.6 57h19.2zM-345.5 29.6l-57.6-57 9.5-9.6 57.6 57-9.5 9.6z" font-size="12" fill="#bfbfbf" fill-rule="evenodd" stroke="#000" stroke-miterlimit="2"/><path d="M-345.5 29.6v38l-57.6-57v-38l57.5 57zM-336-37l-9.5-9.5v-19l19.2 19-9.6 9.5zM-288-84.5l-9.6-9.5v-19l19.2 19-9.6 9.5zM-221 20l19.3-19-9.6-9.5L-221 1v19zM-278.4-56l9.6-9.5-9.6-9.5v19z" font-size="12" fill="#bfbfbf" fill-rule="evenodd" stroke="#000" stroke-miterlimit="2"/><path d="M308 431l7.2 3.4V452c-5.2 7.3-11 14.2-18 20.5-6.6 6.3-13.8 11.7-21.4 16.4l-4.8-5.3-.2-18c14.6-9 27.3-20.8 37.2-34.7z" font-size="12" fill="#ffbd03" fill-rule="evenodd" stroke="#000"/><path d="M275.8 471c7.2-4.6 13-8.7 19.4-14.7 6.5-6 14.8-14.7 19.7-21.6" font-size="12" fill="#ffbd03" fill-rule="evenodd" stroke="#000"/><path d="M271 466l5 4.7v17.6" fill="#ffbd03" fill-rule="evenodd" stroke="#000"/><path d="M83.8 782a18.3 18.3 0 1 1-36.6 0 18.3 18.3 0 1 1 36.6 0z" transform="matrix(-.984 0 0 .984 373.4 -295.9)" fill="#d72b2b" stroke="#000" stroke-miterlimit="2"/><path d="M-211.3-8.5v19l-9.6 9.6V1l9.7-9.5z" opacity=".8" fill="#bfbfbf" stroke="#000" stroke-miterlimit="2"/><path d="M14-27.3c21.8 81 80.5 142 108.7 119l-5 4.6c-28 23-86.8-37.8-108.5-119l5-4.6z" fill="#ffbd03" stroke="#000" stroke-width=".8" stroke-linecap="round" stroke-linejoin="round"/><path d="M41.5-17.8c2.3 6 4.6 12 7.4 18l9.4-8c2.6 5.6 5.4 11 9 16.4L56 12.4C61.6 21 67 29.6 75 38.2L62 47.8c-5.8-10.2-11-20.4-14.7-30.6l-9 7.3c-3.4-5-6-10.7-8.8-16.3l10.8-3.8C37-1 33.3-6.2 30-11.6l11.5-6.2z" font-size="12" fill="#ffbd03" fill-rule="evenodd" stroke="#000" stroke-width=".8"/><path d="M204.3 229.3c70.4 0 127.5 57.2 127.5 127.5 0 70.4-57 127.5-127.5 127.5-70.3 0-127.5-57-127.5-127.5 0-70.3 57.2-127.5 127.5-127.5zm15.5 34.3c-3.8 0-7 3-7 7 0 4.7-3.7 8.5-8.4 8.5s-8.5-3.7-8.5-8.4c0-4-3.2-7-7-7h-1.4c-39 7-69.7 38-76.4 77.2v.6c-.2.2-.2.4-.2.7 0 4 3.2 7 7 7 4.7 0 8.5 4 8.5 8.5 0 4.7-3.8 8.5-8.5 8.5-3.8 0-7 3-7 7v.7c0 .2 0 .4.2.6 6.7 39 37.4 70 76.4 77l1.3.2c3.8 0 7-3.2 7-7 0-4.7 3.7-8.5 8.4-8.5s8.4 3.8 8.4 8.5c0 3.8 3.2 7 7 7 .5 0 1 0 1.4-.2 39-7 69.7-38 76.4-77v-.6-.7c0-4-3-7-7-7-4.6 0-8.4-3.8-8.4-8.5 0-4.6 3.8-8.4 8.5-8.4 4 0 7-3 7-7v-.6-.6c-6.8-39-37.5-70-76.5-77-.5-.2-1-.2-1.4-.2z" fill="#bfbfbf" stroke="#000"/><path d="M208.3 243.4c58.6.7 111 53.8 109.7 112.8.4 48-32.2 95-78.8 108.7-41.5 13.4-90.7 1.2-119.3-32.2-30-33-38.4-84-18.4-124.3 18.2-39 59.8-66.2 103-65.2h3.7zm-18.8 6c-48.3 5.5-90.5 48.3-92 97.3.4 4.3 3.7 8 6.3 10.8-9.4 9.3-7.6 24.3-2.5 35.2 13 39.3 50.5 71.4 92.8 72.4 4.5 0 7.6-5.2 10.7-6 9.4 9.2 24.2 7 35 2 39.3-13.4 71.2-51.3 71.5-93.7-.5-4-4.4-7-6-10 9.2-9.2 7.2-24.2 2-35.2-13-39-50-70.8-92.2-72-4.4.3-8 4.5-10.8 6.3-3.8-4-9.2-6.6-14.7-6.8z" fill="#bfbfbf" stroke="#000"/><path d="M18.8 161.2c23.6 36 47.3 60 53.2 66 11.2 11.3 23.6 12 23.6 12s0-12-11.8-24c-6-6-29.5-30-65-54z" font-size="12" fill="none" stroke="#000" stroke-width="1.2"/><path d="M100.6 431l-7 3.4V452c5 7.3 11 14.2 17.7 20.5 6.7 6.3 14 11.7 21.5 16.4l4.8-5.3.2-18c-14.6-9-27.2-20.8-37.2-34.7z" font-size="12" fill="#ffbd03" fill-rule="evenodd" stroke="#000"/><path d="M132.8 471c-7.2-4.6-13-8.7-19.4-14.7-6.4-6-14.7-14.7-19.6-21.6" font-size="12" fill="#ffbd03" fill-rule="evenodd" stroke="#000"/><path d="M137.6 466l-4.8 4.7v17.6" fill="#ffbd03" fill-rule="evenodd" stroke="#000"/><path d="M83.8 782a18.3 18.3 0 1 1-36.6 0 18.3 18.3 0 1 1 36.6 0z" transform="matrix(-.984 0 0 .984 164.7 -295.9)" fill="#d72b2b" stroke="#000" stroke-miterlimit="2"/><path d="M-111.2 5.4c6 .3 11.4 5.2 11.8 12-9.5 2.4-21.3 14.3-23.6 24-6.5 0-12-5.6-11.8-12 5-12.4 11.7-18.4 23.6-24zM-280-166c5.8.5 11.4 5.3 11.7 12l-2.5-2.4c-9.4 2.4-21.2 14.4-23.6 24l2.5 2.5c-6.4 0-12-5.4-11.7-12 5-12.3 11.8-18.3 23.6-24z" font-size="12" fill="#ffbd03" fill-rule="evenodd" stroke="#000" stroke-width="1.2"/><path d="M344.6-188.2a16.8 16.8 0 1 1-33.5 0 16.8 16.8 0 1 1 33.6 0z" fill="silver" stroke="#000" stroke-width="1.0069400000000002" stroke-miterlimit="2"/><path d="M314.2-185.4l-17.7 18 11.8 12 17.8-18c6-6-5.8-18-11.8-12z" font-size="12" fill="#ffbd03" fill-rule="evenodd" stroke="#000" stroke-width="1.2"/><path d="M290.6-173.4l-17.7 18L111 8.6l23.6 24 161.7-164 17.8-18c-2.4-9.6-14.3-21.6-23.7-24zm-189 191.7L-5 126.3l23.8 24L125 42.2c-2.2-9.6-14-21.5-23.5-24z" font-size="12" fill="#ffbd03" fill-rule="evenodd" stroke="#000"/><path d="M273-155.4l-18 18c-11.7 12-53 66-53 66s-55.4 44-67.2 56L117 2.6c12-12 85-62.2 85-62.2s-43.6 68-61.3 86l17.7-18c12-11.8 55.4-68 55.4-68s47.3-36 59-48l23.7-24c-11.8 12-82.7 60-82.7 60s47.3-72 59-83.8z" font-size="12" fill="silver" fill-rule="evenodd" stroke="#000"/><path d="M36.5 72.3l35.4 36c6.5 0 12-5.6 11.8-12 0 0 0-12-12-24-11.7-12-23.5-12-23.5-12-5.5.7-10 6-11.8 12z" font-size="12" fill="#ffbd03" fill-rule="evenodd" stroke="#000" stroke-width="1.2"/><path d="M36.5 72.3l-23.6 36 23.5 24 35.4-24c1.3-1.2 0-12-12-24-11.7-12-23-11.7-23.5-12z" font-size="12" fill="#ffbd03" fill-rule="evenodd" stroke="#000" stroke-width="1.2"/><path d="M18.8 114.2c9.6-9.8 23.6-24 41.3-30-5.8 18-19.8 32.2-29.4 42l-11.8-12z" font-size="12" fill="#ffbd03" fill-rule="evenodd" stroke="#000" stroke-miterlimit="2"/><path d="M36.5 132.2l-6-6 12-12c11.7-12 29.4-6 29.4-6l-35.5 24zM13 108.2l5.8 6 11.8-12c11.8-12 6-30 6-30l-23.7 36z" font-size="12" fill="#ffbd03" fill-rule="evenodd" stroke="#000" stroke-width="1.1"/><path d="M13 108.2c-41.5 42-88.8 66-118.3 96-23.7 24-7.3 42.2-.7 48 6.6 6 24.5 24 48 0 29.5-30 53-78 94.5-120 0-12-11.8-24-23.6-24z" font-size="12" fill="#ffbd03" fill-rule="evenodd" stroke="#000" stroke-width="1.2"/><path transform="matrix(.6548 -.7558 .7132 .701 0 0)" font-size="12" fill="#ffbd03" fill-rule="evenodd" stroke="#000" d="M-261.6 54.2h20.6V120h-20.6z"/><path transform="matrix(.656 -.7548 .7143 .6998 0 0)" font-size="12" fill="silver" fill-rule="evenodd" stroke="#000" d="M-280 51.7h22.6V124H-280z"/><path d="M-16.7 162.2c-23.6 36-47.3 60-53.2 66-11 11.3-23.5 12-23.5 12s0-12 11.8-24c6-6 29.5-30 65-54z" font-size="12" fill="none" stroke="#000" stroke-width="1.2"/><path d="M242 40V21l12.2 9.6L242 40z" font-size="12" fill="#ffbd03" fill-rule="evenodd" stroke="#000" stroke-miterlimit="2"/><path d="M-202.2 248.3c-70.4 0-127.5 57.2-127.5 127.5 0 70.4 57 127.5 127.5 127.5 70.3 0 127.5-57 127.5-127.5 0-70.3-57.2-127.5-127.5-127.5zm-15.5 34.3c3.8 0 7 3 7 7 0 4.7 3.7 8.5 8.4 8.5s8.5-3.7 8.5-8.4c0-4 3-7 7-7h1.3c39 7 69.7 38 76.4 77.2V361l-15.4-1.7v17.2c0 4.7 3.8 8.5 8.5 8.5 4 0 7 3 7 7V393.3c-6.8 39-37.5 70-76.5 77l-1.3.2c-4 0-7-3.2-7-7 0-4.7-3.8-8.5-8.5-8.5s-8.4 3.8-8.4 8.5c0 3.8-3.2 7-7 7-.5 0-1 0-1.4-.2-39-7-69.8-38-76.5-77v-.6-.7c0-4 3-7 7-7 4.6 0 8.4-3.8 8.4-8.5V359l-15.6 2v-.6-.6c6.8-39 37.5-70 76.5-77 .4-.2.8-.2 1.3-.2z" fill="#ffbd03" stroke="#000"/><path d="M83.8 782a18.3 18.3 0 1 1-36.6 0 18.3 18.3 0 1 1 36.6 0z" transform="matrix(.984 0 0 .984 -376.2 -512.5)" fill="#d72b2b" stroke="#000" stroke-miterlimit="2"/><path d="M300-183c-6 .5-11.5 5.3-12 12l2.6-2.4c9.4 2.4 21.3 14.4 23.7 24l-2.5 2.5c6.5 0 12-5.4 11.7-12-5-12.2-11.8-18.3-23.6-24z" font-size="12" fill="silver" fill-rule="evenodd" stroke="#000"/><path d="M282.2-165c-6 .5-11.5 5.3-12 12h.2l2.5-2.4c9.3 2.4 21 14.4 23.5 24L294-129c6.5 0 12-5.4 11.8-12-5-12.3-11.8-18.3-23.6-24z" font-size="12" fill="silver" fill-rule="evenodd" stroke="#000" stroke-width="1.2"/><path d="M-275.5 254.7c-7 5-13.3 10.6-19.3 17-6 6.5-11 13.4-15.5 20.7l-6.7-4.2c4.6-7.6 10-15 16.3-21.7 6.2-6.8 13-12.8 20.3-18l5 6.2z" font-size="12" fill="silver" fill-rule="evenodd" stroke="#000"/><path d="M280.5-17L319 21h19l9.6 9.6v38L280.6 2v-19z" font-size="12" fill="#ffbd03" fill-rule="evenodd" stroke="#000" stroke-miterlimit="2"/><path d="M271 106.6l57.4-57L319 40l-57.7 57 9.6 9.6z" font-size="12" fill="#ffbd03" fill-rule="evenodd" stroke="#000" stroke-miterlimit="2"/><path d="M271 106.6v38l57.4-57v-38l-57.5 57zM319 21l57.4-57h19.2L338 21h-19zM338-36l9.6-9.5v-19l-19.2 19L338-36zM290-83.5l9.7-9.5v-19l-19.2 19 9.6 9.5z" font-size="12" fill="#ffbd03" fill-rule="evenodd" stroke="#000" stroke-miterlimit="2"/><path d="M-306 432l-7 3.4V453c5 7.3 11 14.2 17.8 20.5 6.7 6.3 14 11.7 21.5 16.4l4.8-5.3.3-18c-14.6-9-27.3-20.8-37.2-34.7z" font-size="12" fill="silver" fill-rule="evenodd" stroke="#000"/><path d="M-273.7 472c-7.2-4.6-13-8.7-19.4-14.7-6.6-6-15-14.7-19.8-21.6" font-size="12" fill="none" stroke="#000"/><path d="M-269 467l-4.8 4.7v17.6" fill="none" stroke="#000"/><path d="M83.8 782a18.3 18.3 0 1 1-36.6 0 18.3 18.3 0 1 1 36.6 0z" transform="matrix(.984 0 0 .984 -371.3 -294.9)" fill="#d72b2b" stroke="#000" stroke-miterlimit="2"/><path d="M-202.2 230.3c-70.4 0-127.5 57.2-127.5 127.5 0 70.4 57 127.5 127.5 127.5 70.3 0 127.5-57 127.5-127.5 0-70.3-57.2-127.5-127.5-127.5zm-15.5 34.3c3.8 0 7 3 7 7 0 4.7 3.7 8.5 8.4 8.5s8.5-3.7 8.5-8.4c0-4 3-7 7-7h1.3c39 7 69.7 38 76.4 77.2V343c0 4-3 7-7 7-4.6 0-8.4 4-8.4 8.5 0 4.7 3.8 8.5 8.5 8.5 4 0 7 3 7 7V375.3c-6.8 39-37.5 70-76.5 77l-1.3.2c-4 0-7-3.2-7-7 0-4.7-3.8-8.5-8.5-8.5s-8.4 3.8-8.4 8.5c0 3.8-3.2 7-7 7-.5 0-1 0-1.4-.2-39-7-69.8-38-76.5-77v-.6-.7c0-4 3-7 7-7 4.6 0 8.4-3.8 8.4-8.5 0-4.6-4-8.4-8.6-8.4-4 0-7-3-7-7v-.6-.6c6.8-39 37.5-70 76.5-77 .4-.2.8-.2 1.3-.2z" fill="#ffbd03" stroke="#000"/><path d="M-206.2 244.4c-58.6.7-111 53.8-109.7 112.8-.3 48 32.3 95 78.8 108.7 41.6 13.4 90.8 1.2 119.4-32.2 30-33 38.3-84 18.3-124.3-18.2-39-59.8-66.2-103-65.2h-3.7zm18.8 6c48.3 5.5 90.5 48.3 92 97.3-.4 4.3-3.7 8-6.3 10.8 9.4 9.3 7.6 24.3 2.5 35.2-13 39.3-50.5 71.4-92.8 72.4-4.4 0-7.5-5.2-10.6-6-9.4 9.2-24.2 7-35 2-39.3-13.4-71.2-51.3-71.5-93.7.4-4 4.3-7 6-10-9.4-9.2-7.4-24.2-2.2-35.2 13-39 50.2-70.8 92.3-72 4.5.3 8 4.5 11 6.3 3.7-4 9-6.6 14.6-6.8z" fill="#ffbd03" stroke="#000"/><path d="M-98.5 432l7 3.4V453c-5 7.3-11 14.2-17.7 20.5-6.7 6.3-14 11.7-21.5 16.4l-4.8-5.3-.2-18c14.6-9 27.2-20.8 37.2-34.7z" font-size="12" fill="silver" fill-rule="evenodd" stroke="#000"/><path d="M-130.7 472c7.2-4.6 13-8.7 19.4-14.7 6.4-6 14.7-14.7 19.6-21.6" font-size="12" fill="none" stroke="#000"/><path d="M-135.5 467l4.8 4.7v17.6" fill="none" stroke="#000"/><path d="M83.8 782a18.3 18.3 0 1 1-36.6 0 18.3 18.3 0 1 1 36.6 0z" transform="matrix(.984 0 0 .984 -162.6 -294.9)" fill="#d72b2b" stroke="#000" stroke-miterlimit="2"/><path d="M261.3-17l19.2-19v-19l-19.2 19v19zM242-74v19l9.7-9.5L242-74zM261.3-17L242-36v-19l19.3 19v19zM309.3-26.5L280.5-55v-19L319-36l-9.7 9.5zM242 97l57.7-57H319l-57.7 57H242zM280.5-55l-9.6-9.5 9.5-9.5v19z" font-size="12" fill="#ffbd03" fill-rule="evenodd" stroke="#000" stroke-miterlimit="2"/><path d="M280.5-131l19.2 19-19.2 19 9.6 9.5 19.3-19 38.3 38-19.2 19L338-36l19.2-19 19.2 19L319 21l-38.5-38 19.2-19 9.6 9.5L319-36l-38.5-38-9.6 9.5 9.5 9.5-19.2 19L242-55l9.7-9.5L242-74 204-36l9.6 9.5L223-36l19 19-19 19-9.6-9.5-9.6 9.6L242 40l9.7-9.4L242 21l19.3-19 38.4 38L242 97l-19-19 19-19-9.4-9.4-19.2 19-38.4-38 19.2-19-9.6-9.5-19.2 19-19-19 134-133z" font-size="12" fill="#ffbd03" fill-rule="evenodd" stroke="#000" stroke-miterlimit="2"/><path d="M113.3 6.4c-6 .3-11.4 5.2-11.8 12 9.5 2.4 21.3 14.3 23.6 24 6.6 0 12-5.6 12-12C131.7 18 125 12 113.2 6.3z" font-size="12" opacity=".8" fill="url(#d)" fill-rule="evenodd"/><path d="M347.6 30.6l57.6-57-9.6-9.6L338 21l9.6 9.6z" font-size="12" fill="#ffbd03" fill-rule="evenodd" stroke="#000" stroke-miterlimit="2"/><path d="M347.6 30.6v38l57.6-57v-38l-57.6 57z" font-size="12" fill="#ffbd03" fill-rule="evenodd" stroke="#000" stroke-miterlimit="2"/><path d="M113.3 6.4c-6 .3-11.4 5.2-11.8 12 9.5 2.4 21.3 14.3 23.6 24 6.6 0 12-5.6 12-12C131.7 18 125 12 113.2 6.3z" font-size="12" fill="silver" fill-rule="evenodd" stroke="#000" stroke-width="1.2"/><path d="M223 78v19l48 47.7v-38l-9.7-9.6H242l-19-19z" font-size="12" fill="#ffbd03" fill-rule="evenodd" stroke="#000"/><path d="M175 31l38 37.7.6 19L175 49.3V31z" font-size="12" fill="#ffbd03" fill-rule="evenodd" stroke="#000" stroke-miterlimit="2"/><path d="M213.4 87.6l19.2-19v-19l-19.2 19v19zM165.4 40l19.2-19V2l-19.2 19v19zM184.6 2v19l9.6-9.4-9.6-9.5zM232.6 49.6v19L242 59l-9.4-9.4z" font-size="12" fill="#ffbd03" fill-rule="evenodd" stroke="#000" stroke-miterlimit="2"/><path d="M146 2l19.4 19v19L146 20.6V2z" font-size="12" fill="#d8a002" fill-rule="evenodd" stroke="#000" stroke-miterlimit="2"/><path d="M223 21l19-19v-19L223 2v19zM213.4-26.5L242-55v-19L204-36l9.6 9.5zM223 21L203.8 2l9.6-9.5L223 2v19z" font-size="12" fill="#ffbd03" fill-rule="evenodd" stroke="#000" stroke-miterlimit="2"/><path d="M213.4-7.5v19l9.6 9.6V2l-9.6-9.5z" opacity=".8" fill="#ffbd03" stroke="#000" stroke-miterlimit="2"/><path d="M-9 124.2c-11.7.4-23.3 2-33 5.8-5 2-7.5 8-5.4 13 2 5.2 8 7.6 13 5.6 7.5-3 22.6-4.7 37-4.4 14.3.4 28.6 2.5 34.3 4.3 3.4 1.2 7.2.4 10-2 2.6-2.5 3.8-6.2 3-9.8-1-3.6-3.7-6.4-7.2-7.3-9.5-3-24-4.8-39.7-5.2H-9z" fill="#bb0d0d" fill-rule="evenodd" stroke="#000" stroke-linecap="round" stroke-linejoin="round"/><path d="M1.4 93.7c-3 0-6 1.8-7.8 4.4-1.8 2.7-2.2 6-1.2 9 1.7 5 3.8 21.7 4 38 .2 16.2-1.3 33.4-3.3 39.6-1.6 5.3 1.3 11 6.6 12.5 5.2 1.8 11-1 12.5-6.4 4-11.7 4.6-28.6 4.4-46-.2-17.2-1.4-33.3-5-44-1.4-4.3-5.5-7-10-7z" fill="#bb0d0d" fill-rule="evenodd" stroke="#000" stroke-linecap="round" stroke-linejoin="round"/><path d="M-170.4 427.6c-1.7 0-3.4.2-5 .4-8.8 1.3-16.7 9-18 17.2-1.3 8.3 1 16.4 5.3 25 4 8.6 10.2 17.8 18.2 27 32.2 37.7 94.4 79 172 79 77.5 0 139.7-41.3 172-79 8-9.2 14-18.4 18.2-27 4.2-8.6 6.6-16.7 5.3-25-1.3-8.3-9.2-16-18-17.2-1.6-.2-3.3-.4-5-.4-7.4 0-15.6 2.4-25.3 6.5l-1 .5c7.7 5.6 16.3 10 25.5 13.3h2.8c.6 0 1 .2 1.2.6.2 1.5-.5 6.6-3.6 13-3 6.7-8.4 14.6-15.5 23-28.6 33.2-86.3 72-157 72-70.4 0-128-38.8-156.6-72-7-8.4-12.4-16.3-15.5-23-3.2-6.4-4-11.5-3.7-13 0-.5.7-.6 1.2-.6h3.4c8.7-3.3 17-8 24.3-13.6h-.4c-10-4.2-18-6.5-25.4-6.6z" fill="#bb0d0d" fill-rule="evenodd" stroke="#000"/><path d="M1-373.2c-73 53.6-113 102.3-113 241 0 43.3 14 77.5 19.3 107.6C-65.2-31.3-40.3-38 1-38c41.4 0 66.2 6.7 93.8 13.4C100-54.6 114-89 114-132c0-139-40-187.6-113-241.2z" font-size="12" fill="#fff" fill-rule="evenodd" stroke="#000"/><path d="M-7.5-437.2l2 19-15.2-2v18.5l15.2-2-2 33.5h17l-2-33.5 15.3 2v-18.6l-15.2 2 2-19h-17z" font-size="12" fill="#ffbd03" fill-rule="evenodd" stroke="#000" stroke-width=".8"/><path d="M-111-247.4c28.5-9.4 63.8-14.7 108-14.8 44 0 89 5.3 117.4 14.7l-4 21.4c-25.8-9-67.7-15.5-108.6-15.6-40.8 0-89.8 7-110.2 15.3-.2 1.8-2.7-21-2.7-21z" font-size="12" fill="#ffbd03" fill-rule="evenodd" stroke="#000" stroke-width="1.5" stroke-linejoin="round"/><path d="M110.3-227.7l-13-13.6 16-4.6" font-size="12" color="#000" fill="none" stroke="#000" stroke-linejoin="round" overflow="visible"/><path d="M100.2-259.5l-7.6-13s-7.2 8.2-16.2 7c-9-1.5-11.4-16.6-11.4-16.6s-12 14-20 13.3c-8.4-.7-12.4-7-12.4-7s-6.8 6.5-14.7 5.8c-8-.6-18.7-16.5-18.7-16.5s-7 16.3-15 17C-23.4-268.8-33-281-33-281s-3.6 10.3-13.6 12c-10 1.7-16.4-12-16.4-12s-5 15.2-11.7 17.7c-6.8 2.4-15.8-6.7-15.8-6.7l-9.6 11 5.4 6.3c24.7-7.2 58-11.7 96-11.7 37.7 0 72 4.5 96.7 11.7l2.6-6.8z" font-size="12" fill="#ffbd03" fill-rule="evenodd" stroke="#000"/><path d="M-126.2-273.3c5.2 10.4 12.7 20.2 24.3 17.8C-90-258-89.7-268-89.7-268s7.2 9.6 15.3 7.6c8-2 10.7-16 10.7-16s8.8 12 18.3 11c9.4-1 13-11.3 13-11.3s4.6 10 15.5 9.5c11.4-.5 17.2-15 17.2-15s8 15 18 15 14-8.6 14-8.6 3 9.6 13 10.2c10 .6 19-12 19-12s4.3 14.7 12.5 16.3c8.7 1.7 15.7-7 15.7-7s3.2 11.4 11.8 12.7c8.3 1.3 17-8 22.8-19.4-9 5-15 15-21.6 13-6-2-12-15-12-15s-9 10.3-16 8c-7-2.5-10.7-27.6-10.7-27.6S56.2-270.3 46.4-273c-9.7-2.7-14.4-15.2-14.4-15.2s-3.8 13.8-14 14.3c-11 .6-18-30-18-30s-8.8 30.4-17.2 30.2c-8.4-.2-16.4-14-16.4-14s-2.6 14.7-12.2 14.3c-9.6-.4-22.8-22.5-22.8-22.5s.8 26-6.7 28.4c-7 2.2-20-11-20-11s3.8 14.8-5.3 17.2c-9 2.4-14.5-7.3-25.6-12z" fill="#ffbd03" fill-rule="evenodd" stroke="#000"/><path d="M1.4-259.8c-43 0-81.7 5.4-109.4 14-1.8.6-4-1-4.7-2.6-.6-2 .7-4 2.5-4.8 28-9 67.5-14.5 111.6-14.5 44 0 83.8 5.6 111.7 14.5 2 .7 3.3 3 2.7 4.8-.5 1.7-3 3.2-4.7 2.6-27.8-8.6-66.6-14-109.6-14z" font-size="12" fill="#ffbd03" fill-rule="evenodd" stroke="#000" stroke-linejoin="round"/><path d="M-109.4-233.2l-4.8-4.3 3.3-4.4 9 2-7.4 6.8z" font-size="12" fill="#ce1126" fill-rule="evenodd" stroke="#000" stroke-width=".9" stroke-linejoin="round"/><path d="M111-233.2l5.5-3.3-3.6-5-8.8 1.7 6.8 6.6z" font-size="12" fill="#ce1126" fill-rule="evenodd" stroke="#000" stroke-width=".8" stroke-linejoin="round"/><path d="M26.4-303s-15.8 0-17.8-2.3c-2.3-2.6-2-6.4.5-8.5 2-1.7 6.6-3.7 9.6-3 3 .4 6.8 1.2 7 4.4.3 2.7-9 4.7-9 4.7s11.8-2.2 13.6 0c2 2.6 3.3 6.4.7 9.7-2 2.5-14.8-.8-14.8-.8s11 2 9.4 7.2c-.8 2.8-6.5 4-10.7 3.3-4.2-.7-8-3-8.7-7-.8-4 1.2-7.2 4.3-7.6 4-.3 15.8 0 15.8 0zM-26-302.5s15.8.5 17.8-1.7c2.4-2.5 2.3-6.3 0-8.5-2-1.8-6.5-4-9.5-3.5-3 .4-6.8 1-7.2 4.3-.2 2.8 9 5 9 5s-11.8-2.6-13.7-.4c-2 2.5-3.5 6.2-1 9.7 2 2.5 14.7-.3 14.7-.3s-11 1.7-9.7 6.8c.7 3 6.4 4.3 10.6 3.8 4-.6 7.8-2.8 8.8-6.7 1-4-1-7.4-4-7.8-4-.6-15.8-.7-15.8-.7z" fill="#ffbd03" fill-rule="evenodd" stroke="#000"/><path d="M.2-333.5s-.4 16 1.7 18c2.4 2.6 6 2.4 8.3 0 1.8-2 4-6.5 3.4-9.6-.4-3-1-7-4-7.4-2.8-.3-5 9-5 9s2.5-12 .3-13.8c-2.4-2-6-3.6-9.4-1-2.5 2 .2 15 .2 15s-1.6-11.4-6.7-10c-2.7.8-4 6.5-3.6 10.8.5 4.2 2.8 8 6.6 9 4 1 7.2-1 7.6-4 .6-4.2.6-16 .6-16z" fill="#ffbd03" fill-rule="evenodd" stroke="#000"/><path d="M353.7 670.6a6 10.7 0 1 1-12 0 6 10.7 0 1 1 12 0z" transform="matrix(1.1344 .0223 -.022 1.1518 -379.3 -1083.2)" color="#000" fill="#ce1126" stroke="#000" stroke-width=".9" stroke-linecap="round" overflow="visible"/><path d="M92.8-292.6s-15.5-3.4-17-6c-1.7-3-.7-6.7 2.2-8.2 2.2-1.3 7-2.3 10-1.2 2.7 1.2 6.3 2.7 6 6-.4 2.6-9.8 2.6-9.8 2.6s12 .3 13.3 3c1.4 2.8 2 6.7-1.3 9.5-2.4 2-14.2-3.7-14.2-3.7s10.3 4.2 7.8 9c-1.4 2.5-7.2 2.5-11 1-4-1.5-7-4.6-7.2-8.6 0-4 2.6-6.8 5.7-6.5 4 .4 15.5 3.2 15.5 3.2zM41.3-303s15.4 3.8 18 2c2.7-2 3.3-5.6 1.4-8.3-1.5-2-5.5-5-8.5-5.3-3-.2-7-.4-8 2.7-.7 2.7 7.8 6.8 7.8 6.8s-11-5-13.3-3.2c-2.5 2-4.6 5.3-2.8 9.2 1.2 3 14.3 2.8 14.3 2.8s-11.2-.7-11 4.7c.3 3 5.6 5.4 9.8 5.8 4.2.4 8.4-1 10-4.7 1.8-3.7.6-7.3-2.3-8.4-4-1.5-15.4-4-15.4-4z" fill="#ffbd03" fill-rule="evenodd" stroke="#000"/><path d="M73.2-328s-3.6 15.6-2 18c2 3 5.7 3.6 8.3 1.7 2-1.5 5-5.6 5.2-8.6.2-3 .4-7-2.6-8-2.4-.8-6.5 7.8-6.5 7.8s5-11 3-13.4c-1.8-2.6-5-4.7-9-3-2.8 1.4-2.7 14.7-2.7 14.7s.7-11.2-4.6-11c-3 .3-5.4 5.7-5.7 10-.3 4 1 8.3 4.7 10 3.7 1.8 7.2.6 8.2-2.4 1.4-4 3.8-15.6 3.8-15.6z" fill="#ffbd03" fill-rule="evenodd" stroke="#000"/><path d="M353.7 670.6a6 10.7 0 1 1-12 0 6 10.7 0 1 1 12 0z" transform="matrix(1.107 .252 -.248 1.1242 -151.3 -1139.5)" color="#000" fill="#058e6e" stroke="#000" stroke-width=".9" stroke-linecap="round" overflow="visible"/><path d="M-93-293s15.6-3 17.2-5.6c1.8-3 .8-6.7-2-8.3-2.2-1.3-7-2.3-10-1.3-2.7 1-6.3 2.5-6 5.7.2 2.7 9.7 3 9.7 3s-12 0-13.5 2.5c-1.5 2.8-2 6.7 1 9.6 2.4 2 14.4-3.5 14.4-3.5s-10.6 4-8.2 9c1.3 2.5 7.2 2.6 11 1.2 4-1.4 7.2-4.4 7.4-8.5 0-4-2.4-6.8-5.6-6.6-4 .4-15.5 3-15.5 3zM-41.2-302s-15.5 3.2-18 1.5c-2.7-2-3.2-5.8-1.2-8.4 1.5-2 5.6-5 8.6-5 3-.2 6.8-.3 7.8 2.8.8 2.6-7.8 6.5-7.8 6.5s11-4.7 13.3-2.8c2.5 2 4.5 5.4 2.6 9.3-1.3 2.8-14.4 2.4-14.4 2.4s11.2-.4 10.8 5c-.2 2.8-5.6 5.3-9.8 5.5-4 .2-8.2-1.3-10-5-1.5-3.8-.3-7.3 2.8-8.3 3.8-1.3 15.4-3.5 15.4-3.5zM-72.5-328s3.3 15.8 1.5 18.2c-2 3-5.7 3.4-8.3 1.4-2-1.6-5-5.7-5-8.8 0-3-.2-7 2.8-8 2.6-.7 6.4 8 6.4 8s-4.7-11.2-3-13.5c2-2.5 5.5-4.6 9.3-2.7 2.8 1.4 2.4 14.7 2.4 14.7s-.4-11.3 4.8-11c3 .4 5.3 5.8 5.5 10 .2 4.3-1.3 8.4-5 10-3.6 1.8-7 .5-8-2.6-1.4-4-3.5-15.6-3.5-15.6z" fill="#ffbd03" fill-rule="evenodd" stroke="#000"/><path d="M353.7 670.6a6 10.7 0 1 1-12 0 6 10.7 0 1 1 12 0z" transform="matrix(-1.1126 .2255 .222 1.1298 170.6 -1133.9)" color="#000" fill="#058e6e" stroke="#000" stroke-width=".9" stroke-linecap="round" overflow="visible"/><path d="M105.8-287.3s13.2 8.7 16 8c3.5-1 5.2-4.2 4.3-7.4-.6-2.5-3.3-6.7-6-8-3-1-6.5-2.6-8.4 0-1.7 2 5 9 5 9s-8.7-8.5-11.4-7.6c-3 1-6.2 3.4-5.8 7.7.3 3 12.7 7.5 12.7 7.5s-10.2-4.6-11.7.6c-.8 2.8 3.3 7 7 8.7 4 1.8 8.3 1.8 11.2-1 2.8-3 3-6.7.4-8.7-3.2-2.7-13.2-9-13.2-9z" fill="#ffbd03" fill-rule="evenodd" stroke="#000"/><path d="M147.2-302.6c.3-5-1.3-7.7-5-5.2-3.3 2.2-7 14.2-7 14.2s4.2-10.5-.8-12c-2.8-.8-7 3.4-8.6 7.3-1.7 3.8-1.8 8.3 1 11.2 3 2.8 7.6 1.8 10.2 0 8.3-5.8 10-11.8 10.2-15.6z" fill="#ffbd03" fill-rule="evenodd" stroke="#000"/><path d="M353.7 670.6a6 10.7 0 1 1-12 0 6 10.7 0 1 1 12 0z" transform="matrix(.9594 .615 -.6056 .9742 201.2 -1141)" fill="#ce1126" stroke="#000" stroke-width=".9" stroke-linecap="round"/><path d="M-106.2-287.5s-13.2 8.7-16 8c-3.5-1-5.3-4.3-4.3-7.4.7-2.5 3.4-6.6 6.2-7.8 2.8-1.2 6.4-2.7 8.3-.2 1.7 2.2-5 9-5 9s8.7-8.5 11.4-7.6c3 1 6.2 3.5 5.8 7.7-.3 3.3-12.7 7.7-12.7 7.7s10.3-4.5 11.8.6c.8 3-3.3 7-7.2 8.8-3.7 1.8-8 2-11-1-2.8-3-2.8-6.6-.4-8.7 3.2-2.6 13.2-8.8 13.2-8.8zM-147.6-302.8c-.3-5 1.2-7.7 5-5.2 3.2 2 7 14.2 7 14.2s-4.2-10.5.8-12c2.8-.8 7 3.4 8.6 7.2 1.7 4 1.8 8.3-1 11.2-3 3-7.6 2-10.2.2-8.3-5.8-10-11.8-10.2-15.6z" fill="#ffbd03" fill-rule="evenodd" stroke="#000"/><path d="M353.7 670.6a6 10.7 0 1 1-12 0 6 10.7 0 1 1 12 0z" transform="matrix(-.9594 .615 .6056 .9742 -201.6 -1141.2)" color="#000" fill="#ce1126" stroke="#000" stroke-width=".9" stroke-linecap="round" overflow="visible"/><path d="M490.5 295.4a7.5 7.5 0 1 1-15 0 7.5 7.5 0 1 1 15 0z" transform="matrix(.5978 0 0 .607 -194.6 -456.5)" color="#000" fill="url(#e)" stroke="#000" stroke-width="1.9" stroke-linecap="round" overflow="visible"/><path d="M490.5 295.4a7.5 7.5 0 1 1-15 0 7.5 7.5 0 1 1 15 0z" transform="matrix(.684 0 0 .6946 -297.9 -493.8)" color="#000" fill="url(#f)" stroke="#000" stroke-width="1.7" stroke-linecap="round" overflow="visible"/><path d="M490.5 295.4a7.5 7.5 0 1 1-15 0 7.5 7.5 0 1 1 15 0z" transform="matrix(.684 0 0 .6946 -363.1 -493.2)" color="#000" fill="url(#g)" stroke="#000" stroke-width="1.7" stroke-linecap="round" overflow="visible"/><path d="M490.5 295.4a7.5 7.5 0 1 1-15 0 7.5 7.5 0 1 1 15 0z" transform="matrix(.613 0 0 .6224 -390.8 -461.6)" color="#000" fill="url(#h)" stroke="#000" stroke-width="1.9" stroke-linecap="round" overflow="visible"/><path d="M.5-235.6c-41.4 0-78.7 5.4-105.4 14-1.7.6-4-1-4.5-2.6-.6-1.8.7-4 2.5-4.8 26.8-9 65-14.5 107.5-14.5S81.3-238 108.2-229c1.8.7 3 3 2.5 4.8-.5 1.7-2.8 3.2-4.6 2.6-26.6-8.6-64-14-105.5-14z" font-size="12" fill="#ffbd03" fill-rule="evenodd" stroke="#000" stroke-linejoin="round"/><path d="M.5-248l7.8-3.3-7.2-4.4-8.3 4L.5-248z" font-size="12" fill="#ce1126" fill-rule="evenodd" stroke="#000" stroke-width=".8" stroke-linejoin="round"/><rect width="20.3" height="5.9" rx="2.7" ry="2.7" x="-37.3" y="-256" transform="rotate(-7)" color="#000" fill="#058e6e" stroke="#000" stroke-width=".7" stroke-linejoin="round" overflow="visible"/><rect width="28.1" height="11.4" rx="4.7" ry="4" x="-42.6" y="-258.8" transform="rotate(-7)" color="#000" fill="none" stroke="#000" stroke-width=".8" stroke-linecap="round" stroke-linejoin="round" overflow="visible"/><rect width="20.2" height="6.1" rx="2.7" ry="2.7" x="-37.5" y="-256.3" transform="matrix(-.9918 -.1275 -.1237 .9923 0 0)" color="#000" fill="#058e6e" stroke="#000" stroke-width=".7" stroke-linejoin="round" overflow="visible"/><rect width="28.1" height="11.4" rx="4.6" ry="4" x="-41.7" y="-259" transform="matrix(-.9918 -.1275 -.1237 .9923 0 0)" color="#000" fill="none" stroke="#000" stroke-width=".8" stroke-linejoin="round" overflow="visible"/><path d="M.5-243.7l16-7.5-15-8.4-16.8 7.5 15.8 8.3zM-108.5-228.4l14-13.3-16.3-4.3" font-size="12" fill="none" stroke="#000" stroke-linecap="round" stroke-linejoin="round"/><path d="M293.2 407.8a2 2 0 1 1-4 0 2 2 0 1 1 4 0z" transform="matrix(0 1.152 -1.1346 0 491.5 -589.6)" color="#000" fill="none" stroke="#000" stroke-width=".7" stroke-linejoin="round" overflow="visible"/><path d="M293.2 407.8a2 2 0 1 1-4 0 2 2 0 1 1 4 0z" transform="matrix(0 1.152 -1.1346 0 491.5 -583.1)" color="#000" fill="none" stroke="#000" stroke-width=".7" stroke-linejoin="round" overflow="visible"/><path d="M293.2 407.8a2 2 0 1 1-4 0 2 2 0 1 1 4 0z" transform="matrix(0 1.152 -1.1346 0 432.6 -589.3)" color="#000" fill="none" stroke="#000" stroke-width=".7" stroke-linejoin="round" overflow="visible"/><path d="M293.2 407.8a2 2 0 1 1-4 0 2 2 0 1 1 4 0z" transform="matrix(0 1.152 -1.1346 0 432.6 -582.8)" color="#000" fill="none" stroke="#000" stroke-width=".7" stroke-linejoin="round" overflow="visible"/><path d="M293.2 407.8a2 2 0 1 1-4 0 2 2 0 1 1 4 0z" transform="matrix(-.182 1.1372 -1.12 -.1847 596.2 -502.3)" color="#000" fill="none" stroke="#000" stroke-width=".7" stroke-linejoin="round" overflow="visible"/><path d="M293.2 407.8a2 2 0 1 1-4 0 2 2 0 1 1 4 0z" transform="matrix(-.182 1.1372 -1.12 -.1847 595.2 -495.9)" color="#000" fill="none" stroke="#000" stroke-width=".7" stroke-linejoin="round" overflow="visible"/><path d="M293.2 407.8a2 2 0 1 1-4 0 2 2 0 1 1 4 0z" transform="matrix(.182 1.1372 1.12 -.1847 -594.1 -502.2)" color="#000" fill="none" stroke="#000" stroke-width=".7" stroke-linejoin="round" overflow="visible"/><path d="M293.2 407.8a2 2 0 1 1-4 0 2 2 0 1 1 4 0z" transform="matrix(.182 1.1372 1.12 -.1847 -593 -495.9)" color="#000" fill="none" stroke="#000" stroke-width=".7" stroke-linejoin="round" overflow="visible"/><path d="M-96.8-33.8c25-8.2 56-12.8 95-13 38.6.2 78 4.7 103 13L97.8-15C75-22.8 38.2-28.6 2.3-28.6c-35.8 0-78.8 6-96.8 13.3-.2 1.6-2.3-18.5-2.3-18.5z" font-size="12" fill="#ffbd03" fill-rule="evenodd" stroke="#000" stroke-width="1.5" stroke-linejoin="round"/><path d="M88.7-44.4L82-55.7s-6.2 7-14.2 6c-7.8-1.3-10-14.5-10-14.5S47.4-52 40-52.5c-7-.6-10.7-6-10.7-6s-6 5.6-12.8 5C9.5-54 0-68 0-68S-6-54-13-53.3c-7 .6-15.4-10-15.4-10s-3.2 9-12 10.5c-9 1.5-14.4-10.6-14.4-10.6S-59-50-65-47.8c-6 2.2-14-5.8-14-5.8l-8.4 9.8 4.7 5.4c21.7-6.4 51-10.3 84.2-10.3s63.4 4 85 10.3l2.3-6z" font-size="12" fill="#ffbd03" fill-rule="evenodd" stroke="#000"/><path d="M-110-56.5c4.5 9 11 17.8 21.3 15.6C-78.5-43-78-51.6-78-51.6s6.2 8.3 13.3 6.5c7-1.7 9.3-14 9.3-14s7.8 10.6 16 9.7c8.4-1 11.5-10 11.5-10s4.3 8.7 13.8 8.3c10-.4 15-13 15-13s7 13 16 13c8.8 0 12.2-7.5 12.2-7.5s2.7 8.4 11.5 9c8.8.5 16.7-10.6 16.7-10.6s3.7 13 11 14.3c7.5 1.6 13.7-6 13.7-6S84.6-42 92-41c7.3 1.2 15-7 20-17-7.8 4.4-13.2 13.3-19 11.5-5.2-1.7-10.4-13-10.4-13s-7.8 8.8-14 6.6c-6.2-2-9.5-24-9.5-24S50-54 41.5-56.2C33-58.6 28.8-69.6 28.8-69.6s-3.3 12-12.4 12.5C7-56.7.8-83.6.8-83.6S-7-56.8-14.4-57c-7.4 0-14.4-12.3-14.4-12.3s-2.3 13-10.7 12.6c-8.4-.4-20-19.7-20-19.7s.7 23-6 25c-6.2 2-17.4-9.7-17.4-9.7s3.3 12.8-4.7 15c-7.8 2-12.6-6.5-22.4-10.5z" fill="#ffbd03" fill-rule="evenodd" stroke="#000"/><path d="M2-44.6c-37.8 0-71.8 4.7-96 12.2-1.8.6-3.8-.7-4.3-2.2-.5-1.7.7-3.7 2.3-4.2 24.4-8 59.3-12.8 98-12.8s73.6 5 98 12.8c1.7.5 3 2.5 2.3 4.2-.4 1.5-2.5 2.8-4 2.2C73.7-40 39.6-44.6 2-44.6z" font-size="12" fill="#ffbd03" fill-rule="evenodd" stroke="#000" stroke-linejoin="round"/><path d="M24-82.5s-14 0-15.7-2c-2-2.4-1.8-5.7.4-7.6 1.7-1.6 5.8-3.3 8.4-2.8 2.7.4 6 1 6.2 4 .2 2.3-8 4-8 4s10.5-2 12 0c1.8 2.4 3 5.7.6 8.6-1.7 2.2-13-.7-13-.7s9.8 2 8.5 6.4c-.8 2.5-5.8 3.5-9.5 3-3.6-.7-6.8-2.8-7.5-6.3-.8-3.4 1-6.2 3.8-6.5 3.6-.4 14 0 14 0zM-22-82s13.7.3 15.5-1.6c2.2-2.3 2-5.6 0-7.5-1.7-1.7-5.7-3.6-8.3-3.2-2.6.4-6 1-6.3 3.7-.4 2.4 7.6 4.4 7.6 4.4s-10.3-2.4-12-.4c-1.8 2-3 5.4-.8 8.4 1.6 2.2 13-.2 13-.2s-9.8 1.4-8.6 6c.6 2.5 5.6 3.7 9.2 3.3 3.7-.4 7-2.4 7.8-5.8 1-3.5-.7-6.4-3.5-6.8C-11.8-82-22-82-22-82z" fill="#ffbd03" fill-rule="evenodd" stroke="#000"/><path d="M1-109.4s-.5 14 1.4 16c2.2 2 5.5 2 7.4-.2 1.5-1.7 3.4-5.7 3-8.4-.4-2.6-1-6-3.7-6.4-2.2-.3-4.2 8-4.2 8s2.3-10.5.4-12.2c-2.2-2-5.4-3.2-8.4-1-2 1.7.2 13.2.2 13.2s-1.4-10-5.8-8.7c-2.5.5-3.7 5.6-3.3 9.3.4 3.7 2.3 7 5.7 8 3.5.8 6.3-1 6.7-3.6.5-3.6.5-14 .5-14z" fill="#ffbd03" fill-rule="evenodd" stroke="#000"/><path d="M353.7 670.6a6 10.7 0 1 1-12 0 6 10.7 0 1 1 12 0z" transform="matrix(.9964 .0196 -.0193 1.0118 -332.5 -768)" color="#000" fill="#ce1126" stroke="#000" stroke-linecap="round" overflow="visible"/><path d="M82.2-73.5s-13.5-3-14.8-5.2c-1.6-2.7-.7-6 2-7.3 1.8-1 6-2 8.5-1 2.4 1 5.5 2.4 5.2 5.2-.3 2.4-8.5 2.4-8.5 2.4s10.5.2 11.6 2.5c1.3 2.6 1.8 6-1 8.5-2.2 1.8-12.6-3.3-12.6-3.3s9 3.7 7 7.8c-1.3 2.3-6.4 2.3-10 1-3.3-1.3-6-4-6-7.6 0-3.6 2.2-6 5-5.7 3.5.3 13.5 2.8 13.5 2.8zM37-82.5s13.5 3.2 15.7 1.7c2.5-1.7 3-5 1.3-7.3-1.3-2-4.8-4.6-7.4-4.8-2.7-.2-6-.3-7 2.4-.7 2.2 6.8 6 6.8 6s-9.6-4.5-11.6-3c-2.3 1.8-4 4.8-2.6 8.2 1.2 2.5 12.7 2.4 12.7 2.4s-10-.6-9.6 4c0 2.7 4.8 5 8.4 5.2 3.7.3 7.3-1 8.8-4.2 1.6-3.3.5-6.4-2-7.3C47-80.5 37-82.6 37-82.6z" fill="#ffbd03" fill-rule="evenodd" stroke="#000"/><path d="M65-104.5s-3.2 13.7-1.7 16c1.7 2.4 5 3 7.3 1.2 1.8-1.3 4.4-5 4.6-7.5 0-2.7.3-6.2-2.4-7-2.2-.8-5.8 6.8-5.8 6.8s4.3-9.8 2.8-11.8c-1.7-2.3-4.6-4.2-8-2.6-2.5 1.2-2.4 13-2.4 13s.6-10-4-9.8c-2.6 0-4.8 5-5 8.6-.3 3.7 1 7.4 4 9 3.3 1.5 6.4.4 7.3-2.3 1.2-3.3 3.3-13.5 3.3-13.5z" fill="#ffbd03" fill-rule="evenodd" stroke="#000"/><path d="M353.7 670.6a6 10.7 0 1 1-12 0 6 10.7 0 1 1 12 0z" transform="matrix(.9725 .2213 -.218 .9875 -132.2 -817.4)" color="#000" fill="#058e6e" stroke="#000" stroke-linecap="round" overflow="visible"/><path d="M-81-74s13.7-2.5 15-4.7c1.7-2.7 1-6-1.6-7.3-2-1.2-6.2-2.2-8.7-1.2-2.5 1-5.6 2.2-5.4 5 .2 2.4 8.5 2.6 8.5 2.6s-10.5 0-11.7 2.2c-1.3 2.5-1.8 6 1 8.5 2 2 12.6-3 12.6-3s-9.2 3.6-7 7.7c1 2.3 6.2 2.5 9.6 1.2 3.5-1.3 6.3-4 6.4-7.5 0-3.6-2-6-5-6-3.4.4-13.5 2.6-13.5 2.6zM-35.5-81.8s-13.6 3-15.7 1.4c-2.5-1.8-3-5-1-7.4 1.2-2 4.7-4.4 7.4-4.5 2.7 0 6-.2 7 2.5.6 2.3-7 5.7-7 5.7s9.7-4.2 11.7-2.6c2 1.8 4 4.8 2.2 8.2-1.2 2.5-12.7 2-12.7 2s9.8-.2 9.4 4.4c-.3 2.6-5 4.7-8.6 5-3.7 0-7.3-1.2-8.7-4.5-1.5-3.3-.4-6.4 2.3-7.3 3.4-1 13.5-3 13.5-3z" fill="#ffbd03" fill-rule="evenodd" stroke="#000"/><path d="M-63-104.5s3 13.8 1.4 16c-1.8 2.5-5 3-7.3 1-1.7-1.2-4.2-4.8-4.3-7.5 0-2.7-.2-6.2 2.5-7 2.2-.7 5.6 7 5.6 7s-4-10-2.5-12c1.8-2 4.7-4 8-2.3 2.5 1.3 2 13 2 13s-.2-10 4.4-9.6c2.5.3 4.6 5 4.8 8.8.2 3.7-1 7.3-4.3 8.8C-56-87-59-88-60-90.7c-1-3.5-3-13.8-3-13.8z" fill="#ffbd03" fill-rule="evenodd" stroke="#000"/><path d="M353.7 670.6a6 10.7 0 1 1-12 0 6 10.7 0 1 1 12 0z" transform="matrix(-.9773 .198 .195 .9924 150.6 -812.5)" color="#000" fill="#058e6e" stroke="#000" stroke-linecap="round" overflow="visible"/><path d="M490.5 295.4a7.5 7.5 0 1 1-15 0 7.5 7.5 0 1 1 15 0z" transform="matrix(.6008 0 0 .61 -261 -250.2)" color="#000" fill="url(#i)" stroke="#000" stroke-width="1.9" stroke-linecap="round" overflow="visible"/><path d="M490.5 295.4a7.5 7.5 0 1 1-15 0 7.5 7.5 0 1 1 15 0z" transform="matrix(.6008 0 0 .61 -318.2 -249.7)" color="#000" fill="url(#j)" stroke="#000" stroke-width="1.9" stroke-linecap="round" overflow="visible"/><path d="M1.2-23.4c-36.4 0-69.2 4.8-92.6 12.3-1.6.5-3.6-1-4-2.4-.6-1.6.6-3.6 2-4.2C-69.6-25.4-36-30.3 1.3-30.4c37.3 0 71 5 94.6 12.8 1.5.6 2.7 2.6 2.2 4.2-.5 1.5-2.5 3-4 2.3-23.5-7.6-56.4-12.3-92.8-12.4z" font-size="12" fill="#ffbd03" fill-rule="evenodd" stroke="#000" stroke-linejoin="round"/><path d="M1-34.2l7-3L1.7-41l-7.4 3.4L1-34.2z" font-size="12" fill="#ce1126" fill-rule="evenodd" stroke="#000" stroke-width=".8" stroke-linejoin="round"/><rect width="17.8" height="5.2" rx="2.4" ry="2.4" x="-55.7" y="-42.6" transform="rotate(-7)" color="#000" fill="#058e6e" stroke="#000" stroke-width=".7" stroke-linejoin="round" overflow="visible"/><rect width="24.7" height="10" rx="4.2" ry="3.5" x="-59.4" y="-45.2" transform="rotate(-7)" color="#000" fill="none" stroke="#000" stroke-width=".8" stroke-linecap="round" stroke-linejoin="round" overflow="visible"/><rect width="17.7" height="5.4" rx="2.4" ry="2.4" x="-56.4" y="-43.2" transform="matrix(-.9918 -.1275 -.1237 .9923 0 0)" color="#000" fill="#058e6e" stroke="#000" stroke-width=".7" stroke-linejoin="round" overflow="visible"/><rect width="24.7" height="10" rx="4" ry="3.5" x="-60" y="-45.6" transform="matrix(-.9918 -.1275 -.1237 .9923 0 0)" color="#000" fill="none" stroke="#000" stroke-width=".8" stroke-linejoin="round" overflow="visible"/><path d="M1-30.5L15.3-37l-13-7.5-15 6.6 14 7.5z" font-size="12" fill="none" stroke="#000" stroke-linecap="round" stroke-linejoin="round"/><path d="M293.2 407.8a2 2 0 1 1-4 0 2 2 0 1 1 4 0z" transform="matrix(0 1.012 -.9966 0 432.5 -334.3)" color="#000" fill="none" stroke="#000" stroke-width=".8" stroke-linejoin="round" overflow="visible"/><path d="M293.2 407.8a2 2 0 1 1-4 0 2 2 0 1 1 4 0z" transform="matrix(0 1.012 -.9966 0 432.5 -328.7)" color="#000" fill="none" stroke="#000" stroke-width=".8" stroke-linejoin="round" overflow="visible"/><path d="M293.2 407.8a2 2 0 1 1-4 0 2 2 0 1 1 4 0z" transform="matrix(0 1.012 -.9966 0 380.7 -334.1)" color="#000" fill="none" stroke="#000" stroke-width=".8" stroke-linejoin="round" overflow="visible"/><path d="M293.2 407.8a2 2 0 1 1-4 0 2 2 0 1 1 4 0z" transform="matrix(0 1.012 -.9966 0 380.7 -328.4)" color="#000" fill="none" stroke="#000" stroke-width=".8" stroke-linejoin="round" overflow="visible"/><path d="M293.2 407.8a2 2 0 1 1-4 0 2 2 0 1 1 4 0z" transform="matrix(.1598 .999 .9837 -.1623 -521.1 -257.6)" color="#000" fill="none" stroke="#000" stroke-width=".8" stroke-linejoin="round" overflow="visible"/><path d="M293.2 407.8a2 2 0 1 1-4 0 2 2 0 1 1 4 0z" transform="matrix(.1598 .999 .9837 -.1623 -520.2 -252)" color="#000" fill="none" stroke="#000" stroke-width=".8" stroke-linejoin="round" overflow="visible"/><path d="M-116-132.6C-86-142.4-49-148-2.3-148 44-148 91-142.6 121-132.8l-4.3 22.5c-27-9.2-71-16.2-114-16.2s-94.3 7.2-115.8 16c-.3 2-3-22.2-3-22.2z" font-size="12" fill="#ffbd03" fill-rule="evenodd" stroke="#000" stroke-width="1.5" stroke-linejoin="round"/><path d="M106-145.3l-8-13.5s-7.5 8.6-17 7C71.6-153 69-169 69-169s-12.5 14.7-21 14c-8.8-.7-13-7.2-13-7.2s-7 6.7-15.4 6C11.3-156.8 0-173.5 0-173.5s-7.3 17-15.7 18C-24-155.2-34-168-34-168s-4 10.8-14.4 12.6c-10.6 1.8-17.3-12.6-17.3-12.6s-5 16-12.2 18.5c-7 2.6-16.6-7-16.6-7l-10 11.7 5.6 6.5c26-7.7 61-12.4 100.7-12.4s75.8 4.7 101.7 12.3l2.7-7.3z" font-size="12" fill="#ffbd03" fill-rule="evenodd" stroke="#000"/><path d="M-131.7-159.8c5.4 11 13.3 21.3 25.5 18.8 12.2-2.6 12.7-13 12.7-13s7.5 10 16 7.8c8.5-2 11.2-16.7 11.2-16.7s9.3 12.7 19.3 11.7 13.6-12 13.6-12 5 10.4 16.3 10C-5.3-154 1-169 1-169s8.3 15.6 19 15.6c10.5 0 14.6-9 14.6-9s3.2 10 13.7 10.8c10.5.6 20-12.7 20-12.7s4.3 15.5 13 17.2c9 1.7 16.5-7.5 16.5-7.5s3.3 12 12.4 13.3c8.7 1.4 17.8-8.4 24-20.3-9.5 5.3-16 16-22.7 13.7-6.4-2-12.6-15.7-12.6-15.7s-9.5 10.7-17 8c-7.3-2.4-11.2-28.8-11.2-28.8s-11 27.7-21.3 25c-10.2-3-15-16-15-16s-4 14.4-15 15C8.2-160 1-192 1-192s-9.4 32-18.3 31.7c-8.8-.2-17.2-14.7-17.2-14.7s-2.8 15.5-12.8 15c-10-.4-24-23.6-24-23.6s1 27.5-7 30c-7.5 2.2-21-11.6-21-11.6s4 15.4-5.6 18c-9.3 2.5-15-7.7-26.7-12.6z" fill="#ffbd03" fill-rule="evenodd" stroke="#000"/><path d="M2.3-145.6c-45.2 0-85.8 5.7-115 14.7-2 .8-4.3-.8-5-2.6-.6-2 1-4.3 2.8-5C-85.6-148-44-154 2.4-154c46.2 0 88 6 117.3 15.4 2 .7 3.3 3 2.7 5-.6 1.8-3 3.4-5 2.7-29-9-70-14.5-115-14.6z" font-size="12" fill="#ffbd03" fill-rule="evenodd" stroke="#000" stroke-linejoin="round"/><path d="M28.5-190.8S12-191 9.8-193.3c-2.4-2.8-2-6.7.5-9 2-1.8 7-3.8 10-3.3 3 .6 7 1.4 7.4 4.8.2 2.8-9.5 5-9.5 5s12.4-2.4 14.3 0c2 2.7 3.5 6.6.7 10-2 2.7-15.4-.7-15.4-.7s11.5 2 10 7.5c-1 3-7 4.2-11.4 3.5-4.3-.7-8-3.2-9-7.4-1-4 1.2-7.5 4.5-7.8 4.2-.5 16.5 0 16.5 0zM-26.6-190.4s16.6.5 18.8-1.8c2.5-2.6 2.3-6.6-.2-9-2-1.8-6.7-4-9.8-3.6-3.2.5-7.2 1-7.6 4.5-.3 2.8 9.3 5.2 9.3 5.2s-12.4-2.8-14.4-.5c-2.2 2.6-3.7 6.5-1 10 2 2.8 15.4 0 15.4 0s-11.6 1.5-10.2 7c.8 3 6.7 4.4 11 4 4.4-.6 8.4-3 9.4-7 1-4.3-1-7.7-4.2-8.2-4.2-.6-16.6-.7-16.6-.7z" fill="#ffbd03" fill-rule="evenodd" stroke="#000"/><path d="M1-223s-.5 16.8 1.8 19c2.6 2.6 6.5 2.4 8.8 0 2-2 4-7 3.6-10-.4-3.3-1-7.4-4.4-7.8-2.8-.3-5.2 9.4-5.2 9.4s2.8-12.4.5-14.5c-2.5-2-6.3-3.6-10-1-2.5 2 .3 15.7.3 15.7s-1.6-11.8-7-10.3c-3 .8-4.4 6.8-3.8 11.2.5 4.5 2.8 8.5 7 9.5 4 1.2 7.4-.8 8-4.2.5-4.3.5-16.8.5-16.8z" fill="#ffbd03" fill-rule="evenodd" stroke="#000"/><path d="M353.7 670.6a6 10.7 0 1 1-12 0 6 10.7 0 1 1 12 0z" transform="matrix(1.1913 .0234 -.023 1.2097 -397.6 -1010.3)" color="#000" fill="#ce1126" stroke="#000" stroke-width=".8" stroke-linecap="round" overflow="visible"/><path d="M98.2-180s-16.2-3.6-17.8-6.3c-1.8-3.2-.7-7 2.3-8.7 2.3-1.3 7.4-2.3 10.4-1.2 3 1.2 6.8 2.8 6.4 6.2-.3 2.8-10.3 3-10.3 3s12.7 0 14 3c1.7 3 2.2 7-1.2 10-2.5 2-15-4-15-4s11 4.4 8.3 9.4c-1.4 2.7-7.5 2.7-11.6 1-4-1.5-7.4-4.7-7.4-9s2.7-7 6-6.8c4.2.4 16.2 3.3 16.2 3.3zM44.2-190.8s16 4 18.7 2c3-2 3.5-6 1.5-8.7-1.6-2.3-5.8-5.4-9-5.6-3-.3-7-.5-8.2 2.7-1 2.7 8 7 8 7s-11.4-5.2-13.8-3.3c-2.7 2-5 5.6-3 9.7 1.3 3 15 3 15 3s-11.6-.7-11.3 5c.2 3 5.7 5.6 10 6 4.5.3 8.8-1.2 10.6-5 2-4 .6-7.6-2.5-8.8-4-1.5-16-4-16-4z" fill="#ffbd03" fill-rule="evenodd" stroke="#000"/><path d="M77.6-217.2s-3.8 16.4-2 19c2 3 6 3.7 8.7 1.7 2.2-1.6 5.3-6 5.5-9 .2-3.3.3-7.4-2.8-8.5-2.7-1-7 8.2-7 8.2s5.2-11.7 3.3-14c-2-2.8-5.5-5-9.5-3.2-3 1.4-3 15.4-3 15.4s.8-12-4.7-11.6c-3 .2-5.6 6-6 10.3-.2 4.5 1.2 9 5 10.8 4 2 7.5.6 8.7-2.6 1.4-4 4-16.4 4-16.4z" fill="#ffbd03" fill-rule="evenodd" stroke="#000"/><path d="M353.7 670.6a6 10.7 0 1 1-12 0 6 10.7 0 1 1 12 0z" transform="matrix(1.1627 .2645 -.2605 1.1806 -158.1 -1069.5)" color="#000" fill="#058e6e" stroke="#000" stroke-width=".8" stroke-linecap="round" overflow="visible"/><path d="M-96.8-180.5s16.3-3 18-5.8c1.8-3.2.8-7-2.2-8.7-2.3-1.5-7.3-2.6-10.3-1.5-3 1-6.8 2.6-6.5 6 .3 3 10.2 3 10.2 3s-12.6 0-14 2.8c-1.6 3-2.3 7.2 1 10 2.6 2.3 15-3.5 15-3.5s-11 4.2-8.4 9.2c1.4 2.7 7.6 3 11.7 1.4 4-1.5 7.5-4.6 7.6-9 .2-4.2-2.5-7-5.8-7-4.3.4-16.3 3-16.3 3zM-42.5-190s-16.3 3.5-18.8 1.7c-3-2.2-3.5-6-1.4-9 1.6-2 6-5 9-5.3 3.2 0 7.3-.2 8.2 3 1 2.8-8.2 7-8.2 7s11.6-5 14-3c2.6 2 4.8 5.6 2.8 9.7-1.4 3-15 2.6-15 2.6s11.6-.4 11.2 5.2c-.3 3-6 5.6-10.3 5.8-4.4.3-8.8-1.3-10.5-5.2-1.7-4-.4-7.7 2.8-8.7 4-1.4 16.2-3.7 16.2-3.7zM-75.4-217s3.4 16.4 1.6 19c-2 3-6 3.5-8.7 1.4-2.2-1.7-5.2-6-5.3-9.2 0-3.2-.2-7.3 3-8.3 2.7-1 6.7 8.2 6.7 8.2s-5-11.8-3-14.2c2-2.7 5.6-5 9.6-2.8 3 1.4 2.5 15.4 2.5 15.4s-.3-12 5.2-11.4c3 .2 5.5 6 5.7 10.4.2 4.4-1.4 8.8-5.2 10.5-4 2-7.6.5-8.6-2.7-1.4-4-3.6-16.4-3.6-16.4z" fill="#ffbd03" fill-rule="evenodd" stroke="#000"/><path d="M353.7 670.6a6 10.7 0 1 1-12 0 6 10.7 0 1 1 12 0z" transform="matrix(-1.1685 .2368 .2332 1.1865 180 -1063.6)" color="#000" fill="#058e6e" stroke="#000" stroke-width=".8" stroke-linecap="round" overflow="visible"/><path d="M111.8-174.4s14 9 17 8.3c3.5-1 5.4-4.5 4.4-7.8-.7-2.7-3.6-7-6.5-8.3-3-1.4-6.7-3-8.8-.3-1.8 2.3 5.2 9.4 5.2 9.4s-9-8.7-12-7.8c-3.2 1-6.5 3.6-6 8 .3 3.4 13.3 8 13.3 8s-10.8-4.7-12.4.7c-.8 3 3.6 7.3 7.6 9 4 2 8.6 2 11.6-1s3-7 .5-9c-3.3-3-14-9.4-14-9.4z" fill="#ffbd03" fill-rule="evenodd" stroke="#000"/><path d="M155.4-190.5c.3-5-1.4-8-5.3-5.5-3.3 2.3-7.4 15-7.4 15s4.6-11-.7-12.6c-3-1-7.4 3.5-9.2 7.6-1.8 4-1.8 8.7 1 11.7 3 3 8 2 10.8.2 8.7-6.2 10.5-12.5 10.8-16.5z" fill="#ffbd03" fill-rule="evenodd" stroke="#000"/><path d="M353.7 670.6a6 10.7 0 1 1-12 0 6 10.7 0 1 1 12 0z" transform="matrix(1.0076 .646 -.636 1.023 212.1 -1071)" fill="#ce1126" stroke="#000" stroke-width=".8" stroke-linecap="round"/><path d="M-110.7-174.6s-14 9-17 8.3c-3.5-1-5.4-4.4-4.4-7.8.6-2.7 3.5-7 6.4-8.4 3-1.2 6.7-2.8 8.8 0 1.7 2-5.3 9.2-5.3 9.2s9-8.8 12-7.8c3 1 6.4 3.6 6 8-.4 3.4-13.4 8-13.4 8s10.8-4.7 12.4.7c.8 3-3.5 7.4-7.5 9.2-4 1.7-8.6 1.8-11.6-1.2s-3.2-7-.6-9.2c3.3-2.7 14-9.2 14-9.2z" fill="#ffbd03" fill-rule="evenodd" stroke="#000"/><path d="M-154.3-190.7c-.3-5 1.4-8.2 5.3-5.5 3.4 2.3 7.5 15 7.5 15s-4.6-11 .7-12.7c3-.7 7.3 3.7 9 7.7 1.8 4 2 8.8-1 11.8s-8 2-10.7.2c-8.7-6-10.5-12.5-10.8-16.4z" fill="#ffbd03" fill-rule="evenodd" stroke="#000"/><path d="M353.7 670.6a6 10.7 0 1 1-12 0 6 10.7 0 1 1 12 0z" transform="matrix(-1.0076 .646 .636 1.023 -211 -1071.3)" color="#000" fill="#ce1126" stroke="#000" stroke-width=".8" stroke-linecap="round" overflow="visible"/><path d="M490.5 295.4a7.5 7.5 0 1 1-15 0 7.5 7.5 0 1 1 15 0z" transform="matrix(.6278 0 0 .6374 -203.6 -352.2)" color="#000" fill="url(#k)" stroke="#000" stroke-width="1.8" stroke-linecap="round" overflow="visible"/><path d="M490.5 295.4a7.5 7.5 0 1 1-15 0 7.5 7.5 0 1 1 15 0z" transform="matrix(.7184 0 0 .7294 -312.1 -391.3)" color="#000" fill="url(#l)" stroke="#000" stroke-width="1.6" stroke-linecap="round" overflow="visible"/><path d="M490.5 295.4a7.5 7.5 0 1 1-15 0 7.5 7.5 0 1 1 15 0z" transform="matrix(.7184 0 0 .7294 -380.6 -390.7)" color="#000" fill="url(#m)" stroke="#000" stroke-width="1.6" stroke-linecap="round" overflow="visible"/><path d="M490.5 295.4a7.5 7.5 0 1 1-15 0 7.5 7.5 0 1 1 15 0z" transform="matrix(.6437 0 0 .6537 -409.7 -357.5)" color="#000" fill="url(#n)" stroke="#000" stroke-width="1.8" stroke-linecap="round" overflow="visible"/><path d="M1.3-120c-43.5 0-82.7 5.5-110.7 14.5-2 .7-4.2-1-4.8-2.7-.6-2 .7-4.3 2.6-5 28.2-9.3 68.3-15.2 113-15.3 44.5 0 84.8 6 113 15.3 1.8.7 3.2 3 2.6 5-.5 1.8-3 3.4-4.8 2.7-28-9-67.4-14.6-111-14.6z" font-size="12" fill="#ffbd03" fill-rule="evenodd" stroke="#000" stroke-linejoin="round"/><path d="M1.2-133l8.3-3.6-7.6-4.6-9 4 8.2 4z" font-size="12" fill="#ce1126" fill-rule="evenodd" stroke="#000" stroke-width=".8" stroke-linejoin="round"/><rect width="21.3" height="6.2" rx="2.8" ry="2.8" x="-54.9" y="-142.5" transform="rotate(-7)" color="#000" fill="#058e6e" stroke="#000" stroke-width=".7" stroke-linejoin="round" overflow="visible"/><rect width="29.5" height="12" rx="5" ry="4.2" x="-59.8" y="-145.5" transform="rotate(-7)" color="#000" fill="none" stroke="#000" stroke-width=".8" stroke-linecap="round" stroke-linejoin="round" overflow="visible"/><rect width="21.2" height="6.5" rx="2.8" ry="2.8" x="-55.9" y="-143.1" transform="matrix(-.9918 -.1275 -.1237 .9923 0 0)" color="#000" fill="#058e6e" stroke="#000" stroke-width=".7" stroke-linejoin="round" overflow="visible"/><rect width="29.5" height="12" rx="4.8" ry="4.2" x="-60.3" y="-145.9" transform="matrix(-.9918 -.1275 -.1237 .9923 0 0)" color="#000" fill="none" stroke="#000" stroke-width=".8" stroke-linejoin="round" overflow="visible"/><path d="M1.3-128.6l16.8-8-15.6-8.7-17.7 7.8 16.6 9z" font-size="12" fill="none" stroke="#000" stroke-linecap="round" stroke-linejoin="round"/><path d="M293.2 407.8a2 2 0 1 1-4 0 2 2 0 1 1 4 0z" transform="matrix(0 1.21 -1.1915 0 517 -491.9)" color="#000" fill="none" stroke="#000" stroke-width=".6" stroke-linejoin="round" overflow="visible"/><path d="M293.2 407.8a2 2 0 1 1-4 0 2 2 0 1 1 4 0z" transform="matrix(0 1.21 -1.1915 0 517 -485.1)" color="#000" fill="none" stroke="#000" stroke-width=".6" stroke-linejoin="round" overflow="visible"/><path d="M293.2 407.8a2 2 0 1 1-4 0 2 2 0 1 1 4 0z" transform="matrix(0 1.21 -1.1915 0 455.1 -491.6)" color="#000" fill="none" stroke="#000" stroke-width=".6" stroke-linejoin="round" overflow="visible"/><path d="M293.2 407.8a2 2 0 1 1-4 0 2 2 0 1 1 4 0z" transform="matrix(0 1.21 -1.1915 0 455.1 -484.8)" color="#000" fill="none" stroke="#000" stroke-width=".6" stroke-linejoin="round" overflow="visible"/><path d="M293.2 407.8a2 2 0 1 1-4 0 2 2 0 1 1 4 0z" transform="matrix(-.1598 .999 -.9837 -.1623 524.4 -257.6)" color="#000" fill="none" stroke="#000" stroke-width=".8" stroke-linejoin="round" overflow="visible"/><path d="M293.2 407.8a2 2 0 1 1-4 0 2 2 0 1 1 4 0z" transform="matrix(-.1598 .999 -.9837 -.1623 523.5 -252)" color="#000" fill="none" stroke="#000" stroke-width=".8" stroke-linejoin="round" overflow="visible"/><path d="M-95.3-21.3l-4.3-3.8 3-4 7.8 1.7-6.5 6z" font-size="12" fill="#ce1126" fill-rule="evenodd" stroke="#000" stroke-width=".9" stroke-linejoin="round"/><path d="M-92.5-69s-11.7 7.7-14.2 7c-3-.8-4.5-3.7-3.7-6.5.6-2.2 3-6 5.5-7s5.6-2.3 7.4 0c1.4 1.8-4.4 7.8-4.4 7.8s7.6-7.4 10-6.6c2.7 1 5.4 3 5 6.7-.2 2.8-11 6.7-11 6.7s9-3.8 10.3.7c.7 2.5-3 6-6.3 7.7-3.4 1.5-7.2 1.5-9.7-1-2.5-2.5-2.6-5.8-.4-7.6 2.6-2.3 11.5-7.8 11.5-7.8zM-129-82.4c-.2-4.3 1.2-6.8 4.5-4.6 2.8 2 6.2 12.4 6.2 12.4s-3.8-9 .6-10.5c2.5-.8 6 3 7.6 6.3 1.4 3.4 1.4 7.3-1 9.8-2.5 2.7-6.7 2-9 .3-7.3-5-8.7-10.4-9-13.7z" fill="#ffbd03" fill-rule="evenodd" stroke="#000"/><path d="M353.7 670.6a6 10.7 0 1 1-12 0 6 10.7 0 1 1 12 0z" transform="matrix(-.8427 .5402 .532 .8557 -176.4 -818.9)" color="#000" fill="#ce1126" stroke="#000" stroke-linecap="round" overflow="visible"/><path d="M490.5 295.4a7.5 7.5 0 1 1-15 0 7.5 7.5 0 1 1 15 0z" transform="matrix(.5384 0 0 .5467 -342.6 -221.9)" color="#000" fill="url(#o)" stroke="#000" stroke-width="2.1" stroke-linecap="round" overflow="visible"/><path d="M-94.6-17l12.4-11.8-14.4-3.8" font-size="12" fill="none" stroke="#000" stroke-linecap="round" stroke-linejoin="round"/><path d="M-114-117.6l-5.2-4.6 3.5-4.6 9.4 2-7.8 7.2z" font-size="12" fill="#ce1126" fill-rule="evenodd" stroke="#000" stroke-width=".9" stroke-linejoin="round"/><path d="M-113.2-112.5l14.8-14-17.2-4.6" font-size="12" fill="none" stroke="#000" stroke-linecap="round" stroke-linejoin="round"/><path d="M293.2 407.8a2 2 0 1 1-4 0 2 2 0 1 1 4 0z" transform="matrix(.191 1.1942 1.176 -.194 -623.1 -400.2)" color="#000" fill="none" stroke="#000" stroke-width=".6" stroke-linejoin="round" overflow="visible"/><path d="M293.2 407.8a2 2 0 1 1-4 0 2 2 0 1 1 4 0z" transform="matrix(.191 1.1942 1.176 -.194 -622.1 -393.5)" color="#000" fill="none" stroke="#000" stroke-width=".6" stroke-linejoin="round" overflow="visible"/><path d="M93.6-68.8s11.7 7.7 14.2 7c3-.8 4.5-3.7 3.7-6.5-.6-2.2-3-6-5.5-7-2.4-1-5.5-2.3-7.3 0-1.4 1.8 4.4 7.8 4.4 7.8S95.6-75 93-74c-2.6.8-5.3 3-5 6.6.3 2.8 11.2 6.7 11.2 6.7s-9-4-10.4.6c-.7 2.3 3 6 6.3 7.6 3.4 1.5 7.3 1.5 9.8-1 2.5-2.5 2.6-5.8.4-7.6-2.8-2.3-11.6-7.8-11.6-7.8z" fill="#ffbd03" fill-rule="evenodd" stroke="#000"/><path d="M130-82.2c.3-4.3-1-6.8-4.4-4.6-2.8 2-6.2 12.4-6.2 12.4s3.8-9.2-.6-10.5c-2.5-.6-6 3-7.6 6.5-1.5 3.4-1.6 7.3 1 9.8 2.4 2.6 6.6 1.8 8.8.2 7.3-5 8.8-10.4 9-13.7z" fill="#ffbd03" fill-rule="evenodd" stroke="#000"/><path d="M116.6-112l-13.8-14 16.8-5" font-size="12" color="#000" fill="none" stroke="#000" stroke-linejoin="round" overflow="visible"/><path d="M117.3-117.6l5.8-3.5-3.6-5.5-9.2 2 7 7z" font-size="12" fill="#ce1126" fill-rule="evenodd" stroke="#000" stroke-width=".8" stroke-linejoin="round"/><path d="M293.2 407.8a2 2 0 1 1-4 0 2 2 0 1 1 4 0z" transform="matrix(-.191 1.1942 -1.176 -.194 626.9 -400.2)" color="#000" fill="none" stroke="#000" stroke-width=".6" stroke-linejoin="round" overflow="visible"/><path d="M293.2 407.8a2 2 0 1 1-4 0 2 2 0 1 1 4 0z" transform="matrix(-.191 1.1942 -1.176 -.194 625.8 -393.5)" color="#000" fill="none" stroke="#000" stroke-width=".6" stroke-linejoin="round" overflow="visible"/><path d="M97.6-16.5L86-28.5l14.2-4" font-size="12" color="#000" fill="none" stroke="#000" stroke-linejoin="round" overflow="visible"/><path d="M98.2-21.3l4.8-3-3-4.4-7.7 1.6 6 5.7z" font-size="12" fill="#ce1126" fill-rule="evenodd" stroke="#000" stroke-width=".8" stroke-linejoin="round"/><path d="M353.7 670.6a6 10.7 0 1 1-12 0 6 10.7 0 1 1 12 0z" transform="matrix(.8427 .5402 -.532 .8557 177.5 -818.7)" fill="#ce1126" stroke="#000" stroke-linecap="round"/><path d="M490.5 295.4a7.5 7.5 0 1 1-15 0 7.5 7.5 0 1 1 15 0z" transform="matrix(.525 0 0 .5332 -170.2 -217.5)" color="#000" fill="url(#p)" stroke="#000" stroke-width="2.2" stroke-linecap="round" overflow="visible"/><path d="M1-378.6c-5.2 0-9.8.5-14 2-1.2 4-1 9.3 0 14 3.6-1.8 10.4-2.3 14-2.3 3.7 0 10.5.6 14 2.3 1-4.6 1.3-9.8 0-13.8-4-1.6-8.7-2-14-2z" fill="#ffbd03" stroke="#000" stroke-width=".8" stroke-linecap="round" stroke-linejoin="round"/><path d="M-297.8-184c6 .5 11.4 5.3 11.8 12l-2.5-2.4c-9.4 2.4-21.3 14.4-23.7 24l2.5 2.5c-6.5 0-12-5.4-11.7-12 5-12.2 11.8-18.3 23.6-24z" font-size="12" fill="#ffbd03" fill-rule="evenodd" stroke="#000"/><g fill="#ffbd03" fill-rule="evenodd" stroke="#000" stroke-linecap="round" stroke-linejoin="round"><path d="M-258-190.7c.3 0 .6.4.8.8.2.5.2 1 0 1.3-2.7 6-6.2 12-13 13.7-.5.2-1 0-1.5-.3-.4-.4-.6-1-.4-1.5 0-.6.5-1 1-1 5.5-1.5 8.4-6.2 11-12 .3-.8 1.2-1.2 2-1z"/><path d="M-256-189c.4 0 .8.3 1 .7 0 .4.2 1 0 1.3-2.7 6.2-6.6 11.8-12 16-.5.3-1 .4-1.6.2-.6-.2-1-.7-1-1.3 0-.6.2-1.2.7-1.5 5-3.7 8.7-9 11.2-14.7.3-.7 1-1 1.8-1z"/><path d="M-254-187c.4.2.7.5 1 1v1.2c-2.7 6-6 12.6-11.6 16.7-.5.3-1 .4-1.6.2-.5-.3-1-.7-1-1.3 0-.6.3-1.2.8-1.5 4.7-3.5 8-9.6 10.6-15.5.3-.7 1-1 1.7-1zM-249.8-182.3c.4 0 .7.4 1 .8v1.2c-2.8 6-6.5 12.6-11.4 17-.6.6-1.6.6-2 0-.7-.6-.7-1.6 0-2 4.4-4 8-10.3 10.5-16.2.4-.7 1.2-1 2-.8z"/><path d="M-252-184.6c.5 0 1 .4 1 .8.3.4.3 1 0 1.3-1.2 3-3 6.4-5.4 8.8-2.3 2.4-5.4 4-8.8 3.4-.6-.2-1-.5-1.2-1 0-.6 0-1 .4-1.5.3-.4 1-.6 1.4-.5 2.3.5 4.2-.5 6-2.5 2-2 3.7-5 5-8 .3-.5 1-1 1.7-.8zM-247.8-180c.4 0 .8.3 1 .7.2.4.2 1 0 1.3-2.7 6.2-6.3 11.6-13 15.5-.8.4-1.7.2-2-.6-.5-.8-.3-1.7.4-2 6-3.6 9.2-8.3 11.8-14.2.3-.7 1-1 1.8-1z"/><path d="M-246-178c.5.3 1 .6 1 1 .2.4.2.8 0 1.2-2.7 6-6.3 11.6-13 15.5-.8.4-1.7 0-2-.6-.5-.6-.2-1.6.5-2 6-3.4 9.2-8.2 11.8-14 .3-.8 1-1 1.8-1z"/><path d="M-243.6-175.8c.4.2.7.5 1 1 0 .3 0 .7-.2 1-2.7 6.3-7 11.2-13.5 15-.8.4-1.7.2-2-.5-.5-.8-.2-1.7.5-2 6.2-3.6 9.8-7.8 12.3-13.6.3-.6 1-1 2-.8z"/><path d="M-241.2-173.2c.4 0 .7.4 1 .8v1.2c-3 6.3-6.8 10-13.3 14-.8.3-1.7 0-2-.7-.5-.6-.3-1.5.5-2 6.2-3.5 9.4-6.6 12-12.4.2-.7 1-1 1.8-.8z"/><path d="M-239-171.7l.8.8v1.4c-2.7 6-6 11.7-12.7 13.6-.7.3-1.5-.2-1.7-1-.3-.8.2-1.7 1-2 5.5-1.4 8-6 10.7-11.8.3-.8 1-1 2-1z"/><path d="M-237-169.4c.5 0 .8.4 1 .8.2.4.2.8 0 1.2-2.6 6-5 12.2-12 16-.7.5-1.6.3-2-.4-.5-.8-.2-1.7.5-2 6-3.5 8-8.8 10.7-14.8.3-.7 1.2-1 2-.8z"/><path d="M-234.7-167.3c.4 0 .8.4 1 .8v1.2c-2.8 6-6.4 11.8-12.5 16-.4.3-1 .4-1.5.2-.6-.4-1-1-1-1.4 0-.6.3-1.2 1-1.4 5.4-3.8 8.6-8.8 11.2-14.7.3-.7 1-1 1.8-.8z"/><path d="M-232.4-165c.4 0 .7.3.8.7.2.4.2.8 0 1.2-2.7 6-6.3 11.5-13 15.4-.7.4-1.7.2-2-.6-.5-.7-.2-1.6.5-2 6-3.5 9-8.2 11.7-14 .3-.8 1-1.2 2-1z"/><path d="M-230.3-162.7c.5 0 .8.4 1 .8v1.3c-2.8 6-6.3 12-13 13.7-.6.2-1.2 0-1.6-.3-.3-.4-.4-1-.3-1.5.2-.6.6-1 1.2-1 5.3-1.5 8.3-6.2 11-12 .2-.8 1-1.2 1.7-1z"/><path d="M-228.2-161c.4 0 .8.3 1 .7.2.4.2 1 0 1.3-2.7 6.2-6.5 11.8-12 16-.5.3-1 .4-1.6.2-.5-.2-1-.7-1-1.3 0-.6.3-1.2.7-1.5 5-3.7 8.5-9 11-14.7.3-.7 1-1 1.8-1z"/><path d="M-226.2-159c.4.2.8.5 1 1 .2.3.2.8 0 1.2-2.7 6-6 12.6-11.6 16.7-.4.3-1 .4-1.5.2-.6-.2-1-.7-1-1.3 0-.6.2-1.2.7-1.5 4.7-3.5 8-9.6 10.6-15.5.3-.7 1-1 1.8-1zM-222-154.3c.4 0 .8.4 1 .8v1.2c-2.8 6-6.4 12.6-11.4 17-.6.6-1.5.6-2 0-.7-.6-.6-1.6 0-2 4.4-4 8-10.3 10.6-16.2.3-.7 1-1 1.8-.8z"/><path d="M-223.8-157c.4 0 .8.4 1 .8.2.4.2.8 0 1.2-1.4 3-3.2 6.4-5.5 8.8-2.3 2.5-5.4 4-8.8 3.4-.7 0-1-.5-1.3-1 0-.5 0-1 .3-1.5.4-.4 1-.6 1.5-.5 2.2.5 4-.5 6-2.5s3.7-5 5-7.8c.2-.8 1-1.2 1.7-1z"/></g><path d="M-159-184.7l-39-38c2.7 2.5 5 5.7 7 9.7 31 59.6-16.4 229 35.4 271.5l39 37.8c-52-42.3-4.6-212-35.3-271.5-2-4-4.3-7-7-9.5z" fill="#fff" stroke="#000" stroke-width=".8" stroke-linecap="round" stroke-linejoin="round"/><path d="M-195.2-219.7c1.6 2 3 4 4.3 6.7C-160-153.7-207 14.8-156 58c-43.3-49.4-.4-209-30-266.5-2-3.8-4.4-7-7-9.5l-2-1.7z" fill="#ffbd03" stroke="#000" stroke-width=".8" stroke-linecap="round" stroke-linejoin="round"/><path d="M-165.2-99.3v19.5L-173-87l-.3 18.3 7.6 3.4c-.2 10.8-1.8 21.7-1.5 33l9.2 6.2c-.5-11.4-1-23-.6-34.4l8.7 7.8.6-18.5-8.8-4c.2-6.2 1-12.2 2.2-18l-9.2-6.3z" font-size="12" fill="#ffbd03" fill-rule="evenodd" stroke="#000" stroke-width=".8"/><path d="M-156.8-180c29.6 57.5-13.3 217.2 30 266.5l4.7 4.6c-43-49.6-.3-208.8-30-266.2-2-4-4.3-7-7-9.5-7.8-8.6.2 1.2 2.2 4.7zM-122 91v.3c.2 0 .3 0 .3.2l-.4-.4z" fill="#ffbd03" stroke="#000" stroke-width=".8" stroke-linecap="round" stroke-linejoin="round"/><path d="M-159-184.7l-39-38c-18-17-48.3-.4-62 32.5l39 37.8c13.6-33 44-49.7 62-32.3z" fill="#fff" stroke="#000" stroke-width=".8" stroke-linecap="round" stroke-linejoin="round"/><path d="M-181.3-196.5c-16.4.3-34.8 15.6-44.6 39.3l5 4.8c13-31.6 41.4-48.3 59.8-34.3-.5-.6-1-1.3-1.6-1.8l-.5-.6-.4-.5h-.2c-5-5-11-7-17.3-7zM-215.5-229.5c-16.3.3-34.7 15.6-44.5 39.3l4.7 4.5c13.7-33 44-49.7 62.2-32.3l-5-4.7c-5-4.8-11-7-17.5-6.8z" fill="#ffbd03" stroke="#000" stroke-width=".8" stroke-linecap="round" stroke-linejoin="round"/><g fill="#ffbd03" fill-rule="evenodd" stroke="#000" stroke-linecap="round" stroke-linejoin="round"><path d="M259.2-190.7c-.4 0-.7.4-1 .8v1.3c2.8 6 6.3 12 13 13.7.6.2 1.2 0 1.6-.3.4-.4.6-1 .4-1.5-.2-.6-.6-1-1.2-1-5.4-1.5-8.3-6.2-11-12-.2-.8-1-1.2-1.8-1z"/><path d="M257-189c-.3 0-.7.3-1 .7v1.3c2.8 6.2 6.7 11.8 12.2 16 .4.3 1 .4 1.5.2.6-.2 1-.7 1-1.3 0-.6-.2-1.2-.7-1.5-5-3.7-8.6-9-11-14.7-.4-.7-1.2-1-2-1z"/><path d="M255.2-187c-.5.2-.8.5-1 1-.2.3-.2.8 0 1.2 2.6 6 6 12.6 11.5 16.7.5.3 1 .4 1.6.2.5-.3 1-.7 1-1.3 0-.6-.3-1.2-.8-1.5-4.7-3.5-8-9.6-10.6-15.5-.4-.7-1-1-1.8-1zM251-182.3c-.5 0-.8.4-1 .8-.2.4-.2.8 0 1.2 2.7 6 6.4 12.6 11.3 17 .6.6 1.6.6 2 0 .7-.6.7-1.6 0-2-4.4-4-8-10.3-10.6-16.2-.3-.7-1-1-1.8-.8z"/><path d="M253-184.6c-.4 0-.8.4-1 .8-.2.4-.2 1 0 1.3 1.3 3 3 6.4 5.5 8.8 2.3 2.4 5.4 4 8.8 3.4.6-.2 1-.5 1-1 .3-.6.2-1-.2-1.5-.2-.4-.8-.6-1.3-.5-2.3.5-4.2-.5-6-2.5-2-2-3.7-5-5-8-.3-.5-1-1-1.7-.8zM249-180c-.5 0-1 .3-1 .7-.3.4-.3 1 0 1.3 2.6 6.2 6.2 11.6 13 15.5.7.4 1.6.2 2-.6.4-.8.2-1.7-.6-2-6-3.6-9.2-8.3-11.7-14.2-.3-.7-1-1-1.8-1z"/><path d="M247-178c-.5.3-.8.6-1 1v1.2c2.8 6 6.4 11.6 13 15.5.8.4 1.8 0 2.2-.6.4-.6 0-1.6-.6-2-6-3.4-9.2-8.2-11.8-14-.3-.8-1-1-2-1z"/><path d="M244.7-175.8c-.4.2-.7.5-1 1 0 .3 0 .7.2 1 2.6 6.3 6.8 11.2 13.4 15 .7.4 1.7.2 2-.5.5-.8.2-1.7-.5-2-6.3-3.6-10-7.8-12.4-13.6-.3-.6-1-1-2-.8z"/><path d="M242.3-173.2c-.4 0-.7.4-1 .8v1.2c3 6.3 6.8 10 13.3 14 .8.3 1.7 0 2-.7.5-.6.2-1.5-.5-2-6-3.5-9.3-6.6-11.8-12.4-.3-.7-1-1-2-.8z"/><path d="M240.2-171.7l-1 .8v1.4c2.8 6 6 11.7 12.8 13.6.8.3 1.6-.2 1.8-1 .3-.8-.2-1.7-1-2-5.5-1.4-8-6-10.7-11.8-.2-.8-1-1-1.8-1z"/><path d="M238-169.4c-.4 0-.7.4-1 .8v1.2c2.7 6 5.2 12.2 12 16 .8.5 1.7.3 2-.4.6-.8.3-1.7-.4-2-6-3.5-8-8.8-10.7-14.8-.5-.7-1.3-1-2-.8z"/><path d="M235.8-167.3c-.4 0-.8.4-1 .8v1.2c2.8 6 6.3 11.8 12.5 16 .4.3 1 .4 1.5.2.6-.4 1-1 1-1.4 0-.6-.4-1.2-1-1.4-5.4-3.8-8.6-8.8-11.2-14.7-.3-.7-1-1-1.8-.8z"/><path d="M233.5-165c-.4 0-.7.3-1 .7v1.2c2.8 6 6.5 11.5 13.2 15.4.7.4 1.6.2 2-.6.5-.7.2-1.6-.5-2-6-3.5-9.2-8.2-11.8-14-.3-.8-1-1.2-2-1z"/><path d="M231.3-162.7c-.4 0-.7.4-1 .8 0 .5 0 1 .2 1.3 2.7 6 6.2 12 13 13.7.5.2 1 0 1.5-.3.4-.4.5-1 .4-1.5-.2-.6-.7-1-1.2-1-5.4-1.5-8.4-6.2-11-12-.3-.8-1-1.2-2-1z"/><path d="M229.3-161c-.4 0-.8.3-1 .7-.2.4-.2 1 0 1.3 2.7 6.2 6.5 11.8 12 16 .5.3 1 .4 1.6.2.4-.2.8-.7.8-1.3 0-.6-.2-1.2-.6-1.5-5-3.7-8.6-9-11.2-14.7-.3-.7-1-1-1.7-1z"/><path d="M227.3-159c-.4.2-.8.5-1 1-.2.3-.2.8 0 1.2 2.7 6 6 12.6 11.6 16.7.3.3 1 .4 1.4.2.6-.2 1-.7 1-1.3 0-.6-.2-1.2-.7-1.5-4.7-3.5-8-9.6-10.6-15.5-.2-.7-1-1-1.7-1zM223-154.3c-.3 0-.7.4-.8.8-.2.4-.2.8 0 1.2 2.7 6 6.3 12.6 11.3 17 .6.6 1.5.6 2 0 .7-.6.6-1.6 0-2-4.4-4-8-10.3-10.6-16.2-.4-.7-1.2-1-2-.8z"/><path d="M225-157c-.5 0-1 .4-1 .8-.3.4-.3.8 0 1.2 1.3 3 3 6.4 5.4 8.8 2.3 2.5 5.4 4 8.8 3.4.6 0 1-.5 1.2-1 0-.5 0-1-.4-1.5-.3-.4-1-.6-1.4-.5-2.2.5-4-.5-6-2.5s-3.7-5-5-7.8c-.2-.8-1-1.2-1.7-1z"/></g><path d="M160-184.7l39-38c-2.6 2.5-5 5.7-7 9.7-30.8 59.6 16.5 229-35.3 271.5l-39 37.8c52-42.3 4.6-212 35.3-271.5 2-4 4.4-7 7-9.5z" fill="#fff" stroke="#000" stroke-width=".8" stroke-linecap="round" stroke-linejoin="round"/><path d="M166.2-99.3v19.5l8-7.3.2 18.3-7.7 3.4c.3 10.8 1.8 21.7 1.6 33l-9.2 6.2c.6-11.4 1.2-23 .7-34.4l-8.7 7.8-.5-18.5 8.8-4c-.2-6.2-1-12.2-2.2-18l9.2-6.3z" font-size="12" fill="#ffbd03" fill-rule="evenodd" stroke="#000" stroke-width=".8"/><path d="M196.3-219.7c-1.6 2-3 4-4.3 6.7-30.7 59.3 16.2 227.8-34.7 271 43.3-49.4.4-209 30-266.5 2-3.8 4.4-7 7-9.5l2-1.7zM158-180C128.2-122.5 171 37.2 128 86.5L123 91c43-49.6.2-208.8 30-266.2 2-4 4.2-7 6.8-9.5 8-8.6 0 1.2-2 4.7zM123 91c0 .2 0 .2-.2.3 0 0-.2 0-.2.2l.4-.4z" fill="#ffbd03" stroke="#000" stroke-width=".8" stroke-linecap="round" stroke-linejoin="round"/><path d="M160-184.7l39-38c18.2-17 48.4-.4 62 32.5l-39 37.8c-13.6-33-44-49.7-62-32.3z" fill="#fff" stroke="#000" stroke-width=".8" stroke-linecap="round" stroke-linejoin="round"/><path d="M182.4-196.5c16.4.3 34.8 15.6 44.6 39.3l-5 4.8c-13-31.6-41.4-48.3-59.7-34.3.5-.6 1-1.3 1.6-1.8 0-.2.2-.4.4-.6l.4-.5h.2c5-5 11-7 17.4-7zM216.6-229.5c16.3.3 34.7 15.6 44.5 39.3l-4.6 4.5c-13.7-33-44-49.7-62.2-32.3l5-4.7c5-4.8 11-7 17.4-6.8z" fill="#ffbd03" stroke="#000" stroke-width=".8" stroke-linecap="round" stroke-linejoin="round"/><path d="M-194.5-217c-6-.7-9.2 1-14 2.7l-4.4-8c-5.3.5-13.6 4.8-17 8.5 4 1.8 8 3.3 11.4 6-9.7 7-20 15-25.4 22.3l12.5 12.2c4.7-10.5 11-20.8 20-27.8 3 2.5 4.7 5.8 6.8 8.8 4.6-4 10.7-6.7 17.3-7.3-3.6-2.8-9.3-6-13.4-8 4.3-1.5 9.5-2.5 17.4 1l-11-10.5zM195.6-217c6-.7 9 1 14 2.7l4.4-8c5.4.5 13.7 4.8 17 8.5-3.8 1.8-7.8 3.3-11.3 6 9.7 7 20 15 25.4 22.3l-12.4 12.2c-4.7-10.5-11-20.8-20-27.8-3 2.5-4.7 5.8-6.8 8.8-4.6-4-10.7-6.7-17.3-7.3 3.6-2.8 9.3-6 13.4-8-4.4-1.5-9.6-2.5-17.5 1l11-10.5z" font-size="12" fill="#ffbd03" fill-rule="evenodd" stroke="#000" stroke-width=".8"/></g></svg>